<svg xmlns="http://www.w3.org/2000/svg" xmlns:xlink="http://www.w3.org/1999/xlink" viewBox="0 0 57.5 39.51"><defs><style>.cls-1{fill:#49855e;}.cls-2{fill:#6e9e75;}.cls-3{fill:url(#radial-gradient);}</style><radialGradient id="radial-gradient" cx="29.25" cy="18.34" r="21.4" gradientUnits="userSpaceOnUse"><stop offset="0.08" stop-color="#f6c785"/><stop offset="0.5" stop-color="#f6c584"/><stop offset="0.65" stop-color="#f5be81"/><stop offset="0.76" stop-color="#f4b37b"/><stop offset="0.85" stop-color="#f2a272"/><stop offset="0.92" stop-color="#f08c67"/><stop offset="0.99" stop-color="#ee715a"/><stop offset="1" stop-color="#ed6a56"/></radialGradient></defs><title>Fruit</title><g id="Layer_2" data-name="Layer 2"><g id="Layer_1-2" data-name="Layer 1"><path class="cls-1" d="M27.25,34.27c0,2.52,6.49,6.94,13.62,4.56,9.75-3.25,16.63-1.56,16.63-1.56S48.4,29.7,40.88,29.7,27.25,31.75,27.25,34.27Z"/><path class="cls-2" d="M28.63,34.61a32,32,0,0,1,7.13-1.12,50.88,50.88,0,0,1,7.2.1,51.94,51.94,0,0,1,7.12,1.12,37.77,37.77,0,0,1,6.85,2.22c-2.41-.15-4.76-.45-7.11-.68s-4.69-.47-7-.67-4.69-.36-7-.54Z"/><path class="cls-3" d="M42.93,2.39a4.14,4.14,0,0,0-6.54-1.27A61.26,61.26,0,0,0,30.25,7.5a1.24,1.24,0,0,1-1.94,0,60.78,60.78,0,0,0-6-6.37,4.14,4.14,0,0,0-6.55,1.2C13.28,7.4,10,15.61,11.13,21.65c1.76,9.38,8.2,16.05,14.4,14.9a7.9,7.9,0,0,0,.87-.22,9.78,9.78,0,0,1,5.72,0,4.74,4.74,0,0,0,.65.16C39,37.73,45.48,31.13,47.34,21.77,48.53,15.74,45.35,7.5,42.93,2.39Z"/><path class="cls-1" d="M30.25,34.27c0,2.52-6.49,6.94-13.62,4.56C6.88,35.58,0,37.27,0,37.27S9.1,29.7,16.63,29.7,30.25,31.75,30.25,34.27Z"/><path class="cls-2" d="M0,37.27A29.38,29.38,0,0,1,7.1,34a38.7,38.7,0,0,1,7.69-1.63c1.3-.16,2.62-.19,3.93-.24l2,.08,1,0,1,.12a27.49,27.49,0,0,1,7.59,1.92c-2.61-.15-5.14-.41-7.68-.36a63.8,63.8,0,0,0-7.57.43c-2.51.25-5,.65-7.51,1.15S2.52,36.59,0,37.27Z"/></g></g></svg>