<svg xmlns="http://www.w3.org/2000/svg" viewBox="0 0 252.6 148.44"><defs><style>.cls-1{fill:#3c2415;}.cls-2{fill:#c2b59b;}.cls-3{fill:#231f20;}.cls-4{fill:none;stroke:#231f20;stroke-miterlimit:10;stroke-width:1.64px;}.cls-5{fill:#fff;}.cls-6{fill:#594a42;}.cls-7{fill:#9b8579;}</style></defs><title>Otter</title><g id="Layer_2" data-name="Layer 2"><g id="Otter"><g id="_Group_" data-name="&lt;Group&gt;"><path id="_Path_" data-name="&lt;Path&gt;" class="cls-1" d="M249.19,82.08c-4.53,27.87-51.35,43.44-104.56,34.78S52,78.58,56.5,50.71c2-12,8.25-29.08,23.45-34,8.38-2.75,20.71,3.05,31.42,1.61,14.91-2,32.09-5.2,49.69-2.33C214.27,24.6,253.73,54.21,249.19,82.08Z"/><path id="_Path_2" data-name="&lt;Path&gt;" class="cls-1" d="M221.52,58.57S249,56.35,252.33,87.72s-23.87,66.34-114.09,60c0,0,35.81-6.11,52.46-33.59S192.09,62.74,221.52,58.57Z"/><path id="_Path_3" data-name="&lt;Path&gt;" class="cls-1" d="M68.29,80c-.84,0-14.44,11.93-21.93,14.15s-12.49,19.71,5.83,15,13.6-6.1,30.25-6.94S106,94.66,106,94.66Z"/><path id="_Path_4" data-name="&lt;Path&gt;" class="cls-1" d="M100.72,18.62c3.32-4.89,1-12.37,1-12.37-4.17-.64-7.45,1.8-9.22,3.57a45.45,45.45,0,0,0-60.58,3.72c-5.63-4.22-8.62-1.74-8.62-1.74-2.06,6.83-.21,10.69,1.22,12.48a38.53,38.53,0,0,0-3.72,16.53c0,22.53,19.45,40.8,43.44,40.8s43.44-18.27,43.44-40.8A38.88,38.88,0,0,0,100.72,18.62Z"/><path id="_Path_5" data-name="&lt;Path&gt;" class="cls-2" d="M27.13,62.49S18,42.37,30.88,43.06s13.19,5.69,18.74,3.75,7.77-5.55,13.6-4.44,11.24,5.41,19.71,2.77,10.13-9.44,15.54-6.38,4.17,14.57,4,26.92,7.27,22.53,13,24c0,0,25.29,6,29.77,7,4.13,1,44.87,20.67,44.83,20.68-45.39,7.91-91.3-14.12-91.54-14.12-.41,0-24.84-14.58-30.53-21.65A45.6,45.6,0,0,1,27.13,62.49Z"/><path id="_Path_6" data-name="&lt;Path&gt;" class="cls-3" d="M64.4,50c0,1.41-2.64,4.23-5.9,4.23S52.6,51.45,52.6,50s2.64-2.57,5.9-2.57S64.4,48.62,64.4,50Z"/><path id="_Path_7" data-name="&lt;Path&gt;" class="cls-4" d="M42.47,60.79c.19.54,5.65,5.63,17.15.16,0,0,10.4,7.3,20.32-3.47"/><ellipse id="_Path_8" data-name="&lt;Path&gt;" class="cls-5" cx="62.21" cy="50.24" rx="1.21" ry="0.69"/><path id="_Path_9" data-name="&lt;Path&gt;" class="cls-1" d="M152.4,98.68s-11.66-.41-36.65,14.3-33.58,13.6-33.58,13.6a9.36,9.36,0,0,1-9.44-3.33c-5.48-7.15,13.88-10.55,27.48-21.93s15.54-13,16.66-12.77S149.07,87,152.4,98.68Z"/><path id="_Path_10" data-name="&lt;Path&gt;" class="cls-6" d="M25.4,22.69c-.26.15-2.64-4.23-.76-9.09a6.69,6.69,0,0,1,2.42,6.94A3.27,3.27,0,0,1,25.4,22.69Z"/><path id="_Path_11" data-name="&lt;Path&gt;" class="cls-6" d="M100.9,7.49s2.29,6.94-1.31,9.79C99.59,17.28,94.73,14.71,100.9,7.49Z"/><circle id="_Path_12" data-name="&lt;Path&gt;" class="cls-6" cx="38.1" cy="52.08" r="0.52"/><circle id="_Path_13" data-name="&lt;Path&gt;" class="cls-6" cx="44.03" cy="51.67" r="0.52"/><circle id="_Path_14" data-name="&lt;Path&gt;" class="cls-6" cx="43.88" cy="55.15" r="0.78"/><circle id="_Path_15" data-name="&lt;Path&gt;" class="cls-6" cx="75.73" cy="48.86" r="0.78"/><circle id="_Path_16" data-name="&lt;Path&gt;" class="cls-6" cx="46.95" cy="52.81" r="0.36"/><circle id="_Path_17" data-name="&lt;Path&gt;" class="cls-6" cx="72.97" cy="55.52" r="0.36"/><circle id="_Path_18" data-name="&lt;Path&gt;" class="cls-6" cx="71.25" cy="49.64" r="0.36"/><circle id="_Path_19" data-name="&lt;Path&gt;" class="cls-6" cx="38.78" cy="54.27" r="0.36"/><circle id="_Path_20" data-name="&lt;Path&gt;" class="cls-6" cx="33.62" cy="52.29" r="0.36"/><circle id="_Path_21" data-name="&lt;Path&gt;" class="cls-6" cx="79.06" cy="53.44" r="0.36"/><circle id="_Path_22" data-name="&lt;Path&gt;" class="cls-6" cx="71.51" cy="52.45" r="0.36"/><circle id="_Path_23" data-name="&lt;Path&gt;" class="cls-6" cx="82.86" cy="48.65" r="0.36"/><circle id="_Path_24" data-name="&lt;Path&gt;" class="cls-6" cx="86.61" cy="49.64" r="0.36"/><circle id="_Path_25" data-name="&lt;Path&gt;" class="cls-6" cx="68.55" cy="53.9" r="0.47"/><circle id="_Path_26" data-name="&lt;Path&gt;" class="cls-6" cx="75" cy="52.97" r="0.57"/><circle id="_Path_27" data-name="&lt;Path&gt;" class="cls-6" cx="35.65" cy="54.84" r="0.57"/><circle id="_Path_28" data-name="&lt;Path&gt;" class="cls-6" cx="83.28" cy="51.77" r="0.57"/><circle id="_Path_29" data-name="&lt;Path&gt;" class="cls-6" cx="80.05" cy="50.31" r="0.52"/><circle id="_Path_30" data-name="&lt;Path&gt;" class="cls-6" cx="37.37" cy="49.58" r="0.52"/><circle id="_Path_31" data-name="&lt;Path&gt;" class="cls-6" cx="68.5" cy="47.92" r="0.52"/><circle id="_Path_32" data-name="&lt;Path&gt;" class="cls-6" cx="40.91" cy="49.06" r="0.42"/><circle id="_Path_33" data-name="&lt;Path&gt;" class="cls-6" cx="50.02" cy="56.19" r="0.47"/><circle id="_Path_34" data-name="&lt;Path&gt;" class="cls-6" cx="29.88" cy="51.04" r="0.47"/><circle id="_Path_35" data-name="&lt;Path&gt;" class="cls-6" cx="33.88" cy="48.28" r="0.36"/><g id="_Group_2" data-name="&lt;Group&gt;"><path id="_Path_36" data-name="&lt;Path&gt;" class="cls-7" d="M41.25,51.84a51.22,51.22,0,0,0-6.1-2.4c-.93-.32-1.95-.63-3-.95s-2.24-.59-3.44-.9S26.23,47,25,46.82s-2.58-.45-3.89-.58l-2-.23-2-.13a37.84,37.84,0,0,0-3.81-.12c-1.23,0-2.43,0-3.56.1L8.13,46c-.53,0-1,.13-1.53.19-1,.13-1.88.23-2.68.35l-2,.43L.1,47.29l1.78-.4,2-.46c.79-.14,1.69-.26,2.67-.41.5-.07,1-.16,1.54-.22l1.65-.13c1.13-.1,2.33-.19,3.57-.18s2.52,0,3.83,0l2,.09,2,.19c1.32.11,2.63.33,3.92.52s2.55.47,3.77.69,2.39.53,3.48.85,2.14.58,3.09.89a53.23,53.23,0,0,1,6.24,2.31Z"/></g><g id="_Group_3" data-name="&lt;Group&gt;"><path id="_Path_37" data-name="&lt;Path&gt;" class="cls-7" d="M40.78,53.12,39,52.86l-4.62-.66c-3.83-.52-9-1.11-14.1-1.45a77.5,77.5,0,0,0-14.16.11,19.3,19.3,0,0,0-4.54,1,7.54,7.54,0,0,0-1.17.57l-.4.24.39-.25a8.08,8.08,0,0,1,1.17-.6,20,20,0,0,1,4.53-1.13,78.41,78.41,0,0,1,14.2-.39c5.16.23,10.31.72,14.16,1.16l4.65.57,1.73.22Z"/></g><g id="_Group_4" data-name="&lt;Group&gt;"><path id="_Path_38" data-name="&lt;Path&gt;" class="cls-7" d="M41,54.58s-2.49-.15-6.25-.15c-1.88,0-4.07,0-6.41.15-1.17.07-2.39.12-3.61.24s-2.48.2-3.72.36-2.49.32-3.71.52-2.4.45-3.55.67-2.24.57-3.29.82-2,.66-2.88,1-1.65.7-2.36,1c-.35.16-.68.29-1,.45l-.78.47L2,60.93,3.44,60l.77-.49c.29-.16.62-.3,1-.47.7-.3,1.45-.75,2.35-1.05s1.83-.71,2.87-1,2.12-.66,3.28-.9,2.33-.55,3.56-.74,2.45-.45,3.7-.6,2.5-.32,3.73-.44,2.45-.22,3.62-.32c2.36-.16,4.56-.25,6.45-.29,3.77-.07,6.29,0,6.29,0Z"/></g><g id="_Group_5" data-name="&lt;Group&gt;"><path id="_Path_39" data-name="&lt;Path&gt;" class="cls-7" d="M75.4,49.42a52.55,52.55,0,0,1,6.23-2.31c1-.31,2-.6,3.09-.9s2.28-.55,3.48-.84,2.48-.52,3.77-.7,2.6-.41,3.93-.51l2-.2,2-.09c1.3-.08,2.58-.07,3.82,0a34.17,34.17,0,0,1,3.58.18l1.65.12c.53.06,1,.15,1.53.22,1,.15,1.88.27,2.67.41l2,.47,1.77.4-1.78-.37-2-.42c-.79-.13-1.7-.23-2.68-.36-.49-.06-1-.14-1.53-.19l-1.65-.09a34.29,34.29,0,0,0-3.56-.11c-1.23,0-2.51,0-3.8.12l-2,.13-2,.23c-1.31.13-2.61.37-3.88.59s-2.52.52-3.73.76-2.36.58-3.44.91-2.11.62-3,.94a52.13,52.13,0,0,0-6.1,2.4Z"/></g><g id="_Group_6" data-name="&lt;Group&gt;"><path id="_Path_40" data-name="&lt;Path&gt;" class="cls-7" d="M76.17,50.63l1.73-.23,4.65-.56c3.85-.44,9-.94,14.17-1.17a78.27,78.27,0,0,1,14.19.39,19.4,19.4,0,0,1,4.53,1.14,7.17,7.17,0,0,1,1.17.6L117,51l-.39-.24a7.74,7.74,0,0,0-1.18-.57,19.82,19.82,0,0,0-4.54-1,78.39,78.39,0,0,0-14.15-.1c-5.15.33-10.27.93-14.1,1.44L78,51.19l-1.78.27Z"/></g><g id="_Group_7" data-name="&lt;Group&gt;"><path id="_Path_41" data-name="&lt;Path&gt;" class="cls-7" d="M76,52.08s2.53-.1,6.3,0c1.89,0,4.09.12,6.44.29,1.18.09,2.39.17,3.62.31s2.49.26,3.73.45,2.49.37,3.71.59,2.4.5,3.55.75,2.24.61,3.28.89,2,.7,2.88,1a25.44,25.44,0,0,1,2.35,1c.34.17.67.3,1,.47l.77.48,1.47.92-1.49-.89-.78-.46c-.29-.16-.62-.29-1-.45a25,25,0,0,0-2.36-1c-.89-.29-1.84-.67-2.88-.94s-2.13-.61-3.28-.83-2.34-.5-3.56-.67-2.46-.39-3.7-.51-2.49-.27-3.72-.37-2.44-.16-3.61-.23c-2.35-.12-4.54-.16-6.42-.16-3.76,0-6.25.16-6.25.16Z"/></g><path id="_Path_42" data-name="&lt;Path&gt;" class="cls-1" d="M190.43,105.48c-1.42-.87-18.05,11.66-35,14.44s-20.54,5.83-14.71,11.38,51.63-2.22,51.63-2.22S202.64,113,190.43,105.48Z"/><ellipse id="_Path_43" data-name="&lt;Path&gt;" class="cls-3" cx="44.54" cy="35.35" rx="6.08" ry="7.75"/><ellipse id="_Path_44" data-name="&lt;Path&gt;" class="cls-3" cx="77.37" cy="35.35" rx="6.08" ry="7.75"/><circle id="_Path_45" data-name="&lt;Path&gt;" class="cls-5" cx="46.79" cy="33.6" r="1.83"/><circle id="_Path_46" data-name="&lt;Path&gt;" class="cls-5" cx="79.62" cy="33.6" r="1.83"/></g></g></g></svg>