<svg xmlns="http://www.w3.org/2000/svg" viewBox="0 0 320 639.88"><defs><style>.cls-1{fill:#b1efff;}.cls-2{fill:#92d7e7;}.cls-3{fill:#e0e9ed;}.cls-4{fill:#acdee0;}</style></defs><title>Asset 11</title><g id="Layer_2" data-name="Layer 2"><g id="Penguin"><polygon class="cls-1" points="320 220.38 0 220.38 0 0 155.27 0 320 0 320 220.38"/><rect class="cls-2" y="134.92" width="320" height="380.06"/><path class="cls-3" d="M320,639.88H0V295.31H0a101.16,101.16,0,0,1,77.53-19.54l40.8,19.54,82.21,6,53.06-14A81.92,81.92,0,0,1,300,288.78l20,6.53Z"/><path class="cls-4" d="M0,177.9s15.31-1.5,33.5-1.34c13.74.13,27.83,2.15,45.51,1.17a421.12,421.12,0,0,0,46-4.83l0-.88a40.07,40.07,0,0,1,6.94-24l3.49-5.11L0,134.92Z"/><path class="cls-3" d="M0,120.28l29.55-6.08a3.43,3.43,0,0,1,1.56,0l24.27,6a2.8,2.8,0,0,0,.58.09L110,124.46a2.8,2.8,0,0,1,.58.09l8.52,2.1a3.29,3.29,0,0,1,1,.41l15.75,9.51a3.56,3.56,0,0,1-.48,6.33l-8.74,3.59a3.83,3.83,0,0,1-.68.21l-35.27,6.84a3.25,3.25,0,0,1-.76.06l-56.28-1.39H7A3.4,3.4,0,0,1,5.69,152L0,149.63Z"/></g></g></svg>