<?xml version="1.0" encoding="utf-8"?>
<!-- Generator: Adobe Illustrator 19.0.0, SVG Export Plug-In . SVG Version: 6.00 Build 0)  -->
<svg version="1.1" id="Layer_1" xmlns="http://www.w3.org/2000/svg" xmlns:xlink="http://www.w3.org/1999/xlink" x="0px" y="0px"
	 viewBox="140 -299.9 320 639.9" style="enable-background:new 140 -299.9 320 639.9;" xml:space="preserve">
<style type="text/css">
	.st0{fill:#B1EFFF;}
	.st1{fill:#92D7E7;}
	.st2{fill:#E0E9ED;}
	.st3{fill:#ACDEE0;}
</style>
<title>Asset 11</title>
<polygon class="st0" points="460,-79.5 140,-79.5 140,-299.9 295.3,-299.9 460,-299.9 "/>
<rect x="140" y="-165" class="st1" width="320" height="504.9"/>
<path class="st2" d="M460,198.1l-63.4,1.1c-9.7,0.2-19.4,1.3-28.9,3.5l-89.5,20.5c-25.4,5.8-52,4.4-76.7-4L140,198.1V-4.6l0,0
	c22.1-16.9,50.1-23.9,77.5-19.5l40.8,19.5l82.2,6l53.1-14c15.3-4,31.4-3.5,46.4,1.5l20,6.5V198.1z"/>
<path class="st3" d="M140-122c0,0,15.3-1.5,33.5-1.3c13.7,0.1,27.8,2.1,45.5,1.2c15.4-0.8,30.8-2.4,46-4.8v-0.9
	c-0.3-8.5,2.1-16.9,6.9-24l3.5-5.1L140-165V-122z"/>
<path class="st2" d="M140-179.6l29.6-6.1c0.5-0.1,1-0.1,1.6,0l24.3,6c0.2,0.1,0.4,0.1,0.6,0.1l54,4.2c0.2,0,0.4,0,0.6,0.1l8.5,2.1
	c0.4,0.1,0.7,0.2,1,0.4l15.8,9.5c1.7,1,2.2,3.2,1.2,4.9c-0.4,0.6-1,1.1-1.7,1.4l-8.7,3.6c-0.2,0.1-0.4,0.2-0.7,0.2l-35.3,6.8
	c-0.3,0-0.5,0.1-0.8,0.1l-56.3-1.4H147c-0.4,0-0.9-0.1-1.3-0.2l-5.7-2.4V-179.6z"/>
</svg>
