<svg xmlns="http://www.w3.org/2000/svg" xmlns:xlink="http://www.w3.org/1999/xlink" viewBox="0 0 320.5 643.24"><defs><style>.cls-1{isolation:isolate;}.cls-2{fill:url(#linear-gradient);}.cls-3,.cls-4{fill:#f2f2f2;}.cls-3{opacity:0.38;mix-blend-mode:overlay;}.cls-5{fill:#65c8d0;}.cls-6{fill:#b1efff;}</style><linearGradient id="linear-gradient" x1="160.5" x2="160.5" y2="642.57" gradientUnits="userSpaceOnUse"><stop offset="0" stop-color="#4673d2"/><stop offset="0.08" stop-color="#507fd6"/><stop offset="0.23" stop-color="#6b9ee1"/><stop offset="0.43" stop-color="#96d0f4"/><stop offset="0.54" stop-color="#b1efff"/></linearGradient></defs><title>Asset 18</title><g class="cls-1"><g id="Layer_2" data-name="Layer 2"><g id="Seal"><rect class="cls-2" x="0.5" width="320" height="642.57"/><path class="cls-3" d="M320.5,630.55H.17L0,222.5l15.36-6.72a95.43,95.43,0,0,1,28-7.52l16.17-1.75a92.13,92.13,0,0,1,32.63,2.33l23.82,6,23.61,4.81a91.91,91.91,0,0,0,33.84.55l14.63-2.48a91.8,91.8,0,0,1,33.78.54l25.65,5.21a91.94,91.94,0,0,0,39.89-.71l33.1-7.92Z"/><path class="cls-4" d="M320.5,643.24H.17L0,235.19l15.36-6.72a95.43,95.43,0,0,1,28-7.52l16.17-1.75a92.13,92.13,0,0,1,32.63,2.33L116,227.58l23.61,4.81a91.91,91.91,0,0,0,33.84.55l14.63-2.49a92,92,0,0,1,33.78.55l25.65,5.21a92.1,92.1,0,0,0,39.89-.71l33.1-7.92Z"/><ellipse class="cls-5" cx="265.5" cy="298" rx="37" ry="9.05"/><path class="cls-6" d="M15.71,309.33c-2.2,0-3-3.79-1-5.12,8.73-6,22.72-7.5,34.75-13.54,14-7.06,24.92-21.34,38.41-21.34,25.73,0,34.07,20,39.69,36.16.63,1.81-.4,3.84-1.94,3.84Z"/><path class="cls-4" d="M14.93,314.67c-2.2,0-3-3.8-1-5.13,8.72-6,22.71-7.5,34.74-13.54,14-7.05,24.92-21.33,38.42-21.33,25.72,0,34.06,20,39.68,36.15.63,1.81-.4,3.85-1.94,3.85Z"/><path class="cls-6" d="M276.57,430c2.17,0,2.94-3.8,1-5.12-8.64-6-22.48-7.5-34.39-13.55-13.9-7.05-24.66-21.33-38-21.33-25.46,0-33.72,20-39.28,36.16-.63,1.8.39,3.84,1.92,3.84Z"/><path class="cls-4" d="M277.34,435.33c2.17,0,2.94-3.79,1-5.12-8.64-6-22.48-7.5-34.39-13.54-13.9-7.06-24.66-21.34-38-21.34-25.46,0-33.72,20-39.28,36.16-.63,1.81.4,3.84,1.92,3.84Z"/></g></g></g></svg>