<?xml version="1.0" encoding="utf-8"?>
<!-- Generator: Adobe Illustrator 19.0.0, SVG Export Plug-In . SVG Version: 6.00 Build 0)  -->
<svg version="1.1" id="Layer_1" xmlns="http://www.w3.org/2000/svg" xmlns:xlink="http://www.w3.org/1999/xlink" x="0px" y="0px"
	 viewBox="-319 -41.2 320.5 643.2" style="enable-background:new -319 -41.2 320.5 643.2;" xml:space="preserve">
<style type="text/css">
	.st0{fill:url(#SVGID_1_);}
	.st1{opacity:0.38;fill:#F2F2F2;enable-background:new    ;}
	.st2{fill:#F2F2F2;}
	.st3{fill:#65C8D0;}
	.st4{fill:#B1EFFF;}
</style>
<title>Asset 18</title>
<linearGradient id="SVGID_1_" gradientUnits="userSpaceOnUse" x1="-158.5" y1="478.28" x2="-158.5" y2="1120.88" gradientTransform="matrix(1 0 0 1 0 -518.48)">
	<stop  offset="0" style="stop-color:#4673D2"/>
	<stop  offset="8.000000e-002" style="stop-color:#507FD6"/>
	<stop  offset="0.23" style="stop-color:#6B9EE1"/>
	<stop  offset="0.43" style="stop-color:#96D0F4"/>
	<stop  offset="0.54" style="stop-color:#60C5CC"/>
	<stop  offset="0.6468" style="stop-color:#5FC1CC"/>
	<stop  offset="0.7464" style="stop-color:#5BB6CD"/>
	<stop  offset="0.8432" style="stop-color:#55A3CE"/>
	<stop  offset="0.9376" style="stop-color:#4D89D0"/>
	<stop  offset="1" style="stop-color:#4673D2"/>
</linearGradient>
<rect x="-318.5" y="-40.2" class="st0" width="320" height="642.6"/>
<path class="st1" d="M1.5,425.8h-320.3L-319,177l15.4-4.6c8.9-2.7,18.3-4.4,28-5.1l16.2-1.2c10.9-0.8,22-0.3,32.6,1.6l23.8,4.1
	l23.6,3.3c11.1,1.6,22.6,1.7,33.8,0.4l14.6-1.7c11.2-1.3,22.7-1.2,33.8,0.4l25.6,3.6c13.2,1.8,26.8,1.7,39.9-0.5l33.1-5.4L1.5,425.8
	z"/>
<path class="st2" d="M1.5,436.3l-23.1,10.2c-27.2,12.1-58,13.4-86.2,3.8l-4.9-1.7c-23.5-8-49-8.5-72.8-1.2l-26.7,8.1
	c-36.5,11.1-76.2,4-106.6-19.3l0,0l-0.2-247l15.4-4.4c8.9-2.6,18.3-4.2,28-4.9l16.2-1.1c10.9-0.8,22-0.3,32.6,1.5l23.8,4l23.6,3.1
	c11.1,1.5,22.6,1.6,33.8,0.4l14.6-1.6c11.2-1.2,22.7-1.1,33.8,0.4l25.7,3.4c13.2,1.8,26.8,1.6,39.9-0.5l33.1-5.2V436.3z"/>
<ellipse class="st3" cx="-53.5" cy="257.8" rx="37" ry="9"/>
<path class="st4" d="M-303.3,269.1c-2.2,0-3-3.8-1-5.1c8.7-6,22.7-7.5,34.7-13.5c14-7.1,24.9-21.3,38.4-21.3
	c25.7,0,34.1,20,39.7,36.2c0.6,1.8-0.4,3.8-1.9,3.8h-109.9V269.1z"/>
<path class="st2" d="M-304.1,274.4c-2.2,0-3-3.8-1-5.1c8.7-6,22.7-7.5,34.7-13.5c14-7,24.9-21.3,38.4-21.3c25.7,0,34.1,20,39.7,36.1
	c0.6,1.8-0.4,3.9-1.9,3.9h-109.9V274.4z"/>
<path class="st4" d="M-42.4,389.8c2.2,0,2.9-3.8,1-5.1c-8.6-6-22.5-7.5-34.4-13.5c-13.9-7-24.7-21.3-38-21.3
	c-25.5,0-33.7,20-39.3,36.2c-0.6,1.8,0.4,3.8,1.9,3.8L-42.4,389.8z"/>
<path class="st2" d="M-41.7,395.1c2.2,0,2.9-3.8,1-5.1c-8.6-6-22.5-7.5-34.4-13.5c-13.9-7.1-24.7-21.3-38-21.3
	c-25.5,0-33.7,20-39.3,36.2c-0.6,1.8,0.4,3.8,1.9,3.8h108.8V395.1z"/>
</svg>
