<svg xmlns="http://www.w3.org/2000/svg" xmlns:xlink="http://www.w3.org/1999/xlink" viewBox="0 0 320.33 640.26"><defs><style>.cls-1{fill:url(#radial-gradient);}.cls-2,.cls-3,.cls-4,.cls-5,.cls-6,.cls-7,.cls-8,.cls-9{opacity:0.26;}.cls-2{fill:url(#linear-gradient);}.cls-3{fill:url(#linear-gradient-2);}.cls-4{fill:url(#linear-gradient-3);}.cls-5{fill:url(#linear-gradient-4);}.cls-6{fill:url(#linear-gradient-5);}.cls-7{fill:url(#linear-gradient-6);}.cls-8{fill:url(#linear-gradient-7);}.cls-9{fill:url(#linear-gradient-8);}.cls-10{fill:none;}</style><radialGradient id="radial-gradient" cx="255" cy="129.03" fx="292.4624237175198" fy="20.61477630826961" r="299.61" gradientUnits="userSpaceOnUse"><stop offset="0" stop-color="#6bb8cb"/><stop offset="1" stop-color="#0085a6"/></radialGradient><linearGradient id="linear-gradient" x1="137.33" y1="-3.72" x2="132.49" y2="4.66" gradientUnits="userSpaceOnUse"><stop offset="0" stop-color="#fff"/><stop offset="1" stop-color="#fff" stop-opacity="0"/></linearGradient><linearGradient id="linear-gradient-2" x1="313.53" y1="98.01" x2="136.84" y2="404.05" xlink:href="#linear-gradient"/><linearGradient id="linear-gradient-3" x1="194.83" y1="97.35" x2="-72.02" y2="559.54" xlink:href="#linear-gradient"/><linearGradient id="linear-gradient-4" x1="20.45" y1="-3.33" x2="16.33" y2="3.82" xlink:href="#linear-gradient"/><linearGradient id="linear-gradient-5" x1="53.15" y1="-0.6" x2="52.07" y2="1.27" xlink:href="#linear-gradient"/><linearGradient id="linear-gradient-6" x1="248.04" y1="111.92" x2="5" y2="532.87" xlink:href="#linear-gradient"/><linearGradient id="linear-gradient-7" x1="90.79" y1="-7.88" x2="81.24" y2="8.66" xlink:href="#linear-gradient"/><linearGradient id="linear-gradient-8" x1="309.92" y1="118.63" x2="64.3" y2="544.06" xlink:href="#linear-gradient"/></defs><title>Asset 13</title><g id="Layer_2" data-name="Layer 2"><g id="Blue_Whale" data-name="Blue Whale"><rect class="cls-1" y="0.26" width="320" height="640"/><line class="cls-2" x1="125.21" y1="0.45" x2="144.61" y2="0.48"/><polygon class="cls-3" points="144.61 0.48 125.21 0.45 320.33 509.98 320.33 389.93 144.61 0.48"/><polygon class="cls-4" points="26.73 0.29 10.18 0.27 67.78 640.26 122.07 640.26 26.73 0.29"/><polyline class="cls-5" points="10.16 0 10.18 0.27 26.73 0.29"/><line class="cls-6" x1="50.45" y1="0.33" x2="54.77" y2="0.34"/><polygon class="cls-7" points="54.77 0.34 50.45 0.33 191.01 640.26 205.02 640.26 54.77 0.34"/><line class="cls-8" x1="66.86" y1="0.36" x2="105.18" y2="0.42"/><polygon class="cls-9" points="105.18 0.42 66.86 0.36 230.91 640.26 319.15 640.26 320.33 639.88 320.33 551.09 105.18 0.42"/><rect class="cls-10" x="1" y="0.26" width="319" height="640"/></g></g></svg>