<svg xmlns="http://www.w3.org/2000/svg" viewBox="0 0 157.03 255.59"><defs><style>.cls-1{fill:#414042;}.cls-2{fill:#e6e7e8;}.cls-3{fill:#fbb040;}.cls-4{fill:#fff200;}.cls-5{fill:#231f20;}.cls-6{fill:#fff;}</style></defs><title>Sea Amigos Animals</title><g id="Penguin"><path class="cls-1" d="M25.2,87S11,96.51,2.65,141.14s5.58,55.09,7.44,55.33S48,104.65,25.2,87Z"/><path class="cls-1" d="M36.59,239.24S14.51,249.23,25,252a73,73,0,0,0,20.92,2.09s25.66-8.2,18.83-11.62C63.79,242,39.84,237.15,36.59,239.24Z"/><path class="cls-1" d="M83.54,237.84s-22.08,12.79-11.62,15.58S97,255.51,97,255.51s24.27-11,17.43-14.41C113.53,240.63,86.8,235.75,83.54,237.84Z"/><path class="cls-2" d="M29.38,83.5c-1,0-22.66,20.22-24.06,72.17S21,237.26,34.26,240.05s58.23,11.16,76.36.7c0,0,8.72,12.2,18.83,9.76s24.41-7.67,27.2-13.25-12.55-2.79-16.39-13.6,2.44-18.13-3.49-73.22c0,0-8.71-55.09-27.54-76Z"/><path class="cls-1" d="M78.49,10.06c1.06-3.33-1.41-8.55-1.41-8.55.23,4.07-5.69,5.58-5.69,5.58C71.5,1.05,67.55,0,67.55,0a8.13,8.13,0,0,1-2.38,8.07C64.46,8.05,63.74,8,63,8,32.34,8,7.46,31.49,7.46,55.08s25.1,42.08,55.78,42.08,55.35-18.5,55.35-42.08C118.59,35.61,101.65,16.25,78.49,10.06Z"/><path class="cls-1" d="M110.62,240.75s-4.3-4.3-.58-21S107,141.88,93.54,119.53c-.7-1.17-9.53-22.55-.93-28.59L111.9,74.66s20.92,37.43,25.57,80-2.09,60.9,3.95,71.82a23.64,23.64,0,0,0,14.65,7.44s4,3.49-4.19,8.14-21.38,8.37-21.38,8.37S121.67,254.81,110.62,240.75Z"/><path class="cls-3" d="M64.64,69.38c.08,3.83-7.3,6.8-16.31,6.8S32,72.36,32,69.38s7.3-4,16.3-4S64.57,66.39,64.64,69.38Z"/><ellipse class="cls-4" cx="48.33" cy="68.68" rx="16.3" ry="5.4"/><ellipse class="cls-5" cx="34.09" cy="46.1" rx="5.4" ry="9.15"/><ellipse class="cls-6" cx="32.61" cy="43.62" rx="1.48" ry="2.48"/><ellipse class="cls-5" cx="68.61" cy="46.1" rx="5.4" ry="9.15"/><ellipse class="cls-6" cx="67.13" cy="43.62" rx="1.48" ry="2.48"/><path class="cls-1" d="M102.94,85.8s21.57,14.79,25.48,61.51-21.79,51.5-25,51S60.82,94.15,102.94,85.8Z"/></g></svg>