<svg xmlns="http://www.w3.org/2000/svg" viewBox="0 0 134.62 339.96"><defs><style>.cls-1{fill:#ef4136;}.cls-2{fill:#65383a;}.cls-3,.cls-5{fill:#fff;}.cls-3{opacity:0.38;}.cls-4{fill:#231f20;}.cls-6{fill:none;stroke:#231f20;stroke-miterlimit:10;}</style></defs><title>Sea Amigos Animals</title><g id="Squid"><path class="cls-1" d="M39.36,183.15c-.63-.36-8.95-69.05,22.39-101.6,1.64-1.71,22.47-.9,25-.07,18.34,6.11,23.42,81,12.48,108.19C99.19,189.67,66.24,199,39.36,183.15Z"/><path class="cls-2" d="M51,65.25l10.87-17A17.77,17.77,0,0,1,92.6,49.6l9.31,17.93A17.76,17.76,0,0,1,85.35,93.46l-20.19-.9A17.77,17.77,0,0,1,51,65.25Z"/><path class="cls-3" d="M133.45,326.91a24.73,24.73,0,0,1-3.24-.45,22.55,22.55,0,0,1-4.8-1.55,19,19,0,0,1-5.32-3.6,23.59,23.59,0,0,1-4.51-6.05,34.47,34.47,0,0,1-2.93-7.92,64.6,64.6,0,0,1-1.46-18.42c.08-1.59.21-3.16.36-4.73.08-.78.17-1.55.26-2.33s.21-1.58.31-2.37c.13-1.64.33-3.38.38-5.05,0-.85,0-1.69-.08-2.53a14.76,14.76,0,0,0-.2-2.49,32.46,32.46,0,0,0-.91-4.81c-.22-.78-.42-1.55-.64-2.31l-.84-2.18a35.06,35.06,0,0,0-1.9-4.05c-.68-1.27-1.46-2.43-2.18-3.56a46.8,46.8,0,0,0-4.65-5.62L100,245.77l-1.08-1-.62-.54c3.29-5.6,5.15-12.69,5.15-21.3a53,53,0,0,0-2.51-16.23c3.58-.49,5.67-.94,5.67-.94,9-20,12.62-146-11.27-181.54a21.19,21.19,0,0,0,3.31-5.76c2.89-7.47,1.33-15-3.47-16.89s-11,2.69-13.94,10.16c-.29.77-.53,1.54-.74,2.3a22.13,22.13,0,0,0-1-3.46C76.59,3.11,70.35-1.44,65.54.42s-6.36,9.42-3.47,16.89a21.38,21.38,0,0,0,3,5.35c-36.66,34.7-38,166.61-38,166.61a54.54,54.54,0,0,0,8.64,6.89,51.35,51.35,0,0,0-7.3,26.78c0,12.46,4.48,21.74,11.54,27.91a19.44,19.44,0,0,1-1.76,1.8c-.49.48-1.09.92-1.68,1.43s-1.31,1-2,1.43-1.52,1-2.39,1.4-1.74.92-2.7,1.32l-1.45.64-1.54.56c-.53.19-1.05.4-1.59.57l-1.65.49c-.56.16-1.12.34-1.69.49l-1.76.4-1.78.41-.27,0-.12,0-.23.06-.46.12-.94.24c-.67.2-1.49.52-2.21.8s-1.36.68-2,1-1.25.84-1.87,1.27-1.14,1-1.67,1.48A22.88,22.88,0,0,0,3.42,274a36.87,36.87,0,0,0-2.31,7.55A66,66,0,0,0,0,295.08c.07,4,.37,7.23.64,9.51s.5,3.56.5,3.56-.09-1.3-.12-3.59,0-5.55.39-9.42a63.65,63.65,0,0,1,2.46-12.92,33.16,33.16,0,0,1,2.83-6.61,18.84,18.84,0,0,1,4.45-5.4A13.12,13.12,0,0,1,17,267.53l.95-.14.48-.07.24,0,.11,0h0c.05,0-.28.05-.12,0h.06l2-.23,1.95-.23c.65-.1,1.29-.23,1.92-.34l1.89-.34c.62-.13,1.23-.3,1.84-.45l1.81-.44.72-.23a48.1,48.1,0,0,0-3,4.39,27.65,27.65,0,0,0-3.27,7.65c-.2.7-.28,1.46-.41,2.18a19.07,19.07,0,0,0-.12,2.27c0,.39,0,.77,0,1.15l.15,1.15c.11.74.25,1.3.37,2a140.36,140.36,0,0,1,2.3,14.86,39.69,39.69,0,0,1-.63,12.88,16.25,16.25,0,0,1-2,4.71,12.48,12.48,0,0,1-2.64,3,13.47,13.47,0,0,1-2.21,1.37l-.85.38.89-.29a13.55,13.55,0,0,0,2.39-1.15A12.54,12.54,0,0,0,25,318.7a17.15,17.15,0,0,0,2.65-4.77,41.63,41.63,0,0,0,2.14-13.39,141.8,141.8,0,0,0-.7-15.4c0-.63-.13-1.34-.14-1.89l0-.78c0-.27.05-.53.06-.79,0-.52.18-1.05.25-1.57s.27-1,.49-1.55A22.35,22.35,0,0,1,33,272.81,52.41,52.41,0,0,1,41.74,264c2.18-1.76,4.19-3.2,5.83-4.3-.16,1.22-.31,2.52-.45,3.91A91.21,91.21,0,0,0,46.76,278a52.71,52.71,0,0,0,1.11,8.15,30,30,0,0,0,3.05,8.19,13.07,13.07,0,0,0,.83,1.31l-.41.38-.86.77c-.27.27-.51.55-.76.83l-1.49,1.65a38.67,38.67,0,0,0-4.7,7.18,41,41,0,0,0-2.88,7.39c-.27,1.23-.61,2.4-.78,3.57a32.13,32.13,0,0,0-.42,3.38c0,.54-.08,1.07-.11,1.59s0,1,0,1.53,0,1,0,1.44.1.92.15,1.36.09.86.14,1.26.16.8.23,1.17a13.82,13.82,0,0,0,.51,2c.2.59.37,1.13.52,1.59s.39.81.53,1.12l.44.92-.34-1-.41-1.15q-.16-.7-.36-1.62a12.55,12.55,0,0,1-.3-2c0-.37-.08-.75-.12-1.15s0-.82,0-1.24v-1.32c0-.46.07-.92.11-1.4s0-1,.14-1.46.16-1,.25-1.52a31,31,0,0,1,.72-3.17c.28-1.09.71-2.18,1.07-3.3A38.41,38.41,0,0,1,46,307.83a35.53,35.53,0,0,1,4.91-6.12l1.48-1.34c.25-.22.49-.45.75-.66l.78-.57.45-.34,1.87,2.06c1.75,1.94,3.42,3.91,5,5.85a57,57,0,0,1,3.55,5,23.45,23.45,0,0,0-1.13,7.35,31.37,31.37,0,0,0,1,7.29,45.28,45.28,0,0,0,3.89,10.09,36.45,36.45,0,0,0,2,3.52,37.58,37.58,0,0,1-1.7-3.68A44.41,44.41,0,0,1,66,326.08a29.82,29.82,0,0,1-.26-6.94,24.23,24.23,0,0,1,.85-4.3c.59,1.15,1.1,2.3,1.54,3.41a27.11,27.11,0,0,1,.88,2.69c.12.44.25.86.34,1.28s.17.83.24,1.23a20,20,0,0,1,.34,2.24,17.68,17.68,0,0,1,.16,1.93,26.22,26.22,0,0,1,0,2.72c0,.63,0,1,0,1l.11-1a25,25,0,0,0,.24-2.73,17.52,17.52,0,0,0,0-2c0-.72,0-1.5-.1-2.32q-.06-.63-.12-1.29c0-.44-.14-.88-.21-1.35-.13-.93-.38-1.88-.62-2.88a40.22,40.22,0,0,0-1.94-5.44c.07-.15.12-.31.2-.46a18,18,0,0,1,4.9-6l.87-.66.37-.29.48-.38A15.79,15.79,0,0,0,76.18,303l.87-.89.78-1a18.85,18.85,0,0,0,1.41-2,27.84,27.84,0,0,0,3.41-9,48.18,48.18,0,0,0,.94-9c0-1.91,0-3.77-.14-5.56.16.53.42,1,.62,1.55s.47,1.16.77,1.71l1,1.62.49.81.09.14.06.08.13.17.25.34c.67.9,1.32,1.8,2.08,2.73,1.46,1.86,2.94,3.53,4.39,5.23s2.87,3.29,4.13,4.92a34.94,34.94,0,0,1,3.27,4.88,18.93,18.93,0,0,1,1.11,2.45c.14.41.29.81.43,1.21s.18.8.27,1.2a8.06,8.06,0,0,1,.23,1.17l.09,1.13a10,10,0,0,1,0,2.12c0,.34,0,.66-.06,1a8,8,0,0,1-.16.9c-.12.57-.22,1.1-.32,1.58-.26.94-.54,1.66-.69,2.16l-.26.77.35-.73c.22-.48.59-1.16,1-2.08.16-.47.33-1,.52-1.56.09-.29.22-.59.29-.9s.12-.66.19-1a11,11,0,0,0,.29-2.22l.06-1.23a9.4,9.4,0,0,0-.09-1.28c0-.44-.07-.89-.13-1.35l-.3-1.36a22.72,22.72,0,0,0-.87-2.82,37.76,37.76,0,0,0-2.82-5.61c-1.1-1.87-2.34-3.69-3.57-5.55s-2.49-3.71-3.59-5.54c-.56-.9-1.11-1.89-1.66-2.87l-.21-.37-.1-.18,0-.09c0,.06,0,0,0,0l-.29-.67-.59-1.33c-.17-.44-.27-.93-.41-1.38a10.58,10.58,0,0,1-.35-1.37,22.16,22.16,0,0,1-.33-2.78c0-.46,0-.92,0-1.38s0-.91.06-1.36a22.5,22.5,0,0,1,.29-2.63A33.67,33.67,0,0,1,90,260.88c.25-.73.48-1.43.71-2.09l.74-1.86c.5-1.15,1-2.14,1.38-2.93s.76-1.4,1-1.78l.31-.5.33.26,1,.84a36.86,36.86,0,0,1,4.21,4.25c.65.87,1.38,1.76,2,2.74a28.24,28.24,0,0,1,1.83,3.15q.42.84.84,1.71c.22.6.45,1.21.67,1.83a25.33,25.33,0,0,1,1.11,3.89,11.92,11.92,0,0,1,.34,2.07l.27,2.12c.07,1.45,0,2.88,0,4.43,0,.8-.07,1.6-.11,2.4l-.06,2.51c0,1.65,0,3.31.06,5a67.91,67.91,0,0,0,3.23,19.25,36.48,36.48,0,0,0,3.86,8.18,25.27,25.27,0,0,0,5.39,6.05,20.17,20.17,0,0,0,5.93,3.31,24.38,24.38,0,0,0,8.35,1.33l1.17,0Zm-76.95-35-.36.27-.09.07,0,0h0l-.13.09-.21.16-.45.32a5.3,5.3,0,0,1-.27-.59,24.87,24.87,0,0,1-1.8-7.05,47.16,47.16,0,0,1-.22-7.31,84.19,84.19,0,0,1,1.72-13.12c.46-2.22.93-4.2,1.38-5.91.83.2,1.68.37,2.54.52a75.29,75.29,0,0,1,2.34,8.32,42.9,42.9,0,0,1,1,13.4,17.84,17.84,0,0,1-2,6.78,12.78,12.78,0,0,1-.93,1.49,13.21,13.21,0,0,1-1.15,1.33l-.64.62C57,291.51,56.73,291.68,56.5,291.87Zm20.88-2.63a23.09,23.09,0,0,1-2.08,7.68,13.62,13.62,0,0,1-1,1.71l-.53.82-.62.75a11.1,11.1,0,0,1-1.33,1.41l-.35.34-.47.42-.8.75a21,21,0,0,0-4.38,5.94c-.71-1.33-1.47-2.66-2.32-4-1.38-2.17-2.86-4.35-4.45-6.51l-1.4-1.92,1.43-.86c.35-.22.71-.42,1-.67l1-.76a20.78,20.78,0,0,0,1.8-1.71,19.82,19.82,0,0,0,1.51-1.94A23.67,23.67,0,0,0,68,282.11a41,41,0,0,0,.84-8.32,61.21,61.21,0,0,0-.43-7.31c-.27-2.38-.63-4.51-1-6.38a51.53,51.53,0,0,0,5.18-.29c.7,2,1.49,4.41,2.24,7.17a77.85,77.85,0,0,1,2.64,14.26A42,42,0,0,1,77.38,289.24Zm5.26-30.12a46,46,0,0,0-.59,5.32c-.43-2.39-.9-4.52-1.35-6.37.79-.25,1.57-.53,2.33-.83C82.9,257.85,82.77,258.47,82.64,259.12ZM92.94,251l.09-.08.5.37.17.12Z"/><ellipse class="cls-4" cx="49.87" cy="220.17" rx="5.87" ry="10.87" transform="translate(-3.57 0.84) rotate(-0.93)"/><ellipse class="cls-5" cx="51.5" cy="220.52" rx="2.5" ry="6" transform="translate(-3.57 0.86) rotate(-0.93)"/><ellipse class="cls-4" cx="82.86" cy="219.63" rx="5.87" ry="10.87" transform="translate(-3.55 1.37) rotate(-0.93)"/><ellipse class="cls-5" cx="84.49" cy="219.98" rx="2.5" ry="6" transform="translate(-3.56 1.4) rotate(-0.93)"/><path class="cls-6" d="M57.82,240.42s8.15,8.86,15.78,1.24"/></g></svg>