<svg xmlns="http://www.w3.org/2000/svg" xmlns:xlink="http://www.w3.org/1999/xlink" viewBox="0 0 320.33 642.57"><defs><style>.cls-1{fill:url(#linear-gradient);}.cls-2{fill:url(#linear-gradient-2);}.cls-3{fill:#e1ffff;}</style><linearGradient id="linear-gradient" x1="160" x2="160" y2="642.57" gradientUnits="userSpaceOnUse"><stop offset="0" stop-color="#0071bc"/><stop offset="0.06" stop-color="#0c79c0"/><stop offset="0.17" stop-color="#2b8fcc"/><stop offset="0.32" stop-color="#5db3df"/><stop offset="0.5" stop-color="#a2e4f9"/><stop offset="0.54" stop-color="#b1efff"/></linearGradient><linearGradient id="linear-gradient-2" x1="160" y1="642.57" x2="160" y2="133" gradientUnits="userSpaceOnUse"><stop offset="0" stop-color="#006685"/><stop offset="0.44" stop-color="#026786"/><stop offset="0.6" stop-color="#096c8b"/><stop offset="0.71" stop-color="#147394"/><stop offset="0.8" stop-color="#257ea0"/><stop offset="0.88" stop-color="#3b8db0"/><stop offset="0.95" stop-color="#569ec4"/><stop offset="1" stop-color="#6faed6"/></linearGradient></defs><title>Asset 19</title><g id="Layer_2" data-name="Layer 2"><g id="Polar_Bear" data-name="Polar Bear"><rect class="cls-1" width="320" height="642.57"/><rect class="cls-2" y="133" width="320" height="509.57"/><path class="cls-3" d="M185,183.26l8.32-2.89A60.16,60.16,0,0,1,223.6,178l27.07,4.87,39.91,6.89a2.91,2.91,0,0,1,.28,5.66L267.5,202l-.21,0-47.39,9.64a43.08,43.08,0,0,1-17.77-.14l-19.51-4.29a2.92,2.92,0,0,1-.79-.3l-25.47-14.15a2.91,2.91,0,0,1,1-5.41l27.09-4A3.16,3.16,0,0,0,185,183.26Z"/><path class="cls-3" d="M0,124l34.66-3.89A133.85,133.85,0,0,1,63.31,120c17.68,1.81,45.58,4.65,46.69,4.65,2.8,0,57.95,9.82,65.21,11.11a5.65,5.65,0,0,1,1.44.46l13.51,6.53c3,1.43,1.77,4.39-1.94,4.77l-51.93,5.23a5.63,5.63,0,0,1-.58,0L53,154H0Z"/><path class="cls-3" d="M320,301l-62.73-5.77a13.29,13.29,0,0,0-6.73-.7l-86.36,13.29a13.47,13.47,0,0,1-2.38.15l-70.73-1.84a13.39,13.39,0,0,0-8.95,3.13l-41.22,29A13.46,13.46,0,0,1,39,339.59l-9.88,5.7a13.37,13.37,0,0,0-2.77,21L53.7,393.7A13.38,13.38,0,0,0,59.1,397L122,417l109.16,19a13.32,13.32,0,0,0,7.61-.22l71.6-13.55a11.55,11.55,0,0,1,1.28-.35L320,420Z"/><path class="cls-3" d="M320,129l-5.73-.66a114.31,114.31,0,0,0-51.19,5.82l-13,4.6a3.38,3.38,0,0,0-.17,6.22l8.11,3.71a72.27,72.27,0,0,0,32.09,6.49l30.2-.85Z"/><path class="cls-3" d="M72.59,308.32,37.76,332.9a6,6,0,0,1-4.95.93l-16.39-4.1A6,6,0,0,1,14.7,329L4.31,322.55a6,6,0,0,1-2.8-5.91l3-22.62a6,6,0,0,1,4.46-5l41.91-11A6,6,0,0,1,57,279.88L73.7,299.46A6,6,0,0,1,72.59,308.32Z"/><path class="cls-3" d="M24.87,338.5l-10.7-3.89a2.12,2.12,0,0,0-2.56.93L7.85,342a2.11,2.11,0,0,0,.4,2.62l4.07,3.76a2.11,2.11,0,0,0,2.55.25l10.39-6.36A2.12,2.12,0,0,0,24.87,338.5Z"/><path class="cls-3" d="M293,202.05l-26.6,8.31a2.1,2.1,0,0,0-.78.45L257,218.75a2.06,2.06,0,0,0,.65,3.45L275.24,229a2.06,2.06,0,0,0,2.21-.46L288.3,217.7a1.9,1.9,0,0,0,.34-.45L295.47,205A2.07,2.07,0,0,0,293,202.05Z"/><path class="cls-3" d="M294.88,188.7l1.6,4a2.17,2.17,0,0,0,1.93,1.37l7.9.31a2.18,2.18,0,0,0,2.14-2.89l-2.26-6.5a2.18,2.18,0,0,0-2.69-1.37l-7.23,2.2A2.18,2.18,0,0,0,294.88,188.7Z"/><path class="cls-3" d="M224.2,440.56l10.88,3.93a4.08,4.08,0,0,0,2.84,0l12.41-4.69a4.09,4.09,0,0,1,5.49,3.15l1.86,11.15a4.13,4.13,0,0,1-1,3.39l-8.79,9.94a4.09,4.09,0,0,1-3.54,1.35l-26.28-3a4.1,4.1,0,0,1-3.1-6.07l3.44-6.14a4,4,0,0,0,.52-2.15l-.24-6.79A4.09,4.09,0,0,1,224.2,440.56Z"/><path class="cls-3" d="M298.15,198.07l8.19-1a1.7,1.7,0,0,1,.94.16l5.71,2.86a1.65,1.65,0,0,1,.72,2.25l-6.39,12.09a1.67,1.67,0,0,1-1.52.88l-6.69-.23a1.66,1.66,0,0,1-1.54-2.1l1.24-4.39a.94.94,0,0,0,0-.16l.8-4.57a1.64,1.64,0,0,0-.65-1.62l-1.62-1.18a1.65,1.65,0,0,1-.46-2.17h0A1.63,1.63,0,0,1,298.15,198.07Z"/><path class="cls-3" d="M260.27,210l-9,1.07a.79.79,0,0,0-.68,1l1.43,5.1a.79.79,0,0,0,1.27.41l7.59-6.17A.8.8,0,0,0,260.27,210Z"/></g></g></svg>