<svg xmlns="http://www.w3.org/2000/svg" xmlns:xlink="http://www.w3.org/1999/xlink" viewBox="0 0 320.33 640"><defs><style>.cls-1{fill:url(#linear-gradient);}.cls-2{opacity:0.25;}.cls-3{fill:#0071bc;}.cls-4{opacity:0.45;}.cls-5{fill:#98c2cd;}</style><linearGradient id="linear-gradient" x1="160.25" y1="640" x2="160.25" gradientUnits="userSpaceOnUse"><stop offset="0" stop-color="#006685"/><stop offset="1" stop-color="#4ca6d0"/></linearGradient></defs><title>Asset 8</title><g id="Layer_2" data-name="Layer 2"><g id="Beluga"><rect class="cls-1" x="0.25" width="320" height="640"/><g class="cls-2"><path class="cls-3" d="M311.64,160.74a121.17,121.17,0,0,0-24.19-12,169.57,169.57,0,0,0-30.76-7.87,227.39,227.39,0,0,0-35-2.82c-3,0-6.06,0-9.14.09l-1.15,0h-1l-.32,0-2.21.1-2.21.09c-.77,0-1.65.12-2.47.18-1.67.13-3.34.26-4.94.44s-3.24.33-4.88.55-3.27.45-4.91.73-3.29.55-4.95.87a141,141,0,0,0-38.86,13.59,183.23,183.23,0,0,0-17.24,10.42c-5.4,3.64-10.42,7.38-15.24,10.93-9.61,7.15-18.43,13.59-27.48,19a187.66,187.66,0,0,1-27.38,13.44,271.68,271.68,0,0,1-26.89,8.92c-8.6,2.39-16.69,4.36-24,6L0,224.85v11.36c2.35.26,4.81.5,7.4.72a229.25,229.25,0,0,0,26.07.63,189.45,189.45,0,0,0,31.27-3.67A161.89,161.89,0,0,0,99,222.78a185.79,185.79,0,0,0,16.87-8.73c2.72-1.6,5.43-3.24,8.07-4.9s5.25-3.38,7.8-5.05c10.22-6.78,19.65-13.24,29.24-18.21a130.9,130.9,0,0,1,29.89-11.36c1.31-.33,2.61-.66,3.93-.94s2.64-.58,4-.84,2.65-.53,4-.76,2.64-.46,3.91-.66l2-.31,2.2-.3,2.19-.3,1.9-.22c2.77-.28,5.52-.71,8.25-.95,10.91-1.16,21.46-1.84,31.44-2a227.81,227.81,0,0,1,28,1.27A147.94,147.94,0,0,1,305.89,173a105.37,105.37,0,0,1,14.44,5.28V167.21A95.34,95.34,0,0,0,311.64,160.74Z"/></g><g class="cls-2"><path class="cls-3" d="M316.66,251.68c-5.51-.34-12.2-.44-19.92-.24a226.3,226.3,0,0,0-26,2.24,188.52,188.52,0,0,0-30.68,7.08,161.55,161.55,0,0,0-32.82,14.81,188.55,188.55,0,0,0-15.81,10.52c-2.52,1.9-5,3.82-7.49,5.77s-4.84,3.93-7.19,5.87c-9.42,7.86-18.08,15.32-27.06,21.32a131.19,131.19,0,0,1-28.46,14.57c-1.26.47-2.52.95-3.81,1.37s-2.55.86-3.85,1.26-2.58.82-3.88,1.2-2.57.75-3.82,1.08l-1.9.53-2.15.54-2.14.53-1.87.43c-2.72.59-5.41,1.32-8.09,1.86-10.73,2.35-21.14,4.18-31,5.4a228.07,228.07,0,0,1-28,1.81,147.78,147.78,0,0,1-23.64-1.87c-2.48-.43-4.84-.92-7.08-1.45v12.84c.88.49,1.78,1,2.71,1.45a121.77,121.77,0,0,0,25.37,9.22,170,170,0,0,0,31.43,4.44,227.64,227.64,0,0,0,35.07-1c3-.28,6-.7,9.07-1.09l1.14-.15.57-.08.29,0,.14,0,.33-.06,2.18-.33,2.19-.34c.76-.13,1.62-.3,2.43-.45,1.64-.31,3.29-.63,4.86-1s3.19-.68,4.79-1.09,3.2-.8,4.8-1.26,3.21-.91,4.82-1.41a141.36,141.36,0,0,0,37.14-17.77,182,182,0,0,0,16-12.26c5-4.21,9.55-8.48,13.94-12.54,8.77-8.16,16.83-15.53,25.23-21.86a187.31,187.31,0,0,1,25.74-16.37A274.17,274.17,0,0,1,276,273.31c8.3-3.31,16.12-6.16,23.15-8.55s13.27-4.45,18.44-6.11l2.77-.9v-5.86C319.17,251.81,318,251.73,316.66,251.68Z"/></g><g class="cls-4"><path class="cls-5" d="M234.16,218.44l-.46.15Z"/><path class="cls-5" d="M315.06,195a152.86,152.86,0,0,0-27.16,5.55c-9.49,2.74-19.14,6.23-28.72,9.58-2.38.8-4.81,1.73-7.18,2.47s-4.86,1.69-7,2.32c-1.09.34-2.19.72-3.28,1.09-.49.18-1.25.41-1.91.61l-2.05.63-3.63,1.18-.46.15.46-.15c.15-.05-.2.07-.07,0l-.11,0-.23.07-.45.12-.9.26-1.8.53c-1.21.35-2.41.79-3.62,1.1s-2.42.65-3.64,1c-2.43.75-4.89,1.28-7.36,1.94-.62.16-1.24.36-1.86.49l-1.87.4c-1.26.26-2.51.57-3.78.86-2.53.53-5.1.89-7.7,1.38a113.37,113.37,0,0,1-32.51.14A202.81,202.81,0,0,1,135,219c-2.75-.86-5.47-1.87-8.19-2.79s-5.36-1.94-8-2.93l-3.94-1.49c-.66-.26-1.29-.47-2-.77l-2-.87-8.12-3.45-1-.43-.13-.05c-.08,0,.28.16.06.05l-.26-.12-.54-.23L98.7,205c-1.43-.59-2.83-1.23-4.27-1.76-2.86-1.1-5.68-2.2-8.52-3.13s-5.66-1.83-8.44-2.68c-1.39-.43-2.81-.75-4.19-1.13s-2.76-.74-4.15-1c-5.5-1.33-10.9-2.28-16.11-3.09s-10.28-1.31-15.14-1.61-9.5-.46-13.91-.39-8.57.24-12.47.51S4,191.36.63,191.78l-.63.09v9.4c3.49.17,7.28.44,11.34.87a195.72,195.72,0,0,1,24.22,4.17c4.36,1,8.83,2.29,13.4,3.7s9.2,3.13,13.85,5.09,9.34,4.09,14,6.55c2.35,1.18,4.64,2.52,7,3.83,1.16.64,2.28,1.39,3.43,2.08l3.71,2.27a321.39,321.39,0,0,0,32.8,17.86l8.95,4c3,1.24,6.16,2.39,9.26,3.59,6.27,2.25,12.7,4.33,19.32,6s13.37,3.13,20.23,4.35c1.7.35,3.43.54,5.17.76l5.2.67c3.48.39,7,.57,10.48.85,1.75.05,3.5.06,5.25.08s3.51.09,5.25,0,3.48-.13,5.21-.25l2.6-.15c.87-.05,1.72-.18,2.58-.26,3.4-.45,6.85-.77,10.14-1.5,1.66-.32,3.31-.64,4.95-1s3.23-.82,4.83-1.24l2.38-.66,1.18-.34.59-.18.3-.08.15-.05.65-.21,4.06-1.42,2-.74c.68-.26,1.28-.45,2.1-.81,1.54-.64,3.07-1.28,4.59-1.94,3.14-1.32,5.72-2.66,8.39-4,1.33-.67,2.63-1.37,3.88-2.07l3.73-2.08c9.78-5.61,18.1-11.27,25.54-16.27,6.46-4.38,12.29-8.25,17.67-11.61V194.59C318.63,194.71,316.89,194.86,315.06,195Z"/></g><g class="cls-4"><path class="cls-5" d="M94.29,318.94l.45.15Z"/><path class="cls-5" d="M316.94,291.18c-3.9-.28-8.06-.49-12.47-.52s-9.06.06-13.91.39-9.9.89-15.13,1.61-10.62,1.77-16.12,3.09c-1.39.3-2.76.68-4.15,1s-2.8.7-4.19,1.14c-2.78.84-5.62,1.67-8.44,2.67s-5.66,2-8.52,3.13c-1.44.54-2.84,1.18-4.27,1.77l-2.14.91-.54.23-.27.11c-.22.11.14-.08.06,0l-.12.05-1,.42-8.11,3.46-2.05.87c-.68.29-1.32.51-2,.76l-3.94,1.5c-2.63,1-5.24,2-8,2.93s-5.44,1.92-8.18,2.79a203.84,203.84,0,0,1-33.28,7.8,113.8,113.8,0,0,1-32.52-.14c-2.59-.49-5.17-.86-7.7-1.38-1.27-.29-2.52-.61-3.77-.87l-1.88-.39c-.62-.13-1.24-.33-1.86-.49-2.47-.66-4.93-1.19-7.36-1.94-1.21-.36-2.42-.7-3.64-1s-2.41-.76-3.61-1.11L96,319.43l-.9-.25-.45-.13-.23-.06-.11,0-.06,0,.45.15-.45-.15-3.64-1.18-2-.63c-.67-.21-1.43-.43-1.92-.61-1.09-.38-2.18-.75-3.28-1.1-2.11-.62-4.6-1.53-7-2.31s-4.81-1.67-7.18-2.47c-9.58-3.35-19.24-6.84-28.72-9.58a153.2,153.2,0,0,0-27.17-5.56c-2.13-.17-4.16-.36-6.12-.47s-3.92,0-5.75,0c-.51,0-1,0-1.51,0v21.8c.44.23.88.46,1.32.72,1.43.88,2.91,1.71,4.42,2.6,6,3.69,12.62,8,20,13.07s15.77,10.67,25.54,16.27l3.74,2.09c1.24.7,2.54,1.4,3.88,2.06,2.67,1.35,5.24,2.7,8.39,4,1.51.67,3,1.3,4.59,1.95.82.36,1.41.55,2.1.81l2,.73,4.07,1.43.65.21.14,0,.3.09.59.17,1.18.34,2.38.67c1.61.42,3.19.88,4.83,1.23s3.29.7,5,1c3.3.74,6.74,1.06,10.15,1.5.85.09,1.7.21,2.57.26l2.6.16c1.74.11,3.48.17,5.22.24s3.49,0,5.24,0,3.5,0,5.25-.09c3.5-.27,7-.46,10.48-.85l5.21-.66c1.73-.22,3.46-.42,5.17-.77,6.86-1.21,13.62-2.59,20.22-4.34s13.05-3.78,19.32-6c3.1-1.2,6.22-2.34,9.26-3.59l8.95-4a317.54,317.54,0,0,0,32.8-17.86l3.71-2.26c1.15-.7,2.27-1.44,3.44-2.09,2.32-1.31,4.6-2.65,7-3.82,4.64-2.46,9.34-4.58,14-6.55s9.3-3.6,13.85-5.1,9-2.7,13.4-3.69a197.77,197.77,0,0,1,24.22-4.18l3.23-.31V291.46C319.22,291.35,318.1,291.26,316.94,291.18Z"/></g><g class="cls-4"><path class="cls-5" d="M307.16,99.59l-1.41,1.27L304,102.37c-1.19,1-2.43,2-3.69,3-2.53,2-5.17,3.9-7.84,5.75a164.29,164.29,0,0,1-16.75,9.94,147.23,147.23,0,0,1-17.6,7.58,129.57,129.57,0,0,1-12.45,3.77c3,.27,5.94.53,8.94.74,7.54.55,15.17.88,22.89.86,3.85,0,7.75-.13,11.64-.26s7.84-.47,11.82-.92a167.52,167.52,0,0,0,19.37-3.16v-8.8Z"/><path class="cls-5" d="M275.72,121.1a164.29,164.29,0,0,0,16.75-9.94c2.67-1.85,5.31-3.75,7.84-5.75,1.26-1,2.5-2,3.69-3l1.75-1.51,1.41-1.27,13.17,21.32V93l-5.39,1.82a125.16,125.16,0,0,1-18.53,4.57c-3.22.59-6.55,1-9.86,1.42s-6.7.7-10.12.89c-6.8.46-13.71.71-20.69.68s-14-.18-21.06-.54-14.16-.79-21.27-1.36-14.25-1.27-21.4-2c-14.31-1.46-28.68-3.21-43.15-4.94-7.24-.84-14.52-1.68-21.86-2.41-3.67-.37-7.35-.71-11.07-1-1.83-.16-3.8-.27-5.68-.4s-3.66-.19-5.5-.28h-1.56l-1.49,0c-1,0-2,0-3,0-2,.08-3.93.07-5.86.24-3.87.25-7.69.63-11.46,1.17a208.53,208.53,0,0,0-22.15,4.38,375.32,375.32,0,0,0-42.21,13.53q-8.6,3.31-17,7v7.63c6.62-2,13.26-4,19.94-5.71a365.79,365.79,0,0,1,42-8.86c7-1,14-1.73,21-2,3.47-.17,6.9-.19,10.29-.09,1.71,0,3.37.18,5,.26.83,0,1.65.17,2.47.25l1.23.13.61.07.31,0h.08c-.17,0,0,0,0,0l.17,0c1.78.26,3.66.49,5.36.77s3.37.53,5.14.86c3.49.61,7,1.27,10.52,2,7,1.37,14.11,2.86,21.21,4.36,14.21,3,28.52,6,43,8.73,7.23,1.35,14.49,2.65,21.81,3.82s14.66,2.28,22.08,3.19q6.72.82,13.51,1.46a129.57,129.57,0,0,0,12.45-3.77A147.23,147.23,0,0,0,275.72,121.1Z"/><path class="cls-5" d="M301,132.87c-4,.45-7.9.67-11.82.92s-7.79.29-11.64.26c-7.72,0-15.35-.31-22.89-.86-3-.21-6-.47-8.94-.74-1.84.46-3.69.89-5.53,1.26a136.41,136.41,0,0,1-18,2.51,127.81,127.81,0,0,1-17.83,0c-1.47-.13-2.95-.19-4.42-.37s-2.95-.38-4.42-.55-2.94-.5-4.41-.73c-.73-.13-1.46-.27-2.2-.38l-.26,0-.34-.06-.66-.13-1.33-.27c-3.56-.68-7.09-1.42-10.62-2.07l-10.67-2c-7.14-1.27-14.32-2.51-21.54-3.66s-14.5-2.23-21.82-3.16S106.93,121,99.5,120.37c-3.72-.32-7.44-.64-11.18-.87s-7.5-.4-11.27-.51-7.57-.14-11.35-.14l-5.71.08c-1.91.06-3.82.17-5.72.25a182,182,0,0,0-23,2.6A109.55,109.55,0,0,0,8.7,128.29,71.06,71.06,0,0,0,0,132.71v9.75A77.34,77.34,0,0,1,11.77,141a127.75,127.75,0,0,1,20.39.88c6.8.77,13.59,1.95,20.38,3.29,1.71.36,3.4.74,5.1,1.07l5.1,1.12c3.4.79,6.78,1.62,10.19,2.45s6.8,1.72,10.2,2.62c1.7.47,3.41.89,5.11,1.34l5.12,1.38c6.81,1.92,13.65,3.75,20.5,5.73l20.64,5.86q10.37,2.94,20.82,5.79l10.5,2.8c3.52.94,7.06,1.79,10.56,2.68l1.31.33.66.16.33.08.4.09,3.13.65c2.09.4,4.15.91,6.27,1.2s4.22.63,6.33.9,4.26.36,6.38.54c1.07.07,2.13.19,3.2.22l3.2.06c2.13,0,4.27.09,6.39,0s4.26-.15,6.38-.32l6.34-.65a148.33,148.33,0,0,0,24.65-5.34,168.15,168.15,0,0,0,23-9.11,194.46,194.46,0,0,0,21.11-12,214.85,214.85,0,0,0,19.3-14.2q2.82-2.33,5.56-4.76v-6.11A167.52,167.52,0,0,1,301,132.87Z"/></g></g></g></svg>