<svg xmlns="http://www.w3.org/2000/svg" xmlns:xlink="http://www.w3.org/1999/xlink" viewBox="0 0 320.32 640.24"><defs><style>.cls-1{fill:url(#linear-gradient);}.cls-2,.cls-3,.cls-4,.cls-5{opacity:0.33;}.cls-2{fill:url(#linear-gradient-2);}.cls-3{fill:url(#linear-gradient-3);}.cls-4{fill:url(#linear-gradient-4);}.cls-5{fill:url(#linear-gradient-5);}.cls-6{fill:none;}</style><linearGradient id="linear-gradient" x1="160" y1="640" x2="160" gradientUnits="userSpaceOnUse"><stop offset="0.02" stop-color="#6ac9cd"/><stop offset="0.26" stop-color="#7aced2"/><stop offset="0.72" stop-color="#a4dcde"/><stop offset="1" stop-color="#c0e5e7"/></linearGradient><linearGradient id="linear-gradient-2" x1="106.53" y1="0.17" x2="106.53" y2="556.44" gradientUnits="userSpaceOnUse"><stop offset="0" stop-color="#fff"/><stop offset="0.37" stop-color="#fff" stop-opacity="0.99"/><stop offset="0.51" stop-color="#fff" stop-opacity="0.97"/><stop offset="0.6" stop-color="#fff" stop-opacity="0.92"/><stop offset="0.68" stop-color="#fff" stop-opacity="0.85"/><stop offset="0.75" stop-color="#fff" stop-opacity="0.77"/><stop offset="0.81" stop-color="#fff" stop-opacity="0.66"/><stop offset="0.86" stop-color="#fff" stop-opacity="0.53"/><stop offset="0.91" stop-color="#fff" stop-opacity="0.39"/><stop offset="0.95" stop-color="#fff" stop-opacity="0.22"/><stop offset="0.99" stop-color="#fff" stop-opacity="0.04"/><stop offset="1" stop-color="#fff" stop-opacity="0"/></linearGradient><linearGradient id="linear-gradient-3" x1="267.85" y1="0" x2="267.85" y2="640.06" xlink:href="#linear-gradient-2"/><linearGradient id="linear-gradient-4" x1="210.09" y1="0.17" x2="210.09" y2="640.13" xlink:href="#linear-gradient-2"/><linearGradient id="linear-gradient-5" x1="135.65" y1="0.17" x2="135.65" y2="640.24" xlink:href="#linear-gradient-2"/></defs><title>Asset 9</title><g id="Layer_2" data-name="Layer 2"><g id="Narwhal"><rect class="cls-1" width="320" height="640"/><polygon class="cls-2" points="193.82 0.17 0.24 429.2 0.01 556.44 213.04 0.17 193.82 0.17"/><polygon class="cls-3" points="320.32 0.13 319.26 0 310.74 0 215.38 640.06 269.61 640.01 320.06 79.42 320.32 0.13"/><polygon class="cls-4" points="283.08 0.17 132.82 640.13 146.8 640.12 287.36 0.17 283.08 0.17"/><polygon class="cls-5" points="233.08 0.17 0.25 596.07 0.25 636.74 11.13 640.24 106.97 640.16 271.05 0.17 233.08 0.17"/><rect class="cls-6" x="0.25" width="320" height="640"/></g></g></svg>