<svg xmlns="http://www.w3.org/2000/svg" viewBox="0 0 320.04 642.57"><defs><style>.cls-1{isolation:isolate;}.cls-2{fill:#98c2cd;}.cls-3,.cls-4{fill:#e1ffff;}.cls-4{mix-blend-mode:multiply;}</style></defs><title>Asset 20</title><g class="cls-1"><g id="Layer_2" data-name="Layer 2"><g id="Walrus"><rect class="cls-2" width="320" height="642.57"/><path class="cls-3" d="M320,218l0,424.57H0L0,346l47.57,2.74a46.41,46.41,0,0,0,8.82-.33l29.56-4a46.19,46.19,0,0,0,29.58-16.52l5.87-7.17a46.11,46.11,0,0,1,24.29-15.5l22.54-5.76a46.27,46.27,0,0,0,11-4.37L208.3,279c1.16-.65,2.29-1.34,3.39-2.08l34.61-23.34a46.16,46.16,0,0,0,11.52-11.13h0A46.22,46.22,0,0,1,287.87,224l6.17-1Z"/><path class="cls-4" d="M0,9.33H320V197.67l-19.31-20.92a78,78,0,0,0-31.87-20.81l-15.52-5.36A79.35,79.35,0,0,0,244,148l-36.56-7.7a78,78,0,0,1-17.95-6.14l-12-5.82A78,78,0,0,0,128.53,122l-44.12,8.58c-1.58.31-3.17.56-4.76.77l-53.61,7-25.67,4Z"/><path class="cls-3" d="M0,0H320V188.33l-19.31-20.91a77.94,77.94,0,0,0-31.87-20.82l-15.52-5.35a77.47,77.47,0,0,0-9.35-2.58L207.39,131a78,78,0,0,1-17.95-6.14l-12-5.83a77.94,77.94,0,0,0-48.89-6.37l-44.12,8.58c-1.58.3-3.17.56-4.76.77L26,129,.37,133Z"/></g></g></g></svg>