<svg xmlns="http://www.w3.org/2000/svg" viewBox="0 0 320.04 642.57"><defs><style>.cls-1{isolation:isolate;}.cls-2{fill:#98c2cd;}.cls-3,.cls-4{fill:#e1ffff;}.cls-3{mix-blend-mode:multiply;}</style></defs><title>walrus-bg</title><g class="cls-1"><g id="Layer_2" data-name="Layer 2"><g id="Walrus"><rect class="cls-2" width="320" height="642.57"/><path class="cls-3" d="M0,381.4H320V569.74l-19.31-20.92A78,78,0,0,0,268.82,528l-15.52-5.35a77.51,77.51,0,0,0-9.35-2.59l-36.56-7.7a77.55,77.55,0,0,1-17.95-6.14l-12-5.82A78,78,0,0,0,128.53,494l-44.12,8.58c-1.58.31-3.17.57-4.76.77L26,510.4l-25.67,4Z"/><path class="cls-4" d="M0,162.44,0,0H320l0,34.44L272.43,31.7a46.41,46.41,0,0,0-8.82.33l-29.56,4a46.19,46.19,0,0,0-29.58,16.52L198.6,59.7a46.15,46.15,0,0,1-24.29,15.5L151.77,81a46.27,46.27,0,0,0-11,4.37l-29,16.14c-1.16.65-2.29,1.34-3.39,2.08L73.74,126.89A46.16,46.16,0,0,0,62.22,138h0a46.22,46.22,0,0,1-30,18.43l-6.17,1ZM.37,505.07l25.67-4,53.61-7c1.59-.21,3.18-.47,4.76-.77l44.12-8.58a78,78,0,0,1,48.89,6.38l12,5.82A78,78,0,0,0,207.39,503l36.56,7.7a77.47,77.47,0,0,1,9.35,2.58l15.52,5.35a77.94,77.94,0,0,1,31.87,20.82L320,560.4V0H0Z"/></g></g></g></svg>