<svg xmlns="http://www.w3.org/2000/svg" xmlns:xlink="http://www.w3.org/1999/xlink" viewBox="0 0 203.37 214.09"><defs><style>.cls-1,.cls-10,.cls-11,.cls-7{fill:none;}.cls-2{fill:#1e130d;}.cls-3{fill:#8b5e3c;}.cls-4{fill:#c49a6c;}.cls-5{clip-path:url(#clip-path);}.cls-6{fill:#3c2415;}.cls-10,.cls-7{stroke:#1e130d;}.cls-10,.cls-11,.cls-7{stroke-miterlimit:10;}.cls-7{stroke-width:1.27px;}.cls-8{fill:#231f20;}.cls-9{fill:#fff;}.cls-11{stroke:#a97c50;}</style><clipPath id="clip-path"><path class="cls-1" d="M80.75,176.35s34.35-11,47.07-35.2,27.57-46.22,44.53-42.83,25.87,28.41,9.75,49.61S119.77,194.58,96,191.61Z"/></clipPath></defs><title>Asset 5</title><g id="Layer_2" data-name="Layer 2"><g id="Orca"><path class="cls-2" d="M28.06,199.75s-9.12-.51-15.7,5.42A2.21,2.21,0,0,0,14,209c2.81-.21,6,.07,7.77,2a2.28,2.28,0,0,0,1.57.77c2.56.11,9.19.55,12,2A2.31,2.31,0,0,0,37,214c2.07-.57,6.89-2.32,9-6.77C48.81,201.5,28.06,199.75,28.06,199.75Z"/><path class="cls-2" d="M92.06,199.75s9.12-.51,15.7,5.42a2.21,2.21,0,0,1-1.64,3.85c-2.82-.21-6,.07-7.77,2a2.28,2.28,0,0,1-1.57.77c-2.56.11-9.2.55-12,2a2.32,2.32,0,0,1-1.67.21c-2.08-.57-6.89-2.32-9-6.77C71.31,201.5,92.06,199.75,92.06,199.75Z"/><ellipse class="cls-3" cx="58.84" cy="44.07" rx="47.07" ry="44.07"/><path class="cls-3" d="M18,7.35c4.41.86,7.14,6.09,6.39,11.91l8.93-5.19A38.89,38.89,0,0,1,25,4.71C22.27.25,13.75,3.36,12.46,8.63A7.24,7.24,0,0,1,18,7.35Z"/><path class="cls-4" d="M20,21.77l4.32-2.51c.75-5.82-2-11-6.39-11.91a7.24,7.24,0,0,0-5.5,1.28,5.79,5.79,0,0,0,.29,3.64C15.7,19.49,20,21.77,20,21.77Z"/><path class="cls-3" d="M98.8,5.92c-4.41.86-7.14,6.08-6.38,11.91l-8.93-5.19a38.89,38.89,0,0,0,8.33-9.36C94.5-1.18,103,1.93,104.31,7.19A7.25,7.25,0,0,0,98.8,5.92Z"/><path class="cls-4" d="M96.74,20.34l-4.32-2.51c-.76-5.83,2-11,6.38-11.91a7.25,7.25,0,0,1,5.51,1.27,5.82,5.82,0,0,1-.29,3.65C101.07,18.06,96.74,20.34,96.74,20.34Z"/><g class="cls-5"><path class="cls-6" d="M80.75,176.35s34.35-11,47.07-35.2,27.57-46.22,44.53-42.83,25.87,28.41,9.75,49.61S119.77,194.58,96,191.61Z"/><path class="cls-7" d="M186.56,91.75v81.84"/><path class="cls-7" d="M182.74,91.75v81.84"/><path class="cls-7" d="M178.92,91.75v81.84"/><path class="cls-7" d="M175.11,91.75v81.84"/><path class="cls-7" d="M171.29,91.75v81.84"/><path class="cls-7" d="M167.47,91.75v81.84"/><path class="cls-7" d="M163.66,91.75v81.84"/><path class="cls-7" d="M159.84,91.75v81.84"/><path class="cls-7" d="M156.45,101.92v81.85"/><path class="cls-7" d="M153.06,101.92v81.85"/><path class="cls-7" d="M149.24,101.92v81.85"/><path class="cls-7" d="M145.42,101.92v81.85"/><path class="cls-7" d="M141.61,101.92v81.85"/><path class="cls-7" d="M137.79,101.92v81.85"/><path class="cls-7" d="M134,101.92v81.85"/><path class="cls-7" d="M130.16,104.47v81.84"/><path class="cls-7" d="M126.13,124.82v81.85"/><path class="cls-7" d="M122.31,124.82v81.85"/><path class="cls-7" d="M118.49,127.37v81.84"/><line class="cls-7" x1="108.53" y1="189.07" x2="200.55" y2="145.81"/><line class="cls-7" x1="106.41" y1="185.04" x2="198.43" y2="141.79"/><line class="cls-7" x1="104.29" y1="181.01" x2="196.31" y2="137.76"/><line class="cls-7" x1="102.17" y1="176.98" x2="194.19" y2="133.73"/><line class="cls-7" x1="100.05" y1="172.95" x2="192.07" y2="129.7"/><line class="cls-7" x1="106.41" y1="165.32" x2="198.43" y2="122.07"/><line class="cls-7" x1="104.29" y1="161.29" x2="196.31" y2="118.04"/><line class="cls-7" x1="102.17" y1="157.26" x2="194.19" y2="114.01"/><line class="cls-7" x1="100.05" y1="153.24" x2="192.07" y2="109.98"/><line class="cls-7" x1="97.93" y1="149.21" x2="189.95" y2="105.95"/><line class="cls-7" x1="111.07" y1="138.39" x2="203.09" y2="95.14"/><line class="cls-7" x1="108.95" y1="134.36" x2="200.97" y2="91.11"/><line class="cls-7" x1="106.83" y1="130.34" x2="198.85" y2="87.08"/><line class="cls-7" x1="104.71" y1="126.31" x2="196.73" y2="83.05"/><line class="cls-7" x1="102.59" y1="122.28" x2="194.61" y2="79.02"/></g><path class="cls-3" d="M68.45,209H49.23C19.71,209-3.17,188.62.36,165.46l9.61-63c3-19.54,24-34.24,48.87-34.24h0c24.91,0,45.9,14.7,48.88,34.24l9.61,63C120.86,188.62,98,209,68.45,209Z"/><path class="cls-2" d="M67.92,51l-3.61,5.23c-2.15,3.12-7.52,3.12-9.67,0L51,51c-2.15-3.11.54-7,4.84-7h7.21C67.38,44,70.07,47.9,67.92,51Z"/><ellipse class="cls-8" cx="39.56" cy="31.17" rx="5.42" ry="7.83"/><circle class="cls-9" cx="42.14" cy="29.5" r="1.83"/><ellipse class="cls-8" cx="75.23" cy="31.17" rx="5.42" ry="7.83"/><circle class="cls-9" cx="77.81" cy="29.5" r="1.83"/><path class="cls-10" d="M44.93,46.75s-26.25-3.37-41.5,1.87"/><path class="cls-10" d="M44.18,49.38s-29,2.24-39.25,8.37"/><path class="cls-10" d="M44.68,52.88S14.93,60,8.18,68.62"/><path class="cls-10" d="M73.93,46.75s26.25-3.37,41.5,1.88"/><path class="cls-10" d="M74.68,49.38s29,2.25,39.25,8.37"/><path class="cls-10" d="M74.18,52.88s29.75,7.12,36.5,15.75"/><path class="cls-9" d="M51.81,62.88v8.37H65.93V62.62a32,32,0,0,1-7-.62S57.31,62.88,51.81,62.88Z"/><path class="cls-10" d="M44.52,59.38A15.64,15.64,0,0,0,58.9,62V50.75"/><path class="cls-10" d="M73.59,59.38A15.61,15.61,0,0,1,59.22,62V50.75"/><line class="cls-10" x1="59.06" y1="71.13" x2="59.06" y2="62"/><path class="cls-11" d="M19.54,102.7c-.07-.39,2.06-12.59,19.59-15.29"/><path class="cls-11" d="M42.74,100.31s-5.13,7.48-7.5,14.52a2.35,2.35,0,0,1-2.9,1.51"/><path class="cls-2" d="M42.18,100.74c-2.2-1.49-7-5.79-3.42-13.22a.79.79,0,0,1,.21-.27,13.9,13.9,0,0,1,10.14-3.13.81.81,0,0,1,.25,1.53l-.26.12a.8.8,0,0,0,.23,1.52l1.79.26A.8.8,0,0,1,51.49,89l-1,.76a.81.81,0,0,0,.56,1.44h0a.8.8,0,0,1,.58,1.41L49,94.82l-.14.09c-.58.3-4.45,2.38-5.43,5.37A.8.8,0,0,1,42.18,100.74Z"/><path class="cls-11" d="M101.83,104.5c.1-.39-1.33-12.69-18.68-16.38"/><path class="cls-11" d="M78.62,99.81s4.69,7.76,6.66,14.92a2.34,2.34,0,0,0,2.8,1.68"/><path class="cls-2" d="M79.43,100.62c2.23-1.33,7.16-5.26,4.07-12.7a.87.87,0,0,0-.19-.28A13.55,13.55,0,0,0,73.6,84a.79.79,0,0,0-.33,1.48l.25.13a.79.79,0,0,1-.31,1.47l-1.76.15A.78.78,0,0,0,71,88.63l.92.8a.78.78,0,0,1-.62,1.37h0a.78.78,0,0,0-.64,1.35l2.49,2.32a.6.6,0,0,0,.13.09c.54.33,4.21,2.57,5,5.54A.79.79,0,0,0,79.43,100.62Z"/></g></g></svg>