<svg xmlns="http://www.w3.org/2000/svg" viewBox="0 0 323.17 642.83"><defs><style>.cls-1{fill:#87cce2;}.cls-2{fill:#534741;}.cls-3{fill:#998675;}.cls-4{fill:#3e9172;}</style></defs><title>Asset 22</title><g id="Layer_2" data-name="Layer 2"><g id="Beaver"><rect class="cls-1" x="1.34" width="320" height="642.57"/><path class="cls-2" d="M321.34,642.83H.18V355.07h0c88.78-73.78,229.34-74.5,319.14-1.63l2,1.63Z"/><polygon class="cls-3" points="232.24 331.81 232.14 329.43 222.12 329.83 236.38 313.99 234.22 312.04 189.17 362.07 191.34 364.02 219.89 332.31 232.24 331.81"/><polygon class="cls-3" points="191.55 320.82 192.68 317.74 179.72 312.99 206.18 300.32 204.44 296.7 120.88 336.72 122.61 340.34 175.58 314.97 191.55 320.82"/><polygon class="cls-3" points="82.82 305.3 85.8 306.68 79.99 319.2 107.66 309.45 108.99 313.24 21.61 344.03 20.27 340.25 75.66 320.73 82.82 305.3"/><polygon class="cls-3" points="1.15 340.61 1.12 345.04 14.2 351.3 1.23 356.05 2.36 359.13 18.33 353.29 71.3 378.65 73.04 375.03 1.15 340.61"/><rect class="cls-3" x="141.7" y="305.66" width="2.64" height="64.33" transform="translate(509.82 344.41) rotate(113.97)"/><rect class="cls-3" x="155.44" y="276.01" width="3.87" height="66.48" transform="translate(-189.62 310.03) rotate(-63.16)"/><rect class="cls-3" x="189.44" y="277.68" width="3.87" height="66.48" transform="translate(-172.45 341.28) rotate(-63.16)"/><rect class="cls-3" x="29.44" y="308.08" width="3.87" height="82.92" transform="matrix(0.96, 0.26, -0.26, 0.96, 93, 4.05)"/><rect class="cls-3" x="248.65" y="325.84" width="3.87" height="52.25" transform="translate(101.35 -53.5) rotate(15.24)"/><polygon class="cls-3" points="96.76 335.35 96.08 332.09 75.75 336.33 89.34 320.63 86.82 318.44 71.54 336.1 6.14 374.56 8.51 378.59 73.9 340.13 96.76 335.35"/><polygon class="cls-3" points="48.22 337.98 46.83 336.31 36.45 344.98 39.45 331.79 37.34 331.31 33.97 346.13 8.17 388.24 10.76 389.83 36.55 347.72 48.22 337.98"/><polygon class="cls-3" points="302.57 347.93 302.14 345.9 289.5 348.54 297.95 338.77 296.39 337.42 286.88 348.4 246.21 372.32 247.68 374.82 288.35 350.9 302.57 347.93"/><polygon class="cls-3" points="201.24 339.31 201.14 336.93 191.12 337.33 205.38 321.49 203.22 319.54 158.17 369.57 160.34 371.52 188.89 339.81 201.24 339.31"/><polygon class="cls-3" points="225.72 357.25 226.85 354.16 213.89 349.42 240.35 336.75 238.61 333.13 155.05 373.14 156.78 376.76 209.75 351.4 225.72 357.25"/><polygon class="cls-3" points="259.61 320.51 262.58 321.9 256.77 334.42 284.44 324.67 285.77 328.45 198.39 359.25 197.06 355.46 252.45 335.94 259.61 320.51"/><polygon class="cls-3" points="1 361.95 0.97 366.39 10.2 370.8 0.92 374.2 0.89 377.7 14.33 372.79 67.3 398.15 69.04 394.53 1 361.95"/><rect class="cls-3" x="233.2" y="283.66" width="2.64" height="64.33" transform="translate(618.39 229.86) rotate(113.97)"/><rect class="cls-3" x="188.44" y="324.51" width="3.87" height="66.48" transform="translate(-214.79 366.07) rotate(-63.16)"/><rect class="cls-3" x="151.94" y="320.18" width="3.87" height="66.48" transform="translate(-230.94 331.13) rotate(-63.16)"/><rect class="cls-3" x="48.35" y="337.96" width="3.87" height="82.92" transform="translate(386.03 195.69) rotate(68.86)"/><rect class="cls-3" x="118.41" y="322.04" width="3.87" height="52.25" transform="translate(95.77 -19.39) rotate(15.24)"/><polygon class="cls-3" points="162.1 316.52 161.41 313.25 141.08 317.5 154.68 301.79 152.16 299.61 136.87 317.27 71.47 355.73 73.84 359.75 139.24 321.29 162.1 316.52"/><polygon class="cls-3" points="66.89 328.81 65.5 327.14 55.12 335.81 58.12 322.62 56.01 322.14 52.63 336.96 26.84 379.07 29.43 380.66 55.22 338.55 66.89 328.81"/><polygon class="cls-3" points="135.83 339.63 135.4 337.6 122.75 340.25 131.21 330.48 129.64 329.12 120.14 340.1 79.47 364.02 80.94 366.52 121.61 342.6 135.83 339.63"/><polygon class="cls-3" points="94.46 330.31 94.56 327.93 104.58 328.33 90.32 312.49 92.49 310.54 137.53 360.57 135.36 362.52 106.81 330.81 94.46 330.31"/><polygon class="cls-3" points="125.2 329.96 124.07 326.88 137.03 322.14 110.57 309.47 112.31 305.85 195.87 345.86 194.14 349.48 141.17 324.12 125.2 329.96"/><polygon class="cls-3" points="237.88 307.3 234.9 308.68 240.71 321.2 213.05 311.45 211.71 315.24 299.1 346.03 300.43 342.25 245.04 322.73 237.88 307.3"/><polygon class="cls-3" points="243.58 384.99 245.31 388.61 298.28 363.25 314.25 369.09 315.38 366.01 302.42 361.27 321.52 352.12 321.52 347.67 243.58 384.99"/><rect class="cls-3" x="180.36" y="295.66" width="2.64" height="64.33" transform="translate(407.42 28.62) rotate(66.03)"/><rect class="cls-3" x="231.64" y="331.31" width="3.87" height="66.48" transform="translate(13.77 737.56) rotate(-116.84)"/><rect class="cls-3" x="97.9" y="280.68" width="3.87" height="66.48" transform="translate(-135.19 544.73) rotate(-116.84)"/><rect class="cls-3" x="290.73" y="300.58" width="3.87" height="82.92" transform="matrix(-0.96, 0.26, -0.26, -0.96, 664.96, 595.1)"/><rect class="cls-3" x="81.43" y="311.04" width="3.87" height="52.25" transform="translate(252.43 640.55) rotate(164.76)"/><polygon class="cls-3" points="259.74 339.4 244.46 321.74 241.94 323.92 255.53 339.63 235.2 335.38 234.52 338.64 257.38 343.42 321.52 381.15 321.52 375.73 259.74 339.4"/><polygon class="cls-3" points="307.4 337.96 304.03 323.14 301.92 323.62 304.92 336.81 294.54 328.14 293.15 329.81 304.81 339.55 321.52 366.82 321.52 361.01 307.4 337.96"/><polygon class="cls-3" points="31.38 335.63 31.8 333.6 44.45 336.25 35.99 326.48 37.56 325.12 47.06 336.1 87.73 360.02 86.26 362.52 45.59 338.6 31.38 335.63"/><polygon class="cls-3" points="240.82 406.61 240.72 404.22 230.7 404.63 244.96 388.79 242.79 386.84 197.75 436.86 199.92 438.81 228.47 407.1 240.82 406.61"/><polygon class="cls-3" points="198.89 385.49 200.01 382.4 187.05 377.66 213.51 364.99 211.78 361.37 128.21 401.38 129.94 405 182.91 379.64 198.89 385.49"/><polygon class="cls-3" points="72.82 369.3 75.8 370.68 69.99 383.2 97.66 373.45 98.99 377.24 11.61 408.03 10.28 404.25 65.66 384.73 72.82 369.3"/><polygon class="cls-3" points="0.71 403.76 0.68 408.19 15.53 415.3 2.57 420.05 3.7 423.13 19.67 417.29 72.64 442.65 74.37 439.03 0.71 403.76"/><rect class="cls-3" x="149.03" y="370.33" width="2.64" height="64.33" transform="translate(579.22 428.65) rotate(113.97)"/><rect class="cls-3" x="156.77" y="340.01" width="3.87" height="66.48" transform="matrix(0.45, -0.89, 0.89, 0.45, -245.99, 346.32)"/><rect class="cls-3" x="190.77" y="341.68" width="3.87" height="66.48" transform="translate(-228.83 377.57) rotate(-63.16)"/><rect class="cls-3" x="30.77" y="372.08" width="3.87" height="82.92" transform="matrix(0.96, 0.26, -0.26, 0.96, 109.87, 5.95)"/><rect class="cls-3" x="249.98" y="389.84" width="3.87" height="52.25" transform="translate(118.22 -51.6) rotate(15.24)"/><polygon class="cls-3" points="104.1 400.02 103.42 396.75 83.08 401 96.67 385.29 94.16 383.11 78.87 400.77 13.47 439.23 15.84 443.25 81.24 404.79 104.1 400.02"/><polygon class="cls-3" points="32.22 401.31 30.83 399.64 20.45 408.31 23.45 395.12 21.34 394.64 17.96 409.46 0.47 438.03 0.43 443.91 20.55 411.05 32.22 401.31"/><polygon class="cls-3" points="318.57 405.26 318.14 403.23 305.5 405.88 313.95 396.11 312.39 394.75 302.88 405.73 262.21 429.65 263.68 432.15 304.35 408.23 318.57 405.26"/><polygon class="cls-3" points="202.57 403.31 202.48 400.93 192.46 401.33 206.72 385.49 204.55 383.54 159.51 433.57 161.67 435.52 190.22 403.81 202.57 403.31"/><polygon class="cls-3" points="204.34 412.13 205.47 409.05 192.51 404.3 218.96 391.64 217.23 388.02 133.67 428.03 135.4 431.65 188.37 406.29 204.34 412.13"/><polygon class="cls-3" points="290.07 385.43 293.05 386.81 287.23 399.33 314.9 389.58 316.23 393.37 228.85 424.16 227.52 420.38 282.91 400.86 290.07 385.43"/><polygon class="cls-3" points="0.56 425.1 0.53 429.54 11.53 434.8 0.46 438.85 0.44 442.36 15.67 436.79 68.64 462.15 70.37 458.53 0.56 425.1"/><rect class="cls-3" x="256.44" y="351.79" width="2.64" height="64.33" transform="translate(713.33 304.43) rotate(113.97)"/><rect class="cls-3" x="189.77" y="388.51" width="3.87" height="66.48" transform="matrix(0.45, -0.89, 0.89, 0.45, -271.16, 402.37)"/><rect class="cls-3" x="159.27" y="384.84" width="3.87" height="66.48" transform="translate(-284.62 373.14) rotate(-63.16)"/><rect class="cls-3" x="55.68" y="402.63" width="3.87" height="82.92" transform="translate(451.04 230.19) rotate(68.86)"/><rect class="cls-3" x="125.74" y="386.71" width="3.87" height="52.25" transform="translate(113.03 -19.04) rotate(15.24)"/><polygon class="cls-3" points="152.1 380.52 151.41 377.25 131.08 381.5 144.68 365.79 142.16 363.61 126.87 381.27 61.48 419.73 63.84 423.75 129.24 385.29 152.1 380.52"/><polygon class="cls-3" points="68.22 392.81 66.83 391.14 56.45 399.81 59.45 386.62 57.34 386.14 53.97 400.96 28.17 443.07 30.76 444.66 56.55 402.55 68.22 392.81"/><polygon class="cls-3" points="125.83 403.63 125.4 401.6 112.75 404.25 121.21 394.48 119.64 393.12 110.14 404.1 69.47 428.02 70.94 430.52 111.61 406.6 125.83 403.63"/><polygon class="cls-3" points="84.46 394.31 84.56 391.93 94.58 392.33 80.32 376.49 82.49 374.54 127.53 424.57 125.36 426.52 96.81 394.81 84.46 394.31"/><polygon class="cls-3" points="132.53 394.63 131.4 391.55 144.36 386.8 117.91 374.14 119.64 370.52 203.2 410.53 201.47 414.15 148.5 388.79 132.53 394.63"/><polygon class="cls-3" points="268.28 390.86 261.12 375.43 258.14 376.81 263.96 389.33 236.29 379.58 234.96 383.37 321.52 413.87 321.52 409.62 268.28 390.86"/><polygon class="cls-3" points="318.42 418.6 321.52 417.12 321.52 412.67 259.58 442.33 261.31 445.94 314.28 420.58 321.52 423.23 321.52 419.74 318.42 418.6"/><rect class="cls-3" x="208.86" y="369.33" width="2.64" height="64.33" transform="translate(491.65 46.32) rotate(66.03)"/><rect class="cls-3" x="222.97" y="377.97" width="3.87" height="66.48" transform="translate(-40.45 797.56) rotate(-116.84)"/><rect class="cls-3" x="81.9" y="344.01" width="3.87" height="66.48" transform="translate(-214.92 622.39) rotate(-116.84)"/><rect class="cls-3" x="292.06" y="364.58" width="3.87" height="82.92" transform="translate(684.4 720.5) rotate(164.76)"/><rect class="cls-3" x="65.43" y="374.37" width="3.87" height="52.25" transform="matrix(-0.96, 0.26, -0.26, -0.96, 237.65, 769.2)"/><polygon class="cls-3" points="214.52 382.64 215.2 379.38 235.53 383.63 221.94 367.92 224.46 365.74 239.74 383.4 305.14 421.86 302.77 425.88 237.38 387.42 214.52 382.64"/><polygon class="cls-3" points="308.74 401.96 305.36 387.14 303.25 387.62 306.25 400.81 295.87 392.14 294.48 393.81 306.15 403.55 321.52 428.64 321.52 422.83 308.74 401.96"/><polygon class="cls-3" points="15.38 398.97 15.8 396.94 28.45 399.58 19.99 389.81 21.56 388.45 31.07 399.44 71.73 423.35 70.26 425.86 29.59 401.94 15.38 398.97"/><polygon class="cls-3" points="0.65 412.73 0.62 417.16 14.79 423.95 1.83 428.7 2.96 431.78 18.93 425.93 71.9 451.3 73.63 447.68 0.65 412.73"/><rect class="cls-3" x="58.94" y="391.78" width="3.87" height="82.92" transform="translate(443 220.21) rotate(68.86)"/><polygon class="cls-3" points="245.41 459.75 245.32 457.37 235.29 457.77 249.56 441.94 247.39 439.99 202.35 490.01 204.51 491.96 233.06 460.25 245.41 459.75"/><polygon class="cls-3" points="203.48 438.63 204.61 435.55 191.65 430.81 218.1 418.14 216.37 414.52 132.81 454.53 134.54 458.15 187.51 432.79 203.48 438.63"/><polygon class="cls-3" points="77.42 422.45 80.4 423.83 74.59 436.35 102.25 426.6 103.59 430.39 16.2 461.18 14.87 457.4 70.26 437.88 77.42 422.45"/><polygon class="cls-3" points="0.35 454.54 0.32 458.97 20.13 468.45 7.16 473.2 8.29 476.28 24.26 470.43 77.23 495.8 78.97 492.18 0.35 454.54"/><rect class="cls-3" x="153.63" y="423.48" width="2.64" height="64.33" transform="translate(634.24 499.19) rotate(113.97)"/><rect class="cls-3" x="202.61" y="405.62" width="3.87" height="66.48" transform="translate(-279.39 423.21) rotate(-63.16)"/><rect class="cls-3" x="35.37" y="425.23" width="3.87" height="82.92" transform="translate(124.01 6.61) rotate(15.24)"/><rect class="cls-3" x="254.58" y="442.98" width="3.87" height="52.25" transform="translate(132.36 -50.94) rotate(15.24)"/><polygon class="cls-3" points="108.69 453.16 108.01 449.9 87.67 454.15 101.27 438.44 98.75 436.26 83.47 453.92 18.07 492.38 20.44 496.4 85.83 457.94 108.69 453.16"/><polygon class="cls-3" points="36.82 454.46 35.43 452.79 25.05 461.46 28.05 448.27 25.94 447.79 22.56 462.61 0.04 499.38 0 505.26 25.15 464.2 36.82 454.46"/><polygon class="cls-3" points="323.17 458.41 322.74 456.38 310.09 459.02 318.55 449.25 316.98 447.9 307.48 458.88 266.81 482.8 268.28 485.3 308.95 461.38 323.17 458.41"/><polygon class="cls-3" points="207.17 456.46 207.07 454.07 197.05 454.48 211.31 438.64 209.15 436.69 164.1 486.71 166.27 488.67 194.82 456.95 207.17 456.46"/><polygon class="cls-3" points="208.94 465.28 210.06 462.2 197.1 457.45 223.56 444.78 221.83 441.16 138.26 481.18 140 484.8 192.97 459.43 208.94 465.28"/><polygon class="cls-3" points="294.66 438.58 297.64 439.96 291.83 452.48 319.5 442.73 320.83 446.52 233.45 477.31 232.11 473.53 287.5 454.01 294.66 438.58"/><polygon class="cls-3" points="0.21 475.88 0.17 480.31 16.13 487.95 3.16 492.7 4.29 495.78 20.26 489.93 73.23 515.3 74.97 511.68 0.21 475.88"/><rect class="cls-3" x="248.37" y="407.61" width="2.64" height="64.33" transform="translate(752.98 390.3) rotate(113.97)"/><rect class="cls-3" x="201.61" y="452.45" width="3.87" height="66.48" transform="translate(-321.72 448) rotate(-63.16)"/><rect class="cls-3" x="163.87" y="437.99" width="3.87" height="66.48" transform="translate(-329.52 406.39) rotate(-63.16)"/><rect class="cls-3" x="60.27" y="455.78" width="3.87" height="82.92" transform="translate(503.55 259.89) rotate(68.86)"/><rect class="cls-3" x="130.34" y="439.85" width="3.87" height="52.25" transform="translate(127.16 -18.38) rotate(15.24)"/><polygon class="cls-3" points="156.69 433.66 156.01 430.4 135.68 434.65 149.27 418.94 146.75 416.76 131.47 434.42 66.07 472.88 68.44 476.9 133.83 438.44 156.69 433.66"/><polygon class="cls-3" points="72.82 445.96 71.43 444.29 61.05 452.96 64.05 439.77 61.94 439.29 58.56 454.11 32.77 496.22 35.36 497.81 61.15 455.7 72.82 445.96"/><polygon class="cls-3" points="130.42 456.78 130 454.75 117.35 457.39 125.81 447.62 124.24 446.27 114.73 457.25 74.06 481.17 75.54 483.67 116.21 459.75 130.42 456.78"/><polygon class="cls-3" points="89.06 447.46 89.16 445.07 99.18 445.48 84.92 429.64 87.08 427.69 132.13 477.71 129.96 479.67 101.41 447.95 89.06 447.46"/><polygon class="cls-3" points="137.13 447.78 136 444.7 148.96 439.95 122.5 427.28 124.24 423.66 207.8 463.68 206.07 467.3 153.1 441.93 137.13 447.78"/><polygon class="cls-3" points="272.88 444.01 265.72 428.58 262.74 429.96 268.55 442.48 240.89 432.73 239.55 436.52 321.52 465.4 321.52 461.15 272.88 444.01"/><polygon class="cls-3" points="264.17 495.47 265.91 499.09 318.88 473.73 321.52 474.7 321.52 468.01 264.17 495.47"/><rect class="cls-3" x="186.29" y="412.81" width="2.64" height="64.33" transform="translate(517.98 92.75) rotate(66.03)"/><rect class="cls-3" x="229.57" y="440.45" width="3.87" height="66.48" transform="translate(-86.62 894.14) rotate(-116.84)"/><rect class="cls-3" x="92.49" y="397.82" width="3.87" height="66.48" transform="translate(-247.56 709.96) rotate(-116.84)"/><rect class="cls-3" x="296.66" y="417.73" width="3.87" height="82.92" transform="translate(707.41 823.71) rotate(164.76)"/><rect class="cls-3" x="70.02" y="427.52" width="3.87" height="52.25" transform="translate(260.65 872.41) rotate(164.76)"/><polygon class="cls-3" points="210.12 447.84 210.8 444.57 231.14 448.82 217.54 433.11 220.06 430.93 235.35 448.59 300.74 487.05 298.38 491.07 232.98 452.61 210.12 447.84"/><polygon class="cls-3" points="313.33 455.11 309.96 440.29 307.84 440.77 310.85 453.96 300.46 445.29 299.07 446.96 310.74 456.7 321.52 474.29 321.52 468.47 313.33 455.11"/><polygon class="cls-3" points="19.97 452.11 20.4 450.08 33.04 452.73 24.59 442.96 26.16 441.6 35.66 452.58 76.33 476.5 74.86 479 34.19 455.08 19.97 452.11"/><path class="cls-2" d="M1.52,120.83v-82S98.18,50.16,112.18,55.5s50.67,20,52.67,20c1.59,0,23.66-1.14,32.67,6.33,2.3,1.91,2.39,12.57,2.66,14.33,1.34,8.67-84.66,24.67-102,19.34s-43.33,6.66-62,7.33A193.69,193.69,0,0,1,1.52,120.83Z"/><path class="cls-4" d="M1.52,106.83v-82S98.18,36.16,112.18,41.5s50.67,20,52.67,20,34,12,35.33,20.66-84.66,24.67-102,19.34-43.33,6.66-62,7.33A193.69,193.69,0,0,1,1.52,106.83Z"/><path class="cls-2" d="M321.85,147.5s-27-2.67-50.33,9.33-38,4-49.34,14-20.66,21.33-10.66,24.67,34,8,53.33,10,56.67,1.33,56.67,1.33Z"/><path class="cls-4" d="M321.85,138.16s-27-2.66-50.33,9.34-38,4-49.34,14-20.66,21.33-10.66,24.66,34,8,53.33,10,56.67,1.34,56.67,1.34Z"/></g></g></svg>