<svg xmlns="http://www.w3.org/2000/svg" viewBox="0 0 57.72 32.3"><defs><style>.cls-1{fill:#e0e9ed;}.cls-2{fill:#b1c0c9;}.cls-3{fill:#fff;}</style></defs><title>Fish</title><g id="Layer_2" data-name="Layer 2"><g id="Layer_1-2" data-name="Layer 1"><path class="cls-1" d="M16.54,3.73A38.09,38.09,0,0,1,35.4.12S29.79,1.8,32.27,6.45Z"/><path class="cls-1" d="M49.36,17.36,57.72,2.44c-7.82-.91-14.5,4-18.65,8.19C35.67,5.77,28.7,2.44,20.65,2.44,9.24,2.44,0,9.12,0,17.36S9.24,32.28,20.65,32.28c8.18,0,15.26-3.44,18.6-8.43,6.81,5.64,18.47,6.49,18.47,6.49Z"/><path class="cls-2" d="M10.35,4.43s12.55,13.31,0,25.86a27.91,27.91,0,0,0,8.19,1.91c6.42.52,15.16-.8,20.71-8.35,0,0-9-5.42-.18-13.22,0,0-4.73-7.91-17.65-8.18C15.58,2.33,12.8,3.35,10.35,4.43Z"/><circle class="cls-3" cx="6.94" cy="14.75" r="3.24"/><circle cx="6.94" cy="14.75" r="1.4"/><path class="cls-1" d="M23.08,16.24A6,6,0,0,1,30,16.4s-.59,6.74-6.14,6.08l.17-.3a4.88,4.88,0,0,0-.9-5.94Z"/></g></g></svg>