<svg xmlns="http://www.w3.org/2000/svg" xmlns:xlink="http://www.w3.org/1999/xlink" viewBox="0 0 324 644.57"><defs><style>.cls-1{isolation:isolate;}.cls-2{fill:url(#linear-gradient);}.cls-3{opacity:0.21;}.cls-4{fill:#98c2cd;}.cls-5{fill:none;}.cls-6{fill:#171442;opacity:0.37;mix-blend-mode:overlay;}</style><linearGradient id="linear-gradient" x1="160.04" y1="644.57" x2="160.04" y2="2" gradientUnits="userSpaceOnUse"><stop offset="0" stop-color="#0b2c75"/><stop offset="0.52" stop-color="#5879ff"/><stop offset="0.63" stop-color="#5677fc"/><stop offset="0.71" stop-color="#5172f2"/><stop offset="0.78" stop-color="#4869e2"/><stop offset="0.85" stop-color="#3b5ccb"/><stop offset="0.91" stop-color="#2a4bad"/><stop offset="0.97" stop-color="#163788"/><stop offset="1" stop-color="#0b2c75"/></linearGradient></defs><title>Asset 17</title><g class="cls-1"><g id="Layer_2" data-name="Layer 2"><g id="Orca"><path class="cls-2" d="M0,2V644.57H320V2ZM320,295v0Zm0-112v0Zm0-60v0Z"/><g class="cls-3"><path class="cls-4" d="M313.33,169.78c-3.34-.42-7-.82-10.87-1.1s-8.06-.49-12.47-.51-9.05.05-13.91.39-9.9.89-15.13,1.61-10.62,1.76-16.12,3.09c-1.38.29-2.76.67-4.15,1s-2.8.7-4.18,1.13c-2.79.85-5.63,1.67-8.44,2.68s-5.67,2-8.53,3.13c-1.44.53-2.84,1.17-4.27,1.76l-2.14.91-.54.23-.27.12c-.22.11.14-.09.06-.05l-.12.05-1,.43-8.11,3.45-2,.87c-.68.3-1.32.51-2,.77l-3.94,1.49c-2.63,1-5.24,2-8,2.93s-5.43,1.93-8.18,2.79a202.81,202.81,0,0,1-33.28,7.8,113.44,113.44,0,0,1-32.52-.14c-2.59-.49-5.17-.85-7.7-1.38-1.26-.29-2.52-.6-3.77-.86l-1.88-.4c-.62-.13-1.24-.33-1.86-.49-2.47-.66-4.92-1.19-7.36-1.94-1.21-.35-2.42-.7-3.64-1s-2.41-.75-3.61-1.1l-1.81-.53-.9-.26-.45-.12-.23-.07-.11,0c.14,0-.22-.07-.06,0l.45.14-.45-.14-3.64-1.19-2-.63c-.66-.2-1.42-.43-1.91-.61-1.1-.37-2.19-.75-3.29-1.09-2.1-.63-4.6-1.53-7-2.32s-4.81-1.67-7.18-2.47c-9.58-3.35-19.24-6.84-28.72-9.58A155.85,155.85,0,0,0,0,173.13v30.05c3.56,2.31,7.31,4.82,11.3,7.53,7.45,5,15.77,10.66,25.55,16.27l3.73,2.08c1.24.7,2.54,1.4,3.88,2.07,2.67,1.35,5.24,2.69,8.39,4,1.51.66,3,1.3,4.59,1.94.82.36,1.41.55,2.1.81l2,.74,4.07,1.42.65.21.15.05.29.08.59.18,1.19.34,2.38.66c1.6.42,3.18.88,4.82,1.24s3.3.69,5,1c3.29.73,6.73,1.05,10.14,1.5.86.08,1.71.21,2.57.26l2.6.15c1.74.12,3.48.17,5.22.25s3.49,0,5.24,0,3.5,0,5.25-.08c3.5-.28,7-.46,10.48-.85l5.21-.67c1.73-.22,3.46-.41,5.17-.76,6.86-1.22,13.62-2.6,20.22-4.35s13-3.78,19.32-6c3.1-1.2,6.22-2.35,9.26-3.59l9-4a321.39,321.39,0,0,0,32.8-17.86l3.71-2.27c1.15-.69,2.27-1.44,3.44-2.08,2.32-1.31,4.61-2.65,6.95-3.83,4.64-2.46,9.34-4.58,14-6.55s9.3-3.59,13.85-5.09,9-2.7,13.4-3.7a195.72,195.72,0,0,1,24.22-4.17c6.55-.68,12.4-1,17.38-1.07v-8.26Q316.9,170.27,313.33,169.78Z"/><path class="cls-4" d="M79.81,196.45l.45.14Z"/></g><g class="cls-3"><path class="cls-4" d="M219.68,296.94l-.46.15Z"/><path class="cls-4" d="M317.72,273.23c-.84-.06-1.72-.18-2.59-.2s-1.77,0-2.68,0c-1.82,0-3.76,0-5.75,0s-4,.3-6.12.47a152.93,152.93,0,0,0-27.16,5.56c-9.49,2.74-19.14,6.23-28.72,9.58-2.38.8-4.81,1.73-7.18,2.47s-4.86,1.69-7,2.31c-1.1.35-2.19.72-3.29,1.1-.49.18-1.25.4-1.91.61l-2,.63-3.64,1.18-.46.15.46-.15-.07,0-.11,0-.23.06-.45.13-.9.25-1.8.53c-1.2.35-2.4.79-3.62,1.11s-2.42.64-3.64,1c-2.43.75-4.88,1.28-7.36,1.94-.62.16-1.24.36-1.86.49l-1.87.39c-1.26.26-2.51.58-3.78.87-2.53.52-5.1.89-7.7,1.38a113.73,113.73,0,0,1-32.51.14,203.84,203.84,0,0,1-33.28-7.8c-2.75-.87-5.46-1.87-8.19-2.79s-5.36-1.94-8-2.93l-3.94-1.5c-.66-.25-1.29-.47-2-.76l-2-.87-8.11-3.46-1-.42-.13-.05c-.08,0,.28.15.07,0l-.27-.11-.54-.23-2.15-.91c-1.43-.59-2.83-1.23-4.26-1.77-2.87-1.09-5.68-2.2-8.53-3.13s-5.66-1.83-8.44-2.67c-1.39-.44-2.81-.76-4.19-1.14s-2.76-.73-4.15-1c-5.49-1.32-10.9-2.27-16.11-3.09s-10.28-1.31-15.14-1.61-9.5-.45-13.91-.39c-3.3,0-6.47.15-9.49.32v12a201.58,201.58,0,0,1,21.08,3.82c4.36,1,8.83,2.28,13.4,3.69s9.2,3.13,13.85,5.1,9.35,4.09,14,6.55c2.34,1.17,4.63,2.51,6.95,3.82,1.16.65,2.28,1.39,3.43,2.09l3.72,2.26a316.32,316.32,0,0,0,32.79,17.86l9,4c3,1.25,6.16,2.39,9.26,3.59,6.27,2.26,12.7,4.34,19.32,6s13.37,3.13,20.23,4.34c1.7.35,3.44.55,5.17.77l5.2.66c3.48.39,7,.58,10.48.85,1.75.05,3.5.06,5.25.09s3.51.08,5.25,0,3.48-.13,5.21-.24l2.6-.16c.87-.05,1.72-.17,2.58-.26,3.4-.44,6.85-.76,10.14-1.5,1.66-.31,3.31-.64,5-1s3.23-.81,4.83-1.23l2.38-.67,1.18-.34.59-.17.3-.09.15,0,.65-.21,4.06-1.43,2-.73c.68-.26,1.28-.45,2.1-.81,1.54-.65,3.07-1.28,4.59-1.95,3.15-1.31,5.72-2.66,8.39-4,1.33-.66,2.64-1.36,3.88-2.06l3.73-2.09c9.78-5.6,18.1-11.26,25.54-16.27s14-9.38,20.05-13.07c1.5-.89,3-1.72,4.41-2.6s2.84-1.53,4.2-2.26c1.08-.64,2.13-1.17,3.16-1.67V273.44C319.26,273.37,318.5,273.29,317.72,273.23Z"/></g><g class="cls-3"><path class="cls-4" d="M305.26,106.29a109.46,109.46,0,0,0-22.57-6.51,181.93,181.93,0,0,0-23-2.6c-1.9-.08-3.81-.19-5.72-.25l-5.7-.08c-3.79,0-7.59,0-11.35.14s-7.52.31-11.27.51-7.47.55-11.18.87c-7.43.61-14.8,1.5-22.12,2.42s-14.6,2-21.82,3.16-14.41,2.39-21.55,3.66l-10.66,2c-3.54.65-7.06,1.39-10.62,2.07l-1.34.27-.66.13-.33.06-.26,0c-.74.11-1.47.25-2.21.38-1.47.23-2.92.58-4.4.73s-3,.33-4.42.55-3,.24-4.43.37a127.81,127.81,0,0,1-17.83,0,136.49,136.49,0,0,1-18-2.51c-1.85-.37-3.69-.8-5.54-1.26-3,.27-5.94.53-8.93.74-7.55.55-15.18.88-22.9.86-3.85,0-7.74-.13-11.64-.26S17,111.32,13,110.87C8.7,110.41,4.37,109.8,0,109v10.21a212,212,0,0,0,18.49,13.56,193.67,193.67,0,0,0,21.12,12,167.14,167.14,0,0,0,23,9.11,148,148,0,0,0,24.64,5.34l6.34.65c2.12.17,4.25.23,6.38.32s4.26,0,6.4,0l3.2-.06c1.06,0,2.13-.15,3.19-.22,2.13-.18,4.26-.29,6.38-.54s4.23-.59,6.34-.9,4.18-.8,6.27-1.2l3.12-.65.41-.09.32-.08.66-.16,1.32-.33c3.5-.89,7-1.74,10.55-2.68l10.51-2.8q10.46-2.87,20.81-5.79l20.64-5.86c6.85-2,13.7-3.81,20.51-5.73l5.11-1.38c1.7-.45,3.41-.87,5.11-1.34,3.4-.9,6.81-1.81,10.2-2.62s6.8-1.66,10.2-2.45l5.1-1.12c1.69-.33,3.39-.71,5.09-1.07,6.79-1.34,13.59-2.52,20.39-3.29a127.58,127.58,0,0,1,20.38-.88A72,72,0,0,1,320,122v-7.18A65.18,65.18,0,0,0,305.26,106.29Z"/><path class="cls-4" d="M317.26,95c-6.72-2.93-13.49-5.74-20.35-8.38A374.66,374.66,0,0,0,254.7,73.12a208.53,208.53,0,0,0-22.15-4.38c-3.76-.54-7.59-.92-11.46-1.17-1.93-.17-3.9-.16-5.85-.24-1,0-2,0-3,0l-1.49,0h-1.57c-1.84.09-3.58.14-5.49.28s-3.86.24-5.69.4q-5.57.45-11.07,1c-7.34.73-14.61,1.57-21.85,2.41C150.63,73.24,136.27,75,122,76.45c-7.15.72-14.28,1.44-21.4,2s-14.21,1-21.27,1.36-14.09.56-21.06.54-13.88-.22-20.69-.68c-3.41-.19-6.76-.56-10.12-.89s-6.63-.83-9.85-1.42A127.64,127.64,0,0,1,0,73.09V88.6l6.8-11,1.42,1.27L10,80.37c1.19,1,2.44,2,3.69,3,2.53,2,5.18,3.9,7.85,5.75A163.07,163.07,0,0,0,38.24,99.1a147.23,147.23,0,0,0,17.6,7.58,129.57,129.57,0,0,0,12.45,3.77q6.79-.63,13.51-1.46c7.42-.91,14.77-2,22.09-3.19s14.57-2.47,21.8-3.82c14.45-2.75,28.76-5.77,43-8.73,7.1-1.5,14.18-3,21.21-4.36,3.52-.68,7-1.34,10.53-2,1.77-.33,3.42-.57,5.14-.86s3.57-.51,5.35-.77l.17,0s.15,0,0,0h.07l.31,0,.61-.07,1.23-.13c.83-.08,1.64-.2,2.48-.25,1.68-.08,3.34-.25,5-.26,3.39-.1,6.83-.08,10.29.09,6.93.32,13.94,1,21,2a366,366,0,0,1,42,8.86c7,1.83,13.91,3.84,20.81,6l5.16,1.63V96.24Z"/><path class="cls-4" d="M38.24,99.1A163.07,163.07,0,0,1,21.5,89.16c-2.67-1.85-5.32-3.75-7.85-5.75-1.25-1-2.5-2-3.69-3L8.22,78.86,6.8,77.59,0,88.6V109c4.37.79,8.7,1.4,13,1.86,4,.45,7.89.67,11.81.92s7.79.29,11.64.26c7.72,0,15.35-.31,22.9-.86,3-.21,6-.47,8.93-.74a129.57,129.57,0,0,1-12.45-3.77A147.23,147.23,0,0,1,38.24,99.1Z"/></g><path class="cls-5" d="M320,123v0Z"/><path class="cls-5" d="M320,123v0Z"/><polyline class="cls-6" points="324 0 324 0 3 0 3 0"/></g></g></g></svg>