<svg xmlns="http://www.w3.org/2000/svg" xmlns:xlink="http://www.w3.org/1999/xlink" viewBox="0 0 349.99 651.57"><defs><style>.cls-1{fill:none;}.cls-2{clip-path:url(#clip-path);}.cls-3{fill:#87cce2;}.cls-4{fill:#534741;}.cls-5{fill:#6b4f6e;}.cls-6{fill:#99869b;}</style><clipPath id="clip-path"><rect class="cls-1" x="14.24" y="11.9" width="320.04" height="640"/></clipPath></defs><title>OtterHabitat</title><g id="Layer_2" data-name="Layer 2"><g id="Layer_1-2" data-name="Layer 1"><g class="cls-2"><polygon class="cls-3" points="334.24 651.57 14.24 651.57 14.24 11.69 169.51 11.69 334.24 11.69 334.24 651.57"/><path class="cls-4" d="M334.24,95.24c-78.55,20.78-81.25,0-162.5,0s-84,20.78-162.5,0c-20.79-5.5,0-21.5,0-43s-20.79-37.5,0-43c78.54-20.79,81.25,0,162.5,0s83.95-20.79,162.5,0c20.78,5.5-5.38,22.18,0,43C340.36,76,355,89.74,334.24,95.24Z"/><path class="cls-4" d="M339.24,97.57c-78.55,20.79-81.25,0-162.5,0s-84,20.79-162.5,0c-20.79-5.5,0-21.5,0-43s-20.79-37.5,0-43c78.54-20.78,81.25,0,162.5,0s83.95-20.78,162.5,0c20.78,5.5-5.38,22.18,0,43C345.36,78.29,360,92.07,339.24,97.57Z"/><polygon class="cls-5" points="72.24 265.07 94.24 349.07 167.24 381.57 313.24 396.07 334.24 395.57 334.24 319.07 72.24 265.07"/><path class="cls-6" d="M347.49,328.48,238.26,340.24a113.58,113.58,0,0,1-39.79-2.74l-83.22-17.31a34.3,34.3,0,0,1-21.81-14.88L69,267.77a7.58,7.58,0,0,1,4.47-11.4L170,230.62a209.85,209.85,0,0,1,53.42-7.11l116.9-.38Z"/><polygon class="cls-5" points="85.95 110.16 79.64 134.25 58.7 143.58 16.81 147.74 10.79 147.59 10.79 125.65 85.95 110.16"/><path class="cls-6" d="M7,128.35l31.33,3.37a32.74,32.74,0,0,0,11.42-.78l23.87-5a9.86,9.86,0,0,0,6.26-4.27l7-10.77a2.17,2.17,0,0,0-1.28-3.27l-27.68-7.38a59.77,59.77,0,0,0-15.33-2L9.05,98.13Z"/></g></g></g></svg>