<svg xmlns="http://www.w3.org/2000/svg" viewBox="0 0 50.65 46.93"><defs><style>.cls-1{fill:#00af64;}.cls-2{fill:#007042;}.cls-3{fill:#8dc63f;}</style></defs><title>Seaweed</title><g id="Layer_2" data-name="Layer 2"><g id="Layer_1-2" data-name="Layer 1"><path class="cls-1" d="M23.5,46.5A13.24,13.24,0,0,1,18.33,41a14.18,14.18,0,0,1-1.43-8,19.3,19.3,0,0,1,3.91-9.42c.4-.52.79-1.1,1.21-1.57a35.5,35.5,0,0,1,2.69-2.8A33.89,33.89,0,0,1,31,14.64c2.14-1.22,4.36-2.19,5.61-3.11A4,4,0,0,0,38,9.89a8.3,8.3,0,0,0,.6-2.83c.17-2.19,0-4.59,0-7.06.38.5.71,1,1.06,1.53s.63,1.05.92,1.6A19.59,19.59,0,0,1,42,6.63a10.77,10.77,0,0,1,.48,4.22,8.36,8.36,0,0,1-1.93,4.5,16.76,16.76,0,0,1-3.14,2.84c-1,.76-2,1.4-2.89,2.06s-1.79,1.28-2.62,2-1.65,1.34-2.43,2.07-1.54,1.46-2.28,2.24-1.36,1.56-2,2.34A19.79,19.79,0,0,0,22.28,34C20.94,37.6,21.38,42.06,23.5,46.5Z"/><path class="cls-2" d="M25.67,46.5a11.44,11.44,0,0,1-4.24-.13,14.54,14.54,0,0,1-4.14-1.51,17.06,17.06,0,0,1-6.48-6.39l-.58-1c-.17-.34-.32-.69-.48-1a13.59,13.59,0,0,1-.84-2.2,12.36,12.36,0,0,1-.57-2.4,12.82,12.82,0,0,1-.17-2.56c0-.43,0-.87,0-1.3l.22-1.28a17.9,17.9,0,0,1,.65-2.47,28.53,28.53,0,0,1,2-4.14c.72-1.22,1.39-2.27,1.83-3.16.1-.21.25-.45.32-.64s.15-.37.23-.55a3.73,3.73,0,0,0,.12-.48,1.07,1.07,0,0,0,.08-.45c0-.14.09-.28,0-.44a3.58,3.58,0,0,1,0-.48,2.76,2.76,0,0,0-.16-.55,3.28,3.28,0,0,0-.17-.59c-.1-.19-.19-.39-.28-.59l-.13-.3a1.44,1.44,0,0,1-.18-.25c-.11-.17-.22-.34-.33-.53s-.28-.29-.41-.44a1.55,1.55,0,0,0-.21-.23l-.25-.19a4.87,4.87,0,0,0-.5-.4l-.59-.32a6.32,6.32,0,0,0-.65-.27,8.58,8.58,0,0,0-3.12-.52,11.89,11.89,0,0,0-3.49.51,6.32,6.32,0,0,0-3.18,2A5.88,5.88,0,0,1,2,7.32,11.51,11.51,0,0,1,5.81,4.86,11.33,11.33,0,0,1,10.57,4a10.14,10.14,0,0,1,5.08,1.5c.39.25.78.5,1.16.77l1,.93.49.49.4.53.78,1.09a11.52,11.52,0,0,1,.66,1.2,6.86,6.86,0,0,1,.55,1.3c.14.48.27,1,.38,1.46a7.63,7.63,0,0,1,.16,1.53l0,.78c0,.25-.06.49-.09.74a11.26,11.26,0,0,1-.26,1.47l-.4,1.32c-.15.43-.32.78-.49,1.18-.68,1.49-1.43,2.69-2,3.76a14.4,14.4,0,0,0-2.28,5.63,6.47,6.47,0,0,0-.08,1.4,8.58,8.58,0,0,0,.11,1.49,9.73,9.73,0,0,0,.3,1.6c.06.27.11.56.18.83l.26.79a16.82,16.82,0,0,0,3.21,6A19.05,19.05,0,0,0,25.67,46.5Z"/><path class="cls-1" d="M23.69,46.18a5.84,5.84,0,0,0,2.79-2A11.24,11.24,0,0,0,28,41.48c.41-.92.73-1.95,1.07-3,.06-.26.14-.52.22-.78l.12-.39c.05-.14.07-.24.15-.45a16.82,16.82,0,0,1,.93-2.15,9.89,9.89,0,0,1,3.4-3.62,9.15,9.15,0,0,1,4.61-1.39,10.21,10.21,0,0,1,7.71,3.07,26.16,26.16,0,0,0-6.86,1.57,7.19,7.19,0,0,0-3.62,3.29c-.24.35-.37.82-.6,1.21,0,.08-.12.27-.19.42l-.21.48c-.14.31-.27.63-.43.94a14.47,14.47,0,0,1-2.49,3.52A9.15,9.15,0,0,1,28,46.67,4.9,4.9,0,0,1,23.69,46.18Z"/><path class="cls-3" d="M50.65,19c-2.4,0-4.67-.14-6.83-.09a14.68,14.68,0,0,0-5.55.93,2.64,2.64,0,0,0-.7.47,2.84,2.84,0,0,0-.19.23c0,.11,0,.08-.24.36-.65.86-1.28,1.73-1.73,2.46a6.17,6.17,0,0,0-.49.94,4.85,4.85,0,0,0-.27.93c-.15.83-.39,2.08-.64,3.24l.07-.66a30.21,30.21,0,0,1-.33,3.06c-.16,1-.38,2-.63,2.91a25.54,25.54,0,0,1-2.19,5.59,17.17,17.17,0,0,1-3.76,4.82,10.14,10.14,0,0,1-5.41,2.51,16,16,0,0,0,2.85-4.46A26.64,26.64,0,0,0,26,37.51a47,47,0,0,0,.71-4.92c.1-.82.14-1.66.19-2.48s.08-1.72.08-2.38v-.31l.07-.35c.22-1.05.3-2,.63-3.4a11.5,11.5,0,0,1,.78-2.29,10.85,10.85,0,0,1,1.21-2,23.64,23.64,0,0,1,2.5-2.81c.15-.16.57-.57.93-.87a8.29,8.29,0,0,1,3.57-1.59,11.56,11.56,0,0,1,4.24,0,18,18,0,0,1,3.63,1.06A20.77,20.77,0,0,1,50.65,19Z"/></g></g></svg>