<?xml version="1.0" encoding="utf-8"?>
<!-- Generator: Adobe Illustrator 22.1.0, SVG Export Plug-In . SVG Version: 6.00 Build 0)  -->
<svg version="1.1" id="Layer_1" xmlns="http://www.w3.org/2000/svg" xmlns:xlink="http://www.w3.org/1999/xlink" x="0px" y="0px"
	 viewBox="0 0 1056.7 674.3" style="enable-background:new 0 0 1056.7 674.3;" xml:space="preserve">
<style type="text/css">
	.st0{fill:#D0ECF4;}
	.st1{opacity:0.44;fill:url(#SVGID_1_);enable-background:new    ;}
	.st2{clip-path:url(#SVGID_3_);}
	.st3{opacity:0.39;}
	.st4{fill:url(#SVGID_4_);}
	.st5{fill:url(#SVGID_5_);}
	.st6{fill:url(#SVGID_6_);}
	.st7{fill:url(#SVGID_7_);}
	.st8{fill:#F9E3B2;}
</style>
<title>Asset 4</title>
<rect class="st0" width="1056.7" height="630.9"/>
<linearGradient id="SVGID_1_" gradientUnits="userSpaceOnUse" x1="773.3674" y1="44.32" x2="771.1674" y2="304.64" gradientTransform="matrix(1 0 0 -1 0 674)">
	<stop  offset="0" style="stop-color:#0071BC"/>
	<stop  offset="1" style="stop-color:#27CDD6"/>
</linearGradient>
<path class="st1" d="M962.1,344.8c-68.1,18.1-204.7,19.3-283.3,0s-193.6,0-193.6,0l32.3,71.5c11.3,25,15.8,50.8,13.3,76.6l-6.5,68.7
	c0,27.3,21.5,52.5,55.5,69.3h476.8V344.8C1056.7,344.8,1030.2,326.8,962.1,344.8z"/>
<g>
	<defs>
		<path id="SVGID_2_" d="M962.1,344.8c-68.1,18.1-204.7,19.3-283.3,0s-193.6,0-193.6,0l32.3,71.5c11.3,25,15.8,50.8,13.3,76.6
			l-6.5,68.7c0,27.3,21.5,52.5,55.5,69.3h476.8V344.8C1056.7,344.8,1030.2,326.8,962.1,344.8z"/>
	</defs>
	<clipPath id="SVGID_3_">
		<use xlink:href="#SVGID_2_"  style="overflow:visible;"/>
	</clipPath>
	<g class="st2">
		<g class="st3">
			
				<linearGradient id="SVGID_4_" gradientUnits="userSpaceOnUse" x1="1954.8672" y1="434.4393" x2="1960.8273" y2="-7.9807" gradientTransform="matrix(-1.28 0 0 -1 3463.9202 674)">
				<stop  offset="0" style="stop-color:#FFFFFF;stop-opacity:0.5"/>
				<stop  offset="0.91" style="stop-color:#FFFFFF;stop-opacity:0"/>
			</linearGradient>
			<polygon class="st4" points="969,648.7 994.1,648.7 969.1,268.9 921.7,268.9 			"/>
			
				<linearGradient id="SVGID_5_" gradientUnits="userSpaceOnUse" x1="2030.2393" y1="434.2566" x2="2036.1492" y2="-5.5034" gradientTransform="matrix(-1.28 0 0 -1 3463.9202 674)">
				<stop  offset="0" style="stop-color:#FFFFFF;stop-opacity:0.5"/>
				<stop  offset="0.91" style="stop-color:#FFFFFF;stop-opacity:0"/>
			</linearGradient>
			<polygon class="st5" points="825.5,645.9 936.8,645.9 872.9,268.9 786.1,268.9 			"/>
			
				<linearGradient id="SVGID_6_" gradientUnits="userSpaceOnUse" x1="2198.4915" y1="436.3405" x2="2204.8416" y2="-36.1695" gradientTransform="matrix(-1.28 0 0 -1 3463.9202 674)">
				<stop  offset="0" style="stop-color:#FFFFFF;stop-opacity:0.5"/>
				<stop  offset="0.85" style="stop-color:#FFFFFF;stop-opacity:0"/>
			</linearGradient>
			<polygon class="st6" points="628.3,674.3 689.4,653.6 650,268.9 602.6,268.9 			"/>
			
				<linearGradient id="SVGID_7_" gradientUnits="userSpaceOnUse" x1="2114.7505" y1="434.3935" x2="2120.6804" y2="-6.4665" gradientTransform="matrix(-1.28 0 0 -1 3463.9202 674)">
				<stop  offset="0" style="stop-color:#FFFFFF;stop-opacity:0.5"/>
				<stop  offset="0.94" style="stop-color:#FFFFFF;stop-opacity:0"/>
			</linearGradient>
			<polygon class="st7" points="633.7,645.9 872.9,645.9 771.2,268.9 633.7,268.9 			"/>
		</g>
	</g>
</g>
<path class="st8" d="M565.6,508.1c-4.7-39.4-24.6-66.6-24.6-114v-16.5c0-39.2-29.8-58.6-71.9-72.9l-57.8-13
	c-50.3-14.2-111,28.2-139.1,23.1s-77.7-17-129.9-17.2S38,318,0,312.7v318.2h805.6C805.6,630.9,579,620.4,565.6,508.1z"/>
</svg>
