<?xml version="1.0" encoding="utf-8"?>
<!-- Generator: Adobe Illustrator 19.0.0, SVG Export Plug-In . SVG Version: 6.00 Build 0)  -->
<svg version="1.1" id="Layer_1" xmlns="http://www.w3.org/2000/svg" xmlns:xlink="http://www.w3.org/1999/xlink" x="0px" y="0px"
	 viewBox="509 -317.3 1057.7 631" style="enable-background:new 509 -317.3 1057.7 631;" xml:space="preserve">
<style type="text/css">
	.st0{fill:#D0ECF4;}
	.st1{opacity:0.44;fill:url(#SVGID_1_);enable-background:new    ;}
	.st2{opacity:0.39;clip-path:url(#SVGID_3_);}
	.st3{fill:url(#SVGID_4_);}
	.st4{fill:url(#SVGID_5_);}
	.st5{fill:url(#SVGID_6_);}
	.st6{fill:url(#SVGID_7_);}
	.st7{fill:#FFFFFF;}
	.st8{fill:#39B54A;}
	.st9{fill:#998675;}
	.st10{fill:#736357;}
	.st11{fill:#F9E3B2;}
	.st12{fill:#534741;}
	.st13{fill:#5E8272;}
	.st14{fill:#95866C;}
	.st15{fill:#41594E;}
</style>
<title>Amazon-bg</title>
<rect x="509.1" y="-311.9" class="st0" width="1057.6" height="620"/>
<linearGradient id="SVGID_1_" gradientUnits="userSpaceOnUse" x1="1205.3729" y1="-273.636" x2="1203.1649" y2="-12.3736" gradientTransform="matrix(1 0 0 -1 0 39.38)">
	<stop  offset="0" style="stop-color:#0071BC"/>
	<stop  offset="1" style="stop-color:#27CDD6"/>
</linearGradient>
<path class="st1" d="M1446.3,27.5c-86.7,18.1-260.6,19.3-360.6,0s-246.4,0-246.4,0L880.3,99c14.4,25,20.1,50.8,17,76.6l-8.3,68.7
	c0,27.3,27.3,52.5,70.7,69.3h606.9V27.5C1566.7,27.5,1533,9.4,1446.3,27.5z"/>
<g>
	<defs>
		<path id="SVGID_2_" d="M1446.3,27.5c-86.7,18.1-260.6,19.3-360.6,0s-246.4,0-246.4,0L880.3,99c14.4,25,20.1,50.8,17,76.6
			l-8.3,68.7c0,27.3,27.3,52.5,70.7,69.3h606.9V27.5C1566.7,27.5,1533,9.4,1446.3,27.5z"/>
	</defs>
	<clipPath id="SVGID_3_">
		<use xlink:href="#SVGID_2_"  style="overflow:visible;"/>
	</clipPath>
	<g class="st2">
		
			<linearGradient id="SVGID_4_" gradientUnits="userSpaceOnUse" x1="2541.1479" y1="117.1616" x2="2547.1082" y2="-325.2588" gradientTransform="matrix(-1.28 0 0 -1 4697.3999 39.38)">
			<stop  offset="0" style="stop-color:#FFFFFF;stop-opacity:0.5"/>
			<stop  offset="0.91" style="stop-color:#FFFFFF;stop-opacity:0"/>
		</linearGradient>
		<polygon class="st3" points="1455.1,331.4 1487.1,331.4 1455.2,-48.5 1394.8,-48.5 		"/>
		
			<linearGradient id="SVGID_5_" gradientUnits="userSpaceOnUse" x1="2637.0898" y1="116.9898" x2="2643.002" y2="-322.9286" gradientTransform="matrix(-1.28 0 0 -1 4697.3999 39.38)">
			<stop  offset="0" style="stop-color:#FFFFFF;stop-opacity:0.5"/>
			<stop  offset="0.91" style="stop-color:#FFFFFF;stop-opacity:0"/>
		</linearGradient>
		<polygon class="st4" points="1272.3,328.6 1414.1,328.6 1332.7,-48.5 1222.2,-48.5 		"/>
		
			<linearGradient id="SVGID_6_" gradientUnits="userSpaceOnUse" x1="2851.2996" y1="119.0468" x2="2857.6504" y2="-353.5358" gradientTransform="matrix(-1.28 0 0 -1 4697.3999 39.38)">
			<stop  offset="0" style="stop-color:#FFFFFF;stop-opacity:0.5"/>
			<stop  offset="0.85" style="stop-color:#FFFFFF;stop-opacity:0"/>
		</linearGradient>
		<polygon class="st5" points="1021.4,357 1099.2,336.3 1049,-48.5 988.6,-48.5 		"/>
		
			<linearGradient id="SVGID_7_" gradientUnits="userSpaceOnUse" x1="2744.6743" y1="117.1651" x2="2750.6106" y2="-324.1543" gradientTransform="matrix(-1.28 0 0 -1 4697.3999 39.38)">
			<stop  offset="0" style="stop-color:#FFFFFF;stop-opacity:0.5"/>
			<stop  offset="0.94" style="stop-color:#FFFFFF;stop-opacity:0"/>
		</linearGradient>
		<polygon class="st6" points="1028.2,328.6 1332.7,328.6 1203.2,-48.5 1028.2,-48.5 		"/>
	</g>
</g>
<path class="st7" d="M678.3-205.4c0.2-0.8,0.2-1.5,0.2-2.3c0-6.3-5.2-11.4-11.5-11.4c-2.3,0-4.6,0.7-6.5,2.1
	c-4.8-12.1-18.4-18-30.5-13.2c-6.7,2.7-11.8,8.3-13.9,15.2c-7.8-6.4-19.4-5.2-25.7,2.7c-6.4,7.8-5.2,19.4,2.7,25.7
	c3.3,2.7,7.3,4.1,11.5,4.1h73.3c6.3,0,11.4-5.2,11.4-11.5C689.3-200.1,684.4-205.2,678.3-205.4L678.3-205.4z"/>
<path class="st7" d="M1312.7-105.6c1.7-8.5-3.8-16.9-12.3-18.6c-4.3-0.9-8.7,0.1-12.3,2.6c-6.6-16.6-25.4-24.8-42-18.2
	c-9.2,3.7-16.3,11.4-19.1,20.9c-10.8-8.8-26.7-7.2-35.5,3.6c-8.8,10.8-7.2,26.7,3.6,35.5c4.5,3.7,10.2,5.7,16,5.7h101
	c8.7,0,15.8-7,15.8-15.7C1327.8-98.3,1321.1-105.3,1312.7-105.6L1312.7-105.6z"/>
<path class="st7" d="M1412-190.2c-0.2-0.8-0.3-1.7-0.3-2.5c0.1-6.9,5.8-12.5,12.8-12.4c0,0,0,0,0,0c2.6,0,5.2,0.8,7.4,2.3
	c5.8-13.5,21.4-19.7,34.9-13.9c7,3,12.3,8.8,14.7,16c3.7-2.9,8.2-4.5,12.9-4.4c11.3,0,20.4,8.8,20.4,19.8s-9.2,19.8-20.4,19.8h-81.9
	c-6.8,0.3-12.6-5-12.8-11.9c-0.3-6.8,5-12.6,11.9-12.8C1411.7-190.2,1411.9-190.2,1412-190.2L1412-190.2z"/>
<path class="st7" d="M759.2-160.2c-0.2-0.8-0.3-1.7-0.3-2.5c0.1-6.9,5.8-12.5,12.8-12.4c0,0,0,0,0,0c2.6,0,5.2,0.8,7.4,2.3
	c5.8-13.5,21.4-19.7,34.9-13.9c7,3,12.3,8.8,14.7,16c3.7-2.9,8.2-4.5,12.9-4.4c11.3,0,20.4,8.9,20.4,19.8s-9.1,19.8-20.4,19.8h-81.9
	c-6.8,0.3-12.6-5-12.8-11.9c-0.3-6.8,5-12.6,11.9-12.8C758.9-160.2,759-160.2,759.2-160.2L759.2-160.2z"/>
<path class="st7" d="M751.7-252.6c-0.1-0.4-0.1-0.9-0.1-1.3c0-3.6,2.9-6.6,6.5-6.6c1.4,0,2.7,0.4,3.9,1.2
	c2.7-6.9,10.6-10.3,17.5-7.6c3.8,1.5,6.8,4.7,8,8.7c4.5-3.7,11.1-3,14.8,1.5c3.7,4.5,3,11.1-1.5,14.8c-1.9,1.5-4.2,2.3-6.6,2.3
	h-42.1c-3.6-0.1-6.5-3-6.5-6.7C745.5-249.6,748.2-252.4,751.7-252.6z"/>
<path class="st7" d="M1263.1-230.2c-0.1-0.4-0.1-0.9-0.1-1.3c0-3.6,2.9-6.6,6.5-6.6c1.4,0,2.7,0.4,3.8,1.2
	c2.7-6.9,10.6-10.3,17.5-7.6c3.8,1.5,6.8,4.7,8,8.7c4.5-3.7,11.1-3,14.8,1.5c3.7,4.5,3,11.1-1.5,14.8c-1.9,1.5-4.2,2.4-6.6,2.4
	h-42.1c-3.6-0.1-6.5-3-6.5-6.7C1257-227.2,1259.7-230.1,1263.1-230.2z"/>
<path class="st8" d="M760.3-158.6c0,0,49.3-14.2,70.7,24.5C831.1-134.1,820.7-212.7,760.3-158.6z"/>
<g>
	<path class="st9" d="M703,9.6c0,0-35.2-72-19.1-169.5l5.2-1.4c0,0-4.8,131.2,45.4,167.4L703,9.6z"/>
	<path class="st8" d="M689.7-161.1c0,0-49.7,12.7-48.7,56.9C641-104.2,610.3-177.3,689.7-161.1z"/>
	<path class="st8" d="M687.8-155.7c0,0-44.6-25.4-74.5,7.2C613.3-148.5,641.9-222.4,687.8-155.7z"/>
	<path class="st8" d="M684.7-154.9c0,0,25.7-44.4,67.9-31.4C752.6-186.3,690.6-235.7,684.7-154.9z"/>
	<circle class="st10" cx="676.4" cy="-151.2" r="10.2"/>
	<circle class="st10" cx="692" cy="-152.6" r="10.2"/>
	<path class="st9" d="M709.3,7.2c0,0-13.6-84.9,34.6-171.2l5.4,0.4c0,0-45.8,118.6-10.9,169.6L709.3,7.2z"/>
	<path class="st8" d="M750.4-162.9c0,0-51.1-4.9-65.1,37C685.4-125.9,681.3-205.1,750.4-162.9z"/>
	<path class="st8" d="M746.8-158.5c0,0-33.4-39-72.5-18.5C674.3-177,726.3-236.8,746.8-158.5z"/>
	<circle class="st10" cx="734.5" cy="-158.2" r="10.2"/>
	<circle class="st10" cx="749.7" cy="-154.1" r="10.2"/>
	<circle class="st10" cx="742.2" cy="-141.7" r="10.2"/>
	<path class="st8" d="M740.8-163.7c0,0,51.3,3.4,58.3,47.1C799-116.6,815.8-194.1,740.8-163.7z"/>
	<path class="st8" d="M743.6-158.7c0,0,39.2-33.1,74.6-6.5C818.2-165.2,776.6-232.7,743.6-158.7z"/>
</g>
<path class="st11" d="M935.6,190.9c-4.7-39.4-24.6-66.6-24.6-114V60.5c0-39.2-29.8-58.6-71.9-72.9l-57.8-13
	C731-39.7,670.3,2.7,642.3-2.3s-77.7-17-129.9-17.2c-1.1,0-2.3,0-3.4,0v333.2h666.6C1175.6,313.7,949,303.2,935.6,190.9z"/>
<g>
	<path class="st12" d="M601.1,3.7c0,0-9.5-87.1-48.4-157.6l-20.4,0.2c0,0,33.9,52.9,44.3,146.3L601.1,3.7z"/>
	<path class="st13" d="M658-12.7c-6.7-8.4-16.2-14.1-26.9-16c-8.1-1.5-15.6-5.1-21.7-10.5l-2.2-2c-9.5-8.3-21.9-12.4-34.5-11.2
		l-51.6,14.1c-4,1.1-8.1,1.6-12.2,1.4V8.1l157.7-9.9L658-12.7z"/>
	<path class="st14" d="M666.8-1.8C604.2-11.2,551.3-11.8,509-8.7v267.1c12.9-14.4,35.4-15.8,51.1-48c17.7-36.2,46.3-37.9,92-65.2
		S666.8-1.8,666.8-1.8z"/>
	<path class="st15" d="M550.4-153.1c-20-4.2-33.1-2.7-41.4,2v26.7C522.8-146.2,550.4-153.1,550.4-153.1z"/>
	<path class="st15" d="M547.5-152.7c-14.7-21.6-27.6-28.6-38.5-28.1v18.5C529.7-162.9,547.5-152.7,547.5-152.7z"/>
	<path class="st15" d="M541-150.6c0,0,49.4-13.9,70.6,25C611.6-125.7,601.7-204.3,541-150.6z"/>
	<path class="st15" d="M544.3-151.9c0,0,26-44.3,68.1-31C612.5-182.9,550.7-232.6,544.3-151.9z"/>
</g>
</svg>
