<svg xmlns="http://www.w3.org/2000/svg" viewBox="0 0 244.95 216.15"><defs><style>.cls-1{fill:none;stroke:#27aae1;stroke-miterlimit:10;}.cls-2{fill:#27aae1;}.cls-3{fill:#085083;}.cls-4{fill:#1b75bc;}.cls-5{fill:#231f20;}.cls-6{fill:#fff;}</style></defs><title>Sea Amigos Animals</title><g id="Crab"><path class="cls-1" d="M118.79,80.41s.58-41.08,5.25-47.58"/><path class="cls-2" d="M117.08,85.08s.45-2.21,1.33-6,2.19-9.25,4-15.72,4-14,6.71-21.9a166,166,0,0,1,10.29-24.19,58.57,58.57,0,0,1,7.57-11.09A24.6,24.6,0,0,1,152,1.85,12,12,0,0,1,158.29,0c.53,0,1,0,1.57,0l1.6.17c.53.1,1,.24,1.55.36a11.17,11.17,0,0,1,1.47.52,11.48,11.48,0,0,1,4.7,3.75,21.1,21.1,0,0,1,3.51,10.24,51,51,0,0,1,.07,9.14c-.21,2.71-.54,5.06-.87,7-.66,3.85-1.26,6-1.26,6s.56-2.16,1.13-6c.29-1.92.57-4.27.72-7a49.64,49.64,0,0,0-.26-9.07c-.45-3.25-1.31-6.89-3.59-9.87a10.76,10.76,0,0,0-4.47-3.41,10.63,10.63,0,0,0-1.38-.46c-.48-.1-1-.22-1.45-.3L159.86.94c-.5,0-1,0-1.55,0a11,11,0,0,0-5.73,1.81A23,23,0,0,0,147.84,7a56.34,56.34,0,0,0-7.15,11A165.14,165.14,0,0,0,131,42.09c-2.56,7.92-4.59,15.43-6.2,21.89s-2.81,11.89-3.6,15.69-1.19,6-1.19,6Z"/><path class="cls-3" d="M128,28.35c-.44-.37-1.78.49-3,1.93a5.8,5.8,0,0,0-1,1.79,6.17,6.17,0,0,0,0-2.09c-.38-1.84-1.14-3.25-1.7-3.13s-.72,1.7-.34,3.55a6.54,6.54,0,0,0,1.69,3.12v0a6.83,6.83,0,0,0,3-1.92C127.81,30.19,128.45,28.73,128,28.35Z"/><path class="cls-1" d="M116.29,80.41s-.58-41.08-5.25-47.58"/><path class="cls-2" d="M114.31,85.66s-.41-2.17-1.22-6-2-9.21-3.69-15.67-3.73-13.95-6.34-21.85a164,164,0,0,0-9.82-24.08A56.64,56.64,0,0,0,86,7.15,23.45,23.45,0,0,0,81.26,3,10.94,10.94,0,0,0,75.52,1.2c-.52,0-1-.05-1.55,0l-1.47.13c-.49.09-1,.21-1.45.31a11.26,11.26,0,0,0-1.38.48,10.58,10.58,0,0,0-4.44,3.43,20.57,20.57,0,0,0-3.54,9.9,49.14,49.14,0,0,0-.2,9.06c.16,2.71.46,5.06.75,7,.61,3.85,1.17,6,1.17,6s-.61-2.14-1.29-6c-.34-1.92-.69-4.26-.91-7a49.82,49.82,0,0,1,0-9.14A20.94,20.94,0,0,1,64.67,5.13a11.42,11.42,0,0,1,4.68-3.78A12.94,12.94,0,0,1,70.82.81c.51-.12,1-.26,1.54-.36L74,.27c.54-.05,1,0,1.57,0a12,12,0,0,1,6.29,1.8,24.31,24.31,0,0,1,5.1,4.28,57.84,57.84,0,0,1,7.64,11A165.53,165.53,0,0,1,105,41.51c2.8,7.9,5,15.4,6.84,21.86s3.15,11.88,4,15.69,1.36,6,1.36,6Z"/><path class="cls-3" d="M107.07,28.35c.44-.37,1.79.49,3,1.93a5.8,5.8,0,0,1,1,1.79,6.44,6.44,0,0,1,0-2.09c.38-1.84,1.14-3.25,1.71-3.13s.71,1.7.33,3.55a6.54,6.54,0,0,1-1.69,3.12v0a6.77,6.77,0,0,1-3-1.92C107.27,30.19,106.63,28.73,107.07,28.35Z"/><path class="cls-4" d="M205.13,214.71a17.6,17.6,0,0,0-7-2.36,12.72,12.72,0,0,0-1.88-1.31c2.4-7.59.13-21,.13-21a1.27,1.27,0,0,1-.53.83c-2-8.88-11.83-17.8-16-21.28-.49-3.48-4.41-7.6-10.08-10.14-7.1-3.18-14.23-2.68-15.93,1.11s2.68,9.44,9.78,12.62a22.79,22.79,0,0,0,8.41,2.07c2.06,9.91,10.47,14.31,14.28,16.39l-.62-.07s2.62,16.09,4,20.81l-.56,0-.8.12a.3.3,0,0,0-.08.56l5.06,2.67a3.38,3.38,0,0,0,1.84.38l9.81-.8A.35.35,0,0,0,205.13,214.71Z"/><path class="cls-4" d="M179.54,213.27c-3.55-1.6-7.77-1.56-11.21-1.09a14.81,14.81,0,0,0,3.1-6.23c1-3.89.58-7.53-.81-9.42a12,12,0,0,0,1.64-6.23c0-5.06-2.72-9.17-6.08-9.17s-6.08,4.11-6.08,9.17c0,3.7,1.46,6.87,3.55,8.32a16.55,16.55,0,0,0-2.05,4.89c-1.06,4.25-.47,8.17,1.24,9.86l-.23.07a.3.3,0,0,0,0,.57L168,216a3.35,3.35,0,0,0,1.88.12l9.6-2.15A.35.35,0,0,0,179.54,213.27Z"/><path class="cls-4" d="M235.24,212.8c-4.44-2-9.79-1.81-13.94-1.14,1-11.64-10.43-47.8-10.43-47.8l-2.15,1.61c.32-3.73-1.85-9.22-6-14.27-4.91-6-11-9.4-14.75-8.63l.15-1.46s-.7-1.94-15.87-1.06a40.85,40.85,0,0,0-24.5,10l3.35,10.58c15.15,4.23,29.79-4.89,34.43-8.19a29.8,29.8,0,0,0,5.05,8.65c4,4.86,8.72,8,12.39,8.64l-1.27.95c-.94,18.72,11.78,37.84,14.72,42l-.89.26a.35.35,0,0,0,0,.66l6.26,2.27a4,4,0,0,0,2.19.14l11.17-2.5A.41.41,0,0,0,235.24,212.8Z"/><path class="cls-4" d="M30.67,214.71a17.6,17.6,0,0,1,7-2.36A12.72,12.72,0,0,1,39.52,211c-2.4-7.59-.13-21-.13-21a1.27,1.27,0,0,0,.53.83c2-8.88,11.83-17.8,16-21.28.49-3.48,4.41-7.6,10.09-10.14,7.09-3.18,14.22-2.68,15.92,1.11s-2.68,9.44-9.78,12.62a22.79,22.79,0,0,1-8.41,2.07c-2.06,9.91-10.47,14.31-14.28,16.39l.62-.07s-2.61,16.09-4,20.81l.56,0,.8.12a.3.3,0,0,1,.08.56l-5.06,2.67a3.36,3.36,0,0,1-1.84.38l-9.81-.8A.35.35,0,0,1,30.67,214.71Z"/><path class="cls-4" d="M57.26,213.27c3.55-1.6,7.77-1.56,11.21-1.09a14.93,14.93,0,0,1-3.1-6.23c-1-3.89-.57-7.53.81-9.42a12,12,0,0,1-1.64-6.23c0-5.06,2.72-9.17,6.08-9.17s6.08,4.11,6.08,9.17c0,3.7-1.46,6.87-3.55,8.32a16.55,16.55,0,0,1,2,4.89c1.06,4.25.47,8.17-1.24,9.86l.23.07a.3.3,0,0,1,0,.57L68.82,216a3.35,3.35,0,0,1-1.88.12l-9.6-2.15A.35.35,0,0,1,57.26,213.27Z"/><path class="cls-4" d="M.22,212.8c4.44-2,9.8-1.81,14-1.14-1-11.64,10.42-47.8,10.42-47.8l2.16,1.61c-.32-3.73,1.85-9.22,6-14.27,4.91-6,11-9.4,14.75-8.63l-.15-1.46s.7-1.94,15.87-1.06a40.85,40.85,0,0,1,24.5,10l-3.35,10.58c-15.15,4.23-29.79-4.89-34.43-8.19a30.26,30.26,0,0,1-5,8.65c-4,4.86-8.73,8-12.39,8.64l1.27.95c.94,18.72-11.78,37.84-14.73,42l.9.26a.35.35,0,0,1,0,.66l-6.26,2.27a4,4,0,0,1-2.19.14L.32,213.56A.41.41,0,0,1,.22,212.8Z"/><path class="cls-4" d="M84.12,131.23c-.35-3.11-7.48-16.34-14.26-19.33a13.13,13.13,0,0,0-7.18,2,11.15,11.15,0,0,0-2.22-3.14c-3.11-3.12-7.3-4-9.34-1.94s-1.18,6.23,1.94,9.34a10.93,10.93,0,0,0,3.81,2.53A22.93,22.93,0,0,0,55.59,124S60.65,139.16,81.36,142C81.36,142,84.46,134.33,84.12,131.23Z"/><path class="cls-4" d="M200.62,93.44c-3.45-4.65-11.92-4.07-18.92,1.31a22.25,22.25,0,0,0-6.07,7,16.42,16.42,0,0,0-4-1c-10.3,3-23.17,20.78-24.29,25.22s1.76,16.25,1.76,16.25c30.16-.05,40.46-21.09,40.46-21.09a34.18,34.18,0,0,0-1.55-6.25,22.35,22.35,0,0,0,6.15-3.36C201.2,106.21,204.07,98.08,200.62,93.44Z"/><path class="cls-3" d="M146.63,193.18c0,8.67-13.41,17.81-30,17.81s-30-9.14-30-17.81,13.42-15.69,30-15.69S146.63,184.51,146.63,193.18Z"/><path class="cls-3" d="M169.21,160.1l-32.5-58a21.72,21.72,0,0,0-14.46-10.73c-1-6.62-2.85-15.09-6-12.88-2.84,2-4.16,8.1-4.77,13.18a21.73,21.73,0,0,0-13.2,10.43l-32.5,58A22.05,22.05,0,0,0,85,192.93h65A22.05,22.05,0,0,0,169.21,160.1Z"/><ellipse class="cls-5" cx="102.33" cy="95.9" rx="4.3" ry="11.04"/><ellipse class="cls-5" cx="131.82" cy="95.9" rx="4.3" ry="11.04"/><path class="cls-3" d="M232.44,14.89C229,54.7,208.6,62.37,203.12,63.72a1.91,1.91,0,0,1-2.11-.89c-2.81-4.7-12.22-22.21-10.37-37.91a2,2,0,0,0-3-1.89c-11.75,8-14.11,22.4-13,44.31,1.5,28.71,30.25,30.55,38.24,29.79,20.25-1.94,34.46-26.78,31.72-55.5A68.6,68.6,0,0,0,236.07,14,2,2,0,0,0,232.44,14.89Z"/><path class="cls-3" d="M35.28,83.66c11,9.28,8.72,17.58,7.91,19.66a.77.77,0,0,1-.72.51c-2,0-9.23-.53-13.44-4.36a.76.76,0,0,0-1.22.61c-.22,5.52,3.48,9.24,10.18,13.35,8.78,5.4,15.65-3.69,17.18-6.48,3.89-7.06-.29-16.83-9.35-21.82a22.59,22.59,0,0,0-10-2.85A.81.81,0,0,0,35.28,83.66Z"/><path class="cls-2" d="M118,104l-.44,3.66c-.29,2.32-.62,5.65-1,9.64s-.85,8.64-1.23,13.63c-.21,2.49-.35,5.07-.52,7.69s-.29,5.28-.37,7.94-.17,5.33-.17,7.95,0,5.2.09,7.69c.16,5,.51,9.63,1,13.59.11,1,.27,1.94.41,2.84s.25,1.75.42,2.55c.27,1.6.6,3,.88,4.11s.55,2,.7,2.62l.26.93-.36-.89c-.22-.59-.63-1.43-1-2.55s-.83-2.47-1.24-4.06c-.23-.79-.44-1.64-.64-2.53s-.42-1.84-.59-2.84c-.39-2-.72-4.15-1-6.44s-.51-4.73-.64-7.25c-.08-1.26-.15-2.54-.19-3.83s-.08-2.61-.08-3.94c0-2.64,0-5.33.1-8s.26-5.36.44-8,.44-5.22.7-7.72.57-4.92.87-7.2.64-4.44,1-6.42c.65-4,1.33-7.26,1.8-9.55S118,104,118,104Z"/><ellipse class="cls-6" cx="104.37" cy="93.58" rx="1" ry="2.58"/><ellipse class="cls-6" cx="134.21" cy="93.58" rx="1" ry="2.58"/></g></svg>