<?xml version="1.0" encoding="utf-8"?>
<!-- Generator: Adobe Illustrator 23.0.2, SVG Export Plug-In . SVG Version: 6.00 Build 0)  -->
<svg version="1.1" id="Layer_1" xmlns="http://www.w3.org/2000/svg" xmlns:xlink="http://www.w3.org/1999/xlink" x="0px" y="0px"
	 viewBox="0 0 244.9 216.1" style="enable-background:new 0 0 244.9 216.1;" xml:space="preserve">
<style type="text/css">
	.st0{stroke:#000000;stroke-miterlimit:10;}
</style>
<title>Sea Amigos Animals</title>
<g id="Crab">
	<path class="st0" d="M118.8,80.4c0,0,0.6-41.1,5.2-47.6"/>
	<path class="st0" d="M117.1,85.1c0,0,0.4-2.2,1.3-6s2.2-9.2,4-15.7s4-14,6.7-21.9c2.8-8.3,6.2-16.4,10.3-24.2
		c2.1-4,4.6-7.7,7.6-11.1c1.5-1.7,3.2-3.1,5-4.3c1.9-1.2,4.1-1.8,6.3-1.9c0.5,0,1,0,1.6,0l1.6,0.2c0.5,0.1,1,0.2,1.6,0.4
		c0.5,0.1,1,0.3,1.5,0.5c1.9,0.8,3.5,2.1,4.7,3.8c2,3.1,3.3,6.6,3.5,10.2c0.3,3,0.3,6.1,0.1,9.1c-0.2,2.7-0.5,5.1-0.9,7
		c-0.7,3.8-1.3,6-1.3,6s0.6-2.2,1.1-6c0.3-1.9,0.6-4.3,0.7-7c0.2-3,0.1-6.1-0.3-9.1c-0.4-3.2-1.3-6.9-3.6-9.9
		c-1.2-1.5-2.7-2.7-4.5-3.4c-0.4-0.2-0.9-0.3-1.4-0.5c-0.5-0.1-1-0.2-1.4-0.3l-1.5-0.1c-0.5,0-1,0-1.6,0c-2,0.1-4,0.7-5.7,1.8
		c-1.8,1.2-3.4,2.6-4.7,4.2c-2.8,3.4-5.2,7.1-7.1,11c-3.9,7.8-7.1,15.8-9.7,24.1c-2.6,7.9-4.6,15.4-6.2,21.9s-2.8,11.9-3.6,15.7
		s-1.2,6-1.2,6L117.1,85.1z"/>
	<path class="st0" d="M128,28.4c-0.4-0.4-1.8,0.5-3,1.9c-0.4,0.5-0.8,1.1-1,1.8c0.1-0.7,0.1-1.4,0-2.1c-0.4-1.8-1.1-3.2-1.7-3.1
		s-0.7,1.7-0.3,3.5c0.3,1.2,0.8,2.3,1.7,3.1l0,0c1.2-0.4,2.2-1,3-1.9C127.8,30.2,128.4,28.7,128,28.4z"/>
	<path class="st0" d="M116.3,80.4c0,0-0.6-41.1-5.2-47.6"/>
	<path class="st0" d="M114.3,85.7c0,0-0.4-2.2-1.2-6s-2-9.2-3.7-15.7s-3.7-14-6.3-21.8c-2.6-8.3-5.9-16.3-9.8-24.1
		c-2-3.9-4.4-7.6-7.2-10.9c-1.4-1.6-3-3-4.7-4.2c-1.7-1.1-3.7-1.7-5.7-1.8c-0.5,0-1,0-1.6,0l-1.5,0.1c-0.5,0.1-1,0.2-1.4,0.3
		c-0.5,0.1-0.9,0.3-1.4,0.5c-1.8,0.7-3.3,1.9-4.4,3.4c-2,2.9-3.2,6.3-3.5,9.9c-0.3,3-0.4,6-0.2,9.1c0.2,2.7,0.5,5.1,0.8,7
		c0.6,3.9,1.2,6,1.2,6s-0.6-2.1-1.3-6c-0.3-1.9-0.7-4.3-0.9-7c-0.3-3-0.3-6.1,0-9.1c0.2-3.7,1.4-7.2,3.5-10.2c1.2-1.7,2.8-3,4.7-3.8
		c0.5-0.2,1-0.4,1.5-0.5c0.5-0.1,1-0.3,1.5-0.4L74,0.3c0.5,0,1,0,1.6,0c2.2,0,4.4,0.6,6.3,1.8c1.9,1.2,3.6,2.6,5.1,4.3
		c3,3.4,5.5,7,7.6,11c4.1,7.8,7.6,15.8,10.4,24.2c2.8,7.9,5,15.4,6.8,21.9s3.2,11.9,4,15.7s1.4,6,1.4,6L114.3,85.7z"/>
	<path class="st0" d="M107.1,28.4c0.4-0.4,1.8,0.5,3,1.9c0.4,0.5,0.8,1.1,1,1.8c-0.1-0.7-0.1-1.4,0-2.1c0.4-1.8,1.1-3.2,1.7-3.1
		s0.7,1.7,0.3,3.5c-0.3,1.2-0.8,2.3-1.7,3.1l0,0c-1.2-0.4-2.2-1-3-1.9C107.3,30.2,106.6,28.7,107.1,28.4z"/>
	<path class="st0" d="M205.1,214.7c-2.1-1.3-4.5-2.1-7-2.4c-0.6-0.5-1.2-0.9-1.9-1.3c2.4-7.6,0.1-21,0.1-21
		c-0.1,0.3-0.2,0.6-0.5,0.8c-2-8.9-11.8-17.8-16-21.3c-0.5-3.5-4.4-7.6-10.1-10.1c-7.1-3.2-14.2-2.7-15.9,1.1s2.7,9.4,9.8,12.6
		c2.6,1.2,5.5,1.9,8.4,2.1c2.1,9.9,10.5,14.3,14.3,16.4l-0.6-0.1c0,0,2.6,16.1,4,20.8h-0.6l-0.8,0.1c-0.2,0-0.3,0.2-0.2,0.4
		c0,0.1,0.1,0.2,0.2,0.2l5.1,2.7c0.6,0.3,1.2,0.4,1.8,0.4l9.8-0.8c0.2,0,0.3-0.2,0.3-0.4C205.2,214.8,205.2,214.8,205.1,214.7z"/>
	<path class="st0" d="M179.5,213.3c-3.6-1.6-7.8-1.6-11.2-1.1c1.5-1.8,2.6-3.9,3.1-6.2c1-3.9,0.6-7.5-0.8-9.4c1.1-1.9,1.7-4,1.6-6.2
		c0-5.1-2.7-9.2-6.1-9.2s-6.1,4.1-6.1,9.2c0,3.7,1.5,6.9,3.6,8.3c-0.9,1.5-1.6,3.2-2.1,4.9c-1.1,4.2-0.5,8.2,1.2,9.9l-0.2,0.1
		c-0.2,0.1-0.2,0.2-0.2,0.4c0,0.1,0.1,0.2,0.2,0.2l5.4,2c0.6,0.2,1.3,0.3,1.9,0.1l9.6-2.1c0.2,0,0.4-0.1,0.4-0.3
		S179.7,213.3,179.5,213.3z"/>
	<path class="st0" d="M235.2,212.8c-4.4-2-9.8-1.8-13.9-1.1c1-11.6-10.4-47.8-10.4-47.8l-2.1,1.6c0.3-3.7-1.9-9.2-6-14.3
		c-4.9-6-11-9.4-14.8-8.6l0.1-1.5c0,0-0.7-1.9-15.9-1.1c-9.1,0.5-17.7,4-24.5,10l3.4,10.6c15.1,4.2,29.8-4.9,34.4-8.2
		c1.2,3.1,2.9,6.1,5.1,8.6c4,4.9,8.7,8,12.4,8.6l-1.3,0.9c-0.9,18.7,11.8,37.8,14.7,42l-0.9,0.3c-0.2,0.1-0.3,0.3-0.2,0.4
		c0,0.1,0.1,0.2,0.2,0.2l6.3,2.3c0.7,0.2,1.5,0.3,2.2,0.1l11.2-2.5c0.2-0.1,0.3-0.3,0.2-0.5C235.3,212.9,235.3,212.8,235.2,212.8z"
		/>
	<path class="st0" d="M30.7,214.7c2.1-1.3,4.5-2.1,7-2.4c0.6-0.5,1.2-1,1.9-1.4c-2.4-7.6-0.1-21-0.1-21c0.1,0.3,0.2,0.6,0.5,0.8
		c2-8.9,11.8-17.8,16-21.3c0.5-3.5,4.4-7.6,10.1-10.1c7.1-3.2,14.2-2.7,15.9,1.1s-2.7,9.4-9.8,12.6c-2.6,1.2-5.5,1.9-8.4,2.1
		c-2.1,9.9-10.5,14.3-14.3,16.4l0.6-0.1c0,0-2.6,16.1-4,20.8h0.6l0.8,0.1c0.2,0,0.3,0.2,0.2,0.4c0,0.1-0.1,0.2-0.2,0.2l-5.1,2.7
		c-0.6,0.3-1.2,0.4-1.8,0.4l-9.8-0.8c-0.2-0.1-0.3-0.3-0.2-0.5C30.6,214.8,30.6,214.7,30.7,214.7z"/>
	<path class="st0" d="M57.3,213.3c3.5-1.6,7.8-1.6,11.2-1.1c-1.5-1.8-2.6-3.9-3.1-6.2c-1-3.9-0.6-7.5,0.8-9.4
		c-1.1-1.9-1.7-4-1.6-6.2c0-5.1,2.7-9.2,6.1-9.2s6.1,4.1,6.1,9.2c0,3.7-1.5,6.9-3.6,8.3c0.9,1.5,1.6,3.2,2,4.9
		c1.1,4.2,0.5,8.2-1.2,9.9l0.2,0.1c0.2,0.1,0.2,0.2,0.2,0.4c0,0.1-0.1,0.2-0.2,0.2l-5.3,2c-0.6,0.2-1.3,0.3-1.9,0.1l-9.6-2.1
		c-0.2,0-0.4-0.1-0.4-0.3C56.9,213.5,57.1,213.3,57.3,213.3z"/>
	<path class="st0" d="M0.2,212.8c4.4-2,9.8-1.8,14-1.1c-1-11.6,10.4-47.8,10.4-47.8l2.2,1.6c-0.3-3.7,1.9-9.2,6-14.3
		c4.9-6,11-9.4,14.8-8.6l-0.2-1.5c0,0,0.7-1.9,15.9-1.1c9.1,0.5,17.7,4,24.5,10l-3.3,10.6c-15.2,4.2-29.8-4.9-34.4-8.2
		c-1.2,3.1-2.9,6.1-5,8.6c-4,4.9-8.7,8-12.4,8.6l1.3,0.9c0.9,18.7-11.8,37.8-14.7,42l0.9,0.3c0.2,0.1,0.3,0.3,0.2,0.4
		c0,0.1-0.1,0.2-0.2,0.2l-6.3,2.3c-0.7,0.2-1.5,0.3-2.2,0.1l-11.3-2.4c-0.2-0.1-0.4-0.3-0.3-0.5C0,213,0.1,212.9,0.2,212.8z"/>
	<path class="st0" d="M84.1,131.2c-0.3-3.1-7.5-16.3-14.3-19.3c-2.5,0-5,0.7-7.2,2c-0.6-1.2-1.3-2.2-2.2-3.1c-3.1-3.1-7.3-4-9.3-1.9
		s-1.2,6.2,1.9,9.3c1.1,1.1,2.4,2,3.8,2.5c-0.5,1.1-0.9,2.2-1.3,3.3c0,0,5.1,15.2,25.8,18C81.4,142,84.5,134.3,84.1,131.2z"/>
	<path class="st0" d="M200.6,93.4c-3.4-4.7-11.9-4.1-18.9,1.3c-2.5,1.9-4.6,4.3-6.1,7c-1.3-0.5-2.6-0.8-4-1
		c-10.3,3-23.2,20.8-24.3,25.2s1.8,16.2,1.8,16.2c30.2-0.1,40.5-21.1,40.5-21.1c-0.3-2.1-0.8-4.2-1.6-6.2c2.2-0.8,4.3-1.9,6.1-3.4
		C201.2,106.2,204.1,98.1,200.6,93.4z"/>
	<path class="st0" d="M146.6,193.2c0,8.7-13.4,17.8-30,17.8s-30-9.1-30-17.8s13.4-15.7,30-15.7S146.6,184.5,146.6,193.2z"/>
	<path class="st0" d="M169.2,160.1l-32.5-58c-3-5.5-8.3-9.4-14.5-10.7c-1-6.6-2.8-15.1-6-12.9c-2.8,2-4.2,8.1-4.8,13.2
		c-5.6,1.6-10.4,5.3-13.2,10.4l-32.5,58c-6,10.6-2.2,24.1,8.5,30c3.3,1.8,7,2.8,10.8,2.8h65c12.2,0,22-9.9,22-22.1
		C172,167.1,171.1,163.4,169.2,160.1z"/>
	<ellipse class="st0" cx="102.3" cy="95.9" rx="4.3" ry="11"/>
	<ellipse class="st0" cx="131.8" cy="95.9" rx="4.3" ry="11"/>
	<path class="st0" d="M232.4,14.9c-3.4,39.8-23.8,47.5-29.3,48.8c-0.8,0.2-1.7-0.2-2.1-0.9c-2.8-4.7-12.2-22.2-10.4-37.9
		c0.1-1.1-0.7-2.1-1.8-2.2c-0.4,0-0.8,0.1-1.2,0.3c-11.8,8-14.1,22.4-13,44.3c1.5,28.7,30.2,30.5,38.2,29.8
		c20.2-1.9,34.5-26.8,31.7-55.5c-0.8-9.7-3.8-19.1-8.5-27.6c-0.6-0.9-1.9-1.1-2.8-0.5C232.8,13.8,232.5,14.3,232.4,14.9z"/>
	<path class="st0" d="M35.3,83.7c11,9.3,8.7,17.6,7.9,19.7c-0.1,0.3-0.4,0.5-0.7,0.5c-2,0-9.2-0.5-13.4-4.4
		c-0.3-0.3-0.8-0.2-1.1,0.1c-0.1,0.1-0.2,0.3-0.2,0.5c-0.2,5.5,3.5,9.2,10.2,13.3c8.8,5.4,15.7-3.7,17.2-6.5
		c3.9-7.1-0.3-16.8-9.3-21.8c-3.1-1.7-6.5-2.7-10-2.8c-0.4,0-0.8,0.4-0.8,0.8C35.1,83.3,35.1,83.5,35.3,83.7z"/>
	<path class="st0" d="M118,104l-0.4,3.7c-0.3,2.3-0.6,5.7-1,9.6s-0.8,8.6-1.2,13.6c-0.2,2.5-0.3,5.1-0.5,7.7s-0.3,5.3-0.4,7.9
		s-0.2,5.3-0.2,7.9s0,5.2,0.1,7.7c0.2,5,0.5,9.6,1,13.6c0.1,1,0.3,1.9,0.4,2.8s0.2,1.8,0.4,2.6c0.3,1.6,0.6,3,0.9,4.1s0.6,2,0.7,2.6
		l0.3,0.9l-0.4-0.9c-0.2-0.6-0.6-1.4-1-2.6s-0.8-2.5-1.2-4.1c-0.2-0.8-0.4-1.6-0.6-2.5s-0.4-1.8-0.6-2.8c-0.4-2-0.7-4.1-1-6.4
		s-0.5-4.7-0.6-7.2c-0.1-1.3-0.2-2.5-0.2-3.8s-0.1-2.6-0.1-3.9c0-2.6,0-5.3,0.1-8s0.3-5.4,0.4-8s0.4-5.2,0.7-7.7s0.6-4.9,0.9-7.2
		s0.6-4.4,1-6.4c0.7-4,1.3-7.3,1.8-9.6S118,104,118,104z"/>
	<ellipse class="st0" cx="104.4" cy="93.6" rx="1" ry="2.6"/>
	<ellipse class="st0" cx="134.2" cy="93.6" rx="1" ry="2.6"/>
</g>
</svg>
