<?xml version="1.0" encoding="utf-8"?>
<!-- Generator: Adobe Illustrator 19.0.0, SVG Export Plug-In . SVG Version: 6.00 Build 0)  -->
<svg version="1.1" id="Layer_1" xmlns="http://www.w3.org/2000/svg" xmlns:xlink="http://www.w3.org/1999/xlink" x="0px" y="0px"
	 viewBox="233 -85.3 415 210.3" style="enable-background:new 233 -85.3 415 210.3;" xml:space="preserve">
<title>Sea Amigos Animals</title>
<path d="M574.8,72.8l-0.8,28.5c0,0,4.7,5,0,9.1c-4.7,4.1-10.7,0-10.7,0s-6.9,9.1-19,1.1c0,0-12.7,3-13.2-5.5
	c-0.6-8.5,9.6-8.3,9.6-8.3l1.9-24.2"/>
<path d="M400,75.8c0,0,2.9,26.4-25.4,26c-3.4,6.5-10.4,10.4-17.7,9.7c-13-0.8-14-6.6-14-6.6s-16.7,3.5-12.8-3.9s18.1-7.6,18.1-7.6
	s-4.1-9.9,4.1-15.9"/>
<path d="M559.2,3.6l5.6-15.2c0.2-0.5,0.8-0.7,1.3-0.5c0.1,0,0.1,0.1,0.2,0.1l5.5,4.5c0.5,0.3,1.1,0.2,1.4-0.2
	c0.1-0.1,0.1-0.2,0.1-0.3l1.7-7.5c0.1-0.5,0.6-0.8,1.1-0.7l11,1.6c0.6,0,1-0.4,1-1c0-0.1,0-0.2,0-0.3l-3.8-9.6
	c-0.1-0.4,0-0.9,0.4-1.2l8.1-5.1c0.4-0.3,0.5-1,0.2-1.4c-0.1-0.1-0.2-0.2-0.4-0.3l-12.5-4.5c-0.4-0.2-0.7-0.6-0.6-1.1l2.3-11.1
	c0.1-0.5-0.3-1-0.9-1.1c-0.1,0-0.2,0-0.3,0l-14.4,4.3c-0.3,0.1-0.7,0-0.9-0.2l-9.3-9.3c-0.4-0.4-1-0.3-1.4,0.1c0,0,0,0,0,0l-6.6,8.5
	c-0.2,0.3-0.6,0.4-1,0.3l-13.2-4.2c-0.5-0.1-1.1,0.2-1.2,0.7c0,0,0,0,0,0L530-37.5c-0.1,0.5-0.7,0.9-1.2,0.7c-0.1,0-0.1,0-0.1,0
	l-8.2-3.9c0,0,11.3-36,49.5-27c38.2,9.1,49.8,44.3,31.9,55.3C584-1.3,559.2,3.6,559.2,3.6z"/>
<path d="M396.4,1.8l10.2-12.1c0.6-0.7,1.5-0.9,2.2-0.5l9.6,4.7c0.6,0.3,1.3,0.2,1.9-0.1l10.5-7.2c0.6-0.5,1.5-0.5,2.1,0L443-6.1
	c0.6,0.4,1.3,0.5,1.9,0.2l14.4-7.3c0.8-0.4,1.7-0.2,2.3,0.4l5.8,6.6c0.6,0.6,1.5,0.8,2.2,0.5l11.7-5.5c0.7-0.3,1.4-0.2,2,0.3
	l10.6,8.9c0.6,0.5,1.4,0.6,2.1,0.2l13.7-7.1c0.7-0.3,1.5-0.3,2,0.2l10,8.4c0.7,0.6,1.7,0.6,2.4,0l6.9-5.7c0.7-0.6,1.7-0.6,2.4,0
	l9,7.4c0.7,0.6,1.7,0.6,2.4,0l8-6.7c0.8-0.6,1.9-0.6,2.5,0.1l7.6,7.9c0.7,0.7,1.9,0.8,2.6,0.1l8.2-7.7c0.7-0.7,1.9-0.7,2.6,0
	l11.7,11.4"/>
<path d="M445.1,79.3c0,0-35.2-4.7-42.9-1.4s-38.8,10.2-126.4-5.7l-12.4-4.8L245,44c0,0-0.4-7.1,15-13.3s41-14.6,41-14.6
	s-3.2-31.9,20.4-35c19.3-2.5,22,16.2,22,16.2s2.2-19.6,23.9-14.6C384-13.3,381,6.9,381,6.9s19.8-13.6,63.1-11.6s84.8,14.7,115.6,7
	c33-8.3,40.8-21.5,35.5-38S544-81,515.5-33.6c0,0-18.6-45,45.8-48.7c64.4-3.7,89.1,44.1,84.6,79.2c-4.5,35.1-10.7,59.8-60.6,75.9
	c0,0,9.5,14.9,9.5,22.7c0,0,27.6,6.2,24.3,14.4c-1.5,4.6-6.5,7.2-11.1,5.8c0,0,5,4.1-2.9,7.8s-25.2-1.6-27.2-5.4
	c0,0-14.4,6.6-21.9,0s6.6-15.7,6.6-15.7c-0.7-7.9-2.5-15.7-5.4-23.1L445.1,79.3z"/>
<path d="M272.5,31.8c0,0,13-12.8,26.8-3.9c11.4,7.1,16.4,21.1,12,33.8c-3.5,9.5-35.7,11.1-45.6,10.5c-9.9-0.6-39,0.6-30.9-29.9
	C244.4,14.9,272.5,31.8,272.5,31.8z"/>
<path d="M397.7,69.6c31.1,3.3,17.9,36.5,17.9,36.5s-18.6,11.1-2.1,15.3c11.6,2.9,15.7-3.7,15.7-3.7s2.9,8.7,17.9,7.2
	s3.7-8.9,3.7-8.9s12.8,2.1,10.5-6.6s-16.7-6.8-16.7-6.8c10.7-32.2-12.6-47.4-12.6-47.4c-7.9-4.6-17.5-5.4-26-2.1"/>
<ellipse cx="322.1" cy="-1" rx="7.1" ry="8.8"/>
<ellipse cx="324.6" cy="0.4" rx="2.5" ry="2.8"/>
<ellipse cx="360.9" cy="-1" rx="7.1" ry="8.8"/>
<ellipse cx="363.4" cy="0.4" rx="2.5" ry="2.8"/>
<path d="M298.5,36.5c0,2.4-3.5,2.4-7.9,2.4c-4.4,0-7.9,0-7.9-2.4s3.5-4.3,7.9-4.3C294.9,32.2,298.5,34.1,298.5,36.5z"/>
<path d="M261.3,35.9c0,2.4-3.5,2.4-7.9,2.4c-4.4,0-7.9,0-7.9-2.4s3.5-4.2,7.9-4.2C257.8,31.7,261.3,33.6,261.3,35.9z"/>
<path d="M304.1,63.9l69.5-8.5c0,0,4.4-0.3,8.8-7.1"/>
<path d="M401.6,25.1l12.3-8.7c1.5-1,3.5-0.9,4.9,0.2l6.6,5.6c1.4,1.2,3.4,1.3,4.8,0.3l10.5-7.2c1.6-1.1,3.6-0.9,5,0.4l5.4,5.2
	c1.3,1.3,3.3,1.5,4.8,0.6l11.7-7c1.3-0.8,3-0.8,4.3,0.1l9.3,6.4c1.3,0.9,2.9,0.9,4.3,0.2l10-5.8c1.6-0.9,3.5-0.6,4.8,0.6l6,6
	c1.2,1.2,3,1.5,4.6,0.8l14.5-7.2c1.5-0.7,3.2-0.5,4.4,0.6l9.5,8.5c1.2,1.1,3,1.3,4.4,0.6L559,18c1.4-0.7,3.1-0.5,4.3,0.5l8.5,7
	c1.3,1.1,3.2,1.2,4.6,0.3l10.3-6.4c1.4-0.9,3.3-0.8,4.6,0.3l9.4,7.6L401.6,25.1z"/>
<path d="M515.4-33.6c2.6-35.9,28.5-39.2,45.5-41.1c23.1-2.6,78.9,14,73.7,74c-6.4,73.5-80,66.6-89.1,69c-9.1,2.4-84.2,9.6-112.2,6.6
	S393.1,73,393.1,73l2.2,6.9c0,0,36.6,12.6,105.6,5.2c0,0,44.8,5.5,89.1-11s46.9-27.4,57.3-68.9c0,0,8.9-56.8-41.1-80.4
	s-87.2-0.3-91.9,15.4C509.7-44.2,515.4-33.6,515.4-33.6z"/>
<path d="M588,77.7c-3.8-8.9-16.6-25.2-16.6-25.2L545,67.9c0,0,11.5,9.5,13.7,15.7L588,77.7z"/>
<path d="M413.8,76.9c0,0-6.7-11.7-12.1-13.1l-24.5-2.2l-85.9,13.7c0,0,41.4,7.9,81,7.9C391.8,83.2,413.8,76.9,413.8,76.9z"/>
</svg>
