<svg xmlns="http://www.w3.org/2000/svg" viewBox="0 0 506.33 210.31"><defs><style>.cls-1{fill:#295624;}.cls-2{fill:#457a38;}.cls-3{fill:#231f20;}.cls-4{fill:#fff;}.cls-5{fill:none;stroke:#231f20;stroke-miterlimit:10;stroke-width:1.65px;}.cls-6{fill:#efe6a2;}</style></defs><title>Sea Amigos Animals</title><g id="Crococdile"><path class="cls-1" d="M391.44,168.07l-.82,28.47s4.67,5,0,9.07-10.73,0-10.73,0-6.88,9.08-19,1.1c0,0-12.65,3-13.2-5.5s9.63-8.25,9.63-8.25l1.92-24.2"/><path class="cls-1" d="M206.63,161.06s2.88,26.4-25.38,26a18.08,18.08,0,0,1-17.73,9.69c-13-.82-14-6.6-14-6.6s-16.71,3.51-12.79-3.92,18.15-7.63,18.15-7.63-4.12-9.9,4.13-15.88"/><path class="cls-1" d="M414.54,90.93l5.59-15.24a1,1,0,0,1,1.5-.41l5.47,4.49a1,1,0,0,0,1.53-.53l1.67-7.53a1,1,0,0,1,1.07-.74l11,1.57a1,1,0,0,0,1-1.29l-3.78-9.57a1,1,0,0,1,.37-1.15l8.14-5.14a1,1,0,0,0-.18-1.71l-12.53-4.55a1,1,0,0,1-.61-1.09l2.27-11.11a1,1,0,0,0-1.21-1.1l-14.43,4.33a.94.94,0,0,1-.94-.24l-9.29-9.29a1,1,0,0,0-1.42.09l-6.64,8.53a.94.94,0,0,1-1,.32l-13.18-4.15a1,1,0,0,0-1.23.75l-2.35,13.65a1,1,0,0,1-1.35.7l-8.22-3.87s11.28-36,49.51-26.95S475.05,64,457.17,75,414.54,90.93,414.54,90.93Z"/><path class="cls-1" d="M203.05,87.08,213.62,75a2,2,0,0,1,2.33-.49l10,4.67a2,2,0,0,0,1.94-.14l10.87-7.17a2,2,0,0,1,2.23,0l10.58,7.37a2,2,0,0,0,2,.15l14.93-7.35a2,2,0,0,1,2.35.45l6,6.62a2,2,0,0,0,2.3.47l12.14-5.49a2,2,0,0,1,2.07.26l11,8.88a2,2,0,0,0,2.14.23l14.22-7.11a2,2,0,0,1,2.13.23L333.27,85a2,2,0,0,0,2.49,0l7.14-5.72a2,2,0,0,1,2.48,0l9.34,7.39a2,2,0,0,0,2.48,0l8.37-6.7a2,2,0,0,1,2.65.14l7.86,7.86a2,2,0,0,0,2.74.07l8.51-7.68a2,2,0,0,1,2.69,0l12.15,11.4"/><path class="cls-2" d="M251.73,164.63s-35.2-4.67-42.9-1.37S145,176.46,99.09,167.93l-32.45,5.23L18,132.46S51.24,122.28,66.64,116s41-14.57,41-14.57S104.42,69.56,128,66.45c19.25-2.54,22,16.23,22,16.23s2.2-19.6,23.93-14.58c16.69,3.86,13.75,24.06,13.75,24.06s19.8-13.61,63.12-11.55,136.3,14.71,167.07,7c33-8.25,40.84-21.46,35.48-38S402.17,4.29,373.7,51.74c0,0-18.56-45,45.79-48.68s89.11,44.14,84.57,79.2-10.72,59.82-60.64,75.91c0,0,9.49,14.85,9.49,22.69,0,0,27.64,6.19,24.34,14.44a9,9,0,0,1-11.14,5.77s4.95,4.13-2.89,7.84-25.16-1.65-27.23-5.36c0,0-14.43,6.6-21.86,0s6.6-15.68,6.6-15.68a88.32,88.32,0,0,0-5.36-23.1Z"/><path class="cls-2" d="M39.14,137.13s13-12.79,26.81-3.92a28.8,28.8,0,0,1,12,33.83c-3.5,9.49-35.68,11.14-45.58,10.52s-39,.62-30.94-29.91C11.08,120.22,39.14,137.13,39.14,137.13Z"/><path class="cls-2" d="M204.36,154.87c31.14,3.3,17.94,36.51,17.94,36.51s-18.56,11.14-2.06,15.26c11.55,2.89,15.68-3.71,15.68-3.71s2.88,8.66,17.94,7.22,3.71-8.87,3.71-8.87,12.79,2.06,10.52-6.6-16.7-6.81-16.7-6.81c10.72-32.18-12.59-47.44-12.59-47.44a29.84,29.84,0,0,0-26-2.06"/><ellipse class="cls-3" cx="128.79" cy="84.33" rx="7.15" ry="8.8"/><ellipse class="cls-4" cx="131.27" cy="85.7" rx="2.48" ry="2.75"/><ellipse class="cls-3" cx="167.57" cy="84.33" rx="7.15" ry="8.8"/><ellipse class="cls-4" cx="170.05" cy="85.7" rx="2.48" ry="2.75"/><path class="cls-3" d="M65.13,141.77c0,2.36-3.54,2.37-7.91,2.37s-7.91,0-7.91-2.37,3.54-4.27,7.91-4.27S65.13,139.41,65.13,141.77Z"/><path class="cls-3" d="M28,141.22c0,2.36-3.54,2.37-7.91,2.37s-7.91,0-7.91-2.37S15.72,137,20.09,137,28,138.86,28,141.22Z"/><path class="cls-5" d="M79.29,160.23l100.93-19.52s4.4-.28,8.8-7.15"/><path class="cls-1" d="M208.28,110.45l12.32-8.67a4,4,0,0,1,4.88.23l6.6,5.64a4,4,0,0,0,4.84.26l10.47-7.17a4,4,0,0,1,5,.43l5.36,5.22a4,4,0,0,0,4.83.56l11.66-7a4,4,0,0,1,4.33.14l9.29,6.45a4,4,0,0,0,4.25.18l10-5.75a4,4,0,0,1,4.8.64l6,6a4,4,0,0,0,4.57.76l14.55-7.18a4,4,0,0,1,4.43.61l9.46,8.5a4,4,0,0,0,4.43.61l15.34-7.57a4,4,0,0,1,4.3.5l8.46,7a4,4,0,0,0,4.63.32l10.3-6.36a4,4,0,0,1,4.6.29l9.35,7.57Z"/><path class="cls-6" d="M373.7,51.74c2.61-35.89,28.47-39.19,45.52-41.12,23.09-2.61,78.93,14,73.7,74-6.4,73.5-80,66.56-89.1,69s-84.16,9.63-112.21,6.6-40.16-1.92-40.16-1.92l2.2,6.87s36.58,12.65,105.61,5.23c0,0,44.83,5.5,89.11-11s46.89-27.37,57.34-68.9c0,0,8.94-56.79-41.11-80.44s-87.19-.28-91.86,15.4S373.7,51.74,373.7,51.74Z"/><path class="cls-2" d="M446.31,163.4c-3.85-8.94-16.64-25.17-16.64-25.17l-26.4,15.4s11.34,8.25,13.54,14.44Z"/><path class="cls-6" d="M220.51,162.16s-6.73-11.69-12.1-13.07l-23.92-.75L101,168.21s28.05,6.19,67.38,1.92S220.51,162.16,220.51,162.16Z"/><path class="cls-1" d="M184.49,148.34c-14,3.33-85.64,19.52-85.64,19.52s5,1.53,6.7,1.17C170.84,155.52,184.49,148.34,184.49,148.34Z"/></g></svg>