<svg xmlns="http://www.w3.org/2000/svg" viewBox="0 0 250.09 343.23"><defs><style>.cls-1{fill:#939598;}.cls-2{fill:#231f20;}.cls-3{fill:#fff;}.cls-4,.cls-6{fill:none;stroke-miterlimit:10;stroke-width:1.55px;}.cls-4{stroke:#231f20;}.cls-5{fill:#e9c9d8;}.cls-6{stroke:#414042;}</style></defs><title>Sea Amigos Animals</title><g id="Crococdile"><path class="cls-1" d="M84.66,106.21s10.83,21.67,3.87,36.12-15,23-4.39,26.31,28.38-6.45,28.9-28.12S84.66,106.21,84.66,106.21Z"/><path class="cls-1" d="M40.27,44.2S51-8.39,125.41,1.16c46.74,5,63.92,41.59,63.92,41.59s54.79,19.52,60.63,85a31.91,31.91,0,0,1-8,24l-2.47,2.77a2.58,2.58,0,0,1-4.41-1c-2.45-9-8.8-28.5-19.45-36,0,0,34.22,91.08-88.16,164.05A33.15,33.15,0,0,1,143,312.69c-1.33,19.51-6.06,19.57-4.85,26.78a3,3,0,0,1-2.59,3.54c-9,1-34.39-.05-46.77-41.23,0,0-31.62,16.29-62.55,2.08a4.78,4.78,0,0,1-1.37-7.67,25.23,25.23,0,0,0,4.21-6c4.17-8.18,8.1-18.19,50.65-34.45,0,0,30.64-23.38,41.15-50.16S86.45,97.17,68.87,88-3,53.47.5,45.18C5.9,32.55,40.27,44.2,40.27,44.2Z"/><circle class="cls-2" cx="105.86" cy="38.13" r="9.29"/><circle class="cls-3" cx="108.9" cy="37.54" r="4.13"/><path class="cls-4" d="M.5,45.18s8.12-6.85,22.76,3.41S52.72,75.4,81.8,62.85"/><path class="cls-5" d="M59.57,83.52s49.77,39.12,46,97.7S79,255.82,79,255.82s22.43,13.83,43.55-9.78,25.58-49,21.65-87.67S80.6,88.85,59.57,83.52Z"/><path class="cls-6" d="M154.83,104.66s14.19,7,15.74,27.61-5.94,44.37-16,45.66,0-41-20.38-58.56"/></g></svg>