<svg xmlns="http://www.w3.org/2000/svg" viewBox="0 0 81.57 81.57"><defs><style>.cls-1{fill:#49a621;}.cls-2{fill:#fff;}</style></defs><title>Asset 19</title><g id="Layer_2" data-name="Layer 2"><g id="Layer_1-2" data-name="Layer 1"><circle class="cls-1" cx="40.78" cy="40.78" r="40.78"/><path class="cls-2" d="M39.4,15.08h-.49v10.6a1.32,1.32,0,0,1-2.63,0V16.37A1.29,1.29,0,0,0,35,15.08h-.92a1.29,1.29,0,0,0-1.29,1.29v9.31a1.31,1.31,0,0,1-2.62,0V15.08h-.67a2.3,2.3,0,0,0-2.3,2.37l.39,11.9a5.64,5.64,0,0,0,5,5.19L32.15,67a2.36,2.36,0,0,0,2.36,2.39h.38A2.36,2.36,0,0,0,37.25,67l-.46-32.53a5.7,5.7,0,0,0,4.53-5.14l.39-11.9A2.3,2.3,0,0,0,39.4,15.08Z"/><path class="cls-2" d="M50,69.08h-.66A2.1,2.1,0,0,1,47.28,67V16.91a1.17,1.17,0,0,1,1.17-1.17h.67C56.87,16.91,60.56,35,52.48,41.85l-.36.31V67A2.1,2.1,0,0,1,50,69.08Z"/></g></g></svg>