<?xml version="1.0" encoding="utf-8"?>
<!-- Generator: Adobe Illustrator 22.1.0, SVG Export Plug-In . SVG Version: 6.00 Build 0)  -->
<svg version="1.1" id="Layer_1" xmlns="http://www.w3.org/2000/svg" xmlns:xlink="http://www.w3.org/1999/xlink" x="0px" y="0px"
	 viewBox="0 0 145.9 55.9" style="enable-background:new 0 0 145.9 55.9;" xml:space="preserve">
<style type="text/css">
	.st0{fill:#FFFFFF;}
	.st1{fill:#5FD92B;}
	.st2{font-family:'Montserrat-SemiBold';}
	.st3{font-size:27px;}
</style>
<title>Asset 5</title>
<path class="st0" d="M142.1,11.6H51.5c-2.1,0-3.8-1.7-3.8-3.8l0,0C47.7,5.7,46,4,43.8,4c-0.6,0-1.3,0.2-1.8,0.5L2,26.6
	c-1.8,1-2.5,3.3-1.5,5.2c0.3,0.6,0.9,1.2,1.5,1.5l40,22.1c1.8,1,4.2,0.4,5.2-1.5c0.3-0.6,0.5-1.2,0.5-1.8l0,0c0-2.1,1.7-3.8,3.8-3.8
	c0,0,0,0,0,0h90.6c2.1,0,3.8-1.7,3.8-3.8V15.5C145.9,13.4,144.2,11.6,142.1,11.6z"/>
<path class="st1" d="M142.1,7.7H51.5c-2.1,0-3.8-1.7-3.8-3.8l0,0C47.7,1.7,46,0,43.8,0c-0.6,0-1.3,0.2-1.8,0.5L2,22.6
	c-1.8,1-2.5,3.3-1.5,5.2c0.3,0.6,0.9,1.2,1.5,1.5l40,22.1c1.8,1,4.2,0.4,5.2-1.5c0.3-0.6,0.5-1.2,0.5-1.8l0,0c0-2.1,1.7-3.8,3.8-3.8
	c0,0,0,0,0,0h90.6c2.1,0,3.8-1.7,3.8-3.8V11.5C145.9,9.4,144.2,7.6,142.1,7.7z"/>
<text transform="matrix(1 0 0 1 53.36 34.82)" class="st0 st2 st3">L</text>
<text transform="matrix(1 0 0 1 69.67 34.82)" class="st0 st2 st3">a</text>
<text transform="matrix(1 0 0 1 86.06 34.82)" class="st0 st2 st3">n</text>
<text transform="matrix(1 0 0 1 104.69 34.82)" class="st0 st2 st3">d</text>
</svg>
