<?xml version="1.0" encoding="utf-8"?>
<!-- Generator: Adobe Illustrator 22.1.0, SVG Export Plug-In . SVG Version: 6.00 Build 0)  -->
<svg version="1.1" id="Layer_1" xmlns="http://www.w3.org/2000/svg" xmlns:xlink="http://www.w3.org/1999/xlink" x="0px" y="0px"
	 viewBox="0 0 290.4 356.1" style="enable-background:new 0 0 290.4 356.1;" xml:space="preserve">
<style type="text/css">
	.st0{fill:#6D6E71;}
	.st1{fill:#808285;}
	.st2{fill:#808285;stroke:#6D6E71;stroke-width:1.22;stroke-miterlimit:10;}
	.st3{fill:#58595B;}
	.st4{fill:#231F20;}
	.st5{fill:#FFFFFF;}
	.st6{fill:none;stroke:#6D6E71;stroke-width:1.22;stroke-miterlimit:10;}
</style>
<title>Sea Amigos Animals</title>
<g id="Dugong">
	<path class="st0" d="M65.2,132c0,0,2.1,27.1-4.3,44.8s-0.4,34.9,13.8,35.5s24.5-3.3,24.8-9.8c0.3-6.6,2.3-51.1,1.9-51.7
		c-0.4-0.6-32.9-23.9-32.9-23.9L65.2,132z"/>
	<path class="st1" d="M90.6,166.3c0,0-43-41.7-48.4-64.8c0,0-18-8.6-11.4-43.1S64.7-2.1,94.4,0.1s33.5,9.4,33.5,9.4
		s64.8,5.1,103.5,41.3s43.2,123.5,25.5,167.6s-26.8,64.5-23.2,75.7c3.6,11.2,14.1,30.5,2.8,43.5s-31.9,18.5-49.9,18.5
		s-42.2-6.9-39.3-24.3s7.9-36.8,7.3-42.6C154.7,289.2,73.6,274.7,90.6,166.3z"/>
	<path class="st2" d="M157.5,106.6c0,0-1.6,27.7-7.1,46.6c-5.5,18.9-5.7,40.2,11.5,44.1c17.3,3.9,25.2,2.4,26.6-20.3
		s-7.3-47.1-4.6-63.4"/>
	<path class="st3" d="M73.4,101.1c0,0,7.9,3.6,19.8,2c8.6-1.1,18.7-2.9,19-19c0.3-16.1-18.9-34.9-39.7-32.6S36.4,69.4,38.3,85.2
		s8,17.7,13,19.3C56.3,106.1,70.6,105,73.4,101.1z"/>
	
		<ellipse transform="matrix(4.756251e-02 -0.9989 0.9989 4.756251e-02 -0.2049 124.8003)" class="st4" cx="65.3" cy="62.5" rx="1.6" ry="2.8"/>
	
		<ellipse transform="matrix(4.756251e-02 -0.9989 0.9989 4.756251e-02 12.1189 136.7668)" class="st4" cx="77.8" cy="62" rx="1.6" ry="2.8"/>
	
		<ellipse transform="matrix(4.756251e-02 -0.9989 0.9989 4.756251e-02 13.0574 96.5426)" class="st4" cx="57.2" cy="41.4" rx="8.6" ry="4.7"/>
	
		<ellipse transform="matrix(4.756251e-02 -0.9989 0.9989 4.756251e-02 13.6997 99.0541)" class="st5" cx="58.8" cy="42.3" rx="2.5" ry="1.6"/>
	
		<ellipse transform="matrix(4.756251e-02 -0.9989 0.9989 4.756251e-02 43.6346 131.8286)" class="st4" cx="90.9" cy="43" rx="8.6" ry="4.7"/>
	
		<ellipse transform="matrix(4.756251e-02 -0.9989 0.9989 4.756251e-02 44.286 134.3505)" class="st5" cx="92.6" cy="44" rx="2.5" ry="1.6"/>
	<path class="st6" d="M162.4,289.7c0,0,39.6,9.8,63.1-3.9"/>
	<path class="st2" d="M137.7,27.5c0,0-0.5-11-9.8-18"/>
</g>
</svg>
