<svg xmlns="http://www.w3.org/2000/svg" viewBox="0 0 241.64 351.24"><defs><style>.cls-1{fill:#6d6e71;}.cls-2,.cls-3{fill:#808285;}.cls-3,.cls-7{stroke:#6d6e71;stroke-miterlimit:10;stroke-width:1.22px;}.cls-4{fill:#58595b;}.cls-5{fill:#231f20;}.cls-6{fill:#fff;}.cls-7{fill:none;}</style></defs><title>Sea Amigos Animals</title><g id="Dugong"><path class="cls-1" d="M38.75,133.08s3.37,26.94-2.14,45S37.83,213,52.07,212.85s24.35-4.44,24.35-11-.15-51.14-.61-51.75-34-22.35-34-22.35Z"/><path class="cls-2" d="M65.75,166.2S20.84,126.59,14.3,103.73c0,0-18.37-7.76-13.47-42.47S31.86-.8,61.67,0,95.56,7.78,95.56,7.78s64.92,2,105.34,36.34,49,121.26,33.48,166.18S210.7,276,214.79,287.06s15.51,29.81,4.89,43.28-31,20-49,20.82-42.47-4.9-40.43-22.45,6.13-37.16,5.31-42.88C135.57,285.83,53.91,275.22,65.75,166.2Z"/><path class="cls-3" d="M129.7,103.37s-.3,27.72-4.9,46.85-3.82,40.43,13.63,43.49,25.27,1.22,25.57-21.59-9.49-46.7-7.65-63.08"/><path class="cls-4" d="M45.44,101.89s8.1,3.18,19.9,1.07c8.58-1.53,18.53-3.83,18.07-19.9s-20.52-34-41.19-30.63S7,72,9.61,87.65s8.88,17.3,13.93,18.68S42.84,105.87,45.44,101.89Z"/><ellipse class="cls-5" cx="35.56" cy="63.69" rx="2.83" ry="1.61"/><ellipse class="cls-5" cx="47.96" cy="62.62" rx="2.83" ry="1.61"/><ellipse class="cls-5" cx="26.38" cy="43.02" rx="4.67" ry="8.65"/><ellipse class="cls-6" cx="28.06" cy="43.86" rx="1.61" ry="2.45"/><ellipse class="cls-5" cx="60.21" cy="43.02" rx="4.67" ry="8.65"/><ellipse class="cls-6" cx="61.9" cy="43.86" rx="1.61" ry="2.45"/><path class="cls-7" d="M143.35,286s40.06,7.9,62.83-6.94"/><path class="cls-3" d="M106.17,25.33s-1-11-10.61-17.55"/></g></svg>