<?xml version="1.0" encoding="utf-8"?>
<!-- Generator: Adobe Illustrator 19.0.0, SVG Export Plug-In . SVG Version: 6.00 Build 0)  -->
<svg version="1.1" id="Layer_1" xmlns="http://www.w3.org/2000/svg" xmlns:xlink="http://www.w3.org/1999/xlink" x="0px" y="0px"
	 viewBox="53 -8.6 145.9 56.6" style="enable-background:new 53 -8.6 145.9 56.6;" xml:space="preserve">
<style type="text/css">
	.st0{fill:#FFFFFF;}
	.st1{fill:#5FD92B;}
	.st2{enable-background:new    ;}
</style>
<title>Asset 7</title>
<path class="st0" d="M56.8,40.3h90.6c2.1,0,3.8,1.7,3.8,3.8l0,0c0,2.1,1.7,3.8,3.8,3.8c0.6,0,1.3-0.2,1.9-0.5l40-22.1
	c1.8-1,2.5-3.3,1.5-5.2c-0.3-0.6-0.9-1.2-1.5-1.5l-40-22.1c-1.8-1-4.2-0.4-5.2,1.5c-0.3,0.6-0.5,1.2-0.5,1.9l0,0
	c0,2.1-1.7,3.8-3.8,3.8H56.8c-2.1,0-3.8,1.7-3.8,3.8v28.9C53,38.6,54.7,40.3,56.8,40.3L56.8,40.3z"/>
<path class="st1" d="M56.8,35.6h90.6c2.1,0,3.8,1.7,3.8,3.8l0,0c0,2.1,1.7,3.8,3.8,3.8c0.6,0,1.3-0.2,1.8-0.5l40-22.1
	c1.8-1,2.5-3.3,1.5-5.2c-0.3-0.6-0.9-1.2-1.5-1.5l-40-22.1c-1.8-1-4.2-0.4-5.2,1.5c-0.3,0.6-0.5,1.2-0.5,1.9l0,0
	c0,2.1-1.7,3.8-3.8,3.8H56.8C54.7-0.9,53,0.8,53,2.9v28.9C53,33.9,54.7,35.6,56.8,35.6L56.8,35.6z"/>
<g class="st2">
	<path class="st0" d="M70.7,16.6c0-5.6,4.3-9.7,10.2-9.7S91,11,91,16.6c0,5.6-4.3,9.7-10.2,9.7S70.7,22.2,70.7,16.6z M87.5,16.6
		c0-3.9-2.8-6.6-6.6-6.6c-3.8,0-6.6,2.8-6.6,6.6c0,3.9,2.8,6.6,6.6,6.6C84.7,23.2,87.5,20.5,87.5,16.6z"/>
</g>
<g class="st2">
	<path class="st0" d="M93.3,18.8c0-4.3,3.2-7.4,7.8-7.4c2.8,0,5,1.2,6.2,3.3l-2.6,1.5c-0.9-1.4-2.2-2-3.6-2c-2.5,0-4.4,1.7-4.4,4.5
		c0,2.8,1.9,4.5,4.4,4.5c1.4,0,2.7-0.6,3.6-2l2.6,1.5c-1.1,2.2-3.3,3.4-6.2,3.4C96.5,26.2,93.3,23.2,93.3,18.8z"/>
</g>
<g class="st2">
	<path class="st0" d="M123.4,19.9h-11.3c0.4,2.1,2.2,3.5,4.7,3.5c1.6,0,2.9-0.5,3.9-1.6l1.8,2.1c-1.3,1.5-3.3,2.3-5.8,2.3
		c-4.8,0-8-3.1-8-7.4c0-4.3,3.2-7.4,7.4-7.4c4.2,0,7.3,2.9,7.3,7.5C123.5,19.2,123.5,19.6,123.4,19.9z M112.1,17.7h8.2
		c-0.3-2.1-1.9-3.5-4.1-3.5C114,14.2,112.4,15.6,112.1,17.7z"/>
</g>
<g class="st2">
	<path class="st0" d="M138.4,17.6v8.4h-3.2v-1.8c-0.8,1.2-2.4,1.9-4.5,1.9c-3.3,0-5.4-1.8-5.4-4.3c0-2.4,1.6-4.3,6-4.3h3.7v-0.2
		c0-2-1.2-3.1-3.6-3.1c-1.6,0-3.3,0.5-4.4,1.4l-1.3-2.5c1.5-1.2,3.8-1.8,6.1-1.8C136,11.5,138.4,13.4,138.4,17.6z M135,21.5v-1.7
		h-3.5c-2.3,0-2.9,0.9-2.9,1.9c0,1.2,1,2,2.8,2C133,23.8,134.4,23,135,21.5z"/>
	<path class="st0" d="M156.9,17.8v8.3h-3.4v-7.8c0-2.6-1.3-3.8-3.4-3.8c-2.4,0-4,1.5-4,4.3v7.3h-3.4V11.6h3.2v1.9c1.1-1.3,2.9-2,5-2
		C154.3,11.5,156.9,13.4,156.9,17.8z"/>
</g>
</svg>
