<?xml version="1.0" encoding="utf-8"?>
<!-- Generator: Adobe Illustrator 19.0.0, SVG Export Plug-In . SVG Version: 6.00 Build 0)  -->
<svg version="1.1" id="Layer_1" xmlns="http://www.w3.org/2000/svg" xmlns:xlink="http://www.w3.org/1999/xlink" x="0px" y="0px"
	 viewBox="-319 -40 320 640" style="enable-background:new -319 -40 320 640;" xml:space="preserve">
<style type="text/css">
	.st0{fill:url(#SVGID_1_);}
	.st1{fill:none;stroke:#27AAE1;stroke-miterlimit:10;}
	.st2{fill:#27AAE1;}
	.st3{fill:#085083;}
	.st4{fill:#1B75BC;}
	.st5{fill:#231F20;}
	.st6{fill:#FFFFFF;}
</style>
<title>Asset 47</title>
<radialGradient id="SVGID_1_" cx="-159" cy="280" r="252.9822" gradientTransform="matrix(1 0 0 -1 0 560)" gradientUnits="userSpaceOnUse">
	<stop  offset="0" style="stop-color:#59AFC5"/>
	<stop  offset="0.23" style="stop-color:#4AA8C0"/>
	<stop  offset="0.66" style="stop-color:#2396B2"/>
	<stop  offset="1" style="stop-color:#0085A6"/>
</radialGradient>
<rect x="-319" y="-40" class="st0" width="320" height="640"/>
<g>
	<g id="Crab">
		<path class="st1" d="M-159,135.5c0,0,0.6-41.1,5.3-47.6"/>
		<path class="st2" d="M-160.7,140.2c0,0,0.4-2.2,1.3-6s2.2-9.3,4-15.7s4-14,6.7-21.9c2.8-8.3,6.2-16.4,10.3-24.2
			c2.1-4,4.6-7.7,7.6-11.1c1.5-1.7,3.1-3.1,5-4.3c1.9-1.2,4.1-1.8,6.3-1.8h1.6l1.6,0.2c0.5,0.1,1,0.2,1.6,0.4c0.5,0.1,1,0.3,1.5,0.5
			c1.9,0.8,3.5,2.1,4.7,3.8c2,3.1,3.2,6.6,3.5,10.2c0.3,3,0.3,6.1,0.1,9.1c-0.2,2.7-0.5,5.1-0.9,7c-0.7,3.9-1.3,6-1.3,6
			s0.6-2.2,1.1-6c0.3-1.9,0.6-4.3,0.7-7c0.2-3,0.1-6.1-0.3-9.1c-0.4-3.3-1.3-6.9-3.6-9.9c-1.2-1.5-2.7-2.7-4.5-3.4
			c-0.4-0.2-0.9-0.3-1.4-0.5c-0.5-0.1-1-0.2-1.4-0.3l-1.5-0.1h-1.6c-2,0.1-4,0.7-5.7,1.8c-1.8,1.2-3.4,2.6-4.7,4.3
			c-2.8,3.4-5.2,7.1-7.1,11c-3.9,7.8-7.1,15.8-9.7,24.1c-2.6,7.9-4.6,15.4-6.2,21.9s-2.8,11.9-3.6,15.7s-1.2,6-1.2,6L-160.7,140.2z"
			/>
		<path class="st3" d="M-149.8,83.5c-0.4-0.4-1.8,0.5-3,1.9c-0.4,0.5-0.8,1.1-1,1.8c0.1-0.7,0.1-1.4,0-2.1c-0.4-1.8-1.1-3.3-1.7-3.1
			s-0.7,1.7-0.3,3.6c0.3,1.2,0.8,2.3,1.7,3.1l0,0c1.2-0.4,2.2-1,3-1.9C-150,85.3-149.3,83.9-149.8,83.5z"/>
		<path class="st1" d="M-161.5,135.5c0,0-0.6-41.1-5.3-47.6"/>
		<path class="st2" d="M-163.5,140.8c0,0-0.4-2.2-1.2-6s-2-9.2-3.7-15.7s-3.7-14-6.3-21.9c-2.6-8.3-5.9-16.3-9.8-24.1
			c-2-3.9-4.4-7.6-7.2-10.9c-1.4-1.6-3-3-4.7-4.1c-1.7-1.1-3.7-1.7-5.7-1.8c-0.5,0-1,0-1.5,0l-1.5,0.1c-0.5,0.1-1,0.2-1.5,0.3
			c-0.5,0.1-0.9,0.3-1.4,0.5c-1.8,0.7-3.3,1.9-4.4,3.4c-2,2.9-3.2,6.3-3.5,9.9c-0.3,3-0.4,6-0.2,9.1c0.2,2.7,0.5,5.1,0.8,7
			c0.6,3.9,1.2,6,1.2,6s-0.6-2.1-1.3-6c-0.3-1.9-0.7-4.3-0.9-7c-0.3-3-0.3-6.1,0-9.1c0.2-3.7,1.4-7.2,3.5-10.2
			c1.2-1.7,2.8-3,4.7-3.8c0.5-0.2,1-0.4,1.5-0.5c0.5-0.1,1-0.3,1.5-0.4l1.6-0.2c0.5,0,1,0,1.6,0c2.2,0,4.4,0.6,6.3,1.8
			c1.9,1.2,3.6,2.6,5.1,4.3c3,3.4,5.5,7.1,7.6,11c4.1,7.8,7.6,15.8,10.4,24.2c2.8,7.9,5,15.4,6.8,21.9s3.1,11.9,4,15.7s1.4,6,1.4,6
			L-163.5,140.8z"/>
		<path class="st3" d="M-170.7,83.5c0.4-0.4,1.8,0.5,3,1.9c0.4,0.5,0.8,1.1,1,1.8c-0.1-0.7-0.1-1.4,0-2.1c0.4-1.8,1.1-3.3,1.7-3.1
			s0.7,1.7,0.3,3.6c-0.3,1.2-0.8,2.3-1.7,3.1l0,0c-1.2-0.4-2.2-1-3-1.9C-170.5,85.3-171.1,83.9-170.7,83.5z"/>
		<path class="st4" d="M-72.6,269.8c-2.1-1.3-4.5-2.1-7-2.4c-0.6-0.5-1.2-0.9-1.9-1.3c2.4-7.6,0.1-21,0.1-21
			c-0.1,0.3-0.2,0.6-0.5,0.8c-2-8.9-11.8-17.8-16-21.3c-0.5-3.5-4.4-7.6-10.1-10.1c-7.1-3.2-14.2-2.7-15.9,1.1s2.7,9.4,9.8,12.6
			c2.6,1.2,5.5,1.9,8.4,2.1c2.1,9.9,10.5,14.3,14.3,16.4l-0.6-0.1c0,0,2.6,16.1,4,20.8h-0.6l-0.8,0.1c-0.2,0-0.3,0.2-0.2,0.3
			c0,0,0,0,0,0c0,0.1,0.1,0.2,0.2,0.2l5.1,2.7c0.6,0.3,1.2,0.4,1.8,0.4l9.8-0.8c0.2,0,0.3-0.2,0.3-0.4c0,0,0,0,0,0
			C-72.6,269.9-72.6,269.9-72.6,269.8z"/>
		<path class="st4" d="M-98.2,268.4c-3.6-1.6-7.8-1.6-11.2-1.1c1.5-1.8,2.6-3.9,3.1-6.2c1-3.9,0.6-7.5-0.8-9.4
			c1.1-1.9,1.7-4,1.6-6.2c0-5.1-2.7-9.2-6.1-9.2s-6.1,4.1-6.1,9.2c0,3.7,1.5,6.9,3.6,8.3c-0.9,1.5-1.6,3.2-2,4.9
			c-1.1,4.3-0.5,8.2,1.2,9.9l-0.2,0.1c-0.2,0.1-0.2,0.2-0.2,0.4c0,0.1,0.1,0.2,0.2,0.2l5.4,2c0.6,0.2,1.3,0.3,1.9,0.1l9.6-2.1
			c0.2,0,0.4-0.1,0.4-0.3S-98,268.4-98.2,268.4L-98.2,268.4z"/>
		<path class="st4" d="M-42.5,267.9c-4.4-2-9.8-1.8-13.9-1.1c1-11.6-10.4-47.8-10.4-47.8l-2.1,1.6c0.3-3.7-1.9-9.2-6-14.3
			c-4.9-6-11-9.4-14.8-8.6l0.1-1.5c0,0-0.7-1.9-15.9-1.1c-9.1,0.5-17.7,4-24.5,10l3.4,10.6c15.1,4.2,29.8-4.9,34.4-8.2
			c1.2,3.1,2.9,6.1,5.1,8.6c4,4.9,8.7,8,12.4,8.6l-1.3,1c-0.9,18.7,11.8,37.8,14.7,42l-0.9,0.3c-0.2,0.1-0.3,0.3-0.2,0.4
			c0,0,0,0,0,0c0,0.1,0.1,0.2,0.2,0.2l6.2,2.3c0.7,0.2,1.5,0.3,2.2,0.1l11.2-2.5c0.2-0.1,0.3-0.3,0.2-0.5
			C-42.4,268-42.5,268-42.5,267.9z"/>
		<path class="st4" d="M-247.1,269.8c2.1-1.3,4.5-2.1,7-2.4c0.6-0.5,1.2-1,1.9-1.4c-2.4-7.6-0.1-21-0.1-21c0.1,0.3,0.2,0.6,0.5,0.8
			c2-8.9,11.8-17.8,16-21.3c0.5-3.5,4.4-7.6,10.1-10.1c7.1-3.2,14.2-2.7,15.9,1.1s-2.7,9.4-9.8,12.6c-2.6,1.2-5.5,1.9-8.4,2.1
			c-2.1,9.9-10.5,14.3-14.3,16.4l0.6-0.1c0,0-2.6,16.1-4,20.8h0.6l0.8,0.1c0.2,0,0.3,0.2,0.2,0.3c0,0,0,0,0,0c0,0.1-0.1,0.2-0.2,0.2
			l-5.1,2.7c-0.6,0.3-1.2,0.4-1.8,0.4l-9.8-0.8c-0.2-0.1-0.3-0.3-0.2-0.5C-247.2,269.9-247.1,269.9-247.1,269.8z"/>
		<path class="st4" d="M-220.5,268.4c3.6-1.6,7.8-1.6,11.2-1.1c-1.5-1.8-2.6-3.9-3.1-6.2c-1-3.9-0.6-7.5,0.8-9.4
			c-1.1-1.9-1.7-4-1.6-6.2c0-5.1,2.7-9.2,6.1-9.2c3.4,0,6.1,4.1,6.1,9.2c0,3.7-1.5,6.9-3.5,8.3c0.9,1.5,1.6,3.2,2,4.9
			c1.1,4.3,0.5,8.2-1.2,9.9l0.2,0.1c0.2,0.1,0.2,0.2,0.2,0.4c0,0.1-0.1,0.2-0.2,0.2l-5.3,2c-0.6,0.2-1.3,0.3-1.9,0.1l-9.6-2.1
			c-0.2,0-0.4-0.1-0.4-0.3S-220.7,268.4-220.5,268.4L-220.5,268.4z"/>
		<path class="st4" d="M-277.5,267.9c4.4-2,9.8-1.8,14-1.1c-1-11.6,10.4-47.8,10.4-47.8l2.1,1.6c-0.3-3.7,1.9-9.2,6-14.3
			c4.9-6,11-9.4,14.8-8.6l-0.1-1.5c0,0,0.7-1.9,15.9-1.1c9.1,0.5,17.7,4,24.5,10l-3.4,10.6c-15.1,4.2-29.8-4.9-34.4-8.2
			c-1.2,3.1-2.9,6.1-5,8.6c-4,4.9-8.7,8-12.4,8.6l1.3,1c0.9,18.7-11.8,37.8-14.7,42l0.9,0.3c0.2,0.1,0.3,0.3,0.2,0.4c0,0,0,0,0,0
			c0,0.1-0.1,0.2-0.2,0.2l-6.2,2.3c-0.7,0.2-1.5,0.3-2.2,0.1l-11.3-2.5c-0.2,0-0.4-0.3-0.3-0.5C-277.7,268.1-277.7,268-277.5,267.9z
			"/>
		<path class="st4" d="M-193.6,186.4c-0.4-3.1-7.5-16.4-14.3-19.4c-2.5,0-5,0.7-7.2,2c-0.6-1.2-1.3-2.2-2.2-3.1
			c-3.1-3.1-7.3-4-9.3-1.9s-1.2,6.2,1.9,9.3c1.1,1.1,2.4,2,3.8,2.5c-0.5,1.1-0.9,2.2-1.3,3.3c0,0,5.1,15.2,25.8,18
			C-196.4,197.1-193.3,189.5-193.6,186.4z"/>
		<path class="st4" d="M-77.1,148.6c-3.4-4.6-11.9-4.1-18.9,1.3c-2.5,1.9-4.6,4.3-6.1,7c-1.3-0.5-2.6-0.8-4-1
			c-10.3,3-23.2,20.8-24.3,25.2s1.8,16.3,1.8,16.3c30.2,0,40.5-21.1,40.5-21.1c-0.3-2.1-0.8-4.2-1.6-6.3c2.2-0.8,4.3-1.9,6.1-3.4
			C-76.6,161.3-73.7,153.2-77.1,148.6z"/>
		<path class="st3" d="M-131.1,248.3c0,8.7-13.4,17.8-30,17.8s-30-9.1-30-17.8s13.4-15.7,30-15.7S-131.1,239.6-131.1,248.3z"/>
		<path class="st3" d="M-108.6,215.2l-32.5-58c-3-5.5-8.3-9.4-14.5-10.7c-1-6.6-2.9-15.1-6-12.9c-2.8,2-4.2,8.1-4.8,13.2
			c-5.6,1.6-10.4,5.3-13.2,10.4l-32.5,58c-6,10.6-2.3,24,8.3,30c3.3,1.9,7.1,2.9,10.9,2.9h65c12.2,0,22-9.9,22-22.1
			C-105.8,222.2-106.7,218.5-108.6,215.2L-108.6,215.2z"/>
		<ellipse class="st5" cx="-175.4" cy="151" rx="4.3" ry="11"/>
		<ellipse class="st5" cx="-145.9" cy="151" rx="4.3" ry="11"/>
		<path class="st3" d="M-45.3,70c-3.4,39.8-23.8,47.5-29.3,48.8c-0.8,0.2-1.7-0.2-2.1-0.9C-79.6,113.2-89,95.7-87.1,80
			c0.1-1.1-0.7-2.1-1.8-2.1c-0.4,0-0.8,0.1-1.2,0.3c-11.8,8-14.1,22.4-13,44.3c1.5,28.7,30.3,30.6,38.2,29.8
			c20.3-1.9,34.5-26.8,31.7-55.5c-0.9-9.7-3.8-19.1-8.5-27.6c-0.6-0.9-1.9-1.1-2.8-0.5C-45,68.9-45.3,69.4-45.3,70L-45.3,70z"/>
		<path class="st3" d="M-242.5,138.8c11,9.3,8.7,17.6,7.9,19.7c-0.1,0.3-0.4,0.5-0.7,0.5c-2,0-9.2-0.5-13.4-4.4
			c-0.3-0.3-0.8-0.2-1.1,0.1c-0.1,0.1-0.2,0.3-0.2,0.5c-0.2,5.5,3.5,9.2,10.2,13.4c8.8,5.4,15.6-3.7,17.2-6.5
			c3.9-7.1-0.3-16.8-9.4-21.8c-3.1-1.7-6.5-2.7-10-2.9c-0.4,0-0.8,0.4-0.8,0.8C-242.7,138.4-242.6,138.6-242.5,138.8z"/>
		<path class="st2" d="M-159.8,159.1l-0.4,3.7c-0.3,2.3-0.6,5.6-1,9.6s-0.9,8.6-1.2,13.6c-0.2,2.5-0.4,5.1-0.5,7.7s-0.3,5.3-0.4,7.9
			s-0.2,5.3-0.2,8s0,5.2,0.1,7.7c0.2,5,0.5,9.6,1,13.6c0.1,1,0.3,1.9,0.4,2.8s0.3,1.8,0.4,2.5c0.3,1.6,0.6,3,0.9,4.1s0.6,2,0.7,2.6
			l0.3,0.9l-0.4-0.9c-0.2-0.6-0.6-1.4-1-2.5s-0.8-2.5-1.2-4.1c-0.2-0.8-0.4-1.6-0.6-2.5s-0.4-1.8-0.6-2.8c-0.4-2-0.7-4.1-1-6.4
			c-0.3-2.3-0.5-4.7-0.6-7.3c-0.1-1.3-0.1-2.5-0.2-3.8s-0.1-2.6-0.1-3.9c0-2.6,0-5.3,0.1-8s0.3-5.4,0.4-8s0.4-5.2,0.7-7.7
			s0.6-4.9,0.9-7.2s0.6-4.4,1-6.4c0.6-4,1.3-7.3,1.8-9.6S-159.8,159.1-159.8,159.1z"/>
		<ellipse class="st6" cx="-173.4" cy="148.7" rx="1" ry="2.6"/>
		<ellipse class="st6" cx="-143.6" cy="148.7" rx="1" ry="2.6"/>
	</g>
	<path class="st4" d="M-170.1,135.2c0.7,2.5-3.3,14.3-14.9,9.8L-170.1,135.2z"/>
	<path class="st4" d="M-150,135.1c-0.7,2.4,3.3,14.3,14.9,9.8L-150,135.1z"/>
</g>
<g>
	<g>
		<path class="st6" d="M-215.8,329.6l-1.9-4.6h-11l-1.9,4.6h-5.5l10.3-23.8h5.5l10.2,23.8H-215.8z M-227,320.7h7.5l-3.7-9.2
			L-227,320.7z"/>
		<path class="st6" d="M-207.6,305.8h5.4v19.1h10.2v4.7h-15.6V305.8z"/>
		<path class="st6" d="M-188.9,305.8h6l7.4,14.6l7.3-14.6h6v23.8h-4.8v-16.1l-6.8,13.7h-3.5l-6.7-13.7v16.1h-4.8v-23.8H-188.9z"/>
		<path class="st6" d="M-139.3,307.1c1.9,1.1,3.5,2.5,4.6,4.4s1.7,3.9,1.7,6.2c0,2.3-0.6,4.4-1.7,6.3s-2.7,3.4-4.6,4.4
			c-2,1.1-4.1,1.6-6.5,1.6s-4.5-0.5-6.5-1.6c-1.9-1.1-3.5-2.5-4.6-4.4s-1.7-4-1.7-6.3c0-2.3,0.6-4.4,1.7-6.2
			c1.1-1.9,2.7-3.3,4.6-4.4s4.1-1.6,6.5-1.6S-141.3,306-139.3,307.1z M-149.4,311.2c-1.1,0.7-2,1.6-2.7,2.7c-0.7,1.2-1,2.4-1,3.8
			c0,1.4,0.3,2.7,1,3.8s1.6,2.1,2.7,2.8c1.1,0.7,2.3,1,3.7,1s2.5-0.3,3.6-1c1.1-0.7,2-1.6,2.6-2.8s1-2.5,1-3.9s-0.3-2.7-1-3.8
			c-0.7-1.1-1.5-2.1-2.6-2.7c-1.1-0.7-2.3-1-3.6-1S-148.3,310.5-149.4,311.2z"/>
		<path class="st6" d="M-117.7,310.7c-1.4-0.4-2.5-0.7-3.5-0.7c-0.9,0-1.7,0.2-2.2,0.5s-0.8,0.8-0.8,1.5c0,0.8,0.4,1.5,1.2,1.9
			c0.8,0.4,2,0.9,3.6,1.4s3,1,4,1.4c1.1,0.5,2,1.2,2.7,2.1c0.7,0.9,1.1,2.2,1.1,3.8c0,1.5-0.4,2.8-1.2,3.9s-1.9,1.9-3.3,2.5
			s-3,0.8-4.8,0.8c-1.9,0-3.8-0.3-5.7-1c-1.9-0.7-3.5-1.6-4.8-2.8l2.1-4.4c1.2,1.1,2.6,2,4.1,2.6c1.5,0.6,3,1,4.3,1
			c1.1,0,2-0.2,2.6-0.6s0.9-1,0.9-1.8c0-0.6-0.2-1.1-0.6-1.5c-0.4-0.4-1-0.7-1.6-1c-0.6-0.2-1.5-0.5-2.7-0.8c-1.6-0.5-3-0.9-4-1.4
			s-1.9-1.1-2.7-2.1s-1-2-1-3.5c0-1.4,0.4-2.7,1.2-3.8c0.8-1.1,1.8-1.9,3.2-2.5c1.4-0.6,3-0.9,4.8-0.9c1.6,0,3.2,0.2,4.8,0.7
			c1.6,0.5,3,1.1,4.2,1.9l-2.1,4.5C-115,311.7-116.3,311.1-117.7,310.7z"/>
		<path class="st6" d="M-110.2,305.8h19.9v4.6h-7.3v19.2h-5.4v-19.2h-7.2V305.8z"/>
		<path class="st6" d="M-83.8,325.3c0.5,0.5,0.7,1.1,0.7,1.9c0,0.8-0.2,1.4-0.7,2c-0.5,0.5-1.1,0.8-1.9,0.8c-0.7,0-1.4-0.3-1.9-0.8
			s-0.7-1.2-0.7-1.9c0-0.8,0.3-1.4,0.7-1.9c0.5-0.5,1.1-0.7,1.9-0.7C-84.9,324.5-84.3,324.8-83.8,325.3z M-88.1,306h5v6l-0.9,9.6
			h-3.2l-0.9-9.6V306z"/>
	</g>
	<g>
		<path class="st6" d="M-275.6,346.4h2.7V359h-2.6l-6.1-8.1v8.1h-2.7v-12.6h2.6l6.1,8.1V346.4z"/>
		<path class="st6" d="M-267.7,345.5c0.3,0.3,0.4,0.7,0.4,1.1c0,0.5-0.1,0.8-0.4,1.1c-0.3,0.3-0.6,0.4-1.1,0.4
			c-0.4,0-0.8-0.1-1.1-0.4c-0.3-0.3-0.4-0.7-0.4-1.1c0-0.5,0.1-0.8,0.4-1.1c0.3-0.3,0.6-0.4,1.1-0.4
			C-268.4,345-268,345.2-267.7,345.5z M-270.2,349.3h2.8v9.7h-2.8V349.3z"/>
		<path class="st6" d="M-260.4,351.6c-0.7,0-1.3,0.2-1.7,0.7c-0.4,0.5-0.7,1.1-0.7,1.9c0,0.8,0.2,1.4,0.6,1.9s1,0.7,1.7,0.7
			c1,0,1.8-0.4,2.3-1.1l1.9,1.3c-0.4,0.7-1,1.2-1.7,1.6c-0.7,0.4-1.6,0.6-2.6,0.6s-1.8-0.2-2.6-0.6c-0.8-0.4-1.3-1-1.7-1.7
			c-0.4-0.7-0.6-1.6-0.6-2.6s0.2-1.9,0.6-2.6c0.4-0.7,1-1.3,1.7-1.7c0.7-0.4,1.6-0.6,2.6-0.6c0.9,0,1.7,0.2,2.5,0.5
			c0.7,0.4,1.3,0.9,1.7,1.5l-1.9,1.4C-258.8,351.9-259.6,351.6-260.4,351.6z"/>
		<path class="st6" d="M-247.2,350.6c0.8,0.9,1.2,2.2,1.2,3.8c0,0.3,0,0.5,0,0.7h-7c0.2,0.6,0.5,1.1,0.9,1.4s1,0.5,1.6,0.5
			c0.5,0,0.9-0.1,1.3-0.3c0.4-0.2,0.8-0.4,1.1-0.8l1.5,1.5c-0.5,0.6-1.1,1-1.8,1.3c-0.7,0.3-1.5,0.4-2.3,0.4c-1,0-1.9-0.2-2.7-0.6
			s-1.4-1-1.8-1.7c-0.4-0.7-0.6-1.6-0.6-2.6s0.2-1.9,0.6-2.6s1-1.3,1.8-1.7c0.8-0.4,1.6-0.6,2.6-0.6
			C-249.2,349.2-248,349.7-247.2,350.6z M-248.6,353.4c0-0.6-0.2-1.1-0.6-1.5c-0.4-0.4-0.9-0.6-1.5-0.6s-1.1,0.2-1.5,0.6
			s-0.7,0.9-0.8,1.5H-248.6z"/>
		<path class="st6" d="M-234,358.5c-0.4,0.2-0.8,0.4-1.2,0.5s-0.9,0.2-1.3,0.2c-0.9,0-1.6-0.3-2.2-0.8c-0.6-0.5-0.8-1.3-0.8-2.2
			v-4.5h-1.4v-1.9h1.4v-2.7h2.8v2.7h2.6v1.9h-2.6v4c0,0.7,0.3,1.1,0.9,1.1c0.4,0,0.9-0.1,1.4-0.4L-234,358.5z"/>
		<path class="st6" d="M-228.2,349.7c0.5-0.3,1.2-0.5,1.9-0.5v2.6c-0.1,0-0.2,0-0.4,0c-0.9,0-1.5,0.2-2,0.7s-0.7,1.1-0.7,1.8v4.7
			h-2.8v-9.7h2.8v1.7C-229.2,350.5-228.7,350-228.2,349.7z"/>
		<path class="st6" d="M-223.2,362.6c-0.5,0-1-0.1-1.4-0.2s-0.8-0.4-1.2-0.7l1.2-2c0.4,0.3,0.8,0.5,1.3,0.5c0.6,0,1-0.3,1.3-0.9
			l0.3-0.5l-4-9.5h2.9l2.5,6.7l2.3-6.7h2.8l-4.2,10.8C-220.3,361.8-221.5,362.6-223.2,362.6z"/>
		<path class="st6" d="M-212.8,356.7c0.3,0.3,0.4,0.6,0.4,1c0,0.4-0.1,0.8-0.4,1c-0.3,0.3-0.6,0.4-1,0.4s-0.7-0.1-1-0.4
			c-0.3-0.3-0.4-0.6-0.4-1c0-0.4,0.1-0.8,0.4-1c0.3-0.3,0.6-0.4,1-0.4C-213.4,356.3-213.1,356.5-212.8,356.7z"/>
		<path class="st6" d="M-206.1,346.4h3.2l3.9,7.7l3.9-7.7h3.1V359h-2.6v-8.5l-3.6,7.2h-1.8l-3.6-7.2v8.5h-2.6v-12.6H-206.1z"/>
		<path class="st6" d="M-183.6,359v-1.1c-0.3,0.4-0.7,0.7-1.3,0.9c-0.5,0.2-1.1,0.3-1.8,0.3c-1,0-1.8-0.3-2.4-0.8
			c-0.6-0.6-0.9-1.3-0.9-2.2s0.3-1.6,1-2.1c0.6-0.5,1.6-0.8,2.7-0.8h2.7V353c0-0.5-0.2-0.9-0.5-1.2c-0.3-0.3-0.8-0.4-1.5-0.4
			c-0.9,0-1.9,0.3-2.9,0.8l-0.9-1.9c0.8-0.4,1.5-0.7,2.2-0.8c0.7-0.2,1.4-0.3,2.2-0.3c1.3,0,2.3,0.3,3,0.9s1.1,1.5,1.1,2.6v6.3
			H-183.6z M-184.4,356.8c0.4-0.3,0.7-0.6,0.8-1v-0.9h-2.2c-0.5,0-0.9,0.1-1.2,0.3c-0.3,0.2-0.4,0.5-0.4,0.8c0,0.4,0.1,0.7,0.4,0.9
			c0.3,0.2,0.6,0.3,1.1,0.3C-185.3,357.2-184.8,357-184.4,356.8z"/>
		<path class="st6" d="M-172,359l-2.3-3.9l-1.2,1.3v2.6h-2.8v-13.3h2.8v7.3l3.5-3.7h3.1l-3.5,3.7l3.7,5.9h-3.3V359z"/>
		<path class="st6" d="M-160.1,350.6c0.8,0.9,1.2,2.2,1.2,3.8c0,0.3,0,0.5,0,0.7h-6.9c0.2,0.6,0.5,1.1,0.9,1.4s1,0.5,1.6,0.5
			c0.5,0,0.9-0.1,1.3-0.3c0.4-0.2,0.8-0.4,1.1-0.8l1.5,1.5c-0.5,0.6-1.1,1-1.8,1.3c-0.7,0.3-1.5,0.4-2.3,0.4c-1,0-1.9-0.2-2.7-0.6
			c-0.8-0.4-1.4-1-1.8-1.7c-0.4-0.7-0.6-1.6-0.6-2.6s0.2-1.9,0.6-2.6s1-1.3,1.8-1.7c0.8-0.4,1.6-0.6,2.6-0.6
			C-162.1,349.2-160.9,349.7-160.1,350.6z M-161.5,353.4c0-0.6-0.2-1.1-0.6-1.5s-0.9-0.6-1.5-0.6s-1.1,0.2-1.5,0.6s-0.7,0.9-0.8,1.5
			H-161.5z"/>
		<path class="st6" d="M-148.3,351.5c-0.5-0.2-1-0.2-1.4-0.2c-0.3,0-0.6,0.1-0.8,0.2s-0.3,0.3-0.3,0.5c0,0.3,0.1,0.5,0.4,0.6
			s0.7,0.3,1.3,0.5c0.7,0.2,1.2,0.4,1.7,0.6c0.4,0.2,0.8,0.5,1.2,0.9c0.3,0.4,0.5,0.9,0.5,1.5c0,1-0.4,1.7-1.1,2.2s-1.7,0.8-2.8,0.8
			c-0.8,0-1.6-0.1-2.3-0.4c-0.7-0.2-1.4-0.6-1.9-1l0.9-1.9c0.5,0.4,1,0.7,1.6,0.9c0.6,0.2,1.2,0.3,1.7,0.3c0.4,0,0.7-0.1,0.9-0.2
			c0.2-0.1,0.3-0.3,0.3-0.6c0-0.3-0.1-0.5-0.4-0.6c-0.3-0.2-0.7-0.3-1.4-0.5c-0.7-0.2-1.2-0.4-1.6-0.6c-0.4-0.2-0.8-0.5-1.1-0.9
			c-0.3-0.4-0.5-0.9-0.5-1.5c0-1,0.4-1.7,1.1-2.2s1.6-0.8,2.7-0.8c0.7,0,1.3,0.1,2,0.3c0.7,0.2,1.3,0.5,1.8,0.8l-1,1.9
			C-147.3,351.9-147.8,351.7-148.3,351.5z"/>
		<path class="st6" d="M-134.7,349.3v9.7h-2.8v-1.7c-0.7,1.2-1.7,1.8-3.2,1.8c-1.1,0-1.9-0.3-2.5-1s-0.9-1.6-0.9-2.7v-6.1h2.8v5.3
			c0,0.6,0.2,1.1,0.5,1.4c0.3,0.3,0.8,0.5,1.3,0.5c0.7,0,1.2-0.2,1.6-0.7s0.6-1,0.6-1.8v-4.8L-134.7,349.3L-134.7,349.3z"/>
		<path class="st6" d="M-127.9,349.7c0.5-0.3,1.2-0.5,1.9-0.5v2.6c-0.1,0-0.2,0-0.4,0c-0.9,0-1.5,0.2-2,0.7s-0.7,1.1-0.7,1.8v4.7
			h-2.9v-9.7h2.8v1.7C-128.9,350.5-128.5,350-127.9,349.7z"/>
		<path class="st6" d="M-116.8,350.6c0.8,0.9,1.2,2.2,1.2,3.8c0,0.3,0,0.5,0,0.7h-6.9c0.2,0.6,0.5,1.1,0.9,1.4s1,0.5,1.6,0.5
			c0.5,0,0.9-0.1,1.3-0.3c0.4-0.2,0.8-0.4,1.1-0.8l1.5,1.5c-0.5,0.6-1.1,1-1.8,1.3c-0.7,0.3-1.5,0.4-2.3,0.4c-1,0-1.9-0.2-2.7-0.6
			c-0.8-0.4-1.4-1-1.8-1.7c-0.4-0.7-0.6-1.6-0.6-2.6s0.2-1.9,0.6-2.6s1-1.3,1.8-1.7c0.8-0.4,1.6-0.6,2.6-0.6
			C-118.8,349.2-117.6,349.7-116.8,350.6z M-118.2,353.4c0-0.6-0.2-1.1-0.6-1.5s-0.9-0.6-1.5-0.6s-1.1,0.2-1.5,0.6s-0.7,0.9-0.8,1.5
			H-118.2z"/>
		<path class="st6" d="M-108.4,362.6c-0.5,0-1-0.1-1.4-0.2s-0.8-0.4-1.2-0.7l1.2-2c0.4,0.3,0.8,0.5,1.3,0.5c0.6,0,1-0.3,1.3-0.9
			l0.3-0.5l-4-9.5h2.9l2.5,6.7l2.3-6.7h2.8l-4.2,10.8C-105.5,361.8-106.7,362.6-108.4,362.6z"/>
		<path class="st6" d="M-92.7,349.9c0.8,0.4,1.4,1,1.8,1.7c0.4,0.7,0.6,1.6,0.6,2.6s-0.2,1.8-0.6,2.6c-0.4,0.8-1,1.3-1.8,1.7
			s-1.7,0.6-2.7,0.6s-1.9-0.2-2.7-0.6c-0.8-0.4-1.4-1-1.8-1.7c-0.4-0.8-0.6-1.6-0.6-2.6s0.2-1.8,0.6-2.6c0.4-0.7,1-1.3,1.8-1.7
			s1.7-0.6,2.7-0.6C-94.4,349.2-93.4,349.5-92.7,349.9z M-97.1,352.3c-0.5,0.5-0.7,1.1-0.7,1.9c0,0.8,0.2,1.4,0.7,1.9s1,0.7,1.8,0.7
			c0.7,0,1.3-0.2,1.7-0.7c0.5-0.5,0.7-1.1,0.7-1.9c0-0.8-0.2-1.4-0.7-1.9c-0.4-0.5-1-0.7-1.7-0.7C-96.1,351.6-96.7,351.8-97.1,352.3
			z"/>
		<path class="st6" d="M-79.2,349.3v9.7H-82v-1.7c-0.7,1.2-1.7,1.8-3.2,1.8c-1.1,0-1.9-0.3-2.5-1s-0.9-1.6-0.9-2.7v-6.1h2.8v5.3
			c0,0.6,0.2,1.1,0.5,1.4c0.3,0.3,0.8,0.5,1.3,0.5c0.7,0,1.2-0.2,1.6-0.7s0.6-1,0.6-1.8v-4.8L-79.2,349.3L-79.2,349.3z"/>
		<path class="st6" d="M-68.2,349.7c0.5-0.3,1.2-0.5,1.9-0.5v2.6c-0.1,0-0.2,0-0.4,0c-0.9,0-1.5,0.2-2,0.7s-0.7,1.1-0.7,1.8v4.7
			h-2.8v-9.7h2.8v1.7C-69.2,350.5-68.7,350-68.2,349.7z"/>
		<path class="st6" d="M-57.1,350.6c0.8,0.9,1.2,2.2,1.2,3.8c0,0.3,0,0.5,0,0.7h-6.9c0.2,0.6,0.5,1.1,0.9,1.4s1,0.5,1.6,0.5
			c0.5,0,0.9-0.1,1.3-0.3c0.4-0.2,0.8-0.4,1.1-0.8l1.5,1.5c-0.5,0.6-1.1,1-1.8,1.3c-0.7,0.3-1.5,0.4-2.3,0.4c-1,0-1.9-0.2-2.7-0.6
			s-1.3-1-1.8-1.7c-0.4-0.7-0.6-1.6-0.6-2.6s0.2-1.9,0.6-2.6s1-1.3,1.8-1.7c0.8-0.4,1.6-0.6,2.6-0.6
			C-59.1,349.2-57.9,349.7-57.1,350.6z M-58.5,353.4c0-0.6-0.2-1.1-0.6-1.5s-0.9-0.6-1.5-0.6s-1.1,0.2-1.5,0.6s-0.7,0.9-0.8,1.5
			H-58.5z"/>
		<path class="st6" d="M-48.4,359v-1.1c-0.3,0.4-0.7,0.7-1.3,0.9c-0.6,0.2-1.1,0.3-1.8,0.3c-1,0-1.8-0.3-2.4-0.8
			c-0.6-0.6-0.9-1.3-0.9-2.2s0.3-1.6,1-2.1c0.6-0.5,1.6-0.8,2.7-0.8h2.7V353c0-0.5-0.2-0.9-0.5-1.2c-0.3-0.3-0.8-0.4-1.5-0.4
			c-0.9,0-1.9,0.3-2.9,0.8l-0.9-1.9c0.8-0.4,1.5-0.7,2.2-0.8c0.7-0.2,1.4-0.3,2.2-0.3c1.3,0,2.3,0.3,3,0.9s1.1,1.5,1.1,2.6v6.3
			H-48.4z M-49.2,356.8c0.4-0.3,0.7-0.6,0.8-1v-0.9h-2.2c-0.5,0-0.9,0.1-1.2,0.3s-0.4,0.5-0.4,0.8c0,0.4,0.1,0.7,0.4,0.9
			c0.3,0.2,0.6,0.3,1.1,0.3C-50.1,357.2-49.6,357-49.2,356.8z"/>
		<path class="st6" d="M-33.7,345.7V359h-2.8v-1.4c-0.3,0.5-0.8,0.9-1.3,1.1c-0.5,0.3-1.1,0.4-1.8,0.4c-0.9,0-1.7-0.2-2.4-0.6
			s-1.2-1-1.6-1.8c-0.4-0.8-0.6-1.6-0.6-2.6s0.2-1.8,0.6-2.6c0.4-0.7,0.9-1.3,1.6-1.7c0.7-0.4,1.5-0.6,2.4-0.6
			c1.4,0,2.4,0.5,3.1,1.5v-5.1h2.8V345.7z M-37.2,356.2c0.5-0.5,0.7-1.1,0.7-1.9c0-0.8-0.2-1.4-0.7-1.9s-1-0.7-1.7-0.7
			s-1.3,0.2-1.8,0.7s-0.7,1.1-0.7,1.9c0,0.8,0.2,1.4,0.7,1.9c0.4,0.5,1,0.7,1.8,0.7C-38.2,356.9-37.6,356.6-37.2,356.2z"/>
		<path class="st6" d="M-291.4,380.1c-0.4,0.2-0.8,0.4-1.2,0.5c-0.4,0.1-0.9,0.2-1.3,0.2c-0.9,0-1.6-0.3-2.2-0.8
			c-0.6-0.5-0.8-1.3-0.8-2.2v-4.5h-1.4v-1.9h1.4v-2.7h2.8v2.7h2.6v1.9h-2.6v4c0,0.7,0.3,1.1,0.9,1.1c0.4,0,0.9-0.1,1.4-0.4
			L-291.4,380.1z"/>
		<path class="st6" d="M-280.9,371.8c0.6,0.7,1,1.6,1,2.7v6.1h-2.8v-5.3c0-0.6-0.2-1.1-0.5-1.4c-0.3-0.4-0.8-0.5-1.4-0.5
			c-0.7,0-1.2,0.2-1.6,0.7c-0.4,0.5-0.6,1.1-0.6,1.8v4.8h-2.8v-13.4h2.8v5.4c0.7-1.2,1.8-1.8,3.3-1.8
			C-282.4,370.8-281.6,371.2-280.9,371.8z"/>
		<path class="st6" d="M-273.5,371.3c0.5-0.3,1.2-0.5,1.9-0.5v2.6c-0.1,0-0.2,0-0.4,0c-0.9,0-1.5,0.2-2,0.7s-0.7,1.1-0.7,1.8v4.7
			h-2.8v-9.7h2.8v1.7C-274.5,372.1-274,371.6-273.5,371.3z"/>
		<path class="st6" d="M-263,371.5c0.8,0.4,1.4,1,1.8,1.7c0.4,0.7,0.6,1.6,0.6,2.6s-0.2,1.8-0.6,2.6c-0.4,0.8-1,1.3-1.8,1.7
			c-0.8,0.4-1.7,0.6-2.7,0.6s-1.9-0.2-2.7-0.6c-0.8-0.4-1.4-1-1.8-1.7c-0.4-0.8-0.6-1.6-0.6-2.6s0.2-1.8,0.6-2.6
			c0.4-0.7,1-1.3,1.8-1.7s1.7-0.6,2.7-0.6C-264.7,370.8-263.8,371.1-263,371.5z M-267.5,373.9c-0.5,0.5-0.7,1.1-0.7,1.9
			c0,0.8,0.2,1.4,0.7,1.9c0.4,0.5,1,0.7,1.8,0.7c0.7,0,1.3-0.2,1.7-0.7c0.5-0.5,0.7-1.1,0.7-1.9c0-0.8-0.2-1.4-0.7-1.9
			c-0.4-0.5-1-0.7-1.7-0.7C-266.4,373.2-267,373.4-267.5,373.9z"/>
		<path class="st6" d="M-249.5,370.9v9.7h-2.8v-1.7c-0.7,1.2-1.7,1.8-3.2,1.8c-1.1,0-1.9-0.3-2.5-1c-0.6-0.7-0.9-1.6-0.9-2.7v-6.1
			h2.8v5.3c0,0.6,0.2,1.1,0.5,1.4c0.3,0.3,0.8,0.5,1.3,0.5c0.7,0,1.2-0.2,1.6-0.7c0.4-0.5,0.6-1,0.6-1.8v-4.8L-249.5,370.9
			L-249.5,370.9z"/>
		<path class="st6" d="M-237.7,370.9v8.8c0,0.9-0.2,1.7-0.6,2.4c-0.4,0.7-1,1.2-1.8,1.6c-0.8,0.4-1.7,0.5-2.7,0.5
			c-0.8,0-1.5-0.1-2.3-0.3c-0.8-0.2-1.4-0.5-2-0.9l1-1.9c0.9,0.6,1.9,1,3,1c0.8,0,1.4-0.2,1.9-0.6s0.7-0.9,0.7-1.6v-1.1
			c-0.3,0.5-0.7,0.8-1.2,1c-0.5,0.2-1.1,0.4-1.7,0.4c-0.8,0-1.6-0.2-2.2-0.6s-1.1-0.9-1.5-1.6c-0.4-0.7-0.5-1.5-0.5-2.4
			s0.2-1.7,0.5-2.4c0.4-0.7,0.9-1.2,1.5-1.6s1.4-0.6,2.2-0.6c0.6,0,1.2,0.1,1.7,0.4c0.5,0.2,0.9,0.6,1.2,1v-1.3h2.8V370.9z
			 M-241.1,377.3c0.4-0.5,0.6-1.1,0.6-1.8s-0.2-1.3-0.6-1.8c-0.4-0.5-1-0.7-1.6-0.7s-1.2,0.2-1.6,0.7c-0.4,0.5-0.6,1.1-0.6,1.8
			s0.2,1.3,0.6,1.8s1,0.7,1.6,0.7S-241.6,377.8-241.1,377.3z"/>
		<path class="st6" d="M-226.4,371.8c0.6,0.7,1,1.6,1,2.7v6.1h-2.8v-5.3c0-0.6-0.2-1.1-0.5-1.4c-0.3-0.4-0.8-0.5-1.4-0.5
			c-0.7,0-1.2,0.2-1.6,0.7s-0.6,1.1-0.6,1.8v4.8h-2.8v-13.4h2.8v5.4c0.7-1.2,1.8-1.8,3.3-1.8C-227.9,370.8-227,371.2-226.4,371.8z"
			/>
		<path class="st6" d="M-212.9,380.1c-0.4,0.2-0.8,0.4-1.2,0.5s-0.9,0.2-1.3,0.2c-0.9,0-1.6-0.3-2.2-0.8c-0.6-0.5-0.8-1.3-0.8-2.2
			v-4.5h-1.4v-1.9h1.4v-2.7h2.8v2.7h2.6v1.9h-2.6v4c0,0.7,0.3,1.1,0.9,1.1c0.4,0,0.9-0.1,1.4-0.4L-212.9,380.1z"/>
		<path class="st6" d="M-202.4,371.8c0.6,0.7,1,1.6,1,2.7v6.1h-2.8v-5.3c0-0.6-0.2-1.1-0.5-1.4c-0.3-0.4-0.8-0.5-1.4-0.5
			c-0.7,0-1.2,0.2-1.6,0.7s-0.6,1.1-0.6,1.8v4.8h-2.8v-13.4h2.8v5.4c0.7-1.2,1.8-1.8,3.3-1.8C-203.9,370.8-203,371.2-202.4,371.8z"
			/>
		<path class="st6" d="M-191.3,372.2c0.8,0.9,1.2,2.2,1.2,3.8c0,0.3,0,0.5,0,0.7h-6.9c0.2,0.6,0.5,1.1,0.9,1.4
			c0.4,0.3,1,0.5,1.6,0.5c0.5,0,0.9-0.1,1.3-0.3c0.4-0.2,0.8-0.4,1.1-0.8l1.5,1.5c-0.5,0.6-1.1,1-1.8,1.3c-0.7,0.3-1.5,0.4-2.3,0.4
			c-1,0-1.9-0.2-2.7-0.6c-0.8-0.4-1.4-1-1.8-1.7c-0.4-0.7-0.6-1.6-0.6-2.6s0.2-1.9,0.6-2.6c0.4-0.7,1-1.3,1.8-1.7s1.6-0.6,2.6-0.6
			C-193.3,370.8-192.1,371.3-191.3,372.2z M-192.7,375c0-0.6-0.2-1.1-0.6-1.5s-0.9-0.6-1.5-0.6s-1.1,0.2-1.5,0.6s-0.7,0.9-0.8,1.5
			H-192.7z"/>
		<path class="st6" d="M-178.5,380.6v-1.1c-0.3,0.4-0.7,0.7-1.3,0.9c-0.5,0.2-1.1,0.3-1.8,0.3c-1,0-1.8-0.3-2.4-0.8
			c-0.6-0.6-0.9-1.3-0.9-2.2c0-0.9,0.3-1.6,1-2.1c0.6-0.5,1.6-0.8,2.7-0.8h2.7v-0.2c0-0.5-0.2-0.9-0.5-1.2c-0.3-0.3-0.8-0.4-1.5-0.4
			c-0.9,0-1.9,0.3-2.9,0.8l-0.9-1.9c0.8-0.4,1.5-0.7,2.2-0.8c0.7-0.2,1.4-0.3,2.2-0.3c1.3,0,2.3,0.3,3,0.9c0.7,0.6,1.1,1.5,1.1,2.6
			v6.3C-175.8,380.6-178.5,380.6-178.5,380.6z M-179.2,378.4c0.4-0.3,0.7-0.6,0.8-1v-0.9h-2.2c-0.5,0-0.9,0.1-1.2,0.3
			c-0.3,0.2-0.4,0.5-0.4,0.8c0,0.4,0.1,0.7,0.4,0.9s0.6,0.3,1.1,0.3C-180.1,378.8-179.7,378.6-179.2,378.4z"/>
		<path class="st6" d="M-164.6,371.8c0.6,0.7,1,1.6,1,2.7v6.1h-2.8v-5.3c0-0.6-0.2-1.1-0.5-1.4c-0.3-0.4-0.8-0.5-1.4-0.5
			c-0.7,0-1.2,0.2-1.6,0.7s-0.6,1.1-0.6,1.8v4.8h-2.8V371h2.8v1.7c0.7-1.2,1.8-1.8,3.3-1.8C-166.1,370.8-165.3,371.2-164.6,371.8z"
			/>
		<path class="st6" d="M-158.8,367.1c0.3,0.3,0.4,0.7,0.4,1.1c0,0.5-0.1,0.8-0.4,1.1c-0.3,0.3-0.6,0.4-1.1,0.4
			c-0.4,0-0.8-0.1-1.1-0.4c-0.3-0.3-0.4-0.7-0.4-1.1c0-0.5,0.1-0.8,0.4-1.1c0.3-0.3,0.6-0.4,1.1-0.4
			C-159.5,366.6-159.1,366.8-158.8,367.1z M-161.3,370.9h2.8v9.7h-2.8V370.9z"/>
		<path class="st6" d="M-140.5,371.8c0.6,0.7,0.9,1.6,0.9,2.7v6.1h-2.8v-5.3c0-0.6-0.2-1.1-0.5-1.5c-0.3-0.3-0.8-0.5-1.4-0.5
			c-0.7,0-1.2,0.2-1.6,0.7s-0.6,1-0.6,1.8v4.8h-2.8v-5.3c0-0.6-0.2-1.1-0.5-1.4c-0.3-0.4-0.8-0.5-1.4-0.5c-0.7,0-1.2,0.2-1.6,0.7
			s-0.6,1-0.6,1.8v4.8h-2.8V371h2.8v1.7c0.7-1.2,1.8-1.8,3.3-1.8c0.8,0,1.5,0.2,2.1,0.6c0.6,0.4,1,0.9,1.2,1.6
			c0.3-0.7,0.8-1.3,1.4-1.7s1.3-0.6,2.1-0.6C-142,370.8-141.1,371.2-140.5,371.8z"/>
		<path class="st6" d="M-131.5,380.6v-1.1c-0.3,0.4-0.7,0.7-1.3,0.9c-0.5,0.2-1.1,0.3-1.8,0.3c-1,0-1.8-0.3-2.4-0.8
			s-0.9-1.3-0.9-2.2c0-0.9,0.3-1.6,1-2.1c0.6-0.5,1.6-0.8,2.7-0.8h2.7v-0.2c0-0.5-0.2-0.9-0.5-1.2c-0.3-0.3-0.8-0.4-1.5-0.4
			c-0.9,0-1.9,0.3-2.9,0.8l-0.9-1.9c0.8-0.4,1.5-0.7,2.2-0.8c0.7-0.2,1.4-0.3,2.2-0.3c1.3,0,2.3,0.3,3,0.9c0.7,0.6,1.1,1.5,1.1,2.6
			v6.3C-128.8,380.6-131.5,380.6-131.5,380.6z M-132.3,378.4c0.4-0.3,0.7-0.6,0.8-1v-0.9h-2.2c-0.5,0-0.9,0.1-1.2,0.3
			c-0.3,0.2-0.4,0.5-0.4,0.8c0,0.4,0.1,0.7,0.4,0.9s0.6,0.3,1.1,0.3C-133.2,378.8-132.7,378.6-132.3,378.4z"/>
		<path class="st6" d="M-126.3,367.3h2.8v13.4h-2.8V367.3z"/>
		<path class="st6" d="M-113,369.7c-0.2,0.2-0.3,0.5-0.3,0.8v0.8h2.3v1.9h-2.3v7.3h-2.8v-7.3h-1.3v-1.9h1.3v-0.9
			c0-0.7,0.2-1.3,0.5-1.8s0.7-0.9,1.3-1.1c0.5-0.3,1.1-0.4,1.8-0.4c0.6,0,1.3,0.1,1.9,0.4l-0.4,2.2c-0.2-0.1-0.4-0.1-0.6-0.2
			s-0.4-0.1-0.6-0.1C-112.5,369.4-112.8,369.5-113,369.7z"/>
		<path class="st6" d="M-104.6,380.6v-1.1c-0.3,0.4-0.7,0.7-1.3,0.9c-0.5,0.2-1.1,0.3-1.8,0.3c-1,0-1.8-0.3-2.4-0.8
			s-0.9-1.3-0.9-2.2c0-0.9,0.3-1.6,1-2.1c0.6-0.5,1.6-0.8,2.7-0.8h2.7v-0.2c0-0.5-0.2-0.9-0.5-1.2c-0.3-0.3-0.8-0.4-1.5-0.4
			c-0.9,0-1.9,0.3-2.9,0.8l-0.9-1.9c0.8-0.4,1.5-0.7,2.2-0.8c0.7-0.2,1.4-0.3,2.2-0.3c1.3,0,2.3,0.3,3,0.9c0.7,0.6,1.1,1.5,1.1,2.6
			v6.3C-101.9,380.6-104.6,380.6-104.6,380.6z M-105.4,378.4c0.4-0.3,0.7-0.6,0.8-1v-0.9h-2.2c-0.5,0-0.9,0.1-1.2,0.3
			c-0.3,0.2-0.4,0.5-0.4,0.8c0,0.4,0.1,0.7,0.4,0.9s0.6,0.3,1.1,0.3C-106.3,378.8-105.8,378.6-105.4,378.4z"/>
		<path class="st6" d="M-95.2,373.2c-0.7,0-1.3,0.2-1.7,0.7c-0.4,0.5-0.7,1.1-0.7,1.9c0,0.8,0.2,1.4,0.6,1.9s1,0.7,1.7,0.7
			c1,0,1.8-0.4,2.3-1.1l1.9,1.3c-0.4,0.7-1,1.2-1.7,1.6c-0.7,0.4-1.6,0.6-2.6,0.6s-1.8-0.2-2.6-0.6c-0.8-0.4-1.3-1-1.7-1.7
			c-0.4-0.7-0.6-1.6-0.6-2.6s0.2-1.9,0.6-2.6c0.4-0.7,1-1.3,1.7-1.7s1.6-0.6,2.6-0.6c0.9,0,1.7,0.2,2.5,0.5c0.7,0.4,1.3,0.9,1.7,1.5
			l-1.9,1.4C-93.6,373.5-94.3,373.2-95.2,373.2z"/>
		<path class="st6" d="M-83.4,380.1c-0.4,0.2-0.8,0.4-1.2,0.5c-0.4,0.1-0.9,0.2-1.3,0.2c-0.9,0-1.6-0.3-2.2-0.8s-0.8-1.3-0.8-2.2
			v-4.5h-1.3v-1.9h1.3v-2.7h2.8v2.7h2.6v1.9h-2.6v4c0,0.7,0.3,1.1,0.9,1.1c0.4,0,0.9-0.1,1.4-0.4L-83.4,380.1z"/>
		<path class="st6" d="M-77.2,373.1c-0.5-0.2-1-0.2-1.4-0.2c-0.3,0-0.6,0.1-0.8,0.2c-0.2,0.1-0.3,0.3-0.3,0.5c0,0.3,0.1,0.5,0.4,0.6
			c0.3,0.1,0.7,0.3,1.3,0.5c0.7,0.2,1.2,0.4,1.7,0.6c0.4,0.2,0.8,0.5,1.2,0.9c0.3,0.4,0.5,0.9,0.5,1.5c0,1-0.4,1.7-1.1,2.2
			s-1.7,0.8-2.8,0.8c-0.8,0-1.6-0.1-2.3-0.4c-0.7-0.2-1.4-0.6-1.9-1l0.9-1.9c0.5,0.4,1,0.7,1.6,0.9s1.2,0.3,1.7,0.3
			c0.4,0,0.7-0.1,0.9-0.2s0.3-0.3,0.3-0.6c0-0.3-0.1-0.5-0.4-0.6c-0.3-0.2-0.7-0.3-1.4-0.5c-0.7-0.2-1.2-0.4-1.6-0.6
			s-0.8-0.5-1.1-0.9c-0.3-0.4-0.5-0.9-0.5-1.5c0-1,0.4-1.7,1.1-2.2s1.6-0.8,2.7-0.8c0.7,0,1.3,0.1,2,0.3s1.3,0.5,1.8,0.8l-1,1.9
			C-76.1,373.5-76.6,373.3-77.2,373.1z"/>
		<path class="st6" d="M-62.9,380.6v-1.1c-0.3,0.4-0.7,0.7-1.3,0.9c-0.6,0.2-1.1,0.3-1.8,0.3c-1,0-1.8-0.3-2.4-0.8
			c-0.6-0.6-0.9-1.3-0.9-2.2c0-0.9,0.3-1.6,1-2.1c0.6-0.5,1.6-0.8,2.7-0.8h2.7v-0.2c0-0.5-0.2-0.9-0.5-1.2c-0.3-0.3-0.8-0.4-1.5-0.4
			c-0.9,0-1.9,0.3-2.9,0.8l-0.9-1.9c0.8-0.4,1.5-0.7,2.2-0.8c0.7-0.2,1.4-0.3,2.2-0.3c1.3,0,2.3,0.3,3,0.9c0.7,0.6,1.1,1.5,1.1,2.6
			v6.3C-60.2,380.6-62.9,380.6-62.9,380.6z M-63.7,378.4c0.4-0.3,0.7-0.6,0.8-1v-0.9h-2.2c-0.5,0-0.9,0.1-1.2,0.3
			c-0.3,0.2-0.4,0.5-0.4,0.8c0,0.4,0.1,0.7,0.4,0.9s0.6,0.3,1.1,0.3C-64.6,378.8-64.1,378.6-63.7,378.4z"/>
		<path class="st6" d="M-48.7,370.9v8.8c0,0.9-0.2,1.7-0.6,2.4c-0.4,0.7-1,1.2-1.8,1.6c-0.8,0.4-1.7,0.5-2.7,0.5
			c-0.8,0-1.5-0.1-2.3-0.3c-0.8-0.2-1.4-0.5-2-0.9l1-1.9c0.9,0.6,1.9,1,3,1c0.8,0,1.4-0.2,1.9-0.6s0.7-0.9,0.7-1.6v-1.1
			c-0.3,0.5-0.7,0.8-1.2,1c-0.5,0.2-1.1,0.4-1.7,0.4c-0.8,0-1.6-0.2-2.2-0.6s-1.1-0.9-1.5-1.6c-0.4-0.7-0.5-1.5-0.5-2.4
			s0.2-1.7,0.5-2.4c0.4-0.7,0.9-1.2,1.5-1.6s1.4-0.6,2.2-0.6c0.6,0,1.2,0.1,1.7,0.4c0.5,0.2,0.9,0.6,1.2,1v-1.3h2.8V370.9z
			 M-52.1,377.3c0.4-0.5,0.6-1.1,0.6-1.8s-0.2-1.3-0.6-1.8s-1-0.7-1.6-0.7s-1.2,0.2-1.6,0.7s-0.6,1.1-0.6,1.8s0.2,1.3,0.6,1.8
			s1,0.7,1.6,0.7C-53,378-52.5,377.8-52.1,377.3z"/>
		<path class="st6" d="M-40.5,380.6v-1.1c-0.3,0.4-0.7,0.7-1.3,0.9c-0.6,0.2-1.1,0.3-1.8,0.3c-1,0-1.8-0.3-2.4-0.8
			c-0.6-0.6-0.9-1.3-0.9-2.2c0-0.9,0.3-1.6,1-2.1c0.6-0.5,1.6-0.8,2.7-0.8h2.7v-0.2c0-0.5-0.2-0.9-0.5-1.2c-0.3-0.3-0.8-0.4-1.5-0.4
			c-0.9,0-1.9,0.3-2.9,0.8l-0.9-1.9c0.8-0.4,1.5-0.7,2.2-0.8c0.7-0.2,1.4-0.3,2.2-0.3c1.3,0,2.3,0.3,3,0.9c0.7,0.6,1.1,1.5,1.1,2.6
			v6.3C-37.8,380.6-40.5,380.6-40.5,380.6z M-41.3,378.4c0.4-0.3,0.7-0.6,0.8-1v-0.9h-2.2c-0.5,0-0.9,0.1-1.2,0.3
			c-0.3,0.2-0.4,0.5-0.4,0.8c0,0.4,0.1,0.7,0.4,0.9s0.6,0.3,1.1,0.3C-42.2,378.8-41.7,378.6-41.3,378.4z"/>
		<path class="st6" d="M-33,367.1c0.3,0.3,0.4,0.7,0.4,1.1c0,0.5-0.1,0.8-0.4,1.1c-0.3,0.3-0.6,0.4-1.1,0.4c-0.4,0-0.8-0.1-1.1-0.4
			c-0.3-0.3-0.4-0.7-0.4-1.1c0-0.5,0.1-0.8,0.4-1.1c0.3-0.3,0.6-0.4,1.1-0.4C-33.6,366.6-33.3,366.8-33,367.1z M-35.4,370.9h2.8v9.7
			h-2.8V370.9z"/>
		<path class="st6" d="M-21.3,371.8c0.6,0.7,1,1.6,1,2.7v6.1h-2.8v-5.3c0-0.6-0.2-1.1-0.5-1.4c-0.3-0.4-0.8-0.5-1.4-0.5
			c-0.7,0-1.2,0.2-1.6,0.7s-0.6,1.1-0.6,1.8v4.8H-30V371h2.8v1.7c0.7-1.2,1.8-1.8,3.3-1.8C-22.8,370.8-21.9,371.2-21.3,371.8z"/>
		<path class="st6" d="M-259,393.1c0.7,0.4,1.2,1,1.6,1.8c0.4,0.8,0.6,1.6,0.6,2.6s-0.2,1.8-0.6,2.6c-0.4,0.7-0.9,1.3-1.6,1.7
			s-1.5,0.6-2.4,0.6c-0.7,0-1.3-0.1-1.8-0.4c-0.5-0.3-1-0.6-1.3-1.1v1.4h-2.8v-13.4h2.8v5.1c0.3-0.5,0.8-0.9,1.3-1.1
			s1.1-0.4,1.8-0.4C-260.5,392.4-259.7,392.7-259,393.1z M-260.3,399.3c0.4-0.5,0.7-1.1,0.7-1.9c0-0.8-0.2-1.4-0.7-1.9
			s-1-0.7-1.7-0.7s-1.3,0.2-1.7,0.7c-0.5,0.5-0.7,1.1-0.7,1.9s0.2,1.5,0.7,1.9c0.4,0.5,1,0.7,1.7,0.7S-260.7,399.8-260.3,399.3z"/>
		<path class="st6" d="M-247.3,393.8c0.8,0.9,1.2,2.2,1.2,3.8c0,0.3,0,0.5,0,0.7h-6.9c0.2,0.6,0.5,1.1,0.9,1.4s1,0.5,1.6,0.5
			c0.5,0,0.9-0.1,1.3-0.3c0.4-0.2,0.8-0.4,1.1-0.8l1.5,1.5c-0.5,0.6-1.1,1-1.8,1.3s-1.5,0.4-2.3,0.4c-1,0-1.9-0.2-2.7-0.6
			s-1.4-1-1.8-1.7c-0.4-0.7-0.6-1.6-0.6-2.6s0.2-1.9,0.6-2.6s1-1.3,1.8-1.7s1.6-0.6,2.6-0.6C-249.3,392.4-248.1,392.9-247.3,393.8z
			 M-248.7,396.6c0-0.6-0.2-1.1-0.6-1.5c-0.4-0.4-0.9-0.6-1.5-0.6s-1.1,0.2-1.5,0.6s-0.7,0.9-0.8,1.5H-248.7z"/>
		<path class="st6" d="M-240.8,391.3c-0.2,0.2-0.3,0.5-0.3,0.8v0.8h2.3v1.9h-2.3v7.3h-2.8v-7.3h-1.3V393h1.3v-0.9
			c0-0.7,0.2-1.3,0.5-1.8s0.7-0.9,1.3-1.1s1.1-0.4,1.8-0.4c0.6,0,1.3,0.1,1.9,0.4l-0.4,2.2c-0.2-0.1-0.4-0.1-0.6-0.2
			c-0.2-0.1-0.4-0.1-0.6-0.1C-240.3,391-240.5,391.1-240.8,391.3z"/>
		<path class="st6" d="M-230.6,393.1c0.8,0.4,1.4,1,1.8,1.7c0.4,0.7,0.6,1.6,0.6,2.6s-0.2,1.8-0.6,2.6c-0.4,0.8-1,1.3-1.8,1.7
			s-1.7,0.6-2.7,0.6s-1.9-0.2-2.7-0.6c-0.8-0.4-1.4-1-1.8-1.7c-0.4-0.8-0.6-1.6-0.6-2.6s0.2-1.8,0.6-2.6c0.4-0.7,1-1.3,1.8-1.7
			s1.7-0.6,2.7-0.6C-232.3,392.4-231.4,392.7-230.6,393.1z M-235.1,395.5c-0.5,0.5-0.7,1.1-0.7,1.9s0.2,1.4,0.7,1.9
			c0.4,0.5,1,0.7,1.8,0.7c0.7,0,1.3-0.2,1.7-0.7c0.5-0.5,0.7-1.1,0.7-1.9s-0.2-1.4-0.7-1.9c-0.4-0.5-1-0.7-1.7-0.7
			S-234.6,395-235.1,395.5z"/>
		<path class="st6" d="M-222.2,392.9c0.5-0.3,1.2-0.5,1.9-0.5v2.6c-0.1,0-0.2,0-0.4,0c-0.9,0-1.5,0.2-2,0.7s-0.7,1.1-0.7,1.8v4.7
			h-2.8v-9.7h2.8v1.7C-223.2,393.7-222.8,393.2-222.2,392.9z"/>
		<path class="st6" d="M-211.1,393.8c0.8,0.9,1.2,2.2,1.2,3.8c0,0.3,0,0.5,0,0.7h-6.9c0.2,0.6,0.5,1.1,0.9,1.4s1,0.5,1.6,0.5
			c0.5,0,0.9-0.1,1.3-0.3c0.4-0.2,0.8-0.4,1.1-0.8l1.5,1.5c-0.5,0.6-1.1,1-1.8,1.3s-1.5,0.4-2.3,0.4c-1,0-1.9-0.2-2.7-0.6
			s-1.4-1-1.8-1.7c-0.4-0.7-0.6-1.6-0.6-2.6s0.2-1.9,0.6-2.6s1-1.3,1.8-1.7s1.6-0.6,2.6-0.6C-213.1,392.4-211.9,392.9-211.1,393.8z
			 M-212.5,396.6c0-0.6-0.2-1.1-0.6-1.5c-0.4-0.4-0.9-0.6-1.5-0.6s-1.1,0.2-1.5,0.6s-0.7,0.9-0.8,1.5H-212.5z"/>
		<path class="st6" d="M-199.8,392.9c0.5-0.3,1.2-0.5,1.9-0.5v2.6c-0.1,0-0.2,0-0.4,0c-0.9,0-1.5,0.2-2,0.7s-0.7,1.1-0.7,1.8v4.7
			h-2.8v-9.7h2.8v1.7C-200.7,393.7-200.3,393.2-199.8,392.9z"/>
		<path class="st6" d="M-188.7,393.8c0.8,0.9,1.2,2.2,1.2,3.8c0,0.3,0,0.5,0,0.7h-6.9c0.2,0.6,0.5,1.1,0.9,1.4s1,0.5,1.6,0.5
			c0.5,0,0.9-0.1,1.3-0.3s0.8-0.4,1.1-0.8l1.5,1.5c-0.5,0.6-1.1,1-1.8,1.3c-0.7,0.3-1.5,0.4-2.3,0.4c-1,0-1.9-0.2-2.7-0.6
			c-0.8-0.4-1.4-1-1.8-1.7c-0.4-0.7-0.6-1.6-0.6-2.6s0.2-1.9,0.6-2.6s1-1.3,1.8-1.7s1.6-0.6,2.6-0.6
			C-190.6,392.4-189.5,392.9-188.7,393.8z M-190,396.6c0-0.6-0.2-1.1-0.6-1.5s-0.9-0.6-1.5-0.6s-1.1,0.2-1.5,0.6s-0.7,0.9-0.8,1.5
			H-190z"/>
		<path class="st6" d="M-179.6,401.7c-0.4,0.2-0.8,0.4-1.2,0.5c-0.4,0.1-0.9,0.2-1.3,0.2c-0.9,0-1.6-0.3-2.2-0.8s-0.8-1.3-0.8-2.2
			v-4.5h-1.4V393h1.4v-2.7h2.8v2.7h2.6v1.9h-2.6v4c0,0.7,0.3,1.1,0.9,1.1c0.4,0,0.9-0.1,1.4-0.4L-179.6,401.7z"/>
		<path class="st6" d="M-173.9,392.9c0.5-0.3,1.2-0.5,1.9-0.5v2.6c-0.1,0-0.2,0-0.4,0c-0.9,0-1.5,0.2-2,0.7s-0.7,1.1-0.7,1.8v4.7
			h-2.9v-9.7h2.8v1.7C-174.8,393.7-174.4,393.2-173.9,392.9z"/>
		<path class="st6" d="M-168.9,405.8c-0.5,0-1-0.1-1.4-0.2s-0.8-0.4-1.2-0.7l1.2-2c0.4,0.3,0.8,0.5,1.3,0.5c0.6,0,1-0.3,1.3-0.9
			l0.3-0.5l-4-9.5h2.9l2.5,6.7l2.3-6.7h2.8l-4.2,10.8C-166,405-167.2,405.8-168.9,405.8z"/>
		<path class="st6" d="M-157.4,388.7c0.3,0.3,0.4,0.7,0.4,1.1c0,0.5-0.1,0.8-0.4,1.1c-0.3,0.3-0.6,0.4-1.1,0.4
			c-0.4,0-0.8-0.1-1.1-0.4c-0.3-0.3-0.4-0.7-0.4-1.1c0-0.5,0.1-0.8,0.4-1.1c0.3-0.3,0.6-0.4,1.1-0.4
			C-158.1,388.2-157.7,388.4-157.4,388.7z M-159.9,392.5h2.8v9.7h-2.8V392.5z"/>
		<path class="st6" d="M-145.7,393.4c0.6,0.7,1,1.6,1,2.7v6.1h-2.8v-5.3c0-0.6-0.2-1.1-0.5-1.4c-0.3-0.4-0.8-0.5-1.4-0.5
			c-0.7,0-1.2,0.2-1.6,0.7s-0.6,1.1-0.6,1.8v4.8h-2.8v-9.7h2.8v1.7c0.7-1.2,1.8-1.8,3.3-1.8C-147.2,392.4-146.4,392.8-145.7,393.4z"
			/>
		<path class="st6" d="M-133.3,392.5v8.8c0,0.9-0.2,1.7-0.6,2.4c-0.4,0.7-1,1.2-1.8,1.6c-0.8,0.4-1.7,0.5-2.7,0.5
			c-0.8,0-1.5-0.1-2.3-0.3s-1.4-0.5-2-0.9l1-1.9c0.9,0.6,1.9,1,3,1c0.8,0,1.4-0.2,1.9-0.6s0.7-0.9,0.7-1.6v-1.1
			c-0.3,0.5-0.7,0.8-1.2,1s-1.1,0.4-1.7,0.4c-0.8,0-1.6-0.2-2.2-0.6s-1.1-0.9-1.5-1.6s-0.5-1.5-0.5-2.4s0.2-1.7,0.5-2.4
			s0.9-1.2,1.5-1.6s1.4-0.6,2.2-0.6c0.6,0,1.2,0.1,1.7,0.4c0.5,0.2,0.9,0.6,1.2,1v-1.3h2.8V392.5z M-136.7,398.9
			c0.4-0.5,0.6-1.1,0.6-1.8c0-0.7-0.2-1.3-0.6-1.8s-1-0.7-1.6-0.7s-1.2,0.2-1.6,0.7s-0.6,1.1-0.6,1.8c0,0.7,0.2,1.3,0.6,1.8
			s1,0.7,1.6,0.7C-137.7,399.6-137.1,399.4-136.7,398.9z"/>
		<path class="st6" d="M-120.6,401.7c-0.4,0.2-0.8,0.4-1.2,0.5c-0.4,0.1-0.9,0.2-1.3,0.2c-0.9,0-1.6-0.3-2.2-0.8s-0.8-1.3-0.8-2.2
			v-4.5h-1.3V393h1.3v-2.7h2.8v2.7h2.6v1.9h-2.6v4c0,0.7,0.3,1.1,0.9,1.1c0.4,0,0.9-0.1,1.3-0.4L-120.6,401.7z"/>
		<path class="st6" d="M-110.1,393.4c0.6,0.7,1,1.6,1,2.7v6.1h-2.8v-5.3c0-0.6-0.2-1.1-0.5-1.4c-0.3-0.4-0.8-0.5-1.4-0.5
			c-0.7,0-1.2,0.2-1.6,0.7s-0.6,1.1-0.6,1.8v4.8h-2.8v-13.4h2.8v5.4c0.7-1.2,1.8-1.8,3.3-1.8C-111.6,392.4-110.7,392.8-110.1,393.4z
			"/>
		<path class="st6" d="M-99,393.8c0.8,0.9,1.2,2.2,1.2,3.8c0,0.3,0,0.5,0,0.7h-6.9c0.2,0.6,0.5,1.1,0.9,1.4s1,0.5,1.6,0.5
			c0.5,0,0.9-0.1,1.3-0.3s0.8-0.4,1.1-0.8l1.5,1.5c-0.5,0.6-1.1,1-1.8,1.3c-0.7,0.3-1.5,0.4-2.3,0.4c-1,0-1.9-0.2-2.7-0.6
			s-1.3-1-1.8-1.7c-0.4-0.7-0.6-1.6-0.6-2.6s0.2-1.9,0.6-2.6s1-1.3,1.8-1.7s1.6-0.6,2.6-0.6C-101,392.4-99.8,392.9-99,393.8z
			 M-100.4,396.6c0-0.6-0.2-1.1-0.6-1.5s-0.9-0.6-1.5-0.6s-1.1,0.2-1.5,0.6s-0.7,0.9-0.8,1.5H-100.4z"/>
		<path class="st6" d="M-82.2,392.5v13.2H-85v-4.9c-0.3,0.5-0.8,0.9-1.3,1.1c-0.5,0.3-1.1,0.4-1.8,0.4c-0.9,0-1.7-0.2-2.4-0.6
			c-0.7-0.4-1.2-1-1.6-1.8s-0.6-1.6-0.6-2.6s0.2-1.8,0.6-2.6c0.4-0.7,0.9-1.3,1.6-1.7c0.7-0.4,1.5-0.6,2.4-0.6
			c1.4,0,2.4,0.5,3.1,1.5v-1.4H-82.2L-82.2,392.5z M-85.7,399.4c0.5-0.5,0.7-1.1,0.7-1.9s-0.2-1.4-0.7-1.9c-0.4-0.5-1-0.7-1.7-0.7
			s-1.3,0.2-1.8,0.7c-0.4,0.5-0.7,1.1-0.7,1.9s0.2,1.4,0.7,1.9s1,0.7,1.8,0.7C-86.7,400.1-86.1,399.8-85.7,399.4z"/>
		<path class="st6" d="M-70.3,392.5v9.7H-73v-1.7c-0.7,1.2-1.7,1.8-3.2,1.8c-1.1,0-1.9-0.3-2.5-1c-0.6-0.7-0.9-1.6-0.9-2.7v-6.1h2.8
			v5.3c0,0.6,0.2,1.1,0.5,1.4s0.8,0.5,1.3,0.5c0.7,0,1.2-0.2,1.6-0.7s0.6-1,0.6-1.8v-4.8h2.5V392.5z"/>
		<path class="st6" d="M-65.1,388.7c0.3,0.3,0.4,0.7,0.4,1.1c0,0.5-0.1,0.8-0.4,1.1c-0.3,0.3-0.6,0.4-1.1,0.4
			c-0.4,0-0.8-0.1-1.1-0.4s-0.4-0.7-0.4-1.1c0-0.5,0.1-0.8,0.4-1.1c0.3-0.3,0.6-0.4,1.1-0.4C-65.8,388.2-65.4,388.4-65.1,388.7z
			 M-67.6,392.5h2.8v9.7h-2.8V392.5z"/>
		<path class="st6" d="M-62.6,392.6h8.3v1.7l-5,5.7h5.1v2.2h-8.6v-1.7l5-5.7h-4.8V392.6z"/>
		<path class="st6" d="M-50.5,399.9c0.3,0.3,0.4,0.6,0.4,1s-0.1,0.8-0.4,1c-0.3,0.3-0.6,0.4-1,0.4s-0.7-0.1-1-0.4
			c-0.3-0.3-0.4-0.6-0.4-1s0.1-0.8,0.4-1s0.6-0.4,1-0.4S-50.8,399.7-50.5,399.9z"/>
	</g>
</g>
</svg>
