<svg xmlns="http://www.w3.org/2000/svg" xmlns:xlink="http://www.w3.org/1999/xlink" viewBox="0 0 320 640"><defs><style>.cls-1{fill:url(#radial-gradient);}.cls-2{font-size:29px;}.cls-2,.cls-23,.cls-5{fill:#fff;}.cls-2,.cls-5{font-family:Montserrat-Bold, Montserrat;font-weight:700;}.cls-3{letter-spacing:-0.01em;}.cls-4{letter-spacing:0.02em;}.cls-5{font-size:20px;}.cls-6{letter-spacing:-0.01em;}.cls-7{letter-spacing:0.01em;}.cls-8{letter-spacing:-0.03em;}.cls-9{letter-spacing:-0.02em;}.cls-10{letter-spacing:-0.01em;}.cls-11{letter-spacing:-0.01em;}.cls-12{letter-spacing:0.01em;}.cls-13{letter-spacing:-0.01em;}.cls-14{letter-spacing:0.01em;}.cls-15{letter-spacing:0em;}.cls-16{letter-spacing:0.02em;}.cls-17{letter-spacing:0.01em;}.cls-18{fill:#6d6e71;}.cls-19,.cls-20{fill:#808285;}.cls-20,.cls-24{stroke:#6d6e71;stroke-miterlimit:10;stroke-width:1.22px;}.cls-21{fill:#58595b;}.cls-22{fill:#231f20;}.cls-24{fill:none;}</style><radialGradient id="radial-gradient" cx="160" cy="320" r="252.98" gradientUnits="userSpaceOnUse"><stop offset="0" stop-color="#59afc5"/><stop offset="0.23" stop-color="#4aa8c0"/><stop offset="0.66" stop-color="#2396b2"/><stop offset="1" stop-color="#0085a6"/></radialGradient></defs><title>Asset 49</title><g id="Layer_2" data-name="Layer 2"><g id="Amazon_Environment" data-name="Amazon Environment"><rect class="cls-1" width="320" height="640"/><text class="cls-2" transform="translate(88.29 434.63)">ALMO<tspan class="cls-3" x="91.9" y="0">S</tspan><tspan class="cls-4" x="110.11" y="0">T</tspan><tspan x="128.61" y="0">!</tspan></text><text class="cls-5" transform="translate(41.03 472.98)">Ni<tspan class="cls-6" x="22.18" y="0">c</tspan><tspan x="33.86" y="0">e t</tspan><tspan class="cls-7" x="60.84" y="0">r</tspan><tspan class="cls-8" x="69.76" y="0">y</tspan><tspan x="81.08" y="0">. Ma</tspan><tspan class="cls-9" x="123.42" y="0">k</tspan><tspan x="136.16" y="0">e su</tspan><tspan class="cls-10" x="178.8" y="0">r</tspan><tspan x="187.24" y="0">e </tspan><tspan class="cls-11" x="205.52" y="0">y</tspan><tspan x="217.18" y="0">ou </tspan><tspan class="cls-10" x="-6.21" y="24">r</tspan><tspan class="cls-11" x="2.23" y="24">e</tspan><tspan class="cls-12" x="14.55" y="24">a</tspan><tspan x="27.01" y="24">d th</tspan><tspan class="cls-10" x="69.03" y="24">r</tspan><tspan x="77.47" y="24">ough t</tspan><tspan class="cls-12" x="146.49" y="24">h</tspan><tspan x="160.43" y="24">e animal </tspan><tspan class="cls-13" x="-17.84" y="48">f</tspan><tspan class="cls-12" x="-10.3" y="48">a</tspan><tspan class="cls-14" x="2.16" y="48">c</tspan><tspan x="14.14" y="48">ts </tspan><tspan class="cls-12" x="39.12" y="48">a</tspan><tspan x="51.58" y="48">gain be</tspan><tspan class="cls-6" x="129.84" y="48">f</tspan><tspan x="137.44" y="48">o</tspan><tspan class="cls-10" x="150.54" y="48">r</tspan><tspan class="cls-15" x="158.98" y="48">e </tspan><tspan class="cls-10" x="177.26" y="48">r</tspan><tspan x="185.7" y="48">et</tspan><tspan class="cls-16" x="207.02" y="48">r</tspan><tspan x="215.94" y="48">yi</tspan><tspan class="cls-17" x="233.92" y="48">n</tspan><tspan x="247.86" y="48">g </tspan><tspan x="76.66" y="72">t</tspan><tspan class="cls-12" x="85.36" y="72">h</tspan><tspan x="99.3" y="72">e qui</tspan><tspan class="cls-12" x="151.14" y="72">z</tspan><tspan x="162.12" y="72">.</tspan></text><g id="Dugong"><path class="cls-18" d="M97.7,217.09s1.45,18.71-3,30.92-.27,24.09,9.53,24.51,16.91-2.28,17.11-6.77,1.59-35.27,1.32-35.68S100,213.57,100,213.57Z"/><path class="cls-19" d="M115.23,240.77S85.55,212,81.83,196c0,0-12.43-5.93-7.87-29.74s23.4-41.76,43.89-40.24S141,132.55,141,132.55s44.72,3.52,71.43,28.5,29.82,85.24,17.6,115.68-18.5,44.51-16,52.24,9.73,21.06,1.93,30-22,12.77-34.44,12.77S152.36,367,154.36,355s5.46-25.39,5-29.4C159.47,325.59,103.5,315.58,115.23,240.77Z"/><path class="cls-20" d="M161.4,199.56s-1.1,19.12-4.9,32.17-3.93,27.74,7.94,30.43,17.39,1.66,18.36-14-5-32.51-3.17-43.76"/><path class="cls-21" d="M103.36,195.77s5.45,2.48,13.67,1.38c5.93-.76,12.9-2,13.11-13.12s-13-24.08-27.4-22.5-24.92,12.36-23.61,23.26,5.53,12.22,9,13.32S101.43,198.46,103.36,195.77Z"/><ellipse class="cls-22" cx="97.79" cy="169.16" rx="1.1" ry="1.93" transform="translate(-75.83 258.79) rotate(-87.27)"/><ellipse class="cls-22" cx="106.36" cy="168.78" rx="1.1" ry="1.93" transform="translate(-67.29 267) rotate(-87.27)"/><ellipse class="cls-22" cx="92.13" cy="154.55" rx="5.94" ry="3.24" transform="translate(-66.62 239.22) rotate(-87.27)"/><ellipse class="cls-23" cx="93.25" cy="155.21" rx="1.73" ry="1.1" transform="translate(-66.22 240.97) rotate(-87.27)"/><ellipse class="cls-22" cx="115.45" cy="155.72" rx="5.94" ry="3.24" transform="translate(-45.59 263.63) rotate(-87.27)"/><ellipse class="cls-23" cx="116.64" cy="156.32" rx="1.73" ry="1.1" transform="translate(-45.05 265.39) rotate(-87.27)"/><path class="cls-24" d="M164.79,325.94s27.33,6.76,43.55-2.69"/><path class="cls-20" d="M147.74,145A17.89,17.89,0,0,0,141,132.55"/></g><path class="cls-19" d="M112,146.85s1.81,5.78,10.61,11.22C122.65,158.07,122.56,147.71,112,146.85Z"/><path class="cls-19" d="M95.91,146.16s-1.82,5.78-10.62,11.22C85.29,157.38,85.38,147,95.91,146.16Z"/></g></g></svg>