<svg xmlns="http://www.w3.org/2000/svg" xmlns:xlink="http://www.w3.org/1999/xlink" viewBox="0 0 320 640"><defs><style>.cls-1{fill:url(#radial-gradient);}.cls-2{font-size:29px;}.cls-2,.cls-20,.cls-3{fill:#fff;}.cls-2,.cls-3{font-family:Montserrat-Bold, Montserrat;font-weight:700;}.cls-3{font-size:20px;}.cls-4{letter-spacing:0em;}.cls-5{letter-spacing:-0.02em;}.cls-6{letter-spacing:-0.02em;}.cls-7{letter-spacing:-0.01em;}.cls-8{letter-spacing:0.01em;}.cls-9{letter-spacing:-0.02em;}.cls-10{letter-spacing:0.01em;}.cls-11{letter-spacing:-0.01em;}.cls-12{letter-spacing:-0.01em;}.cls-13{letter-spacing:0.01em;}.cls-14{letter-spacing:-0.01em;}.cls-15{letter-spacing:-0.01em;}.cls-16{letter-spacing:0em;}.cls-17{letter-spacing:0.02em;}.cls-18{fill:#939598;}.cls-19{fill:#231f20;}.cls-21,.cls-23{fill:none;stroke-miterlimit:10;stroke-width:1.55px;}.cls-21{stroke:#231f20;}.cls-22{fill:#e9c9d8;}.cls-23{stroke:#414042;}</style><radialGradient id="radial-gradient" cx="160" cy="320" r="252.98" gradientUnits="userSpaceOnUse"><stop offset="0" stop-color="#59afc5"/><stop offset="0.23" stop-color="#4aa8c0"/><stop offset="0.66" stop-color="#2396b2"/><stop offset="1" stop-color="#0085a6"/></radialGradient></defs><title>Asset 48</title><g id="Layer_2" data-name="Layer 2"><g id="Amazon_Environment" data-name="Amazon Environment"><rect class="cls-1" width="320" height="640"/><text class="cls-2" transform="translate(100.38 434.63)">UH OH!</text><text class="cls-3" transform="translate(28.39 472.98)"><tspan class="cls-4">L</tspan><tspan x="12" y="0">oo</tspan><tspan class="cls-5" x="38.2" y="0">k</tspan><tspan x="51.04" y="0">s li</tspan><tspan class="cls-6" x="79.36" y="0">k</tspan><tspan x="92.1" y="0">e </tspan><tspan class="cls-7" x="110.38" y="0">y</tspan><tspan x="122.04" y="0">ou </tspan><tspan class="cls-8" x="154.54" y="0">n</tspan><tspan x="168.48" y="0">eed </tspan><tspan class="cls-9" x="213.22" y="0">t</tspan><tspan x="221.58" y="0">o do </tspan><tspan x="7.43" y="24">so</tspan><tspan class="cls-10" x="31.15" y="24">m</tspan><tspan x="52.25" y="24">e </tspan><tspan class="cls-11" x="70.53" y="24">r</tspan><tspan class="cls-12" x="78.97" y="24">e</tspan><tspan x="91.39" y="24">vi</tspan><tspan class="cls-12" x="109.37" y="24">e</tspan><tspan x="121.79" y="24">w! Ma</tspan><tspan class="cls-6" x="183.41" y="24">k</tspan><tspan x="196.15" y="24">e su</tspan><tspan class="cls-11" x="238.79" y="24">r</tspan><tspan x="247.23" y="24">e </tspan><tspan class="cls-7" x="-6.68" y="48">y</tspan><tspan x="4.98" y="48">ou go th</tspan><tspan class="cls-11" x="92.76" y="48">r</tspan><tspan x="101.2" y="48">ough t</tspan><tspan class="cls-10" x="170.22" y="48">h</tspan><tspan x="184.16" y="48">e animal </tspan><tspan class="cls-12" x="-6.21" y="72">f</tspan><tspan class="cls-10" x="1.33" y="72">a</tspan><tspan class="cls-13" x="13.79" y="72">c</tspan><tspan x="25.77" y="72">ts </tspan><tspan class="cls-10" x="50.75" y="72">a</tspan><tspan x="63.21" y="72">gain be</tspan><tspan class="cls-14" x="141.47" y="72">f</tspan><tspan x="149.07" y="72">o</tspan><tspan class="cls-15" x="162.17" y="72">r</tspan><tspan class="cls-16" x="170.61" y="72">e </tspan><tspan class="cls-15" x="188.89" y="72">r</tspan><tspan x="197.33" y="72">et</tspan><tspan class="cls-17" x="218.65" y="72">r</tspan><tspan x="227.57" y="72">yi</tspan><tspan class="cls-8" x="245.55" y="72">n</tspan><tspan x="259.49" y="72">g </tspan><tspan x="88.29" y="96">t</tspan><tspan class="cls-10" x="96.99" y="96">h</tspan><tspan x="110.93" y="96">e qui</tspan><tspan class="cls-10" x="162.77" y="96">z</tspan><tspan x="173.75" y="96">.</tspan></text><g id="Crococdile"><path class="cls-18" d="M140.38,197.73s7.31,14.68,2.64,24.42-10.15,15.56-3,17.79,19.22-4.33,19.55-19S140.38,197.73,140.38,197.73Z"/><path class="cls-18" d="M110.35,155.79s7.24-35.58,57.56-29.09c31.59,3.38,43.23,28.14,43.23,28.14s37.07,13.19,41,57.5a21.39,21.39,0,0,1-5.41,16.24L245,230.47a1.66,1.66,0,0,1-2.43.14,1.76,1.76,0,0,1-.55-.82c-1.62-6.08-6-19.27-13.12-24.35,0,0,23.14,61.63-59.66,111a22.42,22.42,0,0,1,10.48,21c-.88,13.19-4.12,13.25-3.31,18.13a2,2,0,0,1-1.63,2.36h-.13c-6.09.68-23.27,0-31.66-27.87,0,0-21.38,11-42.28,1.42a3.26,3.26,0,0,1-1.55-4.33,2.65,2.65,0,0,1,.6-.88,17,17,0,0,0,2.85-4.05c2.84-5.55,5.48-12.32,34.29-23.27,0,0,20.7-15.83,27.87-34s-23.27-73.33-35.17-79.55-48.57-23.41-46.21-29C87.08,147.87,110.35,155.79,110.35,155.79Z"/><circle class="cls-19" cx="154.72" cy="151.66" r="6.29"/><circle class="cls-20" cx="156.75" cy="151.26" r="2.77"/><path class="cls-21" d="M83.42,156.47c13.19-.88,26.59,1.82,42.79,20.2"/><path class="cls-22" d="M123.4,182.37s33.69,26.45,31.12,66.09-18,50.47-18,50.47,15.15,9.33,29.49-6.63,17.32-33.15,14.61-59.33S137.61,186,123.4,182.37Z"/><path class="cls-23" d="M187.8,196.72s9.61,4.73,10.62,18.67-4,30-10.82,30.91,0-27.74-13.8-39.64"/></g><path class="cls-18" d="M152.27,141.15s4.57,11.94,12.78,16.41C165.05,157.56,165.57,142.81,152.27,141.15Z"/></g></g></svg>