<svg xmlns="http://www.w3.org/2000/svg" xmlns:xlink="http://www.w3.org/1999/xlink" viewBox="0 0 320 640"><defs><style>.cls-1{fill:url(#radial-gradient);}.cls-2{font-size:29px;}.cls-2,.cls-21,.cls-6{fill:#fff;}.cls-2,.cls-6{font-family:Montserrat-Bold, Montserrat;font-weight:700;}.cls-3{letter-spacing:-0.01em;}.cls-4{letter-spacing:0.02em;}.cls-5{letter-spacing:0em;}.cls-6{font-size:20px;}.cls-7{letter-spacing:-0.02em;}.cls-8{letter-spacing:-0.01em;}.cls-9{letter-spacing:-0.01em;}.cls-10{letter-spacing:-0.01em;}.cls-11{letter-spacing:0.01em;}.cls-12{letter-spacing:0.01em;}.cls-13{letter-spacing:-0.01em;}.cls-14{letter-spacing:0em;}.cls-15{letter-spacing:0.01em;}.cls-16{fill:none;stroke:#27aae1;stroke-miterlimit:10;}.cls-17{fill:#27aae1;}.cls-18{fill:#085083;}.cls-19{fill:#1b75bc;}.cls-20{fill:#231f20;}</style><radialGradient id="radial-gradient" cx="160" cy="320" r="252.98" gradientUnits="userSpaceOnUse"><stop offset="0" stop-color="#59afc5"/><stop offset="0.23" stop-color="#4aa8c0"/><stop offset="0.66" stop-color="#2396b2"/><stop offset="1" stop-color="#0085a6"/></radialGradient></defs><title>Asset 47</title><g id="Layer_2" data-name="Layer 2"><g id="Amazon_Environment" data-name="Amazon Environment"><rect class="cls-1" width="320" height="640"/><text class="cls-2" transform="translate(80.52 434.63)">NICE T<tspan class="cls-3" x="99.79" y="0">R</tspan><tspan class="cls-4" x="120.81" y="0">Y</tspan><tspan class="cls-5" x="141" y="0">!</tspan></text><text class="cls-6" transform="translate(27.15 472.98)">Ma<tspan class="cls-7" x="31.44" y="0">k</tspan><tspan x="44.18" y="0">e su</tspan><tspan class="cls-8" x="86.82" y="0">r</tspan><tspan x="95.26" y="0">e </tspan><tspan class="cls-9" x="113.54" y="0">y</tspan><tspan x="125.2" y="0">ou </tspan><tspan class="cls-8" x="157.7" y="0">r</tspan><tspan class="cls-10" x="166.14" y="0">e</tspan><tspan x="178.56" y="0">vi</tspan><tspan class="cls-10" x="196.54" y="0">e</tspan><tspan x="208.96" y="0">w t</tspan><tspan class="cls-11" x="242.06" y="0">h</tspan><tspan x="256" y="0">e </tspan><tspan x="1" y="24">animal </tspan><tspan class="cls-10" x="78.18" y="24">f</tspan><tspan class="cls-11" x="85.72" y="24">a</tspan><tspan class="cls-12" x="98.18" y="24">c</tspan><tspan x="110.16" y="24">ts </tspan><tspan class="cls-11" x="135.14" y="24">a</tspan><tspan x="147.6" y="24">gain be</tspan><tspan class="cls-13" x="225.86" y="24">f</tspan><tspan x="233.46" y="24">o</tspan><tspan class="cls-8" x="246.56" y="24">r</tspan><tspan class="cls-14" x="255" y="24">e </tspan><tspan class="cls-9" x="38.73" y="48">y</tspan><tspan x="50.39" y="48">ou </tspan><tspan class="cls-8" x="82.89" y="48">r</tspan><tspan x="91.33" y="48">et</tspan><tspan class="cls-15" x="112.65" y="48">r</tspan><tspan x="121.57" y="48">y t</tspan><tspan class="cls-11" x="147.89" y="48">h</tspan><tspan x="161.83" y="48">e qui</tspan><tspan class="cls-11" x="213.67" y="48">z</tspan><tspan x="224.65" y="48">.</tspan></text><g id="Crab"><path class="cls-16" d="M160,205.53s.58-41.08,5.25-47.58"/><path class="cls-17" d="M158.31,210.2s.45-2.21,1.33-6,2.19-9.25,4-15.72,4-14,6.71-21.9a165,165,0,0,1,10.29-24.19,58.6,58.6,0,0,1,7.57-11.09,24.71,24.71,0,0,1,5-4.33,12,12,0,0,1,6.29-1.85h1.57l1.6.17c.53.1,1,.24,1.55.36a11.17,11.17,0,0,1,1.47.52,11.56,11.56,0,0,1,4.7,3.75,21.11,21.11,0,0,1,3.51,10.24,50.74,50.74,0,0,1,.07,9.14c-.21,2.71-.54,5.06-.87,7-.66,3.85-1.26,6-1.26,6s.56-2.16,1.13-6c.29-1.92.57-4.27.72-7a50,50,0,0,0-.26-9.07c-.45-3.25-1.31-6.89-3.59-9.87a10.81,10.81,0,0,0-4.47-3.41,11.16,11.16,0,0,0-1.38-.46c-.48-.1-1-.22-1.45-.3l-1.47-.13h-1.55a11,11,0,0,0-5.73,1.81,22.83,22.83,0,0,0-4.74,4.25,56.86,56.86,0,0,0-7.15,11,164.47,164.47,0,0,0-9.69,24.09c-2.56,7.92-4.59,15.43-6.2,21.89s-2.81,11.89-3.6,15.69-1.19,6-1.19,6Z"/><path class="cls-18" d="M169.23,153.47c-.44-.37-1.78.49-3,1.93a5.64,5.64,0,0,0-1,1.79,6.11,6.11,0,0,0,0-2.09c-.38-1.84-1.14-3.25-1.7-3.13s-.72,1.7-.34,3.55a6.46,6.46,0,0,0,1.69,3.12h0a6.83,6.83,0,0,0,3-1.92C169,155.31,169.68,153.85,169.23,153.47Z"/><path class="cls-16" d="M157.52,205.53s-.58-41.08-5.25-47.58"/><path class="cls-17" d="M155.54,210.78s-.41-2.17-1.22-6-2-9.21-3.69-15.67-3.73-14-6.34-21.85a164.52,164.52,0,0,0-9.82-24.08,56.34,56.34,0,0,0-7.24-10.91,23.43,23.43,0,0,0-4.74-4.15,11,11,0,0,0-5.74-1.8c-.52,0-1,0-1.55,0l-1.47.13c-.49.09-1,.21-1.45.31a11.26,11.26,0,0,0-1.38.48,10.56,10.56,0,0,0-4.44,3.43,20.53,20.53,0,0,0-3.54,9.9,49,49,0,0,0-.2,9.06c.16,2.71.46,5.06.75,7,.61,3.85,1.17,6,1.17,6s-.61-2.14-1.29-6c-.34-1.92-.69-4.26-.91-7a49.83,49.83,0,0,1,0-9.14,21,21,0,0,1,3.46-10.24,11.36,11.36,0,0,1,4.68-3.78,12.94,12.94,0,0,1,1.47-.54c.51-.12,1-.26,1.54-.36l1.64-.18c.54,0,1,0,1.57,0a12.06,12.06,0,0,1,6.29,1.8,24.61,24.61,0,0,1,5.1,4.28,58,58,0,0,1,7.64,11,165.8,165.8,0,0,1,10.4,24.16c2.8,7.9,5,15.4,6.84,21.86s3.15,11.88,4,15.69,1.36,6,1.36,6Z"/><path class="cls-18" d="M148.3,153.47c.44-.37,1.79.49,3,1.93a5.84,5.84,0,0,1,1,1.79,6.11,6.11,0,0,1,0-2.09c.38-1.84,1.14-3.25,1.71-3.13s.71,1.7.33,3.55a6.54,6.54,0,0,1-1.69,3.12h0a6.75,6.75,0,0,1-3-1.92C148.5,155.31,147.86,153.85,148.3,153.47Z"/><path class="cls-19" d="M246.36,339.83a17.63,17.63,0,0,0-7-2.36,13.46,13.46,0,0,0-1.88-1.31c2.4-7.59.13-21,.13-21a1.26,1.26,0,0,1-.53.83c-2-8.88-11.83-17.8-16-21.28-.49-3.48-4.41-7.6-10.08-10.14-7.1-3.18-14.23-2.68-15.93,1.11s2.68,9.44,9.78,12.62a22.87,22.87,0,0,0,8.41,2.07c2.06,9.91,10.47,14.31,14.28,16.39l-.62-.07s2.62,16.09,4,20.81h-.56l-.8.12a.3.3,0,0,0-.24.35.31.31,0,0,0,.16.21l5.06,2.67a3.35,3.35,0,0,0,1.84.38l9.81-.8a.34.34,0,0,0,.27-.41A.35.35,0,0,0,246.36,339.83Z"/><path class="cls-19" d="M220.77,338.39c-3.55-1.6-7.77-1.56-11.21-1.09a14.94,14.94,0,0,0,3.1-6.23c1-3.89.58-7.53-.81-9.42a12.05,12.05,0,0,0,1.64-6.23c0-5.06-2.72-9.17-6.08-9.17s-6.08,4.11-6.08,9.17c0,3.7,1.46,6.87,3.55,8.32a16.44,16.44,0,0,0-2,4.89c-1.06,4.25-.47,8.17,1.24,9.86l-.23.07a.3.3,0,0,0,0,.57l5.39,2a3.34,3.34,0,0,0,1.88.12l9.6-2.15a.35.35,0,0,0,.06-.7Z"/><path class="cls-19" d="M276.47,337.92c-4.44-2-9.79-1.81-13.94-1.14,1-11.64-10.43-47.8-10.43-47.8L250,290.59c.32-3.73-1.85-9.22-6-14.27-4.91-6-11-9.4-14.75-8.63l.15-1.46s-.7-1.94-15.87-1.06a40.83,40.83,0,0,0-24.5,10l3.35,10.58c15.15,4.23,29.79-4.89,34.43-8.19a29.71,29.71,0,0,0,5.05,8.65c4,4.86,8.72,8,12.39,8.64l-1.27.95c-.94,18.72,11.78,37.84,14.72,42l-.89.26a.34.34,0,0,0-.21.45.32.32,0,0,0,.21.21L263,341a4,4,0,0,0,2.19.14l11.17-2.5a.41.41,0,0,0,.23-.53A.49.49,0,0,0,276.47,337.92Z"/><path class="cls-19" d="M71.9,339.83a17.57,17.57,0,0,1,7-2.36,12.35,12.35,0,0,1,1.85-1.35c-2.4-7.59-.13-21-.13-21a1.26,1.26,0,0,0,.53.83c2-8.88,11.83-17.8,16-21.28.49-3.48,4.41-7.6,10.09-10.14,7.09-3.18,14.22-2.68,15.92,1.11s-2.68,9.44-9.78,12.62a22.91,22.91,0,0,1-8.41,2.07c-2.06,9.91-10.47,14.31-14.28,16.39l.62-.07s-2.61,16.09-4,20.81h.56l.8.12a.29.29,0,0,1,.23.35.27.27,0,0,1-.15.21l-5.06,2.67a3.36,3.36,0,0,1-1.84.38l-9.81-.8a.36.36,0,0,1-.21-.45A.41.41,0,0,1,71.9,339.83Z"/><path class="cls-19" d="M98.49,338.39c3.55-1.6,7.77-1.56,11.21-1.09a14.94,14.94,0,0,1-3.1-6.23c-1-3.89-.57-7.53.81-9.42a12,12,0,0,1-1.64-6.23c0-5.06,2.72-9.17,6.08-9.17s6.08,4.11,6.08,9.17c0,3.7-1.46,6.87-3.55,8.32a16.59,16.59,0,0,1,2,4.89c1.06,4.25.47,8.17-1.24,9.86l.23.07a.3.3,0,0,1,0,.57l-5.32,2a3.35,3.35,0,0,1-1.88.12l-9.6-2.15a.35.35,0,0,1-.08-.7Z"/><path class="cls-19" d="M41.45,337.92c4.44-2,9.8-1.81,14-1.14-1-11.64,10.42-47.8,10.42-47.8L68,290.59c-.32-3.73,1.85-9.22,6-14.27,4.91-6,11-9.4,14.75-8.63l-.15-1.46s.7-1.94,15.87-1.06a40.83,40.83,0,0,1,24.5,10l-3.35,10.58c-15.15,4.23-29.79-4.89-34.43-8.19a30.52,30.52,0,0,1-5,8.65c-4,4.86-8.73,8-12.39,8.64l1.27.95c.94,18.72-11.78,37.84-14.73,42l.9.26a.34.34,0,0,1,.21.45.32.32,0,0,1-.21.21L55,341a4,4,0,0,1-2.19.14l-11.27-2.45a.41.41,0,0,1-.31-.49A.44.44,0,0,1,41.45,337.92Z"/><path class="cls-19" d="M125.35,256.35C125,253.24,117.87,240,111.09,237a13.1,13.1,0,0,0-7.18,2,11.18,11.18,0,0,0-2.22-3.14c-3.11-3.12-7.3-4-9.34-1.94s-1.18,6.23,1.94,9.34a10.86,10.86,0,0,0,3.81,2.53,23.33,23.33,0,0,0-1.28,3.31s5.06,15.16,25.77,18C122.59,267.12,125.69,259.45,125.35,256.35Z"/><path class="cls-19" d="M241.85,218.56c-3.45-4.65-11.92-4.07-18.92,1.31a22.3,22.3,0,0,0-6.07,7,16.29,16.29,0,0,0-4-1c-10.3,3-23.17,20.78-24.29,25.22s1.76,16.25,1.76,16.25c30.16,0,40.46-21.09,40.46-21.09a34.41,34.41,0,0,0-1.55-6.25,22.31,22.31,0,0,0,6.15-3.36C242.43,231.33,245.3,223.2,241.85,218.56Z"/><path class="cls-18" d="M187.86,318.3c0,8.67-13.41,17.81-30,17.81s-30-9.14-30-17.81,13.42-15.69,30-15.69S187.86,309.63,187.86,318.3Z"/><path class="cls-18" d="M210.44,285.22l-32.5-58a21.74,21.74,0,0,0-14.46-10.73c-1-6.62-2.85-15.09-6-12.88-2.84,2-4.16,8.1-4.77,13.18a21.71,21.71,0,0,0-13.2,10.43l-32.5,58a22,22,0,0,0,19.22,32.83h65a22.06,22.06,0,0,0,19.21-32.83Z"/><ellipse class="cls-20" cx="143.56" cy="221.02" rx="4.3" ry="11.04"/><ellipse class="cls-20" cx="173.05" cy="221.02" rx="4.3" ry="11.04"/><path class="cls-18" d="M273.67,140c-3.44,39.81-23.84,47.48-29.32,48.83a1.91,1.91,0,0,1-2.11-.89c-2.81-4.7-12.22-22.21-10.37-37.91a2,2,0,0,0-1.83-2.15,1.91,1.91,0,0,0-1.17.26c-11.75,8-14.11,22.4-13,44.31,1.5,28.71,30.25,30.55,38.24,29.79,20.25-1.94,34.46-26.78,31.72-55.5a68.71,68.71,0,0,0-8.53-27.63,2,2,0,0,0-3.63.89Z"/><path class="cls-18" d="M76.51,208.78c11,9.28,8.72,17.58,7.91,19.66a.78.78,0,0,1-.72.51c-2,0-9.23-.53-13.44-4.36a.77.77,0,0,0-1.07.15.75.75,0,0,0-.15.46c-.22,5.52,3.48,9.24,10.18,13.35,8.78,5.4,15.65-3.69,17.18-6.48,3.89-7.06-.29-16.83-9.35-21.82a22.67,22.67,0,0,0-10-2.85.81.81,0,0,0-.54,1.38Z"/><path class="cls-17" d="M159.23,229.12l-.44,3.66c-.29,2.32-.62,5.65-1,9.64s-.85,8.64-1.23,13.63c-.21,2.49-.35,5.07-.52,7.69s-.29,5.28-.37,7.94-.17,5.33-.17,7.95,0,5.2.09,7.69c.16,5,.51,9.63,1,13.59.11,1,.27,1.94.41,2.84s.25,1.75.42,2.55c.27,1.6.6,3,.88,4.11s.55,2,.7,2.62l.26.93-.36-.89c-.22-.59-.63-1.43-1-2.55s-.83-2.47-1.24-4.06c-.23-.79-.44-1.64-.64-2.53s-.42-1.84-.59-2.84q-.59-3-1-6.44c-.28-2.29-.51-4.73-.64-7.25-.08-1.26-.15-2.54-.19-3.83s-.08-2.61-.08-3.94c0-2.64,0-5.33.1-8s.26-5.36.44-8,.44-5.22.7-7.72.57-4.92.87-7.2.64-4.44,1-6.42c.65-4,1.33-7.26,1.8-9.55S159.23,229.12,159.23,229.12Z"/><ellipse class="cls-21" cx="145.6" cy="218.7" rx="1" ry="2.58"/><ellipse class="cls-21" cx="175.44" cy="218.7" rx="1" ry="2.58"/></g><path class="cls-19" d="M148.91,205.2c.7,2.46-3.25,14.3-14.86,9.75Z"/><path class="cls-19" d="M169,205.08c-.7,2.45,3.25,14.29,14.85,9.75Z"/></g></g></svg>