<svg xmlns="http://www.w3.org/2000/svg" xmlns:xlink="http://www.w3.org/1999/xlink" viewBox="0 0 320 640"><defs><style>.cls-1{fill:url(#radial-gradient);}.cls-2{font-size:29px;}.cls-2,.cls-21,.cls-5{fill:#fff;}.cls-2,.cls-5{font-family:Montserrat-Bold, Montserrat;font-weight:700;}.cls-3{letter-spacing:-0.01em;}.cls-4{letter-spacing:0.02em;}.cls-5{font-size:20px;}.cls-6{letter-spacing:-0.01em;}.cls-7{letter-spacing:0.01em;}.cls-8{letter-spacing:-0.03em;}.cls-9{letter-spacing:-0.02em;}.cls-10{letter-spacing:-0.01em;}.cls-11{letter-spacing:-0.01em;}.cls-12{letter-spacing:0.01em;}.cls-13{letter-spacing:-0.01em;}.cls-14{letter-spacing:0.01em;}.cls-15{letter-spacing:0em;}.cls-16{letter-spacing:0.02em;}.cls-17{letter-spacing:0.01em;}.cls-18{fill:#295624;}.cls-19{fill:#457a38;}.cls-20{fill:#231f20;}.cls-22{fill:none;stroke:#231f20;stroke-miterlimit:10;stroke-width:1.65px;}.cls-23{fill:#efe6a2;}</style><radialGradient id="radial-gradient" cx="160" cy="320" r="252.98" gradientUnits="userSpaceOnUse"><stop offset="0" stop-color="#59afc5"/><stop offset="0.23" stop-color="#4aa8c0"/><stop offset="0.66" stop-color="#2396b2"/><stop offset="1" stop-color="#0085a6"/></radialGradient></defs><title>Asset 50</title><g id="Layer_2" data-name="Layer 2"><g id="Amazon_Environment" data-name="Amazon Environment"><rect class="cls-1" width="320" height="640"/><text class="cls-2" transform="translate(91.73 434.63)">ALMO<tspan class="cls-3" x="91.9" y="0">S</tspan><tspan class="cls-4" x="110.11" y="0">T</tspan><tspan x="128.61" y="0">!</tspan></text><text class="cls-5" transform="translate(44.47 472.98)">Ni<tspan class="cls-6" x="22.18" y="0">c</tspan><tspan x="33.86" y="0">e t</tspan><tspan class="cls-7" x="60.84" y="0">r</tspan><tspan class="cls-8" x="69.76" y="0">y</tspan><tspan x="81.08" y="0">. Ma</tspan><tspan class="cls-9" x="123.42" y="0">k</tspan><tspan x="136.16" y="0">e su</tspan><tspan class="cls-10" x="178.8" y="0">r</tspan><tspan x="187.24" y="0">e </tspan><tspan class="cls-11" x="205.52" y="0">y</tspan><tspan x="217.18" y="0">ou </tspan><tspan class="cls-10" x="-6.21" y="24">r</tspan><tspan class="cls-11" x="2.23" y="24">e</tspan><tspan class="cls-12" x="14.55" y="24">a</tspan><tspan x="27.01" y="24">d th</tspan><tspan class="cls-10" x="69.03" y="24">r</tspan><tspan x="77.47" y="24">ough t</tspan><tspan class="cls-12" x="146.49" y="24">h</tspan><tspan x="160.43" y="24">e animal </tspan><tspan class="cls-13" x="-17.84" y="48">f</tspan><tspan class="cls-12" x="-10.3" y="48">a</tspan><tspan class="cls-14" x="2.16" y="48">c</tspan><tspan x="14.14" y="48">ts </tspan><tspan class="cls-12" x="39.12" y="48">a</tspan><tspan x="51.58" y="48">gain be</tspan><tspan class="cls-6" x="129.84" y="48">f</tspan><tspan x="137.44" y="48">o</tspan><tspan class="cls-10" x="150.54" y="48">r</tspan><tspan class="cls-15" x="158.98" y="48">e </tspan><tspan class="cls-10" x="177.26" y="48">r</tspan><tspan x="185.7" y="48">et</tspan><tspan class="cls-16" x="207.02" y="48">r</tspan><tspan x="215.94" y="48">yi</tspan><tspan class="cls-17" x="233.92" y="48">n</tspan><tspan x="247.86" y="48">g </tspan><tspan x="76.66" y="72">t</tspan><tspan class="cls-12" x="85.36" y="72">h</tspan><tspan x="99.3" y="72">e qui</tspan><tspan class="cls-12" x="151.14" y="72">z</tspan><tspan x="162.12" y="72">.</tspan></text><path class="cls-18" d="M248.34,294.41l-.52,18.74s3.09,3.29,0,6-7,0-7,0-4.53,6-12.49.73c0,0-8.28,2-8.67-3.62s6.31-5.46,6.31-5.46l1.25-15.9"/><path class="cls-18" d="M133.43,296.39s1.9,17.35-16.7,17.09a11.93,11.93,0,0,1-11.64,6.38c-8.54-.53-9.2-4.34-9.2-4.34s-11,2.3-8.42-2.57,11.9-5,11.9-5-2.69-6.51,2.7-10.46"/><path class="cls-18" d="M238.15,248.92l3.69-10a.65.65,0,0,1,.85-.33c.07,0,.07.07.13.07l3.62,3a.68.68,0,0,0,.92-.13.24.24,0,0,0,.06-.19l1.12-4.94a.62.62,0,0,1,.72-.46L256.5,237a.62.62,0,0,0,.65-.66v-.2l-2.49-6.31a.76.76,0,0,1,.26-.79l5.32-3.35a.71.71,0,0,0,.14-.92,1,1,0,0,0-.27-.2l-8.22-3a.65.65,0,0,1-.39-.72l1.51-7.3a.65.65,0,0,0-.59-.72h-.2l-9.46,2.83a.65.65,0,0,1-.6-.14l-6.11-6.11a.64.64,0,0,0-.92.07h0l-4.34,5.58a.58.58,0,0,1-.66.2l-8.67-2.76a.67.67,0,0,0-.79.46h0l-1.52,9a.62.62,0,0,1-.78.46h-.07l-5.39-2.57s7.43-23.66,32.54-17.75,32.68,29.13,21,36.36C254.39,245.7,238.15,248.92,238.15,248.92Z"/><path class="cls-18" d="M131.06,247.74l6.71-8a1.15,1.15,0,0,1,1.44-.33l6.31,3.09a1.38,1.38,0,0,0,1.25-.06l6.91-4.73a1.09,1.09,0,0,1,1.38,0l6.7,4.86a1.24,1.24,0,0,0,1.25.13l9.47-4.8a1.29,1.29,0,0,1,1.51.27l3.81,4.33a1.34,1.34,0,0,0,1.45.33l7.69-3.61a1.23,1.23,0,0,1,1.32.19l7,5.86a1.22,1.22,0,0,0,1.39.13l8.87-4.8a1.19,1.19,0,0,1,1.32.13l6.57,5.52a1.19,1.19,0,0,0,1.58,0l4.53-3.75a1.21,1.21,0,0,1,1.58,0l5.92,4.87a1.21,1.21,0,0,0,1.58,0l5.26-4.41a1.21,1.21,0,0,1,1.64.07l5,5.19a1.22,1.22,0,0,0,1.7.07l5.4-5.06a1.22,1.22,0,0,1,1.7,0l7.7,7.49"/><path class="cls-19" d="M163.08,298.69s-23.14-3.09-28.21-.92-25.5,6.77-83.09-3.68l-8.16-3.16-12-15.45s-.26-4.67,9.86-8.74,27-9.6,27-9.6-2.11-21,13.41-23c12.69-1.64,14.46,10.65,14.46,10.65s1.45-12.89,15.72-9.6c11,2.57,9.07,15.85,9.07,15.85s13-8.95,41.48-7.63,55.75,9.66,76,4.6c21.69-5.46,26.82-14.13,23.34-25s-33.66-29.78-52.4,1.38c0,0-12.23-29.58,30.11-32s58.58,29,55.62,52.07-7.17,39.45-40,50c0,0,6.24,9.8,6.24,14.92,0,0,18.15,4.08,16,9.47a5.92,5.92,0,0,1-7.3,3.81s3.29,2.7-1.91,5.13-16.56-1.05-17.88-3.55c0,0-9.46,4.34-14.4,0s4.34-10.32,4.34-10.32a54.91,54.91,0,0,0-3.55-15.19Z"/><path class="cls-19" d="M49.61,267.46s8.54-8.41,17.61-2.56a18.86,18.86,0,0,1,7.89,22.22c-2.3,6.24-23.47,7.29-30,6.9s-25.64.39-20.32-19.66C31.2,256.35,49.61,267.46,49.61,267.46Z"/><path class="cls-19" d="M132,292.31c20.45,2.17,11.77,24,11.77,24s-12.23,7.29-1.38,10.06c7.62,1.9,10.32-2.44,10.32-2.44s1.91,5.72,11.77,4.74,2.43-5.85,2.43-5.85,8.41,1.38,6.9-4.34-11-4.47-11-4.47c7-21.17-8.28-31.17-8.28-31.17a19.8,19.8,0,0,0-17.09-1.38"/><ellipse class="cls-20" cx="82.28" cy="245.9" rx="4.67" ry="5.79"/><ellipse class="cls-21" cx="83.92" cy="246.82" rx="1.64" ry="1.84"/><ellipse class="cls-20" cx="107.79" cy="245.9" rx="4.67" ry="5.79"/><ellipse class="cls-21" cx="109.37" cy="246.82" rx="1.64" ry="1.84"/><path class="cls-20" d="M66.7,270.55c0,1.58-2.3,1.58-5.19,1.58s-5.2,0-5.2-1.58,2.3-2.83,5.2-2.83S66.7,269,66.7,270.55Z"/><path class="cls-20" d="M42.31,270.16c0,1.57-2.3,1.57-5.19,1.57s-5.2,0-5.2-1.57,2.3-2.77,5.2-2.77S42.31,268.64,42.31,270.16Z"/><path class="cls-22" d="M70.45,288.56l38.7-6.82A20.17,20.17,0,0,1,123,284.2l.12.07"/><path class="cls-18" d="M134.54,263.06l8.09-5.72a2.75,2.75,0,0,1,3.22.13l4.34,3.68a2.59,2.59,0,0,0,3.16.2l6.9-4.74a2.59,2.59,0,0,1,3.29.27l3.55,3.41a2.58,2.58,0,0,0,3.15.4l7.69-4.6a2.59,2.59,0,0,1,2.83.06l6.12,4.21a2.72,2.72,0,0,0,2.82.13l6.58-3.81a2.67,2.67,0,0,1,3.15.39l3.95,3.95a2.69,2.69,0,0,0,3,.52l9.53-4.73a2.61,2.61,0,0,1,2.9.39l6.24,5.59a2.6,2.6,0,0,0,2.89.4l10.06-5a2.61,2.61,0,0,1,2.83.33l5.59,4.6a2.57,2.57,0,0,0,3,.2l6.77-4.21a2.59,2.59,0,0,1,3,.2l6.11,5Z"/><path class="cls-23" d="M209.29,224.47c1.71-23.61,18.74-25.78,29.92-27,15.18-1.71,51.87,9.2,48.45,48.64-4.21,48.32-52.6,43.79-58.58,45.37s-55.35,6.31-73.76,4.34S129,294.55,129,294.55l1.44,4.53s24.06,8.29,69.43,3.42c0,0,29.45,3.62,58.57-7.23s30.84-18,37.67-45.3c0,0,5.85-37.34-27-52.85s-57.32-.2-60.41,10.12S209.29,224.47,209.29,224.47Z"/><path class="cls-19" d="M257.09,297.64c-2.57-5.85-10.92-16.57-10.92-16.57l-17.35,10.12s7.56,6.25,9,10.33Z"/><path class="cls-23" d="M142.57,297.11s-4.41-7.69-8-8.61l-16.11-1.45-56.47,9s27.22,5.19,53.25,5.19C128.1,301.25,142.57,297.11,142.57,297.11Z"/><path class="cls-19" d="M87.05,238.35s-3.92,7.82-12.53,8.42C74.52,246.77,76.2,237.58,87.05,238.35Z"/><path class="cls-19" d="M104.27,238.35s3.92,7.82,12.53,8.42C116.8,246.77,115.11,237.58,104.27,238.35Z"/></g></g></svg>