<svg xmlns="http://www.w3.org/2000/svg" xmlns:xlink="http://www.w3.org/1999/xlink" viewBox="0 0 203.87 215.09"><defs><style>.cls-1,.cls-2,.cls-4{fill:#231f20;}.cls-1,.cls-4,.cls-5{stroke:#231f20;stroke-miterlimit:10;}.cls-3{clip-path:url(#clip-path);}.cls-4{stroke-width:1.27px;}.cls-5{fill:none;}</style><clipPath id="clip-path"><path class="cls-1" d="M81.25,176.85s34.35-11,47.07-35.2,27.57-46.22,44.53-42.83,25.87,28.41,9.75,49.61-62.33,46.65-86.08,43.68Z"/></clipPath></defs><title>Asset 9</title><g id="Layer_2" data-name="Layer 2"><g id="Orca"><path class="cls-1" d="M28.56,200.25s-9.12-.51-15.7,5.42a2.21,2.21,0,0,0,1.64,3.85c2.81-.21,6,.07,7.77,2a2.28,2.28,0,0,0,1.57.77c2.56.11,9.19.55,12,2a2.31,2.31,0,0,0,1.67.21c2.07-.57,6.89-2.32,9-6.77C49.31,202,28.56,200.25,28.56,200.25Z"/><path class="cls-1" d="M92.56,200.25s9.12-.51,15.7,5.42a2.21,2.21,0,0,1-1.64,3.85c-2.82-.21-6,.07-7.77,2a2.28,2.28,0,0,1-1.57.77c-2.56.11-9.2.55-12,2a2.32,2.32,0,0,1-1.67.21c-2.08-.57-6.89-2.32-9-6.77C71.81,202,92.56,200.25,92.56,200.25Z"/><ellipse class="cls-1" cx="59.34" cy="44.57" rx="47.07" ry="44.07"/><path class="cls-1" d="M18.46,7.85c4.41.86,7.14,6.09,6.39,11.91l8.93-5.19a38.89,38.89,0,0,1-8.33-9.36C22.77.75,14.25,3.86,13,9.13A7.24,7.24,0,0,1,18.46,7.85Z"/><path class="cls-1" d="M20.53,22.27l4.32-2.51c.75-5.82-2-11-6.39-11.91A7.24,7.24,0,0,0,13,9.13a5.79,5.79,0,0,0,.29,3.64C16.2,20,20.53,22.27,20.53,22.27Z"/><path class="cls-1" d="M99.3,6.42c-4.41.86-7.14,6.08-6.38,11.91L84,13.14a38.89,38.89,0,0,0,8.33-9.36C95-.68,103.51,2.43,104.81,7.69A7.25,7.25,0,0,0,99.3,6.42Z"/><path class="cls-1" d="M97.24,20.84l-4.32-2.51c-.76-5.83,2-11,6.38-11.91a7.25,7.25,0,0,1,5.51,1.27,5.82,5.82,0,0,1-.29,3.65C101.57,18.56,97.24,20.84,97.24,20.84Z"/><path class="cls-2" d="M81.25,176.85s34.35-11,47.07-35.2,27.57-46.22,44.53-42.83,25.87,28.41,9.75,49.61-62.33,46.65-86.08,43.68Z"/><g class="cls-3"><path class="cls-1" d="M81.25,176.85s34.35-11,47.07-35.2,27.57-46.22,44.53-42.83,25.87,28.41,9.75,49.61-62.33,46.65-86.08,43.68Z"/><path class="cls-4" d="M187.06,92.25v81.84"/><path class="cls-4" d="M183.24,92.25v81.84"/><path class="cls-4" d="M179.42,92.25v81.84"/><path class="cls-4" d="M175.61,92.25v81.84"/><path class="cls-4" d="M171.79,92.25v81.84"/><path class="cls-4" d="M168,92.25v81.84"/><path class="cls-4" d="M164.16,92.25v81.84"/><path class="cls-4" d="M160.34,92.25v81.84"/><path class="cls-4" d="M157,102.42v81.85"/><path class="cls-4" d="M153.56,102.42v81.85"/><path class="cls-4" d="M149.74,102.42v81.85"/><path class="cls-4" d="M145.92,102.42v81.85"/><path class="cls-4" d="M142.11,102.42v81.85"/><path class="cls-4" d="M138.29,102.42v81.85"/><path class="cls-4" d="M134.47,102.42v81.85"/><path class="cls-4" d="M130.66,105v81.84"/><path class="cls-4" d="M126.63,125.32v81.85"/><path class="cls-4" d="M122.81,125.32v81.85"/><path class="cls-4" d="M119,127.87v81.84"/><line class="cls-4" x1="109.03" y1="189.57" x2="201.05" y2="146.31"/><line class="cls-4" x1="106.91" y1="185.54" x2="198.93" y2="142.29"/><line class="cls-4" x1="104.79" y1="181.51" x2="196.81" y2="138.26"/><line class="cls-4" x1="102.67" y1="177.48" x2="194.69" y2="134.23"/><line class="cls-4" x1="100.55" y1="173.45" x2="192.57" y2="130.2"/><line class="cls-4" x1="106.91" y1="165.82" x2="198.93" y2="122.57"/><line class="cls-4" x1="104.79" y1="161.79" x2="196.81" y2="118.54"/><line class="cls-4" x1="102.67" y1="157.76" x2="194.69" y2="114.51"/><line class="cls-4" x1="100.55" y1="153.74" x2="192.57" y2="110.48"/><line class="cls-4" x1="98.43" y1="149.71" x2="190.45" y2="106.45"/><line class="cls-4" x1="111.57" y1="138.89" x2="203.59" y2="95.64"/><line class="cls-4" x1="109.45" y1="134.86" x2="201.47" y2="91.61"/><line class="cls-4" x1="107.33" y1="130.84" x2="199.35" y2="87.58"/><line class="cls-4" x1="105.21" y1="126.81" x2="197.23" y2="83.55"/><line class="cls-4" x1="103.09" y1="122.78" x2="195.11" y2="79.52"/></g><path class="cls-5" d="M81.25,176.85s34.35-11,47.07-35.2,27.57-46.22,44.53-42.83,25.87,28.41,9.75,49.61-62.33,46.65-86.08,43.68Z"/><path class="cls-1" d="M69,209.5H49.73C20.21,209.5-2.67,189.12.86,166l9.61-63c3-19.54,24-34.24,48.87-34.24h0c24.91,0,45.9,14.7,48.88,34.24l9.61,63C121.36,189.12,98.47,209.5,69,209.5Z"/><path class="cls-1" d="M68.42,51.51l-3.61,5.23c-2.15,3.12-7.52,3.12-9.67,0l-3.61-5.23c-2.15-3.11.54-7,4.84-7h7.21C67.88,44.5,70.57,48.4,68.42,51.51Z"/><ellipse class="cls-1" cx="40.06" cy="31.67" rx="5.42" ry="7.83"/><circle class="cls-1" cx="42.64" cy="30" r="1.83"/><ellipse class="cls-1" cx="75.73" cy="31.67" rx="5.42" ry="7.83"/><circle class="cls-1" cx="78.31" cy="30" r="1.83"/><path class="cls-1" d="M45.43,47.25s-26.25-3.37-41.5,1.87"/><path class="cls-1" d="M44.68,49.88s-29,2.24-39.25,8.37"/><path class="cls-1" d="M45.18,53.38S15.43,60.5,8.68,69.12"/><path class="cls-1" d="M74.43,47.25s26.25-3.37,41.5,1.88"/><path class="cls-1" d="M75.18,49.88s29,2.25,39.25,8.37"/><path class="cls-1" d="M74.68,53.38s29.75,7.12,36.5,15.75"/><path class="cls-1" d="M52.31,63.38v8.37H66.43V63.12a32,32,0,0,1-7-.62S57.81,63.38,52.31,63.38Z"/><path class="cls-1" d="M45,59.88A15.64,15.64,0,0,0,59.4,62.5V51.25"/><path class="cls-1" d="M74.09,59.88A15.61,15.61,0,0,1,59.72,62.5V51.25"/><line class="cls-1" x1="59.56" y1="71.63" x2="59.56" y2="62.5"/><path class="cls-1" d="M20,103.2c-.07-.39,2.06-12.59,19.59-15.29"/><path class="cls-1" d="M43.24,100.81s-5.13,7.48-7.5,14.52a2.35,2.35,0,0,1-2.9,1.51"/><path class="cls-1" d="M42.68,101.24c-2.2-1.49-7-5.79-3.42-13.22a.79.79,0,0,1,.21-.27,13.9,13.9,0,0,1,10.14-3.13.81.81,0,0,1,.25,1.53l-.26.12a.8.8,0,0,0,.23,1.52l1.79.26A.8.8,0,0,1,52,89.48l-1,.76a.81.81,0,0,0,.56,1.44h0a.8.8,0,0,1,.58,1.41l-2.68,2.23-.14.09c-.58.3-4.45,2.38-5.43,5.37A.8.8,0,0,1,42.68,101.24Z"/><path class="cls-1" d="M102.33,105c.1-.39-1.33-12.69-18.68-16.38"/><path class="cls-1" d="M79.12,100.31s4.69,7.76,6.66,14.92a2.34,2.34,0,0,0,2.8,1.68"/><path class="cls-1" d="M79.93,101.12c2.23-1.33,7.16-5.26,4.07-12.7a.87.87,0,0,0-.19-.28,13.55,13.55,0,0,0-9.71-3.61A.79.79,0,0,0,73.77,86l.25.13a.79.79,0,0,1-.31,1.47L72,87.76a.78.78,0,0,0-.45,1.37l.92.8a.78.78,0,0,1-.62,1.37h0a.78.78,0,0,0-.64,1.35L73.65,95a.6.6,0,0,0,.13.09c.54.33,4.21,2.57,5,5.54A.79.79,0,0,0,79.93,101.12Z"/></g></g></svg>