<?xml version="1.0" encoding="utf-8"?>
<!-- Generator: Adobe Illustrator 23.0.2, SVG Export Plug-In . SVG Version: 6.00 Build 0)  -->
<svg version="1.1" id="Layer_1" xmlns="http://www.w3.org/2000/svg" xmlns:xlink="http://www.w3.org/1999/xlink" x="0px" y="0px"
	 viewBox="0 0 203.9 215.1" style="enable-background:new 0 0 203.9 215.1;" xml:space="preserve">
<style type="text/css">
	.st0{fill:#231F20;stroke:#231F20;stroke-miterlimit:10;}
	.st1{clip-path:url(#SVGID_2_);}
	.st2{fill:#231F20;stroke:#231F20;stroke-width:1.27;stroke-miterlimit:10;}
</style>
<title>Asset 9</title>
<g>
	<g id="Orca">
		<path class="st0" d="M28.6,200.2c0,0-9.1-0.5-15.7,5.4c-0.9,0.8-1,2.2-0.2,3.1c0.5,0.5,1.1,0.8,1.8,0.7c2.8-0.2,6,0.1,7.8,2
			c0.4,0.5,1,0.7,1.6,0.8c2.6,0.1,9.2,0.6,12,2c0.5,0.3,1.1,0.4,1.7,0.2c2.1-0.6,6.9-2.3,9-6.8C49.3,202,28.6,200.2,28.6,200.2z"/>
		<path class="st0" d="M92.6,200.2c0,0,9.1-0.5,15.7,5.4c0.9,0.8,1,2.2,0.2,3.1c-0.5,0.5-1.1,0.8-1.8,0.7c-2.8-0.2-6,0.1-7.8,2
			c-0.4,0.5-1,0.7-1.6,0.8c-2.6,0.1-9.2,0.6-12,2c-0.5,0.3-1.1,0.4-1.7,0.2c-2.1-0.6-6.9-2.3-9-6.8C71.8,202,92.6,200.2,92.6,200.2z
			"/>
		<ellipse class="st0" cx="59.3" cy="44.6" rx="47.1" ry="44.1"/>
		<path class="st0" d="M18.5,7.8c4.4,0.9,7.1,6.1,6.4,11.9l8.9-5.2c-3.3-2.6-6.1-5.8-8.3-9.4C22.8,0.8,14.2,3.9,13,9.1
			C14.6,8,16.5,7.5,18.5,7.8z"/>
		<path class="st0" d="M20.5,22.3l4.3-2.5c0.8-5.8-2-11-6.4-11.9C16.5,7.5,14.6,8,13,9.1c-0.3,1.2-0.2,2.5,0.3,3.6
			C16.2,20,20.5,22.3,20.5,22.3z"/>
		<path class="st0" d="M99.3,6.4c-4.4,0.9-7.1,6.1-6.4,11.9L84,13.1c3.3-2.6,6.1-5.8,8.3-9.4c2.7-4.5,11.2-1.4,12.5,3.9
			C103.2,6.5,101.2,6.1,99.3,6.4z"/>
		<path class="st0" d="M97.2,20.8l-4.3-2.5c-0.8-5.8,2-11,6.4-11.9c1.9-0.3,3.9,0.1,5.5,1.3c0.3,1.2,0.2,2.5-0.3,3.7
			C101.6,18.6,97.2,20.8,97.2,20.8z"/>
		<path class="st0" d="M81.2,176.9c0,0,34.3-11,47.1-35.2s27.6-46.2,44.5-42.8s25.9,28.4,9.8,49.6s-62.3,46.7-86.1,43.7L81.2,176.9z
			"/>
		<g>
			<defs>
				<path id="SVGID_1_" d="M81.2,176.9c0,0,34.3-11,47.1-35.2s27.6-46.2,44.5-42.8s25.9,28.4,9.8,49.6s-62.3,46.7-86.1,43.7
					L81.2,176.9z"/>
			</defs>
			<use xlink:href="#SVGID_1_"  style="overflow:visible;fill:#231F20;"/>
			<clipPath id="SVGID_2_">
				<use xlink:href="#SVGID_1_"  style="overflow:visible;"/>
			</clipPath>
			<g class="st1">
				<path class="st0" d="M81.2,176.9c0,0,34.3-11,47.1-35.2s27.6-46.2,44.5-42.8s25.9,28.4,9.8,49.6s-62.3,46.7-86.1,43.7
					L81.2,176.9z"/>
				<path class="st2" d="M187.1,92.2v81.8"/>
				<path class="st2" d="M183.2,92.2v81.8"/>
				<path class="st2" d="M179.4,92.2v81.8"/>
				<path class="st2" d="M175.6,92.2v81.8"/>
				<path class="st2" d="M171.8,92.2v81.8"/>
				<path class="st2" d="M168,92.2v81.8"/>
				<path class="st2" d="M164.2,92.2v81.8"/>
				<path class="st2" d="M160.3,92.2v81.8"/>
				<path class="st2" d="M157,102.4v81.8"/>
				<path class="st2" d="M153.6,102.4v81.8"/>
				<path class="st2" d="M149.7,102.4v81.8"/>
				<path class="st2" d="M145.9,102.4v81.8"/>
				<path class="st2" d="M142.1,102.4v81.8"/>
				<path class="st2" d="M138.3,102.4v81.8"/>
				<path class="st2" d="M134.5,102.4v81.8"/>
				<path class="st2" d="M130.7,105v81.8"/>
				<path class="st2" d="M126.6,125.3v81.8"/>
				<path class="st2" d="M122.8,125.3v81.8"/>
				<path class="st2" d="M119,127.9v81.8"/>
				<line class="st2" x1="109" y1="189.6" x2="201.1" y2="146.3"/>
				<line class="st2" x1="106.9" y1="185.5" x2="198.9" y2="142.3"/>
				<line class="st2" x1="104.8" y1="181.5" x2="196.8" y2="138.3"/>
				<line class="st2" x1="102.7" y1="177.5" x2="194.7" y2="134.2"/>
				<line class="st2" x1="100.6" y1="173.4" x2="192.6" y2="130.2"/>
				<line class="st2" x1="106.9" y1="165.8" x2="198.9" y2="122.6"/>
				<line class="st2" x1="104.8" y1="161.8" x2="196.8" y2="118.5"/>
				<line class="st2" x1="102.7" y1="157.8" x2="194.7" y2="114.5"/>
				<line class="st2" x1="100.6" y1="153.7" x2="192.6" y2="110.5"/>
				<line class="st2" x1="98.4" y1="149.7" x2="190.4" y2="106.4"/>
				<line class="st2" x1="111.6" y1="138.9" x2="203.6" y2="95.6"/>
				<line class="st2" x1="109.4" y1="134.9" x2="201.5" y2="91.6"/>
				<line class="st2" x1="107.3" y1="130.8" x2="199.4" y2="87.6"/>
				<line class="st2" x1="105.2" y1="126.8" x2="197.2" y2="83.6"/>
				<line class="st2" x1="103.1" y1="122.8" x2="195.1" y2="79.5"/>
			</g>
			<use xlink:href="#SVGID_1_"  style="overflow:visible;fill:none;stroke:#231F20;stroke-miterlimit:10;"/>
		</g>
		<path class="st0" d="M81.2,176.9c0,0,34.3-11,47.1-35.2s27.6-46.2,44.5-42.8s25.9,28.4,9.8,49.6s-62.3,46.7-86.1,43.7L81.2,176.9z
			"/>
		<path class="st0" d="M69,209.5H49.7c-29.5,0-52.4-20.4-48.9-43.5l9.6-63c3-19.5,24-34.2,48.9-34.2l0,0c24.9,0,45.9,14.7,48.9,34.2
			l9.6,63C121.4,189.1,98.5,209.5,69,209.5z"/>
		<path class="st0" d="M68.4,51.5l-3.6,5.2c-2.2,3.1-7.5,3.1-9.7,0l-3.6-5.2c-2.2-3.1,0.5-7,4.8-7h7.2
			C67.9,44.5,70.6,48.4,68.4,51.5z"/>
		<ellipse class="st0" cx="40.1" cy="31.7" rx="5.4" ry="7.8"/>
		<circle class="st0" cx="42.6" cy="30" r="1.8"/>
		<ellipse class="st0" cx="75.7" cy="31.7" rx="5.4" ry="7.8"/>
		<circle class="st0" cx="78.3" cy="30" r="1.8"/>
		<path class="st0" d="M45.4,47.2c0,0-26.2-3.4-41.5,1.9"/>
		<path class="st0" d="M44.7,49.9c0,0-29,2.2-39.2,8.4"/>
		<path class="st0" d="M45.2,53.4c0,0-29.8,7.1-36.5,15.7"/>
		<path class="st0" d="M74.4,47.2c0,0,26.2-3.4,41.5,1.9"/>
		<path class="st0" d="M75.2,49.9c0,0,29,2.2,39.2,8.4"/>
		<path class="st0" d="M74.7,53.4c0,0,29.8,7.1,36.5,15.8"/>
		<path class="st0" d="M52.3,63.4v8.4h14.1v-8.6c-2.3,0.1-4.7-0.2-7-0.6C59.4,62.5,57.8,63.4,52.3,63.4z"/>
		<path class="st0" d="M45,59.9c4.1,3.2,9.5,4.2,14.4,2.6V51.2"/>
		<path class="st0" d="M74.1,59.9c-4.1,3.2-9.4,4.2-14.4,2.6V51.2"/>
		<line class="st0" x1="59.6" y1="71.6" x2="59.6" y2="62.5"/>
		<path class="st0" d="M20,103.2c-0.1-0.4,2.1-12.6,19.6-15.3"/>
		<path class="st0" d="M43.2,100.8c0,0-5.1,7.5-7.5,14.5c-0.4,1.2-1.7,1.9-2.9,1.5"/>
		<path class="st0" d="M42.7,101.2c-2.2-1.5-7-5.8-3.4-13.2c0-0.1,0.1-0.2,0.2-0.3c2.8-2.3,6.5-3.5,10.1-3.1
			c0.4,0.1,0.8,0.5,0.7,0.9c0,0.3-0.2,0.5-0.4,0.6l-0.3,0.1c-0.4,0.2-0.6,0.7-0.4,1.1c0.1,0.2,0.3,0.4,0.6,0.5l1.8,0.3
			c0.4,0.1,0.7,0.5,0.7,0.9c0,0.2-0.1,0.4-0.3,0.5l-1,0.8c-0.3,0.3-0.4,0.8-0.1,1.1c0.2,0.2,0.4,0.3,0.7,0.3l0,0
			c0.4,0,0.8,0.3,0.9,0.7c0,0.3-0.1,0.5-0.3,0.7l-2.7,2.2l-0.1,0.1c-0.6,0.3-4.5,2.4-5.4,5.4c-0.1,0.4-0.6,0.7-1,0.6
			C42.8,101.3,42.8,101.3,42.7,101.2z"/>
		<path class="st0" d="M102.3,105c0.1-0.4-1.3-12.7-18.7-16.4"/>
		<path class="st0" d="M79.1,100.3c0,0,4.7,7.8,6.7,14.9c0.3,1.2,1.6,2,2.8,1.7"/>
		<path class="st0" d="M79.9,101.1c2.2-1.3,7.2-5.3,4.1-12.7c0-0.1-0.1-0.2-0.2-0.3c-2.6-2.4-6.1-3.7-9.7-3.6
			c-0.4,0-0.8,0.4-0.7,0.9c0,0.3,0.2,0.5,0.4,0.6l0.2,0.1c0.4,0.2,0.5,0.7,0.3,1.1c-0.1,0.2-0.3,0.4-0.6,0.4L72,87.8
			c-0.4,0-0.8,0.4-0.7,0.8c0,0.2,0.1,0.4,0.3,0.5l0.9,0.8c0.3,0.3,0.4,0.8,0.1,1.1c-0.2,0.2-0.4,0.3-0.7,0.3l0,0
			C71.4,91.2,71,91.5,71,92c0,0.3,0.1,0.5,0.2,0.7l2.4,2.3c0,0,0.1,0.1,0.1,0.1c0.5,0.3,4.2,2.6,5,5.5c0.1,0.4,0.5,0.7,1,0.6
			C79.8,101.2,79.9,101.2,79.9,101.1z"/>
	</g>
</g>
</svg>
