<svg xmlns="http://www.w3.org/2000/svg" viewBox="0 0 387.07 179.23"><defs><style>.cls-1{fill:#fff;}</style></defs><title>Asset 8</title><g id="Layer_2" data-name="Layer 2"><g id="Layer_1-2" data-name="Layer 1"><path class="cls-1" d="M41.31,96.16a40.49,40.49,0,0,1-.87-8.37c0-23,19.24-41.57,43-41.57a43.76,43.76,0,0,1,24.84,7.69C121.24,22.35,153,0,190.3,0c40,0,73.83,25.81,84.66,61.16a69.83,69.83,0,0,1,43.37-14.94c38,0,68.74,29.78,68.74,66.5s-30.78,66.51-68.74,66.51H43c-23.73,0-43-18.62-43-41.58C0,115.24,18.35,97,41.31,96.16Z"/></g></g></svg>