<svg xmlns="http://www.w3.org/2000/svg" viewBox="0 0 167.33 355.71"><defs><style>.cls-1{fill:#231f20;}.cls-2,.cls-4{stroke:#231f20;}.cls-2,.cls-3,.cls-4{stroke-miterlimit:10;}.cls-2{stroke-width:1.31px;}.cls-3{fill:none;stroke:#fff793;stroke-width:1.18px;}.cls-4{opacity:0.25;}</style></defs><title>Asset 6</title><g id="Layer_2" data-name="Layer 2"><g id="JellyFish"><path class="cls-1" d="M39,98.69c-.34.74-.63,1.24-1,1.83s-.65,1.12-1,1.66c-.68,1.08-1.39,2.13-2.15,3.14a48.56,48.56,0,0,1-5,5.71,41.73,41.73,0,0,1-5.86,4.82l-1.45,1c-.45.32-.93.61-1.35,1l-1.31,1L18.71,120a28.11,28.11,0,0,0-7.42,10.74A17.31,17.31,0,0,0,10.13,137c0,1,.17,2.26.28,3.36a22.51,22.51,0,0,0,.62,3.25c1.14,4.2,4,8,6.86,11.69s6.14,7.15,9.38,10.61a124.94,124.94,0,0,1,9.27,10.9,61.1,61.1,0,0,1,3.91,6A27.24,27.24,0,0,1,42,186a9.28,9.28,0,0,1,.78,3.47,9,9,0,0,0-1-3.39A28.31,28.31,0,0,0,40.1,183a59.82,59.82,0,0,0-4.21-5.7A126,126,0,0,0,26.12,167c-3.45-3.28-6.87-6.61-10.1-10.17a65,65,0,0,1-4.59-5.65,25.67,25.67,0,0,1-3.52-6.66,25,25,0,0,1-.92-3.7c-.21-1.25-.41-2.31-.53-3.7a21.3,21.3,0,0,1,1-7.73,32.5,32.5,0,0,1,7.88-13l1.36-1.34,1.42-1.26c.47-.43,1-.79,1.47-1.19L21,111.55a36.47,36.47,0,0,0,4.88-4.5,43.15,43.15,0,0,0,4.08-5.25c.61-.92,1.19-1.87,1.71-2.83.27-.48.52-1,.76-1.45s.48-1,.61-1.37a3.27,3.27,0,1,1,6.11,2.33l-.09.2Z"/><path class="cls-1" d="M46.36,100.31c-.53.34-1.22.85-1.82,1.31s-1.23,1-1.81,1.49a36,36,0,0,0-3.29,3.24,21.13,21.13,0,0,0-2.5,3.53l-.44.9c-.15.3-.21.59-.33.89a4.19,4.19,0,0,0-.22.86l-.1.43c0,.15-.05.4-.07.6a31.17,31.17,0,0,0-.3,4.56,6.23,6.23,0,0,0,.31,1.74,10.71,10.71,0,0,0,.84,1.83c.73,1.3,1.69,2.68,2.66,4.06l3,4.17.12.17,0,0a20,20,0,0,1,1.19,2.58,24,24,0,0,1,.87,2.55,26.34,26.34,0,0,1,1,5.29,23,23,0,0,1-1.53,10.59c-.17.42-.32.84-.51,1.24l-.62,1.19c-.21.38-.41.8-.63,1.16l-.64,1.06L38.87,160a49.88,49.88,0,0,0-4.55,8.4,21.84,21.84,0,0,0-.71,2.21,19.22,19.22,0,0,0-.39,2.27,22.24,22.24,0,0,0-.13,2.32c.07.78,0,1.57.18,2.35a30.18,30.18,0,0,0,2.62,9.19,46.88,46.88,0,0,0,5,8.32,58.77,58.77,0,0,0,6.46,7.38,59.59,59.59,0,0,1-7-7,46.77,46.77,0,0,1-5.68-8.15,31.52,31.52,0,0,1-3.38-9.47c-.2-.83-.24-1.69-.36-2.54a24.83,24.83,0,0,1,0-2.59,20.46,20.46,0,0,1,.28-2.6,21.75,21.75,0,0,1,.63-2.53,52,52,0,0,1,4.2-9.19c1.52-2.9,3.28-5.79,4.17-8.54a18.93,18.93,0,0,0,.68-8.78,21.52,21.52,0,0,0-1.08-4.32c-.25-.7-.54-1.39-.85-2.06a16.81,16.81,0,0,0-1-1.83l.14.21-3.25-4c-1.08-1.35-2.18-2.71-3.24-4.32A16.79,16.79,0,0,1,30.19,122a12.45,12.45,0,0,1-.84-3.25,34.85,34.85,0,0,1,0-5.67c0-.23,0-.41,0-.68l.11-.84a9.52,9.52,0,0,1,.3-1.64c.15-.51.27-1.06.46-1.55l.58-1.45a27.92,27.92,0,0,1,3.09-5.05,39.86,39.86,0,0,1,3.73-4.22c.66-.66,1.34-1.29,2-1.9s1.36-1.19,2.22-1.84a3.92,3.92,0,1,1,4.73,6.25l-.22.15Z"/><path class="cls-1" d="M48,89.63a17.2,17.2,0,0,1,4.66,1.94,12.58,12.58,0,0,1,3.81,3.48c.23.38.5.74.7,1.14l.54,1.25a10.88,10.88,0,0,1,.52,2.61,13.45,13.45,0,0,1-.65,5,32.17,32.17,0,0,1-4.14,8.29c-1.66,2.53-3.49,4.84-4.85,7.27A18.86,18.86,0,0,0,47,124.37a14.88,14.88,0,0,0-.6,4,13.29,13.29,0,0,0,2,7.64c3.07,4.32,10,4.86,14.39,9.65a20.35,20.35,0,0,1,1.47,1.86c.39.68.77,1.38,1.12,2.07a33.08,33.08,0,0,1,1.56,4.28,19.19,19.19,0,0,1,.49,9.1,22.39,22.39,0,0,1-3.63,8.29A50.44,50.44,0,0,1,58,178.1a37.42,37.42,0,0,0-9.3,14.66,28.71,28.71,0,0,0-1.32,8.65,35.36,35.36,0,0,0,1.17,8.73,35.86,35.86,0,0,1-1.42-8.73,29.34,29.34,0,0,1,1.1-8.79,38.1,38.1,0,0,1,9.06-15.19,49.12,49.12,0,0,0,5.42-6.85,20.91,20.91,0,0,0,3.22-7.88,17.49,17.49,0,0,0-.7-8.36,29.42,29.42,0,0,0-1.58-4c-.34-.61-.68-1.2-1-1.79A18.15,18.15,0,0,0,61.28,147a21.89,21.89,0,0,0-7.19-4.35,36,36,0,0,1-4.09-2,13.89,13.89,0,0,1-3.66-3.17A12.74,12.74,0,0,1,44.28,133L44,131.87c-.07-.39-.1-.78-.16-1.17l-.14-1.17,0-1.19a17.81,17.81,0,0,1,.58-4.75,22.43,22.43,0,0,1,1.8-4.37c1.46-2.76,3.25-5.13,4.76-7.57a29.2,29.2,0,0,0,3.53-7.57c.71-2.53.62-5.07-.82-6.9a9,9,0,0,0-2.75-2.35A12.49,12.49,0,0,0,49,94a11.39,11.39,0,0,0-1.78-.54H47.2A2,2,0,0,1,48,89.62Z"/><path class="cls-1" d="M65.63,84.1a20.66,20.66,0,0,1,2.26,1.25c.71.44,1.39.91,2,1.4s1.28,1,1.92,1.55,1.2,1.14,1.8,1.7a28.33,28.33,0,0,1,5.55,8.17l.51,1.13c.16.38.27.78.41,1.17.24.79.54,1.57.73,2.36a30.08,30.08,0,0,1,.77,4.87c0,.82.15,1.64.14,2.45l-.11,2.44-.06,1.22a12,12,0,0,1-.17,1.2L81,117.4a138.77,138.77,0,0,1-5,18.09c-2,5.89-4,11.61-4.13,17.57a43.58,43.58,0,0,0,.66,8.95c.19,1.5.59,3,.88,4.47s.83,2.87,1.25,4.3c2,5.63,5.39,10.78,9,15.75s7.45,9.85,10.92,15a94.5,94.5,0,0,1,9,16.44c.56,1.46,1.19,2.9,1.69,4.38l1.41,4.48c.46,1.49.74,3,1.12,4.55l.53,2.29.38,2.32a50,50,0,0,1-.59,18.73,80.69,80.69,0,0,1-6.35,17.55c-2.63,5.62-5.53,11.09-7.74,16.83a45.11,45.11,0,0,0-3.41,17.93c0,.77.07,1.53.14,2.3l.28,2.28.87,4.53c.31,1.51.77,3,1.15,4.48.18.75.42,1.48.67,2.21l.74,2.19a77.8,77.8,0,0,0,8.24,16.53,72,72,0,0,0,11.94,14.12,73,73,0,0,1-12.15-14A78.51,78.51,0,0,1,94,325.23l-.77-2.2a21.84,21.84,0,0,1-.71-2.21c-.4-1.5-.88-3-1.22-4.5l-.93-4.56-.32-2.32c-.08-.78-.11-1.56-.17-2.34a45.87,45.87,0,0,1,3.23-18.31c2.16-5.84,5-11.37,7.54-17a79.79,79.79,0,0,0,6-17.34,51.3,51.3,0,0,0,1-9.07,50.26,50.26,0,0,0-.68-9.09l-.4-2.25-.55-2.23c-.39-1.48-.68-3-1.15-4.44L103.51,223c-.52-1.43-1.15-2.83-1.71-4.25a92.51,92.51,0,0,0-9-16C89.33,197.75,85.45,193,81.73,188s-7.27-10.27-9.54-16.27c-.48-1.52-1-3-1.39-4.59s-.76-3.05-1-4.62A45.66,45.66,0,0,1,69,153a40.41,40.41,0,0,1,1.35-9.5c.78-3.07,1.77-6,2.7-9a136.87,136.87,0,0,0,4.63-17.73l.33-2.19c0-.37.13-.73.14-1.1l0-1.1.07-2.19c0-.73-.11-1.46-.16-2.18a26.94,26.94,0,0,0-.72-4.28c-.18-.69-.45-1.36-.67-2-.13-.34-.22-.69-.36-1l-.47-1a24.49,24.49,0,0,0-4.92-7L69.36,91.2c-.57-.45-1.11-.93-1.71-1.34s-1.18-.83-1.79-1.2-1.28-.73-1.8-1l-.11,0a2,2,0,0,1,1.66-3.55Z"/><path class="cls-1" d="M102.33,74.36l.37.22.23.15a4.19,4.19,0,0,1,.44.31c.25.19.54.39.76.59a15.69,15.69,0,0,1,1.31,1.25,18.73,18.73,0,0,1,2.17,2.68,25.62,25.62,0,0,1,3,5.83,39.38,39.38,0,0,1,2.21,12.15,59.48,59.48,0,0,1-.09,6c0,1-.19,2-.28,2.94s-.18,2-.38,2.94A50.47,50.47,0,0,1,108.91,121a85.88,85.88,0,0,1-5.44,10.23,28.81,28.81,0,0,0-2.13,4.66c-.22.8-.42,1.6-.61,2.41l-.32,2.52a45.9,45.9,0,0,0,.94,10.59c.41,1.78.82,3.59,1.26,5.35.27.84.5,1.7.79,2.54l1,2.51c2.86,6.64,7.23,12.72,11.91,18.49s9.88,11.21,15.08,16.63,10.49,10.8,15.38,16.55a70.64,70.64,0,0,1,6.71,9.12,31.09,31.09,0,0,1,2.5,5.08,16,16,0,0,1,.92,5.55,15.69,15.69,0,0,0-1.15-5.46,30.32,30.32,0,0,0-2.68-4.91,69.31,69.31,0,0,0-7-8.73c-5.09-5.5-10.59-10.61-16-15.82s-10.86-10.46-15.93-16.1-9.83-11.72-13.25-18.78c-.41-.89-.79-1.8-1.19-2.7s-.67-1.86-1-2.8c-.56-1.86-1.06-3.7-1.57-5.56a50.46,50.46,0,0,1-1.53-11.77c.07-1,.17-2.06.25-3.1s.4-2.06.65-3.08a33.45,33.45,0,0,1,2.28-5.69,83,83,0,0,0,4.74-9.87c.34-.8.53-1.66.8-2.49.12-.42.25-.83.36-1.26l.27-1.29c.17-.86.41-1.7.51-2.59l.34-2.64c.14-.87.16-1.77.22-2.66s.14-1.79.15-2.68a51.58,51.58,0,0,0-.16-5.29,32,32,0,0,0-2.2-9.86,17.53,17.53,0,0,0-2.3-4.1A11,11,0,0,0,100,82.33a6.39,6.39,0,0,0-.76-.66,3.56,3.56,0,0,0-.36-.26l-.15-.09-.06,0,.06,0a3.92,3.92,0,0,1,3.61-7Z"/><path class="cls-1" d="M115.59,66.91c.89.31,1.51.58,2.23.88s1.38.61,2,.95c1.33.65,2.63,1.35,3.88,2.1a55.51,55.51,0,0,1,7.19,5A52.63,52.63,0,0,1,142.44,89c.71,1.28,1.51,2.51,2.12,3.83s1.28,2.63,1.79,4A53.83,53.83,0,0,1,149,105a30,30,0,0,1,.78,8.82,38.55,38.55,0,0,1-1.54,8.52c-1.53,5.38-3.19,10.48-4.16,15.82-.22,1.34-.49,2.67-.68,4l-.52,4a25.94,25.94,0,0,0,.3,7.87,19.77,19.77,0,0,0,3.08,7.22,21.56,21.56,0,0,0,5.75,5.51,30.85,30.85,0,0,0,7.32,3.51,37.6,37.6,0,0,0,8,1.73,37.06,37.06,0,0,1-8.16-1.26,31.6,31.6,0,0,1-7.7-3.15,22.77,22.77,0,0,1-6.41-5.46,21.58,21.58,0,0,1-3.8-7.64,28.13,28.13,0,0,1-.84-8.51l.29-4.17c.11-1.38.3-2.77.45-4.15.67-5.54,2.09-11,3.25-16.29a28.32,28.32,0,0,0-.18-15.21,48.5,48.5,0,0,0-2.82-7.29c-.54-1.21-1.22-2.3-1.81-3.45s-1.39-2.18-2.07-3.27A46.12,46.12,0,0,0,126.71,81.3a48.34,48.34,0,0,0-6.54-4c-1.14-.59-2.3-1.13-3.47-1.62-.58-.26-1.17-.46-1.75-.69s-1.22-.43-1.64-.54h0a3.92,3.92,0,1,1,2-7.56Z"/><path class="cls-1" d="M74,74.53c.93.39,1.64.75,2.41,1.16s1.49.81,2.21,1.26q2.16,1.3,4.17,2.81a60.4,60.4,0,0,1,7.46,6.64,61.74,61.74,0,0,1,11,16.41c.34.75.73,1.48,1,2.25l.88,2.3c.28.77.6,1.54.86,2.31l.73,2.33c.24.78.5,1.55.71,2.34l.61,2.38c.45,1.57.69,3.21,1,4.83a45.35,45.35,0,0,1,.53,9.88,64.29,64.29,0,0,1-1.44,9.69c-1.4,6.29-2.92,12.43-3.86,18.72-.24,1.57-.43,3.15-.64,4.72s-.33,3.16-.49,4.75a46.45,46.45,0,0,0-.08,9.43,26.58,26.58,0,0,0,7.74,16.75,27.18,27.18,0,0,0,7.89,5.2,30.83,30.83,0,0,0,9.2,2.48,30.72,30.72,0,0,1-9.33-2.18,27.65,27.65,0,0,1-8.21-5c-4.9-4.32-7.72-10.65-8.58-17.07a47.81,47.81,0,0,1-.26-9.71c.11-1.6.18-3.21.33-4.81s.3-3.21.49-4.8c.73-6.4,2.07-12.73,3.24-19a60.62,60.62,0,0,0,1.06-9.31,41.82,41.82,0,0,0-.8-9.2c-.35-1.51-.62-3-1.11-4.52l-.65-2.25c-.22-.74-.51-1.48-.76-2.22l-.78-2.22c-.27-.73-.6-1.44-.89-2.15l-.91-2.15c-.3-.72-.69-1.39-1-2.08A57.38,57.38,0,0,0,87,89.6a54.66,54.66,0,0,0-7-5.86,44.44,44.44,0,0,0-3.86-2.42c-.66-.38-1.32-.73-2-1s-1.39-.65-1.93-.86l-.1,0A2.61,2.61,0,1,1,74,74.5Z"/><path class="cls-1" d="M113.87,71.76a8.84,8.84,0,0,1,.77.47c.23.15.42.29.62.44a12.59,12.59,0,0,1,1.12.9,11.82,11.82,0,0,1,1,1,13.18,13.18,0,0,1,1,1l.9,1.08c.28.36.54.76.8,1.14a20.77,20.77,0,0,1,1.41,2.41,21.78,21.78,0,0,1,2.16,10.6l0,1.32c-.05.43-.12.86-.18,1.29-.14.85-.24,1.72-.42,2.55l-.67,2.45L122,99.59l-.45,1.16a37.29,37.29,0,0,1-2,4.51l-2.17,4.16a53.09,53.09,0,0,0-5.9,16.37,36.73,36.73,0,0,0-.48,4.3c-.08.72,0,1.43,0,2.14a17,17,0,0,0,.08,2.15l.25,2.13a20.92,20.92,0,0,0,.43,2.09,29.28,29.28,0,0,0,1.26,4.09,28.11,28.11,0,0,0,4.49,7.28,28.82,28.82,0,0,0,6.63,5.6c5.11,3.15,10.74,5.94,15.63,9.87a37.82,37.82,0,0,1,6.61,6.65,42.11,42.11,0,0,1,4.71,8,82.42,82.42,0,0,1,5.35,17.61,81.8,81.8,0,0,0-6.23-17.18,41.19,41.19,0,0,0-5-7.54,35.76,35.76,0,0,0-6.64-6,65.54,65.54,0,0,0-7.76-4.65c-1.33-.72-2.7-1.4-4.06-2.09s-2.72-1.32-4.12-2.16a32,32,0,0,1-7.67-5.82,31.57,31.57,0,0,1-5.54-8,33.45,33.45,0,0,1-1.7-4.6,22.52,22.52,0,0,1-.62-2.38l-.42-2.42a22,22,0,0,1-.23-2.43c0-.81-.15-1.63-.11-2.44a41.3,41.3,0,0,1,.28-4.86,58,58,0,0,1,5.51-18.37c.71-1.51,1.27-2.79,1.86-4.1a30.6,30.6,0,0,0,1.51-4l.34-1,.22-1,.44-2c.11-.67.14-1.34.21-2,0-.33.08-.66.1-1l0-1A14.46,14.46,0,0,0,115,83.57a11.54,11.54,0,0,0-1-1.51c-.19-.23-.36-.48-.55-.7l-.62-.66a6.25,6.25,0,0,0-.65-.61,7.22,7.22,0,0,0-.68-.56,7.48,7.48,0,0,0-.69-.5c-.12-.07-.24-.16-.34-.21l-.21-.12a3.91,3.91,0,1,1,3.62-6.94Z"/><path class="cls-1" d="M81.76,82.41c.81,1.2,1.43,2.27,2.07,3.42s1.22,2.28,1.77,3.45a68.16,68.16,0,0,1,2.93,7.14,66,66,0,0,1,3.36,15,58.82,58.82,0,0,1-.39,15.4,60.63,60.63,0,0,1-1.68,7.53c-.41,1.22-.76,2.46-1.23,3.65l-1.34,3.52L86,145c-.41,1.14-.72,2.31-1.09,3.46l-.54,1.74-.41,1.76c-.27,1.18-.61,2.34-.77,3.54a58.35,58.35,0,0,0-.78,14.42c.11,2.47.37,5,.26,7.59a18.36,18.36,0,0,1-2,7.78l-1,1.74c-.38.55-.8,1-1.2,1.58-.8,1.08-1.66,1.94-2.49,2.89l-5,5.47a95.59,95.59,0,0,0-9.2,11.46,52.38,52.38,0,0,0-6.45,13.05,55,55,0,0,0-2.61,14.35c0,1.23,0,2.45,0,3.68l0,1.84.16,1.83.33,3.67.56,3.66L54,252.3c.11.6.25,1.2.37,1.81l.75,3.63.91,3.58.47,1.8.54,1.77a111.52,111.52,0,0,0,5.16,13.9A121.86,121.86,0,0,0,69,292c2.54,4.26,5.36,8.34,8.25,12.38-3-4-5.89-8-8.53-12.21a123.59,123.59,0,0,1-7.14-13.09,112.16,112.16,0,0,1-5.49-13.88l-.59-1.77-.51-1.8L54,258l-.84-3.64c-.13-.61-.29-1.22-.41-1.83l-.32-1.84L51.75,247l-.41-3.73-.21-1.87-.06-1.89c0-1.25-.08-2.51-.08-3.77a56.73,56.73,0,0,1,2.37-14.9,55,55,0,0,1,6.4-13.7,100.1,100.1,0,0,1,9.17-11.95l4.92-5.58c.78-.93,1.66-1.86,2.31-2.8.34-.47.71-.92,1-1.4l.83-1.49a15.36,15.36,0,0,0,1.52-6.55c0-2.32-.25-4.79-.42-7.28a61.84,61.84,0,0,1,.5-15.24c.15-1.27.48-2.5.73-3.75l.4-1.87.52-1.84c.36-1.21.67-2.45,1.07-3.65l1.26-3.58,1.24-3.47c.41-1.12.7-2.29,1.06-3.43a56.31,56.31,0,0,0,1.42-7,55,55,0,0,0,0-14.28,61.1,61.1,0,0,0-3.43-13.89,62.71,62.71,0,0,0-2.86-6.57c-.53-1.07-1.11-2.11-1.7-3.14s-1.25-2.06-1.84-2.9l0-.07a2.61,2.61,0,0,1,4.26-3Z"/><path class="cls-1" d="M64.13,93.12a2.71,2.71,0,0,0,1.06-.58,3.32,3.32,0,0,0,.41-.43l.1-.15a.18.18,0,0,0,0-.07c0-.1,0,0,0,0s-.11.24-.17.37c-.12.29-.25.61-.36,1-.24.67-.44,1.38-.63,2.1a40.55,40.55,0,0,0-.84,4.47,47.65,47.65,0,0,0-.25,9.26,58.53,58.53,0,0,0,4.38,18.25,77.2,77.2,0,0,0,4.2,8.57A94,94,0,0,0,77.28,144l11.65,15.91c3.84,5.35,7.67,10.73,11.22,16.3a156.6,156.6,0,0,1,9.66,17.31,83.66,83.66,0,0,1,6.35,18.76,72.87,72.87,0,0,1,1.34,19.65,72.71,72.71,0,0,0-2.14-19.47,83,83,0,0,0-7-18.22c-6-11.59-13.93-22.07-22-32.36L74,146.45a97.75,97.75,0,0,1-5.84-8.23,82.49,82.49,0,0,1-4.84-8.93,63.38,63.38,0,0,1-5.57-19.69,53.3,53.3,0,0,1-.16-10.42,47.64,47.64,0,0,1,.77-5.24c.19-.88.4-1.75.67-2.65.13-.44.29-.9.46-1.37.1-.25.17-.46.32-.77s.09-.22.24-.49l.21-.34c0-.07,0,0,.14-.21a3.61,3.61,0,0,1,.47-.49,3.57,3.57,0,0,1,1.16-.69,3.26,3.26,0,1,1,2.06,6.19Z"/><path class="cls-1" d="M123.27,67.86a.2.2,0,0,0,0-.11l0,0,.06.09.23.4.47.86c.32.58.61,1.17.88,1.76a27.13,27.13,0,0,1,1.39,3.71,25,25,0,0,1,1,7.85,23.7,23.7,0,0,1-1.65,7.74L124.89,92c-.29.58-.63,1.14-1,1.71-.67,1.21-1.26,2-1.76,3.1a12.29,12.29,0,0,0-1.27,6.43,13.37,13.37,0,0,0,2.36,6.25c2.59,3.88,6.45,7,10.35,9.87l3,2.17a24.3,24.3,0,0,1,2.85,2.58,55.55,55.55,0,0,1,4.74,5.8,74.07,74.07,0,0,1,7.41,12.9,39.31,39.31,0,0,1,3.71,14.35,15.24,15.24,0,0,1-1.4,7.26,11.76,11.76,0,0,1-5.09,5.23,11.66,11.66,0,0,0,4.87-5.34,14.86,14.86,0,0,0,1.13-7.13,38.79,38.79,0,0,0-4.11-14A72.56,72.56,0,0,0,143,130.8a53.3,53.3,0,0,0-4.78-5.48,21.32,21.32,0,0,0-2.7-2.28l-3-2.08c-4.06-2.82-8.18-5.83-11.24-10.08a16.07,16.07,0,0,1-3-7.34,14.3,14.3,0,0,1,.1-4.08,16.69,16.69,0,0,1,1.18-3.85c.51-1.21,1.28-2.42,1.76-3.39.27-.52.56-1,.8-1.54l.63-1.61a20.09,20.09,0,0,0,1.2-6.67,21.88,21.88,0,0,0-1.11-6.7,24.18,24.18,0,0,0-1.31-3.16c-.26-.52-.53-1-.82-1.52l-.45-.74-.24-.39-.06-.1-.1-.17a5,5,0,0,1-.25-.52,2,2,0,0,1,3.71-1.24Z"/><path d="M129.07,53.61C134.58,70.87,114,79.47,84,88.85S25.34,105,20.34,87.56c-6.8-23.67,14.08-52,44.1-61.34S121,28.18,129.07,53.61Z"/><ellipse cx="69.55" cy="43.18" rx="2.7" ry="5.33" transform="translate(-3.96 7.16) rotate(-5.73)"/><ellipse cx="93.7" cy="38.17" rx="2.7" ry="5.33" transform="translate(-3.34 9.55) rotate(-5.73)"/><path class="cls-2" d="M80.62,51.84S87.25,57.39,91,49"/><ellipse cx="27.56" cy="33.98" rx="14.36" ry="6.37" transform="translate(-15.8 28.17) rotate(-43.32)"/><path class="cls-3" d="M145.57,66c.28-.43,5.22-7.67-6.86-8.48s-33.12,2-67.07,13.87-61.69,31-53.85,36.06c0,0,4.57,4.08,28.39-1.79l66.59-21S138.8,76.26,145.57,66Z"/><path class="cls-2" d="M147.79,45.73c8,27.88-22.11,34.76-66.31,48.94S11.71,119,2.85,91.35s9.09-70.6,53.29-84.77S135.46,3,147.79,45.73Z"/><path class="cls-4" d="M147.79,45.73c8,27.88-22.11,34.76-66.31,48.94S11.71,119,2.85,91.35s9.09-70.6,53.29-84.77S135.46,3,147.79,45.73Z"/></g></g></svg>