<?xml version="1.0" encoding="utf-8"?>
<!-- Generator: Adobe Illustrator 22.1.0, SVG Export Plug-In . SVG Version: 6.00 Build 0)  -->
<svg version="1.1" id="Layer_1" xmlns="http://www.w3.org/2000/svg" xmlns:xlink="http://www.w3.org/1999/xlink" x="0px" y="0px"
	 viewBox="0 0 991.1 635.2" style="enable-background:new 0 0 991.1 635.2;" xml:space="preserve">
<style type="text/css">
	.st0{fill:#A3CAEF;}
	.st1{fill:#534741;}
	.st2{fill:#998675;}
	.st3{fill:#4673D2;}
	.st4{fill:#6B4F6E;}
	.st5{fill:#99869B;}
</style>
<title>Asset 10</title>
<g id="Layer_2_1_">
	<g id="Layer_1-2">
		<rect class="st0" width="991.1" height="630.9"/>
		<g>
			<path class="st1" d="M422.4,543.7H124.8v-200l32.6-9c62.8-17.4,128.7-14.9,190.3,7.1l5.2,1.9c38.4,0,69.5,34.9,69.5,78
				L422.4,543.7L422.4,543.7z"/>
			<polygon class="st2" points="176,347.3 175.2,345.3 167.8,348.8 174,330.9 171.9,329.9 152.2,386.6 154.3,387.5 166.8,351.6 			
				"/>
			<polygon class="st2" points="366.9,393.5 368.7,393 366.8,384.7 380.8,393.8 381.9,391.7 337.6,363 336.5,365.1 364.6,383.3 			
				"/>
			<polygon class="st2" points="342.6,359.2 342.5,356.8 333.6,357.2 346.3,341.4 344.3,339.4 304.2,389.4 306.1,391.4 331.6,359.7 
							"/>
			<polygon class="st2" points="316.5,358.8 317.5,355.8 306,351 329.6,338.3 328,334.7 253.5,374.7 255.1,378.4 302.3,353 			"/>
			<polygon class="st2" points="204.1,325.7 206.7,327 201.6,339.6 226.2,329.8 227.4,333.6 149.5,364.4 148.3,360.6 197.7,341.1 
							"/>
			<polygon class="st2" points="153.2,387.2 152.2,384.1 163.7,379.3 140.1,366.7 141.7,363 216.1,403.1 214.6,406.7 167.4,381.3 
							"/>
			<polygon class="st2" points="254,359.5 255.1,361.8 205,392.9 203.8,390.6 			"/>
			<polygon class="st2" points="248.5,353.8 247.5,356.2 195.1,330 196.1,327.6 			"/>
			<polygon class="st2" points="401.7,381.1 400.8,383.5 348.4,357.4 349.4,355 			"/>
			<polygon class="st2" points="292.9,368.6 291.9,371 239.5,344.9 240.5,342.4 			"/>
			<polygon class="st2" points="205,361.3 206.5,357.9 259.4,387.9 257.8,391.3 			"/>
			<polygon class="st2" points="278.9,325 280.5,321.5 333.4,351.6 331.8,355 			"/>
			<polygon class="st2" points="187.1,337.1 190.4,338.1 171,418.1 167.7,417.1 			"/>
			<polygon class="st2" points="357,340.3 360.3,341.3 348,391.7 344.7,390.7 			"/>
			<polygon class="st2" points="238.6,363.4 238,360.1 219.9,364.4 232,348.7 229.8,346.5 216.2,364.1 157.9,402.6 160,406.6 
				218.3,368.2 			"/>
			<polygon class="st2" points="178.6,365.4 177.3,363.7 168.1,372.4 170.8,359.2 168.9,358.7 165.9,373.5 142.9,415.6 145.2,417.2 
				168.2,375.1 			"/>
			<polygon class="st2" points="398.8,364.5 398.4,362.5 387.2,365.1 394.7,355.4 393.3,354 384.8,365 348.6,388.9 349.9,391.4 
				386.1,367.5 			"/>
			<polygon class="st2" points="252.7,319.7 250.3,321.7 261.3,338.4 243.5,332.6 242.7,335.8 262.7,342.3 318.1,385.8 320.5,381.9 
				265.1,338.5 			"/>
		</g>
		<path class="st3" d="M991.1,347.9c-55.3-19.2-124.6,12.1-154.6,6s-90.5-59.5-169.3-70.6s-99.4,34.3-99.4,34.3s78.3-33.3,83,46.4
			c0,0,14.5,105.9-218.1,72.6S220.4,483,0,441.6v193.6c0,0,989.1-2.1,991.1,0"/>
		<g>
			<path class="st4" d="M154.1,337.5L145,443c-0.8,9.3-5.9,16.9-12.7,19.1L33,493.4c-2.4,0.8-4.9,0.8-7.3,0.1L0,479.5v-120
				L154.1,337.5z"/>
			<path class="st5" d="M0,261.2l73.1,26.7l51.5,11c1.2,0.2,2.3,0.8,3.4,1.5l34.6,25.1c5.2,3.8,7.1,12.4,4.2,19.3
				c-1.2,2.9-3,5.2-5.3,6.4l-27.8,15c-1.2,0.7-2.6,1-3.9,1c-11.4,0.1-67.3,0.6-68.7,0.6c-1.5,0-61.2,12.7-61.2,12.7L0,261.2z"/>
		</g>
	</g>
</g>
</svg>
