<svg xmlns="http://www.w3.org/2000/svg" viewBox="0 0 1056.66 635.37"><defs><style>.cls-1{fill:#a3caef;}.cls-2{fill:#534741;}.cls-3{fill:#6b4f6e;}.cls-4{fill:#99869b;}.cls-5{fill:#998675;}.cls-6{fill:#4673d2;}.cls-7{fill:none;}</style></defs><title>Asset 10</title><g id="Layer_2" data-name="Layer 2"><g id="Layer_1-2" data-name="Layer 1"><rect class="cls-1" width="1056.66" height="630.91"/><path class="cls-2" d="M524.34,543.7h-334v-200l36.53-9a392.48,392.48,0,0,1,213.58,7.15l5.89,1.88a78,78,0,0,1,78,78Z"/><path class="cls-3" d="M206.34,338.37,194.13,443.86a22.22,22.22,0,0,1-17,19.08l-133,31.29a22.16,22.16,0,0,1-9.69.11L0,480.37v-120Z"/><path class="cls-4" d="M0,262,98,288.7l68.94,10.95a14,14,0,0,1,4.53,1.54l46.44,25.06A14.26,14.26,0,0,1,216.45,352l-37.27,15a14.1,14.1,0,0,1-5.21,1c-15.27.11-90.17.65-92,.65-2,0-82,12.67-82,12.67Z"/><polygon class="cls-5" points="247.79 347.27 246.94 345.28 238.61 348.82 245.6 330.89 243.15 329.93 221.06 386.58 223.51 387.54 237.51 351.63 247.79 347.27"/><polygon class="cls-5" points="462.01 393.53 463.98 393.02 461.87 384.74 477.6 393.82 478.84 391.67 429.14 362.98 427.9 365.13 459.4 383.32 462.01 393.53"/><polygon class="cls-5" points="434.72 359.18 434.63 356.8 424.61 357.2 438.87 341.36 436.7 339.41 391.66 389.44 393.82 391.39 422.38 359.68 434.72 359.18"/><polygon class="cls-5" points="405.49 358.83 406.62 355.75 393.66 351.01 420.12 338.34 418.38 334.72 334.82 374.73 336.55 378.35 389.52 352.99 405.49 358.83"/><polygon class="cls-5" points="279.31 325.67 282.29 327.05 276.48 339.57 304.14 329.82 305.48 333.61 218.09 364.4 216.76 360.62 272.15 341.1 279.31 325.67"/><polygon class="cls-5" points="222.18 387.17 221.05 384.08 234.01 379.34 207.56 366.67 209.29 363.05 292.85 403.07 291.12 406.69 238.15 381.32 222.18 387.17"/><rect class="cls-5" x="306.52" y="344.05" width="2.64" height="64.33" transform="translate(488.01 -75.27) rotate(61.05)"/><rect class="cls-5" x="297.85" y="309.71" width="2.64" height="64.33" transform="translate(733.11 207.42) rotate(113.97)"/><rect class="cls-5" x="469.85" y="337.05" width="2.64" height="64.33" transform="translate(999.97 88.7) rotate(113.97)"/><rect class="cls-5" x="347.68" y="324.53" width="2.64" height="64.33" transform="translate(816.73 182.73) rotate(113.97)"/><rect class="cls-5" x="308.92" y="341.38" width="3.87" height="66.48" transform="translate(-163.76 482.83) rotate(-63.16)"/><rect class="cls-5" x="391.92" y="305.05" width="3.87" height="66.48" transform="translate(-85.82 536.96) rotate(-63.16)"/><rect class="cls-5" x="249.26" y="336.12" width="3.87" height="82.92" transform="translate(108.1 -52.76) rotate(15.24)"/><rect class="cls-5" x="443.89" y="339.91" width="3.87" height="52.25" transform="translate(111.92 -104.33) rotate(15.24)"/><polygon class="cls-5" points="318.08 363.39 317.4 360.12 297.06 364.37 310.66 348.66 308.14 346.48 292.86 364.14 227.46 402.6 229.83 406.62 295.22 368.16 318.08 363.39"/><polygon class="cls-5" points="250.71 365.35 249.32 363.68 238.94 372.35 241.94 359.16 239.82 358.68 236.45 373.5 210.66 415.61 213.25 417.2 239.04 375.09 250.71 365.35"/><polygon class="cls-5" points="497.81 364.5 497.39 362.47 484.74 365.12 493.19 355.35 491.63 353.99 482.12 364.97 441.45 388.89 442.93 391.39 483.59 367.47 497.81 364.5"/><polygon class="cls-5" points="333.87 319.73 331.19 321.7 343.53 338.42 323.58 332.61 322.65 335.81 345.07 342.34 407.28 385.76 409.95 381.94 347.74 338.51 333.87 319.73"/><path class="cls-6" d="M1056.66,347.93c-59-19.16-132.83,12.1-164.83,6.05s-96.49-59.5-180.49-70.6-106,34.29-106,34.29,83.49-33.28,88.49,46.4c0,0,15.51,105.89-232.49,72.61S235,483.07,0,441.72V635.37s1054.57-2.12,1056.66,0"/><rect class="cls-7" width="1056.66" height="630.91"/></g></g></svg>