<svg xmlns="http://www.w3.org/2000/svg" viewBox="0 0 145.89 56.56"><defs><style>.cls-1,.cls-3{fill:#fff;}.cls-2{fill:#f78330;}.cls-3{font-size:27px;font-family:Montserrat-SemiBold, Montserrat;font-weight:600;}.cls-4{letter-spacing:-0.01em;}.cls-5{letter-spacing:-0.02em;}</style></defs><title>Asset 7</title><g id="Layer_2" data-name="Layer 2"><g id="Layer_1-2" data-name="Layer 1"><path class="cls-1" d="M3.82,48.91H94.4a3.83,3.83,0,0,1,3.83,3.82h0a3.82,3.82,0,0,0,5.67,3.35l40-22.12a3.82,3.82,0,0,0,0-6.69l-40-22.12A3.82,3.82,0,0,0,98.23,8.5h0a3.83,3.83,0,0,1-3.83,3.82H3.82A3.82,3.82,0,0,0,0,16.14V45.08A3.82,3.82,0,0,0,3.82,48.91Z"/><path class="cls-2" d="M3.82,44.24H94.4a3.83,3.83,0,0,1,3.83,3.83h0a3.82,3.82,0,0,0,5.67,3.34l40-22.12a3.82,3.82,0,0,0,0-6.69L103.9.48a3.82,3.82,0,0,0-5.67,3.35h0A3.83,3.83,0,0,1,94.4,7.65H3.82A3.83,3.83,0,0,0,0,11.48V40.42A3.82,3.82,0,0,0,3.82,44.24Z"/><text class="cls-3" transform="translate(16.51 34.65)">O<tspan class="cls-4" x="22.73" y="0">c</tspan><tspan class="cls-5" x="38.21" y="0">e</tspan><tspan x="54.59" y="0">an</tspan></text></g></g></svg>