<?xml version="1.0" encoding="utf-8"?>
<!-- Generator: Adobe Illustrator 23.0.2, SVG Export Plug-In . SVG Version: 6.00 Build 0)  -->
<svg version="1.1" id="Layer_1" xmlns="http://www.w3.org/2000/svg" xmlns:xlink="http://www.w3.org/1999/xlink" x="0px" y="0px"
	 viewBox="0 0 153.1 211.6" style="enable-background:new 0 0 153.1 211.6;" xml:space="preserve">
<style type="text/css">
	.st0{fill:#231F20;stroke:#231F20;stroke-miterlimit:10;}
</style>
<title>Asset 7</title>
<g>
	<g id="Orca">
		<path class="st0" d="M147.6,81.4c-8.3-15.3-6.7-22-6.7-22c13.3-30.3,2-46.7-1.7-55s-6-2.3-10.3,10S117.6,26,117.6,26
			C97,6.8,61.1,6,38.1,19.9c0.8,2,0.6,5.2-0.9,8.4c-2,4.5-5.7,7.3-8.2,6.2c-1.6-0.7-2.3-2.9-2-5.6c-1.8,1.9-3.3,4-4.7,6.1
			c-17.3,28-7.7,38.7-7.7,38.7c0.3,0.2,0.6,0.4,0.9,0.6c2.9-2,11.5-6.6,31-6.2c25,0.5,26.3,5.5,31.7,16s12.5,43.7,11.9,63
			c0,0-3.3,14.8,7.5,21s-31.2,20-45.9,8.8c0,0-0.5-10.5-10-26.2s-34.2,2-34.2,2c17,2.5,3.2,16.8,19.8,23.2
			C16.8,176.1,13.6,184,9.3,190c-2.7,3.9-8.4,6.7-8.4,6.7c26.4,21.8,36.8,15.1,50,4s28.3-4,41.7-5.3s27-10.3,44.7-34
			S155.9,96.7,147.6,81.4z"/>
		<path class="st0" d="M29,34.4c2.5,1.1,6.1-1.6,8.2-6.2c1.4-3.2,1.7-6.4,0.9-8.4c-4.1,2.4-7.9,5.5-11.1,9
			C26.7,31.5,27.4,33.7,29,34.4z"/>
		<path class="st0" d="M97.5,168c-10.8-6.2-7.5-21-7.5-21c0.7-19.3-6.5-52.5-11.8-63s-6.7-15.5-31.7-16c-19.5-0.4-28.1,4.2-31,6.2
			c23.5,14.4,48.8,5.6,48.8,5.6c-11,8.2-10.7,40.4,1.8,54.5c13.8,15.5,17.2,20.2,9.2,32.8s-23.8,9.8-23.8,9.8
			C66.3,188,108.3,174.2,97.5,168z"/>
		<circle class="st0" cx="52.3" cy="49.4" r="4.4"/>
		<ellipse transform="matrix(0.4373 -0.8993 0.8993 0.4373 -26.9338 42.7612)" class="st0" cx="20.7" cy="42.9" rx="4.4" ry="3.1"/>
		<circle class="st0" cx="54.1" cy="48" r="1.2"/>
		<circle class="st0" cx="22.1" cy="42.2" r="1.2"/>
		<ellipse transform="matrix(0.9198 -0.3925 0.3925 0.9198 -8.9476 25.145)" class="st0" cx="57" cy="34.5" rx="11.3" ry="6.2"/>
		<path class="st0" d="M128.5,81.5c0,0,14.8,18.7,10.3,34.7s-19.3,21.2-20.4,20.5s-0.2-22-7.8-32.6"/>
	</g>
</g>
</svg>
