<svg xmlns="http://www.w3.org/2000/svg" viewBox="0 0 153.14 211.56"><defs><style>.cls-1{fill:#231f20;stroke:#231f20;stroke-miterlimit:10;}</style></defs><title>Asset 7</title><g id="Layer_2" data-name="Layer 2"><g id="Orca"><path class="cls-1" d="M147.58,81.36c-8.33-15.33-6.67-22-6.67-22,13.34-30.33,2-46.67-1.66-55s-6-2.33-10.34,10S117.58,26,117.58,26C97,6.79,61.11,6,38.06,19.87c.83,2,.58,5.2-.86,8.38-2.05,4.53-5.71,7.29-8.19,6.17-1.6-.72-2.3-2.89-2.05-5.56A41.26,41.26,0,0,0,22.25,35C4.91,63,14.58,73.69,14.58,73.69c.3.2.61.37.91.55,2.87-2,11.52-6.6,31-6.21,25,.5,26.33,5.5,31.66,16S90.66,127.69,90,147c0,0-3.34,14.83,7.5,21s-31.17,20-45.92,8.75c0,0-.5-10.5-10-26.25s-34.25,2-34.25,2c17,2.5,3.25,16.75,19.75,23.25-10.33.3-13.5,8.28-17.75,14.25-2.74,3.85-8.42,6.66-8.42,6.66,26.42,21.84,36.79,15.09,50,4s28.34-4,41.67-5.33,27-10.33,44.67-34S155.91,96.69,147.58,81.36Z"/><path class="cls-1" d="M29,34.42c2.48,1.12,6.14-1.64,8.19-6.17,1.44-3.18,1.69-6.37.86-8.38a49.31,49.31,0,0,0-11.1,9C26.71,31.53,27.41,33.7,29,34.42Z"/><path class="cls-1" d="M97.5,168c-10.84-6.17-7.5-21-7.5-21,.66-19.34-6.5-52.5-11.84-63S71.5,68.53,46.5,68c-19.49-.39-28.14,4.18-31,6.21C39,88.61,64.33,79.78,64.33,79.78c-11,8.25-10.72,40.44,1.75,54.5,13.75,15.5,17.25,20.25,9.25,32.75s-23.75,9.75-23.75,9.75C66.33,188,108.33,174.19,97.5,168Z"/><circle class="cls-1" cx="52.33" cy="49.4" r="4.38"/><ellipse class="cls-1" cx="20.7" cy="42.9" rx="4.38" ry="3.12" transform="translate(-26.93 42.76) rotate(-64.07)"/><circle class="cls-1" cx="54.08" cy="48.03" r="1.25"/><circle class="cls-1" cx="22.08" cy="42.15" r="1.25"/><ellipse class="cls-1" cx="57.02" cy="34.46" rx="11.31" ry="6.19" transform="translate(-8.95 25.14) rotate(-23.11)"/><path class="cls-1" d="M128.54,81.47s14.81,18.66,10.34,34.7-19.26,21.19-20.38,20.52-.25-22-7.83-32.57"/></g></g></svg>