<svg xmlns="http://www.w3.org/2000/svg" viewBox="0 0 253.1 149.44"><defs><style>.cls-1,.cls-2,.cls-3{fill:#231f20;}.cls-1,.cls-2{stroke:#231f20;stroke-miterlimit:10;}.cls-2{stroke-width:1.64px;}</style></defs><title>Asset 8</title><g id="Layer_2" data-name="Layer 2"><g id="Otter"><path class="cls-1" d="M249.19,82.58c-4.53,27.87-51.35,43.44-104.56,34.78S52,79.08,56.5,51.21c2-12,8.25-29.08,23.45-34,8.38-2.75,20.71,3.05,31.42,1.61,14.91-2,32.09-5.2,49.69-2.33C214.27,25.1,253.73,54.71,249.19,82.58Z"/><path class="cls-1" d="M221.52,59.07S249,56.85,252.33,88.22s-23.87,66.34-114.09,60c0,0,35.81-6.11,52.46-33.59S192.09,63.24,221.52,59.07Z"/><path class="cls-1" d="M68.29,80.45c-.84,0-14.44,11.93-21.93,14.15s-12.49,19.71,5.83,15,13.6-6.1,30.25-6.94S106,95.16,106,95.16Z"/><path class="cls-1" d="M100.72,19.12c3.32-4.89,1-12.37,1-12.37-4.17-.64-7.45,1.8-9.22,3.57A45.45,45.45,0,0,0,31.94,14c-5.63-4.22-8.62-1.74-8.62-1.74-2.06,6.83-.21,10.69,1.22,12.48a38.53,38.53,0,0,0-3.72,16.53c0,22.53,19.45,40.8,43.44,40.8s43.44-18.27,43.44-40.8A38.88,38.88,0,0,0,100.72,19.12Z"/><path class="cls-1" d="M27.13,63S18,42.87,30.88,43.56s13.19,5.69,18.74,3.75,7.77-5.55,13.6-4.44,11.24,5.41,19.71,2.77,10.13-9.44,15.54-6.38,4.17,14.57,4,26.92,7.27,22.53,13,24c0,0,25.29,6,29.77,7,4.13,1,44.87,20.67,44.83,20.68-45.39,7.91-91.3-14.12-91.54-14.12-.41,0-24.84-14.58-30.53-21.65A45.6,45.6,0,0,1,27.13,63Z"/><path class="cls-1" d="M64.4,50.54c0,1.41-2.64,4.23-5.9,4.23S52.6,52,52.6,50.54,55.24,48,58.5,48,64.4,49.12,64.4,50.54Z"/><path class="cls-2" d="M42.47,61.29c.19.54,5.65,5.63,17.15.16,0,0,10.4,7.3,20.32-3.47"/><ellipse class="cls-1" cx="62.21" cy="50.74" rx="1.21" ry="0.69"/><path class="cls-1" d="M152.4,99.18s-11.66-.41-36.65,14.3-33.58,13.6-33.58,13.6a9.36,9.36,0,0,1-9.44-3.33c-5.48-7.15,13.88-10.55,27.48-21.93s15.54-13,16.66-12.77S149.07,87.52,152.4,99.18Z"/><path class="cls-1" d="M25.4,23.19c-.26.15-2.64-4.23-.76-9.09A6.69,6.69,0,0,1,27.06,21,3.27,3.27,0,0,1,25.4,23.19Z"/><path class="cls-1" d="M100.9,8s2.29,6.94-1.31,9.79C99.59,17.78,94.73,15.21,100.9,8Z"/><circle class="cls-1" cx="38.1" cy="52.58" r="0.52"/><circle class="cls-1" cx="44.03" cy="52.17" r="0.52"/><circle class="cls-1" cx="43.88" cy="55.65" r="0.78"/><circle class="cls-1" cx="75.73" cy="49.36" r="0.78"/><circle class="cls-1" cx="46.95" cy="53.31" r="0.36"/><circle class="cls-1" cx="72.97" cy="56.02" r="0.36"/><circle class="cls-1" cx="71.25" cy="50.14" r="0.36"/><circle class="cls-1" cx="38.78" cy="54.77" r="0.36"/><circle class="cls-1" cx="33.62" cy="52.79" r="0.36"/><circle class="cls-1" cx="79.06" cy="53.94" r="0.36"/><circle class="cls-1" cx="71.51" cy="52.95" r="0.36"/><circle class="cls-1" cx="82.86" cy="49.15" r="0.36"/><circle class="cls-1" cx="86.61" cy="50.14" r="0.36"/><circle class="cls-1" cx="68.55" cy="54.4" r="0.47"/><circle class="cls-1" cx="75" cy="53.47" r="0.57"/><circle class="cls-1" cx="35.65" cy="55.34" r="0.57"/><circle class="cls-1" cx="83.28" cy="52.27" r="0.57"/><circle class="cls-1" cx="80.05" cy="50.81" r="0.52"/><circle class="cls-1" cx="37.37" cy="50.08" r="0.52"/><circle class="cls-1" cx="68.5" cy="48.42" r="0.52"/><circle class="cls-1" cx="40.91" cy="49.56" r="0.42"/><circle class="cls-1" cx="50.02" cy="56.69" r="0.47"/><circle class="cls-1" cx="29.88" cy="51.54" r="0.47"/><circle class="cls-1" cx="33.88" cy="48.78" r="0.36"/><path class="cls-3" d="M41.43,52S21.34,42.28.1,47.79"/><path class="cls-3" d="M41.25,52.33a65.86,65.86,0,0,0-9.87-3.55,72.17,72.17,0,0,0-10.32-2c-1.74-.25-3.49-.34-5.25-.45-.87,0-1.75,0-2.63,0H11.86l-1.32.07A55.87,55.87,0,0,0,.1,47.79a56.69,56.69,0,0,1,10.43-1.68l1.32-.1h1.32c.89,0,1.77,0,2.65,0,1.77.08,3.53.13,5.29.34a72.59,72.59,0,0,1,10.43,1.86,65.9,65.9,0,0,1,10.07,3.4Z"/><path class="cls-3" d="M40.81,53.21c-.42,0-33.42-5.31-40.81,0"/><path class="cls-3" d="M40.81,53.62l-5.17-.75c-1.7-.23-3.4-.45-5.11-.65-3.41-.41-6.83-.75-10.26-1A98.49,98.49,0,0,0,10,51.05a41.84,41.84,0,0,0-5.12.49A12.8,12.8,0,0,0,0,53.21a12.92,12.92,0,0,1,4.82-1.77,42,42,0,0,1,5.13-.6,96.39,96.39,0,0,1,10.34,0c3.44.15,6.88.42,10.31.75s6.91.76,10.21,1.2Z"/><path class="cls-3" d="M41,54.66S13.53,53.21,2,61.43"/><path class="cls-3" d="M41,55.08c-3.32-.18-6.67-.19-10-.1s-6.68.31-10,.7a64.48,64.48,0,0,0-9.85,1.83A30.77,30.77,0,0,0,2,61.43a30.79,30.79,0,0,1,9.12-4.12,64.62,64.62,0,0,1,9.84-2c3.33-.47,6.67-.76,10-.91s6.71-.22,10.08-.11Z"/><path class="cls-3" d="M75.57,50.29s20.09-9.68,41.33-4.16"/><path class="cls-3" d="M75.39,49.92a66.32,66.32,0,0,1,10.07-3.41A72.45,72.45,0,0,1,95.9,44.66c1.75-.21,3.52-.27,5.28-.35.88,0,1.77,0,2.65,0l1.32,0,1.32.1a55.73,55.73,0,0,1,10.43,1.68,55.88,55.88,0,0,0-10.44-1.48l-1.32-.07h-1.31c-.88,0-1.76,0-2.64,0-1.75.12-3.51.21-5.25.45a72.44,72.44,0,0,0-10.32,2,65.59,65.59,0,0,0-9.87,3.56Z"/><path class="cls-3" d="M76.2,51.54c.41,0,33.41-5.31,40.8,0"/><path class="cls-3" d="M76.2,51.13c3.29-.44,6.8-.87,10.21-1.2s6.86-.61,10.31-.76a98.87,98.87,0,0,1,10.33,0,40.11,40.11,0,0,1,5.13.61A12.84,12.84,0,0,1,117,51.54a12.91,12.91,0,0,0-4.83-1.66,42,42,0,0,0-5.13-.5,98.36,98.36,0,0,0-10.3.21c-3.43.22-6.85.56-10.27,1-1.7.2-3.41.42-5.11.66L76.2,52Z"/><path class="cls-3" d="M76,53s27.48-1.46,39,6.77"/><path class="cls-3" d="M76,52.58c3.37-.11,6.72,0,10.07.11s6.7.45,10,.92a63.77,63.77,0,0,1,9.85,2A30.93,30.93,0,0,1,115,59.77a30.74,30.74,0,0,0-9.18-3.93A65.8,65.8,0,0,0,96,54c-3.32-.4-6.65-.62-10-.7s-6.69-.08-10,.09Z"/><path class="cls-1" d="M190.43,106c-1.42-.87-18.05,11.66-35,14.44s-20.54,5.83-14.71,11.38,51.63-2.22,51.63-2.22S202.64,113.48,190.43,106Z"/><ellipse class="cls-1" cx="44.54" cy="35.85" rx="6.08" ry="7.75"/><ellipse class="cls-1" cx="77.37" cy="35.85" rx="6.08" ry="7.75"/><circle class="cls-1" cx="46.79" cy="34.1" r="1.83"/><circle class="cls-1" cx="79.62" cy="34.1" r="1.83"/></g></g></svg>