<svg xmlns="http://www.w3.org/2000/svg" viewBox="0 0 234.73 233.12"><defs><style>.cls-1{fill:#f9a01b;}.cls-2{fill:#fff200;}</style></defs><title>Asset 3</title><g id="Layer_2" data-name="Layer 2"><g id="Layer_1-2" data-name="Layer 1"><path class="cls-1" d="M234.73,132.72l-40.51,19,14.17,42.44S176.76,183.66,164,188.2s-11,43.37-11,43.37-20-26.72-34.09-29-32.72,30.52-32.72,30.52-2.46-31.72-13-42.81-44,8-44,8,15.4-27.17,12.18-43.05S0,138.17,0,138.17s31.45-18.37,33.53-29.62S8,71.82,8,71.82s38,4,44.23-6.8-1.65-44.71-1.65-44.71S78,43.47,91.43,38.5,114.22,0,114.22,0s12,31.33,24.55,37.4,40-20.07,40-20.07-8.85,35.71.44,44.74,44.49,4.74,44.49,4.74-24.27,26-23.83,37.87S234.73,132.72,234.73,132.72Z"/><circle class="cls-2" cx="117.37" cy="116.56" r="58.5"/></g></g></svg>