<?xml version="1.0" encoding="utf-8"?>
<!-- Generator: Adobe Illustrator 19.0.0, SVG Export Plug-In . SVG Version: 6.00 Build 0)  -->
<svg version="1.1" id="Layer_1" xmlns="http://www.w3.org/2000/svg" xmlns:xlink="http://www.w3.org/1999/xlink" x="0px" y="0px"
	 viewBox="82 -87.1 191.5 215.1" style="enable-background:new 82 -87.1 191.5 215.1;" xml:space="preserve">
<style type="text/css">
	.st0{clip-path:url(#SVGID_4_);}
</style>
<title>Asset 9</title>
<g>
	<g id="Orca">
		<path d="M110.6,113.1c0,0-9.1-0.5-15.7,5.4c-0.9,0.8-1,2.2-0.2,3.1c0.5,0.5,1.1,0.8,1.8,0.7c2.8-0.2,6,0.1,7.8,2
			c0.4,0.5,1,0.7,1.6,0.8c2.6,0.1,9.2,0.6,12,2c0.5,0.3,1.1,0.4,1.7,0.2c2.1-0.6,6.9-2.3,9-6.8C131.3,114.9,110.6,113.1,110.6,113.1
			z"/>
		<path d="M174.6,113.1c0,0,9.1-0.5,15.7,5.4c0.9,0.8,1,2.2,0.2,3.1c-0.5,0.5-1.1,0.8-1.8,0.7c-2.8-0.2-6,0.1-7.8,2
			c-0.4,0.5-1,0.7-1.6,0.8c-2.6,0.1-9.2,0.6-12,2c-0.5,0.3-1.1,0.4-1.7,0.2c-2.1-0.6-6.9-2.3-9-6.8
			C153.8,114.9,174.6,113.1,174.6,113.1z"/>
		<ellipse cx="141.3" cy="-42.5" rx="47.1" ry="44.1"/>
		<path d="M100.5-79.3c4.4,0.9,7.1,6.1,6.4,11.9l8.9-5.2c-3.3-2.6-6.1-5.8-8.3-9.4c-2.7-4.3-11.3-1.2-12.5,4
			C96.6-79.1,98.5-79.6,100.5-79.3z"/>
		<path d="M102.9-64.8l4.5-2.6c0.8-6.1-2.1-11.5-6.7-12.4c-2-0.4-4,0.1-5.6,1.3c-0.3,1.3-0.2,2.6,0.3,3.8
			C98.4-67.2,102.9-64.8,102.9-64.8z"/>
		<path d="M181.3-80.7c-4.4,0.9-7.1,6.1-6.4,11.9L166-74c3.3-2.6,6.1-5.8,8.3-9.4c2.7-4.5,11.2-1.4,12.5,3.9
			C185.2-80.6,183.2-81,181.3-80.7z"/>
		<path d="M179-66.3l-4.4-2.6c-0.8-6,2.1-11.3,6.6-12.2c2-0.3,4,0.1,5.7,1.3c0.3,1.2,0.2,2.6-0.3,3.8C183.5-68.6,179-66.3,179-66.3z
			"/>
		<path d="M163.2,89.8c0,0,34.3-11,47.1-35.2s27.6-46.2,44.5-42.8s25.9,28.4,9.8,49.6c-16.1,21.2-62.3,46.7-86.1,43.7L163.2,89.8z"
			/>
		<g>
			<g>
				<path id="SVGID_1_" d="M163.2,89.8c0,0,34.3-11,47.1-35.2s27.6-46.2,44.5-42.8s25.9,28.4,9.8,49.6
					c-16.1,21.2-62.3,46.7-86.1,43.7L163.2,89.8z"/>
			</g>
			<g>
				<defs>
					<path id="SVGID_3_" d="M163.2,89.8c0,0,34.3-11,47.1-35.2s27.6-46.2,44.5-42.8s25.9,28.4,9.8,49.6
						c-16.1,21.2-62.3,46.7-86.1,43.7L163.2,89.8z"/>
				</defs>
				<use xlink:href="#SVGID_3_"  style="overflow:visible;"/>
				<clipPath id="SVGID_4_">
					<use xlink:href="#SVGID_3_"  style="overflow:visible;"/>
				</clipPath>
				<g class="st0">
					<path d="M163.2,89.8c0,0,34.3-11,47.1-35.2s27.6-46.2,44.5-42.8s25.9,28.4,9.8,49.6c-16.1,21.2-62.3,46.7-86.1,43.7L163.2,89.8
						z"/>
					<path d="M269.1,5.1v81.8"/>
					<path d="M265.2,5.1v81.8"/>
					<path d="M261.4,5.1v81.8"/>
					<path d="M257.6,5.1v81.8"/>
					<path d="M253.8,5.1v81.8"/>
					<path d="M250,5.1v81.8"/>
					<path d="M246.2,5.1v81.8"/>
					<path d="M242.3,5.1v81.8"/>
					<path d="M239,15.3v81.8"/>
					<path d="M235.6,15.3v81.8"/>
					<path d="M231.7,15.3v81.8"/>
					<path d="M227.9,15.3v81.8"/>
					<path d="M224.1,15.3v81.8"/>
					<path d="M220.3,15.3v81.8"/>
					<path d="M216.5,15.3v81.8"/>
					<path d="M212.7,17.9v81.8"/>
					<path d="M208.6,38.2V120"/>
					<path d="M204.8,38.2V120"/>
					<path d="M201,40.8v81.8"/>
					<line x1="191" y1="102.5" x2="283.1" y2="59.2"/>
					<line x1="188.9" y1="98.4" x2="280.9" y2="55.2"/>
					<line x1="186.8" y1="94.4" x2="278.8" y2="51.2"/>
					<line x1="184.7" y1="90.4" x2="276.7" y2="47.1"/>
					<line x1="182.6" y1="86.3" x2="274.6" y2="43.1"/>
					<line x1="188.9" y1="78.7" x2="280.9" y2="35.5"/>
					<line x1="186.8" y1="74.7" x2="278.8" y2="31.4"/>
					<line x1="184.7" y1="70.7" x2="276.7" y2="27.4"/>
					<line x1="182.6" y1="66.6" x2="274.6" y2="23.4"/>
					<line x1="180.4" y1="62.6" x2="272.4" y2="19.3"/>
					<line x1="193.6" y1="51.8" x2="285.6" y2="8.5"/>
					<line x1="191.4" y1="47.8" x2="283.5" y2="4.5"/>
					<line x1="189.3" y1="43.7" x2="281.4" y2="0.5"/>
					<line x1="187.2" y1="39.7" x2="279.2" y2="-3.5"/>
					<line x1="185.1" y1="35.7" x2="277.1" y2="-7.6"/>
				</g>
			</g>
			<g>
				<path id="SVGID_2_" d="M163.2,89.8c0,0,34.3-11,47.1-35.2s27.6-46.2,44.5-42.8s25.9,28.4,9.8,49.6
					c-16.1,21.2-62.3,46.7-86.1,43.7L163.2,89.8z"/>
			</g>
		</g>
		<path d="M163.2,89.8c0,0,34.3-11,47.1-35.2s27.6-46.2,44.5-42.8s25.9,28.4,9.8,49.6c-16.1,21.2-62.3,46.7-86.1,43.7L163.2,89.8z"
			/>
		<path d="M151,122.4h-19.3c-29.5,0-52.4-20.4-48.9-43.5l9.6-63c3-19.5,24-34.2,48.9-34.2l0,0c24.9,0,45.9,14.7,48.9,34.2l9.6,63
			C203.4,102,180.5,122.4,151,122.4z"/>
		<path d="M150.4-35.6l-3.6,5.2c-2.2,3.1-7.5,3.1-9.7,0l-3.6-5.2c-2.2-3.1,0.5-7,4.8-7h7.2C149.9-42.6,152.6-38.7,150.4-35.6z"/>
		<ellipse cx="122.1" cy="-55.4" rx="5.4" ry="7.8"/>
		<circle cx="124.6" cy="-57.1" r="1.8"/>
		<ellipse cx="157.7" cy="-55.4" rx="5.4" ry="7.8"/>
		<circle cx="160.3" cy="-57.1" r="1.8"/>
		<path d="M127.4-39.9c0,0-26.2-3.4-41.5,1.9"/>
		<path d="M126.7-37.2c0,0-29,2.2-39.2,8.4"/>
		<path d="M127.2-33.7c0,0-29.8,7.1-36.5,15.7"/>
		<path d="M156.4-39.9c0,0,26.2-3.4,41.5,1.9"/>
		<path d="M157.2-37.2c0,0,29,2.2,39.2,8.4"/>
		<path d="M156.7-33.7c0,0,29.8,7.1,36.5,15.8"/>
		<path d="M134.3-23.7v8.4h14.1v-8.6c-2.3,0.1-4.7-0.2-7-0.6C141.4-24.6,139.8-23.7,134.3-23.7z"/>
		<path d="M127-27.2c4.1,3.2,9.5,4.2,14.4,2.6v-11.3"/>
		<path d="M156.1-27.2c-4.1,3.2-9.4,4.2-14.4,2.6v-11.3"/>
		<line x1="141.6" y1="-15.5" x2="141.6" y2="-24.6"/>
		<path d="M102,16.1c-0.1-0.4,2.1-12.6,19.6-15.3"/>
		<path d="M125.2,13.7c0,0-5.1,7.5-7.5,14.5c-0.4,1.2-1.7,1.9-2.9,1.5"/>
		<path d="M124.7,14.1c-2.2-1.5-7-5.8-3.4-13.2c0-0.1,0.1-0.2,0.2-0.3c2.8-2.3,6.5-3.5,10.1-3.1c0.4,0.1,0.8,0.5,0.7,0.9
			c0,0.3-0.2,0.5-0.4,0.6l-0.3,0.1c-0.4,0.2-0.6,0.7-0.4,1.1c0.1,0.2,0.3,0.4,0.6,0.5l1.8,0.3c0.4,0.1,0.7,0.5,0.7,0.9
			c0,0.2-0.1,0.4-0.3,0.5l-1,0.8c-0.3,0.3-0.4,0.8-0.1,1.1c0.2,0.2,0.4,0.3,0.7,0.3l0,0c0.4,0,0.8,0.3,0.9,0.7
			c0,0.3-0.1,0.5-0.3,0.7l-2.7,2.2l-0.1,0.1c-0.6,0.3-4.5,2.4-5.4,5.4c-0.1,0.4-0.6,0.7-1,0.6C124.8,14.2,124.8,14.2,124.7,14.1z"/>
		<path d="M184.3,17.9c0.1-0.4-1.3-12.7-18.7-16.4"/>
		<path d="M161.1,13.2c0,0,4.7,7.8,6.7,14.9c0.3,1.2,1.6,2,2.8,1.7"/>
		<path d="M161.9,14c2.2-1.3,7.2-5.3,4.1-12.7c0-0.1-0.1-0.2-0.2-0.3c-2.6-2.4-6.1-3.7-9.7-3.6c-0.4,0-0.8,0.4-0.7,0.9
			c0,0.3,0.2,0.5,0.4,0.6L156-1c0.4,0.2,0.5,0.7,0.3,1.1c-0.1,0.2-0.3,0.4-0.6,0.4L154,0.7c-0.4,0-0.8,0.4-0.7,0.8
			c0,0.2,0.1,0.4,0.3,0.5l0.9,0.8c0.3,0.3,0.4,0.8,0.1,1.1c-0.2,0.2-0.4,0.3-0.7,0.3l0,0c-0.5-0.1-0.9,0.2-0.9,0.7
			c0,0.3,0.1,0.5,0.2,0.7l2.4,2.3l0.1,0.1c0.5,0.3,4.2,2.6,5,5.5c0.1,0.4,0.5,0.7,1,0.6C161.8,14.1,161.9,14.1,161.9,14z"/>
	</g>
</g>
</svg>
