<svg xmlns="http://www.w3.org/2000/svg" viewBox="0 0 167.33 355.71"><defs><style>.cls-1{fill:#ffd45e;}.cls-2,.cls-8{fill:#fff793;}.cls-3{fill:#231f20;}.cls-4,.cls-6,.cls-7{fill:none;stroke-miterlimit:10;}.cls-4{stroke:#231f20;}.cls-4,.cls-7{stroke-width:1.31px;}.cls-5{fill:#fff;}.cls-6,.cls-7{stroke:#fff793;}.cls-6{stroke-width:1.18px;}.cls-8{opacity:0.25;}</style></defs><title>Asset 3</title><g id="Layer_2" data-name="Layer 2"><g id="JellyFish"><path class="cls-1" d="M39,98.72s-.24.53-.66,1.32a38.62,38.62,0,0,1-2,3.34,47.85,47.85,0,0,1-9.19,10.19l-1.71,1.35-1.86,1.3-1.75,1.21c-.58.42-1.07.84-1.63,1.26a31.71,31.71,0,0,0-6.05,6.55,23.1,23.1,0,0,0-3.71,8.61,16.75,16.75,0,0,0-.26,2.34,9.14,9.14,0,0,0,0,1.17l0,.58.07.66a27.6,27.6,0,0,0,.79,5,28.25,28.25,0,0,0,4.7,8.87c2,2.77,4.25,5.38,6.44,7.87s4.42,4.8,6.5,7.08c1,1.11,2,2.23,3,3.34s1.83,2.17,2.69,3.21S36,176,36.7,177s1.4,1.93,2,2.86a37.54,37.54,0,0,1,2.78,4.92,15.19,15.19,0,0,1,1.2,3.42,4.75,4.75,0,0,1,.11,1.28,4.39,4.39,0,0,0-.18-1.26,15.4,15.4,0,0,0-1.38-3.32,36.32,36.32,0,0,0-3-4.7c-.62-.88-1.37-1.75-2.11-2.71s-1.6-1.9-2.5-2.88-1.82-2-2.84-3-2-2.08-3.14-3.14c-2.17-2.12-4.56-4.34-6.92-6.72s-4.77-4.89-7-7.66a31,31,0,0,1-5.72-9.52,32.34,32.34,0,0,1-1.22-5.49l-.1-.66-.08-.74a12.37,12.37,0,0,1-.09-1.48,20.12,20.12,0,0,1,.16-2.91A23.76,23.76,0,0,1,8,127.77a29.09,29.09,0,0,1,2.39-4.92,36.12,36.12,0,0,1,6.52-7.94c.62-.55,1.27-1.13,1.86-1.61l1.78-1.4,1.56-1.22,1.43-1.26A42.22,42.22,0,0,0,31,100.05c.74-1.25,1.24-2.26,1.56-2.93s.42-1,.44-1a3.26,3.26,0,0,1,6,2.6Z"/><path class="cls-2" d="M46.39,100.29c-.58.38-1.24.86-1.85,1.33s-1.23,1-1.81,1.49-1.16,1-1.71,1.58-1.07,1.1-1.58,1.66-1,1.15-1.37,1.74a18.35,18.35,0,0,0-1.13,1.79l-.44.9c-.15.3-.21.59-.33.89a4.19,4.19,0,0,0-.22.86l-.1.43c0,.13-.05.4-.07.6-.1.86-.19,1.66-.25,2.43a15.69,15.69,0,0,0-.05,2.13,6.23,6.23,0,0,0,.31,1.74,10.71,10.71,0,0,0,.84,1.83c.37.65.79,1.32,1.24,2l1.42,2.06,3,4.17.12.17,0,0a20,20,0,0,1,1.19,2.58,24,24,0,0,1,.87,2.55,26.34,26.34,0,0,1,1,5.29,24.31,24.31,0,0,1-.14,5.39,21.32,21.32,0,0,1-.55,2.64l-.36,1.3c-.13.43-.32.84-.48,1.26s-.32.84-.51,1.24l-.62,1.19c-.21.39-.41.79-.63,1.17l-.64,1.05L38.87,160a49.88,49.88,0,0,0-4.55,8.4,21.84,21.84,0,0,0-.71,2.21,19.22,19.22,0,0,0-.39,2.27,22.24,22.24,0,0,0-.13,2.32c.07.78,0,1.57.18,2.35a21.08,21.08,0,0,0,.38,2.36c.08.38.15.82.23,1.14l.33,1.19a30.47,30.47,0,0,0,1.68,4.5c.32.73.72,1.44,1.08,2.17s.79,1.41,1.21,2.11c.86,1.37,1.76,2.74,2.74,4s2,2.58,3.07,3.82,2.2,2.43,3.39,3.56c-1.26-1-2.46-2.17-3.62-3.34s-2.29-2.37-3.34-3.64-2.08-2.57-3.05-3.91c-.47-.69-.93-1.38-1.38-2.08s-.87-1.42-1.25-2.16a32.57,32.57,0,0,1-2.07-4.59l-.4-1.17c-.15-.45-.23-.82-.35-1.24a25.27,25.27,0,0,1-.56-2.47c-.2-.83-.24-1.69-.36-2.54a24.83,24.83,0,0,1,0-2.59,20.46,20.46,0,0,1,.28-2.6,21.75,21.75,0,0,1,.63-2.53,52,52,0,0,1,4.2-9.19L38.4,154l.57-1.09c.17-.34.31-.69.47-1l.46-1c.13-.35.23-.71.35-1.06s.24-.7.33-1.06l.22-1.09a16.4,16.4,0,0,0,.31-2.2,19.33,19.33,0,0,0-.18-4.43,21.52,21.52,0,0,0-1.08-4.32c-.25-.7-.54-1.39-.85-2.06a16.81,16.81,0,0,0-1-1.83l.14.21-3.25-4L33.27,127c-.54-.72-1.08-1.46-1.61-2.26A16.79,16.79,0,0,1,30.19,122a12.45,12.45,0,0,1-.84-3.25,22.31,22.31,0,0,1-.13-3c0-.93.05-1.84.08-2.68,0-.23,0-.39,0-.68l.11-.84a9.52,9.52,0,0,1,.3-1.64c.15-.51.27-1.06.46-1.55l.58-1.45a24.86,24.86,0,0,1,1.44-2.65,27.47,27.47,0,0,1,1.65-2.4c.58-.76,1.18-1.49,1.81-2.19s1.26-1.38,1.92-2,1.34-1.29,2-1.9,1.38-1.21,2.2-1.82l0,0a3.92,3.92,0,0,1,4.74,6.24Z"/><path class="cls-2" d="M48.07,89.64a12.78,12.78,0,0,1,1.75.54,16.23,16.23,0,0,1,4.45,2.47A11.33,11.33,0,0,1,56.8,95.5a10.51,10.51,0,0,1,1,2c.12.37.2.75.29,1.14a4.62,4.62,0,0,1,.19,1.18l.07,1.22c0,.41-.07.81-.1,1.22a13,13,0,0,1-.5,2.45l-.16.62-.23.6-.42,1.1c-.29.75-.71,1.59-1.08,2.39a87.92,87.92,0,0,1-5.92,9.13c-2,3.06-3.7,6.45-3.56,10.33a8.77,8.77,0,0,0,.09,1.44l.07.73,0,.19v.14c0-.18,0,0,0-.05l.09.38.35,1.55.49,1.25a9.74,9.74,0,0,0,3.83,4.19c1.71,1.1,3.73,1.92,5.74,2.94a19.07,19.07,0,0,1,5.67,4,17.91,17.91,0,0,1,3.43,6,22.86,22.86,0,0,1,1.51,6.64,18.16,18.16,0,0,1-.8,6.66A24.39,24.39,0,0,1,64,170.79a42.24,42.24,0,0,1-3.79,4.88c-.65.78-1.36,1.47-2,2.19l-2,2.1a39.16,39.16,0,0,0-5.94,8.73,28.67,28.67,0,0,0-2.65,8.54,30.46,30.46,0,0,0-.15,6.93c.09,1,.18,1.82.32,2.56s.23,1.37.36,1.87l.35,1.55-.39-1.54c-.15-.5-.27-1.13-.41-1.87s-.28-1.59-.4-2.55a31,31,0,0,1,0-7,29.32,29.32,0,0,1,2.46-8.75,39.91,39.91,0,0,1,5.82-9.08c1.25-1.44,2.59-2.88,3.86-4.37A42.31,42.31,0,0,0,63,170.13a23.13,23.13,0,0,0,2.5-5.58,16.37,16.37,0,0,0,.57-6.12,21.5,21.5,0,0,0-1.56-6.09A16.23,16.23,0,0,0,61.28,147a17.12,17.12,0,0,0-5.19-3.45,64.28,64.28,0,0,1-6-2.88,12.28,12.28,0,0,1-4.88-5.11c-.24-.57-.5-1.15-.7-1.71l-.39-1.53-.1-.39,0-.14v0l0-.1,0-.21-.11-.83a10.24,10.24,0,0,1-.14-1.66,16.75,16.75,0,0,1,1-6.51,27.52,27.52,0,0,1,2.75-5.51,88,88,0,0,0,5.49-9c.3-.71.61-1.33.87-2.07l.39-1.11.17-.48.11-.49a9.41,9.41,0,0,0,.33-1.88c0-.3.06-.6,0-.88l-.07-.83a2.45,2.45,0,0,0-.15-.77c-.07-.24-.12-.49-.2-.72a7.06,7.06,0,0,0-.66-1.25A7.66,7.66,0,0,0,52,95.6a12.32,12.32,0,0,0-3.43-1.77,9.61,9.61,0,0,0-1.29-.37,2,2,0,0,1,.84-3.82Z"/><path class="cls-2" d="M65.66,84.11l.2.1.66.33c.54.3,1.31.76,2.29,1.4a30.35,30.35,0,0,1,7.24,6.9c.32.44.66.88,1,1.35l.9,1.51a27.85,27.85,0,0,1,1.68,3.37,16,16,0,0,1,.66,1.88c.2.66.47,1.3.61,2l.42,2.11c.06.36.14.72.2,1.08l.08,1.11.17,2.28c0,.77-.05,1.55-.07,2.34s0,1.59-.14,2.39l-.39,2.42-.2,1.24c0,.21-.06.39-.11.64l-.14.59-.56,2.41c-.36,1.61-.86,3.31-1.3,5-1,3.39-2.09,6.88-3.28,10.43a78.61,78.61,0,0,0-3.09,11,37.62,37.62,0,0,0-.24,11.77l.47,3.05c.17,1,.42,2,.63,3.06l.16.77.07.32.11.39.46,1.54a22.29,22.29,0,0,0,1,3c.42.95.75,1.92,1.23,2.87l1.47,2.86c1.1,1.86,2.21,3.75,3.48,5.56,2.48,3.67,5.24,7.24,8,10.93s5.45,7.43,7.86,11.43c1.28,2,2.34,4.06,3.49,6.1.53,1,1,2.11,1.52,3.17A34.19,34.19,0,0,1,103.6,218l1.3,3.28c.44,1.08.72,2.23,1.1,3.34s.73,2.23,1,3.36l.79,3.41.4,1.71.1.42,0,.11,0,.13,0,.22.14.85c.19,1.13.38,2.27.48,3.45.06.59.14,1.17.18,1.76l.09,1.74c.08,1.17,0,2.33,0,3.49a54.74,54.74,0,0,1-2.2,13.55,90.8,90.8,0,0,1-4.84,12.43c-3.66,7.91-7.76,15.29-9.93,22.92a40.89,40.89,0,0,0-1.72,11.33A35,35,0,0,0,91,311c.23,1.76.65,3.52,1,5.22A75.21,75.21,0,0,0,98.3,334a80.32,80.32,0,0,0,7.78,12.35,74.08,74.08,0,0,0,6.16,7.11c1.54,1.54,2.43,2.29,2.43,2.29s-.9-.73-2.46-2.26a74.64,74.64,0,0,1-6.27-7,81.22,81.22,0,0,1-8-12.3,75.31,75.31,0,0,1-6.65-17.81c-.33-1.71-.75-3.41-1-5.24a37.59,37.59,0,0,1-.43-5.56,42,42,0,0,1,1.6-11.58c2.11-7.79,6.15-15.28,9.68-23.18a89.76,89.76,0,0,0,4.61-12.31,52.59,52.59,0,0,0,2-13.2c0-1.12,0-2.25-.07-3.37l-.11-1.69c0-.56-.12-1.11-.19-1.67-.1-1.11-.3-2.24-.52-3.38l-.15-.85,0-.21c0-.06,0,0,0-.08l0-.11-.1-.41-.42-1.67-.82-3.33c-.3-1.1-.7-2.18-1-3.27s-.67-2.19-1.12-3.25l-1.3-3.18c-.41-1.07-.92-2.1-1.43-3.12s-1-2.06-1.53-3.08c-1.15-2-2.2-4-3.48-5.91-2.42-3.89-5.16-7.55-7.91-11.18s-5.59-7.18-8.17-10.9a57.12,57.12,0,0,1-6.64-11.82,24.28,24.28,0,0,1-1.1-3.12l-.48-1.54-.12-.38s-.06-.2,0-.17l0-.1,0-.2-.18-.8c-.24-1.06-.51-2.11-.7-3.17l-.54-3.19a40.92,40.92,0,0,1,.1-12.65,82.06,82.06,0,0,1,3-11.43c1.15-3.57,2.2-7,3.1-10.32.41-1.67.86-3.25,1.2-4.89l.53-2.41.13-.6.09-.55.16-1.13.33-2.22c.08-.73.06-1.45.1-2.16s.09-1.42,0-2.1l-.17-2a24.06,24.06,0,0,0-5-12.5,26.63,26.63,0,0,0-6.41-6c-.85-.54-1.52-.93-2-1.16l-.47-.24-.2-.09h0a2,2,0,0,1,1.64-3.56Z"/><path class="cls-1" d="M102.43,74.42l.12.07.59.38a15.38,15.38,0,0,1,1.59,1.3,21.33,21.33,0,0,1,4.19,5.52,31.53,31.53,0,0,1,3.2,9.49,51.37,51.37,0,0,1,.57,12.34c-.07,1.11-.22,2.23-.33,3.38l-.09.86,0,.44,0,.21,0,.23,0,.1-.3,1.67c-.22,1.15-.33,2.21-.7,3.51l-.48,1.89-.25,1-.31.92a38.45,38.45,0,0,1-1.38,3.69l-.81,1.84L107,125c-1.23,2.37-2.68,4.63-3.86,6.79a22.42,22.42,0,0,0-2.44,6.75l-.24,1.82c-.09.61,0,1.25-.06,1.88a17.59,17.59,0,0,0,0,1.92l.17,2a36.27,36.27,0,0,0,.56,4c.18,1.33.53,2.66.83,4l.47,2,.1.42.16.51.3,1,.31,1c.11.32.24.61.35.92l.72,1.83a70.85,70.85,0,0,0,8.42,14c3.28,4.38,6.83,8.49,10.38,12.38,7.11,7.77,14.14,14.72,19.83,21,2.85,3.14,5.37,6.11,7.43,8.89a46.44,46.44,0,0,1,4.71,7.59,19.61,19.61,0,0,1,1.65,5.5,13.39,13.39,0,0,1,.07,1.51v.51l0-.51a14.52,14.52,0,0,0-.14-1.5,19.3,19.3,0,0,0-1.87-5.36,44.53,44.53,0,0,0-5-7.3c-2.16-2.65-4.78-5.49-7.75-8.49-5.92-6-13.23-12.63-20.74-20.14-3.74-3.76-7.52-7.77-11.09-12.13a73.59,73.59,0,0,1-9.48-14.37c-.32-.68-.61-1.38-.91-2.07-.15-.35-.31-.7-.44-1l-.35-1-.35-1-.18-.5-.07-.2,0-.13-.07-.26-.59-2.08c-.38-1.38-.8-2.75-1.06-4.18s-.66-2.81-.8-4.28l-.28-2.18c-.11-.72-.07-1.48-.11-2.21a20.74,20.74,0,0,1,0-2.23l.19-2.25a27.54,27.54,0,0,1,2.62-8.44c1.25-2.54,2.52-4.72,3.55-6.91l.75-1.63.63-1.62a34.07,34.07,0,0,0,1-3.25l.24-.81.17-.79.33-1.57c.26-1,.35-2.23.52-3.34l.22-1.68.09-1.47c0-1,.15-2.07.17-3.07a44.42,44.42,0,0,0-.94-10.63,24,24,0,0,0-2.75-7.2,13.88,13.88,0,0,0-2.84-3.46,9,9,0,0,0-.77-.57s0,0-.05,0l-.12-.06-.06,0a3.92,3.92,0,1,1,3.73-6.9Z"/><path class="cls-2" d="M115.64,66.93l.39.14c.29.11.73.27,1.2.47,1,.41,2.39,1,4.1,1.95a62,62,0,0,1,5.93,3.61,56.89,56.89,0,0,1,6.93,5.7l.9.86.87.93c.58.63,1.19,1.25,1.76,1.93a54.45,54.45,0,0,1,3.33,4.37,51.72,51.72,0,0,1,3,4.93c.48.86.86,1.79,1.29,2.69l.64,1.37.08.18.07.15,0,.09.13.34.25.67c.34.91.7,1.8,1,2.75s.62,2,.94,3,.48,2.07.72,3.11.31,2.15.47,3.23a35.2,35.2,0,0,1-1.49,12.91c-1.14,4.06-2.39,7.9-3.3,11.8a102.53,102.53,0,0,0-2,11.56c-.09.86-.17,1.91-.21,2.8a26.25,26.25,0,0,0,.07,2.66,20.75,20.75,0,0,0,1,5.11,17.53,17.53,0,0,0,2.11,4.45,18.67,18.67,0,0,0,3,3.58,22.56,22.56,0,0,0,3.41,2.67,26.43,26.43,0,0,0,3.45,1.9,34.13,34.13,0,0,0,6.07,2.16,36.33,36.33,0,0,0,4.09.84c.95.13,1.47.17,1.47.17s-.52,0-1.48-.09a37.69,37.69,0,0,1-10.44-2.42,27.38,27.38,0,0,1-3.66-1.74,24,24,0,0,1-3.72-2.58,20,20,0,0,1-3.4-3.63,19.65,19.65,0,0,1-2.58-4.69,22.65,22.65,0,0,1-1.4-5.5,28.14,28.14,0,0,1-.24-3c0-1,0-1.87,0-2.93a106.11,106.11,0,0,1,1.35-12c.7-4.06,1.76-8.14,2.61-12.08a30.56,30.56,0,0,0,.68-11.43c-.19-.92-.31-1.84-.56-2.74s-.5-1.81-.8-2.69l-.95-2.56c-.37-.88-.79-1.78-1.18-2.66l-.3-.66-.14-.33,0-.08s-.05-.1,0,0l0,0-.08-.15-.64-1.19c-.44-.78-.82-1.58-1.28-2.32A50.28,50.28,0,0,0,133,86.77c-.54-.57-1.12-1.08-1.65-1.6l-.81-.78-.84-.7a49.11,49.11,0,0,0-6.38-4.64A53,53,0,0,0,118,76.21c-1.52-.68-2.74-1.16-3.55-1.43-.42-.16-.69-.23-.87-.29l-.33-.1-.08,0a3.92,3.92,0,0,1,2.25-7.51Z"/><path class="cls-2" d="M74.07,74.54l.44.19c.33.14.77.35,1.3.62A44.94,44.94,0,0,1,80.26,78a54.3,54.3,0,0,1,6.27,4.82,58.61,58.61,0,0,1,7,7.39,66.18,66.18,0,0,1,6.55,10.06l1.38,2.92.7,1.49.6,1.55,1.2,3.15,1,3.23c.16.54.34,1.06.5,1.62l.43,1.72c.28,1.14.62,2.29.81,3.46a51.25,51.25,0,0,1,.94,7.18,53.89,53.89,0,0,1-1.45,14.57c-1,4.73-2.2,9.34-3,14-.24,1.15-.4,2.3-.6,3.44s-.38,2.29-.52,3.43l-.45,3.4-.32,3.36a43.4,43.4,0,0,0,.26,12.72,30,30,0,0,0,1.64,5.65,26.89,26.89,0,0,0,2.63,4.83,25.22,25.22,0,0,0,7,6.64,30.42,30.42,0,0,0,6.78,3.22,33.12,33.12,0,0,0,4.71,1.18,16.11,16.11,0,0,0,1.71.22,16.58,16.58,0,0,1-1.72-.16,32.64,32.64,0,0,1-4.77-1,30.47,30.47,0,0,1-7-3,25.59,25.59,0,0,1-7.37-6.58,27.11,27.11,0,0,1-2.89-4.91,30.32,30.32,0,0,1-1.9-5.8,44.54,44.54,0,0,1-.73-13.08l.22-3.41.33-3.46c.1-1.16.24-2.32.41-3.49s.28-2.34.49-3.51c.69-4.7,1.72-9.43,2.57-14.1a51.31,51.31,0,0,0,.92-13.85,48.13,48.13,0,0,0-1.11-6.69c-.21-1.1-.57-2.16-.87-3.22l-.45-1.58c-.17-.52-.37-1.06-.55-1.59-.37-1-.73-2.08-1.1-3.11l-1.24-2.93-.61-1.44-.7-1.38-1.39-2.69A61.92,61.92,0,0,0,90.15,93a54.88,54.88,0,0,0-6.7-6.59,48.47,48.47,0,0,0-5.87-4.2,39.12,39.12,0,0,0-4-2.18c-.48-.22-.83-.37-1-.45l-.37-.15-.08,0A2.61,2.61,0,1,1,74,74.51Z"/><path class="cls-2" d="M114,71.8l.46.29a15.75,15.75,0,0,1,1.36,1,21.48,21.48,0,0,1,3.93,4.13c.33.51.73,1,1.06,1.62l1,1.87.83,2.13c.26.74.41,1.54.62,2.35A26.57,26.57,0,0,1,123,95.93a38.23,38.23,0,0,1-1.78,5.6l-.56,1.41-.29.71-.35.68-1.41,2.75c-.85,1.67-1.89,3.53-2.78,5.33a57.61,57.61,0,0,0-2.28,5.51A41.72,41.72,0,0,0,111,130.15a29.91,29.91,0,0,0,2,12.54A26.5,26.5,0,0,0,120.56,153a36.85,36.85,0,0,0,5.29,3.66c1.93,1.11,3.83,2.19,5.7,3.3a63.39,63.39,0,0,1,10.3,7.27A36.78,36.78,0,0,1,149,176a51.44,51.44,0,0,1,3.95,8.62l1.23,3.74.87,3.22c.55,1.94.81,3.51,1.07,4.55s.36,1.61.36,1.61-.16-.55-.45-1.59-.66-2.57-1.3-4.47l-1-3.16-1.41-3.64a51.43,51.43,0,0,0-4.32-8.24,35.15,35.15,0,0,0-7.26-8.06,60.32,60.32,0,0,0-10.33-6.48c-1.89-1-3.85-2-5.83-3a40,40,0,0,1-6-3.66,30.11,30.11,0,0,1-9.11-11.18,34,34,0,0,1-3.08-14.2,46,46,0,0,1,2.11-13.8,64.27,64.27,0,0,1,2.24-6.34c.86-2,1.71-3.7,2.56-5.6l1.12-2.5.28-.61.21-.63.41-1.22a31.16,31.16,0,0,0,1.23-4.7,19.75,19.75,0,0,0-.25-7.89,12.81,12.81,0,0,0-2.56-5.07,13.66,13.66,0,0,0-2.62-2.48c-.33-.21-.59-.39-.67-.43l-.26-.14A3.92,3.92,0,1,1,114,71.8Z"/><path class="cls-1" d="M81.77,82.43l.43.64c.26.41.64,1,1.09,1.8a63.68,63.68,0,0,1,3.5,7,69.4,69.4,0,0,1,3.78,11.56,62.85,62.85,0,0,1,1.63,15.68,58.83,58.83,0,0,1-3.39,18.31l-1.74,4.58-.88,2.31-.43,1.17-.36,1.16L84.68,149l-.36,1.18L84,151.41l-.59,2.45c-.21.82-.29,1.65-.45,2.49a52.77,52.77,0,0,0-.75,10.27c0,3.51.49,7.09.37,11,0,.48-.09,1-.13,1.47a10.62,10.62,0,0,1-.21,1.47,14.91,14.91,0,0,1-.85,2.91c-.19.47-.36.94-.57,1.4l-.76,1.3a15.33,15.33,0,0,1-1.7,2.43c-.31.38-.59.79-.92,1.15l-.93,1q-.93,1-1.89,2.07l-3.78,4.1c-2.5,2.73-4.88,5.54-7.08,8.45a67,67,0,0,0-5.75,9.21,52.27,52.27,0,0,0-5.35,20.29,78.26,78.26,0,0,0,1.76,19.8,110.29,110.29,0,0,0,4.9,17.24,123.74,123.74,0,0,0,12.09,24c1.76,2.74,3.24,4.83,4.25,6.25l1.54,2.19-1.59-2.15c-1-1.4-2.57-3.46-4.39-6.16A124.76,124.76,0,0,1,58.6,272.22a111.47,111.47,0,0,1-5.33-17.3A80,80,0,0,1,51,234.8a54.19,54.19,0,0,1,5.1-21.14A69,69,0,0,1,61.88,204c2.2-3.05,4.58-6,7.05-8.8L72.62,191l1.83-2.09.9-1.06c.29-.33.53-.69.8-1a15.14,15.14,0,0,0,3.38-9.34c0-3.44-.5-7.1-.61-10.77a55.75,55.75,0,0,1,.56-10.91c.14-.88.22-1.78.42-2.65l.55-2.59.28-1.29.35-1.27.72-2.52.36-1.25.41-1.18.83-2.34L85,136.16a54.57,54.57,0,0,0,2.78-17.06A57.92,57.92,0,0,0,86,104.59a64.64,64.64,0,0,0-3.74-10.66,58.42,58.42,0,0,0-3.37-6.42c-.43-.71-.77-1.23-1-1.58l-.34-.49-.06-.08a2.61,2.61,0,0,1,4.29-3Z"/><path class="cls-1" d="M65.06,92.64l-.08.08.06,0,.12-.09a1.84,1.84,0,0,0,.26-.24,1.78,1.78,0,0,0,.25-.33.82.82,0,0,0,.1-.17v0a5.74,5.74,0,0,0-.37.84A27.13,27.13,0,0,0,64.19,97a47.83,47.83,0,0,0-.2,16.72,60.76,60.76,0,0,0,2.88,11,70.19,70.19,0,0,0,5.48,11.65A122.46,122.46,0,0,0,80.24,148l8.69,11.88,4.3,6L97.4,172c2.68,4.07,5.28,8.11,7.55,12.17l1.69,3c.55,1,1,2,1.55,3s1,2,1.47,3l1.31,3c.91,1.93,1.57,3.9,2.28,5.78.35.93.69,1.86.94,2.8l.81,2.73c.58,1.76.85,3.54,1.24,5.18a42.44,42.44,0,0,1,.78,4.74,66.74,66.74,0,0,1,.63,7.77,27.11,27.11,0,0,1,0,2.88l-.07,2.13-.06,1.77,0-1.77V228c0-.83,0-1.8-.1-2.87a68.57,68.57,0,0,0-.94-7.69,40.39,40.39,0,0,0-1-4.65c-.45-1.61-.78-3.35-1.43-5.07l-.91-2.66a27.53,27.53,0,0,0-1-2.72c-.77-1.82-1.5-3.73-2.48-5.59l-1.4-2.87c-.49-1-1-1.9-1.58-2.87s-1.06-1.95-1.64-2.91l-1.79-2.91c-2.41-3.9-5.14-7.79-8-11.7l-4.37-5.84-4.52-5.8-9.16-11.49a124.6,124.6,0,0,1-8.63-11.61,75.27,75.27,0,0,1-6.35-12.16,65.81,65.81,0,0,1-3.62-11.88,58.45,58.45,0,0,1-1.12-10.54A49.22,49.22,0,0,1,58,95.91a33,33,0,0,1,1.28-5.38,11.88,11.88,0,0,1,.63-1.6l0-.07.14-.27a4.73,4.73,0,0,1,.35-.49,4.15,4.15,0,0,1,.34-.37l.25-.23.07-.09a3.23,3.23,0,1,1,4.76,4.38l-.08.08Z"/><path class="cls-1" d="M123.2,67.67l.15.28.13.22.28.49a28.16,28.16,0,0,1,3.34,9.64,22.7,22.7,0,0,1-.27,8.11,17.46,17.46,0,0,1-.59,2.2c-.12.37-.22.75-.36,1.12l-.47,1.09A14.49,14.49,0,0,1,124.35,93l-.61,1.08-.59,1a13,13,0,0,0-2.2,8.58c.38,3.08,2.17,6.07,4.51,8.65a55.8,55.8,0,0,0,8.16,7.06l2.23,1.62.56.41c.25.17.38.29.58.44.36.27.73.61,1.1.94a38.67,38.67,0,0,1,3.81,4.12,69.83,69.83,0,0,1,6.1,8.88c3.51,6,6,12.15,6.95,17.68a21.17,21.17,0,0,1,.08,7.6,12.49,12.49,0,0,1-2.32,5.35A12.25,12.25,0,0,1,150,169l-1.13.7,1.1-.74a11.93,11.93,0,0,0,2.65-2.61,12.26,12.26,0,0,0,2.09-5.31,20.86,20.86,0,0,0-.32-7.43,53.71,53.71,0,0,0-7.41-17.14,68.47,68.47,0,0,0-6.26-8.5,36.59,36.59,0,0,0-3.76-3.81C135.61,123,134,122,132.49,121a56.6,56.6,0,0,1-8.72-7.06,24.52,24.52,0,0,1-3.48-4.49,15.57,15.57,0,0,1-2-5.36,14.45,14.45,0,0,1,.24-5.61c.12-.44.25-.88.38-1.31l.47-1.25c.18-.41.38-.82.57-1.23s.39-.71.58-1.07l.31-.56.26-.49.51-1a12.76,12.76,0,0,0,.86-1.94l.38-1c.12-.32.19-.66.28-1a13.34,13.34,0,0,0,.44-1.9,19.18,19.18,0,0,0,0-6.93A23.63,23.63,0,0,0,122,73.71a24.08,24.08,0,0,0-1.61-3.11l-.6-1-.17-.31a2,2,0,0,1,3.4-1.93l0,0Z"/><path class="cls-2" d="M129.07,53.61C134.58,70.87,114,79.47,84,88.85S25.34,105,20.34,87.56c-6.8-23.67,14.08-52,44.1-61.34S121,28.18,129.07,53.61Z"/><ellipse class="cls-3" cx="69.55" cy="43.18" rx="2.7" ry="5.33" transform="translate(-3.96 7.16) rotate(-5.73)"/><ellipse class="cls-3" cx="93.7" cy="38.17" rx="2.7" ry="5.33" transform="translate(-3.34 9.55) rotate(-5.73)"/><path class="cls-4" d="M80.62,51.84S87.25,57.39,91,49"/><ellipse class="cls-5" cx="27.56" cy="33.98" rx="14.36" ry="6.37" transform="translate(-15.8 28.17) rotate(-43.32)"/><path class="cls-6" d="M145.57,66c.28-.43,5.22-7.67-6.86-8.48s-33.12,2-67.07,13.87-61.69,31-53.85,36.06c0,0,4.57,4.08,28.39-1.79l66.59-21S138.8,76.26,145.57,66Z"/><path class="cls-7" d="M147.79,45.73c8,27.88-22.11,34.76-66.31,48.94S11.71,119,2.85,91.35s9.09-70.6,53.29-84.77S135.46,3,147.79,45.73Z"/><path class="cls-8" d="M147.79,45.73c8,27.88-22.11,34.76-66.31,48.94S11.71,119,2.85,91.35s9.09-70.6,53.29-84.77S135.46,3,147.79,45.73Z"/></g></g></svg>