<?xml version="1.0" encoding="utf-8"?>
<!-- Generator: Adobe Illustrator 19.0.0, SVG Export Plug-In . SVG Version: 6.00 Build 0)  -->
<svg version="1.1" id="Layer_1" xmlns="http://www.w3.org/2000/svg" xmlns:xlink="http://www.w3.org/1999/xlink" x="0px" y="0px"
	 viewBox="64 -157.7 167.3 355.7" style="enable-background:new 64 -157.7 167.3 355.7;" xml:space="preserve">
<title>Asset 6</title>
<g id="Layer_2">
	<g id="JellyFish">
		<path d="M103-59c-0.3,0.7-0.6,1.2-1,1.8s-0.7,1.1-1,1.7c-0.7,1.1-1.4,2.1-2.2,3.1c-1.5,2-3.2,3.9-5,5.7c-1.8,1.8-3.8,3.4-5.9,4.8
			l-1.5,1c-0.4,0.3-0.9,0.6-1.3,1l-1.3,1l-1.2,1.1c-3.3,2.9-5.8,6.6-7.4,10.7c-0.8,2-1.2,4.1-1.2,6.3c0,1,0.2,2.3,0.3,3.4
			c0.1,1.1,0.3,2.2,0.6,3.3c1.1,4.2,4,8,6.9,11.7S88,4.7,91.3,8.2c3.3,3.5,6.4,7.1,9.3,10.9c1.4,1.9,2.7,3.9,3.9,6
			c0.6,1,1.1,2.1,1.6,3.2c0.5,1.1,0.7,2.3,0.8,3.5c-0.1-1.2-0.4-2.3-1-3.4c-0.5-1.1-1.1-2.1-1.7-3.1c-1.3-2-2.7-3.9-4.2-5.7
			c-3.1-3.6-6.3-7.1-9.8-10.3C86.7,6,83.3,2.7,80-0.9c-1.6-1.8-3.2-3.7-4.6-5.6c-1.5-2-2.7-4.3-3.5-6.7c-0.4-1.2-0.7-2.4-0.9-3.7
			c-0.2-1.3-0.4-2.3-0.5-3.7c-0.1-2.6,0.2-5.2,1-7.7c1.6-4.9,4.3-9.4,7.9-13l1.4-1.3l1.4-1.3c0.5-0.4,1-0.8,1.5-1.2l1.4-1.1
			c1.8-1.3,3.4-2.9,4.9-4.5c1.5-1.6,2.9-3.4,4.1-5.3c0.6-0.9,1.2-1.9,1.7-2.8c0.3-0.5,0.5-1,0.8-1.4s0.5-1,0.6-1.4
			c0.6-1.7,2.5-2.6,4.2-2c1.7,0.6,2.6,2.5,2,4.2c0,0,0,0.1,0,0.1L103-59L103-59z"/>
		<path d="M110.4-57.4c-0.5,0.3-1.2,0.8-1.8,1.3s-1.2,1-1.8,1.5c-1.2,1-2.3,2.1-3.3,3.2c-1,1.1-1.8,2.3-2.5,3.5l-0.4,0.9
			c-0.2,0.3-0.2,0.6-0.3,0.9c-0.1,0.3-0.2,0.6-0.2,0.9l-0.1,0.4c0,0.2,0,0.4-0.1,0.6c-0.2,1.5-0.3,3-0.3,4.6c0,0.6,0.1,1.2,0.3,1.7
			c0.2,0.6,0.5,1.2,0.8,1.8c0.7,1.3,1.7,2.7,2.7,4.1l3,4.2l0.1,0.2l0,0c0.5,0.8,0.9,1.7,1.2,2.6c0.3,0.8,0.6,1.7,0.9,2.6
			c0.5,1.7,0.8,3.5,1,5.3c0.3,3.6-0.2,7.2-1.5,10.6c-0.2,0.4-0.3,0.8-0.5,1.2l-0.6,1.2c-0.2,0.4-0.4,0.8-0.6,1.2L105.5-2l-2.7,4.3
			c-1.8,2.6-3.3,5.5-4.5,8.4c-0.3,0.7-0.5,1.5-0.7,2.2c-0.2,0.7-0.3,1.5-0.4,2.3c-0.1,0.8-0.1,1.5-0.1,2.3c0.1,0.8,0,1.6,0.2,2.4
			c0.4,3.2,1.3,6.3,2.6,9.2c1.4,2.9,3,5.7,5,8.3c1.9,2.6,4.1,5.1,6.5,7.4c-2.5-2.1-4.9-4.5-7-7c-2.2-2.5-4.1-5.2-5.7-8.1
			c-1.6-3-2.8-6.2-3.4-9.5c-0.2-0.8-0.2-1.7-0.4-2.5c0-0.9,0-1.7,0-2.6c0-0.9,0.1-1.7,0.3-2.6c0.2-0.9,0.4-1.7,0.6-2.5
			c1.1-3.2,2.5-6.3,4.2-9.2c1.5-2.9,3.3-5.8,4.2-8.5c0.9-2.8,1.1-5.8,0.7-8.8c-0.2-1.5-0.6-2.9-1.1-4.3c-0.3-0.7-0.5-1.4-0.8-2.1
			c-0.3-0.6-0.6-1.2-1-1.8l0.1,0.2l-3.3-4c-1.1-1.3-2.2-2.7-3.2-4.3c-0.6-0.9-1-1.8-1.4-2.7c-0.4-1-0.7-2.1-0.8-3.3
			c-0.2-1.9-0.2-3.8,0-5.7c0-0.2,0-0.4,0-0.7l0.1-0.8c0.1-0.6,0.2-1.1,0.3-1.6c0.2-0.5,0.3-1.1,0.5-1.6l0.6-1.4
			c0.8-1.8,1.9-3.5,3.1-5.1c1.1-1.5,2.4-2.9,3.7-4.2c0.7-0.7,1.3-1.3,2-1.9c0.7-0.6,1.4-1.2,2.2-1.8c1.7-1.3,4.2-1.1,5.5,0.6
			c1.3,1.7,1.1,4.2-0.6,5.5c0,0-0.1,0.1-0.1,0.1L110.4-57.4L110.4-57.4z"/>
		<path d="M112-68.1c1.6,0.4,3.2,1.1,4.7,1.9c1.5,0.9,2.8,2.1,3.8,3.5c0.2,0.4,0.5,0.7,0.7,1.1l0.5,1.3c0.3,0.8,0.5,1.7,0.5,2.6
			c0.1,1.7-0.1,3.4-0.7,5c-1,2.9-2.4,5.7-4.1,8.3c-1.7,2.5-3.5,4.8-4.8,7.3c-0.7,1.2-1.2,2.5-1.6,3.8c-0.4,1.3-0.6,2.6-0.6,4
			c-0.1,2.7,0.6,5.4,2,7.6c3.1,4.3,10,4.9,14.4,9.6c0.5,0.6,1,1.2,1.5,1.9c0.4,0.7,0.8,1.4,1.1,2.1c0.6,1.4,1.1,2.8,1.6,4.3
			c0.9,2.9,1.1,6.1,0.5,9.1c-0.6,3-1.9,5.8-3.6,8.3c-1.7,2.4-3.7,4.7-5.8,6.8c-4.2,4.1-7.4,9.1-9.3,14.7c-0.9,2.8-1.3,5.7-1.3,8.6
			c0,2.9,0.4,5.9,1.2,8.7c-0.8-2.8-1.3-5.8-1.4-8.7c-0.1-3,0.3-5.9,1.1-8.8c1.8-5.7,4.9-10.9,9.1-15.2c2-2.1,3.8-4.4,5.4-6.9
			c1.6-2.4,2.7-5.1,3.2-7.9c0.4-2.8,0.2-5.7-0.7-8.4c-0.4-1.4-1-2.7-1.6-4c-0.3-0.6-0.7-1.2-1-1.8c-0.4-0.5-0.9-1.1-1.4-1.6
			c-2.1-1.9-4.5-3.4-7.2-4.4c-1.4-0.6-2.8-1.2-4.1-2c-1.4-0.8-2.6-1.9-3.7-3.2c-1-1.3-1.7-2.9-2.1-4.5l-0.3-1.1
			c-0.1-0.4-0.1-0.8-0.2-1.2l-0.1-1.2v-1.2c0-1.6,0.2-3.2,0.6-4.8c0.4-1.5,1-3,1.8-4.4c1.5-2.8,3.3-5.1,4.8-7.6
			c1.5-2.3,2.7-4.9,3.5-7.6c0.7-2.5,0.6-5.1-0.8-6.9c-0.7-1-1.7-1.8-2.8-2.3c-0.6-0.3-1.2-0.6-1.8-0.8c-0.6-0.2-1.2-0.4-1.8-0.5h0
			c-1-0.4-1.5-1.6-1.1-2.6C110.5-67.6,111.2-68.1,112-68.1L112-68.1z"/>
		<path d="M129.6-73.6c0.8,0.4,1.5,0.8,2.3,1.3c0.7,0.4,1.4,0.9,2,1.4s1.3,1,1.9,1.6s1.2,1.1,1.8,1.7c2.3,2.4,4.2,5.1,5.6,8.2
			l0.5,1.1c0.2,0.4,0.3,0.8,0.4,1.2c0.2,0.8,0.5,1.6,0.7,2.4c0.4,1.6,0.6,3.2,0.8,4.9c0,0.8,0.1,1.6,0.1,2.4l-0.1,2.4l-0.1,1.2
			c0,0.4-0.1,0.8-0.2,1.2l-0.4,2.4c-1.3,6.1-2.9,12.2-5,18.1c-2,5.9-4,11.6-4.1,17.6c-0.1,3,0.1,6,0.7,8.9c0.2,1.5,0.6,3,0.9,4.5
			s0.8,2.9,1.3,4.3c2,5.6,5.4,10.8,9,15.8s7.4,9.9,10.9,15c3.5,5.2,6.6,10.7,9,16.4c0.6,1.5,1.2,2.9,1.7,4.4l1.4,4.5
			c0.5,1.5,0.7,3,1.1,4.6l0.5,2.3l0.4,2.3c1,6.2,0.8,12.6-0.6,18.7c-1.4,6.1-3.6,12-6.3,17.5c-2.6,5.6-5.5,11.1-7.7,16.8
			c-2.3,5.7-3.5,11.8-3.4,17.9c0,0.8,0.1,1.5,0.1,2.3l0.3,2.3l0.9,4.5c0.3,1.5,0.8,3,1.2,4.5c0.2,0.8,0.4,1.5,0.7,2.2l0.7,2.2
			c2.1,5.8,4.8,11.4,8.2,16.5c3.4,5.2,7.4,9.9,11.9,14.1c-4.6-4.1-8.7-8.8-12.2-14c-3.5-5.1-6.3-10.6-8.5-16.4l-0.8-2.2
			c-0.3-0.7-0.5-1.5-0.7-2.2c-0.4-1.5-0.9-3-1.2-4.5l-0.9-4.6l-0.3-2.3c-0.1-0.8-0.1-1.6-0.2-2.3c-0.2-6.3,0.9-12.5,3.2-18.3
			c2.2-5.8,5-11.4,7.5-17c2.7-5.5,4.7-11.3,6-17.3c0.6-3,0.9-6,1-9.1c0-3-0.2-6.1-0.7-9.1l-0.4-2.3l-0.6-2.2c-0.4-1.5-0.7-3-1.2-4.4
			l-1.4-4.4c-0.5-1.4-1.2-2.8-1.7-4.3c-2.5-5.6-5.5-11-9-16c-3.5-5-7.4-9.8-11.1-14.8c-3.7-5-7.3-10.3-9.5-16.3
			c-0.5-1.5-1-3-1.4-4.6s-0.8-3.1-1-4.6c-0.6-3.1-0.9-6.3-0.8-9.5c0.1-3.2,0.5-6.4,1.4-9.5c0.8-3.1,1.8-6,2.7-9
			c1.9-5.8,3.5-11.7,4.6-17.7l0.3-2.2c0-0.4,0.1-0.7,0.1-1.1v-1.1l0.1-2.2c0-0.7-0.1-1.5-0.2-2.2c-0.1-1.4-0.4-2.9-0.7-4.3
			c-0.2-0.7-0.5-1.4-0.7-2c-0.1-0.3-0.2-0.7-0.4-1l-0.5-1c-1.2-2.6-2.9-5-4.9-7l-1.6-1.5c-0.6-0.4-1.1-0.9-1.7-1.3
			c-0.6-0.4-1.2-0.8-1.8-1.2s-1.3-0.7-1.8-1h-0.1c-0.9-0.7-1.1-1.9-0.4-2.8C128-73.5,128.8-73.8,129.6-73.6L129.6-73.6z"/>
		<path d="M166.3-83.3l0.4,0.2l0.2,0.2c0.2,0.1,0.3,0.2,0.4,0.3c0.3,0.2,0.5,0.4,0.8,0.6c0.5,0.4,0.9,0.8,1.3,1.3
			c0.8,0.8,1.5,1.7,2.2,2.7c1.2,1.8,2.3,3.8,3,5.8c1.4,3.9,2.1,8,2.2,12.2c0.1,2,0,4-0.1,6c0,1-0.2,2-0.3,2.9s-0.2,2-0.4,2.9
			c-0.6,4-1.6,7.9-3.2,11.6c-1.6,3.5-3.4,6.9-5.4,10.2c-0.8,1.5-1.6,3-2.1,4.7c-0.2,0.8-0.4,1.6-0.6,2.4l-0.3,2.5
			c-0.1,3.6,0.2,7.1,0.9,10.6c0.4,1.8,0.8,3.6,1.3,5.4c0.3,0.8,0.5,1.7,0.8,2.5l1,2.5c2.9,6.6,7.2,12.7,11.9,18.5
			s9.9,11.2,15.1,16.6s10.5,10.8,15.4,16.6c2.5,2.9,4.7,5.9,6.7,9.1c1,1.6,1.8,3.3,2.5,5.1c0.6,1.8,0.9,3.7,0.9,5.6
			c-0.1-1.9-0.4-3.7-1.1-5.5c-0.7-1.7-1.6-3.4-2.7-4.9c-2.1-3.1-4.4-6-7-8.7c-5.1-5.5-10.6-10.6-16-15.8s-10.9-10.5-15.9-16.1
			c-5.1-5.6-9.8-11.7-13.3-18.8c-0.4-0.9-0.8-1.8-1.2-2.7c-0.4-0.9-0.7-1.9-1-2.8c-0.6-1.9-1.1-3.7-1.6-5.6c-1-3.8-1.5-7.8-1.5-11.8
			c0.1-1,0.2-2.1,0.3-3.1s0.4-2.1,0.6-3.1c0.6-2,1.3-3.9,2.3-5.7c1.8-3.2,3.4-6.5,4.7-9.9c0.3-0.8,0.5-1.7,0.8-2.5
			c0.1-0.4,0.3-0.8,0.4-1.3l0.3-1.3c0.2-0.9,0.4-1.7,0.5-2.6l0.3-2.6c0.1-0.9,0.2-1.8,0.2-2.7s0.1-1.8,0.2-2.7c0-1.8,0-3.5-0.2-5.3
			c-0.2-3.4-0.9-6.7-2.2-9.9c-0.6-1.5-1.4-2.8-2.3-4.1c-0.4-0.6-1-1.2-1.5-1.7c-0.2-0.2-0.5-0.5-0.8-0.7c-0.1-0.1-0.2-0.2-0.4-0.3
			l-0.2-0.1h-0.1h0.1c-1.9-1-2.7-3.4-1.7-5.3C162-83.6,164.4-84.4,166.3-83.3L166.3-83.3z"/>
		<path d="M179.6-90.8c0.9,0.3,1.5,0.6,2.2,0.9s1.4,0.6,2,0.9c1.3,0.7,2.6,1.3,3.9,2.1c2.5,1.5,4.9,3.1,7.2,5
			c4.6,3.7,8.5,8.2,11.6,13.2c0.7,1.3,1.5,2.5,2.1,3.8s1.3,2.6,1.8,4c1.1,2.6,2,5.4,2.7,8.2c0.7,2.9,1,5.9,0.8,8.8
			c-0.2,2.9-0.7,5.7-1.5,8.5c-1.5,5.4-3.2,10.5-4.2,15.8c-0.2,1.3-0.5,2.7-0.7,4l-0.5,4c-0.3,2.6-0.2,5.3,0.3,7.9
			c0.5,2.6,1.6,5,3.1,7.2c1.6,2.2,3.5,4,5.8,5.5c2.3,1.5,4.7,2.7,7.3,3.5c2.6,0.9,5.3,1.4,8,1.7c-2.8-0.1-5.5-0.5-8.2-1.3
			c-2.7-0.7-5.3-1.8-7.7-3.1c-2.5-1.4-4.6-3.3-6.4-5.5c-1.8-2.3-3.1-4.9-3.8-7.6c-0.7-2.8-1-5.6-0.8-8.5l0.3-4.2
			c0.1-1.4,0.3-2.8,0.4-4.1c0.7-5.5,2.1-11,3.3-16.3c1.3-5,1.3-10.3-0.2-15.2c-0.7-2.5-1.7-4.9-2.8-7.3c-0.5-1.2-1.2-2.3-1.8-3.4
			s-1.4-2.2-2.1-3.3c-3-4.2-6.6-7.9-10.8-10.9c-2.1-1.5-4.3-2.8-6.5-4c-1.1-0.6-2.3-1.1-3.5-1.6c-0.6-0.3-1.2-0.5-1.8-0.7
			s-1.2-0.4-1.6-0.5l0,0c-2.1-0.4-3.5-2.5-3.1-4.6c0.4-2.1,2.5-3.5,4.6-3.1c0.2,0,0.4,0.1,0.5,0.1L179.6-90.8z"/>
		<path d="M138-83.2c0.9,0.4,1.6,0.8,2.4,1.2s1.5,0.8,2.2,1.3c1.4,0.9,2.8,1.8,4.2,2.8c2.7,2,5.2,4.2,7.5,6.6
			c4.5,4.8,8.2,10.4,11,16.4c0.3,0.8,0.7,1.5,1,2.3l0.9,2.3c0.3,0.8,0.6,1.5,0.9,2.3l0.7,2.3c0.2,0.8,0.5,1.6,0.7,2.3L170-41
			c0.4,1.6,0.7,3.2,1,4.8c0.5,3.3,0.7,6.6,0.5,9.9c-0.2,3.3-0.7,6.5-1.4,9.7c-1.4,6.3-2.9,12.4-3.9,18.7c-0.2,1.6-0.4,3.1-0.6,4.7
			c-0.2,1.6-0.3,3.2-0.5,4.8c-0.3,3.1-0.4,6.3-0.1,9.4c0.5,6.3,3.2,12.3,7.7,16.8c2.3,2.2,5,3.9,7.9,5.2c2.9,1.3,6,2.1,9.2,2.5
			c-3.2-0.2-6.4-1-9.3-2.2c-3-1.2-5.8-2.9-8.2-5c-4.9-4.3-7.7-10.6-8.6-17.1c-0.4-3.2-0.5-6.5-0.3-9.7c0.1-1.6,0.2-3.2,0.3-4.8
			c0.1-1.6,0.3-3.2,0.5-4.8c0.7-6.4,2.1-12.7,3.2-19c0.6-3.1,0.9-6.2,1.1-9.3c0.1-3.1-0.2-6.2-0.8-9.2c-0.4-1.5-0.6-3-1.1-4.5
			l-0.6-2.3c-0.2-0.7-0.5-1.5-0.8-2.2l-0.8-2.2c-0.3-0.7-0.6-1.4-0.9-2.2l-0.9-2.2c-0.3-0.7-0.7-1.4-1-2.1
			c-2.8-5.5-6.4-10.5-10.7-14.9c-2.2-2.1-4.5-4.1-7-5.9c-1.2-0.9-2.5-1.7-3.9-2.4c-0.7-0.4-1.3-0.7-2-1s-1.4-0.7-1.9-0.9h-0.1
			c-1.4-0.5-2.1-2.1-1.5-3.4C135.1-83,136.6-83.7,138-83.2L138-83.2z"/>
		<path d="M177.9-85.9c0.3,0.1,0.5,0.3,0.8,0.5c0.2,0.2,0.4,0.3,0.6,0.4c0.4,0.3,0.8,0.6,1.1,0.9c0.4,0.3,0.7,0.6,1,1
			c0.4,0.3,0.7,0.6,1,1l0.9,1.1c0.3,0.4,0.5,0.8,0.8,1.1c0.5,0.8,1,1.6,1.4,2.4c1.6,3.3,2.3,6.9,2.2,10.6v1.3
			c-0.1,0.4-0.1,0.9-0.2,1.3c-0.1,0.8-0.2,1.7-0.4,2.6l-0.7,2.4l-0.4,1.2l-0.4,1.2c-0.6,1.5-1.2,3.1-2,4.5l-2.2,4.2
			c-2.9,5.1-4.8,10.6-5.9,16.4c-0.2,1.4-0.4,2.9-0.5,4.3c-0.1,0.7,0,1.4,0,2.1c0,0.7,0,1.4,0.1,2.1l0.3,2.1c0.1,0.7,0.3,1.4,0.4,2.1
			c0.3,1.4,0.7,2.8,1.3,4.1c1.1,2.6,2.6,5.1,4.5,7.3c1.9,2.2,4.1,4.1,6.6,5.6c5.1,3.1,10.7,5.9,15.6,9.9c2.5,1.9,4.7,4.2,6.6,6.6
			c1.9,2.5,3.4,5.2,4.7,8c2.4,5.7,4.2,11.6,5.4,17.6c-1.4-5.9-3.5-11.7-6.2-17.2c-1.4-2.7-3.1-5.2-5-7.5c-2-2.3-4.2-4.3-6.6-6
			c-2.5-1.7-5.1-3.3-7.8-4.6c-1.3-0.7-2.7-1.4-4.1-2.1s-2.7-1.3-4.1-2.2c-2.8-1.5-5.4-3.5-7.7-5.8c-2.2-2.4-4.1-5.1-5.5-8
			c-0.7-1.5-1.2-3-1.7-4.6c-0.2-0.8-0.5-1.6-0.6-2.4l-0.4-2.4c-0.1-0.8-0.2-1.6-0.2-2.4c0-0.8-0.2-1.6-0.1-2.4
			c0-1.6,0.1-3.2,0.3-4.9c0.8-6.4,2.7-12.6,5.5-18.4c0.7-1.5,1.3-2.8,1.9-4.1c0.6-1.3,1.1-2.6,1.5-4l0.3-1l0.2-1l0.4-2
			c0.1-0.7,0.1-1.3,0.2-2c0-0.3,0.1-0.7,0.1-1v-1c0-2.5-0.6-4.9-1.8-7.1c-0.3-0.5-0.6-1-1-1.5c-0.2-0.2-0.4-0.5-0.6-0.7l-0.6-0.7
			c-0.2-0.2-0.4-0.4-0.6-0.6c-0.2-0.2-0.4-0.4-0.7-0.6c-0.2-0.2-0.5-0.3-0.7-0.5c-0.1-0.1-0.2-0.2-0.3-0.2l-0.2-0.1
			c-1.9-1-2.7-3.4-1.7-5.3C173.6-86.2,176-86.9,177.9-85.9L177.9-85.9z"/>
		<path d="M145.8-75.3c0.8,1.2,1.4,2.3,2.1,3.4s1.2,2.3,1.8,3.4c1.1,2.3,2.1,4.7,2.9,7.1c1.7,4.9,2.8,9.9,3.4,15
			c0.5,5.1,0.4,10.3-0.4,15.4c-0.4,2.5-1,5.1-1.7,7.5c-0.4,1.2-0.8,2.5-1.2,3.6l-1.3,3.5l-1.3,3.5c-0.4,1.1-0.7,2.3-1.1,3.5
			l-0.5,1.7L148-5.7c-0.3,1.2-0.6,2.3-0.8,3.5c-0.9,4.8-1.1,9.6-0.8,14.4c0.1,2.5,0.4,5,0.3,7.6c-0.1,2.7-0.8,5.4-2,7.8l-1,1.7
			c-0.4,0.6-0.8,1-1.2,1.6c-0.8,1.1-1.7,1.9-2.5,2.9l-5,5.5c-3.4,3.6-6.4,7.4-9.2,11.5c-2.7,4-4.9,8.4-6.5,13.1
			c-1.5,4.6-2.4,9.5-2.6,14.4c0,1.2,0,2.4,0,3.7v1.8l0.2,1.8l0.3,3.7l0.6,3.7l0.2,1.8c0.1,0.6,0.3,1.2,0.4,1.8l0.8,3.6l0.9,3.6
			l0.5,1.8l0.5,1.8c1.4,4.7,3.1,9.4,5.2,13.9c2,4.5,4.3,8.9,6.8,13.2c2.5,4.3,5.4,8.3,8.3,12.4c-3-4-5.9-8-8.5-12.2
			c-2.6-4.2-5-8.6-7.1-13.1c-2.1-4.5-4-9.1-5.5-13.9l-0.6-1.8l-0.5-1.8l-1-3.6l-0.8-3.6c-0.1-0.6-0.3-1.2-0.4-1.8l-0.3-1.8l-0.7-3.7
			l-0.4-3.7l-0.2-1.9l-0.1-1.9c0-1.3-0.1-2.5-0.1-3.8c0.1-5.1,0.9-10.1,2.4-14.9c1.5-4.8,3.6-9.4,6.4-13.7c2.8-4.2,5.8-8.2,9.2-11.9
			l4.9-5.6c0.8-0.9,1.7-1.9,2.3-2.8c0.3-0.5,0.7-0.9,1-1.4l0.8-1.5c1-2,1.5-4.3,1.5-6.6c0-2.3-0.3-4.8-0.4-7.3
			c-0.5-5.1-0.3-10.2,0.5-15.2c0.1-1.3,0.5-2.5,0.7-3.8l0.4-1.9l0.5-1.8c0.4-1.2,0.7-2.4,1.1-3.6l1.3-3.6l1.2-3.5
			c0.4-1.1,0.7-2.3,1.1-3.4c0.6-2.3,1.1-4.6,1.4-7c0.6-4.7,0.6-9.5,0-14.3c-0.6-4.7-1.7-9.4-3.4-13.9c-0.8-2.2-1.8-4.4-2.9-6.6
			c-0.5-1.1-1.1-2.1-1.7-3.1s-1.3-2.1-1.8-2.9v-0.1c-0.8-1.2-0.4-2.8,0.9-3.6C143.4-76.6,144.9-76.3,145.8-75.3L145.8-75.3z"/>
		<path d="M128.1-64.6c0.4-0.1,0.8-0.3,1.1-0.6c0.1-0.1,0.3-0.3,0.4-0.4l0.1-0.2c0,0,0,0,0-0.1c0-0.1,0,0,0,0s-0.1,0.2-0.2,0.4
			c-0.1,0.3-0.3,0.6-0.4,1c-0.2,0.7-0.4,1.4-0.6,2.1c-0.4,1.5-0.6,3-0.8,4.5c-0.4,3.1-0.5,6.2-0.3,9.3c0.5,6.3,1.9,12.4,4.4,18.3
			c1.2,2.9,2.6,5.8,4.2,8.6c1.6,2.8,3.4,5.5,5.3,8.1l11.6,15.9c3.8,5.4,7.7,10.7,11.2,16.3c3.6,5.6,6.8,11.3,9.7,17.3
			c2.9,6,5,12.3,6.4,18.8c1.3,6.5,1.8,13.1,1.3,19.6c0.2-6.6-0.6-13.1-2.1-19.5c-1.6-6.3-4-12.4-7-18.2c-6-11.6-13.9-22.1-22-32.4
			L138-11.3c-2.1-2.6-4-5.4-5.8-8.2c-1.8-2.9-3.4-5.9-4.8-8.9c-2.9-6.2-4.8-12.9-5.6-19.7c-0.4-3.5-0.4-6.9-0.2-10.4
			c0.2-1.8,0.4-3.5,0.8-5.2c0.2-0.9,0.4-1.8,0.7-2.7c0.1-0.4,0.3-0.9,0.5-1.4c0.1-0.3,0.2-0.5,0.3-0.8c0.2-0.3,0.1-0.2,0.2-0.5
			l0.2-0.3c0-0.1,0,0,0.1-0.2c0.1-0.2,0.3-0.3,0.5-0.5c0.3-0.3,0.7-0.5,1.2-0.7c1.7-0.6,3.6,0.4,4.1,2.1
			C130.7-67,129.8-65.2,128.1-64.6L128.1-64.6z"/>
		<path d="M187.3-89.8c0,0,0-0.1,0-0.1l0,0V-89.8l0.3,0.4l0.5,0.9c0.3,0.6,0.6,1.2,0.9,1.8c0.6,1.2,1,2.4,1.4,3.7
			c0.7,2.5,1.1,5.2,1,7.8c-0.1,2.7-0.7,5.3-1.6,7.7l-0.8,1.8c-0.3,0.6-0.6,1.1-1,1.7c-0.7,1.2-1.3,2-1.8,3.1c-1,2-1.4,4.2-1.3,6.4
			c0.2,2.2,1.1,4.4,2.4,6.3c2.6,3.9,6.4,7,10.4,9.9l3,2.2c1,0.8,2,1.6,2.9,2.6c1.7,1.8,3.3,3.8,4.7,5.8c2.9,4,5.4,8.4,7.4,12.9
			c2.1,4.5,3.4,9.4,3.7,14.4c0.1,2.5-0.3,5-1.4,7.3c-1.1,2.2-2.9,4.1-5.1,5.2c2.1-1.2,3.9-3.1,4.9-5.3c1-2.2,1.3-4.7,1.1-7.1
			c-0.5-4.9-1.9-9.6-4.1-14c-2.1-4.4-4.7-8.5-7.7-12.4c-1.5-1.9-3.1-3.8-4.8-5.5c-0.8-0.8-1.7-1.6-2.7-2.3l-3-2.1
			c-4.1-2.8-8.2-5.8-11.2-10.1c-1.6-2.2-2.6-4.7-3-7.3c-0.2-1.4-0.1-2.7,0.1-4.1c0.2-1.3,0.6-2.6,1.2-3.8c0.5-1.2,1.3-2.4,1.8-3.4
			c0.3-0.5,0.6-1,0.8-1.5l0.6-1.6c0.8-2.1,1.2-4.4,1.2-6.7c0-2.3-0.4-4.5-1.1-6.7c-0.4-1.1-0.8-2.1-1.3-3.2c-0.3-0.5-0.5-1-0.8-1.5
			l-0.4-0.7l-0.2-0.4l-0.1-0.1l-0.1-0.2c-0.1-0.2-0.2-0.3-0.3-0.5c-0.1-1.1,0.7-2.1,1.8-2.2C186.2-90.9,186.9-90.5,187.3-89.8
			L187.3-89.8z"/>
		<path d="M193.1-104.1c5.5,17.3-15.1,25.9-45.1,35.2s-58.7,16.2-63.7-1.3c-6.8-23.7,14.1-52,44.1-61.3S185-129.5,193.1-104.1z"/>
		
			<ellipse transform="matrix(-9.984075e-002 -0.995 0.995 -9.984075e-002 260.8451 6.9219)" cx="133.6" cy="-114.5" rx="5.3" ry="2.7"/>
		
			<ellipse transform="matrix(-9.984075e-002 -0.995 0.995 -9.984075e-002 292.3864 25.4444)" cx="157.7" cy="-119.5" rx="5.3" ry="2.7"/>
		<path d="M144.6-105.9c0,0,6.6,5.6,10.4-2.8"/>
		<ellipse transform="matrix(-0.6861 -0.7275 0.7275 -0.6861 244.398 -141.9964)" cx="91.6" cy="-123.7" rx="6.4" ry="14.4"/>
		<path d="M209.6-91.7c0.3-0.4,5.2-7.7-6.9-8.5c-12.1-0.8-33.1,2-67.1,13.9S74-55.3,81.8-50.3c0,0,4.6,4.1,28.4-1.8l66.6-21
			C176.8-73,202.8-81.4,209.6-91.7z"/>
		<path d="M211.8-112c8,27.9-22.1,34.8-66.3,48.9s-69.8,24.3-78.6-3.3s9.1-70.6,53.3-84.8S199.5-154.7,211.8-112z"/>
	</g>
</g>
</svg>
