<svg xmlns="http://www.w3.org/2000/svg" viewBox="0 0 145.89 55.9"><defs><style>.cls-1,.cls-3{fill:#fff;}.cls-2{fill:#f78330;}.cls-3{font-size:27px;font-family:Montserrat-SemiBold, Montserrat;font-weight:600;}.cls-4{letter-spacing:0em;}</style></defs><title>Asset 5</title><g id="Layer_2" data-name="Layer 2"><g id="Layer_1-2" data-name="Layer 1"><path class="cls-1" d="M142.06,11.65H51.48a3.82,3.82,0,0,1-3.82-3.82h0A3.82,3.82,0,0,0,42,4.48L2,26.6a3.82,3.82,0,0,0,0,6.69L42,55.41a3.82,3.82,0,0,0,5.67-3.34h0a3.82,3.82,0,0,1,3.82-3.83h90.58a3.83,3.83,0,0,0,3.83-3.82V15.48A3.84,3.84,0,0,0,142.06,11.65Z"/><path class="cls-2" d="M142.06,7.65H51.48a3.82,3.82,0,0,1-3.82-3.82h0A3.82,3.82,0,0,0,42,.48L2,22.6a3.82,3.82,0,0,0,0,6.69L42,51.41a3.82,3.82,0,0,0,5.67-3.34h0a3.82,3.82,0,0,1,3.82-3.83h90.58a3.83,3.83,0,0,0,3.83-3.82V11.48A3.84,3.84,0,0,0,142.06,7.65Z"/><text class="cls-3" transform="translate(53.36 34.82)"><tspan class="cls-4">L</tspan><tspan x="16.31" y="0">a</tspan><tspan class="cls-4" x="32.7" y="0">n</tspan><tspan x="51.33" y="0">d</tspan></text></g></g></svg>