<?xml version="1.0" encoding="utf-8"?>
<!-- Generator: Adobe Illustrator 19.0.0, SVG Export Plug-In . SVG Version: 6.00 Build 0)  -->
<svg version="1.1" id="Layer_1" xmlns="http://www.w3.org/2000/svg" xmlns:xlink="http://www.w3.org/1999/xlink" x="0px" y="0px"
	 viewBox="49 -36.4 1058.3 632.4" style="enable-background:new 49 -36.4 1058.3 632.4;" xml:space="preserve">
<style type="text/css">
	.st0{fill:#87B9F4;}
	.st1{fill:url(#SVGID_1_);}
	.st2{fill:#534741;}
	.st3{fill:#998675;}
	.st4{fill:#6B4F6E;}
	.st5{fill:#99869B;}
	.st6{fill:#45ABE1;}
</style>
<title>NA-bg</title>
<rect x="49" y="-36.4" class="st0" width="1059.2" height="631.7"/>
<linearGradient id="SVGID_1_" gradientUnits="userSpaceOnUse" x1="49" y1="934.5709" x2="1106.3" y2="934.5709" gradientTransform="matrix(1 0 0 1 0 -520.7401)">
	<stop  offset="0" style="stop-color:#4673D2;stop-opacity:0.4"/>
	<stop  offset="0.1" style="stop-color:#4673D2;stop-opacity:0.49"/>
	<stop  offset="0.39" style="stop-color:#4673D2;stop-opacity:0.71"/>
	<stop  offset="0.65" style="stop-color:#4673D2;stop-opacity:0.87"/>
	<stop  offset="0.86" style="stop-color:#4673D2;stop-opacity:0.96"/>
	<stop  offset="1" style="stop-color:#4673D2"/>
</linearGradient>
<path class="st1" d="M1105.8,311.7c-58.9-19-132.8,12-164.7,6s-94.8-74-178.7-85s-122.8,37-122.8,37s98.8-21,103.8,58
	c0,0,18.5,71-229.1,38s-228.7,109-465.3,39v191.9c0,0,695.3-1.1,1057.3-0.8v-284L1105.8,311.7z"/>
<path class="st2" d="M463.3,596.6h-334V308l36.5-9c70.5-17.4,144.4-14.9,213.6,7.1l5.9,1.9c43.1,0,78,34.9,78,78L463.3,596.6
	L463.3,596.6z"/>
<polygon class="st3" points="186.8,311.6 185.9,309.6 177.6,313.2 184.6,295.2 182.2,294.3 160.1,350.9 162.5,351.9 176.5,316 "/>
<polygon class="st3" points="401,357.9 403,357.3 400.9,349.1 416.6,358.2 417.8,356 368.1,327.3 366.9,329.5 398.4,347.7 "/>
<polygon class="st3" points="373.7,323.5 373.6,321.1 363.6,321.5 377.9,305.7 375.7,303.7 330.7,353.8 332.8,355.7 361.4,324 "/>
<polygon class="st3" points="343,323.2 344.1,320.1 331.2,315.3 357.6,302.7 355.9,299.1 272.3,339.1 274,342.7 327,317.3 "/>
<polygon class="st3" points="218.3,290 221.3,291.4 215.5,303.9 243.1,294.2 244.5,297.9 157.1,328.7 155.8,325 211.2,305.4 "/>
<polygon class="st3" points="161.2,351.5 160,348.4 173,343.7 146.6,331 148.3,327.4 231.8,367.4 230.1,371 177.2,345.7 "/>
<rect x="245.6" y="308.4" transform="matrix(0.484 0.8751 -0.8751 0.484 425.398 -40.2872)" class="st3" width="2.6" height="64.3"/>
<rect x="236.9" y="274" transform="matrix(-0.4063 0.9137 -0.9137 -0.4063 614.8094 212.9007)" class="st3" width="2.6" height="64.3"/>
<rect x="408.9" y="301.4" transform="matrix(-0.4063 0.9137 -0.9137 -0.4063 881.614 94.1777)" class="st3" width="2.6" height="64.3"/>
<rect x="285.2" y="288.9" transform="matrix(-0.4063 0.9137 -0.9137 -0.4063 696.299 189.6355)" class="st3" width="2.6" height="64.3"/>
<rect x="247.9" y="305.7" transform="matrix(0.4515 -0.8923 0.8923 0.4515 -165.3926 408.841)" class="st3" width="3.9" height="66.5"/>
<rect x="330.9" y="269.4" transform="matrix(0.4515 -0.8923 0.8923 0.4515 -87.4554 462.9399)" class="st3" width="3.9" height="66.5"/>
<rect x="188.2" y="300.5" transform="matrix(0.9648 0.2629 -0.2629 0.9648 96.5828 -37.9716)" class="st3" width="3.9" height="82.9"/>
<rect x="382.9" y="304.2" transform="matrix(0.9648 0.2629 -0.2629 0.9648 100.3846 -89.5666)" class="st3" width="3.9" height="52.3"/>
<polygon class="st3" points="255.6,327.7 254.9,324.5 234.6,328.7 248.2,313 245.6,310.8 230.4,328.5 165,366.9 167.3,371 
	232.7,332.5 "/>
<polygon class="st3" points="189.7,329.7 188.3,328 177.9,336.7 180.9,323.5 178.8,323 175.5,337.8 149.7,379.9 152.3,381.5 
	178,339.4 "/>
<polygon class="st3" points="436.8,328.8 436.4,326.8 423.7,329.5 432.2,319.7 430.6,318.3 421.1,329.3 380.5,353.2 381.9,355.7 
	422.6,331.8 "/>
<polygon class="st3" points="272.9,284.1 270.2,286 282.5,302.8 262.6,296.9 261.7,300.1 284.1,306.7 346.3,350.1 349,346.3 
	286.7,302.8 "/>
<path class="st4" d="M49,319.3v274.4h161.2c1.3-2.4,2.1-5.1,2.4-7.8l12.2-280.2L49,319.3z"/>
<path class="st5" d="M243.4,297.8c-1.2-3.1-3.5-5.7-6.5-7.3l-46.4-25c-1.4-0.8-2.9-1.3-4.5-1.5l-69-11l-68-7.8v90.1
	c12.3-1.4,51.5-2.3,52-2.3c1.8,0,76.7-0.5,92-0.6c1.8,0,3.6-0.3,5.2-1l37.3-15C242.8,313.4,246.3,305.1,243.4,297.8z"/>
<path class="st6" d="M1107.5,300.8c-59-19-133,12-165,6s-95-74-179-85s-123,37-123,37s99-21,104,58c0,0,18.5,71-229.5,38
	s-229,109-466,39v203.9c0,0,696.4-1.1,1059-0.8V301L1107.5,300.8z"/>
</svg>
