<svg xmlns="http://www.w3.org/2000/svg" xmlns:xlink="http://www.w3.org/1999/xlink" viewBox="0 0 1058.34 632.37"><defs><style>.cls-1{isolation:isolate;}.cls-2{fill:#87b9f4;}.cls-3{fill:#534741;}.cls-4{fill:#6b4f6e;}.cls-5{fill:#99869b;}.cls-6{fill:url(#linear-gradient);}.cls-7{fill:#998675;}.cls-8{fill:#45abe1;mix-blend-mode:hard-light;}</style><linearGradient id="linear-gradient" y1="449.49" x2="1057.34" y2="449.49" gradientUnits="userSpaceOnUse"><stop offset="0" stop-color="#4673d2" stop-opacity="0.4"/><stop offset="0.1" stop-color="#4673d2" stop-opacity="0.49"/><stop offset="0.39" stop-color="#4673d2" stop-opacity="0.71"/><stop offset="0.65" stop-color="#4673d2" stop-opacity="0.87"/><stop offset="0.86" stop-color="#4673d2" stop-opacity="0.96"/><stop offset="1" stop-color="#4673d2"/></linearGradient></defs><title>NA-bg</title><g class="cls-1"><g id="Layer_2" data-name="Layer 2"><g id="North_America_BG" data-name="North America BG"><rect class="cls-2" width="1056.66" height="630.91"/><path class="cls-3" d="M524.34,632.24h-334V343.7l36.53-9a392.48,392.48,0,0,1,213.58,7.15l5.89,1.88a78,78,0,0,1,78,78Z"/><path class="cls-4" d="M206.34,344.37,0,363.61V632.37H191.69a22.1,22.1,0,0,0,2.44-7.84Z"/><path class="cls-5" d="M217.91,326.25l-46.44-25.06a14.05,14.05,0,0,0-4.53-1.54L98,288.7,0,268.39V377.87c32.91-3.75,80.7-9.17,82-9.17,1.8,0,76.7-.54,92-.65a14.1,14.1,0,0,0,5.21-1l37.27-15A14.26,14.26,0,0,0,217.91,326.25Z"/><path class="cls-6" d="M1056.83,347.37c-58.91-19-132.79,12-164.74,6s-94.85-74-178.72-85-122.81,37-122.81,37,98.85-21,103.84,58c0,0,18.48,71-229.13,38s-228.64,109-465.27,39V632.24s695.35-1.08,1057.34-.79V347.52Z"/><polygon class="cls-7" points="247.79 347.27 246.94 345.28 238.61 348.82 245.6 330.89 243.15 329.93 221.06 386.58 223.51 387.54 237.51 351.63 247.79 347.27"/><polygon class="cls-7" points="462.01 393.53 463.98 393.02 461.87 384.74 477.6 393.82 478.84 391.67 429.14 362.98 427.9 365.13 459.4 383.32 462.01 393.53"/><polygon class="cls-7" points="434.72 359.18 434.63 356.8 424.61 357.2 438.87 341.36 436.7 339.41 391.66 389.44 393.82 391.39 422.38 359.68 434.72 359.18"/><polygon class="cls-7" points="403.99 358.83 405.12 355.75 392.16 351.01 418.62 338.34 416.88 334.72 333.32 374.73 335.05 378.35 388.02 352.99 403.99 358.83"/><polygon class="cls-7" points="279.31 325.67 282.29 327.05 276.48 339.57 304.14 329.82 305.48 333.61 218.09 364.4 216.76 360.62 272.15 341.1 279.31 325.67"/><polygon class="cls-7" points="222.18 387.17 221.05 384.08 234.01 379.34 207.56 366.67 209.29 363.05 292.85 403.07 291.12 406.69 238.15 381.32 222.18 387.17"/><rect class="cls-7" x="306.52" y="344.05" width="2.64" height="64.33" transform="translate(488.01 -75.27) rotate(61.05)"/><rect class="cls-7" x="297.85" y="309.71" width="2.64" height="64.33" transform="translate(733.11 207.42) rotate(113.97)"/><rect class="cls-7" x="469.85" y="337.05" width="2.64" height="64.33" transform="translate(999.97 88.7) rotate(113.97)"/><rect class="cls-7" x="346.18" y="324.53" width="2.64" height="64.33" transform="translate(814.62 184.1) rotate(113.97)"/><rect class="cls-7" x="308.92" y="341.38" width="3.87" height="66.48" transform="translate(-163.76 482.83) rotate(-63.16)"/><rect class="cls-7" x="391.92" y="305.05" width="3.87" height="66.48" transform="translate(-85.82 536.96) rotate(-63.16)"/><rect class="cls-7" x="249.26" y="336.12" width="3.87" height="82.92" transform="translate(108.1 -52.76) rotate(15.24)"/><rect class="cls-7" x="443.89" y="339.91" width="3.87" height="52.25" transform="translate(111.92 -104.33) rotate(15.24)"/><polygon class="cls-7" points="316.58 363.39 315.9 360.12 295.56 364.37 309.16 348.66 306.64 346.48 291.36 364.14 225.96 402.6 228.33 406.62 293.72 368.16 316.58 363.39"/><polygon class="cls-7" points="250.71 365.35 249.32 363.68 238.94 372.35 241.94 359.16 239.82 358.68 236.45 373.5 210.66 415.61 213.25 417.2 239.04 375.09 250.71 365.35"/><polygon class="cls-7" points="497.81 364.5 497.39 362.47 484.74 365.12 493.19 355.35 491.63 353.99 482.12 364.97 441.45 388.89 442.93 391.39 483.59 367.47 497.81 364.5"/><polygon class="cls-7" points="333.87 319.73 331.19 321.7 343.53 338.42 323.58 332.61 322.65 335.81 345.07 342.34 407.28 385.76 409.95 381.94 347.74 338.51 333.87 319.73"/><path class="cls-8" d="M1057.83,335.37c-58.91-19-132.79,12-164.74,6s-94.85-74-178.72-85-122.81,37-122.81,37,98.85-21,103.84,58c0,0,18.48,71-229.13,38s-228.64,109-465.27,39V632.24s695.35-1.08,1057.34-.79V335.52Z"/></g></g></g></svg>