<?xml version="1.0" encoding="utf-8"?>
<!-- Generator: Adobe Illustrator 19.0.0, SVG Export Plug-In . SVG Version: 6.00 Build 0)  -->
<svg version="1.1" id="Layer_1" xmlns="http://www.w3.org/2000/svg" xmlns:xlink="http://www.w3.org/1999/xlink" x="0px" y="0px"
	 viewBox="509 -296.4 1058.3 632.4" style="enable-background:new 509 -296.4 1058.3 632.4;" xml:space="preserve">
<style type="text/css">
	.st0{fill:#87B9F4;}
	.st1{fill:url(#SVGID_1_);}
	.st2{fill:#534741;}
	.st3{fill:#998675;}
	.st4{fill:#6B4F6E;}
	.st5{fill:#99869B;}
	.st6{fill:#45ABE1;}
</style>
<title>NA-bg</title>
<rect x="509" y="-296.1" class="st0" width="1059.2" height="631.7"/>
<linearGradient id="SVGID_1_" gradientUnits="userSpaceOnUse" x1="509" y1="-114.8559" x2="1566.34" y2="-114.8559" gradientTransform="matrix(1 0 0 -1 0 39.26)">
	<stop  offset="0" style="stop-color:#4673D2;stop-opacity:0.4"/>
	<stop  offset="0.1" style="stop-color:#4673D2;stop-opacity:0.49"/>
	<stop  offset="0.39" style="stop-color:#4673D2;stop-opacity:0.71"/>
	<stop  offset="0.65" style="stop-color:#4673D2;stop-opacity:0.87"/>
	<stop  offset="0.86" style="stop-color:#4673D2;stop-opacity:0.96"/>
	<stop  offset="1" style="stop-color:#4673D2"/>
</linearGradient>
<path class="st1" d="M1565.8,52c-58.9-19-132.8,12-164.7,6s-94.8-74-178.7-85s-122.8,37-122.8,37s98.8-21,103.8,58
	c0,0,18.5,71-229.1,38S745.6,215,509,145v191.9c0,0,695.3-1.1,1057.3-0.8V52.1L1565.8,52z"/>
<path class="st2" d="M923.3,336.9h-334V48.3l36.5-9c70.5-17.4,144.4-14.9,213.6,7.1l5.9,1.9c43.1,0,78,34.9,78,78V336.9z"/>
<polygon class="st3" points="646.8,51.9 645.9,49.9 637.6,53.5 644.6,35.5 642.2,34.6 620.1,91.2 622.5,92.2 636.5,56.3 "/>
<polygon class="st3" points="861,98.2 863,97.6 860.9,89.4 876.6,98.5 877.8,96.3 828.1,67.6 826.9,69.8 858.4,88 "/>
<polygon class="st3" points="833.7,63.8 833.6,61.4 823.6,61.8 837.9,46 835.7,44 790.7,94.1 792.8,96 821.4,64.3 "/>
<polygon class="st3" points="803,63.5 804.1,60.4 791.2,55.6 817.6,43 815.9,39.4 732.3,79.4 734,83 787,57.6 "/>
<polygon class="st3" points="678.3,30.3 681.3,31.7 675.5,44.2 703.1,34.5 704.5,38.2 617.1,69 615.8,65.3 671.2,45.7 "/>
<polygon class="st3" points="621.2,91.8 620,88.7 633,84 606.6,71.3 608.3,67.7 691.8,107.7 690.1,111.3 637.2,86 "/>
<rect x="705.5" y="48.7" transform="matrix(-0.484 -0.875 0.875 -0.484 978.2086 738.4609)" class="st3" width="2.6" height="64.3"/>
<rect x="696.9" y="14.4" transform="matrix(0.4063 -0.9138 0.9138 0.4063 372.021 665.593)" class="st3" width="2.6" height="64.3"/>
<rect x="868.9" y="41.7" transform="matrix(0.4063 -0.9138 0.9138 0.4063 449.1639 838.9932)" class="st3" width="2.6" height="64.3"/>
<rect x="745.2" y="29.2" transform="matrix(0.4063 -0.9138 0.9138 0.4063 387.1757 718.5582)" class="st3" width="2.6" height="64.3"/>
<rect x="707.9" y="46" transform="matrix(-0.4515 0.8923 -0.8923 -0.4515 1101.0515 -518.3732)" class="st3" width="3.9" height="66.5"/>
<rect x="790.9" y="9.7" transform="matrix(-0.4515 0.8923 -0.8923 -0.4515 1189.1061 -645.1653)" class="st3" width="3.9" height="66.5"/>
<rect x="648.3" y="40.7" transform="matrix(-0.9648 -0.2629 0.2629 -0.9648 1255.9456 332.4282)" class="st3" width="3.9" height="82.9"/>
<rect x="842.9" y="44.5" transform="matrix(-0.9648 -0.2629 0.2629 -0.9648 1641.4167 360.902)" class="st3" width="3.9" height="52.3"/>
<polygon class="st3" points="715.6,68 714.9,64.8 694.6,69 708.2,53.3 705.6,51.1 690.4,68.8 625,107.2 627.3,111.3 692.7,72.8 "/>
<polygon class="st3" points="649.7,70 648.3,68.3 637.9,77 640.9,63.8 638.8,63.3 635.5,78.1 609.7,120.2 612.3,121.8 638,79.7 "/>
<polygon class="st3" points="896.8,69.1 896.4,67.1 883.7,69.8 892.2,60 890.6,58.6 881.1,69.6 840.5,93.5 841.9,96 882.6,72.1 "/>
<polygon class="st3" points="732.9,24.4 730.2,26.3 742.5,43.1 722.6,37.2 721.7,40.4 744.1,47 806.3,90.4 809,86.6 746.7,43.1 "/>
<path class="st4" d="M509,59.6V334h131.2c1.3-2.4,2.1-5.1,2.4-7.8L654.8,46L509,59.6z"/>
<path class="st5" d="M673.4,38.1c-1.2-3.1-3.5-5.7-6.5-7.3L620.5,5.8c-1.4-0.8-2.9-1.3-4.5-1.5L547-6.7l-37.5-7.8v90.1
	c12.3-1.4,21-2.3,21.5-2.3c1.8,0,76.7-0.5,92-0.6c1.8,0,3.6-0.3,5.2-1l37.3-15C672.8,53.7,676.3,45.4,673.4,38.1z"/>
<path class="st6" d="M1567.5,41.1c-59-19-133,12-165,6c-32-6-95-74-179-85c-84-11-123,37-123,37s99-21,104,58c0,0,18.5,71-229.5,38
	s-229,109-466,39V338c0,0,696.4-1.1,1059-0.8V41.3L1567.5,41.1z"/>
</svg>
