<svg xmlns="http://www.w3.org/2000/svg" viewBox="0 0 151.72 210.56"><defs><style>.cls-1{fill:#1a1a1a;}.cls-2{fill:#fff;}.cls-3{fill:#231f20;}.cls-4{fill:none;stroke:#58595b;stroke-miterlimit:10;}</style></defs><title>Asset 4</title><g id="Layer_2" data-name="Layer 2"><g id="Orca"><path class="cls-1" d="M146.67,80.86c-8.34-15.33-6.67-22-6.67-22,13.33-30.33,2-46.67-1.67-55s-6-2.33-10.33,10-11.33,11.67-11.33,11.67C96.13,6.29,60.2,5.5,37.14,19.37c.83,2,.58,5.2-.85,8.38-2,4.53-5.72,7.29-8.19,6.17C26.5,33.2,25.8,31,26,28.36a41.94,41.94,0,0,0-4.71,6.17C4,62.53,13.67,73.19,13.67,73.19c.3.2.6.37.91.55,2.86-2,11.51-6.6,31-6.21,25,.5,26.34,5.5,31.67,16s12.5,43.66,11.83,63c0,0-3.33,14.83,7.5,21s-31.16,20-45.91,8.75c0,0-.5-10.5-10-26.25s-34.25,2-34.25,2c17,2.5,3.25,16.75,19.75,23.25-10.33.3-13.51,8.28-17.75,14.25C5.67,193.38,0,196.19,0,196.19c26.42,21.84,36.79,15.09,50,4s28.33-4,41.67-5.33,27-10.33,44.66-34S155,96.19,146.67,80.86Z"/><path class="cls-2" d="M28.1,33.92c2.47,1.12,6.14-1.64,8.19-6.17,1.43-3.18,1.68-6.37.85-8.38a49.75,49.75,0,0,0-11.1,9C25.8,31,26.5,33.2,28.1,33.92Z"/><path class="cls-2" d="M96.58,167.53c-10.83-6.17-7.5-21-7.5-21,.67-19.34-6.5-52.5-11.83-63s-6.67-15.5-31.67-16c-19.49-.39-28.14,4.18-31,6.21,23.5,14.37,48.84,5.54,48.84,5.54-11,8.25-10.72,40.44,1.75,54.5,13.75,15.5,17.25,20.25,9.25,32.75s-23.75,9.75-23.75,9.75C65.42,187.53,107.42,173.69,96.58,167.53Z"/><circle class="cls-3" cx="51.42" cy="48.9" r="4.38"/><ellipse class="cls-3" cx="19.79" cy="42.4" rx="4.38" ry="3.12" transform="translate(-26.99 41.66) rotate(-64.07)"/><circle class="cls-2" cx="53.17" cy="47.53" r="1.25"/><circle class="cls-2" cx="21.17" cy="41.65" r="1.25"/><ellipse class="cls-2" cx="56.1" cy="33.96" rx="11.31" ry="6.19" transform="matrix(0.92, -0.39, 0.39, 0.92, -8.83, 24.74)"/><path class="cls-4" d="M127.63,81s14.81,18.66,10.34,34.7-19.26,21.19-20.38,20.52-.25-22-7.83-32.57"/></g></g></svg>