<?xml version="1.0" encoding="utf-8"?>
<!-- Generator: Adobe Illustrator 19.0.0, SVG Export Plug-In . SVG Version: 6.00 Build 0)  -->
<svg version="1.1" id="Layer_1" xmlns="http://www.w3.org/2000/svg" xmlns:xlink="http://www.w3.org/1999/xlink" x="0px" y="0px"
	 viewBox="57 -85.6 153.1 211.6" style="enable-background:new 57 -85.6 153.1 211.6;" xml:space="preserve">
<title>Asset 7</title>
<path d="M204.6-4.2c-8.3-15.3-6.7-22-6.7-22c13.3-30.3,2-46.7-1.7-55s-6-2.3-10.3,10s-11.3,11.6-11.3,11.6
	c-20.6-19.2-56.5-20-79.5-6.1c0.8,2,0.6,5.2-0.9,8.4c-2,4.5-5.7,7.3-8.2,6.2c-1.6-0.7-2.3-2.9-2-5.6c-1.8,1.9-3.3,4-4.7,6.1
	c-17.3,28-7.7,38.7-7.7,38.7c0.3,0.2,0.6,0.4,0.9,0.6c2.9-2,11.5-6.6,31-6.2c25,0.5,26.3,5.5,31.7,16s12.5,43.7,11.9,63
	c0,0-3.3,14.8,7.5,21c10.8,6.2-31.2,20-45.9,8.8c0,0-0.5-10.5-10-26.2s-34.2,2-34.2,2c17,2.5,3.2,16.8,19.8,23.2
	c-10.5,0.2-13.7,8.1-18,14.1c-2.7,3.9-8.4,6.7-8.4,6.7c26.4,21.8,36.8,15.1,50,4s28.3-4,41.7-5.3s27-10.3,44.7-34
	S212.9,11.1,204.6-4.2z"/>
<path d="M85.6-48.7c3.1,1.4,7.5-2,10.1-7.7c1.7-4,2.1-7.9,1.1-10.4c-5.1,3-9.8,6.8-13.7,11.1C82.8-52.3,83.6-49.6,85.6-48.7z"/>
<path d="M156.4,83c-11.1-6.4-8.6-20.5-8.6-20.5c0.7-19.8-6.7-53.9-12.1-64.7s-6.9-15.9-32.6-16.4c-20-0.4-28.9,4.3-31.8,6.4
	c24.1,14.8,50.1,5.8,50.1,5.8c-11.3,8.4-11,41.5,1.8,56c14.2,15.9,17.7,20.7,9.4,33.7s-24.4,10.1-24.4,10.1
	C123.4,104.6,167.5,89.4,156.4,83z"/>
<circle cx="109.3" cy="-36.2" r="4.4"/>
<ellipse transform="matrix(-0.8993 -0.4373 0.4373 -0.8993 166.2437 -47.1116)" cx="77.7" cy="-42.7" rx="3.1" ry="4.4"/>
<circle cx="111.1" cy="-37.6" r="1.2"/>
<circle cx="79.1" cy="-43.4" r="1.2"/>
<ellipse transform="matrix(-0.3925 -0.9198 0.9198 -0.3925 205.7686 33.725)" cx="114" cy="-51.1" rx="6.2" ry="11.3"/>
<path d="M185.5-4.1c0,0,14.8,18.7,10.3,34.7s-19.3,21.2-20.4,20.5c-1.1-0.7-0.2-22-7.8-32.6"/>
</svg>
