<?xml version="1.0" encoding="utf-8"?>
<!-- Generator: Adobe Illustrator 19.0.0, SVG Export Plug-In . SVG Version: 6.00 Build 0)  -->
<svg version="1.1" id="Layer_1" xmlns="http://www.w3.org/2000/svg" xmlns:xlink="http://www.w3.org/1999/xlink" x="0px" y="0px"
	 viewBox="107 -54.4 253.1 149.4" style="enable-background:new 107 -54.4 253.1 149.4;" xml:space="preserve">
<title>Asset 8</title>
<g id="Layer_2">
	<g id="Otter">
		<path d="M356.2,28.1c-4.5,27.9-51.4,43.4-104.6,34.8S159,24.6,163.5-3.2c2-12,8.3-29.1,23.4-34c8.4-2.8,20.7,3,31.4,1.6
			c14.9-2,32.1-5.2,49.7-2.3C321.3-29.3,360.7,0.3,356.2,28.1z"/>
		<path d="M328.5,4.6c0,0,27.5-2.2,30.8,29.2c3.3,31.4-23.9,66.3-114.1,60c0,0,35.8-6.1,52.5-33.6S299.1,8.8,328.5,4.6z"/>
		<path d="M175.3,26c-0.8,0-14.4,11.9-21.9,14.2s-12.5,19.7,5.8,15s13.6-6.1,30.3-6.9s23.6-7.5,23.6-7.5L175.3,26z"/>
		<path d="M207.7-35.3c3.3-4.9,1-12.4,1-12.4c-4.2-0.6-7.4,1.8-9.2,3.6c-18.2-14.4-44.3-12.8-60.6,3.7c-5.6-4.2-8.6-1.7-8.6-1.7
			c-2.1,6.8-0.2,10.7,1.2,12.5c-2.5,5.2-3.7,10.8-3.7,16.5c0,22.5,19.5,40.8,43.4,40.8s43.4-18.3,43.4-40.8
			C214.7-21.1,212.2-28.8,207.7-35.3z"/>
		<path d="M134.1,8.6c0,0-9.1-20.1,3.8-19.4c12.9,0.7,13.2,5.7,18.7,3.8c5.6-1.9,7.8-5.5,13.6-4.4s11.2,5.4,19.7,2.8
			s10.1-9.4,15.5-6.4s4.2,14.6,4,26.9s7.3,22.5,13,24c0,0,25.3,6,29.8,7c4.1,1,44.9,20.7,44.8,20.7c-45.4,7.9-91.3-14.1-91.5-14.1
			c-0.4,0-24.8-14.6-30.5-21.7C159,28.9,143.4,21.7,134.1,8.6z"/>
		<path d="M171.4-3.9c0,1.4-2.6,4.2-5.9,4.2s-5.9-2.8-5.9-4.2s2.6-2.5,5.9-2.5S171.4-5.3,171.4-3.9z"/>
		<path d="M149.5,6.8c0.2,0.5,5.6,5.6,17.1,0.2c0,0,10.4,7.3,20.3-3.5"/>
		<ellipse cx="169.2" cy="-3.7" rx="1.2" ry="0.7"/>
		<path d="M259.4,44.7c0,0-11.7-0.4-36.6,14.3s-33.6,13.6-33.6,13.6c-3.5,0.8-7.2-0.5-9.4-3.3c-5.5-7.2,13.9-10.6,27.5-21.9
			s15.5-13,16.7-12.8S256.1,33.1,259.4,44.7z"/>
		<path d="M132.4-31.3c-0.3,0.1-2.6-4.2-0.8-9.1c2.1,1.6,3.1,4.3,2.4,6.9C133.9-32.5,133.2-31.7,132.4-31.3z"/>
		<path d="M207.9-46.4c0,0,2.3,6.9-1.3,9.8C206.6-36.7,201.7-39.2,207.9-46.4z"/>
		<circle cx="145.1" cy="-1.9" r="0.5"/>
		<circle cx="151" cy="-2.3" r="0.5"/>
		<circle cx="150.9" cy="1.2" r="0.8"/>
		<circle cx="182.7" cy="-5.1" r="0.8"/>
		<circle cx="153.9" cy="-1.1" r="0.4"/>
		<circle cx="180" cy="1.6" r="0.4"/>
		<circle cx="178.3" cy="-4.3" r="0.4"/>
		<circle cx="145.8" cy="0.3" r="0.4"/>
		<circle cx="140.6" cy="-1.7" r="0.4"/>
		<circle cx="186.1" cy="-0.5" r="0.4"/>
		<circle cx="178.5" cy="-1.5" r="0.4"/>
		<circle cx="189.9" cy="-5.3" r="0.4"/>
		<circle cx="193.6" cy="-4.3" r="0.4"/>
		<circle cx="175.6" cy="0" r="0.5"/>
		<circle cx="182" cy="-1" r="0.6"/>
		<circle cx="142.6" cy="0.9" r="0.6"/>
		<circle cx="190.3" cy="-2.2" r="0.6"/>
		<circle cx="187.1" cy="-3.6" r="0.5"/>
		<circle cx="144.4" cy="-4.4" r="0.5"/>
		<circle cx="175.5" cy="-6" r="0.5"/>
		<circle cx="147.9" cy="-4.9" r="0.4"/>
		<circle cx="157" cy="2.2" r="0.5"/>
		<circle cx="136.9" cy="-2.9" r="0.5"/>
		<circle cx="140.9" cy="-5.7" r="0.4"/>
		<path d="M148.4-2.4c0,0-20.1-9.7-41.3-4.2"/>
		<path d="M148.3-2.1c-3.2-1.4-6.5-2.6-9.9-3.5c-3.4-0.9-6.8-1.6-10.3-2c-1.7-0.3-3.5-0.3-5.3-0.5c-0.9,0-1.8,0-2.6,0h-1.3L117.5-8
			c-3.5,0.1-7,0.6-10.4,1.4c3.4-0.9,6.9-1.4,10.4-1.7l1.3-0.1h1.3c0.9,0,1.8,0,2.7,0c1.8,0.1,3.5,0.1,5.3,0.3c3.5,0.4,7,1,10.4,1.9
			c3.4,0.9,6.8,2,10.1,3.4L148.3-2.1z"/>
		<path d="M147.8-1.2c-0.4,0-33.4-5.3-40.8,0"/>
		<path d="M147.8-0.8l-5.2-0.8c-1.7-0.2-3.4-0.5-5.1-0.7c-3.4-0.4-6.8-0.8-10.3-1c-3.4-0.2-6.8-0.3-10.3-0.2
			c-1.7,0.1-3.4,0.2-5.1,0.5c-1.7,0.2-3.4,0.8-4.9,1.7c1.5-0.9,3.1-1.5,4.8-1.8c1.7-0.3,3.4-0.5,5.1-0.6c3.4-0.2,6.9-0.2,10.3,0
			c3.4,0.2,6.9,0.4,10.3,0.8c3.4,0.3,6.9,0.8,10.2,1.2V-0.8z"/>
		<path d="M148,0.2c0,0-27.5-1.5-39,6.8"/>
		<path d="M148,0.6c-3.3-0.2-6.7-0.2-10-0.1s-6.7,0.3-10,0.7c-3.3,0.4-6.6,1-9.8,1.8c-3.2,0.8-6.3,2.1-9.2,3.9
			c2.8-1.9,5.9-3.3,9.1-4.1c3.2-0.9,6.5-1.6,9.8-2c3.3-0.5,6.7-0.8,10-0.9c3.3-0.2,6.7-0.2,10.1-0.1L148,0.6z"/>
		<path d="M182.6-4.2c0,0,20.1-9.7,41.3-4.2"/>
		<path d="M182.4-4.5c3.3-1.4,6.6-2.5,10.1-3.4c3.4-0.9,6.9-1.5,10.4-1.8c1.8-0.2,3.5-0.3,5.3-0.3c0.9,0,1.8,0,2.7,0h1.3l1.3,0.1
			c3.5,0.2,7,0.8,10.4,1.7c-3.4-0.8-6.9-1.3-10.4-1.5l-1.3-0.1h-1.3c-0.9,0-1.8,0-2.6,0c-1.8,0.1-3.5,0.2-5.3,0.5
			c-3.5,0.4-6.9,1.1-10.3,2c-3.4,0.9-6.7,2.1-9.9,3.6L182.4-4.5z"/>
		<path d="M183.2-2.9c0.4,0,33.4-5.3,40.8,0"/>
		<path d="M183.2-3.3c3.3-0.4,6.8-0.9,10.2-1.2c3.4-0.3,6.9-0.6,10.3-0.8c3.4-0.2,6.9-0.2,10.3,0c1.7,0.1,3.4,0.3,5.1,0.6
			c1.7,0.3,3.3,0.9,4.8,1.8c-1.5-0.9-3.1-1.4-4.8-1.7c-1.7-0.3-3.4-0.4-5.1-0.5c-3.4-0.1-6.9,0-10.3,0.2c-3.4,0.2-6.8,0.6-10.3,1
			c-1.7,0.2-3.4,0.4-5.1,0.7l-5.2,0.8V-3.3z"/>
		<path d="M183-1.4c0,0,27.5-1.5,39,6.8"/>
		<path d="M183-1.9c3.4-0.1,6.7,0,10.1,0.1c3.3,0.1,6.7,0.5,10,0.9c3.3,0.4,6.6,1.1,9.8,2c3.2,0.9,6.3,2.3,9.1,4.2
			c-2.8-1.8-5.9-3.1-9.2-3.9c-3.2-0.9-6.5-1.5-9.8-1.8c-3.3-0.4-6.6-0.6-10-0.7s-6.7-0.1-10,0.1V-1.9z"/>
		<path d="M297.4,51.6c-1.4-0.9-18,11.7-35,14.4s-20.5,5.8-14.7,11.4s51.6-2.2,51.6-2.2S309.6,59,297.4,51.6z"/>
		<ellipse cx="151.5" cy="-18.6" rx="6.1" ry="7.8"/>
		<ellipse cx="184.4" cy="-18.6" rx="6.1" ry="7.8"/>
		<circle cx="153.8" cy="-20.3" r="1.8"/>
		<circle cx="186.6" cy="-20.3" r="1.8"/>
	</g>
</g>
</svg>
