<svg xmlns="http://www.w3.org/2000/svg" xmlns:xlink="http://www.w3.org/1999/xlink" viewBox="0 0 320 640"><defs><style>.cls-1,.cls-22,.cls-25,.cls-26{fill:none;}.cls-2{fill:url(#radial-gradient);}.cls-3{font-size:29px;}.cls-24,.cls-3,.cls-7{fill:#fff;}.cls-3,.cls-7{font-family:Montserrat-Bold, Montserrat;font-weight:700;}.cls-4{letter-spacing:-0.01em;}.cls-5{letter-spacing:0.02em;}.cls-6{letter-spacing:0em;}.cls-7{font-size:20px;}.cls-8{letter-spacing:-0.02em;}.cls-9{letter-spacing:-0.01em;}.cls-10{letter-spacing:-0.01em;}.cls-11{letter-spacing:-0.01em;}.cls-12{letter-spacing:0.01em;}.cls-13{letter-spacing:0.01em;}.cls-14{letter-spacing:-0.01em;}.cls-15{letter-spacing:0em;}.cls-16{letter-spacing:0.01em;}.cls-17{fill:#1e130d;}.cls-18{fill:#8b5e3c;}.cls-19{fill:#c49a6c;}.cls-20{clip-path:url(#clip-path);}.cls-21{fill:#3c2415;}.cls-22,.cls-25{stroke:#1e130d;}.cls-22,.cls-25,.cls-26{stroke-miterlimit:10;}.cls-22{stroke-width:1.27px;}.cls-23{fill:#231f20;}.cls-26{stroke:#a97c50;}</style><radialGradient id="radial-gradient" cx="160" cy="320" r="252.98" gradientUnits="userSpaceOnUse"><stop offset="0" stop-color="#59afc5"/><stop offset="0.23" stop-color="#4aa8c0"/><stop offset="0.66" stop-color="#2396b2"/><stop offset="1" stop-color="#0085a6"/></radialGradient><clipPath id="clip-path"><path class="cls-1" d="M160,305.26s34.35-11,47.07-35.2,27.57-46.22,44.53-42.83,25.87,28.41,9.75,49.61-62.33,46.65-86.1,43.68Z"/></clipPath></defs><title>Asset 46</title><g id="Layer_2" data-name="Layer 2"><g id="Amazon_Environment" data-name="Amazon Environment"><rect class="cls-2" width="320" height="640"/><text class="cls-3" transform="translate(82.8 436.38)">NICE T<tspan class="cls-4" x="99.79" y="0">R</tspan><tspan class="cls-5" x="120.81" y="0">Y</tspan><tspan class="cls-6" x="141" y="0">!</tspan></text><text class="cls-7" transform="translate(29.43 474.73)">Ma<tspan class="cls-8" x="31.44" y="0">k</tspan><tspan x="44.18" y="0">e su</tspan><tspan class="cls-9" x="86.82" y="0">r</tspan><tspan x="95.26" y="0">e </tspan><tspan class="cls-10" x="113.54" y="0">y</tspan><tspan x="125.2" y="0">ou </tspan><tspan class="cls-9" x="157.7" y="0">r</tspan><tspan class="cls-11" x="166.14" y="0">e</tspan><tspan x="178.56" y="0">vi</tspan><tspan class="cls-11" x="196.54" y="0">e</tspan><tspan x="208.96" y="0">w t</tspan><tspan class="cls-12" x="242.06" y="0">h</tspan><tspan x="256" y="0">e </tspan><tspan x="1" y="24">animal </tspan><tspan class="cls-11" x="78.18" y="24">f</tspan><tspan class="cls-12" x="85.72" y="24">a</tspan><tspan class="cls-13" x="98.18" y="24">c</tspan><tspan x="110.16" y="24">ts </tspan><tspan class="cls-12" x="135.14" y="24">a</tspan><tspan x="147.6" y="24">gain be</tspan><tspan class="cls-14" x="225.86" y="24">f</tspan><tspan x="233.46" y="24">o</tspan><tspan class="cls-9" x="246.56" y="24">r</tspan><tspan class="cls-15" x="255" y="24">e </tspan><tspan class="cls-10" x="38.73" y="48">y</tspan><tspan x="50.39" y="48">ou </tspan><tspan class="cls-9" x="82.89" y="48">r</tspan><tspan x="91.33" y="48">et</tspan><tspan class="cls-16" x="112.65" y="48">r</tspan><tspan x="121.57" y="48">y t</tspan><tspan class="cls-12" x="147.89" y="48">h</tspan><tspan x="161.83" y="48">e qui</tspan><tspan class="cls-12" x="213.67" y="48">z</tspan><tspan x="224.65" y="48">.</tspan></text><g id="Layer_2-2" data-name="Layer 2"><g id="Orca"><path class="cls-17" d="M107.31,328.66s-9.12-.51-15.7,5.42a2.22,2.22,0,0,0-.13,3.13,2.19,2.19,0,0,0,1.77.7c2.81-.21,6,.07,7.77,2a2.24,2.24,0,0,0,1.57.77c2.56.11,9.19.55,12,2a2.24,2.24,0,0,0,1.66.23c2.07-.57,6.89-2.32,9-6.77C128.06,330.41,107.31,328.66,107.31,328.66Z"/><path class="cls-17" d="M171.31,328.66s9.12-.51,15.7,5.42a2.22,2.22,0,0,1,.17,3.13,2.18,2.18,0,0,1-1.81.72c-2.82-.21-6,.07-7.77,2a2.24,2.24,0,0,1-1.57.77c-2.56.11-9.2.55-12,2a2.26,2.26,0,0,1-1.67.21c-2.08-.57-6.89-2.32-9-6.77C150.56,330.41,171.31,328.66,171.31,328.66Z"/><ellipse class="cls-18" cx="138.09" cy="172.98" rx="47.07" ry="44.07"/><path class="cls-18" d="M97.25,136.26c4.41.86,7.14,6.09,6.39,11.91l8.93-5.19a38.9,38.9,0,0,1-8.32-9.36c-2.73-4.46-11.25-1.35-12.54,3.92A7.29,7.29,0,0,1,97.25,136.26Z"/><path class="cls-19" d="M99.25,150.68l4.32-2.51c.75-5.82-2-11-6.39-11.91a7.27,7.27,0,0,0-5.5,1.28,5.75,5.75,0,0,0,.29,3.64C95,148.4,99.25,150.68,99.25,150.68Z"/><path class="cls-18" d="M178.05,134.83c-4.41.86-7.14,6.08-6.38,11.91l-8.93-5.19a38.75,38.75,0,0,0,8.33-9.36c2.68-4.46,11.18-1.35,12.49,3.91A7.26,7.26,0,0,0,178.05,134.83Z"/><path class="cls-19" d="M176,149.25l-4.32-2.51c-.76-5.83,2-11,6.38-11.91a7.26,7.26,0,0,1,5.51,1.27,5.78,5.78,0,0,1-.29,3.65C180.32,147,176,149.25,176,149.25Z"/><g class="cls-20"><path class="cls-21" d="M160,305.26s34.35-11,47.07-35.2,27.57-46.22,44.53-42.83,25.87,28.41,9.75,49.61-62.33,46.65-86.1,43.68Z"/><path class="cls-22" d="M265.81,220.66V302.5"/><path class="cls-22" d="M262,220.66V302.5"/><path class="cls-22" d="M258.17,220.66V302.5"/><path class="cls-22" d="M254.36,220.66V302.5"/><path class="cls-22" d="M250.54,220.66V302.5"/><path class="cls-22" d="M246.72,220.66V302.5"/><path class="cls-22" d="M242.91,220.66V302.5"/><path class="cls-22" d="M239.09,220.66V302.5"/><path class="cls-22" d="M235.7,230.83v81.85"/><path class="cls-22" d="M232.31,230.83v81.85"/><path class="cls-22" d="M228.49,230.83v81.85"/><path class="cls-22" d="M224.67,230.83v81.85"/><path class="cls-22" d="M220.86,230.83v81.85"/><path class="cls-22" d="M217,230.83v81.85"/><path class="cls-22" d="M213.25,230.83v81.85"/><path class="cls-22" d="M209.41,233.38v81.84"/><path class="cls-22" d="M205.38,253.73v81.85"/><path class="cls-22" d="M201.56,253.73v81.85"/><path class="cls-22" d="M197.74,256.28v81.84"/><line class="cls-22" x1="187.78" y1="317.98" x2="279.8" y2="274.72"/><line class="cls-22" x1="185.66" y1="313.95" x2="277.68" y2="270.7"/><line class="cls-22" x1="183.54" y1="309.92" x2="275.56" y2="266.67"/><line class="cls-22" x1="181.42" y1="305.89" x2="273.44" y2="262.64"/><line class="cls-22" x1="179.3" y1="301.86" x2="271.32" y2="258.61"/><line class="cls-22" x1="185.66" y1="294.23" x2="277.68" y2="250.98"/><line class="cls-22" x1="183.54" y1="290.2" x2="275.56" y2="246.95"/><line class="cls-22" x1="181.42" y1="286.17" x2="273.44" y2="242.92"/><line class="cls-22" x1="179.3" y1="282.15" x2="271.32" y2="238.89"/><line class="cls-22" x1="177.18" y1="278.12" x2="269.2" y2="234.86"/><line class="cls-22" x1="190.32" y1="267.3" x2="282.34" y2="224.05"/><line class="cls-22" x1="188.2" y1="263.27" x2="280.22" y2="220.02"/><line class="cls-22" x1="186.08" y1="259.25" x2="278.1" y2="215.99"/><line class="cls-22" x1="183.96" y1="255.22" x2="275.98" y2="211.96"/><line class="cls-22" x1="181.84" y1="251.19" x2="273.86" y2="207.93"/></g><path class="cls-18" d="M147.7,337.91H128.48c-29.52,0-52.4-20.38-48.87-43.54l9.61-63c3-19.54,24-34.24,48.87-34.24h0c24.91,0,45.9,14.7,48.88,34.24l9.61,63C200.11,317.53,177.25,337.91,147.7,337.91Z"/><path class="cls-17" d="M147.17,179.91l-3.61,5.23c-2.15,3.12-7.52,3.12-9.67,0l-3.64-5.23c-2.15-3.11.54-7,4.84-7h7.21C146.63,172.91,149.32,176.81,147.17,179.91Z"/><ellipse class="cls-23" cx="118.81" cy="160.08" rx="5.42" ry="7.83"/><circle class="cls-24" cx="121.39" cy="158.41" r="1.83"/><ellipse class="cls-23" cx="154.48" cy="160.08" rx="5.42" ry="7.83"/><circle class="cls-24" cx="157.06" cy="158.41" r="1.83"/><path class="cls-25" d="M124.18,175.66s-26.25-3.37-41.5,1.87"/><path class="cls-25" d="M123.43,178.29s-29,2.24-39.25,8.37"/><path class="cls-25" d="M123.93,181.79s-29.75,7.12-36.5,15.74"/><path class="cls-25" d="M153.18,175.66s26.25-3.37,41.5,1.88"/><path class="cls-25" d="M153.93,178.29s29,2.25,39.25,8.37"/><path class="cls-25" d="M153.43,181.79s29.75,7.12,36.5,15.75"/><path class="cls-24" d="M131.06,191.79v8.37h14.12v-8.63a31,31,0,0,1-7-.62S136.56,191.79,131.06,191.79Z"/><path class="cls-25" d="M123.77,195.13c7-5.75,9.45-2.66,14.38-4.22V179.66"/><path class="cls-25" d="M152.88,195.38c-6.5-6.75-9.48-2.91-14.41-4.47V179.66"/><line class="cls-25" x1="138.31" y1="200.04" x2="138.31" y2="190.91"/><path class="cls-26" d="M98.79,231.61c-.07-.39,2.06-12.59,19.59-15.29"/><path class="cls-26" d="M122,229.22s-5.13,7.48-7.5,14.52a2.34,2.34,0,0,1-2.9,1.51"/><path class="cls-17" d="M121.43,229.65c-2.2-1.49-7-5.79-3.42-13.22a.9.9,0,0,1,.21-.27A14,14,0,0,1,128.36,213a.81.81,0,0,1,.25,1.53l-.26.12a.8.8,0,0,0-.39,1.07.77.77,0,0,0,.62.45l1.79.26a.81.81,0,0,1,.71.89.79.79,0,0,1-.34.56l-1,.76a.81.81,0,0,0-.12,1.14.78.78,0,0,0,.68.3h0a.8.8,0,0,1,.86.74.78.78,0,0,1-.28.67l-2.63,2.21-.14.09c-.58.3-4.45,2.38-5.43,5.37a.8.8,0,0,1-1,.6A.78.78,0,0,1,121.43,229.65Z"/><path class="cls-26" d="M181.08,233.41c.1-.39-1.33-12.69-18.68-16.38"/><path class="cls-26" d="M157.87,228.72s4.69,7.76,6.66,14.92a2.33,2.33,0,0,0,2.8,1.68"/><path class="cls-17" d="M158.68,229.53c2.23-1.33,7.16-5.26,4.07-12.7a.87.87,0,0,0-.19-.28,13.58,13.58,0,0,0-9.71-3.64.79.79,0,0,0-.33,1.48l.25.13a.79.79,0,0,1,.29,1.08.78.78,0,0,1-.6.39l-1.76.15a.8.8,0,0,0-.76.81.77.77,0,0,0,.31.59l.92.8a.78.78,0,0,1,.1,1.1.77.77,0,0,1-.72.27h0a.79.79,0,0,0-.89.66.77.77,0,0,0,.25.69l2.49,2.32a.38.38,0,0,0,.13.09c.54.33,4.21,2.57,5,5.54a.79.79,0,0,0,.94.6A.49.49,0,0,0,158.68,229.53Z"/></g></g><path class="cls-18" d="M124.79,149.3s-5.91,10.83-17.16,11C107.63,160.3,115,145.46,124.79,149.3Z"/><path class="cls-18" d="M150.46,149.3s5.92,10.83,17.17,11C167.63,160.3,160.21,145.46,150.46,149.3Z"/></g></g></svg>