<?xml version="1.0" encoding="utf-8"?>
<!-- Generator: Adobe Illustrator 19.0.0, SVG Export Plug-In . SVG Version: 6.00 Build 0)  -->
<svg version="1.1" id="Layer_1" xmlns="http://www.w3.org/2000/svg" xmlns:xlink="http://www.w3.org/1999/xlink" x="0px" y="0px"
	 viewBox="-319 -40 320 640" style="enable-background:new -319 -40 320 640;" xml:space="preserve">
<style type="text/css">
	.st0{fill:url(#SVGID_1_);}
	.st1{fill:#543E36;}
	.st2{fill:#C1B49A;}
	.st3{fill:#231F20;}
	.st4{fill:#FFFFFF;}
	.st5{fill:#5A4A42;}
	.st6{fill:#9A8479;}
	.st7{fill:none;stroke:#231F20;stroke-width:1.64;stroke-miterlimit:10;}
	.st8{enable-background:new    ;}
	.st9{fill:#DBDADA;}
</style>
<title>Asset 52</title>
<radialGradient id="SVGID_1_" cx="-159" cy="800" r="252.9822" gradientTransform="matrix(1 0 0 1 0 -520)" gradientUnits="userSpaceOnUse">
	<stop  offset="0" style="stop-color:#59AFC5"/>
	<stop  offset="0.23" style="stop-color:#4AA8C0"/>
	<stop  offset="0.66" style="stop-color:#2396B2"/>
	<stop  offset="1" style="stop-color:#0085A6"/>
</radialGradient>
<rect x="-319" y="-40" class="st0" width="320" height="640"/>
<g id="_Group_">
	<path id="_Path_" class="st1" d="M-36.1,203.5c-4.5,27.9-51.4,43.4-104.5,34.8c-53.1-8.6-92.7-38.3-88.2-66.2
		c2-12,8.2-29.1,23.4-34.1c8.4-2.8,20.7,3.1,31.4,1.6c14.9-2,32.1-5.2,49.7-2.3C-71,146-31.6,175.6-36.1,203.5z"/>
	<path id="_Path_2" class="st1" d="M-63.8,180c0,0,27.5-2.2,30.8,29.1s-23.9,66.3-114.1,60c0,0,35.8-6.1,52.5-33.6
		S-93.2,184.1-63.8,180z"/>
	<path id="_Path_3" class="st1" d="M-217,201.4c-0.8,0-14.4,11.9-21.9,14.1s-12.5,19.7,5.8,15s13.6-6.1,30.3-6.9
		c16.7-0.8,23.6-7.5,23.6-7.5L-217,201.4z"/>
	<path id="_Path_4" class="st1" d="M-184.6,140c3.3-4.9,1-12.4,1-12.4c-4.2-0.6-7.5,1.8-9.2,3.6c-18.2-14.4-44.3-12.7-60.6,3.8
		c-5.6-4.2-8.6-1.8-8.6-1.8c-2.1,6.8-0.2,10.7,1.2,12.5c-2.4,5.2-3.7,10.8-3.7,16.5c0,22.5,19.5,40.8,43.4,40.8s43.5-18.3,43.5-40.8
		C-177.6,154.3-180,146.5-184.6,140z"/>
	<path id="_Path_5" class="st2" d="M-258.2,183.9c0,0-9.2-20.1,3.7-19.4c12.9,0.7,13.2,5.7,18.7,3.8s7.8-5.6,13.6-4.4
		c5.8,1.1,11.2,5.4,19.7,2.8c8.5-2.6,10.1-9.4,15.6-6.4s4.2,14.6,4,26.9c-0.2,12.3,7.3,22.5,13,24c0,0,25.3,6,29.8,7
		c4.1,1,44.9,20.7,44.8,20.7c-45.4,7.9-91.3-14.1-91.5-14.1c-0.4,0-24.8-14.6-30.5-21.6C-233.3,204.3-248.9,197-258.2,183.9z"/>
	<path id="_Path_6" class="st3" d="M-220.9,171.4c0,1.4-2.6,4.2-5.9,4.2c-3.3,0-5.9-2.8-5.9-4.2s2.6-2.6,5.9-2.6
		S-220.9,170-220.9,171.4z"/>
	<ellipse id="_Path_7" class="st4" cx="-223.1" cy="171.7" rx="1.2" ry="0.7"/>
	<path id="_Path_8" class="st1" d="M-132.9,220.1c0,0-11.7-0.4-36.6,14.3s-33.6,13.6-33.6,13.6c-3.5,0.8-7.2-0.5-9.4-3.3
		c-5.5-7.1,13.9-10.5,27.5-21.9s15.6-13,16.7-12.8C-167.3,210.3-136.2,208.4-132.9,220.1z"/>
	<path id="_Path_9" class="st5" d="M-259.9,144.1c-0.3,0.1-2.6-4.2-0.8-9.1c2.1,1.6,3.1,4.4,2.4,7
		C-258.5,142.9-259.1,143.7-259.9,144.1z"/>
	<path id="_Path_10" class="st5" d="M-184.4,128.9c0,0,2.3,6.9-1.3,9.8C-185.7,138.7-190.6,136.1-184.4,128.9z"/>
	<circle id="_Path_11" class="st5" cx="-247.2" cy="173.5" r="0.5"/>
	<circle id="_Path_12" class="st5" cx="-241.3" cy="173.1" r="0.5"/>
	<circle id="_Path_13" class="st5" cx="-241.4" cy="176.6" r="0.8"/>
	<circle id="_Path_14" class="st5" cx="-209.6" cy="170.3" r="0.8"/>
	<circle id="_Path_15" class="st5" cx="-238.3" cy="174.2" r="0.4"/>
	<circle id="_Path_16" class="st5" cx="-212.3" cy="176.9" r="0.4"/>
	<circle id="_Path_17" class="st5" cx="-214" cy="171.1" r="0.4"/>
	<circle id="_Path_18" class="st5" cx="-246.5" cy="175.7" r="0.4"/>
	<circle id="_Path_19" class="st5" cx="-251.7" cy="173.7" r="0.4"/>
	<circle id="_Path_20" class="st5" cx="-206.2" cy="174.9" r="0.4"/>
	<circle id="_Path_21" class="st5" cx="-213.8" cy="173.9" r="0.4"/>
	<circle id="_Path_22" class="st5" cx="-202.4" cy="170.1" r="0.4"/>
	<circle id="_Path_23" class="st5" cx="-198.7" cy="171.1" r="0.4"/>
	<circle id="_Path_24" class="st5" cx="-216.7" cy="175.3" r="0.5"/>
	<circle id="_Path_25" class="st5" cx="-210.3" cy="174.4" r="0.6"/>
	<circle id="_Path_26" class="st5" cx="-249.7" cy="176.2" r="0.6"/>
	<circle id="_Path_27" class="st5" cx="-202" cy="173.2" r="0.6"/>
	<circle id="_Path_28" class="st5" cx="-205.2" cy="171.7" r="0.5"/>
	<circle id="_Path_29" class="st5" cx="-247.9" cy="171" r="0.5"/>
	<circle id="_Path_30" class="st5" cx="-216.8" cy="169.3" r="0.5"/>
	<circle id="_Path_31" class="st5" cx="-244.4" cy="170.5" r="0.4"/>
	<circle id="_Path_32" class="st5" cx="-235.3" cy="177.6" r="0.5"/>
	<circle id="_Path_33" class="st5" cx="-255.4" cy="172.4" r="0.5"/>
	<circle id="_Path_34" class="st5" cx="-251.4" cy="169.7" r="0.4"/>
	<g id="_Group_2">
		<path class="st6" d="M-244,173.2c-3.2-1.4-6.5-2.6-9.9-3.6c-3.4-0.9-6.8-1.6-10.3-2c-1.7-0.3-3.5-0.3-5.3-0.4c-0.9,0-1.8,0-2.6,0
			h-1.3l-1.3,0.1c-3.5,0.2-7,0.7-10.4,1.5c3.4-0.9,6.9-1.5,10.4-1.8l1.3-0.1h1.4c0.9,0,1.8,0,2.6,0c1.8,0.1,3.5,0.1,5.3,0.4
			c3.5,0.4,7,1,10.4,1.9s6.8,2,10.1,3.4L-244,173.2z"/>
	</g>
	<g id="_Group_3">
		<path class="st6" d="M-244.5,174.5l-5.2-0.8c-1.7-0.2-3.4-0.4-5.1-0.6c-3.4-0.4-6.8-0.7-10.3-1c-3.4-0.2-6.9-0.3-10.3-0.2
			c-1.7,0.1-3.4,0.2-5.1,0.5c-1.7,0.2-3.4,0.8-4.8,1.7c1.5-0.9,3.1-1.5,4.8-1.8c1.7-0.3,3.4-0.5,5.1-0.6c3.4-0.2,6.9-0.2,10.3,0
			c3.4,0.1,6.9,0.4,10.3,0.8c3.4,0.3,6.9,0.8,10.2,1.2L-244.5,174.5L-244.5,174.5L-244.5,174.5z"/>
	</g>
	<g id="_Group_4">
		<path class="st6" d="M-244.3,176c-3.3-0.2-6.7-0.2-10-0.1c-3.3,0.1-6.7,0.3-10,0.7c-3.3,0.3-6.6,0.9-9.8,1.8
			c-3.3,0.8-6.4,2.1-9.2,3.9c2.8-1.9,5.9-3.3,9.1-4.1c3.2-0.9,6.5-1.6,9.8-2c3.3-0.5,6.7-0.8,10-0.9c3.3-0.1,6.7-0.2,10.1-0.1
			L-244.3,176z"/>
	</g>
	<g id="_Group_5">
		<path class="st6" d="M-209.9,170.8c3.3-1.4,6.6-2.5,10.1-3.4c3.4-0.9,6.9-1.5,10.4-1.9c1.8-0.2,3.5-0.3,5.3-0.4c0.9,0,1.8,0,2.6,0
			h1.3l1.3,0.1c3.5,0.2,7,0.8,10.4,1.7c-3.4-0.8-6.9-1.3-10.4-1.5l-1.3-0.1h-1.3c-0.9,0-1.8,0-2.6,0c-1.8,0.1-3.5,0.2-5.3,0.4
			c-3.5,0.4-6.9,1.2-10.3,2.1c-3.4,0.9-6.7,2.1-9.9,3.6L-209.9,170.8z"/>
	</g>
	<g id="_Group_6">
		<path class="st6" d="M-209.1,172c3.3-0.4,6.8-0.9,10.2-1.2s6.9-0.6,10.3-0.8c3.4-0.2,6.9-0.2,10.3,0c1.7,0.1,3.4,0.3,5.1,0.6
			c1.7,0.3,3.3,0.9,4.8,1.8c-1.5-0.9-3.1-1.4-4.8-1.7s-3.4-0.4-5.1-0.5c-3.4-0.1-6.9,0-10.3,0.2c-3.4,0.2-6.9,0.6-10.3,1
			c-1.7,0.2-3.4,0.4-5.1,0.7l-5.2,0.8L-209.1,172z"/>
	</g>
	<g id="_Group_7">
		<path class="st6" d="M-209.3,173.5c3.4-0.1,6.7,0,10.1,0.1c3.4,0.1,6.7,0.5,10,0.9s6.6,1.1,9.9,2c3.2,0.9,6.3,2.3,9.1,4.1
			c-2.8-1.8-5.9-3.1-9.2-3.9c-3.2-0.9-6.5-1.5-9.8-1.8c-3.3-0.4-6.6-0.6-10-0.7s-6.7-0.1-10,0.1L-209.3,173.5z"/>
	</g>
	<path id="_Path_35" class="st1" d="M-94.9,226.9c-1.4-0.9-18,11.6-35,14.4s-20.5,5.8-14.7,11.4c5.8,5.6,51.6-2.2,51.6-2.2
		S-82.7,234.4-94.9,226.9z"/>
	<ellipse id="_Path_36" class="st3" cx="-240.8" cy="156.8" rx="6.1" ry="7.8"/>
	<ellipse id="_Path_37" class="st3" cx="-207.9" cy="156.8" rx="6.1" ry="7.8"/>
	<circle id="_Path_38" class="st4" cx="-238.5" cy="155" r="1.8"/>
	<circle id="_Path_39" class="st4" cx="-205.7" cy="155" r="1.8"/>
	<path class="st7" d="M-237,189.5l7.8-4.7c2.6-1.6,5.9-1.6,8.6-0.1l7.9,4.5"/>
	<path class="st1" d="M-236.7,146.6c0,0-4.2,10.2-13.3,11.6l-0.9-6.7L-236.7,146.6z"/>
	<path class="st1" d="M-213.1,144.8c0,0,4.2,10.2,13.3,11.5l0.9-6.7L-213.1,144.8z"/>
</g>
<g>
	<g>
		<path class="st4" d="M-215.5,327.6l-1.9-4.6h-11l-1.9,4.6h-5.5l10.3-23.8h5.5l10.2,23.8H-215.5z M-226.7,318.7h7.5l-3.7-9.2
			L-226.7,318.7z"/>
		<path class="st4" d="M-207.3,303.8h5.4v19.1h10.2v4.7h-15.6L-207.3,303.8L-207.3,303.8z"/>
		<path class="st4" d="M-188.6,303.8h6l7.4,14.6l7.3-14.6h6v23.8h-4.8v-16.1l-6.8,13.7h-3.5l-6.7-13.7v16.1h-4.8L-188.6,303.8
			L-188.6,303.8z"/>
		<path class="st4" d="M-139,305.1c1.9,1.1,3.5,2.5,4.6,4.4s1.7,3.9,1.7,6.2c0,2.3-0.6,4.4-1.7,6.3s-2.7,3.4-4.6,4.4
			c-2,1.1-4.1,1.6-6.5,1.6s-4.5-0.5-6.5-1.6c-1.9-1.1-3.5-2.5-4.6-4.4s-1.7-4-1.7-6.3s0.6-4.4,1.7-6.2c1.1-1.9,2.7-3.3,4.6-4.4
			s4.1-1.6,6.5-1.6S-141,304-139,305.1z M-149.1,309.2c-1.1,0.7-2,1.6-2.7,2.7c-0.7,1.2-1,2.4-1,3.8s0.3,2.7,1,3.8s1.6,2.1,2.7,2.8
			c1.1,0.7,2.3,1,3.7,1s2.5-0.3,3.6-1s2-1.6,2.6-2.8s1-2.5,1-3.9s-0.3-2.7-1-3.8c-0.7-1.1-1.5-2.1-2.6-2.7c-1.1-0.7-2.3-1-3.6-1
			S-148,308.5-149.1,309.2z"/>
		<path class="st4" d="M-117.4,308.7c-1.4-0.4-2.5-0.7-3.5-0.7c-0.9,0-1.7,0.2-2.2,0.5s-0.8,0.8-0.8,1.5c0,0.8,0.4,1.5,1.2,1.9
			c0.8,0.4,2,0.9,3.6,1.4s3,1,4,1.4c1.1,0.5,2,1.2,2.7,2.1s1.1,2.2,1.1,3.8c0,1.5-0.4,2.8-1.2,3.9s-1.9,1.9-3.3,2.5s-3,0.8-4.8,0.8
			c-1.9,0-3.8-0.3-5.7-1c-1.9-0.7-3.5-1.6-4.8-2.8l2.1-4.4c1.2,1.1,2.6,2,4.1,2.6s3,1,4.3,1c1.1,0,2-0.2,2.6-0.6s0.9-1,0.9-1.8
			c0-0.6-0.2-1.1-0.6-1.5s-1-0.7-1.6-1c-0.6-0.2-1.5-0.5-2.7-0.8c-1.6-0.5-3-0.9-4-1.4s-1.9-1.1-2.7-2.1c-0.8-1-1-2-1-3.5
			c0-1.4,0.4-2.7,1.2-3.8c0.8-1.1,1.8-1.9,3.2-2.5c1.4-0.6,3-0.9,4.8-0.9c1.6,0,3.2,0.2,4.8,0.7c1.6,0.5,3,1.1,4.2,1.9l-2.1,4.5
			C-114.7,309.7-116,309.1-117.4,308.7z"/>
		<path class="st4" d="M-109.9,303.8H-90v4.6h-7.3v19.2h-5.4v-19.2h-7.2V303.8z"/>
		<path class="st4" d="M-83.5,323.3c0.5,0.5,0.7,1.1,0.7,1.9s-0.2,1.4-0.7,2c-0.5,0.5-1.1,0.8-1.9,0.8c-0.7,0-1.4-0.3-1.9-0.8
			s-0.7-1.2-0.7-1.9c0-0.8,0.3-1.4,0.7-1.9c0.5-0.5,1.1-0.7,1.9-0.7C-84.6,322.5-84,322.8-83.5,323.3z M-87.8,304h5v6l-0.9,9.6h-3.2
			l-0.9-9.6V304z"/>
	</g>
	<g>
		<path class="st4" d="M-275.3,344.4h2.7V357h-2.6l-6.1-8.1v8.1h-2.7v-12.6h2.6l6.1,8.1V344.4z"/>
		<path class="st4" d="M-267.4,343.5c0.3,0.3,0.4,0.7,0.4,1.1c0,0.5-0.1,0.8-0.4,1.1c-0.3,0.3-0.6,0.4-1.1,0.4
			c-0.4,0-0.8-0.1-1.1-0.4c-0.3-0.3-0.4-0.7-0.4-1.1c0-0.5,0.1-0.8,0.4-1.1c0.3-0.3,0.6-0.4,1.1-0.4
			C-268.1,343-267.7,343.2-267.4,343.5z M-269.9,347.3h2.8v9.7h-2.8V347.3z"/>
		<path class="st4" d="M-260.1,349.6c-0.7,0-1.3,0.2-1.7,0.7c-0.4,0.5-0.7,1.1-0.7,1.9s0.2,1.4,0.6,1.9s1,0.7,1.7,0.7
			c1,0,1.8-0.4,2.3-1.1l1.9,1.3c-0.4,0.7-1,1.2-1.7,1.6s-1.6,0.6-2.6,0.6s-1.8-0.2-2.6-0.6c-0.8-0.4-1.3-1-1.7-1.7
			c-0.4-0.7-0.6-1.6-0.6-2.6s0.2-1.9,0.6-2.6s1-1.3,1.7-1.7c0.7-0.4,1.6-0.6,2.6-0.6c0.9,0,1.7,0.2,2.5,0.5c0.7,0.4,1.3,0.9,1.7,1.5
			l-1.9,1.4C-258.5,349.9-259.3,349.6-260.1,349.6z"/>
		<path class="st4" d="M-246.9,348.6c0.8,0.9,1.2,2.2,1.2,3.8c0,0.3,0,0.5,0,0.7h-7c0.2,0.6,0.5,1.1,0.9,1.4s1,0.5,1.6,0.5
			c0.5,0,0.9-0.1,1.3-0.3c0.4-0.2,0.8-0.4,1.1-0.8l1.5,1.5c-0.5,0.6-1.1,1-1.8,1.3s-1.5,0.4-2.3,0.4c-1,0-1.9-0.2-2.7-0.6
			s-1.4-1-1.8-1.7c-0.4-0.7-0.6-1.6-0.6-2.6s0.2-1.9,0.6-2.6s1-1.3,1.8-1.7c0.8-0.4,1.6-0.6,2.6-0.6
			C-248.9,347.2-247.7,347.7-246.9,348.6z M-248.3,351.4c0-0.6-0.2-1.1-0.6-1.5c-0.4-0.4-0.9-0.6-1.5-0.6s-1.1,0.2-1.5,0.6
			s-0.7,0.9-0.8,1.5H-248.3z"/>
		<path class="st4" d="M-233.7,356.5c-0.4,0.2-0.8,0.4-1.2,0.5s-0.9,0.2-1.3,0.2c-0.9,0-1.6-0.3-2.2-0.8c-0.6-0.5-0.8-1.3-0.8-2.2
			v-4.5h-1.4v-1.9h1.4v-2.7h2.8v2.7h2.6v1.9h-2.6v4c0,0.7,0.3,1.1,0.9,1.1c0.4,0,0.9-0.1,1.4-0.4L-233.7,356.5z"/>
		<path class="st4" d="M-227.9,347.7c0.5-0.3,1.2-0.5,1.9-0.5v2.6c-0.1,0-0.2,0-0.4,0c-0.9,0-1.5,0.2-2,0.7s-0.7,1.1-0.7,1.8v4.7
			h-2.8v-9.7h2.8v1.7C-228.9,348.5-228.4,348-227.9,347.7z"/>
		<path class="st4" d="M-222.9,360.6c-0.5,0-1-0.1-1.4-0.2s-0.8-0.4-1.2-0.7l1.2-2c0.4,0.3,0.8,0.5,1.3,0.5c0.6,0,1-0.3,1.3-0.9
			l0.3-0.5l-4-9.5h2.9l2.5,6.7l2.3-6.7h2.8l-4.2,10.8C-220,359.8-221.2,360.6-222.9,360.6z"/>
		<path class="st4" d="M-212.5,354.7c0.3,0.3,0.4,0.6,0.4,1s-0.1,0.8-0.4,1c-0.3,0.3-0.6,0.4-1,0.4s-0.7-0.1-1-0.4s-0.4-0.6-0.4-1
			s0.1-0.8,0.4-1c0.3-0.3,0.6-0.4,1-0.4C-213.1,354.3-212.8,354.5-212.5,354.7z"/>
		<path class="st4" d="M-205.8,344.4h3.2l3.9,7.7l3.9-7.7h3.1V357h-2.6v-8.5l-3.6,7.2h-1.8l-3.6-7.2v8.5h-2.6v-12.6H-205.8z"/>
		<path class="st4" d="M-183.3,357v-1.1c-0.3,0.4-0.7,0.7-1.3,0.9c-0.5,0.2-1.1,0.3-1.8,0.3c-1,0-1.8-0.3-2.4-0.8
			c-0.6-0.6-0.9-1.3-0.9-2.2s0.3-1.6,1-2.1c0.6-0.5,1.6-0.8,2.7-0.8h2.7V351c0-0.5-0.2-0.9-0.5-1.2c-0.3-0.3-0.8-0.4-1.5-0.4
			c-0.9,0-1.9,0.3-2.9,0.8l-0.9-1.9c0.8-0.4,1.5-0.7,2.2-0.8c0.7-0.2,1.4-0.3,2.2-0.3c1.3,0,2.3,0.3,3,0.9s1.1,1.5,1.1,2.6v6.3
			H-183.3z M-184.1,354.8c0.4-0.3,0.7-0.6,0.8-1v-0.9h-2.2c-0.5,0-0.9,0.1-1.2,0.3c-0.3,0.2-0.4,0.5-0.4,0.8c0,0.4,0.1,0.7,0.4,0.9
			c0.3,0.2,0.6,0.3,1.1,0.3C-185,355.2-184.5,355-184.1,354.8z"/>
		<path class="st4" d="M-171.7,357l-2.3-3.9l-1.2,1.3v2.6h-2.8v-13.3h2.8v7.3l3.5-3.7h3.1l-3.5,3.7l3.7,5.9h-3.3V357z"/>
		<path class="st4" d="M-159.8,348.6c0.8,0.9,1.2,2.2,1.2,3.8c0,0.3,0,0.5,0,0.7h-6.9c0.2,0.6,0.5,1.1,0.9,1.4s1,0.5,1.6,0.5
			c0.5,0,0.9-0.1,1.3-0.3c0.4-0.2,0.8-0.4,1.1-0.8l1.5,1.5c-0.5,0.6-1.1,1-1.8,1.3s-1.5,0.4-2.3,0.4c-1,0-1.9-0.2-2.7-0.6
			s-1.4-1-1.8-1.7c-0.4-0.7-0.6-1.6-0.6-2.6s0.2-1.9,0.6-2.6s1-1.3,1.8-1.7c0.8-0.4,1.6-0.6,2.6-0.6
			C-161.8,347.2-160.6,347.7-159.8,348.6z M-161.2,351.4c0-0.6-0.2-1.1-0.6-1.5s-0.9-0.6-1.5-0.6s-1.1,0.2-1.5,0.6s-0.7,0.9-0.8,1.5
			H-161.2z"/>
		<path class="st4" d="M-148,349.5c-0.5-0.2-1-0.2-1.4-0.2c-0.3,0-0.6,0.1-0.8,0.2s-0.3,0.3-0.3,0.5c0,0.3,0.1,0.5,0.4,0.6
			s0.7,0.3,1.3,0.5c0.7,0.2,1.2,0.4,1.7,0.6c0.4,0.2,0.8,0.5,1.2,0.9c0.3,0.4,0.5,0.9,0.5,1.5c0,1-0.4,1.7-1.1,2.2s-1.7,0.8-2.8,0.8
			c-0.8,0-1.6-0.1-2.3-0.4c-0.7-0.2-1.4-0.6-1.9-1l0.9-1.9c0.5,0.4,1,0.7,1.6,0.9c0.6,0.2,1.2,0.3,1.7,0.3c0.4,0,0.7-0.1,0.9-0.2
			s0.3-0.3,0.3-0.6c0-0.3-0.1-0.5-0.4-0.6c-0.3-0.2-0.7-0.3-1.4-0.5s-1.2-0.4-1.6-0.6c-0.4-0.2-0.8-0.5-1.1-0.9s-0.5-0.9-0.5-1.5
			c0-1,0.4-1.7,1.1-2.2s1.6-0.8,2.7-0.8c0.7,0,1.3,0.1,2,0.3c0.7,0.2,1.3,0.5,1.8,0.8l-1,1.9C-147,349.9-147.5,349.7-148,349.5z"/>
		<path class="st4" d="M-134.4,347.3v9.7h-2.8v-1.7c-0.7,1.2-1.7,1.8-3.2,1.8c-1.1,0-1.9-0.3-2.5-1s-0.9-1.6-0.9-2.7v-6.1h2.8v5.3
			c0,0.6,0.2,1.1,0.5,1.4s0.8,0.5,1.3,0.5c0.7,0,1.2-0.2,1.6-0.7s0.6-1,0.6-1.8v-4.8L-134.4,347.3L-134.4,347.3z"/>
		<path class="st4" d="M-127.6,347.7c0.5-0.3,1.2-0.5,1.9-0.5v2.6c-0.1,0-0.2,0-0.4,0c-0.9,0-1.5,0.2-2,0.7s-0.7,1.1-0.7,1.8v4.7
			h-2.9v-9.7h2.8v1.7C-128.6,348.5-128.2,348-127.6,347.7z"/>
		<path class="st4" d="M-116.5,348.6c0.8,0.9,1.2,2.2,1.2,3.8c0,0.3,0,0.5,0,0.7h-6.9c0.2,0.6,0.5,1.1,0.9,1.4s1,0.5,1.6,0.5
			c0.5,0,0.9-0.1,1.3-0.3c0.4-0.2,0.8-0.4,1.1-0.8l1.5,1.5c-0.5,0.6-1.1,1-1.8,1.3c-0.7,0.3-1.5,0.4-2.3,0.4c-1,0-1.9-0.2-2.7-0.6
			c-0.8-0.4-1.4-1-1.8-1.7s-0.6-1.6-0.6-2.6s0.2-1.9,0.6-2.6s1-1.3,1.8-1.7c0.8-0.4,1.6-0.6,2.6-0.6
			C-118.5,347.2-117.3,347.7-116.5,348.6z M-117.9,351.4c0-0.6-0.2-1.1-0.6-1.5s-0.9-0.6-1.5-0.6s-1.1,0.2-1.5,0.6s-0.7,0.9-0.8,1.5
			H-117.9z"/>
		<path class="st4" d="M-108.1,360.6c-0.5,0-1-0.1-1.4-0.2s-0.8-0.4-1.2-0.7l1.2-2c0.4,0.3,0.8,0.5,1.3,0.5c0.6,0,1-0.3,1.3-0.9
			l0.3-0.5l-4-9.5h2.9l2.5,6.7l2.3-6.7h2.8l-4.2,10.8C-105.2,359.8-106.4,360.6-108.1,360.6z"/>
		<path class="st4" d="M-92.4,347.9c0.8,0.4,1.4,1,1.8,1.7s0.6,1.6,0.6,2.6s-0.2,1.8-0.6,2.6c-0.4,0.8-1,1.3-1.8,1.7
			s-1.7,0.6-2.7,0.6s-1.9-0.2-2.7-0.6c-0.8-0.4-1.4-1-1.8-1.7c-0.4-0.8-0.6-1.6-0.6-2.6s0.2-1.8,0.6-2.6c0.4-0.7,1-1.3,1.8-1.7
			s1.7-0.6,2.7-0.6C-94.1,347.2-93.1,347.5-92.4,347.9z M-96.8,350.3c-0.5,0.5-0.7,1.1-0.7,1.9s0.2,1.4,0.7,1.9s1,0.7,1.8,0.7
			c0.7,0,1.3-0.2,1.7-0.7c0.5-0.5,0.7-1.1,0.7-1.9s-0.2-1.4-0.7-1.9c-0.4-0.5-1-0.7-1.7-0.7C-95.8,349.6-96.4,349.8-96.8,350.3z"/>
		<path class="st4" d="M-78.9,347.3v9.7h-2.8v-1.7c-0.7,1.2-1.7,1.8-3.2,1.8c-1.1,0-1.9-0.3-2.5-1s-0.9-1.6-0.9-2.7v-6.1h2.8v5.3
			c0,0.6,0.2,1.1,0.5,1.4s0.8,0.5,1.3,0.5c0.7,0,1.2-0.2,1.6-0.7s0.6-1,0.6-1.8v-4.8L-78.9,347.3L-78.9,347.3z"/>
		<path class="st4" d="M-67.9,347.7c0.5-0.3,1.2-0.5,1.9-0.5v2.6c-0.1,0-0.2,0-0.4,0c-0.9,0-1.5,0.2-2,0.7s-0.7,1.1-0.7,1.8v4.7
			h-2.8v-9.7h2.8v1.7C-68.9,348.5-68.4,348-67.9,347.7z"/>
		<path class="st4" d="M-56.8,348.6c0.8,0.9,1.2,2.2,1.2,3.8c0,0.3,0,0.5,0,0.7h-6.9c0.2,0.6,0.5,1.1,0.9,1.4s1,0.5,1.6,0.5
			c0.5,0,0.9-0.1,1.3-0.3c0.4-0.2,0.8-0.4,1.1-0.8l1.5,1.5c-0.5,0.6-1.1,1-1.8,1.3c-0.7,0.3-1.5,0.4-2.3,0.4c-1,0-1.9-0.2-2.7-0.6
			c-0.8-0.4-1.3-1-1.8-1.7c-0.4-0.7-0.6-1.6-0.6-2.6s0.2-1.9,0.6-2.6s1-1.3,1.8-1.7c0.8-0.4,1.6-0.6,2.6-0.6
			C-58.8,347.2-57.6,347.7-56.8,348.6z M-58.2,351.4c0-0.6-0.2-1.1-0.6-1.5c-0.4-0.4-0.9-0.6-1.5-0.6s-1.1,0.2-1.5,0.6
			s-0.7,0.9-0.8,1.5H-58.2z"/>
		<path class="st4" d="M-48.1,357v-1.1c-0.3,0.4-0.7,0.7-1.3,0.9c-0.6,0.2-1.1,0.3-1.8,0.3c-1,0-1.8-0.3-2.4-0.8
			c-0.6-0.6-0.9-1.3-0.9-2.2s0.3-1.6,1-2.1c0.6-0.5,1.6-0.8,2.7-0.8h2.7V351c0-0.5-0.2-0.9-0.5-1.2c-0.3-0.3-0.8-0.4-1.5-0.4
			c-0.9,0-1.9,0.3-2.9,0.8l-0.9-1.9c0.8-0.4,1.5-0.7,2.2-0.8c0.7-0.2,1.4-0.3,2.2-0.3c1.3,0,2.3,0.3,3,0.9c0.7,0.6,1.1,1.5,1.1,2.6
			v6.3H-48.1z M-48.9,354.8c0.4-0.3,0.7-0.6,0.8-1v-0.9h-2.2c-0.5,0-0.9,0.1-1.2,0.3c-0.3,0.2-0.4,0.5-0.4,0.8
			c0,0.4,0.1,0.7,0.4,0.9c0.3,0.2,0.6,0.3,1.1,0.3C-49.8,355.2-49.3,355-48.9,354.8z"/>
		<path class="st4" d="M-33.4,343.7V357h-2.8v-1.4c-0.3,0.5-0.8,0.9-1.3,1.1c-0.5,0.3-1.1,0.4-1.8,0.4c-0.9,0-1.7-0.2-2.4-0.6
			c-0.7-0.4-1.2-1-1.6-1.8c-0.4-0.8-0.6-1.6-0.6-2.6s0.2-1.8,0.6-2.6c0.4-0.7,0.9-1.3,1.6-1.7c0.7-0.4,1.5-0.6,2.4-0.6
			c1.4,0,2.4,0.5,3.1,1.5v-5.1h2.8V343.7z M-36.9,354.2c0.5-0.5,0.7-1.1,0.7-1.9s-0.2-1.4-0.7-1.9s-1-0.7-1.7-0.7
			c-0.7,0-1.3,0.2-1.8,0.7s-0.7,1.1-0.7,1.9s0.2,1.4,0.7,1.9c0.4,0.5,1,0.7,1.8,0.7C-37.9,354.9-37.3,354.6-36.9,354.2z"/>
		<path class="st4" d="M-291.1,378.1c-0.4,0.2-0.8,0.4-1.2,0.5c-0.4,0.1-0.9,0.2-1.3,0.2c-0.9,0-1.6-0.3-2.2-0.8s-0.8-1.3-0.8-2.2
			v-4.5h-1.4v-1.9h1.4v-2.7h2.8v2.7h2.6v1.9h-2.6v4c0,0.7,0.3,1.1,0.9,1.1c0.4,0,0.9-0.1,1.4-0.4L-291.1,378.1z"/>
		<path class="st4" d="M-280.6,369.8c0.6,0.7,1,1.6,1,2.7v6.1h-2.8v-5.3c0-0.6-0.2-1.1-0.5-1.4c-0.3-0.4-0.8-0.5-1.4-0.5
			c-0.7,0-1.2,0.2-1.6,0.7s-0.6,1.1-0.6,1.8v4.8h-2.8v-13.4h2.8v5.4c0.7-1.2,1.8-1.8,3.3-1.8C-282.1,368.8-281.3,369.2-280.6,369.8z
			"/>
		<path class="st4" d="M-273.2,369.3c0.5-0.3,1.2-0.5,1.9-0.5v2.6c-0.1,0-0.2,0-0.4,0c-0.9,0-1.5,0.2-2,0.7s-0.7,1.1-0.7,1.8v4.7
			h-2.8v-9.7h2.8v1.7C-274.2,370.1-273.7,369.6-273.2,369.3z"/>
		<path class="st4" d="M-262.7,369.5c0.8,0.4,1.4,1,1.8,1.7s0.6,1.6,0.6,2.6s-0.2,1.8-0.6,2.6c-0.4,0.8-1,1.3-1.8,1.7
			c-0.8,0.4-1.7,0.6-2.7,0.6s-1.9-0.2-2.7-0.6c-0.8-0.4-1.4-1-1.8-1.7c-0.4-0.8-0.6-1.6-0.6-2.6s0.2-1.8,0.6-2.6
			c0.4-0.7,1-1.3,1.8-1.7s1.7-0.6,2.7-0.6C-264.4,368.8-263.5,369.1-262.7,369.5z M-267.2,371.9c-0.5,0.5-0.7,1.1-0.7,1.9
			s0.2,1.4,0.7,1.9c0.4,0.5,1,0.7,1.8,0.7c0.7,0,1.3-0.2,1.7-0.7c0.5-0.5,0.7-1.1,0.7-1.9s-0.2-1.4-0.7-1.9c-0.4-0.5-1-0.7-1.7-0.7
			C-266.1,371.2-266.7,371.4-267.2,371.9z"/>
		<path class="st4" d="M-249.2,368.9v9.7h-2.8v-1.7c-0.7,1.2-1.7,1.8-3.2,1.8c-1.1,0-1.9-0.3-2.5-1s-0.9-1.6-0.9-2.7v-6.1h2.8v5.3
			c0,0.6,0.2,1.1,0.5,1.4s0.8,0.5,1.3,0.5c0.7,0,1.2-0.2,1.6-0.7c0.4-0.5,0.6-1,0.6-1.8v-4.8L-249.2,368.9L-249.2,368.9z"/>
		<path class="st4" d="M-237.4,368.9v8.8c0,0.9-0.2,1.7-0.6,2.4c-0.4,0.7-1,1.2-1.8,1.6s-1.7,0.5-2.7,0.5c-0.8,0-1.5-0.1-2.3-0.3
			c-0.8-0.2-1.4-0.5-2-0.9l1-1.9c0.9,0.6,1.9,1,3,1c0.8,0,1.4-0.2,1.9-0.6s0.7-0.9,0.7-1.6v-1.1c-0.3,0.5-0.7,0.8-1.2,1
			s-1.1,0.4-1.7,0.4c-0.8,0-1.6-0.2-2.2-0.6s-1.1-0.9-1.5-1.6s-0.5-1.5-0.5-2.4s0.2-1.7,0.5-2.4c0.4-0.7,0.9-1.2,1.5-1.6
			s1.4-0.6,2.2-0.6c0.6,0,1.2,0.1,1.7,0.4c0.5,0.2,0.9,0.6,1.2,1v-1.3h2.8L-237.4,368.9L-237.4,368.9z M-240.8,375.3
			c0.4-0.5,0.6-1.1,0.6-1.8s-0.2-1.3-0.6-1.8c-0.4-0.5-1-0.7-1.6-0.7s-1.2,0.2-1.6,0.7c-0.4,0.5-0.6,1.1-0.6,1.8s0.2,1.3,0.6,1.8
			s1,0.7,1.6,0.7S-241.3,375.8-240.8,375.3z"/>
		<path class="st4" d="M-226.1,369.8c0.6,0.7,1,1.6,1,2.7v6.1h-2.8v-5.3c0-0.6-0.2-1.1-0.5-1.4c-0.3-0.4-0.8-0.5-1.4-0.5
			c-0.7,0-1.2,0.2-1.6,0.7s-0.6,1.1-0.6,1.8v4.8h-2.8v-13.4h2.8v5.4c0.7-1.2,1.8-1.8,3.3-1.8C-227.6,368.8-226.7,369.2-226.1,369.8z
			"/>
		<path class="st4" d="M-212.6,378.1c-0.4,0.2-0.8,0.4-1.2,0.5s-0.9,0.2-1.3,0.2c-0.9,0-1.6-0.3-2.2-0.8c-0.6-0.5-0.8-1.3-0.8-2.2
			v-4.5h-1.4v-1.9h1.4v-2.7h2.8v2.7h2.6v1.9h-2.6v4c0,0.7,0.3,1.1,0.9,1.1c0.4,0,0.9-0.1,1.4-0.4L-212.6,378.1z"/>
		<path class="st4" d="M-202.1,369.8c0.6,0.7,1,1.6,1,2.7v6.1h-2.8v-5.3c0-0.6-0.2-1.1-0.5-1.4c-0.3-0.4-0.8-0.5-1.4-0.5
			c-0.7,0-1.2,0.2-1.6,0.7s-0.6,1.1-0.6,1.8v4.8h-2.8v-13.4h2.8v5.4c0.7-1.2,1.8-1.8,3.3-1.8C-203.6,368.8-202.7,369.2-202.1,369.8z
			"/>
		<path class="st4" d="M-191,370.2c0.8,0.9,1.2,2.2,1.2,3.8c0,0.3,0,0.5,0,0.7h-6.9c0.2,0.6,0.5,1.1,0.9,1.4s1,0.5,1.6,0.5
			c0.5,0,0.9-0.1,1.3-0.3c0.4-0.2,0.8-0.4,1.1-0.8l1.5,1.5c-0.5,0.6-1.1,1-1.8,1.3s-1.5,0.4-2.3,0.4c-1,0-1.9-0.2-2.7-0.6
			s-1.4-1-1.8-1.7c-0.4-0.7-0.6-1.6-0.6-2.6s0.2-1.9,0.6-2.6c0.4-0.7,1-1.3,1.8-1.7s1.6-0.6,2.6-0.6
			C-193,368.8-191.8,369.3-191,370.2z M-192.4,373c0-0.6-0.2-1.1-0.6-1.5s-0.9-0.6-1.5-0.6s-1.1,0.2-1.5,0.6s-0.7,0.9-0.8,1.5
			H-192.4z"/>
		<path class="st4" d="M-178.2,378.6v-1.1c-0.3,0.4-0.7,0.7-1.3,0.9c-0.5,0.2-1.1,0.3-1.8,0.3c-1,0-1.8-0.3-2.4-0.8
			c-0.6-0.6-0.9-1.3-0.9-2.2c0-0.9,0.3-1.6,1-2.1c0.6-0.5,1.6-0.8,2.7-0.8h2.7v-0.2c0-0.5-0.2-0.9-0.5-1.2c-0.3-0.3-0.8-0.4-1.5-0.4
			c-0.9,0-1.9,0.3-2.9,0.8l-0.9-1.9c0.8-0.4,1.5-0.7,2.2-0.8c0.7-0.2,1.4-0.3,2.2-0.3c1.3,0,2.3,0.3,3,0.9s1.1,1.5,1.1,2.6v6.3
			C-175.5,378.6-178.2,378.6-178.2,378.6z M-178.9,376.4c0.4-0.3,0.7-0.6,0.8-1v-0.9h-2.2c-0.5,0-0.9,0.1-1.2,0.3
			c-0.3,0.2-0.4,0.5-0.4,0.8c0,0.4,0.1,0.7,0.4,0.9s0.6,0.3,1.1,0.3C-179.8,376.8-179.4,376.6-178.9,376.4z"/>
		<path class="st4" d="M-164.3,369.8c0.6,0.7,1,1.6,1,2.7v6.1h-2.8v-5.3c0-0.6-0.2-1.1-0.5-1.4c-0.3-0.4-0.8-0.5-1.4-0.5
			c-0.7,0-1.2,0.2-1.6,0.7s-0.6,1.1-0.6,1.8v4.8h-2.8V369h2.8v1.7c0.7-1.2,1.8-1.8,3.3-1.8C-165.8,368.8-165,369.2-164.3,369.8z"/>
		<path class="st4" d="M-158.5,365.1c0.3,0.3,0.4,0.7,0.4,1.1c0,0.5-0.1,0.8-0.4,1.1c-0.3,0.3-0.6,0.4-1.1,0.4
			c-0.4,0-0.8-0.1-1.1-0.4s-0.4-0.7-0.4-1.1c0-0.5,0.1-0.8,0.4-1.1c0.3-0.3,0.6-0.4,1.1-0.4C-159.2,364.6-158.8,364.8-158.5,365.1z
			 M-161,368.9h2.8v9.7h-2.8V368.9z"/>
		<path class="st4" d="M-140.2,369.8c0.6,0.7,0.9,1.6,0.9,2.7v6.1h-2.8v-5.3c0-0.6-0.2-1.1-0.5-1.5c-0.3-0.3-0.8-0.5-1.4-0.5
			c-0.7,0-1.2,0.2-1.6,0.7s-0.6,1-0.6,1.8v4.8h-2.8v-5.3c0-0.6-0.2-1.1-0.5-1.4c-0.3-0.4-0.8-0.5-1.4-0.5c-0.7,0-1.2,0.2-1.6,0.7
			s-0.6,1-0.6,1.8v4.8h-2.8V369h2.8v1.7c0.7-1.2,1.8-1.8,3.3-1.8c0.8,0,1.5,0.2,2.1,0.6s1,0.9,1.2,1.6c0.3-0.7,0.8-1.3,1.4-1.7
			s1.3-0.6,2.1-0.6C-141.7,368.8-140.8,369.2-140.2,369.8z"/>
		<path class="st4" d="M-131.2,378.6v-1.1c-0.3,0.4-0.7,0.7-1.3,0.9c-0.5,0.2-1.1,0.3-1.8,0.3c-1,0-1.8-0.3-2.4-0.8
			s-0.9-1.3-0.9-2.2c0-0.9,0.3-1.6,1-2.1c0.6-0.5,1.6-0.8,2.7-0.8h2.7v-0.2c0-0.5-0.2-0.9-0.5-1.2c-0.3-0.3-0.8-0.4-1.5-0.4
			c-0.9,0-1.9,0.3-2.9,0.8l-0.9-1.9c0.8-0.4,1.5-0.7,2.2-0.8c0.7-0.2,1.4-0.3,2.2-0.3c1.3,0,2.3,0.3,3,0.9s1.1,1.5,1.1,2.6v6.3
			C-128.5,378.6-131.2,378.6-131.2,378.6z M-132,376.4c0.4-0.3,0.7-0.6,0.8-1v-0.9h-2.2c-0.5,0-0.9,0.1-1.2,0.3
			c-0.3,0.2-0.4,0.5-0.4,0.8c0,0.4,0.1,0.7,0.4,0.9s0.6,0.3,1.1,0.3C-132.9,376.8-132.4,376.6-132,376.4z"/>
		<path class="st4" d="M-126,365.3h2.8v13.4h-2.8V365.3z"/>
		<path class="st4" d="M-112.7,367.7c-0.2,0.2-0.3,0.5-0.3,0.8v0.8h2.3v1.9h-2.3v7.3h-2.8v-7.3h-1.3v-1.9h1.3v-0.9
			c0-0.7,0.2-1.3,0.5-1.8s0.7-0.9,1.3-1.1c0.5-0.3,1.1-0.4,1.8-0.4c0.6,0,1.3,0.1,1.9,0.4l-0.4,2.2c-0.2-0.1-0.4-0.1-0.6-0.2
			s-0.4-0.1-0.6-0.1C-112.2,367.4-112.5,367.5-112.7,367.7z"/>
		<path class="st4" d="M-104.3,378.6v-1.1c-0.3,0.4-0.7,0.7-1.3,0.9c-0.5,0.2-1.1,0.3-1.8,0.3c-1,0-1.8-0.3-2.4-0.8
			s-0.9-1.3-0.9-2.2c0-0.9,0.3-1.6,1-2.1c0.6-0.5,1.6-0.8,2.7-0.8h2.7v-0.2c0-0.5-0.2-0.9-0.5-1.2c-0.3-0.3-0.8-0.4-1.5-0.4
			c-0.9,0-1.9,0.3-2.9,0.8l-0.9-1.9c0.8-0.4,1.5-0.7,2.2-0.8c0.7-0.2,1.4-0.3,2.2-0.3c1.3,0,2.3,0.3,3,0.9s1.1,1.5,1.1,2.6v6.3
			C-101.6,378.6-104.3,378.6-104.3,378.6z M-105.1,376.4c0.4-0.3,0.7-0.6,0.8-1v-0.9h-2.2c-0.5,0-0.9,0.1-1.2,0.3
			c-0.3,0.2-0.4,0.5-0.4,0.8c0,0.4,0.1,0.7,0.4,0.9s0.6,0.3,1.1,0.3C-106,376.8-105.5,376.6-105.1,376.4z"/>
		<path class="st4" d="M-94.9,371.2c-0.7,0-1.3,0.2-1.7,0.7c-0.4,0.5-0.7,1.1-0.7,1.9s0.2,1.4,0.6,1.9s1,0.7,1.7,0.7
			c1,0,1.8-0.4,2.3-1.1l1.9,1.3c-0.4,0.7-1,1.2-1.7,1.6s-1.6,0.6-2.6,0.6s-1.8-0.2-2.6-0.6c-0.8-0.4-1.3-1-1.7-1.7
			c-0.4-0.7-0.6-1.6-0.6-2.6s0.2-1.9,0.6-2.6s1-1.3,1.7-1.7s1.6-0.6,2.6-0.6c0.9,0,1.7,0.2,2.5,0.5c0.7,0.4,1.3,0.9,1.7,1.5
			l-1.9,1.4C-93.3,371.5-94,371.2-94.9,371.2z"/>
		<path class="st4" d="M-83.1,378.1c-0.4,0.2-0.8,0.4-1.2,0.5c-0.4,0.1-0.9,0.2-1.3,0.2c-0.9,0-1.6-0.3-2.2-0.8s-0.8-1.3-0.8-2.2
			v-4.5h-1.3v-1.9h1.3v-2.7h2.8v2.7h2.6v1.9h-2.6v4c0,0.7,0.3,1.1,0.9,1.1c0.4,0,0.9-0.1,1.4-0.4L-83.1,378.1z"/>
		<path class="st4" d="M-76.9,371.1c-0.5-0.2-1-0.2-1.4-0.2c-0.3,0-0.6,0.1-0.8,0.2c-0.2,0.1-0.3,0.3-0.3,0.5c0,0.3,0.1,0.5,0.4,0.6
			s0.7,0.3,1.3,0.5c0.7,0.2,1.2,0.4,1.7,0.6c0.4,0.2,0.8,0.5,1.2,0.9c0.3,0.4,0.5,0.9,0.5,1.5c0,1-0.4,1.7-1.1,2.2s-1.7,0.8-2.8,0.8
			c-0.8,0-1.6-0.1-2.3-0.4c-0.7-0.2-1.4-0.6-1.9-1l0.9-1.9c0.5,0.4,1,0.7,1.6,0.9s1.2,0.3,1.7,0.3c0.4,0,0.7-0.1,0.9-0.2
			s0.3-0.3,0.3-0.6c0-0.3-0.1-0.5-0.4-0.6c-0.3-0.2-0.7-0.3-1.4-0.5c-0.7-0.2-1.2-0.4-1.6-0.6s-0.8-0.5-1.1-0.9
			c-0.3-0.4-0.5-0.9-0.5-1.5c0-1,0.4-1.7,1.1-2.2s1.6-0.8,2.7-0.8c0.7,0,1.3,0.1,2,0.3s1.3,0.5,1.8,0.8l-1,1.9
			C-75.8,371.5-76.3,371.3-76.9,371.1z"/>
		<path class="st4" d="M-62.6,378.6v-1.1c-0.3,0.4-0.7,0.7-1.3,0.9c-0.6,0.2-1.1,0.3-1.8,0.3c-1,0-1.8-0.3-2.4-0.8
			c-0.6-0.6-0.9-1.3-0.9-2.2c0-0.9,0.3-1.6,1-2.1c0.6-0.5,1.6-0.8,2.7-0.8h2.7v-0.2c0-0.5-0.2-0.9-0.5-1.2c-0.3-0.3-0.8-0.4-1.5-0.4
			c-0.9,0-1.9,0.3-2.9,0.8l-0.9-1.9c0.8-0.4,1.5-0.7,2.2-0.8c0.7-0.2,1.4-0.3,2.2-0.3c1.3,0,2.3,0.3,3,0.9c0.7,0.6,1.1,1.5,1.1,2.6
			v6.3C-59.9,378.6-62.6,378.6-62.6,378.6z M-63.4,376.4c0.4-0.3,0.7-0.6,0.8-1v-0.9h-2.2c-0.5,0-0.9,0.1-1.2,0.3
			c-0.3,0.2-0.4,0.5-0.4,0.8c0,0.4,0.1,0.7,0.4,0.9s0.6,0.3,1.1,0.3C-64.3,376.8-63.8,376.6-63.4,376.4z"/>
		<path class="st4" d="M-48.4,368.9v8.8c0,0.9-0.2,1.7-0.6,2.4c-0.4,0.7-1,1.2-1.8,1.6c-0.8,0.4-1.7,0.5-2.7,0.5
			c-0.8,0-1.5-0.1-2.3-0.3c-0.8-0.2-1.4-0.5-2-0.9l1-1.9c0.9,0.6,1.9,1,3,1c0.8,0,1.4-0.2,1.9-0.6s0.7-0.9,0.7-1.6v-1.1
			c-0.3,0.5-0.7,0.8-1.2,1s-1.1,0.4-1.7,0.4c-0.8,0-1.6-0.2-2.2-0.6c-0.6-0.4-1.1-0.9-1.5-1.6s-0.5-1.5-0.5-2.4s0.2-1.7,0.5-2.4
			c0.4-0.7,0.9-1.2,1.5-1.6s1.4-0.6,2.2-0.6c0.6,0,1.2,0.1,1.7,0.4c0.5,0.2,0.9,0.6,1.2,1v-1.3h2.8
			C-48.4,369.1-48.4,368.9-48.4,368.9z M-51.8,375.3c0.4-0.5,0.6-1.1,0.6-1.8s-0.2-1.3-0.6-1.8c-0.4-0.5-1-0.7-1.6-0.7
			s-1.2,0.2-1.6,0.7c-0.4,0.5-0.6,1.1-0.6,1.8s0.2,1.3,0.6,1.8c0.4,0.5,1,0.7,1.6,0.7C-52.7,376-52.2,375.8-51.8,375.3z"/>
		<path class="st4" d="M-40.2,378.6v-1.1c-0.3,0.4-0.7,0.7-1.3,0.9c-0.6,0.2-1.1,0.3-1.8,0.3c-1,0-1.8-0.3-2.4-0.8
			c-0.6-0.6-0.9-1.3-0.9-2.2c0-0.9,0.3-1.6,1-2.1c0.6-0.5,1.6-0.8,2.7-0.8h2.7v-0.2c0-0.5-0.2-0.9-0.5-1.2c-0.3-0.3-0.8-0.4-1.5-0.4
			c-0.9,0-1.9,0.3-2.9,0.8l-0.9-1.9c0.8-0.4,1.5-0.7,2.2-0.8c0.7-0.2,1.4-0.3,2.2-0.3c1.3,0,2.3,0.3,3,0.9c0.7,0.6,1.1,1.5,1.1,2.6
			v6.3C-37.5,378.6-40.2,378.6-40.2,378.6z M-41,376.4c0.4-0.3,0.7-0.6,0.8-1v-0.9h-2.2c-0.5,0-0.9,0.1-1.2,0.3
			c-0.3,0.2-0.4,0.5-0.4,0.8c0,0.4,0.1,0.7,0.4,0.9s0.6,0.3,1.1,0.3C-41.9,376.8-41.4,376.6-41,376.4z"/>
		<path class="st4" d="M-32.7,365.1c0.3,0.3,0.4,0.7,0.4,1.1c0,0.5-0.1,0.8-0.4,1.1c-0.3,0.3-0.6,0.4-1.1,0.4
			c-0.4,0-0.8-0.1-1.1-0.4c-0.3-0.3-0.4-0.7-0.4-1.1c0-0.5,0.1-0.8,0.4-1.1c0.3-0.3,0.6-0.4,1.1-0.4
			C-33.3,364.6-33,364.8-32.7,365.1z M-35.1,368.9h2.8v9.7h-2.8V368.9z"/>
		<path class="st4" d="M-21,369.8c0.6,0.7,1,1.6,1,2.7v6.1h-2.8v-5.3c0-0.6-0.2-1.1-0.5-1.4c-0.3-0.4-0.8-0.5-1.4-0.5
			c-0.7,0-1.2,0.2-1.6,0.7s-0.6,1.1-0.6,1.8v4.8h-2.8V369h2.8v1.7c0.7-1.2,1.8-1.8,3.3-1.8C-22.5,368.8-21.6,369.2-21,369.8z"/>
		<path class="st4" d="M-258.7,391.1c0.7,0.4,1.2,1,1.6,1.8s0.6,1.6,0.6,2.6s-0.2,1.8-0.6,2.6c-0.4,0.7-0.9,1.3-1.6,1.7
			s-1.5,0.6-2.4,0.6c-0.7,0-1.3-0.1-1.8-0.4s-1-0.6-1.3-1.1v1.4h-2.8v-13.4h2.8v5.1c0.3-0.5,0.8-0.9,1.3-1.1s1.1-0.4,1.8-0.4
			C-260.2,390.4-259.4,390.7-258.7,391.1z M-260,397.3c0.4-0.5,0.7-1.1,0.7-1.9s-0.2-1.4-0.7-1.9s-1-0.7-1.7-0.7s-1.3,0.2-1.7,0.7
			c-0.5,0.5-0.7,1.1-0.7,1.9s0.2,1.5,0.7,1.9c0.4,0.5,1,0.7,1.7,0.7S-260.4,397.8-260,397.3z"/>
		<path class="st4" d="M-247,391.8c0.8,0.9,1.2,2.2,1.2,3.8c0,0.3,0,0.5,0,0.7h-6.9c0.2,0.6,0.5,1.1,0.9,1.4s1,0.5,1.6,0.5
			c0.5,0,0.9-0.1,1.3-0.3c0.4-0.2,0.8-0.4,1.1-0.8l1.5,1.5c-0.5,0.6-1.1,1-1.8,1.3s-1.5,0.4-2.3,0.4c-1,0-1.9-0.2-2.7-0.6
			s-1.4-1-1.8-1.7c-0.4-0.7-0.6-1.6-0.6-2.6s0.2-1.9,0.6-2.6s1-1.3,1.8-1.7s1.6-0.6,2.6-0.6C-249,390.4-247.8,390.9-247,391.8z
			 M-248.4,394.6c0-0.6-0.2-1.1-0.6-1.5c-0.4-0.4-0.9-0.6-1.5-0.6s-1.1,0.2-1.5,0.6s-0.7,0.9-0.8,1.5H-248.4z"/>
		<path class="st4" d="M-240.5,389.3c-0.2,0.2-0.3,0.5-0.3,0.8v0.8h2.3v1.9h-2.3v7.3h-2.8v-7.3h-1.3V391h1.3v-0.9
			c0-0.7,0.2-1.3,0.5-1.8s0.7-0.9,1.3-1.1s1.1-0.4,1.8-0.4c0.6,0,1.3,0.1,1.9,0.4l-0.4,2.2c-0.2-0.1-0.4-0.1-0.6-0.2
			c-0.2-0.1-0.4-0.1-0.6-0.1C-240,389-240.2,389.1-240.5,389.3z"/>
		<path class="st4" d="M-230.3,391.1c0.8,0.4,1.4,1,1.8,1.7c0.4,0.7,0.6,1.6,0.6,2.6s-0.2,1.8-0.6,2.6c-0.4,0.8-1,1.3-1.8,1.7
			s-1.7,0.6-2.7,0.6s-1.9-0.2-2.7-0.6s-1.4-1-1.8-1.7c-0.4-0.8-0.6-1.6-0.6-2.6s0.2-1.8,0.6-2.6c0.4-0.7,1-1.3,1.8-1.7
			s1.7-0.6,2.7-0.6C-232,390.4-231.1,390.7-230.3,391.1z M-234.8,393.5c-0.5,0.5-0.7,1.1-0.7,1.9s0.2,1.4,0.7,1.9
			c0.4,0.5,1,0.7,1.8,0.7c0.7,0,1.3-0.2,1.7-0.7c0.5-0.5,0.7-1.1,0.7-1.9s-0.2-1.4-0.7-1.9c-0.4-0.5-1-0.7-1.7-0.7
			S-234.3,393-234.8,393.5z"/>
		<path class="st4" d="M-221.9,390.9c0.5-0.3,1.2-0.5,1.9-0.5v2.6c-0.1,0-0.2,0-0.4,0c-0.9,0-1.5,0.2-2,0.7s-0.7,1.1-0.7,1.8v4.7
			h-2.8v-9.7h2.8v1.7C-222.9,391.7-222.5,391.2-221.9,390.9z"/>
		<path class="st4" d="M-210.8,391.8c0.8,0.9,1.2,2.2,1.2,3.8c0,0.3,0,0.5,0,0.7h-6.9c0.2,0.6,0.5,1.1,0.9,1.4s1,0.5,1.6,0.5
			c0.5,0,0.9-0.1,1.3-0.3c0.4-0.2,0.8-0.4,1.1-0.8l1.5,1.5c-0.5,0.6-1.1,1-1.8,1.3s-1.5,0.4-2.3,0.4c-1,0-1.9-0.2-2.7-0.6
			s-1.4-1-1.8-1.7c-0.4-0.7-0.6-1.6-0.6-2.6s0.2-1.9,0.6-2.6s1-1.3,1.8-1.7s1.6-0.6,2.6-0.6C-212.8,390.4-211.6,390.9-210.8,391.8z
			 M-212.2,394.6c0-0.6-0.2-1.1-0.6-1.5c-0.4-0.4-0.9-0.6-1.5-0.6s-1.1,0.2-1.5,0.6s-0.7,0.9-0.8,1.5H-212.2z"/>
		<path class="st4" d="M-199.5,390.9c0.5-0.3,1.2-0.5,1.9-0.5v2.6c-0.1,0-0.2,0-0.4,0c-0.9,0-1.5,0.2-2,0.7s-0.7,1.1-0.7,1.8v4.7
			h-2.8v-9.7h2.8v1.7C-200.4,391.7-200,391.2-199.5,390.9z"/>
		<path class="st4" d="M-188.4,391.8c0.8,0.9,1.2,2.2,1.2,3.8c0,0.3,0,0.5,0,0.7h-6.9c0.2,0.6,0.5,1.1,0.9,1.4s1,0.5,1.6,0.5
			c0.5,0,0.9-0.1,1.3-0.3s0.8-0.4,1.1-0.8l1.5,1.5c-0.5,0.6-1.1,1-1.8,1.3s-1.5,0.4-2.3,0.4c-1,0-1.9-0.2-2.7-0.6s-1.4-1-1.8-1.7
			c-0.4-0.7-0.6-1.6-0.6-2.6s0.2-1.9,0.6-2.6s1-1.3,1.8-1.7s1.6-0.6,2.6-0.6C-190.3,390.4-189.2,390.9-188.4,391.8z M-189.7,394.6
			c0-0.6-0.2-1.1-0.6-1.5s-0.9-0.6-1.5-0.6s-1.1,0.2-1.5,0.6s-0.7,0.9-0.8,1.5H-189.7z"/>
		<path class="st4" d="M-179.3,399.7c-0.4,0.2-0.8,0.4-1.2,0.5s-0.9,0.2-1.3,0.2c-0.9,0-1.6-0.3-2.2-0.8s-0.8-1.3-0.8-2.2v-4.5h-1.4
			V391h1.4v-2.7h2.8v2.7h2.6v1.9h-2.6v4c0,0.7,0.3,1.1,0.9,1.1c0.4,0,0.9-0.1,1.4-0.4L-179.3,399.7z"/>
		<path class="st4" d="M-173.6,390.9c0.5-0.3,1.2-0.5,1.9-0.5v2.6c-0.1,0-0.2,0-0.4,0c-0.9,0-1.5,0.2-2,0.7s-0.7,1.1-0.7,1.8v4.7
			h-2.9v-9.7h2.8v1.7C-174.5,391.7-174.1,391.2-173.6,390.9z"/>
		<path class="st4" d="M-168.6,403.8c-0.5,0-1-0.1-1.4-0.2s-0.8-0.4-1.2-0.7l1.2-2c0.4,0.3,0.8,0.5,1.3,0.5c0.6,0,1-0.3,1.3-0.9
			l0.3-0.5l-4-9.5h2.9l2.5,6.7l2.3-6.7h2.8l-4.2,10.8C-165.7,403-166.9,403.8-168.6,403.8z"/>
		<path class="st4" d="M-157.1,386.7c0.3,0.3,0.4,0.7,0.4,1.1c0,0.5-0.1,0.8-0.4,1.1c-0.3,0.3-0.6,0.4-1.1,0.4
			c-0.4,0-0.8-0.1-1.1-0.4s-0.4-0.7-0.4-1.1c0-0.5,0.1-0.8,0.4-1.1c0.3-0.3,0.6-0.4,1.1-0.4C-157.8,386.2-157.4,386.4-157.1,386.7z
			 M-159.6,390.5h2.8v9.7h-2.8V390.5z"/>
		<path class="st4" d="M-145.4,391.4c0.6,0.7,1,1.6,1,2.7v6.1h-2.8v-5.3c0-0.6-0.2-1.1-0.5-1.4c-0.3-0.4-0.8-0.5-1.4-0.5
			c-0.7,0-1.2,0.2-1.6,0.7s-0.6,1.1-0.6,1.8v4.8h-2.8v-9.7h2.8v1.7c0.7-1.2,1.8-1.8,3.3-1.8C-146.9,390.4-146.1,390.8-145.4,391.4z"
			/>
		<path class="st4" d="M-133,390.5v8.8c0,0.9-0.2,1.7-0.6,2.4c-0.4,0.7-1,1.2-1.8,1.6s-1.7,0.5-2.7,0.5c-0.8,0-1.5-0.1-2.3-0.3
			s-1.4-0.5-2-0.9l1-1.9c0.9,0.6,1.9,1,3,1c0.8,0,1.4-0.2,1.9-0.6s0.7-0.9,0.7-1.6v-1.1c-0.3,0.5-0.7,0.8-1.2,1s-1.1,0.4-1.7,0.4
			c-0.8,0-1.6-0.2-2.2-0.6s-1.1-0.9-1.5-1.6s-0.5-1.5-0.5-2.4s0.2-1.7,0.5-2.4s0.9-1.2,1.5-1.6s1.4-0.6,2.2-0.6
			c0.6,0,1.2,0.1,1.7,0.4c0.5,0.2,0.9,0.6,1.2,1v-1.3h2.8L-133,390.5L-133,390.5z M-136.4,396.9c0.4-0.5,0.6-1.1,0.6-1.8
			c0-0.7-0.2-1.3-0.6-1.8s-1-0.7-1.6-0.7s-1.2,0.2-1.6,0.7s-0.6,1.1-0.6,1.8c0,0.7,0.2,1.3,0.6,1.8s1,0.7,1.6,0.7
			S-136.8,397.4-136.4,396.9z"/>
		<path class="st4" d="M-120.3,399.7c-0.4,0.2-0.8,0.4-1.2,0.5c-0.4,0.1-0.9,0.2-1.3,0.2c-0.9,0-1.6-0.3-2.2-0.8s-0.8-1.3-0.8-2.2
			v-4.5h-1.3V391h1.3v-2.7h2.8v2.7h2.6v1.9h-2.6v4c0,0.7,0.3,1.1,0.9,1.1c0.4,0,0.9-0.1,1.3-0.4L-120.3,399.7z"/>
		<path class="st4" d="M-109.8,391.4c0.6,0.7,1,1.6,1,2.7v6.1h-2.8v-5.3c0-0.6-0.2-1.1-0.5-1.4c-0.3-0.4-0.8-0.5-1.4-0.5
			c-0.7,0-1.2,0.2-1.6,0.7s-0.6,1.1-0.6,1.8v4.8h-2.8v-13.4h2.8v5.4c0.7-1.2,1.8-1.8,3.3-1.8C-111.3,390.4-110.4,390.8-109.8,391.4z
			"/>
		<path class="st4" d="M-98.7,391.8c0.8,0.9,1.2,2.2,1.2,3.8c0,0.3,0,0.5,0,0.7h-6.9c0.2,0.6,0.5,1.1,0.9,1.4s1,0.5,1.6,0.5
			c0.5,0,0.9-0.1,1.3-0.3s0.8-0.4,1.1-0.8l1.5,1.5c-0.5,0.6-1.1,1-1.8,1.3c-0.7,0.3-1.5,0.4-2.3,0.4c-1,0-1.9-0.2-2.7-0.6
			s-1.3-1-1.8-1.7c-0.4-0.7-0.6-1.6-0.6-2.6s0.2-1.9,0.6-2.6s1-1.3,1.8-1.7s1.6-0.6,2.6-0.6C-100.7,390.4-99.5,390.9-98.7,391.8z
			 M-100.1,394.6c0-0.6-0.2-1.1-0.6-1.5s-0.9-0.6-1.5-0.6s-1.1,0.2-1.5,0.6s-0.7,0.9-0.8,1.5H-100.1z"/>
		<path class="st4" d="M-81.9,390.5v13.2h-2.8v-4.9c-0.3,0.5-0.8,0.9-1.3,1.1c-0.5,0.3-1.1,0.4-1.8,0.4c-0.9,0-1.7-0.2-2.4-0.6
			c-0.7-0.4-1.2-1-1.6-1.8s-0.6-1.6-0.6-2.6s0.2-1.8,0.6-2.6c0.4-0.7,0.9-1.3,1.6-1.7c0.7-0.4,1.5-0.6,2.4-0.6
			c1.4,0,2.4,0.5,3.1,1.5v-1.4H-81.9L-81.9,390.5z M-85.4,397.4c0.5-0.5,0.7-1.1,0.7-1.9s-0.2-1.4-0.7-1.9c-0.4-0.5-1-0.7-1.7-0.7
			s-1.3,0.2-1.8,0.7c-0.4,0.5-0.7,1.1-0.7,1.9s0.2,1.4,0.7,1.9s1,0.7,1.8,0.7C-86.4,398.1-85.8,397.8-85.4,397.4z"/>
		<path class="st4" d="M-70,390.5v9.7h-2.7v-1.7c-0.7,1.2-1.7,1.8-3.2,1.8c-1.1,0-1.9-0.3-2.5-1s-0.9-1.6-0.9-2.7v-6.1h2.8v5.3
			c0,0.6,0.2,1.1,0.5,1.4s0.8,0.5,1.3,0.5c0.7,0,1.2-0.2,1.6-0.7s0.6-1,0.6-1.8v-4.8h2.5C-70,390.4-70,390.5-70,390.5z"/>
		<path class="st4" d="M-64.8,386.7c0.3,0.3,0.4,0.7,0.4,1.1c0,0.5-0.1,0.8-0.4,1.1c-0.3,0.3-0.6,0.4-1.1,0.4
			c-0.4,0-0.8-0.1-1.1-0.4s-0.4-0.7-0.4-1.1c0-0.5,0.1-0.8,0.4-1.1c0.3-0.3,0.6-0.4,1.1-0.4C-65.5,386.2-65.1,386.4-64.8,386.7z
			 M-67.3,390.5h2.8v9.7h-2.8V390.5z"/>
		<path class="st4" d="M-62.3,390.6h8.3v1.7l-5,5.7h5.1v2.2h-8.6v-1.7l5-5.7h-4.8C-62.3,392.8-62.3,390.6-62.3,390.6z"/>
		<path class="st4" d="M-50.2,397.9c0.3,0.3,0.4,0.6,0.4,1s-0.1,0.8-0.4,1c-0.3,0.3-0.6,0.4-1,0.4s-0.7-0.1-1-0.4
			c-0.3-0.3-0.4-0.6-0.4-1s0.1-0.8,0.4-1s0.6-0.4,1-0.4S-50.5,397.7-50.2,397.9z"/>
	</g>
</g>
<g class="st8">
	<path class="st9" d="M-272,426.8h9.1v1.9h-3.5v9.3h-2.2v-9.3h-3.5V426.8z"/>
	<path class="st9" d="M-254.7,430.2c0.6,0.6,0.8,1.4,0.8,2.4v5.3h-2.1v-4.7c0-0.6-0.2-1.1-0.5-1.4c-0.3-0.3-0.8-0.5-1.4-0.5
		c-0.7,0-1.2,0.2-1.6,0.7s-0.6,1-0.6,1.8v4.2h-2.1v-11.9h2.1v4.9c0.6-1.1,1.6-1.7,3.1-1.7C-256,429.4-255.3,429.7-254.7,430.2z"/>
	<path class="st9" d="M-249.6,426.1c0.2,0.2,0.3,0.5,0.3,0.9c0,0.4-0.1,0.6-0.3,0.9c-0.2,0.2-0.5,0.4-0.8,0.4s-0.6-0.1-0.8-0.4
		c-0.2-0.2-0.3-0.5-0.3-0.9c0-0.4,0.1-0.7,0.3-0.9c0.2-0.2,0.5-0.4,0.8-0.4S-249.9,425.9-249.6,426.1z M-251.5,429.4h2.1v8.6h-2.1
		V429.4z"/>
	<path class="st9" d="M-243.1,431.2c-0.4-0.1-0.9-0.2-1.2-0.2c-0.4,0-0.6,0.1-0.8,0.2s-0.3,0.3-0.3,0.6c0,0.3,0.1,0.5,0.4,0.6
		c0.3,0.1,0.7,0.3,1.2,0.5c0.6,0.2,1.1,0.4,1.5,0.5c0.4,0.2,0.7,0.4,1,0.8c0.3,0.3,0.4,0.8,0.4,1.4c0,0.8-0.3,1.5-1,1.9
		s-1.4,0.7-2.4,0.7c-0.7,0-1.3-0.1-1.9-0.3s-1.2-0.5-1.6-0.9l0.7-1.5c0.4,0.3,0.8,0.6,1.4,0.8c0.5,0.2,1,0.3,1.5,0.3
		c0.4,0,0.7-0.1,0.9-0.2c0.2-0.1,0.3-0.3,0.3-0.6c0-0.3-0.1-0.5-0.4-0.7s-0.7-0.3-1.3-0.5c-0.6-0.2-1-0.3-1.4-0.5
		c-0.4-0.2-0.7-0.4-0.9-0.8s-0.4-0.8-0.4-1.3c0-0.8,0.3-1.5,0.9-1.9c0.6-0.4,1.4-0.7,2.3-0.7c0.6,0,1.1,0.1,1.7,0.2s1,0.4,1.5,0.7
		l-0.8,1.5C-242.2,431.5-242.6,431.3-243.1,431.2z"/>
	<path class="st9" d="M-233.4,426.1c0.2,0.2,0.3,0.5,0.3,0.9c0,0.4-0.1,0.6-0.3,0.9c-0.2,0.2-0.5,0.4-0.8,0.4s-0.6-0.1-0.8-0.4
		c-0.2-0.2-0.3-0.5-0.3-0.9c0-0.4,0.1-0.7,0.3-0.9c0.2-0.2,0.5-0.4,0.8-0.4S-233.6,425.9-233.4,426.1z M-235.2,429.4h2.1v8.6h-2.1
		V429.4z"/>
	<path class="st9" d="M-226.8,431.2c-0.4-0.1-0.9-0.2-1.2-0.2c-0.4,0-0.6,0.1-0.8,0.2s-0.3,0.3-0.3,0.6c0,0.3,0.1,0.5,0.4,0.6
		c0.3,0.1,0.7,0.3,1.2,0.5c0.6,0.2,1.1,0.4,1.5,0.5c0.4,0.2,0.7,0.4,1,0.8c0.3,0.3,0.4,0.8,0.4,1.4c0,0.8-0.3,1.5-1,1.9
		s-1.4,0.7-2.4,0.7c-0.7,0-1.3-0.1-1.9-0.3s-1.2-0.5-1.6-0.9l0.7-1.5c0.4,0.3,0.8,0.6,1.4,0.8c0.5,0.2,1,0.3,1.5,0.3
		c0.4,0,0.7-0.1,0.9-0.2c0.2-0.1,0.3-0.3,0.3-0.6c0-0.3-0.1-0.5-0.4-0.7s-0.7-0.3-1.3-0.5c-0.6-0.2-1-0.3-1.4-0.5
		c-0.4-0.2-0.7-0.4-0.9-0.8s-0.4-0.8-0.4-1.3c0-0.8,0.3-1.5,0.9-1.9c0.6-0.4,1.4-0.7,2.3-0.7c0.6,0,1.1,0.1,1.7,0.2s1,0.4,1.5,0.7
		l-0.8,1.5C-225.9,431.5-226.3,431.3-226.8,431.2z"/>
	<path class="st9" d="M-213.9,437.5c-0.7,0.4-1.4,0.6-2.1,0.6c-0.7,0-1.3-0.2-1.8-0.6c-0.5-0.4-0.7-1.1-0.7-1.9v-4.2h-1.2l0-1.5h1.2
		v-2.4h2.1v2.4h2.4v1.5h-2.4v3.9c0,0.4,0.1,0.7,0.2,0.8c0.1,0.2,0.4,0.2,0.7,0.2c0.3,0,0.7-0.1,1.2-0.4L-213.9,437.5z"/>
	<path class="st9" d="M-204.7,430.2c0.6,0.6,0.8,1.4,0.8,2.4v5.3h-2.1v-4.7c0-0.6-0.2-1.1-0.5-1.4c-0.3-0.3-0.8-0.5-1.4-0.5
		c-0.7,0-1.2,0.2-1.6,0.7s-0.6,1-0.6,1.8v4.2h-2.1v-11.9h2.1v4.9c0.6-1.1,1.6-1.7,3.1-1.7C-206.1,429.4-205.3,429.7-204.7,430.2z"/>
	<path class="st9" d="M-194.9,430.5c0.7,0.8,1,1.9,1,3.3c0,0.3,0,0.5,0,0.6h-6.3c0.1,0.6,0.4,1.1,0.9,1.4s1,0.5,1.6,0.5
		c0.4,0,0.9-0.1,1.3-0.2c0.4-0.2,0.7-0.4,1-0.7l1.1,1.2c-0.4,0.5-0.9,0.8-1.6,1.1c-0.6,0.3-1.3,0.4-2,0.4c-0.9,0-1.6-0.2-2.3-0.5
		c-0.7-0.4-1.2-0.9-1.5-1.5c-0.4-0.7-0.5-1.4-0.5-2.3s0.2-1.6,0.6-2.3c0.4-0.7,0.9-1.2,1.5-1.5c0.7-0.4,1.4-0.6,2.3-0.6
		C-196.6,429.4-195.6,429.8-194.9,430.5z M-195.8,433.1c0-0.6-0.2-1.1-0.6-1.5c-0.4-0.4-0.9-0.6-1.6-0.6c-0.6,0-1.1,0.2-1.5,0.6
		s-0.7,0.9-0.8,1.5H-195.8z"/>
	<path class="st9" d="M-181.5,430.5c0.7,0.8,1,1.9,1,3.3c0,0.3,0,0.5,0,0.6h-6.3c0.1,0.6,0.4,1.1,0.9,1.4s1,0.5,1.6,0.5
		c0.4,0,0.9-0.1,1.3-0.2c0.4-0.2,0.7-0.4,1-0.7l1.1,1.2c-0.4,0.5-0.9,0.8-1.6,1.1c-0.6,0.3-1.3,0.4-2,0.4c-0.9,0-1.6-0.2-2.3-0.5
		c-0.7-0.4-1.2-0.9-1.5-1.5c-0.4-0.7-0.5-1.4-0.5-2.3s0.2-1.6,0.6-2.3c0.4-0.7,0.9-1.2,1.5-1.5c0.7-0.4,1.4-0.6,2.3-0.6
		C-183.2,429.4-182.2,429.8-181.5,430.5z M-182.4,433.1c0-0.6-0.2-1.1-0.6-1.5c-0.4-0.4-0.9-0.6-1.6-0.6c-0.6,0-1.1,0.2-1.5,0.6
		s-0.7,0.9-0.8,1.5H-182.4z"/>
	<path class="st9" d="M-171.2,430.2c0.6,0.6,0.8,1.4,0.8,2.4v5.3h-2.1v-4.7c0-0.6-0.2-1.1-0.5-1.4c-0.3-0.3-0.8-0.5-1.4-0.5
		c-0.7,0-1.2,0.2-1.6,0.7s-0.6,1-0.6,1.8v4.2h-2.1v-8.6h2.1v1.6c0.6-1.1,1.6-1.7,3.1-1.7C-172.5,429.4-171.8,429.7-171.2,430.2z"/>
	<path class="st9" d="M-159.8,426.1V438h-2.1v-1.4c-0.3,0.5-0.7,0.8-1.2,1.1c-0.5,0.3-1,0.4-1.7,0.4c-0.8,0-1.5-0.2-2.1-0.6
		c-0.6-0.4-1.1-0.9-1.4-1.6s-0.5-1.4-0.5-2.3c0-0.9,0.2-1.6,0.5-2.3c0.3-0.7,0.8-1.2,1.4-1.5c0.6-0.4,1.3-0.5,2.1-0.5
		c0.7,0,1.2,0.1,1.7,0.4s0.9,0.6,1.2,1.1v-4.7H-159.8z M-162.5,435.6c0.5-0.5,0.7-1.1,0.7-1.9c0-0.8-0.2-1.4-0.7-1.9
		c-0.5-0.5-1-0.7-1.8-0.7c-0.7,0-1.3,0.2-1.7,0.7c-0.4,0.5-0.7,1.1-0.7,1.9c0,0.8,0.2,1.4,0.7,1.9c0.4,0.5,1,0.7,1.7,0.7
		C-163.6,436.4-163,436.1-162.5,435.6z"/>
	<path class="st9" d="M-147.1,429.9c0.7,0.4,1.2,0.9,1.6,1.5c0.4,0.7,0.6,1.4,0.6,2.3c0,0.9-0.2,1.6-0.6,2.3s-0.9,1.2-1.6,1.5
		c-0.7,0.4-1.5,0.5-2.3,0.5c-0.9,0-1.7-0.2-2.4-0.5s-1.2-0.9-1.6-1.5c-0.4-0.7-0.6-1.4-0.6-2.3c0-0.9,0.2-1.6,0.6-2.3
		c0.4-0.7,0.9-1.2,1.6-1.5c0.7-0.4,1.5-0.5,2.4-0.5C-148.5,429.4-147.8,429.6-147.1,429.9z M-151.2,431.9c-0.4,0.5-0.7,1.1-0.7,1.9
		c0,0.8,0.2,1.4,0.7,1.9c0.4,0.5,1,0.7,1.8,0.7c0.7,0,1.3-0.2,1.7-0.7c0.4-0.5,0.7-1.1,0.7-1.9c0-0.8-0.2-1.4-0.7-1.9
		c-0.4-0.5-1-0.7-1.7-0.7C-150.2,431.2-150.7,431.4-151.2,431.9z"/>
	<path class="st9" d="M-140.4,428.1c-0.2,0.2-0.3,0.5-0.3,0.8v0.9h2.1v1.5h-2.1v6.7h-2.1v-6.7h-1.1v-1.5h1.1V429
		c0-0.6,0.1-1.2,0.4-1.6s0.6-0.8,1.1-1c0.5-0.2,1-0.3,1.5-0.3c0.5,0,1.1,0.1,1.6,0.4l-0.4,1.7c-0.4-0.2-0.8-0.3-1.1-0.3
		C-140,427.8-140.2,427.9-140.4,428.1z"/>
	<path class="st9" d="M-128.5,437.5c-0.7,0.4-1.4,0.6-2.1,0.6c-0.7,0-1.3-0.2-1.8-0.6c-0.5-0.4-0.7-1.1-0.7-1.9v-4.2h-1.2l0-1.5h1.2
		v-2.4h2.1v2.4h2.4v1.5h-2.4v3.9c0,0.4,0.1,0.7,0.2,0.8c0.1,0.2,0.4,0.2,0.7,0.2c0.3,0,0.7-0.1,1.2-0.4L-128.5,437.5z"/>
	<path class="st9" d="M-119.3,430.2c0.6,0.6,0.8,1.4,0.8,2.4v5.3h-2.1v-4.7c0-0.6-0.2-1.1-0.5-1.4c-0.3-0.3-0.8-0.5-1.4-0.5
		c-0.7,0-1.2,0.2-1.6,0.7s-0.6,1-0.6,1.8v4.2h-2.1v-11.9h2.1v4.9c0.6-1.1,1.6-1.7,3.1-1.7C-120.6,429.4-119.8,429.7-119.3,430.2z"/>
	<path class="st9" d="M-109.4,430.5c0.7,0.8,1,1.9,1,3.3c0,0.3,0,0.5,0,0.6h-6.3c0.1,0.6,0.4,1.1,0.9,1.4c0.4,0.3,1,0.5,1.6,0.5
		c0.4,0,0.9-0.1,1.3-0.2c0.4-0.2,0.7-0.4,1-0.7l1.1,1.2c-0.4,0.5-0.9,0.8-1.6,1.1c-0.6,0.3-1.3,0.4-2,0.4c-0.9,0-1.6-0.2-2.3-0.5
		s-1.2-0.9-1.5-1.5s-0.5-1.4-0.5-2.3s0.2-1.6,0.6-2.3c0.4-0.7,0.9-1.2,1.5-1.5s1.4-0.6,2.3-0.6
		C-111.1,429.4-110.1,429.8-109.4,430.5z M-110.3,433.1c0-0.6-0.2-1.1-0.6-1.5c-0.4-0.4-0.9-0.6-1.6-0.6c-0.6,0-1.1,0.2-1.5,0.6
		c-0.4,0.4-0.7,0.9-0.8,1.5H-110.3z"/>
	<path class="st9" d="M-97.7,437.5c-0.7,0.4-1.4,0.6-2.1,0.6c-0.7,0-1.3-0.2-1.8-0.6c-0.5-0.4-0.7-1.1-0.7-1.9v-4.2h-1.2l0-1.5h1.2
		v-2.4h2.1v2.4h2.4v1.5h-2.4v3.9c0,0.4,0.1,0.7,0.2,0.8c0.1,0.2,0.4,0.2,0.7,0.2c0.3,0,0.7-0.1,1.2-0.4L-97.7,437.5z"/>
	<path class="st9" d="M-88.1,429.4v8.6h-2.1v-1.6c-0.6,1.1-1.6,1.7-3,1.7c-1,0-1.7-0.3-2.3-0.9s-0.8-1.4-0.8-2.4v-5.4h2.1v4.8
		c0,0.6,0.2,1.1,0.5,1.4c0.3,0.3,0.8,0.5,1.4,0.5c0.7,0,1.2-0.2,1.6-0.7c0.4-0.5,0.6-1,0.6-1.7v-4.2H-88.1z"/>
	<path class="st9" d="M-80.5,437.5c-0.7,0.4-1.4,0.6-2.1,0.6c-0.7,0-1.3-0.2-1.8-0.6c-0.5-0.4-0.7-1.1-0.7-1.9v-4.2h-1.2l0-1.5h1.2
		v-2.4h2.1v2.4h2.4v1.5h-2.4v3.9c0,0.4,0.1,0.7,0.2,0.8c0.1,0.2,0.4,0.2,0.7,0.2c0.3,0,0.7-0.1,1.2-0.4L-80.5,437.5z"/>
	<path class="st9" d="M-72.9,429.9c0.7,0.4,1.2,0.9,1.6,1.5c0.4,0.7,0.6,1.4,0.6,2.3c0,0.9-0.2,1.6-0.6,2.3s-0.9,1.2-1.6,1.5
		c-0.7,0.4-1.5,0.5-2.3,0.5c-0.9,0-1.7-0.2-2.4-0.5s-1.2-0.9-1.6-1.5c-0.4-0.7-0.6-1.4-0.6-2.3c0-0.9,0.2-1.6,0.6-2.3
		c0.4-0.7,0.9-1.2,1.6-1.5c0.7-0.4,1.5-0.5,2.4-0.5C-74.4,429.4-73.6,429.6-72.9,429.9z M-77,431.9c-0.4,0.5-0.7,1.1-0.7,1.9
		c0,0.8,0.2,1.4,0.7,1.9c0.4,0.5,1,0.7,1.8,0.7c0.7,0,1.3-0.2,1.7-0.7c0.4-0.5,0.7-1.1,0.7-1.9c0-0.8-0.2-1.4-0.7-1.9
		c-0.4-0.5-1-0.7-1.7-0.7C-76,431.2-76.6,431.4-77,431.9z"/>
	<path class="st9" d="M-65.7,429.8c0.5-0.3,1.1-0.4,1.7-0.5v2c-0.9-0.1-1.6,0.2-2.1,0.6c-0.5,0.5-0.8,1.1-0.8,1.9v4.1h-2.1v-8.6h2.1
		v1.6C-66.6,430.5-66.2,430.1-65.7,429.8z"/>
	<path class="st9" d="M-60.6,426.1c0.2,0.2,0.3,0.5,0.3,0.9c0,0.4-0.1,0.6-0.3,0.9c-0.2,0.2-0.5,0.4-0.8,0.4c-0.3,0-0.6-0.1-0.8-0.4
		c-0.2-0.2-0.3-0.5-0.3-0.9c0-0.4,0.1-0.7,0.3-0.9s0.5-0.4,0.8-0.4C-61.1,425.8-60.8,425.9-60.6,426.1z M-62.5,429.4h2.1v8.6h-2.1
		V429.4z"/>
	<path class="st9" d="M-52.8,438v-1c-0.3,0.4-0.7,0.7-1.2,0.8c-0.5,0.2-1,0.3-1.6,0.3c-0.6,0-1.1-0.1-1.6-0.3s-0.8-0.5-1-1
		c-0.2-0.4-0.4-0.9-0.4-1.4c0-0.8,0.3-1.4,0.8-1.9c0.6-0.5,1.4-0.7,2.4-0.7h2.5v-0.2c0-0.5-0.2-0.9-0.5-1.2
		c-0.3-0.3-0.8-0.4-1.4-0.4c-0.8,0-1.7,0.3-2.5,0.8l-0.8-1.4c0.7-0.4,1.3-0.6,1.8-0.8c0.5-0.2,1.2-0.2,1.9-0.2c1.1,0,2,0.3,2.6,0.8
		c0.6,0.5,0.9,1.3,0.9,2.2l0,5.6H-52.8z M-53.5,436.1c0.4-0.3,0.7-0.6,0.7-1v-0.8H-55c-0.6,0-1,0.1-1.2,0.2
		c-0.3,0.2-0.4,0.4-0.4,0.8c0,0.4,0.1,0.7,0.4,0.9c0.3,0.2,0.6,0.3,1.1,0.3C-54.5,436.5-53.9,436.4-53.5,436.1z"/>
	<path class="st9" d="M-48.3,426.1h2.1V438h-2.1V426.1z"/>
	<path class="st9" d="M-42.3,436.2c0.2,0.2,0.3,0.5,0.3,0.8c0,0.3-0.1,0.6-0.3,0.8c-0.2,0.2-0.5,0.3-0.8,0.3c-0.3,0-0.6-0.1-0.8-0.3
		c-0.2-0.2-0.3-0.5-0.3-0.8c0-0.3,0.1-0.6,0.3-0.8c0.2-0.2,0.5-0.3,0.8-0.3C-42.7,435.8-42.5,435.9-42.3,436.2z"/>
</g>
</svg>
