<svg xmlns="http://www.w3.org/2000/svg" xmlns:xlink="http://www.w3.org/1999/xlink" viewBox="0 0 320 640"><defs><style>.cls-1{fill:url(#radial-gradient);}.cls-2{font-size:29px;}.cls-2,.cls-22,.cls-3{fill:#fff;}.cls-2,.cls-3{font-family:Montserrat-Bold, Montserrat;font-weight:700;}.cls-3{font-size:20px;}.cls-4{letter-spacing:0em;}.cls-5{letter-spacing:-0.02em;}.cls-6{letter-spacing:-0.02em;}.cls-7{letter-spacing:-0.01em;}.cls-8{letter-spacing:0.01em;}.cls-9{letter-spacing:-0.02em;}.cls-10{letter-spacing:0.01em;}.cls-11{letter-spacing:-0.01em;}.cls-12{letter-spacing:-0.01em;}.cls-13{letter-spacing:0.01em;}.cls-14{letter-spacing:-0.01em;}.cls-15{letter-spacing:-0.01em;}.cls-16{letter-spacing:0em;}.cls-17{letter-spacing:0.02em;}.cls-18{fill:#ffd45e;}.cls-19,.cls-25{fill:#fff793;}.cls-20{fill:#231f20;}.cls-21,.cls-23,.cls-24{fill:none;stroke-miterlimit:10;}.cls-21{stroke:#231f20;}.cls-21,.cls-24{stroke-width:1.31px;}.cls-23,.cls-24{stroke:#fff793;}.cls-23{stroke-width:1.18px;}.cls-25{opacity:0.25;isolation:isolate;}</style><radialGradient id="radial-gradient" cx="160" cy="320" r="252.98" gradientUnits="userSpaceOnUse"><stop offset="0" stop-color="#59afc5"/><stop offset="0.23" stop-color="#4aa8c0"/><stop offset="0.66" stop-color="#2396b2"/><stop offset="1" stop-color="#0085a6"/></radialGradient></defs><title>Asset 45</title><g id="Layer_2" data-name="Layer 2"><g id="Amazon_Environment" data-name="Amazon Environment"><rect class="cls-1" width="320" height="640"/><text class="cls-2" transform="translate(99.53 437.88)">UH OH!</text><text class="cls-3" transform="translate(27.54 476.23)"><tspan class="cls-4">L</tspan><tspan x="12" y="0">oo</tspan><tspan class="cls-5" x="38.2" y="0">k</tspan><tspan x="51.04" y="0">s li</tspan><tspan class="cls-6" x="79.36" y="0">k</tspan><tspan x="92.1" y="0">e </tspan><tspan class="cls-7" x="110.38" y="0">y</tspan><tspan x="122.04" y="0">ou </tspan><tspan class="cls-8" x="154.54" y="0">n</tspan><tspan x="168.48" y="0">eed </tspan><tspan class="cls-9" x="213.22" y="0">t</tspan><tspan x="221.58" y="0">o do </tspan><tspan x="7.43" y="24">so</tspan><tspan class="cls-10" x="31.15" y="24">m</tspan><tspan x="52.25" y="24">e </tspan><tspan class="cls-11" x="70.53" y="24">r</tspan><tspan class="cls-12" x="78.97" y="24">e</tspan><tspan x="91.39" y="24">vi</tspan><tspan class="cls-12" x="109.37" y="24">e</tspan><tspan x="121.79" y="24">w! Ma</tspan><tspan class="cls-6" x="183.41" y="24">k</tspan><tspan x="196.15" y="24">e su</tspan><tspan class="cls-11" x="238.79" y="24">r</tspan><tspan x="247.23" y="24">e </tspan><tspan class="cls-7" x="-6.68" y="48">y</tspan><tspan x="4.98" y="48">ou go th</tspan><tspan class="cls-11" x="92.76" y="48">r</tspan><tspan x="101.2" y="48">ough t</tspan><tspan class="cls-10" x="170.22" y="48">h</tspan><tspan x="184.16" y="48">e animal </tspan><tspan class="cls-12" x="-6.21" y="72">f</tspan><tspan class="cls-10" x="1.33" y="72">a</tspan><tspan class="cls-13" x="13.79" y="72">c</tspan><tspan x="25.77" y="72">ts </tspan><tspan class="cls-10" x="50.75" y="72">a</tspan><tspan x="63.21" y="72">gain be</tspan><tspan class="cls-14" x="141.47" y="72">f</tspan><tspan x="149.07" y="72">o</tspan><tspan class="cls-15" x="162.17" y="72">r</tspan><tspan class="cls-16" x="170.61" y="72">e </tspan><tspan class="cls-15" x="188.89" y="72">r</tspan><tspan x="197.33" y="72">et</tspan><tspan class="cls-17" x="218.65" y="72">r</tspan><tspan x="227.57" y="72">yi</tspan><tspan class="cls-8" x="245.55" y="72">n</tspan><tspan x="259.49" y="72">g </tspan><tspan x="88.29" y="96">t</tspan><tspan class="cls-10" x="96.99" y="96">h</tspan><tspan x="110.93" y="96">e qui</tspan><tspan class="cls-10" x="162.77" y="96">z</tspan><tspan x="173.75" y="96">.</tspan></text><g id="Layer_2-2" data-name="Layer 2"><g id="JellyFish"><path class="cls-18" d="M109.92,212.33s-.24.53-.66,1.32a37.79,37.79,0,0,1-2,3.34,47.63,47.63,0,0,1-9.19,10.19l-1.71,1.35-1.86,1.3L92.75,231c-.58.42-1.07.84-1.63,1.26a31.65,31.65,0,0,0-6.05,6.55,23.12,23.12,0,0,0-3.71,8.61,18.21,18.21,0,0,0-.26,2.34,11.42,11.42,0,0,0,0,1.17v.58l.07.66a23,23,0,0,0,5.49,13.87c2,2.77,4.25,5.38,6.44,7.87s4.42,4.8,6.5,7.08l3,3.34c1,1.11,1.83,2.17,2.69,3.21s1.63,2,2.33,3,1.4,1.93,2,2.86a37.21,37.21,0,0,1,2.78,4.92,14.78,14.78,0,0,1,1.2,3.42,4.24,4.24,0,0,1,.11,1.28,4.13,4.13,0,0,0-.18-1.26,14.83,14.83,0,0,0-1.38-3.32,35,35,0,0,0-3-4.7c-.62-.88-1.37-1.75-2.11-2.71s-1.6-1.9-2.5-2.88-1.82-2-2.84-3-2-2.08-3.14-3.14c-2.17-2.12-4.56-4.34-6.92-6.72a100,100,0,0,1-7-7.66,31.22,31.22,0,0,1-5.72-9.52,33.23,33.23,0,0,1-1.22-5.49l-.1-.66-.08-.74a12.25,12.25,0,0,1-.09-1.48,21.65,21.65,0,0,1,.16-2.91,24.3,24.3,0,0,1,1.33-5.52,29,29,0,0,1,2.39-4.92,36.11,36.11,0,0,1,6.52-7.94c.62-.55,1.27-1.13,1.86-1.61l1.78-1.4L93,224.29,94.46,223a42.15,42.15,0,0,0,7.46-9.37c.74-1.25,1.24-2.26,1.56-2.93s.42-1,.44-1a3.27,3.27,0,0,1,6,2.6Z"/><path class="cls-19" d="M117.31,213.9c-.58.38-1.24.86-1.85,1.33s-1.23,1-1.81,1.49a20.91,20.91,0,0,0-1.71,1.58c-.55.58-1.07,1.1-1.58,1.66A12.74,12.74,0,0,0,109,221.7a19.31,19.31,0,0,0-1.13,1.79l-.44.9c-.15.3-.21.59-.33.89a4.93,4.93,0,0,0-.22.86l-.1.43c0,.13,0,.4-.07.6-.1.86-.19,1.66-.25,2.43a16.83,16.83,0,0,0,0,2.13,6.43,6.43,0,0,0,.31,1.74,12.12,12.12,0,0,0,.84,1.83c.37.65.79,1.32,1.24,2l1.42,2.06,3,4.17.12.17h0a18.82,18.82,0,0,1,1.19,2.58,22.52,22.52,0,0,1,.87,2.55,25.6,25.6,0,0,1,1,5.29,23.72,23.72,0,0,1-.14,5.39,20,20,0,0,1-.55,2.64l-.36,1.3c-.13.43-.32.84-.48,1.26s-.32.84-.51,1.24l-.62,1.19c-.21.39-.41.79-.63,1.17l-.64,1.05-2.67,4.25a50.47,50.47,0,0,0-4.55,8.4c-.27.72-.51,1.46-.71,2.21a21.52,21.52,0,0,0-.39,2.27c-.08.77-.12,1.54-.13,2.32a16.9,16.9,0,0,0,.18,2.35,23.65,23.65,0,0,0,.38,2.36c.08.38.15.82.23,1.14l.33,1.19a31.64,31.64,0,0,0,1.68,4.5c.32.73.72,1.44,1.08,2.17s.79,1.41,1.21,2.11c.86,1.37,1.76,2.74,2.74,4s2,2.58,3.07,3.82,2.2,2.43,3.39,3.56a42,42,0,0,1-3.62-3.34c-1.16-1.17-2.29-2.37-3.34-3.64s-2.08-2.57-3-3.91c-.47-.69-.93-1.38-1.38-2.08s-.87-1.42-1.25-2.16a33.75,33.75,0,0,1-2.07-4.59l-.4-1.17c-.15-.45-.23-.82-.35-1.24-.22-.82-.41-1.64-.56-2.47s-.24-1.69-.36-2.54,0-1.73,0-2.59a22.7,22.7,0,0,1,.28-2.6,21.75,21.75,0,0,1,.63-2.53A52.57,52.57,0,0,1,107,272l2.29-4.35.57-1.09c.17-.34.31-.69.47-1l.46-1c.13-.35.23-.71.35-1.06s.24-.7.33-1.06l.22-1.09a14.94,14.94,0,0,0,.31-2.2,19.31,19.31,0,0,0-.18-4.43,21.35,21.35,0,0,0-1.08-4.32c-.25-.7-.54-1.39-.85-2.06a16.23,16.23,0,0,0-1-1.83l.14.21-3.25-4-1.62-2.07c-.54-.72-1.08-1.46-1.61-2.26a18.06,18.06,0,0,1-1.47-2.74,13.07,13.07,0,0,1-.84-3.25,23.17,23.17,0,0,1-.13-3c0-.93,0-1.84.08-2.68V226l.11-.84a11,11,0,0,1,.3-1.64c.15-.51.27-1.06.46-1.55l.58-1.45a26,26,0,0,1,1.44-2.65,28.32,28.32,0,0,1,1.65-2.4c.58-.76,1.18-1.49,1.81-2.19s1.26-1.38,1.92-2,1.34-1.29,2-1.9a26.64,26.64,0,0,1,2.2-1.82h0a3.92,3.92,0,0,1,4.74,6.24Z"/><path class="cls-19" d="M119,203.25a13.12,13.12,0,0,1,1.75.54,16,16,0,0,1,4.45,2.47,11.1,11.1,0,0,1,2.53,2.85,10.1,10.1,0,0,1,1,2c.12.37.2.75.29,1.14a4.28,4.28,0,0,1,.19,1.18l.07,1.22c0,.41-.07.81-.1,1.22a12.11,12.11,0,0,1-.5,2.45l-.16.62-.23.6-.42,1.1c-.29.75-.71,1.59-1.08,2.39a87.91,87.91,0,0,1-5.92,9.13c-2,3.06-3.7,6.45-3.56,10.33a8.71,8.71,0,0,0,.09,1.44l.07.73v.28l.09.38.35,1.55.49,1.25a9.87,9.87,0,0,0,3.83,4.19c1.71,1.1,3.73,1.92,5.74,2.94a18.94,18.94,0,0,1,5.67,4,17.68,17.68,0,0,1,3.43,6,22.57,22.57,0,0,1,1.51,6.64,18.1,18.1,0,0,1-.8,6.66,24.2,24.2,0,0,1-2.85,5.85,42.48,42.48,0,0,1-3.79,4.88c-.65.78-1.36,1.47-2,2.19l-2,2.1a39.36,39.36,0,0,0-5.94,8.73,29,29,0,0,0-2.65,8.54,30.88,30.88,0,0,0-.15,6.93c.09,1,.18,1.82.32,2.56s.23,1.37.36,1.87l.35,1.55-.39-1.54c-.15-.5-.27-1.13-.41-1.87s-.28-1.59-.4-2.55a31.51,31.51,0,0,1,0-7,29.27,29.27,0,0,1,2.46-8.75A39.89,39.89,0,0,1,126.5,293c1.25-1.44,2.59-2.88,3.86-4.37a42.24,42.24,0,0,0,3.56-4.85,22.92,22.92,0,0,0,2.5-5.58A16.23,16.23,0,0,0,137,272a21,21,0,0,0-1.56-6.09,16.06,16.06,0,0,0-3.23-5.34,16.94,16.94,0,0,0-5.19-3.45c-2-.86-4.05-1.82-6-2.88a12.32,12.32,0,0,1-4.88-5.11c-.24-.57-.5-1.15-.7-1.71l-.39-1.53-.1-.39v-.14h0v-.31l-.11-.83a11.62,11.62,0,0,1-.14-1.66,16.76,16.76,0,0,1,1-6.51,27.53,27.53,0,0,1,2.75-5.51,87.2,87.2,0,0,0,5.49-9c.3-.71.61-1.33.87-2.07l.39-1.11.17-.48.11-.49a8.72,8.72,0,0,0,.33-1.88,4.31,4.31,0,0,0,0-.88l-.07-.83a2.2,2.2,0,0,0-.15-.77c-.07-.24-.12-.49-.2-.72a6,6,0,0,0-.66-1.25,7.35,7.35,0,0,0-1.8-1.89,12,12,0,0,0-3.43-1.77,8.26,8.26,0,0,0-1.29-.37,2,2,0,0,1,.84-3.82Z"/><path class="cls-19" d="M136.58,197.72l.2.1.66.33c.54.3,1.31.76,2.29,1.4a30,30,0,0,1,7.24,6.9c.32.44.66.88,1,1.35l.9,1.51a26.46,26.46,0,0,1,1.68,3.37,15.51,15.51,0,0,1,.66,1.88c.2.66.47,1.3.61,2l.42,2.11c.06.36.14.72.2,1.08l.08,1.11.17,2.28c0,.77-.05,1.55-.07,2.34a16,16,0,0,1-.14,2.39l-.39,2.42-.2,1.24a3.31,3.31,0,0,1-.11.64l-.14.59-.56,2.41c-.36,1.61-.86,3.31-1.3,5-1,3.39-2.09,6.88-3.28,10.43a80.11,80.11,0,0,0-3.09,11,38.08,38.08,0,0,0-.24,11.77l.47,3.05c.17,1,.42,2,.63,3.06l.16.77.07.32.11.39.46,1.54a24.54,24.54,0,0,0,1,3c.42.95.75,1.92,1.23,2.87l1.47,2.86c1.1,1.86,2.21,3.75,3.48,5.56,2.48,3.67,5.24,7.24,8,10.93a138.31,138.31,0,0,1,7.86,11.43c1.28,2,2.34,4.06,3.49,6.1.53,1,1,2.11,1.52,3.17a33.51,33.51,0,0,1,1.4,3.19l1.3,3.28c.44,1.08.72,2.23,1.1,3.34s.73,2.23,1,3.36l.79,3.41.4,1.71.1.42v.46l.14.85c.19,1.13.38,2.27.48,3.45.06.59.14,1.17.18,1.76l.09,1.74c.08,1.17,0,2.33,0,3.49a54.64,54.64,0,0,1-2.2,13.55,89.82,89.82,0,0,1-4.84,12.43c-3.66,7.91-7.76,15.29-9.93,22.92a41,41,0,0,0-1.72,11.33,36.29,36.29,0,0,0,.51,5.5c.23,1.76.65,3.52,1,5.22a75.9,75.9,0,0,0,6.3,17.78A81.18,81.18,0,0,0,177,460a74.38,74.38,0,0,0,6.16,7.11c1.54,1.54,2.43,2.29,2.43,2.29s-.9-.73-2.46-2.26a75.65,75.65,0,0,1-6.27-7,81.53,81.53,0,0,1-8-12.3A75.54,75.54,0,0,1,162.21,430c-.33-1.71-.75-3.41-1-5.24a38.34,38.34,0,0,1-.43-5.56,41.93,41.93,0,0,1,1.6-11.58c2.11-7.79,6.15-15.28,9.68-23.18a89,89,0,0,0,4.61-12.31,52.28,52.28,0,0,0,2-13.2c0-1.12,0-2.25-.07-3.37l-.11-1.69a13.55,13.55,0,0,0-.19-1.67c-.1-1.11-.3-2.24-.52-3.38l-.15-.85v-.4l-.1-.41-.42-1.67-.82-3.33c-.3-1.1-.7-2.18-1-3.27a26,26,0,0,0-1.12-3.25l-1.3-3.18c-.41-1.07-.92-2.1-1.43-3.12s-1-2.06-1.53-3.08c-1.15-2-2.2-4-3.48-5.91-2.42-3.89-5.16-7.55-7.91-11.18s-5.59-7.18-8.17-10.9a57.7,57.7,0,0,1-6.64-11.82,26.87,26.87,0,0,1-1.1-3.12l-.48-1.54-.12-.38s-.06-.2,0-.17v-.3l-.18-.8c-.24-1.06-.51-2.11-.7-3.17l-.54-3.19a41.27,41.27,0,0,1,.1-12.65,83.17,83.17,0,0,1,3-11.43c1.15-3.57,2.2-7,3.1-10.32.41-1.67.86-3.25,1.2-4.89l.53-2.41.13-.6.09-.55.16-1.13.33-2.22c.08-.73.06-1.45.1-2.16a11.33,11.33,0,0,0,0-2.1l-.17-2a23.94,23.94,0,0,0-5-12.5,26.51,26.51,0,0,0-6.41-6,21.09,21.09,0,0,0-2-1.16l-.47-.24-.2-.09h0a2,2,0,0,1-.43-2.8,2,2,0,0,1,2.07-.76Z"/><path class="cls-18" d="M173.35,188l.12.07.59.38a14.09,14.09,0,0,1,1.59,1.3,21.1,21.1,0,0,1,4.19,5.52,31.21,31.21,0,0,1,3.2,9.49,51,51,0,0,1,.57,12.34c-.07,1.11-.22,2.23-.33,3.38l-.09.86v1l-.3,1.67c-.22,1.15-.33,2.21-.7,3.51l-.48,1.89-.25,1-.31.92a35.67,35.67,0,0,1-1.38,3.69l-.81,1.84-1,1.74c-1.23,2.37-2.68,4.63-3.86,6.79a22.48,22.48,0,0,0-2.44,6.75l-.24,1.82c-.09.61,0,1.25-.06,1.88s0,1.28,0,1.92l.17,2a38.48,38.48,0,0,0,.56,4c.18,1.33.53,2.66.83,4l.47,2,.1.42.16.51.3,1,.31,1c.11.32.24.61.35.92l.72,1.83a71.59,71.59,0,0,0,8.42,14c3.28,4.38,6.83,8.49,10.38,12.38,7.11,7.77,14.14,14.72,19.83,21,2.85,3.14,5.37,6.11,7.43,8.89a46,46,0,0,1,4.71,7.59,19.2,19.2,0,0,1,1.65,5.5,10.83,10.83,0,0,1,.07,1.51v0a12.48,12.48,0,0,0-.14-1.5,18.87,18.87,0,0,0-1.87-5.36,43.87,43.87,0,0,0-5-7.3c-2.16-2.65-4.78-5.49-7.75-8.49-5.92-6-13.23-12.63-20.74-20.14-3.74-3.76-7.52-7.77-11.09-12.13A74.15,74.15,0,0,1,171.71,277c-.32-.68-.61-1.38-.91-2.07l-.44-1-.35-1-.35-1-.18-.5-.07-.2v-.13l-.07-.26-.59-2.08c-.38-1.38-.8-2.75-1.06-4.18s-.66-2.81-.8-4.28l-.28-2.18c-.11-.72-.07-1.48-.11-2.21a20.74,20.74,0,0,1,0-2.23l.19-2.25a27.71,27.71,0,0,1,2.62-8.44c1.25-2.54,2.52-4.72,3.55-6.91l.75-1.63.63-1.62a33.84,33.84,0,0,0,1-3.25l.24-.81.17-.79.33-1.57c.26-1,.35-2.23.52-3.34l.22-1.68.09-1.47c0-1,.15-2.07.17-3.07a44.11,44.11,0,0,0-.94-10.63,23.75,23.75,0,0,0-2.75-7.2,13.71,13.71,0,0,0-2.84-3.46,6.13,6.13,0,0,0-.77-.57h-.05l-.12-.06h-.06a3.92,3.92,0,0,1,3.73-6.9h0Z"/><path class="cls-19" d="M186.56,180.54l.39.14c.29.11.73.27,1.2.47a36.86,36.86,0,0,1,4.1,1.95,58.59,58.59,0,0,1,5.93,3.61,55.69,55.69,0,0,1,6.93,5.7l.9.86.87.93c.58.63,1.19,1.25,1.76,1.93A51.92,51.92,0,0,1,212,200.5a49.45,49.45,0,0,1,3,4.93c.48.86.86,1.79,1.29,2.69l.64,1.37.08.18.07.15v.09l.13.34.25.67c.34.91.7,1.8,1,2.75s.62,2,.94,3,.48,2.07.72,3.11.31,2.15.47,3.23a35.05,35.05,0,0,1-1.49,12.91c-1.14,4.06-2.39,7.9-3.3,11.8a105,105,0,0,0-2,11.56c-.09.86-.17,1.91-.21,2.8s0,1.77.07,2.66a21.22,21.22,0,0,0,1,5.11,17.63,17.63,0,0,0,2.11,4.45,19.39,19.39,0,0,0,3,3.58,23.19,23.19,0,0,0,3.41,2.67,27.61,27.61,0,0,0,3.45,1.9,34.53,34.53,0,0,0,6.07,2.16,36.18,36.18,0,0,0,4.09.84c1,.13,1.47.17,1.47.17s-.52,0-1.48-.09a37.94,37.94,0,0,1-10.44-2.42,27.84,27.84,0,0,1-3.66-1.74,24.94,24.94,0,0,1-3.72-2.58,20.51,20.51,0,0,1-3.4-3.63,20,20,0,0,1-2.58-4.69,23.26,23.26,0,0,1-1.4-5.5q-.2-1.5-.24-3V259a109.85,109.85,0,0,1,1.35-12c.7-4.06,1.76-8.14,2.61-12.08a30.37,30.37,0,0,0,.68-11.43c-.19-.92-.31-1.84-.56-2.74s-.5-1.81-.8-2.69l-1-2.56c-.37-.88-.79-1.78-1.18-2.66l-.3-.66-.14-.33v-.08h0l-.08-.15-.64-1.19c-.44-.78-.82-1.58-1.28-2.32a49.25,49.25,0,0,0-6.1-7.77c-.54-.57-1.12-1.08-1.65-1.6l-.81-.78-.84-.7a47.66,47.66,0,0,0-6.38-4.64,50.19,50.19,0,0,0-5.32-2.84c-1.52-.68-2.74-1.16-3.55-1.43-.42-.16-.69-.23-.87-.29l-.33-.1h-.08a3.92,3.92,0,0,1,2.25-7.51Z"/><path class="cls-19" d="M145,188.15l.44.19c.33.14.77.35,1.3.62a42.43,42.43,0,0,1,4.45,2.65,53.25,53.25,0,0,1,6.27,4.82,57.54,57.54,0,0,1,7,7.39A65.24,65.24,0,0,1,171,213.88l1.38,2.92.7,1.49.6,1.55,1.2,3.15,1,3.23c.16.54.34,1.06.5,1.62l.43,1.72c.28,1.14.62,2.29.81,3.46a49.51,49.51,0,0,1,.94,7.18,53.33,53.33,0,0,1-1.45,14.57c-1,4.73-2.2,9.34-3,14-.24,1.15-.4,2.3-.6,3.44s-.38,2.29-.52,3.43l-.45,3.4-.32,3.36a43.74,43.74,0,0,0,.26,12.72,30.18,30.18,0,0,0,1.64,5.65,27.24,27.24,0,0,0,2.63,4.83,25.44,25.44,0,0,0,7,6.64,30.53,30.53,0,0,0,6.78,3.22,33.45,33.45,0,0,0,4.71,1.18c.57.1,1.14.17,1.71.22-.57,0-1.15-.08-1.72-.16a34,34,0,0,1-4.77-1,30.73,30.73,0,0,1-7-3,25.76,25.76,0,0,1-7.37-6.58,27.5,27.5,0,0,1-2.89-4.91,31.24,31.24,0,0,1-1.9-5.8,44.87,44.87,0,0,1-.73-13.08l.22-3.41.33-3.46c.1-1.16.24-2.32.41-3.49s.28-2.34.49-3.51c.69-4.7,1.72-9.43,2.57-14.1a50.73,50.73,0,0,0,.92-13.85,47.16,47.16,0,0,0-1.11-6.69c-.21-1.1-.57-2.16-.87-3.22l-.45-1.58c-.17-.52-.37-1.06-.55-1.59-.37-1-.73-2.08-1.1-3.11l-1.24-2.93-.61-1.44-.7-1.38-1.39-2.69a61.5,61.5,0,0,0-6.42-9.27,54.17,54.17,0,0,0-6.7-6.59,47.49,47.49,0,0,0-5.87-4.2,37.72,37.72,0,0,0-4-2.18l-1-.45-.37-.15h-.08a2.63,2.63,0,0,1,1.87-4.92Z"/><path class="cls-19" d="M184.92,185.41l.46.29a14.86,14.86,0,0,1,1.36,1,21.08,21.08,0,0,1,3.93,4.13c.33.51.73,1,1.06,1.62l1,1.87.83,2.13c.26.74.41,1.54.62,2.35a26.44,26.44,0,0,1-.26,10.74,36.81,36.81,0,0,1-1.78,5.6l-.56,1.41-.29.71-.35.68-1.41,2.75c-.85,1.67-1.89,3.53-2.78,5.33a59.08,59.08,0,0,0-2.28,5.51,41.94,41.94,0,0,0-2.55,12.23,30.17,30.17,0,0,0,2,12.54,26.56,26.56,0,0,0,7.56,10.31,38.33,38.33,0,0,0,5.29,3.66c1.93,1.11,3.83,2.19,5.7,3.3a62.76,62.76,0,0,1,10.3,7.27,36.18,36.18,0,0,1,7.15,8.77,50.47,50.47,0,0,1,4,8.62L225.1,302l.87,3.22c.55,1.94.81,3.51,1.07,4.55s.36,1.61.36,1.61-.16-.55-.45-1.59-.66-2.57-1.3-4.47l-1-3.16-1.41-3.64a50.51,50.51,0,0,0-4.32-8.24,34.61,34.61,0,0,0-7.26-8.06,59.12,59.12,0,0,0-10.33-6.48c-1.89-1-3.85-2-5.83-3a40.42,40.42,0,0,1-6-3.66,30.27,30.27,0,0,1-9.11-11.18,34.27,34.27,0,0,1-3.08-14.2,46.11,46.11,0,0,1,2.11-13.8,67.13,67.13,0,0,1,2.24-6.34c.86-2,1.71-3.7,2.56-5.6l1.12-2.5.28-.61.21-.63.41-1.22a29.55,29.55,0,0,0,1.23-4.7,19.6,19.6,0,0,0-.25-7.89,12.62,12.62,0,0,0-2.56-5.07,13.39,13.39,0,0,0-2.62-2.48c-.33-.21-.59-.39-.67-.43l-.26-.14a3.92,3.92,0,0,1,3.67-6.93Z"/><path class="cls-18" d="M152.69,196l.43.64c.26.41.64,1,1.09,1.8a62.6,62.6,0,0,1,3.5,7A68.83,68.83,0,0,1,161.49,217a62.61,62.61,0,0,1,1.63,15.68A58.71,58.71,0,0,1,159.73,251L158,255.61l-.88,2.31-.43,1.17-.36,1.16-.72,2.36-.36,1.18-.32,1.23-.59,2.45c-.21.82-.29,1.65-.45,2.49a53.52,53.52,0,0,0-.75,10.27c0,3.51.49,7.09.37,11,0,.48-.09,1-.13,1.47a9.3,9.3,0,0,1-.21,1.47,14.25,14.25,0,0,1-.85,2.91c-.19.47-.36.94-.57,1.4l-.76,1.3a15,15,0,0,1-1.7,2.43c-.31.38-.59.79-.92,1.15l-.93,1q-.93,1-1.89,2.07l-3.78,4.1c-2.5,2.73-4.88,5.54-7.08,8.45a67.88,67.88,0,0,0-5.75,9.21,52.47,52.47,0,0,0-5.35,20.29,78.87,78.87,0,0,0,1.76,19.8,112.18,112.18,0,0,0,4.9,17.24,124.11,124.11,0,0,0,12.09,24c1.76,2.74,3.24,4.83,4.25,6.25l1.54,2.19-1.59-2.15c-1-1.4-2.57-3.46-4.39-6.16a125.41,125.41,0,0,1-12.62-23.82,112.65,112.65,0,0,1-5.33-17.3,80.73,80.73,0,0,1-2.27-20.12,54.31,54.31,0,0,1,5.1-21.14,69.3,69.3,0,0,1,5.78-9.66c2.2-3.05,4.58-6,7-8.8l3.69-4.2,1.83-2.09.9-1.06c.29-.33.53-.69.8-1a15.11,15.11,0,0,0,3.38-9.34c0-3.44-.5-7.1-.61-10.77a56.07,56.07,0,0,1,.56-10.91c.14-.88.22-1.78.42-2.65l.55-2.59.28-1.29.35-1.27.72-2.52.36-1.25.41-1.18.83-2.34,1.6-4.58a54.38,54.38,0,0,0,2.78-17.06,57.21,57.21,0,0,0-1.78-14.51,63.56,63.56,0,0,0-3.74-10.66,57.68,57.68,0,0,0-3.37-6.42c-.43-.71-.77-1.23-1-1.58l-.34-.49-.06-.08a2.62,2.62,0,1,1,4.29-3Z"/><path class="cls-18" d="M136,206.25l-.08.08H136l.12-.09a1.2,1.2,0,0,0,.26-.24,1.59,1.59,0,0,0,.25-.33.75.75,0,0,0,.1-.17h0a6.3,6.3,0,0,0-.37.84,27.36,27.36,0,0,0-1.21,4.27,48.16,48.16,0,0,0-.2,16.72,61.4,61.4,0,0,0,2.88,11A70.72,70.72,0,0,0,143.27,250a125,125,0,0,0,7.89,11.63l8.69,11.88,4.3,6,4.17,6.12c2.68,4.07,5.28,8.11,7.55,12.17l1.69,3c.55,1,1,2,1.55,3s1,2,1.47,3l1.31,3c.91,1.93,1.57,3.9,2.28,5.78.35.93.69,1.86.94,2.8l.81,2.73c.58,1.76.85,3.54,1.24,5.18a41.81,41.81,0,0,1,.78,4.74,63.09,63.09,0,0,1,.63,7.77,27.67,27.67,0,0,1,0,2.88l-.07,2.13-.06,1.77v-3.95c0-.83,0-1.8-.1-2.87a66.16,66.16,0,0,0-.94-7.69,38.87,38.87,0,0,0-1-4.65c-.45-1.61-.78-3.35-1.43-5.07l-.91-2.66a26,26,0,0,0-1-2.72c-.77-1.82-1.5-3.73-2.48-5.59l-1.4-2.87c-.49-1-1-1.9-1.58-2.87s-1.06-1.95-1.64-2.91l-1.79-2.91c-2.41-3.9-5.14-7.79-8-11.7l-4.37-5.84-4.52-5.8L148.12,264a125.11,125.11,0,0,1-8.63-11.61,76,76,0,0,1-6.35-12.16,66.74,66.74,0,0,1-3.62-11.88,59.2,59.2,0,0,1-1.12-10.54,50.64,50.64,0,0,1,.52-8.26,34,34,0,0,1,1.28-5.38,12.37,12.37,0,0,1,.63-1.6v-.07l.14-.27c.11-.17.23-.34.35-.49a4,4,0,0,1,.34-.37l.25-.23L132,201a3.23,3.23,0,1,1,4.76,4.38l-.08.08Z"/><path class="cls-18" d="M194.12,181.28l.15.28.13.22.28.49a28,28,0,0,1,3.34,9.64,22.58,22.58,0,0,1-.27,8.11,15.54,15.54,0,0,1-.59,2.2c-.12.37-.22.75-.36,1.12l-.47,1.09a14.14,14.14,0,0,1-1.06,2.18l-.61,1.08-.59,1a13,13,0,0,0-2.2,8.58c.38,3.08,2.17,6.07,4.51,8.65a56.56,56.56,0,0,0,8.16,7.06l2.23,1.62.56.41c.25.17.38.29.58.44.36.27.73.61,1.1.94a37.12,37.12,0,0,1,3.81,4.12,69.15,69.15,0,0,1,6.1,8.88,54.67,54.67,0,0,1,7,17.68,20.88,20.88,0,0,1,.08,7.6,12.1,12.1,0,0,1-5,7.94l-1.13.7,1.1-.74a11.93,11.93,0,0,0,2.65-2.61,12.2,12.2,0,0,0,2.09-5.31,20.85,20.85,0,0,0-.32-7.43,53.48,53.48,0,0,0-7.41-17.14,67.38,67.38,0,0,0-6.26-8.5,34.68,34.68,0,0,0-3.76-3.81,44.83,44.83,0,0,0-4.47-3.16,57.42,57.42,0,0,1-8.72-7.06,25.21,25.21,0,0,1-3.48-4.49,15.67,15.67,0,0,1-2-5.36,14.71,14.71,0,0,1,.24-5.61c.12-.44.25-.88.38-1.31l.47-1.25c.18-.41.38-.82.57-1.23s.39-.71.58-1.07l.31-.56.26-.49.51-1a12.45,12.45,0,0,0,.86-1.94l.38-1c.12-.32.19-.66.28-1a12.46,12.46,0,0,0,.44-1.9,19.22,19.22,0,0,0,0-6.93,23.25,23.25,0,0,0-1.57-5.09,22.32,22.32,0,0,0-1.61-3.11l-.6-1-.17-.31a2,2,0,0,1,3.4-1.93h0Z"/><path class="cls-19" d="M200.33,166.88c5.51,17.26-15.07,25.86-45.07,35.24S96.6,218.27,91.6,200.83c-6.8-23.67,14.08-52,44.1-61.34S192.26,141.45,200.33,166.88Z"/><ellipse class="cls-20" cx="140.48" cy="156.79" rx="2.7" ry="5.33" transform="translate(-14.95 14.81) rotate(-5.73)"/><ellipse class="cls-20" cx="164.63" cy="151.78" rx="2.7" ry="5.33" transform="translate(-14.33 17.19) rotate(-5.73)"/><path class="cls-21" d="M162.09,165.07s-6.63-5.55-10.38,2.84"/><ellipse class="cls-22" cx="98.49" cy="147.59" rx="14.36" ry="6.37" transform="translate(-74.42 107.78) rotate(-43.32)"/><path class="cls-23" d="M216.49,179.61c.28-.43,5.22-7.67-6.86-8.48s-33.12,2-67.07,13.87-61.69,31-53.85,36.06c0,0,4.57,4.08,28.39-1.79l66.59-21S209.72,189.87,216.49,179.61Z"/><path class="cls-24" d="M218.71,159.34c8,27.88-22.11,34.76-66.31,48.94S82.63,232.61,73.77,205s9.09-70.6,53.29-84.77S206.38,116.61,218.71,159.34Z"/><path class="cls-25" d="M218.63,159.38c8,27.88-22.11,34.76-66.31,48.94S82.55,232.65,73.69,205s9.09-70.6,53.29-84.77S206.3,116.65,218.63,159.38Z"/><path class="cls-19" d="M142.34,148.87s-.67,7.85-7.15,8.57C135.19,157.44,135.86,150,142.34,148.87Z"/><path class="cls-19" d="M160,145.09s3.3,7.16,9.64,5.63C169.68,150.72,166.52,144,160,145.09Z"/></g></g></g></g></svg>