<svg xmlns="http://www.w3.org/2000/svg" xmlns:xlink="http://www.w3.org/1999/xlink" viewBox="0 0 320 640"><defs><style>.cls-1{fill:url(#radial-gradient);}.cls-2{fill:#543e36;}.cls-3{fill:#c1b49a;}.cls-4{fill:#231f20;}.cls-13,.cls-5,.cls-9{fill:#fff;}.cls-6{fill:#5a4a42;}.cls-7{fill:#9a8479;}.cls-8{fill:none;stroke:#231f20;stroke-miterlimit:10;stroke-width:1.64px;}.cls-9{font-size:29px;}.cls-13,.cls-9{font-family:Montserrat-Bold, Montserrat;font-weight:700;}.cls-10{letter-spacing:-0.01em;}.cls-11{letter-spacing:0.02em;}.cls-12{letter-spacing:0em;}.cls-13{font-size:20px;}.cls-14{letter-spacing:-0.02em;}.cls-15{letter-spacing:-0.01em;}.cls-16{letter-spacing:-0.01em;}.cls-17{letter-spacing:-0.01em;}.cls-18{letter-spacing:0.01em;}.cls-19{letter-spacing:0.01em;}.cls-20{letter-spacing:-0.01em;}.cls-21{letter-spacing:0em;}.cls-22{letter-spacing:0.01em;}</style><radialGradient id="radial-gradient" cx="160" cy="320" r="252.98" gradientUnits="userSpaceOnUse"><stop offset="0" stop-color="#59afc5"/><stop offset="0.23" stop-color="#4aa8c0"/><stop offset="0.66" stop-color="#2396b2"/><stop offset="1" stop-color="#0085a6"/></radialGradient></defs><title>Asset 52</title><g id="Layer_2" data-name="Layer 2"><g id="Amazon_Environment" data-name="Amazon Environment"><rect class="cls-1" width="320" height="640"/><g id="_Group_" data-name="&lt;Group&gt;"><path id="_Path_" data-name="&lt;Path&gt;" class="cls-2" d="M278,285.49c-4.53,27.87-51.35,43.44-104.55,34.78S80.77,282,85.31,254.13c2-12,8.24-29.09,23.44-34.06,8.38-2.75,20.71,3.06,31.42,1.61,14.91-2,32.09-5.19,49.69-2.33C243.07,228,282.53,257.63,278,285.49Z"/><path id="_Path_2" data-name="&lt;Path&gt;" class="cls-2" d="M250.32,262s27.48-2.22,30.81,29.15-23.87,66.34-114.09,60c0,0,35.81-6.11,52.46-33.59S220.89,266.15,250.32,262Z"/><path id="_Path_3" data-name="&lt;Path&gt;" class="cls-2" d="M97.09,283.36c-.83,0-14.44,11.93-21.93,14.15s-12.49,19.71,5.83,15,13.6-6.1,30.26-6.94,23.59-7.49,23.59-7.49Z"/><path id="_Path_4" data-name="&lt;Path&gt;" class="cls-2" d="M129.52,222c3.33-4.89,1-12.37,1-12.37-4.17-.64-7.45,1.8-9.22,3.58A45.42,45.42,0,0,0,60.74,217c-5.63-4.23-8.62-1.75-8.62-1.75-2.06,6.84-.21,10.69,1.22,12.49a38.6,38.6,0,0,0-3.72,16.52c0,22.53,19.45,40.8,43.44,40.8s43.45-18.27,43.45-40.8A38.89,38.89,0,0,0,129.52,222Z"/><path id="_Path_5" data-name="&lt;Path&gt;" class="cls-3" d="M55.94,265.9s-9.17-20.12,3.74-19.43,13.19,5.69,18.74,3.75,7.77-5.55,13.6-4.44,11.24,5.41,19.71,2.77,10.13-9.43,15.55-6.38,4.16,14.57,4,26.93,7.27,22.52,13,24c0,0,25.29,6,29.77,7,4.13,1,44.87,20.67,44.83,20.68-45.39,7.91-91.3-14.12-91.54-14.12-.41,0-24.84-14.57-30.53-21.65A45.58,45.58,0,0,1,55.94,265.9Z"/><path id="_Path_6" data-name="&lt;Path&gt;" class="cls-4" d="M93.2,253.45c0,1.42-2.64,4.23-5.9,4.23s-5.9-2.81-5.9-4.23,2.65-2.57,5.9-2.57S93.2,252,93.2,253.45Z"/><ellipse id="_Path_7" data-name="&lt;Path&gt;" class="cls-5" cx="91.02" cy="253.66" rx="1.21" ry="0.69"/><path id="_Path_8" data-name="&lt;Path&gt;" class="cls-2" d="M181.2,302.09s-11.66-.41-36.64,14.3S111,330,111,330a9.36,9.36,0,0,1-9.44-3.33c-5.48-7.15,13.88-10.55,27.48-21.93s15.55-13.05,16.66-12.77S177.87,290.44,181.2,302.09Z"/><path id="_Path_9" data-name="&lt;Path&gt;" class="cls-6" d="M54.2,226.1c-.26.15-2.64-4.23-.76-9.09A6.7,6.7,0,0,1,55.87,224,3.31,3.31,0,0,1,54.2,226.1Z"/><path id="_Path_10" data-name="&lt;Path&gt;" class="cls-6" d="M129.7,210.91s2.29,6.94-1.31,9.78C128.39,220.69,123.53,218.12,129.7,210.91Z"/><circle id="_Path_11" data-name="&lt;Path&gt;" class="cls-6" cx="66.9" cy="255.49" r="0.52"/><circle id="_Path_12" data-name="&lt;Path&gt;" class="cls-6" cx="72.83" cy="255.08" r="0.52"/><circle id="_Path_13" data-name="&lt;Path&gt;" class="cls-6" cx="72.68" cy="258.56" r="0.78"/><circle id="_Path_14" data-name="&lt;Path&gt;" class="cls-6" cx="104.53" cy="252.27" r="0.78"/><circle id="_Path_15" data-name="&lt;Path&gt;" class="cls-6" cx="75.75" cy="256.22" r="0.36"/><circle id="_Path_16" data-name="&lt;Path&gt;" class="cls-6" cx="101.77" cy="258.93" r="0.36"/><circle id="_Path_17" data-name="&lt;Path&gt;" class="cls-6" cx="100.05" cy="253.05" r="0.36"/><circle id="_Path_18" data-name="&lt;Path&gt;" class="cls-6" cx="67.58" cy="257.68" r="0.36"/><circle id="_Path_19" data-name="&lt;Path&gt;" class="cls-6" cx="62.42" cy="255.7" r="0.36"/><circle id="_Path_20" data-name="&lt;Path&gt;" class="cls-6" cx="107.86" cy="256.85" r="0.36"/><circle id="_Path_21" data-name="&lt;Path&gt;" class="cls-6" cx="100.31" cy="255.86" r="0.36"/><circle id="_Path_22" data-name="&lt;Path&gt;" class="cls-6" cx="111.66" cy="252.06" r="0.36"/><circle id="_Path_23" data-name="&lt;Path&gt;" class="cls-6" cx="115.41" cy="253.05" r="0.36"/><circle id="_Path_24" data-name="&lt;Path&gt;" class="cls-6" cx="97.35" cy="257.32" r="0.47"/><circle id="_Path_25" data-name="&lt;Path&gt;" class="cls-6" cx="103.8" cy="256.38" r="0.57"/><circle id="_Path_26" data-name="&lt;Path&gt;" class="cls-6" cx="64.45" cy="258.25" r="0.57"/><circle id="_Path_27" data-name="&lt;Path&gt;" class="cls-6" cx="112.08" cy="255.18" r="0.57"/><circle id="_Path_28" data-name="&lt;Path&gt;" class="cls-6" cx="108.85" cy="253.72" r="0.52"/><circle id="_Path_29" data-name="&lt;Path&gt;" class="cls-6" cx="66.17" cy="253" r="0.52"/><circle id="_Path_30" data-name="&lt;Path&gt;" class="cls-6" cx="97.3" cy="251.33" r="0.52"/><circle id="_Path_31" data-name="&lt;Path&gt;" class="cls-6" cx="69.71" cy="252.48" r="0.42"/><circle id="_Path_32" data-name="&lt;Path&gt;" class="cls-6" cx="78.82" cy="259.61" r="0.47"/><circle id="_Path_33" data-name="&lt;Path&gt;" class="cls-6" cx="58.68" cy="254.45" r="0.47"/><circle id="_Path_34" data-name="&lt;Path&gt;" class="cls-6" cx="62.68" cy="251.69" r="0.36"/><g id="_Group_2" data-name="&lt;Group&gt;"><path class="cls-7" d="M70.05,255.24a65.86,65.86,0,0,0-9.87-3.55,72.17,72.17,0,0,0-10.32-2c-1.74-.25-3.49-.34-5.25-.45-.87,0-1.75,0-2.63,0H40.66l-1.32.07a55.78,55.78,0,0,0-10.43,1.48A55.64,55.64,0,0,1,39.33,249l1.32-.1H42c.88,0,1.76,0,2.64,0,1.77.08,3.53.13,5.29.35a71,71,0,0,1,10.43,1.85,65.9,65.9,0,0,1,10.07,3.4Z"/></g><g id="_Group_3" data-name="&lt;Group&gt;"><path class="cls-7" d="M69.61,256.54l-5.16-.76c-1.71-.23-3.41-.45-5.12-.65-3.41-.41-6.83-.74-10.26-1a98.49,98.49,0,0,0-10.31-.2,40,40,0,0,0-5.12.5,12.62,12.62,0,0,0-4.84,1.66,13.1,13.1,0,0,1,4.82-1.77,42,42,0,0,1,5.13-.6,99.06,99.06,0,0,1,10.34,0c3.44.15,6.88.42,10.31.76s6.91.75,10.21,1.19Z"/></g><g id="_Group_4" data-name="&lt;Group&gt;"><path class="cls-7" d="M69.79,258c-3.32-.18-6.67-.18-10-.1s-6.68.31-10,.71A62.92,62.92,0,0,0,40,260.42a30.72,30.72,0,0,0-9.18,3.92,30.79,30.79,0,0,1,9.12-4.12,64.62,64.62,0,0,1,9.84-2c3.33-.47,6.67-.75,10-.91s6.71-.22,10.08-.11Z"/></g><g id="_Group_5" data-name="&lt;Group&gt;"><path class="cls-7" d="M104.19,252.83a66.32,66.32,0,0,1,10.07-3.41,72.45,72.45,0,0,1,10.44-1.85c1.75-.21,3.52-.27,5.28-.35.88,0,1.77,0,2.65,0l1.32,0,1.32.1A55.6,55.6,0,0,1,145.7,249a55.75,55.75,0,0,0-10.44-1.47l-1.31-.08h-1.32c-.88,0-1.76,0-2.64,0-1.75.11-3.51.2-5.25.44A71.1,71.1,0,0,0,114.42,250a65,65,0,0,0-9.86,3.55Z"/></g><g id="_Group_6" data-name="&lt;Group&gt;"><path class="cls-7" d="M105,254c3.3-.44,6.8-.87,10.21-1.2s6.86-.6,10.31-.76a101.69,101.69,0,0,1,10.33,0,40.48,40.48,0,0,1,5.14.61,12.86,12.86,0,0,1,4.81,1.76,12.91,12.91,0,0,0-4.83-1.66,42,42,0,0,0-5.13-.5,98.36,98.36,0,0,0-10.3.21c-3.43.22-6.85.56-10.27,1-1.7.2-3.41.42-5.11.66l-5.16.75Z"/></g><g id="_Group_7" data-name="&lt;Group&gt;"><path class="cls-7" d="M104.77,255.49c3.37-.11,6.72,0,10.07.11s6.7.45,10,.92a66.22,66.22,0,0,1,9.85,2,30.81,30.81,0,0,1,9.12,4.13,31,31,0,0,0-9.18-3.93,65.8,65.8,0,0,0-9.84-1.82c-3.32-.4-6.65-.62-10-.7s-6.69-.08-10,.1Z"/></g><path id="_Path_35" data-name="&lt;Path&gt;" class="cls-2" d="M219.23,308.9c-1.42-.88-18,11.65-35,14.43s-20.54,5.83-14.71,11.38,51.63-2.22,51.63-2.22S231.44,316.39,219.23,308.9Z"/><ellipse id="_Path_36" data-name="&lt;Path&gt;" class="cls-4" cx="73.34" cy="238.77" rx="6.08" ry="7.75"/><ellipse id="_Path_37" data-name="&lt;Path&gt;" class="cls-4" cx="106.17" cy="238.77" rx="6.08" ry="7.75"/><circle id="_Path_38" data-name="&lt;Path&gt;" class="cls-5" cx="75.59" cy="237.02" r="1.83"/><circle id="_Path_39" data-name="&lt;Path&gt;" class="cls-5" cx="108.42" cy="237.02" r="1.83"/><path class="cls-8" d="M77.1,271.46l7.75-4.69a8.46,8.46,0,0,1,8.56-.1l7.94,4.54"/><path class="cls-2" d="M77.44,228.58s-4.17,10.18-13.33,11.55l-.86-6.7Z"/><path class="cls-2" d="M101,226.81s4.17,10.18,13.32,11.54l.86-6.69Z"/></g><text class="cls-9" transform="translate(81.76 434.96)">NICE T<tspan class="cls-10" x="99.79" y="0">R</tspan><tspan class="cls-11" x="120.81" y="0">Y</tspan><tspan class="cls-12" x="141" y="0">!</tspan></text><text class="cls-13" transform="translate(28.4 473.31)">Ma<tspan class="cls-14" x="31.44" y="0">k</tspan><tspan x="44.18" y="0">e su</tspan><tspan class="cls-15" x="86.82" y="0">r</tspan><tspan x="95.26" y="0">e </tspan><tspan class="cls-16" x="113.54" y="0">y</tspan><tspan x="125.2" y="0">ou </tspan><tspan class="cls-15" x="157.7" y="0">r</tspan><tspan class="cls-17" x="166.14" y="0">e</tspan><tspan x="178.56" y="0">vi</tspan><tspan class="cls-17" x="196.54" y="0">e</tspan><tspan x="208.96" y="0">w t</tspan><tspan class="cls-18" x="242.06" y="0">h</tspan><tspan x="256" y="0">e </tspan><tspan x="1" y="24">animal </tspan><tspan class="cls-17" x="78.18" y="24">f</tspan><tspan class="cls-18" x="85.72" y="24">a</tspan><tspan class="cls-19" x="98.18" y="24">c</tspan><tspan x="110.16" y="24">ts </tspan><tspan class="cls-18" x="135.14" y="24">a</tspan><tspan x="147.6" y="24">gain be</tspan><tspan class="cls-20" x="225.86" y="24">f</tspan><tspan x="233.46" y="24">o</tspan><tspan class="cls-15" x="246.56" y="24">r</tspan><tspan class="cls-21" x="255" y="24">e </tspan><tspan class="cls-16" x="38.73" y="48">y</tspan><tspan x="50.39" y="48">ou </tspan><tspan class="cls-15" x="82.89" y="48">r</tspan><tspan x="91.33" y="48">et</tspan><tspan class="cls-22" x="112.65" y="48">r</tspan><tspan x="121.57" y="48">y t</tspan><tspan class="cls-18" x="147.89" y="48">h</tspan><tspan x="161.83" y="48">e qui</tspan><tspan class="cls-18" x="213.67" y="48">z</tspan><tspan x="224.65" y="48">.</tspan></text></g></g></svg>