<svg xmlns="http://www.w3.org/2000/svg" xmlns:xlink="http://www.w3.org/1999/xlink" viewBox="0 0 320 640"><defs><style>.cls-1{fill:url(#radial-gradient);}.cls-2{font-size:29px;}.cls-17,.cls-2,.cls-6{fill:#fff;}.cls-2,.cls-6{font-family:Montserrat-Bold, Montserrat;font-weight:700;}.cls-3{letter-spacing:-0.01em;}.cls-4{letter-spacing:0.02em;}.cls-5{letter-spacing:0em;}.cls-6{font-size:20px;}.cls-7{letter-spacing:-0.02em;}.cls-8{letter-spacing:-0.01em;}.cls-9{letter-spacing:-0.01em;}.cls-10{letter-spacing:-0.01em;}.cls-11{letter-spacing:0.01em;}.cls-12{letter-spacing:0.01em;}.cls-13{letter-spacing:-0.01em;}.cls-14{letter-spacing:0em;}.cls-15{letter-spacing:0.01em;}.cls-16{fill:#1a1a1a;}.cls-18{fill:#231f20;}.cls-19{fill:none;stroke:#58595b;stroke-miterlimit:10;}</style><radialGradient id="radial-gradient" cx="160" cy="320" r="252.98" gradientUnits="userSpaceOnUse"><stop offset="0" stop-color="#59afc5"/><stop offset="0.23" stop-color="#4aa8c0"/><stop offset="0.66" stop-color="#2396b2"/><stop offset="1" stop-color="#0085a6"/></radialGradient></defs><title>Asset 44</title><g id="Layer_2" data-name="Layer 2"><g id="Amazon_Environment" data-name="Amazon Environment"><rect class="cls-1" width="320" height="640"/><text class="cls-2" transform="translate(80.25 437.88)">NICE T<tspan class="cls-3" x="99.79" y="0">R</tspan><tspan class="cls-4" x="120.81" y="0">Y</tspan><tspan class="cls-5" x="141" y="0">!</tspan></text><text class="cls-6" transform="translate(26.88 476.23)">Ma<tspan class="cls-7" x="31.44" y="0">k</tspan><tspan x="44.18" y="0">e su</tspan><tspan class="cls-8" x="86.82" y="0">r</tspan><tspan x="95.26" y="0">e </tspan><tspan class="cls-9" x="113.54" y="0">y</tspan><tspan x="125.2" y="0">ou </tspan><tspan class="cls-8" x="157.7" y="0">r</tspan><tspan class="cls-10" x="166.14" y="0">e</tspan><tspan x="178.56" y="0">vi</tspan><tspan class="cls-10" x="196.54" y="0">e</tspan><tspan x="208.96" y="0">w t</tspan><tspan class="cls-11" x="242.06" y="0">h</tspan><tspan x="256" y="0">e </tspan><tspan x="1" y="24">animal </tspan><tspan class="cls-10" x="78.18" y="24">f</tspan><tspan class="cls-11" x="85.72" y="24">a</tspan><tspan class="cls-12" x="98.18" y="24">c</tspan><tspan x="110.16" y="24">ts </tspan><tspan class="cls-11" x="135.14" y="24">a</tspan><tspan x="147.6" y="24">gain be</tspan><tspan class="cls-13" x="225.86" y="24">f</tspan><tspan x="233.46" y="24">o</tspan><tspan class="cls-8" x="246.56" y="24">r</tspan><tspan class="cls-14" x="255" y="24">e </tspan><tspan class="cls-9" x="38.73" y="48">y</tspan><tspan x="50.39" y="48">ou </tspan><tspan class="cls-8" x="82.89" y="48">r</tspan><tspan x="91.33" y="48">et</tspan><tspan class="cls-15" x="112.65" y="48">r</tspan><tspan x="121.57" y="48">y t</tspan><tspan class="cls-11" x="147.89" y="48">h</tspan><tspan x="161.83" y="48">e qui</tspan><tspan class="cls-11" x="213.67" y="48">z</tspan><tspan x="224.65" y="48">.</tspan></text><g id="Layer_2-2" data-name="Layer 2"><g id="Orca"><path class="cls-16" d="M247.76,186.76c-10.64-19.55-8.51-28.06-8.51-28.06,17-38.68,2.55-59.52-2.13-70.15s-7.65-3-13.17,12.76-14.45,14.88-14.45,14.88c-26.2-24.54-72-25.55-101.44-7.86l-6,4.82a5.57,5.57,0,0,1,3.71,2.68c2,3.88-2.16,10-9.25,13.58a20.63,20.63,0,0,1-11.22,2.49C66.79,164.45,78.12,177,78.12,177c.39.26.77.47,1.16.7,3.65-2.55,14.68-8.42,39.54-7.92,31.89.64,33.6,7,40.4,20.41s15.94,55.69,15.09,80.35c0,0-4.25,18.92,9.56,26.79s-39.74,25.51-58.55,11.16c0,0-.64-13.39-12.76-33.48s-43.68,2.55-43.68,2.55c21.68,3.19,4.14,21.36,25.19,29.65-13.18.39-17.24,10.56-22.64,18.18-3.51,4.91-10.74,8.49-10.74,8.49,33.7,27.86,46.92,19.25,63.77,5.11s36.14-5.11,53.15-6.8,34.44-13.18,57-43.37S258.39,206.32,247.76,186.76Z"/><path class="cls-17" d="M96.56,129.41c7.09-3.62,11.23-9.7,9.25-13.58a5.57,5.57,0,0,0-3.71-2.68l-8.25,6.65a54,54,0,0,0-6,7.87c-.89,1.45-1.71,2.85-2.5,4.23A20.63,20.63,0,0,0,96.56,129.41Z"/><path class="cls-17" d="M183.87,297.31c-13.81-7.87-9.56-26.79-9.56-26.79.85-24.66-8.29-67-15.09-80.35s-8.51-19.77-40.4-20.41c-24.86-.5-35.89,5.33-39.54,7.92,30,18.33,62.3,7.07,62.3,7.07-14,10.52-13.68,51.58,2.23,69.51,17.54,19.77,22,25.83,11.8,41.77s-30.29,12.44-30.29,12.44C144.13,322.82,197.7,305.17,183.87,297.31Z"/><circle class="cls-18" cx="126.27" cy="146" r="5.59"/><ellipse class="cls-18" cx="85.94" cy="137.71" rx="5.59" ry="3.98" transform="translate(-75.49 154.78) rotate(-64.07)"/><circle class="cls-17" cx="128.5" cy="144.25" r="1.59"/><circle class="cls-17" cx="87.69" cy="136.75" r="1.59"/><ellipse class="cls-17" cx="135.65" cy="127.13" rx="7.89" ry="14.41" transform="translate(-39.25 190.15) rotate(-62.96)"/><path class="cls-19" d="M223.48,186.94s18.89,23.8,13.18,44.26-24.56,27-26,26.17-.32-28.06-10-41.54"/></g></g></g></g></svg>