<?xml version="1.0" encoding="utf-8"?>
<!-- Generator: Adobe Illustrator 19.0.0, SVG Export Plug-In . SVG Version: 6.00 Build 0)  -->
<svg version="1.1" id="Layer_1" xmlns="http://www.w3.org/2000/svg" xmlns:xlink="http://www.w3.org/1999/xlink" x="0px" y="0px"
	 viewBox="140 -300 320 640" style="enable-background:new 140 -300 320 640;" xml:space="preserve">
<style type="text/css">
	.st0{fill:url(#SVGID_1_);}
	.st1{fill:#1E130D;}
	.st2{fill:#8B5E3C;}
	.st3{fill:#C49A6C;}
	.st4{clip-path:url(#SVGID_3_);}
	.st5{fill:#3C2415;}
	.st6{fill:none;stroke:#1E130D;stroke-width:1.27;stroke-miterlimit:10;}
	.st7{fill:#231F20;}
	.st8{fill:#FFFFFF;}
	.st9{fill:none;stroke:#1E130D;stroke-miterlimit:10;}
	.st10{fill:none;stroke:#A97C50;stroke-miterlimit:10;}
</style>
<title>Asset 46</title>
<radialGradient id="SVGID_1_" cx="300" cy="20" r="252.9822" gradientTransform="matrix(1 0 0 -1 0 40)" gradientUnits="userSpaceOnUse">
	<stop  offset="0" style="stop-color:#59AFC5"/>
	<stop  offset="0.23" style="stop-color:#4AA8C0"/>
	<stop  offset="0.66" style="stop-color:#2396B2"/>
	<stop  offset="1" style="stop-color:#0085A6"/>
</radialGradient>
<rect x="140" y="-300" class="st0" width="320" height="640"/>
<g id="Layer_2-2">
	<g id="Orca">
		<path class="st1" d="M247.3-1.3c0,0-9.1-0.5-15.7,5.4c-0.9,0.8-1,2.2-0.1,3.1c0.5,0.5,1.1,0.7,1.8,0.7c2.8-0.2,6,0.1,7.8,2
			c0.4,0.5,1,0.7,1.6,0.8c2.6,0.1,9.2,0.5,12,2c0.5,0.3,1.1,0.4,1.7,0.2c2.1-0.6,6.9-2.3,9-6.8C268.1,0.4,247.3-1.3,247.3-1.3z"/>
		<path class="st1" d="M311.3-1.3c0,0,9.1-0.5,15.7,5.4c0.9,0.8,1,2.2,0.2,3.1c-0.5,0.5-1.1,0.8-1.8,0.7c-2.8-0.2-6,0.1-7.8,2
			c-0.4,0.5-1,0.7-1.6,0.8c-2.6,0.1-9.2,0.5-12,2c-0.5,0.3-1.1,0.4-1.7,0.2c-2.1-0.6-6.9-2.3-9-6.8C290.6,0.4,311.3-1.3,311.3-1.3z"
			/>
		<ellipse class="st2" cx="278.1" cy="-157" rx="47.1" ry="44.1"/>
		<path class="st2" d="M237.3-193.7c4.4,0.9,7.1,6.1,6.4,11.9l8.9-5.2c-3.3-2.7-6.1-5.8-8.3-9.4c-2.7-4.5-11.3-1.4-12.5,3.9
			C233.3-193.6,235.3-194.1,237.3-193.7z"/>
		<path class="st3" d="M239.3-179.3l4.3-2.5c0.8-5.8-2-11-6.4-11.9c-1.9-0.3-3.9,0.1-5.5,1.3c-0.3,1.2-0.2,2.5,0.3,3.6
			C235-181.6,239.3-179.3,239.3-179.3z"/>
		<path class="st2" d="M318-195.2c-4.4,0.9-7.1,6.1-6.4,11.9l-8.9-5.2c3.3-2.6,6.1-5.8,8.3-9.4c2.7-4.5,11.2-1.4,12.5,3.9
			C322-195.1,320-195.5,318-195.2z"/>
		<path class="st3" d="M316-180.8l-4.3-2.5c-0.8-5.8,2-11,6.4-11.9c1.9-0.3,3.9,0.1,5.5,1.3c0.3,1.2,0.2,2.5-0.3,3.6
			C320.3-183,316-180.8,316-180.8z"/>
		<g>
			<defs>
				<path id="SVGID_2_" d="M300-24.7c0,0,34.4-11,47.1-35.2s27.6-46.2,44.5-42.8s25.9,28.4,9.8,49.6S339-6.5,315.3-9.5L300-24.7z"/>
			</defs>
			<clipPath id="SVGID_3_">
				<use xlink:href="#SVGID_2_"  style="overflow:visible;"/>
			</clipPath>
			<g class="st4">
				<path class="st5" d="M300-24.7c0,0,34.4-11,47.1-35.2s27.6-46.2,44.5-42.8s25.9,28.4,9.8,49.6S339-6.5,315.3-9.5L300-24.7z"/>
				<path class="st6" d="M405.8-109.3v81.8"/>
				<path class="st6" d="M402-109.3v81.8"/>
				<path class="st6" d="M398.2-109.3v81.8"/>
				<path class="st6" d="M394.4-109.3v81.8"/>
				<path class="st6" d="M390.5-109.3v81.8"/>
				<path class="st6" d="M386.7-109.3v81.8"/>
				<path class="st6" d="M382.9-109.3v81.8"/>
				<path class="st6" d="M379.1-109.3v81.8"/>
				<path class="st6" d="M375.7-99.2v81.8"/>
				<path class="st6" d="M372.3-99.2v81.8"/>
				<path class="st6" d="M368.5-99.2v81.8"/>
				<path class="st6" d="M364.7-99.2v81.8"/>
				<path class="st6" d="M360.9-99.2v81.8"/>
				<path class="st6" d="M357-99.2v81.8"/>
				<path class="st6" d="M353.3-99.2v81.8"/>
				<path class="st6" d="M349.4-96.6v81.8"/>
				<path class="st6" d="M345.4-76.3V5.6"/>
				<path class="st6" d="M341.6-76.3V5.6"/>
				<path class="st6" d="M337.7-73.7V8.1"/>
				<line class="st6" x1="327.8" y1="-12" x2="419.8" y2="-55.3"/>
				<line class="st6" x1="325.7" y1="-16" x2="417.7" y2="-59.3"/>
				<line class="st6" x1="323.5" y1="-20.1" x2="415.6" y2="-63.3"/>
				<line class="st6" x1="321.4" y1="-24.1" x2="413.4" y2="-67.4"/>
				<line class="st6" x1="319.3" y1="-28.1" x2="411.3" y2="-71.4"/>
				<line class="st6" x1="325.7" y1="-35.8" x2="417.7" y2="-79"/>
				<line class="st6" x1="323.5" y1="-39.8" x2="415.6" y2="-83.1"/>
				<line class="st6" x1="321.4" y1="-43.8" x2="413.4" y2="-87.1"/>
				<line class="st6" x1="319.3" y1="-47.9" x2="411.3" y2="-91.1"/>
				<line class="st6" x1="317.2" y1="-51.9" x2="409.2" y2="-95.1"/>
				<line class="st6" x1="330.3" y1="-62.7" x2="422.3" y2="-105.9"/>
				<line class="st6" x1="328.2" y1="-66.7" x2="420.2" y2="-110"/>
				<line class="st6" x1="326.1" y1="-70.8" x2="418.1" y2="-114"/>
				<line class="st6" x1="324" y1="-74.8" x2="416" y2="-118"/>
				<line class="st6" x1="321.8" y1="-78.8" x2="413.9" y2="-122.1"/>
			</g>
		</g>
		<path class="st2" d="M287.7,7.9h-19.2c-29.5,0-52.4-20.4-48.9-43.5l9.6-63c3-19.5,24-34.2,48.9-34.2l0,0
			c24.9,0,45.9,14.7,48.9,34.2l9.6,63C340.1-12.5,317.3,7.9,287.7,7.9z"/>
		<path class="st1" d="M287.2-150.1l-3.6,5.2c-2.1,3.1-7.5,3.1-9.7,0l-3.6-5.2c-2.1-3.1,0.5-7,4.8-7h7.2
			C286.6-157.1,289.3-153.2,287.2-150.1z"/>
		<ellipse class="st7" cx="258.8" cy="-169.9" rx="5.4" ry="7.8"/>
		<circle class="st8" cx="261.4" cy="-171.6" r="1.8"/>
		<ellipse class="st7" cx="294.5" cy="-169.9" rx="5.4" ry="7.8"/>
		<circle class="st8" cx="297.1" cy="-171.6" r="1.8"/>
		<path class="st9" d="M264.2-154.3c0,0-26.3-3.4-41.5,1.9"/>
		<path class="st9" d="M263.4-151.7c0,0-29,2.2-39.3,8.4"/>
		<path class="st9" d="M263.9-148.2c0,0-29.8,7.1-36.5,15.7"/>
		<path class="st9" d="M293.2-154.3c0,0,26.3-3.4,41.5,1.9"/>
		<path class="st9" d="M293.9-151.7c0,0,29,2.3,39.3,8.4"/>
		<path class="st9" d="M293.4-148.2c0,0,29.8,7.1,36.5,15.8"/>
		<path class="st8" d="M271.1-138.2v8.4h14.1v-8.6c-2.3,0.1-4.7-0.1-7-0.6C278.2-139.1,276.6-138.2,271.1-138.2z"/>
		<path class="st9" d="M263.8-134.9c7-5.8,9.5-2.7,14.4-4.2v-11.3"/>
		<path class="st9" d="M292.9-134.6c-6.5-6.8-9.5-2.9-14.4-4.5v-11.3"/>
		<line class="st9" x1="278.3" y1="-130" x2="278.3" y2="-139.1"/>
		<path class="st10" d="M238.8-98.4c-0.1-0.4,2.1-12.6,19.6-15.3"/>
		<path class="st10" d="M262-100.8c0,0-5.1,7.5-7.5,14.5c-0.4,1.2-1.7,1.9-2.9,1.5"/>
		<path class="st1" d="M261.4-100.4c-2.2-1.5-7-5.8-3.4-13.2c0.1-0.1,0.1-0.2,0.2-0.3c2.8-2.3,6.5-3.5,10.1-3.2
			c0.4,0.1,0.8,0.5,0.7,0.9c0,0.3-0.2,0.5-0.4,0.6l-0.3,0.1c-0.4,0.2-0.6,0.7-0.4,1.1c0,0,0,0,0,0c0.1,0.2,0.3,0.4,0.6,0.4l1.8,0.3
			c0.4,0.1,0.8,0.4,0.7,0.9c0,0.2-0.2,0.4-0.3,0.6l-1,0.8c-0.3,0.3-0.4,0.8-0.1,1.1c0,0,0,0,0,0c0.2,0.2,0.4,0.3,0.7,0.3l0,0
			c0.4,0,0.8,0.3,0.9,0.7c0,0,0,0,0,0c0,0.3-0.1,0.5-0.3,0.7l-2.6,2.2l-0.1,0.1c-0.6,0.3-4.4,2.4-5.4,5.4c-0.1,0.4-0.5,0.7-1,0.6
			c0,0,0,0,0,0C261.6-100.3,261.5-100.3,261.4-100.4z"/>
		<path class="st10" d="M321.1-96.6c0.1-0.4-1.3-12.7-18.7-16.4"/>
		<path class="st10" d="M297.9-101.3c0,0,4.7,7.8,6.7,14.9c0.3,1.2,1.6,2,2.8,1.7"/>
		<path class="st1" d="M298.7-100.5c2.2-1.3,7.2-5.3,4.1-12.7c0-0.1-0.1-0.2-0.2-0.3c-2.6-2.4-6.1-3.8-9.7-3.6
			c-0.4,0-0.8,0.4-0.7,0.8c0,0.3,0.2,0.5,0.4,0.6l0.3,0.1c0.4,0.2,0.5,0.7,0.3,1.1c0,0,0,0,0,0c-0.1,0.2-0.3,0.4-0.6,0.4l-1.8,0.1
			c-0.4,0-0.8,0.4-0.8,0.8c0,0.2,0.1,0.5,0.3,0.6l0.9,0.8c0.3,0.3,0.4,0.8,0.1,1.1c0,0,0,0,0,0c-0.2,0.2-0.4,0.3-0.7,0.3l0,0
			c-0.4-0.1-0.8,0.2-0.9,0.7c0,0.3,0.1,0.5,0.3,0.7l2.5,2.3c0,0,0.1,0.1,0.1,0.1c0.5,0.3,4.2,2.6,5,5.5c0.1,0.4,0.5,0.7,0.9,0.6
			C298.5-100.4,298.6-100.4,298.7-100.5z"/>
	</g>
</g>
<path class="st2" d="M264.8-150.7c0,0-5.9,10.8-17.2,11C247.6-139.7,255-154.5,264.8-150.7z"/>
<path class="st2" d="M290.5-150.7c0,0,5.9,10.8,17.2,11C307.6-139.7,300.2-154.5,290.5-150.7z"/>
<g>
	<g>
		<path class="st8" d="M243.2,69.6l-1.9-4.6h-11l-1.9,4.6h-5.5l10.3-23.8h5.5l10.2,23.8H243.2z M232,60.7h7.5l-3.7-9.2L232,60.7z"/>
		<path class="st8" d="M251.4,45.8h5.4v19.1H267v4.7h-15.6V45.8z"/>
		<path class="st8" d="M270.1,45.8h6l7.4,14.6l7.3-14.6h6v23.8H292V53.5l-6.8,13.7h-3.5L275,53.5v16.1h-4.8V45.8z"/>
		<path class="st8" d="M319.7,47.1c1.9,1.1,3.5,2.5,4.6,4.4c1.1,1.9,1.7,3.9,1.7,6.2c0,2.3-0.6,4.4-1.7,6.3
			c-1.1,1.9-2.7,3.4-4.6,4.4c-2,1.1-4.1,1.6-6.5,1.6c-2.4,0-4.5-0.5-6.5-1.6c-1.9-1.1-3.5-2.5-4.6-4.4c-1.1-1.9-1.7-4-1.7-6.3
			c0-2.3,0.6-4.4,1.7-6.2c1.1-1.9,2.7-3.3,4.6-4.4s4.1-1.6,6.5-1.6C315.6,45.5,317.7,46,319.7,47.1z M309.6,51.2
			c-1.1,0.7-2,1.6-2.7,2.7c-0.7,1.2-1,2.4-1,3.8c0,1.4,0.3,2.7,1,3.8s1.6,2.1,2.7,2.8c1.1,0.7,2.3,1,3.7,1s2.5-0.3,3.6-1
			c1.1-0.7,2-1.6,2.6-2.8c0.6-1.2,1-2.5,1-3.9c0-1.4-0.3-2.7-1-3.8s-1.5-2.1-2.6-2.7c-1.1-0.7-2.3-1-3.6-1S310.7,50.5,309.6,51.2z"
			/>
		<path class="st8" d="M341.3,50.7c-1.4-0.4-2.5-0.7-3.5-0.7c-0.9,0-1.7,0.2-2.2,0.5c-0.5,0.3-0.8,0.8-0.8,1.5
			c0,0.8,0.4,1.5,1.2,1.9c0.8,0.4,2,0.9,3.6,1.4c1.6,0.5,3,1,4,1.4c1.1,0.5,2,1.2,2.7,2.1s1.1,2.2,1.1,3.8c0,1.5-0.4,2.8-1.2,3.9
			s-1.9,1.9-3.3,2.5c-1.4,0.6-3,0.8-4.8,0.8c-1.9,0-3.8-0.3-5.7-1c-1.9-0.7-3.5-1.6-4.8-2.8l2.1-4.4c1.2,1.1,2.6,2,4.1,2.6
			s3,1,4.3,1c1.1,0,2-0.2,2.6-0.6c0.6-0.4,0.9-1,0.9-1.8c0-0.6-0.2-1.1-0.6-1.5c-0.4-0.4-1-0.7-1.6-1c-0.6-0.2-1.5-0.5-2.7-0.8
			c-1.6-0.5-3-0.9-4-1.4c-1-0.5-1.9-1.1-2.7-2.1S329,54,329,52.5c0-1.4,0.4-2.7,1.2-3.8c0.8-1.1,1.8-1.9,3.2-2.5s3-0.9,4.8-0.9
			c1.6,0,3.2,0.2,4.8,0.7c1.6,0.5,3,1.1,4.2,1.9l-2.1,4.5C344,51.7,342.7,51.1,341.3,50.7z"/>
		<path class="st8" d="M348.8,45.8h19.9v4.6h-7.3v19.2h-5.4V50.4h-7.2V45.8z"/>
		<path class="st8" d="M375.2,65.3c0.5,0.5,0.7,1.1,0.7,1.9c0,0.8-0.2,1.4-0.7,2c-0.5,0.5-1.1,0.8-1.9,0.8c-0.7,0-1.4-0.3-1.9-0.8
			c-0.5-0.5-0.7-1.2-0.7-1.9c0-0.8,0.3-1.4,0.7-1.9c0.5-0.5,1.1-0.7,1.9-0.7C374.1,64.5,374.7,64.8,375.2,65.3z M370.9,46h5v6
			l-0.9,9.6h-3.2l-0.9-9.6V46z"/>
	</g>
	<g>
		<path class="st8" d="M183.4,86.4h2.7V99h-2.6l-6.1-8.1V99h-2.7V86.4h2.6l6.1,8.1V86.4z"/>
		<path class="st8" d="M191.3,85.5c0.3,0.3,0.4,0.7,0.4,1.1c0,0.5-0.1,0.8-0.4,1.1c-0.3,0.3-0.6,0.4-1.1,0.4c-0.4,0-0.8-0.1-1.1-0.4
			c-0.3-0.3-0.4-0.7-0.4-1.1c0-0.5,0.1-0.8,0.4-1.1c0.3-0.3,0.6-0.4,1.1-0.4C190.6,85,191,85.2,191.3,85.5z M188.8,89.3h2.8V99h-2.8
			V89.3z"/>
		<path class="st8" d="M198.6,91.6c-0.7,0-1.3,0.2-1.7,0.7c-0.4,0.5-0.7,1.1-0.7,1.9c0,0.8,0.2,1.4,0.6,1.9c0.4,0.5,1,0.7,1.7,0.7
			c1,0,1.8-0.4,2.3-1.1l1.9,1.3c-0.4,0.7-1,1.2-1.7,1.6c-0.7,0.4-1.6,0.6-2.6,0.6c-1,0-1.8-0.2-2.6-0.6s-1.3-1-1.7-1.7
			c-0.4-0.7-0.6-1.6-0.6-2.6c0-1,0.2-1.9,0.6-2.6s1-1.3,1.7-1.7c0.7-0.4,1.6-0.6,2.6-0.6c0.9,0,1.7,0.2,2.5,0.5
			c0.7,0.4,1.3,0.9,1.7,1.5l-1.9,1.4C200.2,91.9,199.4,91.6,198.6,91.6z"/>
		<path class="st8" d="M211.8,90.6c0.8,0.9,1.2,2.2,1.2,3.8c0,0.3,0,0.5,0,0.7H206c0.2,0.6,0.5,1.1,0.9,1.4c0.4,0.3,1,0.5,1.6,0.5
			c0.5,0,0.9-0.1,1.3-0.3c0.4-0.2,0.8-0.4,1.1-0.8l1.5,1.5c-0.5,0.6-1.1,1-1.8,1.3c-0.7,0.3-1.5,0.4-2.3,0.4c-1,0-1.9-0.2-2.7-0.6
			c-0.8-0.4-1.4-1-1.8-1.7c-0.4-0.7-0.6-1.6-0.6-2.6c0-1,0.2-1.9,0.6-2.6s1-1.3,1.8-1.7s1.6-0.6,2.6-0.6
			C209.8,89.2,211,89.7,211.8,90.6z M210.4,93.4c0-0.6-0.2-1.1-0.6-1.5c-0.4-0.4-0.9-0.6-1.5-0.6c-0.6,0-1.1,0.2-1.5,0.6
			s-0.7,0.9-0.8,1.5H210.4z"/>
		<path class="st8" d="M225,98.5c-0.4,0.2-0.8,0.4-1.2,0.5s-0.9,0.2-1.3,0.2c-0.9,0-1.6-0.3-2.2-0.8c-0.6-0.5-0.8-1.3-0.8-2.2v-4.5
			h-1.4v-1.9h1.4v-2.7h2.8v2.7h2.6v1.9h-2.6v4c0,0.7,0.3,1.1,0.9,1.1c0.4,0,0.9-0.1,1.4-0.4L225,98.5z"/>
		<path class="st8" d="M230.8,89.7c0.5-0.3,1.2-0.5,1.9-0.5v2.6c-0.1,0-0.2,0-0.4,0c-0.9,0-1.5,0.2-2,0.7c-0.5,0.5-0.7,1.1-0.7,1.8
			V99h-2.8v-9.7h2.8v1.7C229.8,90.5,230.3,90,230.8,89.7z"/>
		<path class="st8" d="M235.8,102.6c-0.5,0-1-0.1-1.4-0.2c-0.4-0.1-0.8-0.4-1.2-0.7l1.2-2c0.4,0.3,0.8,0.5,1.3,0.5
			c0.6,0,1-0.3,1.3-0.9l0.3-0.5l-4-9.5h2.9l2.5,6.7l2.3-6.7h2.8l-4.2,10.8C238.7,101.8,237.5,102.6,235.8,102.6z"/>
		<path class="st8" d="M246.2,96.7c0.3,0.3,0.4,0.6,0.4,1c0,0.4-0.1,0.8-0.4,1c-0.3,0.3-0.6,0.4-1,0.4c-0.4,0-0.7-0.1-1-0.4
			c-0.3-0.3-0.4-0.6-0.4-1c0-0.4,0.1-0.8,0.4-1c0.3-0.3,0.6-0.4,1-0.4C245.6,96.3,245.9,96.5,246.2,96.7z"/>
		<path class="st8" d="M252.9,86.4h3.2l3.9,7.7l3.9-7.7h3.1V99h-2.6v-8.5l-3.6,7.2h-1.8l-3.6-7.2V99h-2.6V86.4z"/>
		<path class="st8" d="M275.4,99v-1.1c-0.3,0.4-0.7,0.7-1.3,0.9c-0.5,0.2-1.1,0.3-1.8,0.3c-1,0-1.8-0.3-2.4-0.8
			c-0.6-0.6-0.9-1.3-0.9-2.2c0-0.9,0.3-1.6,1-2.1c0.6-0.5,1.6-0.8,2.7-0.8h2.7V93c0-0.5-0.2-0.9-0.5-1.2c-0.3-0.3-0.8-0.4-1.5-0.4
			c-0.9,0-1.9,0.3-2.9,0.8l-0.9-1.9c0.8-0.4,1.5-0.7,2.2-0.8c0.7-0.2,1.4-0.3,2.2-0.3c1.3,0,2.3,0.3,3,0.9c0.7,0.6,1.1,1.5,1.1,2.6
			l0,6.3H275.4z M274.6,96.8c0.4-0.3,0.7-0.6,0.8-1v-0.9h-2.2c-0.5,0-0.9,0.1-1.2,0.3c-0.3,0.2-0.4,0.5-0.4,0.8
			c0,0.4,0.1,0.7,0.4,0.9c0.3,0.2,0.6,0.3,1.1,0.3C273.7,97.2,274.2,97,274.6,96.8z"/>
		<path class="st8" d="M287,99l-2.3-3.9l-1.2,1.3V99h-2.8V85.7h2.8V93l3.5-3.7h3.1l-3.5,3.7l3.7,5.9H287z"/>
		<path class="st8" d="M298.9,90.6c0.8,0.9,1.2,2.2,1.2,3.8c0,0.3,0,0.5,0,0.7h-6.9c0.2,0.6,0.5,1.1,0.9,1.4c0.4,0.3,1,0.5,1.6,0.5
			c0.5,0,0.9-0.1,1.3-0.3c0.4-0.2,0.8-0.4,1.1-0.8l1.5,1.5c-0.5,0.6-1.1,1-1.8,1.3c-0.7,0.3-1.5,0.4-2.3,0.4c-1,0-1.9-0.2-2.7-0.6
			c-0.8-0.4-1.4-1-1.8-1.7c-0.4-0.7-0.6-1.6-0.6-2.6c0-1,0.2-1.9,0.6-2.6s1-1.3,1.8-1.7s1.6-0.6,2.6-0.6
			C296.9,89.2,298.1,89.7,298.9,90.6z M297.5,93.4c0-0.6-0.2-1.1-0.6-1.5c-0.4-0.4-0.9-0.6-1.5-0.6c-0.6,0-1.1,0.2-1.5,0.6
			s-0.7,0.9-0.8,1.5H297.5z"/>
		<path class="st8" d="M310.7,91.5c-0.5-0.2-1-0.2-1.4-0.2c-0.3,0-0.6,0.1-0.8,0.2s-0.3,0.3-0.3,0.5c0,0.3,0.1,0.5,0.4,0.6
			c0.3,0.1,0.7,0.3,1.3,0.5c0.7,0.2,1.2,0.4,1.7,0.6c0.4,0.2,0.8,0.5,1.2,0.9c0.3,0.4,0.5,0.9,0.5,1.5c0,1-0.4,1.7-1.1,2.2
			c-0.7,0.5-1.7,0.8-2.8,0.8c-0.8,0-1.6-0.1-2.3-0.4c-0.7-0.2-1.4-0.6-1.9-1l0.9-1.9c0.5,0.4,1,0.7,1.6,0.9s1.2,0.3,1.7,0.3
			c0.4,0,0.7-0.1,0.9-0.2c0.2-0.1,0.3-0.3,0.3-0.6c0-0.3-0.1-0.5-0.4-0.6c-0.3-0.2-0.7-0.3-1.4-0.5c-0.7-0.2-1.2-0.4-1.6-0.6
			c-0.4-0.2-0.8-0.5-1.1-0.9c-0.3-0.4-0.5-0.9-0.5-1.5c0-1,0.4-1.7,1.1-2.2c0.7-0.5,1.6-0.8,2.7-0.8c0.7,0,1.3,0.1,2,0.3
			c0.7,0.2,1.3,0.5,1.8,0.8l-1,1.9C311.7,91.9,311.2,91.7,310.7,91.5z"/>
		<path class="st8" d="M324.3,89.3V99h-2.8v-1.7c-0.7,1.2-1.7,1.8-3.2,1.8c-1.1,0-1.9-0.3-2.5-1s-0.9-1.6-0.9-2.7v-6.1h2.8v5.3
			c0,0.6,0.2,1.1,0.5,1.4c0.3,0.3,0.8,0.5,1.3,0.5c0.7,0,1.2-0.2,1.6-0.7c0.4-0.5,0.6-1,0.6-1.8v-4.8H324.3z"/>
		<path class="st8" d="M331.1,89.7c0.5-0.3,1.2-0.5,1.9-0.5v2.6c-0.1,0-0.2,0-0.4,0c-0.9,0-1.5,0.2-2,0.7c-0.5,0.5-0.7,1.1-0.7,1.8
			V99H327v-9.7h2.8v1.7C330.1,90.5,330.5,90,331.1,89.7z"/>
		<path class="st8" d="M342.2,90.6c0.8,0.9,1.2,2.2,1.2,3.8c0,0.3,0,0.5,0,0.7h-6.9c0.2,0.6,0.5,1.1,0.9,1.4c0.4,0.3,1,0.5,1.6,0.5
			c0.5,0,0.9-0.1,1.3-0.3c0.4-0.2,0.8-0.4,1.1-0.8l1.5,1.5c-0.5,0.6-1.1,1-1.8,1.3c-0.7,0.3-1.5,0.4-2.3,0.4c-1,0-1.9-0.2-2.7-0.6
			c-0.8-0.4-1.4-1-1.8-1.7c-0.4-0.7-0.6-1.6-0.6-2.6c0-1,0.2-1.9,0.6-2.6s1-1.3,1.8-1.7s1.6-0.6,2.6-0.6
			C340.2,89.2,341.4,89.7,342.2,90.6z M340.8,93.4c0-0.6-0.2-1.1-0.6-1.5c-0.4-0.4-0.9-0.6-1.5-0.6c-0.6,0-1.1,0.2-1.5,0.6
			s-0.7,0.9-0.8,1.5H340.8z"/>
		<path class="st8" d="M350.6,102.6c-0.5,0-1-0.1-1.4-0.2c-0.4-0.1-0.8-0.4-1.2-0.7l1.2-2c0.4,0.3,0.8,0.5,1.3,0.5
			c0.6,0,1-0.3,1.3-0.9l0.3-0.5l-4-9.5h2.9l2.5,6.7l2.3-6.7h2.8l-4.2,10.8C353.5,101.8,352.3,102.6,350.6,102.6z"/>
		<path class="st8" d="M366.3,89.9c0.8,0.4,1.4,1,1.8,1.7c0.4,0.7,0.6,1.6,0.6,2.6c0,1-0.2,1.8-0.6,2.6c-0.4,0.8-1,1.3-1.8,1.7
			c-0.8,0.4-1.7,0.6-2.7,0.6c-1,0-1.9-0.2-2.7-0.6c-0.8-0.4-1.4-1-1.8-1.7c-0.4-0.8-0.6-1.6-0.6-2.6c0-1,0.2-1.8,0.6-2.6
			c0.4-0.7,1-1.3,1.8-1.7c0.8-0.4,1.7-0.6,2.7-0.6C364.6,89.2,365.6,89.5,366.3,89.9z M361.9,92.3c-0.5,0.5-0.7,1.1-0.7,1.9
			s0.2,1.4,0.7,1.9s1,0.7,1.8,0.7c0.7,0,1.3-0.2,1.7-0.7c0.5-0.5,0.7-1.1,0.7-1.9s-0.2-1.4-0.7-1.9c-0.4-0.5-1-0.7-1.7-0.7
			C362.9,91.6,362.3,91.8,361.9,92.3z"/>
		<path class="st8" d="M379.8,89.3V99h-2.8v-1.7c-0.7,1.2-1.7,1.8-3.2,1.8c-1.1,0-1.9-0.3-2.5-1c-0.6-0.7-0.9-1.6-0.9-2.7v-6.1h2.8
			v5.3c0,0.6,0.2,1.1,0.5,1.4c0.3,0.3,0.8,0.5,1.3,0.5c0.7,0,1.2-0.2,1.6-0.7c0.4-0.5,0.6-1,0.6-1.8v-4.8H379.8z"/>
		<path class="st8" d="M390.8,89.7c0.5-0.3,1.2-0.5,1.9-0.5v2.6c-0.1,0-0.2,0-0.4,0c-0.9,0-1.5,0.2-2,0.7s-0.7,1.1-0.7,1.8V99h-2.8
			v-9.7h2.8v1.7C389.8,90.5,390.3,90,390.8,89.7z"/>
		<path class="st8" d="M401.9,90.6c0.8,0.9,1.2,2.2,1.2,3.8c0,0.3,0,0.5,0,0.7h-6.9c0.2,0.6,0.5,1.1,0.9,1.4c0.4,0.3,1,0.5,1.6,0.5
			c0.5,0,0.9-0.1,1.3-0.3c0.4-0.2,0.8-0.4,1.1-0.8l1.5,1.5c-0.5,0.6-1.1,1-1.8,1.3s-1.5,0.4-2.3,0.4c-1,0-1.9-0.2-2.7-0.6
			s-1.3-1-1.8-1.7c-0.4-0.7-0.6-1.6-0.6-2.6c0-1,0.2-1.9,0.6-2.6s1-1.3,1.8-1.7s1.6-0.6,2.6-0.6C399.9,89.2,401.1,89.7,401.9,90.6z
			 M400.5,93.4c0-0.6-0.2-1.1-0.6-1.5s-0.9-0.6-1.5-0.6c-0.6,0-1.1,0.2-1.5,0.6s-0.7,0.9-0.8,1.5H400.5z"/>
		<path class="st8" d="M410.6,99v-1.1c-0.3,0.4-0.7,0.7-1.3,0.9s-1.1,0.3-1.8,0.3c-1,0-1.8-0.3-2.4-0.8c-0.6-0.6-0.9-1.3-0.9-2.2
			c0-0.9,0.3-1.6,1-2.1c0.6-0.5,1.6-0.8,2.7-0.8h2.7V93c0-0.5-0.2-0.9-0.5-1.2c-0.3-0.3-0.8-0.4-1.5-0.4c-0.9,0-1.9,0.3-2.9,0.8
			l-0.9-1.9c0.8-0.4,1.5-0.7,2.2-0.8c0.7-0.2,1.4-0.3,2.2-0.3c1.3,0,2.3,0.3,3,0.9c0.7,0.6,1.1,1.5,1.1,2.6l0,6.3H410.6z
			 M409.8,96.8c0.4-0.3,0.7-0.6,0.8-1v-0.9h-2.2c-0.5,0-0.9,0.1-1.2,0.3s-0.4,0.5-0.4,0.8c0,0.4,0.1,0.7,0.4,0.9
			c0.3,0.2,0.6,0.3,1.1,0.3C408.9,97.2,409.4,97,409.8,96.8z"/>
		<path class="st8" d="M425.3,85.7V99h-2.8v-1.4c-0.3,0.5-0.8,0.9-1.3,1.1c-0.5,0.3-1.1,0.4-1.8,0.4c-0.9,0-1.7-0.2-2.4-0.6
			s-1.2-1-1.6-1.8c-0.4-0.8-0.6-1.6-0.6-2.6c0-1,0.2-1.8,0.6-2.6c0.4-0.7,0.9-1.3,1.6-1.7c0.7-0.4,1.5-0.6,2.4-0.6
			c1.4,0,2.4,0.5,3.1,1.5v-5.1H425.3z M421.8,96.2c0.5-0.5,0.7-1.1,0.7-1.9s-0.2-1.4-0.7-1.9s-1-0.7-1.7-0.7c-0.7,0-1.3,0.2-1.8,0.7
			c-0.5,0.5-0.7,1.1-0.7,1.9c0,0.8,0.2,1.4,0.7,1.9c0.4,0.5,1,0.7,1.8,0.7C420.8,96.9,421.4,96.6,421.8,96.2z"/>
		<path class="st8" d="M167.6,120.1c-0.4,0.2-0.8,0.4-1.2,0.5s-0.9,0.2-1.3,0.2c-0.9,0-1.6-0.3-2.2-0.8c-0.6-0.5-0.8-1.3-0.8-2.2
			v-4.5h-1.4v-1.9h1.4v-2.7h2.8v2.7h2.6v1.9h-2.6v4c0,0.7,0.3,1.1,0.9,1.1c0.4,0,0.9-0.1,1.4-0.4L167.6,120.1z"/>
		<path class="st8" d="M178.1,111.8c0.6,0.7,1,1.6,1,2.7v6.1h-2.8v-5.3c0-0.6-0.2-1.1-0.5-1.4c-0.3-0.4-0.8-0.5-1.4-0.5
			c-0.7,0-1.2,0.2-1.6,0.7s-0.6,1.1-0.6,1.8v4.8h-2.8v-13.4h2.8v5.4c0.7-1.2,1.8-1.8,3.3-1.8C176.6,110.8,177.4,111.2,178.1,111.8z"
			/>
		<path class="st8" d="M185.5,111.3c0.5-0.3,1.2-0.5,1.9-0.5v2.6c-0.1,0-0.2,0-0.4,0c-0.9,0-1.5,0.2-2,0.7c-0.5,0.5-0.7,1.1-0.7,1.8
			v4.7h-2.8v-9.7h2.8v1.7C184.5,112.1,185,111.6,185.5,111.3z"/>
		<path class="st8" d="M196,111.5c0.8,0.4,1.4,1,1.8,1.7c0.4,0.7,0.6,1.6,0.6,2.6c0,1-0.2,1.8-0.6,2.6c-0.4,0.8-1,1.3-1.8,1.7
			c-0.8,0.4-1.7,0.6-2.7,0.6c-1,0-1.9-0.2-2.7-0.6c-0.8-0.4-1.4-1-1.8-1.7c-0.4-0.8-0.6-1.6-0.6-2.6c0-1,0.2-1.8,0.6-2.6
			c0.4-0.7,1-1.3,1.8-1.7c0.8-0.4,1.7-0.6,2.7-0.6C194.3,110.8,195.2,111.1,196,111.5z M191.5,113.9c-0.5,0.5-0.7,1.1-0.7,1.9
			s0.2,1.4,0.7,1.9c0.4,0.5,1,0.7,1.8,0.7c0.7,0,1.3-0.2,1.7-0.7c0.5-0.5,0.7-1.1,0.7-1.9s-0.2-1.4-0.7-1.9c-0.4-0.5-1-0.7-1.7-0.7
			C192.6,113.2,192,113.4,191.5,113.9z"/>
		<path class="st8" d="M209.5,110.9v9.7h-2.8v-1.7c-0.7,1.2-1.7,1.8-3.2,1.8c-1.1,0-1.9-0.3-2.5-1c-0.6-0.7-0.9-1.6-0.9-2.7v-6.1
			h2.8v5.3c0,0.6,0.2,1.1,0.5,1.4c0.3,0.3,0.8,0.5,1.3,0.5c0.7,0,1.2-0.2,1.6-0.7c0.4-0.5,0.6-1,0.6-1.8v-4.8H209.5z"/>
		<path class="st8" d="M221.3,110.9v8.8c0,0.9-0.2,1.7-0.6,2.4c-0.4,0.7-1,1.2-1.8,1.6c-0.8,0.4-1.7,0.5-2.7,0.5
			c-0.8,0-1.5-0.1-2.3-0.3s-1.4-0.5-2-0.9l1-1.9c0.9,0.6,1.9,1,3,1c0.8,0,1.4-0.2,1.9-0.6c0.5-0.4,0.7-0.9,0.7-1.6v-1.1
			c-0.3,0.5-0.7,0.8-1.2,1c-0.5,0.2-1.1,0.4-1.7,0.4c-0.8,0-1.6-0.2-2.2-0.6s-1.1-0.9-1.5-1.6c-0.4-0.7-0.5-1.5-0.5-2.4
			c0-0.9,0.2-1.7,0.5-2.4c0.4-0.7,0.9-1.2,1.5-1.6c0.6-0.4,1.4-0.6,2.2-0.6c0.6,0,1.2,0.1,1.7,0.4c0.5,0.2,0.9,0.6,1.2,1v-1.3H221.3
			z M217.9,117.3c0.4-0.5,0.6-1.1,0.6-1.8c0-0.7-0.2-1.3-0.6-1.8c-0.4-0.5-1-0.7-1.6-0.7s-1.2,0.2-1.6,0.7c-0.4,0.5-0.6,1.1-0.6,1.8
			c0,0.7,0.2,1.3,0.6,1.8s1,0.7,1.6,0.7C216.9,118,217.4,117.8,217.9,117.3z"/>
		<path class="st8" d="M232.6,111.8c0.6,0.7,1,1.6,1,2.7v6.1h-2.8v-5.3c0-0.6-0.2-1.1-0.5-1.4c-0.3-0.4-0.8-0.5-1.4-0.5
			c-0.7,0-1.2,0.2-1.6,0.7s-0.6,1.1-0.6,1.8v4.8h-2.8v-13.4h2.8v5.4c0.7-1.2,1.8-1.8,3.3-1.8C231.1,110.8,232,111.2,232.6,111.8z"/>
		<path class="st8" d="M246.1,120.1c-0.4,0.2-0.8,0.4-1.2,0.5s-0.9,0.2-1.3,0.2c-0.9,0-1.6-0.3-2.2-0.8c-0.6-0.5-0.8-1.3-0.8-2.2
			v-4.5h-1.4v-1.9h1.4v-2.7h2.8v2.7h2.6v1.9h-2.6v4c0,0.7,0.3,1.1,0.9,1.1c0.4,0,0.9-0.1,1.4-0.4L246.1,120.1z"/>
		<path class="st8" d="M256.6,111.8c0.6,0.7,1,1.6,1,2.7v6.1h-2.8v-5.3c0-0.6-0.2-1.1-0.5-1.4c-0.3-0.4-0.8-0.5-1.4-0.5
			c-0.7,0-1.2,0.2-1.6,0.7s-0.6,1.1-0.6,1.8v4.8h-2.8v-13.4h2.8v5.4c0.7-1.2,1.8-1.8,3.3-1.8C255.1,110.8,256,111.2,256.6,111.8z"/>
		<path class="st8" d="M267.7,112.2c0.8,0.9,1.2,2.2,1.2,3.8c0,0.3,0,0.5,0,0.7h-6.9c0.2,0.6,0.5,1.1,0.9,1.4c0.4,0.3,1,0.5,1.6,0.5
			c0.5,0,0.9-0.1,1.3-0.3c0.4-0.2,0.8-0.4,1.1-0.8l1.5,1.5c-0.5,0.6-1.1,1-1.8,1.3c-0.7,0.3-1.5,0.4-2.3,0.4c-1,0-1.9-0.2-2.7-0.6
			c-0.8-0.4-1.4-1-1.8-1.7c-0.4-0.7-0.6-1.6-0.6-2.6c0-1,0.2-1.9,0.6-2.6s1-1.3,1.8-1.7s1.6-0.6,2.6-0.6
			C265.7,110.8,266.9,111.3,267.7,112.2z M266.3,115c0-0.6-0.2-1.1-0.6-1.5c-0.4-0.4-0.9-0.6-1.5-0.6c-0.6,0-1.1,0.2-1.5,0.6
			s-0.7,0.9-0.8,1.5H266.3z"/>
		<path class="st8" d="M280.5,120.6v-1.1c-0.3,0.4-0.7,0.7-1.3,0.9c-0.5,0.2-1.1,0.3-1.8,0.3c-1,0-1.8-0.3-2.4-0.8
			c-0.6-0.6-0.9-1.3-0.9-2.2c0-0.9,0.3-1.6,1-2.1c0.6-0.5,1.6-0.8,2.7-0.8h2.7v-0.2c0-0.5-0.2-0.9-0.5-1.2c-0.3-0.3-0.8-0.4-1.5-0.4
			c-0.9,0-1.9,0.3-2.9,0.8l-0.9-1.9c0.8-0.4,1.5-0.7,2.2-0.8c0.7-0.2,1.4-0.3,2.2-0.3c1.3,0,2.3,0.3,3,0.9c0.7,0.6,1.1,1.5,1.1,2.6
			l0,6.3H280.5z M279.8,118.4c0.4-0.3,0.7-0.6,0.8-1v-0.9h-2.2c-0.5,0-0.9,0.1-1.2,0.3c-0.3,0.2-0.4,0.5-0.4,0.8
			c0,0.4,0.1,0.7,0.4,0.9c0.3,0.2,0.6,0.3,1.1,0.3C278.9,118.8,279.3,118.6,279.8,118.4z"/>
		<path class="st8" d="M294.4,111.8c0.6,0.7,1,1.6,1,2.7v6.1h-2.8v-5.3c0-0.6-0.2-1.1-0.5-1.4c-0.3-0.4-0.8-0.5-1.4-0.5
			c-0.7,0-1.2,0.2-1.6,0.7c-0.4,0.5-0.6,1.1-0.6,1.8v4.8h-2.8v-9.7h2.8v1.7c0.7-1.2,1.8-1.8,3.3-1.8
			C292.9,110.8,293.7,111.2,294.4,111.8z"/>
		<path class="st8" d="M300.2,107.1c0.3,0.3,0.4,0.7,0.4,1.1c0,0.5-0.1,0.8-0.4,1.1c-0.3,0.3-0.6,0.4-1.1,0.4
			c-0.4,0-0.8-0.1-1.1-0.4c-0.3-0.3-0.4-0.7-0.4-1.1c0-0.5,0.1-0.8,0.4-1.1c0.3-0.3,0.6-0.4,1.1-0.4
			C299.5,106.6,299.9,106.8,300.2,107.1z M297.7,110.9h2.8v9.7h-2.8V110.9z"/>
		<path class="st8" d="M318.5,111.8c0.6,0.7,0.9,1.6,0.9,2.7v6.1h-2.8v-5.3c0-0.6-0.2-1.1-0.5-1.5c-0.3-0.3-0.8-0.5-1.4-0.5
			c-0.7,0-1.2,0.2-1.6,0.7c-0.4,0.5-0.6,1-0.6,1.8v4.8h-2.8v-5.3c0-0.6-0.2-1.1-0.5-1.4c-0.3-0.4-0.8-0.5-1.4-0.5
			c-0.7,0-1.2,0.2-1.6,0.7c-0.4,0.5-0.6,1-0.6,1.8v4.8h-2.8v-9.7h2.8v1.7c0.7-1.2,1.8-1.8,3.3-1.8c0.8,0,1.5,0.2,2.1,0.6
			c0.6,0.4,1,0.9,1.2,1.6c0.3-0.7,0.8-1.3,1.4-1.7s1.3-0.6,2.1-0.6C317,110.8,317.9,111.2,318.5,111.8z"/>
		<path class="st8" d="M327.5,120.6v-1.1c-0.3,0.4-0.7,0.7-1.3,0.9c-0.5,0.2-1.1,0.3-1.8,0.3c-1,0-1.8-0.3-2.4-0.8s-0.9-1.3-0.9-2.2
			c0-0.9,0.3-1.6,1-2.1c0.6-0.5,1.6-0.8,2.7-0.8h2.7v-0.2c0-0.5-0.2-0.9-0.5-1.2c-0.3-0.3-0.8-0.4-1.5-0.4c-0.9,0-1.9,0.3-2.9,0.8
			l-0.9-1.9c0.8-0.4,1.5-0.7,2.2-0.8c0.7-0.2,1.4-0.3,2.2-0.3c1.3,0,2.3,0.3,3,0.9c0.7,0.6,1.1,1.5,1.1,2.6l0,6.3H327.5z
			 M326.7,118.4c0.4-0.3,0.7-0.6,0.8-1v-0.9h-2.2c-0.5,0-0.9,0.1-1.2,0.3c-0.3,0.2-0.4,0.5-0.4,0.8c0,0.4,0.1,0.7,0.4,0.9
			c0.3,0.2,0.6,0.3,1.1,0.3C325.8,118.8,326.3,118.6,326.7,118.4z"/>
		<path class="st8" d="M332.7,107.3h2.8v13.4h-2.8V107.3z"/>
		<path class="st8" d="M346,109.7c-0.2,0.2-0.3,0.5-0.3,0.8v0.8h2.3v1.9h-2.3v7.3h-2.8v-7.3h-1.3v-1.9h1.3v-0.9
			c0-0.7,0.2-1.3,0.5-1.8c0.3-0.5,0.7-0.9,1.3-1.1c0.5-0.3,1.1-0.4,1.8-0.4c0.6,0,1.3,0.1,1.9,0.4l-0.4,2.2
			c-0.2-0.1-0.4-0.1-0.6-0.2c-0.2-0.1-0.4-0.1-0.6-0.1C346.5,109.4,346.2,109.5,346,109.7z"/>
		<path class="st8" d="M354.4,120.6v-1.1c-0.3,0.4-0.7,0.7-1.3,0.9c-0.5,0.2-1.1,0.3-1.8,0.3c-1,0-1.8-0.3-2.4-0.8s-0.9-1.3-0.9-2.2
			c0-0.9,0.3-1.6,1-2.1c0.6-0.5,1.6-0.8,2.7-0.8h2.7v-0.2c0-0.5-0.2-0.9-0.5-1.2c-0.3-0.3-0.8-0.4-1.5-0.4c-0.9,0-1.9,0.3-2.9,0.8
			l-0.9-1.9c0.8-0.4,1.5-0.7,2.2-0.8c0.7-0.2,1.4-0.3,2.2-0.3c1.3,0,2.3,0.3,3,0.9c0.7,0.6,1.1,1.5,1.1,2.6l0,6.3H354.4z
			 M353.6,118.4c0.4-0.3,0.7-0.6,0.8-1v-0.9h-2.2c-0.5,0-0.9,0.1-1.2,0.3c-0.3,0.2-0.4,0.5-0.4,0.8c0,0.4,0.1,0.7,0.4,0.9
			c0.3,0.2,0.6,0.3,1.1,0.3C352.7,118.8,353.2,118.6,353.6,118.4z"/>
		<path class="st8" d="M363.8,113.2c-0.7,0-1.3,0.2-1.7,0.7c-0.4,0.5-0.7,1.1-0.7,1.9c0,0.8,0.2,1.4,0.6,1.9c0.4,0.5,1,0.7,1.7,0.7
			c1,0,1.8-0.4,2.3-1.1l1.9,1.3c-0.4,0.7-1,1.2-1.7,1.6s-1.6,0.6-2.6,0.6c-1,0-1.8-0.2-2.6-0.6s-1.3-1-1.7-1.7
			c-0.4-0.7-0.6-1.6-0.6-2.6c0-1,0.2-1.9,0.6-2.6s1-1.3,1.7-1.7s1.6-0.6,2.6-0.6c0.9,0,1.7,0.2,2.5,0.5c0.7,0.4,1.3,0.9,1.7,1.5
			l-1.9,1.4C365.4,113.5,364.7,113.2,363.8,113.2z"/>
		<path class="st8" d="M375.6,120.1c-0.4,0.2-0.8,0.4-1.2,0.5c-0.4,0.1-0.9,0.2-1.3,0.2c-0.9,0-1.6-0.3-2.2-0.8
			c-0.6-0.5-0.8-1.3-0.8-2.2v-4.5h-1.3v-1.9h1.3v-2.7h2.8v2.7h2.6v1.9h-2.6v4c0,0.7,0.3,1.1,0.9,1.1c0.4,0,0.9-0.1,1.4-0.4
			L375.6,120.1z"/>
		<path class="st8" d="M381.8,113.1c-0.5-0.2-1-0.2-1.4-0.2c-0.3,0-0.6,0.1-0.8,0.2c-0.2,0.1-0.3,0.3-0.3,0.5c0,0.3,0.1,0.5,0.4,0.6
			c0.3,0.1,0.7,0.3,1.3,0.5c0.7,0.2,1.2,0.4,1.7,0.6c0.4,0.2,0.8,0.5,1.2,0.9c0.3,0.4,0.5,0.9,0.5,1.5c0,1-0.4,1.7-1.1,2.2
			c-0.7,0.5-1.7,0.8-2.8,0.8c-0.8,0-1.6-0.1-2.3-0.4c-0.7-0.2-1.4-0.6-1.9-1l0.9-1.9c0.5,0.4,1,0.7,1.6,0.9c0.6,0.2,1.2,0.3,1.7,0.3
			c0.4,0,0.7-0.1,0.9-0.2s0.3-0.3,0.3-0.6c0-0.3-0.1-0.5-0.4-0.6c-0.3-0.2-0.7-0.3-1.4-0.5c-0.7-0.2-1.2-0.4-1.6-0.6
			c-0.4-0.2-0.8-0.5-1.1-0.9c-0.3-0.4-0.5-0.9-0.5-1.5c0-1,0.4-1.7,1.1-2.2c0.7-0.5,1.6-0.8,2.7-0.8c0.7,0,1.3,0.1,2,0.3
			c0.7,0.2,1.3,0.5,1.8,0.8l-1,1.9C382.9,113.5,382.4,113.3,381.8,113.1z"/>
		<path class="st8" d="M396.1,120.6v-1.1c-0.3,0.4-0.7,0.7-1.3,0.9s-1.1,0.3-1.8,0.3c-1,0-1.8-0.3-2.4-0.8c-0.6-0.6-0.9-1.3-0.9-2.2
			c0-0.9,0.3-1.6,1-2.1c0.6-0.5,1.6-0.8,2.7-0.8h2.7v-0.2c0-0.5-0.2-0.9-0.5-1.2c-0.3-0.3-0.8-0.4-1.5-0.4c-0.9,0-1.9,0.3-2.9,0.8
			l-0.9-1.9c0.8-0.4,1.5-0.7,2.2-0.8c0.7-0.2,1.4-0.3,2.2-0.3c1.3,0,2.3,0.3,3,0.9c0.7,0.6,1.1,1.5,1.1,2.6l0,6.3H396.1z
			 M395.3,118.4c0.4-0.3,0.7-0.6,0.8-1v-0.9h-2.2c-0.5,0-0.9,0.1-1.2,0.3s-0.4,0.5-0.4,0.8c0,0.4,0.1,0.7,0.4,0.9
			c0.3,0.2,0.6,0.3,1.1,0.3C394.4,118.8,394.9,118.6,395.3,118.4z"/>
		<path class="st8" d="M410.3,110.9v8.8c0,0.9-0.2,1.7-0.6,2.4c-0.4,0.7-1,1.2-1.8,1.6c-0.8,0.4-1.7,0.5-2.7,0.5
			c-0.8,0-1.5-0.1-2.3-0.3s-1.4-0.5-2-0.9l1-1.9c0.9,0.6,1.9,1,3,1c0.8,0,1.4-0.2,1.9-0.6c0.5-0.4,0.7-0.9,0.7-1.6v-1.1
			c-0.3,0.5-0.7,0.8-1.2,1c-0.5,0.2-1.1,0.4-1.7,0.4c-0.8,0-1.6-0.2-2.2-0.6s-1.1-0.9-1.5-1.6c-0.4-0.7-0.5-1.5-0.5-2.4
			c0-0.9,0.2-1.7,0.5-2.4c0.4-0.7,0.9-1.2,1.5-1.6c0.6-0.4,1.4-0.6,2.2-0.6c0.6,0,1.2,0.1,1.7,0.4c0.5,0.2,0.9,0.6,1.2,1v-1.3H410.3
			z M406.9,117.3c0.4-0.5,0.6-1.1,0.6-1.8c0-0.7-0.2-1.3-0.6-1.8c-0.4-0.5-1-0.7-1.6-0.7s-1.2,0.2-1.6,0.7c-0.4,0.5-0.6,1.1-0.6,1.8
			c0,0.7,0.2,1.3,0.6,1.8s1,0.7,1.6,0.7C406,118,406.5,117.8,406.9,117.3z"/>
		<path class="st8" d="M418.5,120.6v-1.1c-0.3,0.4-0.7,0.7-1.3,0.9s-1.1,0.3-1.8,0.3c-1,0-1.8-0.3-2.4-0.8c-0.6-0.6-0.9-1.3-0.9-2.2
			c0-0.9,0.3-1.6,1-2.1c0.6-0.5,1.6-0.8,2.7-0.8h2.7v-0.2c0-0.5-0.2-0.9-0.5-1.2c-0.3-0.3-0.8-0.4-1.5-0.4c-0.9,0-1.9,0.3-2.9,0.8
			l-0.9-1.9c0.8-0.4,1.5-0.7,2.2-0.8c0.7-0.2,1.4-0.3,2.2-0.3c1.3,0,2.3,0.3,3,0.9c0.7,0.6,1.1,1.5,1.1,2.6l0,6.3H418.5z
			 M417.7,118.4c0.4-0.3,0.7-0.6,0.8-1v-0.9h-2.2c-0.5,0-0.9,0.1-1.2,0.3s-0.4,0.5-0.4,0.8c0,0.4,0.1,0.7,0.4,0.9
			c0.3,0.2,0.6,0.3,1.1,0.3C416.8,118.8,417.3,118.6,417.7,118.4z"/>
		<path class="st8" d="M426,107.1c0.3,0.3,0.4,0.7,0.4,1.1c0,0.5-0.1,0.8-0.4,1.1c-0.3,0.3-0.6,0.4-1.1,0.4c-0.4,0-0.8-0.1-1.1-0.4
			c-0.3-0.3-0.4-0.7-0.4-1.1c0-0.5,0.1-0.8,0.4-1.1c0.3-0.3,0.6-0.4,1.1-0.4C425.4,106.6,425.7,106.8,426,107.1z M423.6,110.9h2.8
			v9.7h-2.8V110.9z"/>
		<path class="st8" d="M437.7,111.8c0.6,0.7,1,1.6,1,2.7v6.1h-2.8v-5.3c0-0.6-0.2-1.1-0.5-1.4c-0.3-0.4-0.8-0.5-1.4-0.5
			c-0.7,0-1.2,0.2-1.6,0.7s-0.6,1.1-0.6,1.8v4.8H429v-9.7h2.8v1.7c0.7-1.2,1.8-1.8,3.3-1.8C436.2,110.8,437.1,111.2,437.7,111.8z"/>
		<path class="st8" d="M200,133.1c0.7,0.4,1.2,1,1.6,1.8c0.4,0.8,0.6,1.6,0.6,2.6c0,1-0.2,1.8-0.6,2.6c-0.4,0.7-0.9,1.3-1.6,1.7
			c-0.7,0.4-1.5,0.6-2.4,0.6c-0.7,0-1.3-0.1-1.8-0.4c-0.5-0.3-1-0.6-1.3-1.1v1.4h-2.8v-13.4h2.8v5.1c0.3-0.5,0.8-0.9,1.3-1.1
			s1.1-0.4,1.8-0.4C198.5,132.4,199.3,132.7,200,133.1z M198.7,139.3c0.4-0.5,0.7-1.1,0.7-1.9c0-0.8-0.2-1.4-0.7-1.9s-1-0.7-1.7-0.7
			s-1.3,0.2-1.7,0.7c-0.5,0.5-0.7,1.1-0.7,1.9c0,0.8,0.2,1.5,0.7,1.9c0.4,0.5,1,0.7,1.7,0.7S198.3,139.8,198.7,139.3z"/>
		<path class="st8" d="M211.7,133.8c0.8,0.9,1.2,2.2,1.2,3.8c0,0.3,0,0.5,0,0.7H206c0.2,0.6,0.5,1.1,0.9,1.4c0.4,0.3,1,0.5,1.6,0.5
			c0.5,0,0.9-0.1,1.3-0.3c0.4-0.2,0.8-0.4,1.1-0.8l1.5,1.5c-0.5,0.6-1.1,1-1.8,1.3c-0.7,0.3-1.5,0.4-2.3,0.4c-1,0-1.9-0.2-2.7-0.6
			c-0.8-0.4-1.4-1-1.8-1.7c-0.4-0.7-0.6-1.6-0.6-2.6c0-1,0.2-1.9,0.6-2.6s1-1.3,1.8-1.7s1.6-0.6,2.6-0.6
			C209.7,132.4,210.9,132.9,211.7,133.8z M210.3,136.6c0-0.6-0.2-1.1-0.6-1.5c-0.4-0.4-0.9-0.6-1.5-0.6c-0.6,0-1.1,0.2-1.5,0.6
			s-0.7,0.9-0.8,1.5H210.3z"/>
		<path class="st8" d="M218.2,131.3c-0.2,0.2-0.3,0.5-0.3,0.8v0.8h2.3v1.9h-2.3v7.3h-2.8v-7.3h-1.3V133h1.3v-0.9
			c0-0.7,0.2-1.3,0.5-1.8c0.3-0.5,0.7-0.9,1.3-1.1s1.1-0.4,1.8-0.4c0.6,0,1.3,0.1,1.9,0.4l-0.4,2.2c-0.2-0.1-0.4-0.1-0.6-0.2
			c-0.2-0.1-0.4-0.1-0.6-0.1C218.7,131,218.5,131.1,218.2,131.3z"/>
		<path class="st8" d="M228.4,133.1c0.8,0.4,1.4,1,1.8,1.7c0.4,0.7,0.6,1.6,0.6,2.6c0,1-0.2,1.8-0.6,2.6c-0.4,0.8-1,1.3-1.8,1.7
			c-0.8,0.4-1.7,0.6-2.7,0.6c-1,0-1.9-0.2-2.7-0.6c-0.8-0.4-1.4-1-1.8-1.7c-0.4-0.8-0.6-1.6-0.6-2.6c0-1,0.2-1.8,0.6-2.6
			c0.4-0.7,1-1.3,1.8-1.7c0.8-0.4,1.7-0.6,2.7-0.6C226.7,132.4,227.6,132.7,228.4,133.1z M223.9,135.5c-0.5,0.5-0.7,1.1-0.7,1.9
			s0.2,1.4,0.7,1.9c0.4,0.5,1,0.7,1.8,0.7c0.7,0,1.3-0.2,1.7-0.7c0.5-0.5,0.7-1.1,0.7-1.9s-0.2-1.4-0.7-1.9c-0.4-0.5-1-0.7-1.7-0.7
			C225,134.8,224.4,135,223.9,135.5z"/>
		<path class="st8" d="M236.8,132.9c0.5-0.3,1.2-0.5,1.9-0.5v2.6c-0.1,0-0.2,0-0.4,0c-0.9,0-1.5,0.2-2,0.7c-0.5,0.5-0.7,1.1-0.7,1.8
			v4.7h-2.8v-9.7h2.8v1.7C235.8,133.7,236.2,133.2,236.8,132.9z"/>
		<path class="st8" d="M247.9,133.8c0.8,0.9,1.2,2.2,1.2,3.8c0,0.3,0,0.5,0,0.7h-6.9c0.2,0.6,0.5,1.1,0.9,1.4c0.4,0.3,1,0.5,1.6,0.5
			c0.5,0,0.9-0.1,1.3-0.3c0.4-0.2,0.8-0.4,1.1-0.8l1.5,1.5c-0.5,0.6-1.1,1-1.8,1.3c-0.7,0.3-1.5,0.4-2.3,0.4c-1,0-1.9-0.2-2.7-0.6
			c-0.8-0.4-1.4-1-1.8-1.7c-0.4-0.7-0.6-1.6-0.6-2.6c0-1,0.2-1.9,0.6-2.6s1-1.3,1.8-1.7s1.6-0.6,2.6-0.6
			C245.9,132.4,247.1,132.9,247.9,133.8z M246.5,136.6c0-0.6-0.2-1.1-0.6-1.5c-0.4-0.4-0.9-0.6-1.5-0.6c-0.6,0-1.1,0.2-1.5,0.6
			s-0.7,0.9-0.8,1.5H246.5z"/>
		<path class="st8" d="M259.2,132.9c0.5-0.3,1.2-0.5,1.9-0.5v2.6c-0.1,0-0.2,0-0.4,0c-0.9,0-1.5,0.2-2,0.7c-0.5,0.5-0.7,1.1-0.7,1.8
			v4.7h-2.8v-9.7h2.8v1.7C258.3,133.7,258.7,133.2,259.2,132.9z"/>
		<path class="st8" d="M270.3,133.8c0.8,0.9,1.2,2.2,1.2,3.8c0,0.3,0,0.5,0,0.7h-6.9c0.2,0.6,0.5,1.1,0.9,1.4c0.4,0.3,1,0.5,1.6,0.5
			c0.5,0,0.9-0.1,1.3-0.3c0.4-0.2,0.8-0.4,1.1-0.8l1.5,1.5c-0.5,0.6-1.1,1-1.8,1.3c-0.7,0.3-1.5,0.4-2.3,0.4c-1,0-1.9-0.2-2.7-0.6
			c-0.8-0.4-1.4-1-1.8-1.7c-0.4-0.7-0.6-1.6-0.6-2.6c0-1,0.2-1.9,0.6-2.6s1-1.3,1.8-1.7s1.6-0.6,2.6-0.6
			C268.4,132.4,269.5,132.9,270.3,133.8z M269,136.6c0-0.6-0.2-1.1-0.6-1.5c-0.4-0.4-0.9-0.6-1.5-0.6c-0.6,0-1.1,0.2-1.5,0.6
			s-0.7,0.9-0.8,1.5H269z"/>
		<path class="st8" d="M279.4,141.7c-0.4,0.2-0.8,0.4-1.2,0.5s-0.9,0.2-1.3,0.2c-0.9,0-1.6-0.3-2.2-0.8c-0.6-0.5-0.8-1.3-0.8-2.2
			v-4.5h-1.4V133h1.4v-2.7h2.8v2.7h2.6v1.9h-2.6v4c0,0.7,0.3,1.1,0.9,1.1c0.4,0,0.9-0.1,1.4-0.4L279.4,141.7z"/>
		<path class="st8" d="M285.1,132.9c0.5-0.3,1.2-0.5,1.9-0.5v2.6c-0.1,0-0.2,0-0.4,0c-0.9,0-1.5,0.2-2,0.7c-0.5,0.5-0.7,1.1-0.7,1.8
			v4.7H281v-9.7h2.8v1.7C284.2,133.7,284.6,133.2,285.1,132.9z"/>
		<path class="st8" d="M290.1,145.8c-0.5,0-1-0.1-1.4-0.2c-0.4-0.1-0.8-0.4-1.2-0.7l1.2-2c0.4,0.3,0.8,0.5,1.3,0.5
			c0.6,0,1-0.3,1.3-0.9l0.3-0.5l-4-9.5h2.9l2.5,6.7l2.3-6.7h2.8l-4.2,10.8C293,145,291.8,145.8,290.1,145.8z"/>
		<path class="st8" d="M301.6,128.7c0.3,0.3,0.4,0.7,0.4,1.1c0,0.5-0.1,0.8-0.4,1.1s-0.6,0.4-1.1,0.4c-0.4,0-0.8-0.1-1.1-0.4
			c-0.3-0.3-0.4-0.7-0.4-1.1c0-0.5,0.1-0.8,0.4-1.1c0.3-0.3,0.6-0.4,1.1-0.4C300.9,128.2,301.3,128.4,301.6,128.7z M299.1,132.5h2.8
			v9.7h-2.8V132.5z"/>
		<path class="st8" d="M313.3,133.4c0.6,0.7,1,1.6,1,2.7v6.1h-2.8v-5.3c0-0.6-0.2-1.1-0.5-1.4c-0.3-0.4-0.8-0.5-1.4-0.5
			c-0.7,0-1.2,0.2-1.6,0.7s-0.6,1.1-0.6,1.8v4.8h-2.8v-9.7h2.8v1.7c0.7-1.2,1.8-1.8,3.3-1.8C311.8,132.4,312.6,132.8,313.3,133.4z"
			/>
		<path class="st8" d="M325.7,132.5v8.8c0,0.9-0.2,1.7-0.6,2.4c-0.4,0.7-1,1.2-1.8,1.6s-1.7,0.5-2.7,0.5c-0.8,0-1.5-0.1-2.3-0.3
			s-1.4-0.5-2-0.9l1-1.9c0.9,0.6,1.9,1,3,1c0.8,0,1.4-0.2,1.9-0.6c0.5-0.4,0.7-0.9,0.7-1.6v-1.1c-0.3,0.5-0.7,0.8-1.2,1
			c-0.5,0.2-1.1,0.4-1.7,0.4c-0.8,0-1.6-0.2-2.2-0.6s-1.1-0.9-1.5-1.6c-0.4-0.7-0.5-1.5-0.5-2.4c0-0.9,0.2-1.7,0.5-2.4
			s0.9-1.2,1.5-1.6c0.6-0.4,1.4-0.6,2.2-0.6c0.6,0,1.2,0.1,1.7,0.4c0.5,0.2,0.9,0.6,1.2,1v-1.3H325.7z M322.3,138.9
			c0.4-0.5,0.6-1.1,0.6-1.8c0-0.7-0.2-1.3-0.6-1.8c-0.4-0.5-1-0.7-1.6-0.7s-1.2,0.2-1.6,0.7c-0.4,0.5-0.6,1.1-0.6,1.8
			c0,0.7,0.2,1.3,0.6,1.8s1,0.7,1.6,0.7C321.3,139.6,321.9,139.4,322.3,138.9z"/>
		<path class="st8" d="M338.4,141.7c-0.4,0.2-0.8,0.4-1.2,0.5s-0.9,0.2-1.3,0.2c-0.9,0-1.6-0.3-2.2-0.8c-0.6-0.5-0.8-1.3-0.8-2.2
			v-4.5h-1.3V133h1.3v-2.7h2.8v2.7h2.6v1.9h-2.6v4c0,0.7,0.3,1.1,0.9,1.1c0.4,0,0.9-0.1,1.3-0.4L338.4,141.7z"/>
		<path class="st8" d="M348.9,133.4c0.6,0.7,1,1.6,1,2.7v6.1h-2.8v-5.3c0-0.6-0.2-1.1-0.5-1.4c-0.3-0.4-0.8-0.5-1.4-0.5
			c-0.7,0-1.2,0.2-1.6,0.7s-0.6,1.1-0.6,1.8v4.8h-2.8v-13.4h2.8v5.4c0.7-1.2,1.8-1.8,3.3-1.8C347.4,132.4,348.3,132.8,348.9,133.4z"
			/>
		<path class="st8" d="M360,133.8c0.8,0.9,1.2,2.2,1.2,3.8c0,0.3,0,0.5,0,0.7h-6.9c0.2,0.6,0.5,1.1,0.9,1.4c0.4,0.3,1,0.5,1.6,0.5
			c0.5,0,0.9-0.1,1.3-0.3c0.4-0.2,0.8-0.4,1.1-0.8l1.5,1.5c-0.5,0.6-1.1,1-1.8,1.3c-0.7,0.3-1.5,0.4-2.3,0.4c-1,0-1.9-0.2-2.7-0.6
			s-1.3-1-1.8-1.7c-0.4-0.7-0.6-1.6-0.6-2.6c0-1,0.2-1.9,0.6-2.6s1-1.3,1.8-1.7s1.6-0.6,2.6-0.6C358,132.4,359.2,132.9,360,133.8z
			 M358.6,136.6c0-0.6-0.2-1.1-0.6-1.5c-0.4-0.4-0.9-0.6-1.5-0.6c-0.6,0-1.1,0.2-1.5,0.6c-0.4,0.4-0.7,0.9-0.8,1.5H358.6z"/>
		<path class="st8" d="M376.8,132.5v13.2H374v-4.9c-0.3,0.5-0.8,0.9-1.3,1.1c-0.5,0.3-1.1,0.4-1.8,0.4c-0.9,0-1.7-0.2-2.4-0.6
			s-1.2-1-1.6-1.8c-0.4-0.8-0.6-1.6-0.6-2.6c0-1,0.2-1.8,0.6-2.6c0.4-0.7,0.9-1.3,1.6-1.7c0.7-0.4,1.5-0.6,2.4-0.6
			c1.4,0,2.4,0.5,3.1,1.5v-1.4H376.8z M373.3,139.4c0.5-0.5,0.7-1.1,0.7-1.9s-0.2-1.4-0.7-1.9c-0.4-0.5-1-0.7-1.7-0.7
			c-0.7,0-1.3,0.2-1.8,0.7c-0.4,0.5-0.7,1.1-0.7,1.9c0,0.8,0.2,1.4,0.7,1.9c0.5,0.5,1,0.7,1.8,0.7
			C372.3,140.1,372.9,139.8,373.3,139.4z"/>
		<path class="st8" d="M388.7,132.5v9.7H386v-1.7c-0.7,1.2-1.7,1.8-3.2,1.8c-1.1,0-1.9-0.3-2.5-1c-0.6-0.7-0.9-1.6-0.9-2.7v-6.1h2.8
			v5.3c0,0.6,0.2,1.1,0.5,1.4c0.3,0.3,0.8,0.5,1.3,0.5c0.7,0,1.2-0.2,1.6-0.7s0.6-1,0.6-1.8v-4.8H388.7z"/>
		<path class="st8" d="M393.9,128.7c0.3,0.3,0.4,0.7,0.4,1.1c0,0.5-0.1,0.8-0.4,1.1s-0.6,0.4-1.1,0.4c-0.4,0-0.8-0.1-1.1-0.4
			s-0.4-0.7-0.4-1.1c0-0.5,0.1-0.8,0.4-1.1s0.6-0.4,1.1-0.4C393.2,128.2,393.6,128.4,393.9,128.7z M391.4,132.5h2.8v9.7h-2.8V132.5z
			"/>
		<path class="st8" d="M396.4,132.6h8.3v1.7l-5,5.7h5.1v2.2l-8.6,0v-1.7l5-5.7l-4.8,0V132.6z"/>
		<path class="st8" d="M408.5,139.9c0.3,0.3,0.4,0.6,0.4,1c0,0.4-0.1,0.8-0.4,1c-0.3,0.3-0.6,0.4-1,0.4c-0.4,0-0.7-0.1-1-0.4
			c-0.3-0.3-0.4-0.6-0.4-1c0-0.4,0.1-0.8,0.4-1s0.6-0.4,1-0.4C407.9,139.5,408.2,139.7,408.5,139.9z"/>
	</g>
</g>
</svg>
