<?xml version="1.0" encoding="utf-8"?>
<!-- Generator: Adobe Illustrator 19.0.0, SVG Export Plug-In . SVG Version: 6.00 Build 0)  -->
<svg version="1.1" id="Layer_1" xmlns="http://www.w3.org/2000/svg" xmlns:xlink="http://www.w3.org/1999/xlink" x="0px" y="0px"
	 viewBox="0 0 61.7 76.6" style="enable-background:new 0 0 61.7 76.6;" xml:space="preserve">
<style type="text/css">
	.st0{fill:#FFFFFF;}
</style>
<path d="M61.5,25.7c-0.4-1.8-1.3-3.5-2.7-4.9L40.2,2.2C38.7,0.8,36.8,0,34.8,0L7.6,0C3.4,0,0,3.4,0,7.6l0,18.2l0,6.1l0,2.6
	C0,38,2.4,41,5.8,41.8l19,5.7l0.2,0c1,0.2,1.7,1.1,1.7,2.1v17.5c0,5.3,4.3,9.5,9.5,9.5c5.1,0,9.2-4.1,9.2-9.2V37.6
	c0-1.2,0.8-1.8,1.2-1.9c0.4-0.2,1.3-0.5,2.3,0.2c3,2.2,7.2,1.9,9.8-0.8c1-1,1.7-2.1,2.2-3.4C61.8,30,61.8,28,61.5,25.7z"/>
<path class="st0" d="M5.4,7.6c0-1.2,1-2.2,2.2-2.2h27.2c0.6,0,1.1,0.2,1.5,0.6l18.6,18.6c0.9,0.9,1.4,2,1.4,3.3s-0.5,2.4-1.4,3.3
	c-0.4,0.4-1,0.6-1.5,0.6c-0.4,0-0.9-0.1-1.3-0.4c-2.3-1.7-5.3-1.9-7.9-0.6c-2.6,1.3-4.2,3.9-4.2,6.8v29.9c0,2.1-1.7,3.8-3.8,3.8
	c-2.3,0-4.1-1.9-4.1-4.1V49.6c0-3.5-2.4-6.5-5.8-7.4l-19-5.7l-0.2,0c-1-0.2-1.7-1.1-1.7-2.1V7.6z"/>
</svg>
