<svg xmlns="http://www.w3.org/2000/svg" xmlns:xlink="http://www.w3.org/1999/xlink" viewBox="0 0 1057.66 674.31"><defs><style>.cls-1{fill:none;}.cls-2{fill:#d0ecf4;}.cls-3{opacity:0.44;fill:url(#linear-gradient);}.cls-4{clip-path:url(#clip-path);}.cls-5{opacity:0.39;}.cls-6{fill:url(#linear-gradient-2);}.cls-7{fill:url(#linear-gradient-3);}.cls-8{fill:url(#linear-gradient-4);}.cls-9{fill:url(#linear-gradient-5);}.cls-10{fill:#fff;}.cls-11{fill:#998675;}.cls-12{fill:#39b54a;}.cls-13{fill:#736357;}.cls-14{fill:#f9e3b2;}.cls-15{fill:#534741;}.cls-16{fill:#5e8272;}.cls-17{fill:#95866c;}.cls-18{fill:#41594e;}</style><linearGradient id="linear-gradient" x1="774.37" y1="629.68" x2="772.17" y2="369.36" gradientUnits="userSpaceOnUse"><stop offset="0" stop-color="#0071bc"/><stop offset="1" stop-color="#27cdd6"/></linearGradient><clipPath id="clip-path"><path class="cls-1" d="M963.11,344.81c-68.1,18.07-204.74,19.33-283.28,0s-193.57,0-193.57,0l32.26,71.51c11.29,25,15.79,50.84,13.35,76.61l-6.51,68.65c0,27.32,21.46,52.45,55.54,69.33h476.76V344.81S1031.2,326.75,963.11,344.81Z"/></clipPath><linearGradient id="linear-gradient-2" x1="1107.45" y1="239.52" x2="1113.41" y2="681.94" gradientTransform="matrix(-1.28, 0, 0, 1, 2376.36, 0)" gradientUnits="userSpaceOnUse"><stop offset="0" stop-color="#fff" stop-opacity="0.5"/><stop offset="0.91" stop-color="#fff" stop-opacity="0"/></linearGradient><linearGradient id="linear-gradient-3" x1="1183.03" y1="239.7" x2="1188.94" y2="679.46" gradientTransform="matrix(-1.28, 0, 0, 1, 2376.36, 0)" gradientUnits="userSpaceOnUse"><stop offset="0" stop-color="#fff" stop-opacity="0.5"/><stop offset="0.91" stop-color="#fff" stop-opacity="0"/></linearGradient><linearGradient id="linear-gradient-4" x1="1351.74" y1="237.61" x2="1358.09" y2="710.12" gradientTransform="matrix(-1.28, 0, 0, 1, 2376.36, 0)" gradientUnits="userSpaceOnUse"><stop offset="0" stop-color="#fff" stop-opacity="0.5"/><stop offset="0.85" stop-color="#fff" stop-opacity="0"/></linearGradient><linearGradient id="linear-gradient-5" x1="1267.77" y1="239.56" x2="1273.7" y2="680.42" gradientTransform="matrix(-1.28, 0, 0, 1, 2376.36, 0)" gradientUnits="userSpaceOnUse"><stop offset="0" stop-color="#fff" stop-opacity="0.5"/><stop offset="0.94" stop-color="#fff" stop-opacity="0"/></linearGradient></defs><title>Amazon-bg</title><g id="Layer_2" data-name="Layer 2"><g id="Amazon_Environment" data-name="Amazon Environment"><rect class="cls-2" x="1" width="1056.66" height="630.91"/><path class="cls-3" d="M963.11,344.81c-68.1,18.07-204.74,19.33-283.28,0s-193.57,0-193.57,0l32.26,71.51c11.29,25,15.79,50.84,13.35,76.61l-6.51,68.65c0,27.32,21.46,52.45,55.54,69.33h476.76V344.81S1031.2,326.75,963.11,344.81Z"/><g class="cls-4"><g class="cls-5"><polygon class="cls-6" points="970.02 648.71 995.14 648.71 970.13 268.85 922.68 268.85 970.02 648.71"/><polygon class="cls-7" points="826.45 645.93 937.84 645.93 873.9 268.85 787.1 268.85 826.45 645.93"/><polygon class="cls-8" points="629.3 674.31 690.43 653.63 651.03 268.85 603.58 268.85 629.3 674.31"/><polygon class="cls-9" points="634.68 645.93 873.9 645.93 772.16 268.85 634.68 268.85 634.68 645.93"/></g></g><path class="cls-10" d="M169.28,111.88a11.57,11.57,0,0,0,.23-2.3,11.43,11.43,0,0,0-18-9.32,23.49,23.49,0,0,0-44.36,2,18.29,18.29,0,1,0-11.54,32.48h73.28a11.43,11.43,0,0,0,.44-22.85Z"/><path class="cls-10" d="M803.66,211.74a15.76,15.76,0,0,0-24.57-16,32.39,32.39,0,0,0-61.17,2.75A25.22,25.22,0,1,0,702,243.25h101a15.76,15.76,0,0,0,.61-31.51Z"/><path class="cls-10" d="M903,127.14a12,12,0,0,1-.26-2.49,12.57,12.57,0,0,1,12.78-12.36,13,13,0,0,1,7.39,2.29,26.55,26.55,0,0,1,49.58,2.15,20.81,20.81,0,0,1,12.91-4.44c11.29,0,20.44,8.85,20.44,19.78s-9.15,19.78-20.44,19.78H903.51a12.36,12.36,0,1,1-.49-24.71Z"/><path class="cls-10" d="M250.19,157.11a12,12,0,0,1-.26-2.49,12.57,12.57,0,0,1,12.78-12.36,13,13,0,0,1,7.39,2.29,26.55,26.55,0,0,1,49.58,2.15,20.81,20.81,0,0,1,12.9-4.44c11.3,0,20.45,8.85,20.45,19.78s-9.15,19.78-20.45,19.78h-81.9a12.36,12.36,0,1,1-.49-24.71Z"/><path class="cls-10" d="M242.65,64.68a6.42,6.42,0,0,1-.13-1.32A6.54,6.54,0,0,1,252.87,58a13.49,13.49,0,0,1,25.47,1.14A10.5,10.5,0,1,1,285,77.79H242.9a6.56,6.56,0,0,1-.25-13.11Z"/><path class="cls-10" d="M754.11,87.07a6.43,6.43,0,0,1-.14-1.32,6.55,6.55,0,0,1,10.36-5.35,13.49,13.49,0,0,1,25.47,1.14,10.5,10.5,0,1,1,6.63,18.64H754.36a6.56,6.56,0,0,1-.25-13.11Z"/><path class="cls-11" d="M334,328.8s-35.16-72-19.1-169.51l5.2-1.42s-4.79,131.2,45.39,167.38Z"/><path class="cls-12" d="M320.71,156.14S271,168.83,272.05,213C272.05,213,241.33,139.93,320.71,156.14Z"/><path class="cls-12" d="M318.83,161.56s-44.61-25.38-74.51,7.18C244.32,168.74,272.94,94.8,318.83,161.56Z"/><path class="cls-12" d="M311.34,158.68s49.33-14.16,70.72,24.52C382.06,183.2,371.66,104.6,311.34,158.68Z"/><path class="cls-12" d="M315.7,162.41S341.39,118,383.63,131C383.63,131,321.59,81.61,315.7,162.41Z"/><circle class="cls-13" cx="307.37" cy="166" r="10.24"/><circle class="cls-13" cx="323.02" cy="164.66" r="10.24"/><path class="cls-11" d="M340.28,326.54s-13.64-84.88,34.57-171.18l5.38.44s-45.8,118.55-10.88,169.61Z"/><path class="cls-12" d="M381.43,154.39s-51.08-4.94-65.07,37C316.36,191.38,312.27,112.2,381.43,154.39Z"/><path class="cls-12" d="M377.82,158.85s-33.35-39-72.52-18.54C305.3,140.31,357.31,80.48,377.82,158.85Z"/><circle class="cls-13" cx="365.54" cy="159.14" r="10.24"/><circle class="cls-13" cx="380.71" cy="163.19" r="10.24"/><circle class="cls-13" cx="373.2" cy="175.57" r="10.24"/><path class="cls-12" d="M371.75,153.6S423,157,430,200.67C430,200.67,446.85,123.2,371.75,153.6Z"/><path class="cls-12" d="M374.59,158.59s39.24-33.08,74.57-6.51C449.16,152.08,407.56,84.59,374.59,158.59Z"/><path class="cls-14" d="M566.62,508.14c-4.71-39.41-24.63-66.61-24.63-114V377.68c0-39.16-29.75-58.58-71.92-72.91l-57.75-13c-50.34-14.25-111,28.16-139.07,23.11s-77.7-17-129.87-17.23S39,318,1,312.68V630.91H806.64S580,620.41,566.62,508.14Z"/><path class="cls-15" d="M13.57,380.12S23.08,260.28,62,163.29l20.43.31S48.52,236.35,38.11,364.84Z"/><path class="cls-15" d="M212.08,320.93s-9.51-87.12-48.44-157.64l-20.42.23s33.91,52.89,44.32,146.3Z"/><path class="cls-16" d="M23.64,275l13-6.2A47.14,47.14,0,0,1,62,264.55l56,15.51h.09a38.1,38.1,0,0,0,14.06-1.23l51.58-14.06A46.09,46.09,0,0,1,218.23,276l2.2,2a45.15,45.15,0,0,0,21.71,10.54h0A44.08,44.08,0,0,1,269,304.56l8.73,10.88L.1,332.78V310.39C.1,295.48,9.18,281.81,23.64,275Z"/><path class="cls-17" d="M.2,332.78s99.72-44.11,277.63-17.34c0,0,30.92,119.55-14.78,146.88s-74.33,29-92,65.23-43.86,33.53-55.44,54.13C109.82,592,97.83,597.59,78.82,604S33.82,617.53,0,630.91Z"/><path class="cls-18" d="M161.38,164.11s-49.8,12.38-49,56.58C112.37,220.69,82.11,147.41,161.38,164.11Z"/><path class="cls-18" d="M158.46,164.53S114,138.87,83.91,171.24C83.91,171.24,113,97.48,158.46,164.53Z"/><path class="cls-18" d="M152,166.59s49.42-13.85,70.57,25C222.56,191.55,212.65,112.89,152,166.59Z"/><path class="cls-18" d="M155.33,165.35s26-44.27,68.13-31C223.46,134.34,161.72,84.59,155.33,165.35Z"/><path class="cls-18" d="M75.43,167.08s-51-5.49-65.48,36.28C10,203.36,6.72,124.14,75.43,167.08Z"/><path class="cls-18" d="M72.54,166.47S39.62,127.09.23,147.14C.23,147.14,52.89,87.87,72.54,166.47Z"/><path class="cls-18" d="M65.75,166.18s51.17,4,57.69,47.7C123.44,213.88,141.18,136.6,65.75,166.18Z"/><path class="cls-18" d="M69.32,166.17s39.6-32.65,74.64-5.71C144,160.46,103.08,92.52,69.32,166.17Z"/></g></g></svg>