<?xml version="1.0" encoding="utf-8"?>
<!-- Generator: Adobe Illustrator 23.0.2, SVG Export Plug-In . SVG Version: 6.00 Build 0)  -->
<svg version="1.1" id="Layer_1" xmlns="http://www.w3.org/2000/svg" xmlns:xlink="http://www.w3.org/1999/xlink" x="0px" y="0px"
	 viewBox="0 0 506.3 210.3" style="enable-background:new 0 0 506.3 210.3;" xml:space="preserve">
<style type="text/css">
	.st0{stroke:#000000;stroke-miterlimit:10;}
	.st1{stroke:#000000;stroke-width:1.65;stroke-miterlimit:10;}
</style>
<title>Sea Amigos Animals</title>
<g id="Crococdile">
	<path class="st0" d="M391.4,168.1l-0.8,28.5c0,0,4.7,5,0,9.1s-10.7,0-10.7,0s-6.9,9.1-19,1.1c0,0-12.6,3-13.2-5.5s9.6-8.2,9.6-8.2
		l1.9-24.2"/>
	<path class="st0" d="M206.6,161.1c0,0,2.9,26.4-25.4,26c-3.4,6.5-10.4,10.4-17.7,9.7c-13-0.8-14-6.6-14-6.6s-16.7,3.5-12.8-3.9
		s18.1-7.6,18.1-7.6s-4.1-9.9,4.1-15.9"/>
	<path class="st0" d="M414.5,90.9l5.6-15.2c0.2-0.5,0.8-0.7,1.3-0.5c0.1,0,0.1,0.1,0.2,0.1l5.5,4.5c0.5,0.3,1.1,0.2,1.4-0.2
		c0.1-0.1,0.1-0.2,0.1-0.3l1.7-7.5c0.1-0.5,0.6-0.8,1.1-0.7l11,1.6c0.6,0,1-0.4,1-1c0-0.1,0-0.2,0-0.3l-3.8-9.6
		c-0.1-0.4,0-0.9,0.4-1.2l8.1-5.1c0.4-0.3,0.5-1,0.2-1.4c-0.1-0.1-0.2-0.2-0.4-0.3l-12.5-4.5c-0.4-0.2-0.7-0.6-0.6-1.1l2.3-11.1
		c0.1-0.5-0.3-1-0.9-1.1c-0.1,0-0.2,0-0.3,0l-14.4,4.3c-0.3,0.1-0.7,0-0.9-0.2l-9.3-9.3c-0.4-0.4-1-0.3-1.4,0.1c0,0,0,0,0,0
		l-6.6,8.5c-0.2,0.3-0.6,0.4-1,0.3l-13.2-4.2c-0.5-0.1-1.1,0.2-1.2,0.7c0,0,0,0,0,0l-2.4,13.7c-0.1,0.5-0.7,0.9-1.2,0.7
		c-0.1,0-0.1,0-0.1,0l-8.2-3.9c0,0,11.3-36,49.5-27S475,64,457.2,75S414.5,90.9,414.5,90.9z"/>
	<path class="st0" d="M203.1,87.1L213.6,75c0.6-0.7,1.5-0.9,2.3-0.5l10,4.7c0.6,0.3,1.4,0.2,1.9-0.1l10.9-7.2c0.7-0.5,1.6-0.5,2.2,0
		l10.6,7.4c0.6,0.4,1.4,0.5,2,0.2l14.9-7.3c0.8-0.4,1.8-0.2,2.4,0.4l6,6.6c0.6,0.6,1.5,0.8,2.3,0.5l12.1-5.5
		c0.7-0.3,1.5-0.2,2.1,0.3l11,8.9c0.6,0.5,1.4,0.6,2.1,0.2l14.2-7.1c0.7-0.3,1.5-0.3,2.1,0.2l10.4,8.4c0.7,0.6,1.8,0.6,2.5,0
		l7.1-5.7c0.7-0.6,1.8-0.6,2.5,0l9.3,7.4c0.7,0.6,1.8,0.6,2.5,0l8.4-6.7c0.8-0.6,1.9-0.6,2.6,0.1l7.9,7.9c0.8,0.7,2,0.8,2.7,0.1
		l8.5-7.7c0.8-0.7,1.9-0.7,2.7,0l12.1,11.4"/>
	<path class="st0" d="M251.7,164.6c0,0-35.2-4.7-42.9-1.4s-63.8,13.2-109.7,4.7l-32.4,5.2L18,132.5c0,0,33.2-10.2,48.6-16.5
		s41-14.6,41-14.6s-3.2-31.9,20.4-35c19.2-2.5,22,16.2,22,16.2s2.2-19.6,23.9-14.6c16.7,3.9,13.8,24.1,13.8,24.1
		s19.8-13.6,63.1-11.6s136.3,14.7,167.1,7c33-8.2,40.8-21.5,35.5-38s-51.2-45.3-79.6,2.1c0,0-18.6-45,45.8-48.7s89.1,44.1,84.6,79.2
		s-10.7,59.8-60.6,75.9c0,0,9.5,14.9,9.5,22.7c0,0,27.6,6.2,24.3,14.4c-1.5,4.6-6.5,7.2-11.1,5.8c0,0,5,4.1-2.9,7.8
		s-25.2-1.6-27.2-5.4c0,0-14.4,6.6-21.9,0s6.6-15.7,6.6-15.7c-0.7-7.9-2.5-15.7-5.4-23.1L251.7,164.6z"/>
	<path class="st0" d="M39.1,137.1c0,0,13-12.8,26.8-3.9c11.4,7.1,16.4,21.1,12,33.8c-3.5,9.5-35.7,11.1-45.6,10.5s-39,0.6-30.9-29.9
		C11.1,120.2,39.1,137.1,39.1,137.1z"/>
	<path class="st0" d="M204.4,154.9c31.1,3.3,17.9,36.5,17.9,36.5s-18.6,11.1-2.1,15.3c11.6,2.9,15.7-3.7,15.7-3.7s2.9,8.7,17.9,7.2
		s3.7-8.9,3.7-8.9s12.8,2.1,10.5-6.6s-16.7-6.8-16.7-6.8c10.7-32.2-12.6-47.4-12.6-47.4c-7.9-4.6-17.5-5.4-26-2.1"/>
	<ellipse class="st0" cx="128.8" cy="84.3" rx="7.1" ry="8.8"/>
	<ellipse class="st0" cx="131.3" cy="85.7" rx="2.5" ry="2.8"/>
	<ellipse class="st0" cx="167.6" cy="84.3" rx="7.1" ry="8.8"/>
	<ellipse class="st0" cx="170.1" cy="85.7" rx="2.5" ry="2.8"/>
	<path class="st0" d="M65.1,141.8c0,2.4-3.5,2.4-7.9,2.4s-7.9,0-7.9-2.4s3.5-4.3,7.9-4.3S65.1,139.4,65.1,141.8z"/>
	<path class="st0" d="M28,141.2c0,2.4-3.5,2.4-7.9,2.4s-7.9,0-7.9-2.4s3.5-4.2,7.9-4.2S28,138.9,28,141.2z"/>
	<path class="st1" d="M79.3,160.2l100.9-19.5c0,0,4.4-0.3,8.8-7.1"/>
	<path class="st0" d="M208.3,110.4l12.3-8.7c1.5-1,3.5-0.9,4.9,0.2l6.6,5.6c1.4,1.2,3.4,1.3,4.8,0.3l10.5-7.2c1.6-1.1,3.6-0.9,5,0.4
		l5.4,5.2c1.3,1.3,3.3,1.5,4.8,0.6l11.7-7c1.3-0.8,3-0.8,4.3,0.1l9.3,6.4c1.3,0.9,2.9,0.9,4.2,0.2l10-5.8c1.6-0.9,3.5-0.6,4.8,0.6
		l6,6c1.2,1.2,3,1.5,4.6,0.8l14.5-7.2c1.5-0.7,3.2-0.5,4.4,0.6l9.5,8.5c1.2,1.1,3,1.3,4.4,0.6l15.3-7.6c1.4-0.7,3.1-0.5,4.3,0.5
		l8.5,7c1.3,1.1,3.2,1.2,4.6,0.3l10.3-6.4c1.4-0.9,3.3-0.8,4.6,0.3l9.4,7.6L208.3,110.4z"/>
	<path class="st0" d="M373.7,51.7c2.6-35.9,28.5-39.2,45.5-41.1c23.1-2.6,78.9,14,73.7,74c-6.4,73.5-80,66.6-89.1,69
		s-84.2,9.6-112.2,6.6s-40.2-1.9-40.2-1.9l2.2,6.9c0,0,36.6,12.6,105.6,5.2c0,0,44.8,5.5,89.1-11s46.9-27.4,57.3-68.9
		c0,0,8.9-56.8-41.1-80.4s-87.2-0.3-91.9,15.4S373.7,51.7,373.7,51.7z"/>
	<path class="st0" d="M446.3,163.4c-3.9-8.9-16.6-25.2-16.6-25.2l-26.4,15.4c0,0,11.3,8.2,13.5,14.4L446.3,163.4z"/>
	<path class="st0" d="M220.5,162.2c0,0-6.7-11.7-12.1-13.1l-23.9-0.8L101,168.2c0,0,28.1,6.2,67.4,1.9S220.5,162.2,220.5,162.2z"/>
	<path class="st0" d="M184.5,148.3c-14,3.3-85.6,19.5-85.6,19.5s5,1.5,6.7,1.2C170.8,155.5,184.5,148.3,184.5,148.3z"/>
</g>
</svg>
