<svg xmlns="http://www.w3.org/2000/svg" xmlns:xlink="http://www.w3.org/1999/xlink" viewBox="0 0 1057.16 630.91"><defs><style>.cls-1{isolation:isolate;}.cls-2{fill:url(#linear-gradient);}.cls-3{opacity:0.85;mix-blend-mode:multiply;fill:url(#linear-gradient-2);}.cls-4{fill:#acdee0;}.cls-5{fill:#e0e9ed;}.cls-6{fill:#b1efff;}</style><linearGradient id="linear-gradient" x1="528.83" y1="630.91" x2="528.83" gradientUnits="userSpaceOnUse"><stop offset="0.01" stop-color="#bff2ff"/><stop offset="1" stop-color="#b1efff"/></linearGradient><linearGradient id="linear-gradient-2" x1="0.5" y1="488.74" x2="1057.16" y2="488.74" gradientUnits="userSpaceOnUse"><stop offset="0" stop-color="#92d7e7"/><stop offset="0.13" stop-color="#8bd2e5"/><stop offset="0.31" stop-color="#78c5df"/><stop offset="0.53" stop-color="#59afd6"/><stop offset="0.76" stop-color="#2f92ca"/><stop offset="0.99" stop-color="#0071bc"/></linearGradient></defs><title>Antarctica-bg</title><g class="cls-1"><g id="Layer_2" data-name="Layer 2"><g id="North_Pole_Background" data-name="North Pole Background"><rect class="cls-2" x="0.5" width="1056.66" height="630.91"/><path class="cls-3" d="M.5,387.56,37.29,374a61.41,61.41,0,0,1,40.65-.64L103,381.73a61.5,61.5,0,0,0,35.32,1.06l44.58-12a61.42,61.42,0,0,1,31.93,0l43.94,11.89a61.53,61.53,0,0,0,35.18-.93l28.93-9.5a61.42,61.42,0,0,1,35.5-.84l40.53,11.2a61.44,61.44,0,0,0,35-.67l27.74-8.83a61.43,61.43,0,0,1,41.24,1.43l5.23,2.08a61.42,61.42,0,0,0,53-3.73l16-9.11a61.41,61.41,0,0,1,60.78,0L650.47,371a61.39,61.39,0,0,0,58.68,1.14l23.09-12a61.37,61.37,0,0,1,53.28-1.58l37.77,16.83a61.43,61.43,0,0,0,53.57-1.74l19.76-10.38a61.41,61.41,0,0,1,62.07,2.89h0a61.43,61.43,0,0,0,66,.62l32.45-20.27V630.91H.5Z"/><polygon class="cls-4" points="0 382.99 0 465.26 95.2 470.44 209.91 449.53 267.92 408.44 272.97 355.82 0 382.99"/><path class="cls-5" d="M281,348.78l-41.82-23.1a7.32,7.32,0,0,0-1.92-.73L119.83,297.36a7.56,7.56,0,0,0-2.46-.17L0,308.79V416.51l67.31,7.56a37.11,37.11,0,0,0,10.47-.3L194.3,403.89a7.52,7.52,0,0,0,3-.77l83.41-41A7.52,7.52,0,0,0,281,348.78Z"/><polygon class="cls-4" points="438.21 359.2 386.1 409.34 169.34 466.99 0 465.46 0 575.48 112.49 587.8 322.14 551.08 453.61 515.55 517.57 448.04 517.57 359.2 438.21 359.2"/><path class="cls-5" d="M515.16,338.11l-27.62-16.35a27.85,27.85,0,0,0-14.19-3.88H333.14a27.88,27.88,0,0,0-27.78,25.81c-.36,4.77-1,9.58-1.64,13.86a27.79,27.79,0,0,1-15.63,20.88l-77.82,36.74a27.84,27.84,0,0,1-8,2.4L53,438.42a27.47,27.47,0,0,1-3.85.27H0v87l95.86,12.19a71.71,71.71,0,0,0,23.87-1.07l136.14-29.34A28.56,28.56,0,0,0,260,507l130.72-24.72a28,28,0,0,0,9.33-3.6l95.09-58.05a27.83,27.83,0,0,0,9.53-9.7L525,376.16A27.86,27.86,0,0,0,515.16,338.11Z"/><path class="cls-6" d="M84.07,497.39s25-28.63,44.43-20.93A261.17,261.17,0,0,1,163,493.25Z"/><path class="cls-5" d="M84.07,500.94s25-28.62,44.43-20.93A261.17,261.17,0,0,1,163,496.8Z"/><path class="cls-6" d="M323.45,357.83s23.06-26.72,38.36-17.66a204.07,204.07,0,0,1,26.93,19.19Z"/><path class="cls-5" d="M323.14,361.37s23.06-26.72,38.36-17.66a204.07,204.07,0,0,1,26.93,19.19Z"/><path class="cls-6" d="M229.48,470.07s23.07-26.72,38.37-17.66a203.84,203.84,0,0,1,26.92,19.2Z"/><path class="cls-5" d="M229.18,473.61s23.06-26.72,38.36-17.66a203.56,203.56,0,0,1,26.93,19.2Z"/></g></g></g></svg>