<?xml version="1.0" encoding="utf-8"?>
<!-- Generator: Adobe Illustrator 19.0.0, SVG Export Plug-In . SVG Version: 6.00 Build 0)  -->
<svg version="1.1" id="Layer_1" xmlns="http://www.w3.org/2000/svg" xmlns:xlink="http://www.w3.org/1999/xlink" x="0px" y="0px"
	 viewBox="509 -295.9 1057.2 630.9" style="enable-background:new 509 -295.9 1057.2 630.9;" xml:space="preserve">
<style type="text/css">
	.st0{fill:url(#SVGID_1_);}
	.st1{opacity:0.85;fill:url(#SVGID_2_);enable-background:new    ;}
	.st2{fill:#ACDEE0;}
	.st3{fill:#E0E9ED;}
	.st4{fill:#B1EFFF;}
</style>
<title>Antarctica-bg</title>
<linearGradient id="SVGID_1_" gradientUnits="userSpaceOnUse" x1="1037.83" y1="-296.8199" x2="1037.8301" y2="334.09" gradientTransform="matrix(1 0 0 -1 0 38.1801)">
	<stop  offset="1.000000e-002" style="stop-color:#BFF2FF"/>
	<stop  offset="1" style="stop-color:#B1EFFF"/>
</linearGradient>
<rect x="509.5" y="-295.9" class="st0" width="1056.7" height="630.9"/>
<linearGradient id="SVGID_2_" gradientUnits="userSpaceOnUse" x1="509.5" y1="-154.62" x2="1566.14" y2="-154.62" gradientTransform="matrix(1 0 0 -1 0 38.1801)">
	<stop  offset="0" style="stop-color:#92D7E7"/>
	<stop  offset="0.13" style="stop-color:#8BD2E5"/>
	<stop  offset="0.31" style="stop-color:#78C5DF"/>
	<stop  offset="0.53" style="stop-color:#59AFD6"/>
	<stop  offset="0.76" style="stop-color:#2F92CA"/>
	<stop  offset="0.99" style="stop-color:#0071BC"/>
</linearGradient>
<path class="st1" d="M509.5,91.7l36.8-13.6c13.1-4.8,27.4-5,40.7-0.6l25.1,8.4c11.4,3.8,23.7,4.2,35.3,1.1l44.6-12
	c10.5-2.8,21.5-2.8,31.9,0l43.9,11.9c11.6,3.1,23.8,2.8,35.2-0.9l28.9-9.5c11.5-3.8,23.8-4.1,35.5-0.8l40.5,11.2
	c11.5,3.2,23.6,2.9,35-0.7l27.7-8.8c13.5-4.3,28.1-3.8,41.2,1.4l5.2,2.1c17.3,6.9,36.8,5.5,53-3.7l16-9.1
	c18.8-10.7,41.9-10.7,60.8,0l12.6,7.2c18.1,10.3,40.2,10.7,58.7,1.1l23.1-12c16.6-8.6,36.2-9.2,53.3-1.6l37.8,16.8
	c17.2,7.7,36.9,7,53.6-1.7l19.8-10.4c19.7-10.3,43.4-9.2,62.1,2.9l0,0c20,13,45.7,13.3,66,0.6l32.4-20.3V335H509.5V91.7z"/>
<polygon class="st2" points="509.3,77 509.3,173.8 522.2,174.5 636.9,153.6 644.9,112.5 650,59.9 "/>
<path class="st3" d="M661.1,56.1c-0.7-1.4-1.8-2.5-3.1-3.3l-31.8-23.1c-0.6-0.3-1.2-0.6-1.9-0.7L546.8,1.5c-0.8-0.2-1.6-0.2-2.5-0.2
	l-35,3.5v122.3l112-19.1c1,0,2.1-0.3,3-0.8l33.4-41C661.4,64.4,663,59.9,661.1,56.1z"/>
<polygon class="st2" points="927.2,73.3 875.1,123.4 658.3,181.1 509.3,179.7 509.3,291.8 601.5,301.9 811.1,265.2 942.6,229.6 
	1006.6,162.1 1006.6,73.3 "/>
<path class="st3" d="M1004.2,52.2l-27.6-16.4c-4.3-2.5-9.2-3.9-14.2-3.9H702.1c-14.6,0-26.7,11.3-27.8,25.8c-0.4,4.8-1,9.6-1.6,13.9
	c-1.4,9.1-7.3,16.9-15.6,20.9l-51.8,36.7c-2.5,1.2-5.2,2-8,2.4L542,152.5c-1.3,0.2-2.6,0.3-3.8,0.3h-28.8v89.6l75.5,9.6
	c8,1,16,0.6,23.9-1.1l136.1-29.3c1.4-0.1,2.8-0.2,4.1-0.5l130.7-24.7c3.3-0.6,6.5-1.8,9.3-3.6l95.1-58c3.9-2.4,7.2-5.7,9.5-9.7
	l20.3-34.8C1021.7,77,1017.4,60,1004.2,52.2z"/>
<path class="st4" d="M543.1,211.5c0,0,25-28.6,44.4-20.9c11.9,4.7,23.4,10.4,34.5,16.8L543.1,211.5z"/>
<path class="st3" d="M543.1,215c0,0,25-28.6,44.4-20.9c11.9,4.7,23.4,10.4,34.5,16.8L543.1,215z"/>
<path class="st4" d="M782.5,71.9c0,0,23.1-26.7,38.4-17.7c9.5,5.7,18.5,12.1,26.9,19.2L782.5,71.9z"/>
<path class="st3" d="M782.1,75.5c0,0,23.1-26.7,38.4-17.7C830,63.5,839,69.9,847.4,77L782.1,75.5z"/>
<path class="st4" d="M688.5,184.2c0,0,23.1-26.7,38.4-17.7c9.5,5.7,18.5,12.1,26.9,19.2L688.5,184.2z"/>
<path class="st3" d="M688.2,187.7c0,0,23.1-26.7,38.4-17.7c9.5,5.7,18.5,12.1,26.9,19.2L688.2,187.7z"/>
</svg>
