<?xml version="1.0" encoding="utf-8"?>
<!-- Generator: Adobe Illustrator 23.0.2, SVG Export Plug-In . SVG Version: 6.00 Build 0)  -->
<svg version="1.1" id="Layer_1" xmlns="http://www.w3.org/2000/svg" xmlns:xlink="http://www.w3.org/1999/xlink" x="0px" y="0px"
	 viewBox="0 0 218 255.6" style="enable-background:new 0 0 218 255.6;" xml:space="preserve">
<style type="text/css">
	.st0{stroke:#000000;stroke-miterlimit:10;}
</style>
<title>Sea Amigos Animals</title>
<g id="Penguin">
	<path class="st0" d="M55.7,87c0,0-14.2,9.5-22.5,54.1s5.6,55.1,7.4,55.3S78.5,104.7,55.7,87z"/>
	<path class="st0" d="M67.1,239.2c0,0-22.1,10-11.6,12.8c6.8,1.7,13.9,2.4,20.9,2.1c0,0,25.7-8.2,18.8-11.6
		C94.3,242,70.3,237.1,67.1,239.2z"/>
	<path class="st0" d="M114,237.8c0,0-22.1,12.8-11.6,15.6s25.1,2.1,25.1,2.1s24.3-11,17.4-14.4C144,240.6,117.3,235.8,114,237.8z"/>
	<path class="st0" d="M59.8,83.5c-1,0-22.7,20.2-24.1,72.2s15.7,81.6,28.9,84.4s58.2,11.2,76.4,0.7c0,0,8.7,12.2,18.8,9.8
		s24.4-7.7,27.2-13.2s-12.6-2.8-16.4-13.6s2.4-18.1-3.5-73.2c0,0-8.7-55.1-27.5-76L59.8,83.5z"/>
	<path class="st0" d="M109,10.1c1.1-3.3-1.4-8.6-1.4-8.6c0.2,4.1-5.7,5.6-5.7,5.6C102,1,98,0,98,0c0.8,2.9-0.1,6-2.4,8.1
		c-0.7,0-1.4-0.1-2.2-0.1C62.8,8,37.9,31.5,37.9,55.1S63,97.2,93.7,97.2S149,78.7,149,55.1C149.1,35.6,132.1,16.2,109,10.1z"/>
	<path class="st0" d="M141.1,240.8c0,0-4.3-4.3-0.6-21s-3-77.9-16.5-100.2c-0.7-1.2-9.5-22.6-0.9-28.6l19.3-16.3
		c0,0,20.9,37.4,25.6,80s-2.1,60.9,3.9,71.8c3.8,4.2,9,6.8,14.6,7.4c0,0,4,3.5-4.2,8.1s-21.4,8.4-21.4,8.4S152.1,254.8,141.1,240.8z
		"/>
	<path class="st0" d="M95.1,69.4c0.1,3.8-7.3,6.8-16.3,6.8s-16.3-3.8-16.3-6.8s7.3-4,16.3-4S95,66.4,95.1,69.4z"/>
	<ellipse class="st0" cx="78.8" cy="68.7" rx="16.3" ry="5.4"/>
	<ellipse class="st0" cx="64.6" cy="46.1" rx="5.4" ry="9.2"/>
	<ellipse class="st0" cx="63.1" cy="43.6" rx="1.5" ry="2.5"/>
	<ellipse class="st0" cx="99.1" cy="46.1" rx="5.4" ry="9.2"/>
	<ellipse class="st0" cx="97.6" cy="43.6" rx="1.5" ry="2.5"/>
	<path class="st0" d="M133.4,85.8c0,0,21.6,14.8,25.5,61.5s-21.8,51.5-25,51S91.3,94.2,133.4,85.8z"/>
</g>
</svg>
