<svg xmlns="http://www.w3.org/2000/svg" viewBox="0 0 86.57 86.57"><defs><style>.cls-1{isolation:isolate;}.cls-2{mix-blend-mode:multiply;}.cls-3{fill:#fff;}.cls-4{fill:#8a77b5;}</style></defs><title>Asset 16</title><g class="cls-1"><g id="Layer_2" data-name="Layer 2"><g id="Layer_1-2" data-name="Layer 1"><g class="cls-2"><circle class="cls-3" cx="45.78" cy="45.78" r="40.78"/></g><circle class="cls-4" cx="40.78" cy="40.78" r="40.78"/><path class="cls-3" d="M29.76,19.85q4.43-4.32,12-4.32Q49,15.53,53.35,19t4.32,9.79a12.68,12.68,0,0,1-1,5.21,14.88,14.88,0,0,1-2.41,3.81,46.73,46.73,0,0,1-3.81,3.65,29.34,29.34,0,0,0-4.78,4.94,9.11,9.11,0,0,0-1.6,5.48H36.29a14.65,14.65,0,0,1,.93-5.44,13.83,13.83,0,0,1,2.22-3.85A37.46,37.46,0,0,1,43,39a26.26,26.26,0,0,0,3.89-4.19,7.74,7.74,0,0,0,1.25-4.51,5.46,5.46,0,0,0-1.91-4.55,8.37,8.37,0,0,0-5.33-1.52,7.81,7.81,0,0,0-5.59,1.91,7.83,7.83,0,0,0-2.18,5.63H25.25Q25.33,24.16,29.76,19.85Zm14.11,37a5.45,5.45,0,0,1,1.51,4,5.69,5.69,0,0,1-1.51,4.09A5.1,5.1,0,0,1,40,66.5a4.93,4.93,0,0,1-3.77-1.63,5.74,5.74,0,0,1-1.52-4.05,5.45,5.45,0,0,1,1.52-4A5,5,0,0,1,40,55.31,5.14,5.14,0,0,1,43.87,56.86Z"/></g></g></g></svg>