<svg xmlns="http://www.w3.org/2000/svg" xmlns:xlink="http://www.w3.org/1999/xlink" viewBox="0 0 320 640"><defs><style>.cls-1{fill:url(#radial-gradient);}.cls-2{font-size:29px;}.cls-2,.cls-23,.cls-3{fill:#fff;}.cls-2,.cls-3{font-family:Montserrat-Bold, Montserrat;font-weight:700;}.cls-3{font-size:20px;}.cls-4{letter-spacing:0em;}.cls-5{letter-spacing:-0.02em;}.cls-6{letter-spacing:-0.02em;}.cls-7{letter-spacing:-0.01em;}.cls-8{letter-spacing:0.01em;}.cls-9{letter-spacing:-0.02em;}.cls-10{letter-spacing:0.01em;}.cls-11{letter-spacing:-0.01em;}.cls-12{letter-spacing:-0.01em;}.cls-13{letter-spacing:0.01em;}.cls-14{letter-spacing:-0.01em;}.cls-15{letter-spacing:-0.01em;}.cls-16{letter-spacing:0em;}.cls-17{letter-spacing:0.02em;}.cls-18{fill:#404041;}.cls-19{fill:#e6e7e8;}.cls-20{fill:#faaf40;}.cls-21{fill:#fff100;}.cls-22{fill:#231f20;}.cls-24{fill:#92d7e7;}</style><radialGradient id="radial-gradient" cx="160" cy="320" r="252.98" gradientUnits="userSpaceOnUse"><stop offset="0" stop-color="#59afc5"/><stop offset="0.23" stop-color="#4aa8c0"/><stop offset="0.66" stop-color="#2396b2"/><stop offset="1" stop-color="#0085a6"/></radialGradient></defs><title>Asset 51</title><g id="Layer_2" data-name="Layer 2"><g id="Amazon_Environment" data-name="Amazon Environment"><rect class="cls-1" width="320" height="640"/><text class="cls-2" transform="translate(101.06 434.96)">UH OH!</text><text class="cls-3" transform="translate(29.07 473.31)"><tspan class="cls-4">L</tspan><tspan x="12" y="0">oo</tspan><tspan class="cls-5" x="38.2" y="0">k</tspan><tspan x="51.04" y="0">s li</tspan><tspan class="cls-6" x="79.36" y="0">k</tspan><tspan x="92.1" y="0">e </tspan><tspan class="cls-7" x="110.38" y="0">y</tspan><tspan x="122.04" y="0">ou </tspan><tspan class="cls-8" x="154.54" y="0">n</tspan><tspan x="168.48" y="0">eed </tspan><tspan class="cls-9" x="213.22" y="0">t</tspan><tspan x="221.58" y="0">o do </tspan><tspan x="7.43" y="24">so</tspan><tspan class="cls-10" x="31.15" y="24">m</tspan><tspan x="52.25" y="24">e </tspan><tspan class="cls-11" x="70.53" y="24">r</tspan><tspan class="cls-12" x="78.97" y="24">e</tspan><tspan x="91.39" y="24">vi</tspan><tspan class="cls-12" x="109.37" y="24">e</tspan><tspan x="121.79" y="24">w! Ma</tspan><tspan class="cls-6" x="183.41" y="24">k</tspan><tspan x="196.15" y="24">e su</tspan><tspan class="cls-11" x="238.79" y="24">r</tspan><tspan x="247.23" y="24">e </tspan><tspan class="cls-7" x="-6.68" y="48">y</tspan><tspan x="4.98" y="48">ou go th</tspan><tspan class="cls-11" x="92.76" y="48">r</tspan><tspan x="101.2" y="48">ough t</tspan><tspan class="cls-10" x="170.22" y="48">h</tspan><tspan x="184.16" y="48">e animal </tspan><tspan class="cls-12" x="-6.21" y="72">f</tspan><tspan class="cls-10" x="1.33" y="72">a</tspan><tspan class="cls-13" x="13.79" y="72">c</tspan><tspan x="25.77" y="72">ts </tspan><tspan class="cls-10" x="50.75" y="72">a</tspan><tspan x="63.21" y="72">gain be</tspan><tspan class="cls-14" x="141.47" y="72">f</tspan><tspan x="149.07" y="72">o</tspan><tspan class="cls-15" x="162.17" y="72">r</tspan><tspan class="cls-16" x="170.61" y="72">e </tspan><tspan class="cls-15" x="188.89" y="72">r</tspan><tspan x="197.33" y="72">et</tspan><tspan class="cls-17" x="218.65" y="72">r</tspan><tspan x="227.57" y="72">yi</tspan><tspan class="cls-8" x="245.55" y="72">n</tspan><tspan x="259.49" y="72">g </tspan><tspan x="88.29" y="96">t</tspan><tspan class="cls-10" x="96.99" y="96">h</tspan><tspan x="110.93" y="96">e qui</tspan><tspan class="cls-10" x="162.77" y="96">z</tspan><tspan x="173.75" y="96">.</tspan></text><g id="_Group_" data-name="&lt;Group&gt;"><path id="_Path_" data-name="&lt;Path&gt;" class="cls-18" d="M112.6,198.76s-13,8.75-20.69,49.72,5.12,50.57,6.82,50.78S133.51,215,112.6,198.76Z"/><path id="_Path_2" data-name="&lt;Path&gt;" class="cls-18" d="M123.06,338.52s-20.27,9.18-10.67,11.74a67,67,0,0,0,19.2,1.92s23.57-7.53,17.29-10.67C148,341.08,126.05,336.6,123.06,338.52Z"/><path id="_Path_3" data-name="&lt;Path&gt;" class="cls-18" d="M166.16,337.24s-20.27,11.74-10.67,14.3,23,1.92,23,1.92,22.28-10.09,16-13.23C193.69,339.8,169.15,335.32,166.16,337.24Z"/><path id="_Path_4" data-name="&lt;Path&gt;" class="cls-19" d="M116.44,195.56c-1,0-20.8,18.56-22.08,66.25s14.4,74.9,26.57,77.46,57.18,10.85,71.68-.81c0,0,6.41,12.65,15.69,10.41s22.41-7,25-12.16-11.52-2.56-15-12.48,2.24-16.65-3.2-67.22c0,0-8-50.57-25.29-69.77Z"/><path id="_Path_5" data-name="&lt;Path&gt;" class="cls-18" d="M161.52,128.15c1-3.07-1.29-7.85-1.29-7.85.21,3.73-5.23,5.12-5.23,5.12.11-5.55-3.52-6.51-3.52-6.51a7.45,7.45,0,0,1-2.19,7.41c-.65,0-1.3,0-2,0-28.17,0-51,21.54-51,43.2s23,38.63,51.21,38.63,50.8-17,50.8-38.63C198.33,151.6,182.78,133.83,161.52,128.15Z"/><path id="_Path_6" data-name="&lt;Path&gt;" class="cls-18" d="M192,339.91s-4-4-.53-19.31-2.84-71.45-15.15-92c-.64-1.07-8.75-20.7-.86-26.24l17-16.6s20,36,24.22,75.06-1.92,55.91,3.62,65.94a21.73,21.73,0,0,0,13.45,6.83s3.62,3.2-3.84,7.46-19.63,7.69-19.63,7.69S202.16,352.82,192,339.91Z"/><path id="_Path_7" data-name="&lt;Path&gt;" class="cls-20" d="M148.8,182.59c.08,3.52-6.69,6.25-15,6.25s-15-3.51-15-6.25,6.7-3.68,15-3.68S148.74,179.85,148.8,182.59Z"/><ellipse id="_Path_8" data-name="&lt;Path&gt;" class="cls-21" cx="133.84" cy="181.95" rx="14.96" ry="4.96"/><ellipse id="_Path_9" data-name="&lt;Path&gt;" class="cls-22" cx="120.76" cy="161.23" rx="4.96" ry="8.4"/><ellipse id="_Path_10" data-name="&lt;Path&gt;" class="cls-23" cx="119.4" cy="158.95" rx="1.36" ry="2.28"/><ellipse id="_Path_11" data-name="&lt;Path&gt;" class="cls-22" cx="152.45" cy="161.23" rx="4.96" ry="8.4"/><ellipse id="_Path_12" data-name="&lt;Path&gt;" class="cls-23" cx="151.09" cy="158.95" rx="1.36" ry="2.28"/><path id="_Path_13" data-name="&lt;Path&gt;" class="cls-18" d="M184,197.67s19.8,13.58,23.39,56.47-20,47.27-22.91,46.82S145.31,205.34,184,197.67Z"/><path class="cls-18" d="M124.61,150.54s-3.16,6.75-14.33,7.58C110.28,158.12,118.28,151.37,124.61,150.54Z"/><path class="cls-18" d="M150,149.93s1.94,7.2,12.79,10C162.76,159.9,156.06,151.86,150,149.93Z"/></g><path class="cls-24" d="M163.14,175.82c0,3.06-1.65,4.06-3.69,4.06s-3.68-1-3.68-4.06,3.68-5.53,3.68-5.53S163.14,172.77,163.14,175.82Z"/></g></g></svg>