<svg xmlns="http://www.w3.org/2000/svg" xmlns:xlink="http://www.w3.org/1999/xlink" viewBox="0 0 320 640"><defs><style>.cls-1{fill:url(#radial-gradient);}.cls-2{font-size:29px;}.cls-2,.cls-21,.cls-5{fill:#fff;}.cls-2,.cls-5{font-family:Montserrat-Bold, Montserrat;font-weight:700;}.cls-3{letter-spacing:-0.01em;}.cls-4{letter-spacing:0.02em;}.cls-5{font-size:20px;}.cls-6{letter-spacing:-0.01em;}.cls-7{letter-spacing:0.01em;}.cls-8{letter-spacing:-0.03em;}.cls-9{letter-spacing:-0.02em;}.cls-10{letter-spacing:-0.01em;}.cls-11{letter-spacing:-0.01em;}.cls-12{letter-spacing:0.01em;}.cls-13{letter-spacing:-0.01em;}.cls-14{letter-spacing:0.01em;}.cls-15{letter-spacing:0em;}.cls-16{letter-spacing:0.02em;}.cls-17{letter-spacing:0.01em;}.cls-18{fill:#2a4d8b;}.cls-19{fill:#231f20;}.cls-20,.cls-23{fill:none;stroke-miterlimit:10;}.cls-20{stroke:#031a45;}.cls-22{fill:#d1d3d4;}.cls-23{stroke:#2a4d8b;}</style><radialGradient id="radial-gradient" cx="160" cy="320" r="252.98" gradientUnits="userSpaceOnUse"><stop offset="0" stop-color="#59afc5"/><stop offset="0.23" stop-color="#4aa8c0"/><stop offset="0.66" stop-color="#2396b2"/><stop offset="1" stop-color="#0085a6"/></radialGradient></defs><title>Asset 53</title><g id="Layer_2" data-name="Layer 2"><g id="Amazon_Environment" data-name="Amazon Environment"><rect class="cls-1" width="320" height="640"/><text class="cls-2" transform="translate(88.44 437.88)">ALMO<tspan class="cls-3" x="91.9" y="0">S</tspan><tspan class="cls-4" x="110.11" y="0">T</tspan><tspan x="128.61" y="0">!</tspan></text><text class="cls-5" transform="translate(41.18 476.23)">Ni<tspan class="cls-6" x="22.18" y="0">c</tspan><tspan x="33.86" y="0">e t</tspan><tspan class="cls-7" x="60.84" y="0">r</tspan><tspan class="cls-8" x="69.76" y="0">y</tspan><tspan x="81.08" y="0">. Ma</tspan><tspan class="cls-9" x="123.42" y="0">k</tspan><tspan x="136.16" y="0">e su</tspan><tspan class="cls-10" x="178.8" y="0">r</tspan><tspan x="187.24" y="0">e </tspan><tspan class="cls-11" x="205.52" y="0">y</tspan><tspan x="217.18" y="0">ou </tspan><tspan class="cls-10" x="-6.21" y="24">r</tspan><tspan class="cls-11" x="2.23" y="24">e</tspan><tspan class="cls-12" x="14.55" y="24">a</tspan><tspan x="27.01" y="24">d th</tspan><tspan class="cls-10" x="69.03" y="24">r</tspan><tspan x="77.47" y="24">ough t</tspan><tspan class="cls-12" x="146.49" y="24">h</tspan><tspan x="160.43" y="24">e animal </tspan><tspan class="cls-13" x="-17.84" y="48">f</tspan><tspan class="cls-12" x="-10.3" y="48">a</tspan><tspan class="cls-14" x="2.16" y="48">c</tspan><tspan x="14.14" y="48">ts </tspan><tspan class="cls-12" x="39.12" y="48">a</tspan><tspan x="51.58" y="48">gain be</tspan><tspan class="cls-6" x="129.84" y="48">f</tspan><tspan x="137.44" y="48">o</tspan><tspan class="cls-10" x="150.54" y="48">r</tspan><tspan class="cls-15" x="158.98" y="48">e </tspan><tspan class="cls-10" x="177.26" y="48">r</tspan><tspan x="185.7" y="48">et</tspan><tspan class="cls-16" x="207.02" y="48">r</tspan><tspan x="215.94" y="48">yi</tspan><tspan class="cls-17" x="233.92" y="48">n</tspan><tspan x="247.86" y="48">g </tspan><tspan x="76.66" y="72">t</tspan><tspan class="cls-12" x="85.36" y="72">h</tspan><tspan x="99.3" y="72">e qui</tspan><tspan class="cls-12" x="151.14" y="72">z</tspan><tspan x="162.12" y="72">.</tspan></text><g id="Blue_Whale" data-name="Blue Whale"><path class="cls-18" d="M108.46,234.52s7.25,16,5.25,30.25,6,12.5,10.25,9.25,16.75-18.5,14-31.25Z"/><path class="cls-18" d="M37.62,144.11S17,116.77,40.29,96.77s101.89-35.16,149.33-5.66c41.07,25.5,97.92,61.5,89.56,182a4.34,4.34,0,0,1-2.27,3.51l-2.24,1.2s-32.33,60.67-107.33,55.67c0,0,5.67,40-37,56.33,0,0-6.33-3,2.33-8.33,0,0-6.66-26.67,11.67-42,0,0-18.33,8.33-37.33-14.67-10.67-1-3.67-9.33-3.67-9.33,39.67-22,55.33-.67,55.33-.67L192,316.52s44.75-41.5,30.75-84.75-67.25-88-67.25-88-19.75,16.75-59,2.5S42,148.52,42,148.52Z"/><ellipse class="cls-19" cx="130.46" cy="105.15" rx="7.75" ry="10.38"/><path class="cls-20" d="M211,144s11.5,15.25,23.75,28.25,21,10.75,19.25,21-32.5,0-42.25-8.5"/><circle class="cls-21" cx="132.21" cy="103.27" r="3"/><path class="cls-22" d="M153.46,134.77s64.75,44.75,74.5,108.5-60.67,90.17-60.67,90.17-13.25-9.17-8.67-18.67,18.09-13.75,16.59-25.5-19.25-38.5-57-49.75c-10.61-3.16-93-6.75-82.5-93.25a77.1,77.1,0,0,1,37-16.5Q114.73,122.33,153.46,134.77Z"/><path class="cls-23" d="M42.46,137.27S32,201,80.46,219.77c47.81,18.49,107.72,31.9,103.72,67.25-2.5,22.5-26.75,34.75-26.75,34.75"/><path class="cls-23" d="M54.18,129.52s-11,61.75,32.75,80.25,94.75,26,103.25,51,2.5,48-31.75,63.75"/><path class="cls-23" d="M76.18,129s-8,57,34.75,72.75,89.69,30.49,90.25,66.25c.5,32.25-14.75,44.75-41.5,59"/><path class="cls-23" d="M100.69,126.8s-19.67,50.5,38.77,72c54.47,20,70,42,69.25,63S206,312,161,329"/><path class="cls-23" d="M130.35,127.8s-21.5,49.5,34.61,67.72c50.14,16.28,55.75,49.75,56.25,63.25s-7,49.75-58.75,73.75"/></g><path class="cls-18" d="M122.89,93.57s11.52,12.81,22,11C144.88,104.57,138.32,89.37,122.89,93.57Z"/></g></g></svg>