<svg xmlns="http://www.w3.org/2000/svg" xmlns:xlink="http://www.w3.org/1999/xlink" viewBox="0 0 320 640"><defs><style>.cls-1{fill:url(#radial-gradient);}.cls-2{font-size:29px;}.cls-2,.cls-20,.cls-6{fill:#fff;}.cls-2,.cls-6{font-family:Montserrat-Bold, Montserrat;font-weight:700;}.cls-3{letter-spacing:-0.01em;}.cls-4{letter-spacing:0.02em;}.cls-5{letter-spacing:0em;}.cls-6{font-size:20px;}.cls-7{letter-spacing:-0.02em;}.cls-8{letter-spacing:-0.01em;}.cls-9{letter-spacing:-0.01em;}.cls-10{letter-spacing:-0.01em;}.cls-11{letter-spacing:0.01em;}.cls-12{letter-spacing:0.01em;}.cls-13{letter-spacing:-0.01em;}.cls-14{letter-spacing:0em;}.cls-15{letter-spacing:0.01em;}.cls-16,.cls-18{fill:#a7a9ac;}.cls-17{fill:#808285;}.cls-18{stroke:#8c8c8c;stroke-width:0.5px;}.cls-18,.cls-21{stroke-miterlimit:10;}.cls-19{fill:#231f20;}.cls-21{fill:none;stroke:#231f20;stroke-width:1.02px;}.cls-22{fill:#414042;}</style><radialGradient id="radial-gradient" cx="160" cy="320" r="252.98" gradientUnits="userSpaceOnUse"><stop offset="0" stop-color="#59afc5"/><stop offset="0.23" stop-color="#4aa8c0"/><stop offset="0.66" stop-color="#2396b2"/><stop offset="1" stop-color="#0085a6"/></radialGradient></defs><title>Asset 40</title><g id="Layer_2" data-name="Layer 2"><g id="Amazon_Environment" data-name="Amazon Environment"><rect class="cls-1" width="320" height="640"/><text class="cls-2" transform="translate(80.06 437.88)">NICE T<tspan class="cls-3" x="99.79" y="0">R</tspan><tspan class="cls-4" x="120.81" y="0">Y</tspan><tspan class="cls-5" x="141" y="0">!</tspan></text><text class="cls-6" transform="translate(26.7 476.23)">Ma<tspan class="cls-7" x="31.44" y="0">k</tspan><tspan x="44.18" y="0">e su</tspan><tspan class="cls-8" x="86.82" y="0">r</tspan><tspan x="95.26" y="0">e </tspan><tspan class="cls-9" x="113.54" y="0">y</tspan><tspan x="125.2" y="0">ou </tspan><tspan class="cls-8" x="157.7" y="0">r</tspan><tspan class="cls-10" x="166.14" y="0">e</tspan><tspan x="178.56" y="0">vi</tspan><tspan class="cls-10" x="196.54" y="0">e</tspan><tspan x="208.96" y="0">w t</tspan><tspan class="cls-11" x="242.06" y="0">h</tspan><tspan x="256" y="0">e </tspan><tspan x="1" y="24">animal </tspan><tspan class="cls-10" x="78.18" y="24">f</tspan><tspan class="cls-11" x="85.72" y="24">a</tspan><tspan class="cls-12" x="98.18" y="24">c</tspan><tspan x="110.16" y="24">ts </tspan><tspan class="cls-11" x="135.14" y="24">a</tspan><tspan x="147.6" y="24">gain be</tspan><tspan class="cls-13" x="225.86" y="24">f</tspan><tspan x="233.46" y="24">o</tspan><tspan class="cls-8" x="246.56" y="24">r</tspan><tspan class="cls-14" x="255" y="24">e </tspan><tspan class="cls-9" x="38.73" y="48">y</tspan><tspan x="50.39" y="48">ou </tspan><tspan class="cls-8" x="82.89" y="48">r</tspan><tspan x="91.33" y="48">et</tspan><tspan class="cls-15" x="112.65" y="48">r</tspan><tspan x="121.57" y="48">y t</tspan><tspan class="cls-11" x="147.89" y="48">h</tspan><tspan x="161.83" y="48">e qui</tspan><tspan class="cls-11" x="213.67" y="48">z</tspan><tspan x="224.65" y="48">.</tspan></text><g id="Seal"><path class="cls-16" d="M82,262.89s-2.4,22.49-14.64,30.61S50,310.8,62.94,314.26s35.13.4,43.25-15.7"/><path class="cls-16" d="M100.46,161.1c28.88-10.51,62.14,13.71,66.8,50.43,4.66,37.13,55.89-4.79,78.77,71.59,0,0,8.39,3.86,13.58-11.84,0,0,6.12,1.06,5.45,12,0,0,8.12,0,7.45,9.85,0,0,3.06,3.73.67,10.25,0,0,5.45,6.78.4,8.11s-22.22,3.06-30.74,1.07c0,0-45.51,20-133.06-1.2,0,0-38.86-5.06-41.92-64.67-.26-5.19,3.6-10.38,2.53-14.77C59.88,184.79,76.38,169.88,100.46,161.1Z"/><ellipse class="cls-17" cx="91.95" cy="221.91" rx="12.64" ry="10.51"/><ellipse class="cls-17" cx="111.91" cy="221.91" rx="12.64" ry="10.51"/><path class="cls-18" d="M156.48,282.85s9.05,12.51,17.83,16.24,20,15.7,18.63,26.48-41.65,1.73-49-9.05"/><path class="cls-19" d="M106.05,213.13l-2.66,3.19a1.7,1.7,0,0,1-2.39.27l-.27-.27-2.66-3.19a1.7,1.7,0,0,1,.13-2.4,1.9,1.9,0,0,1,1.2-.39h5.19a1.65,1.65,0,0,1,1.73,1.59A.85.85,0,0,1,106.05,213.13Z"/><circle class="cls-19" cx="87.96" cy="198.76" r="6.92"/><circle class="cls-20" cx="90.75" cy="198.76" r="2.93"/><circle class="cls-19" cx="121.35" cy="198.76" r="6.92"/><circle class="cls-20" cx="118.83" cy="198.76" r="2.93"/><path class="cls-21" d="M101.93,215.39v8.52"/><path class="cls-22" d="M86,216.72l-.4-.4c-.27-.13-.4-.26-.66-.4s-.54-.4-.8-.53a18.24,18.24,0,0,0-2.4-.93,3,3,0,0,0-1.46-.4,5.12,5.12,0,0,0-1.47-.13c-.53,0-1.06-.14-1.46-.14H75.85a3.91,3.91,0,0,0-1.33.14l-1.33.13c-.8.13-1.33.27-1.87.4l-.66.13.66-.13c.4-.13,1.07-.27,1.73-.53l1.2-.27,1.33-.13A5.55,5.55,0,0,1,77,213.4h1.6c.53,0,1.07.13,1.6.13a4.88,4.88,0,0,1,1.46.26,15.3,15.3,0,0,1,2.53.8,2.14,2.14,0,0,1,.93.54,3,3,0,0,1,.67.39,4.5,4.5,0,0,1,.66.54Z"/><path class="cls-22" d="M84.5,218.58c-.67-.26-1.2-.53-1.87-.79a11.32,11.32,0,0,0-2-.54,3.78,3.78,0,0,0-1.2-.13h-1.2a3.78,3.78,0,0,0-1.2.13l-.53.14-.66.13a3.34,3.34,0,0,0-1.07.4c-.26.13-.66.27-.93.4l-.8.4-.53.4-.4.26.4-.4.53-.4c.27-.13.4-.26.67-.39s.66-.4.93-.54a8.69,8.69,0,0,1,1.06-.53l.54-.13.66-.13a3.52,3.52,0,0,1,1.2-.14h2.53a13.51,13.51,0,0,1,2.13.4,11.1,11.1,0,0,1,2,.67Z"/><path class="cls-22" d="M83.7,221.38a6.37,6.37,0,0,0-1.73-.53,8.61,8.61,0,0,0-1.86-.27H79a3,3,0,0,0-1.06.13,3.24,3.24,0,0,0-1.07.27c-.26.13-.66.27-.93.4s-.66.27-.93.4a2.64,2.64,0,0,0-.8.53,1,1,0,0,0-.53.53l-.4.4-.27.14.27-.4.4-.4.53-.54a2.59,2.59,0,0,1,.67-.53,2.13,2.13,0,0,1,.93-.53,6.16,6.16,0,0,1,2-.8,3.78,3.78,0,0,1,1.2-.13h1.07c.66,0,1.33.13,2,.13a7.65,7.65,0,0,1,1.86.53Z"/><path class="cls-22" d="M117.36,216.06a1.61,1.61,0,0,0,.53-.54,3,3,0,0,1,.67-.39c.27-.14.67-.4.93-.54a9.51,9.51,0,0,1,2.53-.8c.53-.13.93-.13,1.46-.26a6.69,6.69,0,0,1,1.6-.13h1.6a5.55,5.55,0,0,1,1.46.13l1.33.13,1.2.27a9.1,9.1,0,0,1,1.73.53l.66.13-.66-.13a14.4,14.4,0,0,0-1.86-.4l-1.2-.13a4.31,4.31,0,0,1-1.33-.14h-1.47a4.74,4.74,0,0,0-1.46.14c-.53,0-.93.13-1.46.13s-.93.27-1.47.27a16.82,16.82,0,0,0-2.39.93,6.57,6.57,0,0,0-.93.53c-.27.13-.4.27-.67.4a1.87,1.87,0,0,1-.53.4Z"/><path class="cls-22" d="M119.09,217.65a10.21,10.21,0,0,1,2.13-.66l2.13-.4h2.53c.4,0,.8.13,1.2.13l.66.14.53.13c.4.13.67.26,1.07.4a3.29,3.29,0,0,1,.93.53,3,3,0,0,1,.67.4l.53.4.4.4-.54-.4-.53-.4-.8-.4c-.26-.13-.66-.27-.93-.4s-.66-.27-1.06-.4l-.53-.13-.54-.13c-.4,0-.8-.14-1.19-.14h-1.2a3.52,3.52,0,0,0-1.2.14,10.77,10.77,0,0,0-2,.53,4.62,4.62,0,0,0-1.86.8Z"/><path class="cls-22" d="M119.89,220.45a9.47,9.47,0,0,1,1.86-.53,9.62,9.62,0,0,1,2-.14h1.06c.4,0,.8.14,1.2.14a5.76,5.76,0,0,1,2.13.79,5.88,5.88,0,0,0,.93.54,3,3,0,0,1,.67.53l.53.53.4.4.27.4-.4-.4-.4-.4a2.06,2.06,0,0,1-.54-.53c-.26-.13-.53-.4-.79-.53a5.76,5.76,0,0,0-.94-.4c-.26-.14-.66-.27-.93-.4s-.66-.14-1.06-.27-.67-.13-1.07-.13h-1.06a9.06,9.06,0,0,0-1.86.26c-.54.14-1.2.4-1.73.54Z"/><path class="cls-21" d="M111.19,228.76a15,15,0,0,0-9.26-4.85s-5.87.85-9.62,4.85"/></g></g></g></svg>