<svg xmlns="http://www.w3.org/2000/svg" xmlns:xlink="http://www.w3.org/1999/xlink" viewBox="0 0 320 640"><defs><style>.cls-1{fill:url(#radial-gradient);}.cls-2{font-size:29px;}.cls-2,.cls-20,.cls-22,.cls-3{fill:#fff;}.cls-2,.cls-3{font-family:Montserrat-Bold, Montserrat;font-weight:700;}.cls-3{font-size:20px;}.cls-4{letter-spacing:0em;}.cls-5{letter-spacing:-0.02em;}.cls-6{letter-spacing:-0.02em;}.cls-7{letter-spacing:-0.01em;}.cls-8{letter-spacing:0.01em;}.cls-9{letter-spacing:-0.02em;}.cls-10{letter-spacing:0.01em;}.cls-11{letter-spacing:-0.01em;}.cls-12{letter-spacing:-0.01em;}.cls-13{letter-spacing:0.01em;}.cls-14{letter-spacing:-0.01em;}.cls-15{letter-spacing:-0.01em;}.cls-16{letter-spacing:0em;}.cls-17{letter-spacing:0.02em;}.cls-18{fill:#ef4136;}.cls-19{fill:#65383a;}.cls-20{opacity:0.38;isolation:isolate;}.cls-21{fill:#231f20;}.cls-23{fill:none;stroke:#231f20;stroke-miterlimit:10;}</style><radialGradient id="radial-gradient" cx="160" cy="320" r="252.98" gradientUnits="userSpaceOnUse"><stop offset="0" stop-color="#59afc5"/><stop offset="0.23" stop-color="#4aa8c0"/><stop offset="0.66" stop-color="#2396b2"/><stop offset="1" stop-color="#0085a6"/></radialGradient></defs><title>Asset 41</title><g id="Layer_2" data-name="Layer 2"><g id="Amazon_Environment" data-name="Amazon Environment"><rect class="cls-1" width="320" height="640"/><text class="cls-2" transform="translate(98.35 437.88)">UH OH!</text><text class="cls-3" transform="translate(26.36 476.23)"><tspan class="cls-4">L</tspan><tspan x="12" y="0">oo</tspan><tspan class="cls-5" x="38.2" y="0">k</tspan><tspan x="51.04" y="0">s li</tspan><tspan class="cls-6" x="79.36" y="0">k</tspan><tspan x="92.1" y="0">e </tspan><tspan class="cls-7" x="110.38" y="0">y</tspan><tspan x="122.04" y="0">ou </tspan><tspan class="cls-8" x="154.54" y="0">n</tspan><tspan x="168.48" y="0">eed </tspan><tspan class="cls-9" x="213.22" y="0">t</tspan><tspan x="221.58" y="0">o do </tspan><tspan x="7.43" y="24">so</tspan><tspan class="cls-10" x="31.15" y="24">m</tspan><tspan x="52.25" y="24">e </tspan><tspan class="cls-11" x="70.53" y="24">r</tspan><tspan class="cls-12" x="78.97" y="24">e</tspan><tspan x="91.39" y="24">vi</tspan><tspan class="cls-12" x="109.37" y="24">e</tspan><tspan x="121.79" y="24">w! Ma</tspan><tspan class="cls-6" x="183.41" y="24">k</tspan><tspan x="196.15" y="24">e su</tspan><tspan class="cls-11" x="238.79" y="24">r</tspan><tspan x="247.23" y="24">e </tspan><tspan class="cls-7" x="-6.68" y="48">y</tspan><tspan x="4.98" y="48">ou go th</tspan><tspan class="cls-11" x="92.76" y="48">r</tspan><tspan x="101.2" y="48">ough t</tspan><tspan class="cls-10" x="170.22" y="48">h</tspan><tspan x="184.16" y="48">e animal </tspan><tspan class="cls-12" x="-6.21" y="72">f</tspan><tspan class="cls-10" x="1.33" y="72">a</tspan><tspan class="cls-13" x="13.79" y="72">c</tspan><tspan x="25.77" y="72">ts </tspan><tspan class="cls-10" x="50.75" y="72">a</tspan><tspan x="63.21" y="72">gain be</tspan><tspan class="cls-14" x="141.47" y="72">f</tspan><tspan x="149.07" y="72">o</tspan><tspan class="cls-15" x="162.17" y="72">r</tspan><tspan class="cls-16" x="170.61" y="72">e </tspan><tspan class="cls-15" x="188.89" y="72">r</tspan><tspan x="197.33" y="72">et</tspan><tspan class="cls-17" x="218.65" y="72">r</tspan><tspan x="227.57" y="72">yi</tspan><tspan class="cls-8" x="245.55" y="72">n</tspan><tspan x="259.49" y="72">g </tspan><tspan x="88.29" y="96">t</tspan><tspan class="cls-10" x="96.99" y="96">h</tspan><tspan x="110.93" y="96">e qui</tspan><tspan class="cls-10" x="162.77" y="96">z</tspan><tspan x="173.75" y="96">.</tspan></text><g id="Squid"><path class="cls-18" d="M134.18,221.73c-.53-.35-7.85-60.9,19.74-89.54,1.41-1.5,19.83-.79,22-.09,16.13,5.38,20.63,71.39,11,95.36C187,227.55,157.89,235.75,134.18,221.73Z"/><path class="cls-19" d="M144.49,117.83l9.61-15a15.61,15.61,0,0,1,27.05,1.24l8.2,15.77a15.64,15.64,0,0,1-6.7,21.07,16.6,16.6,0,0,1-7.93,1.76l-17.8-.79a15.67,15.67,0,0,1-14.9-16.4A16.41,16.41,0,0,1,144.49,117.83Z"/><path class="cls-20" d="M217.11,348.47a14.2,14.2,0,0,1-2.82-.45,21.07,21.07,0,0,1-4.23-1.32,15.62,15.62,0,0,1-4.67-3.17,23.12,23.12,0,0,1-4-5.29,29,29,0,0,1-2.55-7,55.5,55.5,0,0,1-1.33-16.22c.09-1.41.18-2.82.36-4.14l.26-2,.27-2.11c.08-1.41.26-3,.35-4.41a17.27,17.27,0,0,0-.09-2.2,18,18,0,0,0-.18-2.2,34.92,34.92,0,0,0-.79-4.23c-.18-.71-.35-1.33-.53-2l-.7-1.94a25.91,25.91,0,0,0-1.68-3.53c-.61-1.14-1.32-2.11-1.94-3.17a37,37,0,0,0-4.14-4.93l-1-1-1-.88-.53-.44c2.91-4.94,4.59-11.2,4.59-18.78a46,46,0,0,0-2.21-14.27c3.18-.44,5-.8,5-.8,7.93-17.62,11.1-128.67-10-160a18.41,18.41,0,0,0,2.91-5.11c2.55-6.61,1.14-13.22-3.09-14.89s-9.69,2.38-12.25,9a18.92,18.92,0,0,0-.62,2,18.86,18.86,0,0,0-.88-3.09c-2.55-6.61-8-10.57-12.33-9s-5.65,8.29-3.09,14.9A18.26,18.26,0,0,0,157,80.63c-32.34,30.59-33.49,146.83-33.49,146.83a46.25,46.25,0,0,0,7.58,6.08,45.55,45.55,0,0,0-6.43,23.62c0,11,4,19.13,10.14,24.59a14,14,0,0,1-1.59,1.59c-.44.44-1,.79-1.5,1.23A12.29,12.29,0,0,1,130,285.8a20.18,20.18,0,0,1-2.12,1.24c-.79.35-1.5.79-2.38,1.14l-1.23.53-1.32.53c-.44.18-.88.35-1.41.53l-1.41.44c-.53.18-1,.27-1.5.44L117,291l-1.58.36h-.36l-.17.08-.44.09-.8.18a18.69,18.69,0,0,0-1.93.7c-.62.27-1.24.62-1.77.89a13.13,13.13,0,0,0-1.67,1.14,19.7,19.7,0,0,0-1.5,1.32,20.58,20.58,0,0,0-4.23,6.35,35.74,35.74,0,0,0-2,6.61,60.43,60.43,0,0,0-1,11.9c.09,3.52.36,6.34.53,8.37s.44,3.17.44,3.17-.09-1.14-.09-3.17a75.68,75.68,0,0,1,.36-8.29,54.73,54.73,0,0,1,2.2-11.36,28.12,28.12,0,0,1,2.47-5.82,14.73,14.73,0,0,1,4-4.76,11.37,11.37,0,0,1,5.12-2.38l.79-.09.44-.09H116l1.77-.17,1.67-.18,1.68-.26,1.67-.27a10.47,10.47,0,0,0,1.59-.44l1.58-.35.62-.18a37.91,37.91,0,0,0-2.64,3.88,23.42,23.42,0,0,0-2.91,6.7,14.68,14.68,0,0,0-.36,1.94,17.06,17.06,0,0,0-.08,2v1l.17,1a12.35,12.35,0,0,0,.36,1.77,130.78,130.78,0,0,1,2,13.13,35.1,35.1,0,0,1-.53,11.37,13.51,13.51,0,0,1-1.76,4.14,13,13,0,0,1-2.29,2.64,15.27,15.27,0,0,1-1.94,1.24l-.7.35.79-.27a21.88,21.88,0,0,0,2.11-1,13,13,0,0,0,2.82-2.56,16.1,16.1,0,0,0,2.38-4.23,35.43,35.43,0,0,0,1.85-11.81c0-4.5-.17-9.08-.61-13.57,0-.53-.09-1.15-.09-1.68v-.7c0-.27.09-.44.09-.71,0-.44.17-.88.17-1.41a8.52,8.52,0,0,1,.44-1.32,22.71,22.71,0,0,1,2.82-5.11,49.4,49.4,0,0,1,7.67-7.76c1.94-1.58,3.7-2.82,5.11-3.79-.17,1.06-.26,2.21-.44,3.44a86.79,86.79,0,0,0-.35,12.69,48.28,48.28,0,0,0,1,7.14,24,24,0,0,0,2.73,7.23,12.62,12.62,0,0,0,.71,1.14l-.36.36-.79.7-.7.71-1.33,1.41a34.42,34.42,0,0,0-4.14,6.34,34.06,34.06,0,0,0-2.55,6.52c-.27,1.06-.53,2.12-.71,3.18s-.26,1.93-.35,3c0,.44-.09,1-.09,1.41v2.56a6.76,6.76,0,0,0,.18,1.23,6,6,0,0,1,.08,1.15c0,.35.18.7.18,1.06a14.6,14.6,0,0,0,.44,1.76,12.28,12.28,0,0,1,.44,1.41,5.33,5.33,0,0,0,.44,1l.36.79-.27-.88-.35-1a12.54,12.54,0,0,0-.35-1.41,6,6,0,0,1-.27-1.76c0-.36-.09-.71-.09-1v-2.21c0-.44.09-.79.09-1.23a6.52,6.52,0,0,1,.09-1.32,6.65,6.65,0,0,0,.18-1.32c.17-1,.35-1.85.61-2.82s.62-1.94,1-2.91a30.84,30.84,0,0,1,3-5.82,31.37,31.37,0,0,1,4.32-5.37l1.32-1.15a5.49,5.49,0,0,1,.7-.62l.71-.53.35-.26,1.68,1.85c1.58,1.67,3,3.44,4.4,5.2a49.64,49.64,0,0,1,3.18,4.41,20.38,20.38,0,0,0-1,6.52,26.23,26.23,0,0,0,.88,6.43,40.56,40.56,0,0,0,3.43,8.9,34.43,34.43,0,0,0,1.77,3.09c-.53-1.06-1.06-2.12-1.5-3.26a40.6,40.6,0,0,1-2.56-9,28.19,28.19,0,0,1-.26-6.08,18.22,18.22,0,0,1,.79-3.79,21.65,21.65,0,0,1,1.32,3c.27.8.53,1.59.8,2.38.09.36.17.8.26,1.15a4.28,4.28,0,0,1,.18,1.06,7.53,7.53,0,0,1,.26,1.93c.09.53.09,1.15.18,1.68V353l.09-.88a23.8,23.8,0,0,0,.17-2.38v-1.76a15.94,15.94,0,0,0-.09-2c0-.35-.08-.79-.08-1.15a6.76,6.76,0,0,0-.18-1.23c-.09-.79-.35-1.67-.53-2.56a38.43,38.43,0,0,0-1.67-4.75c.09-.09.09-.27.17-.45a16.89,16.89,0,0,1,4.32-5.28l.8-.62.35-.26.44-.36c.62-.44,1.14-.88,1.67-1.32l.8-.79.7-.88a12.39,12.39,0,0,0,1.23-1.77,23.35,23.35,0,0,0,3-7.93,40.24,40.24,0,0,0,.79-7.93c0-1.67,0-3.35-.08-4.94l.53,1.33a11.82,11.82,0,0,0,.7,1.5l.88,1.41.44.7.09.09.09.09.09.17.17.27c.62.79,1.15,1.58,1.85,2.38,1.33,1.67,2.56,3.08,3.88,4.58s2.56,2.91,3.61,4.32a36.24,36.24,0,0,1,2.91,4.32,15.1,15.1,0,0,1,1,2.2c.09.35.27.7.35,1.06l.27,1.05a4.44,4.44,0,0,1,.18,1.06l.08,1a6.37,6.37,0,0,1,0,1.85,3.25,3.25,0,0,1-.08.88,2.57,2.57,0,0,1-.18.8c-.09.53-.18,1-.27,1.41-.26.79-.44,1.5-.61,1.94l-.27.7.27-.62c.17-.44.53-1,.88-1.85.18-.44.26-.88.44-1.41l.26-.79c.09-.26.09-.62.18-.88a7.21,7.21,0,0,0,.27-1.94l.08-1.06a5.47,5.47,0,0,0-.08-1.14c0-.36-.09-.8-.09-1.24l-.27-1.23a11.31,11.31,0,0,0-.79-2.47,37.21,37.21,0,0,0-2.47-4.93c-1-1.68-2-3.26-3.17-4.85s-2.2-3.26-3.17-4.85c-.53-.79-1-1.67-1.5-2.55l-.18-.36-.09-.17v-.09h0l-.26-.62-.53-1.14a5.12,5.12,0,0,1-.35-1.24,4.94,4.94,0,0,1-.27-1.23,11.55,11.55,0,0,1-.26-2.47v-1.23a5.76,5.76,0,0,1,.09-1.24,10,10,0,0,1,.26-2.29,35.08,35.08,0,0,1,.79-4.32c.18-.61.45-1.23.62-1.85l.62-1.67c.44-1,.88-1.85,1.23-2.56s.71-1.23.88-1.58l.27-.44.26.26.88.7a36.09,36.09,0,0,1,3.71,3.71c.52.79,1.23,1.58,1.76,2.38a22.56,22.56,0,0,1,1.58,2.73,11.3,11.3,0,0,1,.71,1.5,11.47,11.47,0,0,0,.62,1.58,26.05,26.05,0,0,1,1,3.44,6.94,6.94,0,0,1,.26,1.85l.26,1.85c.09,1.32,0,2.56,0,3.88,0,.7-.08,1.41-.08,2.11l-.09,2.21c0,1.41,0,2.91.09,4.4A57.75,57.75,0,0,0,196.05,332a28.77,28.77,0,0,0,3.43,7.22,22.92,22.92,0,0,0,4.76,5.29,20.49,20.49,0,0,0,5.2,2.91,21.05,21.05,0,0,0,7.41,1.14h1.05Zm-67.77-30.85-.36.26-.08.09h0l-.09.09-.18.18-.44.26-.26-.53a24.35,24.35,0,0,1-1.59-6.17,40.65,40.65,0,0,1-.18-6.43,73.46,73.46,0,0,1,1.5-11.55c.44-1.93.8-3.7,1.24-5.2a18.66,18.66,0,0,0,2.2.45,69.24,69.24,0,0,1,2,7.31,38.14,38.14,0,0,1,.88,11.81,16,16,0,0,1-1.76,6l-.8,1.32a5.8,5.8,0,0,1-1.06,1.15l-.52.53c-.09.09-.36.26-.53.44Zm18.42-2.29a18.25,18.25,0,0,1-1.85,6.78,8.24,8.24,0,0,1-.89,1.5l-.44.71-.52.7a8.45,8.45,0,0,1-1.15,1.24l-.27.26-.44.35-.7.71a18.6,18.6,0,0,0-3.88,5.2c-.62-1.15-1.32-2.38-2-3.53-1.23-1.94-2.55-3.87-4-5.73l-1.24-1.67,1.24-.79a3.32,3.32,0,0,0,.88-.62l.88-.71c.53-.44,1.06-1,1.59-1.49s.88-1.15,1.32-1.68a19.82,19.82,0,0,0,3.17-7.58,33.63,33.63,0,0,0,.71-7.31,51.49,51.49,0,0,0-.36-6.44c-.26-2.11-.52-4-.88-5.64a39.24,39.24,0,0,0,4.59-.26c.61,1.76,1.32,3.88,1.94,6.34a68.78,68.78,0,0,1,2.29,12.61,38.61,38.61,0,0,1,0,7.05Zm4.58-26.53a43.91,43.91,0,0,0-.53,4.67c-.35-2.11-.79-4-1.15-5.64a13.08,13.08,0,0,0,2-.7c-.09.53-.26,1.05-.35,1.67Zm9.08-7.23h0l.53.27.17.09Z"/><path class="cls-21" d="M148.64,254.35c-.07,5.31-2.18,9.65-5,9.69s-5.27-4.21-5.35-9.52S148.85,236.7,148.64,254.35Z"/><ellipse class="cls-22" cx="144.93" cy="254.7" rx="2.2" ry="5.29" transform="translate(-4.11 2.39) rotate(-0.93)"/><path class="cls-21" d="M177.72,253.82c.08,5.31-2.17,9.65-5,9.69s-5.36-4.21-5.36-9.52C167.32,238.39,177.63,248.52,177.72,253.82Z"/><ellipse class="cls-22" cx="174.02" cy="254.26" rx="2.2" ry="5.29" transform="translate(-4.1 2.86) rotate(-0.93)"/><path class="cls-23" d="M165.36,274.88s-7.22-7.84-13.92-1.06"/></g></g></g></svg>