<svg xmlns="http://www.w3.org/2000/svg" viewBox="0 0 302.43 181.37"><defs><style>.cls-1{fill:#a7a9ac;}.cls-2{fill:#808285;}.cls-3{fill:#231f20;}.cls-4{fill:#fff;}.cls-5{fill:none;stroke:#231f20;stroke-miterlimit:10;stroke-width:1.44px;}.cls-6{fill:#414042;}</style></defs><title>Sea Amigos Animals</title><g id="Seal"><path class="cls-1" d="M28.21,110.45s-2.53,23.8-15.51,32.46S-5.69,161.3,8,164.9s37.15.36,45.8-16.59"/><path class="cls-1" d="M57.78,2.62C88.3-8.55,123.55,17.2,128.46,56c5,39.27,107.46,14.78,131.63,95.56,0,0,19.83-7.93,25.24-24.52,0,0,6.49,1.08,5.77,12.62,0,0,8.65,0,7.93,10.46,0,0,3.25,4,.72,10.82,0,0,5.77,7.21.37,8.65s-38.95,3.25-48,1.08c0,0-92,13.35-184.64-9,0,0-41.19-5.41-44.43-68.52-.29-5.48,3.76-11,2.72-15.69C14.8,27.7,32.33,11.93,57.78,2.62Z"/><ellipse class="cls-2" cx="48.88" cy="66.95" rx="13.33" ry="11.1"/><ellipse class="cls-2" cx="69.98" cy="66.95" rx="13.33" ry="11.1"/><path class="cls-1" d="M130.26,122.35s12.62,15.51,24.89,20.19,27.76,19.48,26,32.82-58.06,2.16-68.16-11.18"/><path class="cls-3" d="M63.82,57.73,61,61.16a1.82,1.82,0,0,1-2.82,0l-2.77-3.43a1.81,1.81,0,0,1,1.41-3h5.55A1.82,1.82,0,0,1,63.82,57.73Z"/><circle class="cls-3" cx="44.62" cy="42.47" r="7.39"/><circle class="cls-4" cx="47.5" cy="42.47" r="3.07"/><circle class="cls-3" cx="79.96" cy="42.47" r="7.39"/><circle class="cls-4" cx="77.25" cy="42.47" r="3.07"/><path class="cls-5" d="M59.38,60.14v9S49.83,79.62,42.07,69"/><path class="cls-5" d="M77.42,65s-5.23,16.23-18,4.15"/><path class="cls-6" d="M42.45,61.48A3.42,3.42,0,0,0,42,61a7.83,7.83,0,0,0-.66-.47,9.13,9.13,0,0,0-.91-.54,13.71,13.71,0,0,0-2.5-1c-.48-.13-1-.25-1.49-.35s-1-.19-1.57-.21a14.23,14.23,0,0,0-1.59-.08c-.53,0-1,0-1.55,0s-1,.07-1.45.12l-1.29.2c-.8.1-1.45.3-1.91.39l-.73.16.72-.21c.46-.11,1.09-.35,1.89-.5l1.29-.27,1.45-.2c.51-.09,1-.09,1.57-.13s1.08,0,1.63,0,1.09.08,1.63.12,1.06.17,1.57.28a15,15,0,0,1,2.7.89c.37.18.72.34,1,.52s.55.34.75.48c.41.29.65.52.64.5Z"/><path class="cls-6" d="M40.93,63.41a13,13,0,0,0-2-.78,15.89,15.89,0,0,0-2.15-.51C36.39,62,36,62,35.55,62s-.86-.06-1.29,0a9.23,9.23,0,0,0-1.29.11l-.63.09-.6.16a5.44,5.44,0,0,0-1.12.36,5.44,5.44,0,0,0-1,.43c-.29.16-.56.3-.79.44l-.56.4-.5.36.47-.39.54-.45c.22-.16.48-.31.76-.49a4.83,4.83,0,0,1,1-.51A6,6,0,0,1,31.65,62l.61-.2.64-.14a11.52,11.52,0,0,1,1.33-.21c.45-.06.9,0,1.34-.07s.89,0,1.31.07a16.8,16.8,0,0,1,2.29.38,13.55,13.55,0,0,1,2.18.68Z"/><path class="cls-6" d="M40.11,66.41a10.35,10.35,0,0,0-1.78-.63,12.08,12.08,0,0,0-1.94-.35c-.36,0-.73,0-1.11,0a8.89,8.89,0,0,0-1.14.09,6.32,6.32,0,0,0-1.13.24,6.25,6.25,0,0,0-1,.38,5.09,5.09,0,0,0-.93.48,4.82,4.82,0,0,0-.78.53c-.23.19-.46.34-.63.51l-.43.45-.39.38.35-.41.41-.48a6.53,6.53,0,0,1,.59-.57,4.2,4.2,0,0,1,.75-.6,6.53,6.53,0,0,1,.92-.58A8.73,8.73,0,0,1,34.05,65a9.67,9.67,0,0,1,1.2-.19c.4,0,.8-.06,1.18,0a12.59,12.59,0,0,1,2.08.21,10.26,10.26,0,0,1,2,.54Z"/><path class="cls-6" d="M75.79,60.76s.23-.21.63-.5c.21-.14.46-.31.76-.48a10.67,10.67,0,0,1,1-.52,14.62,14.62,0,0,1,2.69-.89c.51-.11,1-.2,1.57-.28S83.54,58,84.09,58s1.1,0,1.63,0a15.58,15.58,0,0,1,1.57.13l1.45.2,1.29.27c.8.15,1.44.39,1.89.5l.72.21-.73-.16c-.46-.09-1.11-.29-1.91-.39l-1.29-.2c-.46,0-.95-.07-1.45-.12s-1,0-1.54,0a14.41,14.41,0,0,0-1.6.08c-.53,0-1.05.14-1.57.21s-1,.22-1.49.35a13.31,13.31,0,0,0-2.49,1,9.35,9.35,0,0,0-.92.54A7.83,7.83,0,0,0,77,61a3.42,3.42,0,0,0-.5.45Z"/><path class="cls-6" d="M77.59,62.5a13.48,13.48,0,0,1,2.19-.68,16.39,16.39,0,0,1,2.28-.38c.43,0,.87,0,1.31-.07s.9,0,1.34.07a11.52,11.52,0,0,1,1.33.21l.65.14.6.2a6.36,6.36,0,0,1,1.13.46,5,5,0,0,1,1,.51c.28.18.54.33.76.49l.54.45.47.39-.5-.36-.56-.4c-.23-.14-.5-.28-.79-.44a5.44,5.44,0,0,0-1-.43,5.25,5.25,0,0,0-1.12-.36l-.6-.16L86,62.05a9.1,9.1,0,0,0-1.29-.11c-.43,0-.86,0-1.29,0s-.84.07-1.24.15a16.26,16.26,0,0,0-2.15.51,13,13,0,0,0-2,.78Z"/><path class="cls-6" d="M78.44,65.5a10.26,10.26,0,0,1,2-.54,12.71,12.71,0,0,1,2.08-.21,11.77,11.77,0,0,1,1.18,0,9.67,9.67,0,0,1,1.2.19,8.73,8.73,0,0,1,2.23.82,5.55,5.55,0,0,1,.92.58,4.68,4.68,0,0,1,.76.6c.21.21.43.38.59.57l.4.48.35.41-.38-.38-.44-.45c-.17-.17-.4-.32-.62-.51a5.43,5.43,0,0,0-.79-.53A5.09,5.09,0,0,0,87,66.1a6,6,0,0,0-1-.38,6.32,6.32,0,0,0-1.13-.24,8.75,8.75,0,0,0-1.14-.09c-.38,0-.75,0-1.11,0a11.74,11.74,0,0,0-1.93.35,9.94,9.94,0,0,0-1.78.63Z"/></g></svg>