<?xml version="1.0" encoding="utf-8"?>
<!-- Generator: Adobe Illustrator 23.0.2, SVG Export Plug-In . SVG Version: 6.00 Build 0)  -->
<svg version="1.1" id="Layer_1" xmlns="http://www.w3.org/2000/svg" xmlns:xlink="http://www.w3.org/1999/xlink" x="0px" y="0px"
	 viewBox="0 0 166.1 129.4" style="enable-background:new 0 0 166.1 129.4;" xml:space="preserve">
<style type="text/css">
	.st0{stroke:#000000;stroke-miterlimit:10;}
	.st1{stroke:#000000;stroke-width:0.5;stroke-miterlimit:10;}
	.st2{stroke:#000000;stroke-width:1.0218;stroke-miterlimit:10;}
</style>
<title>Sea Amigos Animals</title>
<g id="Seal">
	<path class="st0" d="M20.6,78.7c0,0-1.8,16.9-11,23s-13,13-3.3,15.6s26.4,0.3,32.5-11.8"/>
	<path class="st0" d="M34.5,2.2c21.7-7.9,46.7,10.3,50.2,37.9c3.5,27.9,42-3.6,59.2,53.8c0,0,6.3,2.9,10.2-8.9c0,0,4.6,0.8,4.1,9
		c0,0,6.1,0,5.6,7.4c0,0,2.3,2.8,0.5,7.7c0,0,4.1,5.1,0.3,6.1s-16.7,2.3-23.1,0.8c0,0-34.2,15-100-0.9c0,0-29.2-3.8-31.5-48.6
		c-0.2-3.9,2.7-7.8,1.9-11.1C4,20,16.4,8.8,34.5,2.2z"/>
	<ellipse class="st0" cx="28.1" cy="47.9" rx="9.5" ry="7.9"/>
	<ellipse class="st0" cx="43.1" cy="47.9" rx="9.5" ry="7.9"/>
	<path class="st1" d="M76.6,93.7c0,0,6.8,9.4,13.4,12.2s15,11.8,14,19.9s-31.3,1.3-36.8-6.8"/>
	<path class="st0" d="M38.7,41.3l-2,2.4c-0.5,0.6-1.3,0.6-1.8,0.2c-0.1-0.1-0.1-0.1-0.2-0.2l-2-2.4c-0.5-0.5-0.4-1.3,0.1-1.8
		c0.2-0.2,0.6-0.3,0.9-0.3h3.9c0.7,0,1.3,0.5,1.3,1.2C39.1,40.8,39,41.1,38.7,41.3z"/>
	<circle class="st0" cx="25.1" cy="30.5" r="5.2"/>
	<circle class="st0" cx="27.2" cy="30.5" r="2.2"/>
	<circle class="st0" cx="50.2" cy="30.5" r="5.2"/>
	<circle class="st0" cx="48.3" cy="30.5" r="2.2"/>
	<path class="st2" d="M35.6,43v6.4c0,0-6.8,7.4-12.3-0.1"/>
	<path class="st2" d="M48.4,46.5c0,0-3.7,11.5-12.8,2.9"/>
	<path class="st0" d="M23.6,44c-0.1-0.1-0.2-0.2-0.3-0.3c-0.2-0.1-0.3-0.2-0.5-0.3s-0.4-0.3-0.6-0.4c-0.6-0.3-1.2-0.5-1.8-0.7
		C20,42.1,19.7,42,19.3,42c-0.3-0.1-0.7-0.1-1.1-0.1s-0.8-0.1-1.1-0.1c-0.4,0-0.7,0-1.1,0s-0.7,0-1,0.1L14,42
		c-0.6,0.1-1,0.2-1.4,0.3l-0.5,0.1l0.5-0.1c0.3-0.1,0.8-0.2,1.3-0.4l0.9-0.2l1-0.1c0.4-0.1,0.7-0.1,1.1-0.1s0.8,0,1.2,0
		s0.8,0.1,1.2,0.1s0.8,0.1,1.1,0.2c0.7,0.1,1.3,0.4,1.9,0.6c0.3,0.1,0.5,0.2,0.7,0.4c0.2,0.1,0.4,0.2,0.5,0.3
		c0.3,0.2,0.5,0.4,0.5,0.4L23.6,44z"/>
	<path class="st0" d="M22.5,45.4c-0.5-0.2-0.9-0.4-1.4-0.6c-0.5-0.2-1-0.3-1.5-0.4c-0.3-0.1-0.6-0.1-0.9-0.1s-0.6,0-0.9,0
		s-0.6,0-0.9,0.1l-0.4,0.1L16,44.6c-0.3,0.1-0.5,0.1-0.8,0.3c-0.2,0.1-0.5,0.2-0.7,0.3s-0.4,0.2-0.6,0.3l-0.4,0.3L13.2,46l0.3-0.3
		l0.4-0.3c0.2-0.1,0.3-0.2,0.5-0.3s0.5-0.3,0.7-0.4c0.2-0.1,0.5-0.3,0.8-0.4l0.4-0.1l0.5-0.1c0.3-0.1,0.6-0.1,0.9-0.1s0.6,0,1,0
		c0.3,0,0.6,0,0.9,0c0.5,0.1,1.1,0.1,1.6,0.3c0.5,0.1,1,0.3,1.5,0.5L22.5,45.4z"/>
	<path class="st0" d="M21.9,47.5c-0.4-0.2-0.8-0.3-1.3-0.4c-0.5-0.1-0.9-0.2-1.4-0.2c-0.3,0-0.5,0-0.8,0s-0.5,0-0.8,0.1
		c-0.3,0-0.5,0.1-0.8,0.2c-0.2,0.1-0.5,0.2-0.7,0.3c-0.2,0.1-0.5,0.2-0.7,0.3S15,48,14.8,48.2c-0.2,0.1-0.3,0.2-0.4,0.4l-0.3,0.3
		L13.9,49l0.2-0.3l0.3-0.3c0.1-0.1,0.3-0.3,0.4-0.4c0.2-0.2,0.3-0.3,0.5-0.4c0.2-0.2,0.4-0.3,0.7-0.4c0.5-0.3,1-0.5,1.5-0.6
		c0.3-0.1,0.6-0.1,0.9-0.1s0.6,0,0.8,0c0.5,0,1,0.1,1.5,0.1c0.5,0.1,1,0.2,1.4,0.4L21.9,47.5z"/>
	<path class="st0" d="M47.2,43.5c0,0,0.2-0.1,0.4-0.4c0.1-0.1,0.3-0.2,0.5-0.3s0.5-0.3,0.7-0.4c0.6-0.3,1.3-0.5,1.9-0.6
		c0.4-0.1,0.7-0.1,1.1-0.2c0.4-0.1,0.8-0.1,1.2-0.1s0.8,0,1.2,0s0.7,0,1.1,0.1l1,0.1l0.9,0.2c0.6,0.1,1,0.3,1.3,0.4l0.5,0.1
		l-0.5-0.1c-0.3-0.1-0.8-0.2-1.4-0.3l-0.9-0.1c-0.3,0-0.7,0-1-0.1c-0.4,0-0.7,0-1.1,0c-0.4,0-0.8,0-1.1,0.1c-0.4,0-0.7,0.1-1.1,0.1
		c-0.4,0-0.7,0.2-1.1,0.2c-0.6,0.2-1.2,0.4-1.8,0.7c-0.2,0.1-0.4,0.2-0.7,0.4c-0.2,0.1-0.3,0.2-0.5,0.3c-0.1,0.1-0.2,0.2-0.4,0.3
		L47.2,43.5z"/>
	<path class="st0" d="M48.5,44.7c0.5-0.2,1-0.4,1.6-0.5c0.5-0.1,1.1-0.2,1.6-0.3c0.3,0,0.6,0,0.9,0c0.3,0,0.6,0,1,0
		c0.3,0,0.6,0.1,0.9,0.1l0.5,0.1l0.4,0.1c0.3,0.1,0.5,0.2,0.8,0.3c0.2,0.1,0.5,0.2,0.7,0.4c0.2,0.1,0.4,0.2,0.5,0.3l0.4,0.3l0.3,0.3
		l-0.4-0.3l-0.4-0.3c-0.2-0.1-0.4-0.2-0.6-0.3c-0.2-0.1-0.5-0.2-0.7-0.3c-0.3-0.1-0.5-0.2-0.8-0.3l-0.4-0.1l-0.4-0.1
		c-0.3,0-0.6-0.1-0.9-0.1c-0.3,0-0.6,0-0.9,0c-0.3,0-0.6,0-0.9,0.1c-0.5,0.1-1,0.2-1.5,0.4c-0.5,0.1-1,0.3-1.4,0.6L48.5,44.7z"/>
	<path class="st0" d="M49.1,46.8c0.5-0.2,0.9-0.3,1.4-0.4c0.5-0.1,1-0.1,1.5-0.1c0.3,0,0.6,0,0.8,0c0.3,0,0.6,0.1,0.9,0.1
		c0.6,0.1,1.1,0.3,1.6,0.6c0.2,0.1,0.4,0.3,0.7,0.4c0.2,0.1,0.4,0.3,0.5,0.4c0.1,0.1,0.3,0.3,0.4,0.4l0.3,0.3l0.2,0.3l-0.3-0.3
		l-0.3-0.3c-0.1-0.1-0.3-0.2-0.4-0.4c-0.2-0.1-0.4-0.3-0.6-0.4c-0.2-0.1-0.4-0.2-0.7-0.3c-0.2-0.1-0.5-0.2-0.7-0.3
		c-0.3-0.1-0.5-0.1-0.8-0.2c-0.3,0-0.5-0.1-0.8-0.1s-0.5,0-0.8,0c-0.5,0-0.9,0.1-1.4,0.2c-0.4,0.1-0.9,0.3-1.3,0.4L49.1,46.8z"/>
</g>
</svg>
