<?xml version="1.0" encoding="utf-8"?>
<!-- Generator: Adobe Illustrator 23.0.2, SVG Export Plug-In . SVG Version: 6.00 Build 0)  -->
<svg version="1.1" id="Layer_1" xmlns="http://www.w3.org/2000/svg" xmlns:xlink="http://www.w3.org/1999/xlink" x="0px" y="0px"
	 viewBox="0 0 265.4 340" style="enable-background:new 0 0 265.4 340;" xml:space="preserve">
<style type="text/css">
	.st0{fill:#EF4136;}
	.st1{fill:#65383A;}
	.st2{opacity:0.38;fill:#FFFFFF;enable-background:new    ;}
	.st3{fill:#231F20;}
	.st4{fill:#FFFFFF;}
	.st5{fill:none;stroke:#231F20;stroke-miterlimit:10;}
</style>
<title>Sea Amigos Animals</title>
<g id="Squid">
	<path class="st0" d="M104.7,183.1c-0.6-0.4-8.9-69.1,22.4-101.6c1.6-1.7,22.5-0.9,25-0.1c18.3,6.1,23.4,81,12.5,108.2
		C164.6,189.7,131.6,199,104.7,183.1z"/>
	<path class="st1" d="M116.4,65.2l10.9-17c5.3-8.3,16.3-10.7,24.5-5.4c2.6,1.7,4.8,4,6.2,6.8l9.3,17.9c4.5,8.7,1.1,19.4-7.6,23.9
		c-2.8,1.4-5.9,2.1-9,2l-20.2-0.9c-9.8-0.5-17.4-8.8-16.9-18.6C113.8,70.9,114.7,67.9,116.4,65.2z"/>
	<path class="st2" d="M198.8,326.9c-1.1-0.1-2.2-0.2-3.2-0.5c-1.7-0.3-3.3-0.9-4.8-1.5c-2-0.9-3.8-2.1-5.3-3.6
		c-1.8-1.8-3.3-3.8-4.5-6c-1.3-2.5-2.3-5.2-2.9-7.9c-1.4-6-1.9-12.2-1.5-18.4c0.1-1.6,0.2-3.2,0.4-4.7c0.1-0.8,0.2-1.5,0.3-2.3
		c0.1-0.8,0.2-1.6,0.3-2.4c0.1-1.6,0.3-3.4,0.4-5c0-0.9,0-1.7-0.1-2.5c0-0.8-0.1-1.7-0.2-2.5c-0.2-1.6-0.5-3.2-0.9-4.8
		c-0.2-0.8-0.4-1.5-0.6-2.3l-0.8-2.2c-0.5-1.4-1.2-2.7-1.9-4c-0.7-1.3-1.5-2.4-2.2-3.6c-1.4-2-3-3.9-4.7-5.6l-1.1-1.1l-1.1-1
		l-0.6-0.5c3.3-5.6,5.2-12.7,5.2-21.3c0-5.5-0.8-11-2.5-16.2c3.6-0.5,5.7-0.9,5.7-0.9c9-20,12.6-146-11.3-181.5
		c1.4-1.7,2.5-3.7,3.3-5.8c2.9-7.5,1.3-15-3.5-16.9s-11,2.7-13.9,10.2c-0.3,0.8-0.5,1.5-0.7,2.3c-0.2-1.2-0.6-2.3-1-3.5
		c-2.9-7.5-9.1-12-14-10.2c-4.8,1.9-6.4,9.4-3.5,16.9c0.7,1.9,1.7,3.7,3,5.4c-36.7,34.7-38,166.6-38,166.6c2.6,2.6,5.5,4.9,8.6,6.9
		c-4.8,8.1-7.4,17.4-7.3,26.8c0,12.5,4.5,21.7,11.5,27.9c-0.5,0.6-1.1,1.2-1.8,1.8c-0.5,0.5-1.1,0.9-1.7,1.4s-1.3,1-2,1.4
		s-1.5,1-2.4,1.4s-1.7,0.9-2.7,1.3l-1.4,0.6l-1.5,0.6c-0.5,0.2-1,0.4-1.6,0.6l-1.6,0.5c-0.6,0.2-1.1,0.3-1.7,0.5l-1.8,0.4l-1.8,0.4
		h-0.3H83l-0.2,0.1l-0.5,0.1l-0.9,0.2c-0.7,0.2-1.5,0.5-2.2,0.8c-0.7,0.3-1.4,0.7-2,1c-0.6,0.3-1.2,0.8-1.9,1.3
		c-0.6,0.4-1.1,1-1.7,1.5c-2,2.1-3.7,4.5-4.8,7.2c-1,2.4-1.8,5-2.3,7.5c-0.8,4.5-1.2,9-1.1,13.5c0.1,4,0.4,7.2,0.6,9.5
		c0.3,2.3,0.5,3.6,0.5,3.6s-0.1-1.3-0.1-3.6c0-2.3,0-5.5,0.4-9.4c0.4-4.4,1.2-8.7,2.5-12.9c0.7-2.3,1.6-4.5,2.8-6.6
		c1.1-2.1,2.6-3.9,4.5-5.4c1.7-1.4,3.7-2.3,5.8-2.7l0.9-0.1l0.5-0.1h0.2h0.1l0,0c0.1,0-0.3,0-0.1,0h0.1l2-0.2l1.9-0.2
		c0.7-0.1,1.3-0.2,1.9-0.3l1.9-0.3c0.6-0.1,1.2-0.3,1.8-0.5l1.8-0.4l0.7-0.2c-1.1,1.4-2.1,2.9-3,4.4c-1.5,2.4-2.6,4.9-3.3,7.6
		c-0.2,0.7-0.3,1.5-0.4,2.2c-0.1,0.8-0.1,1.5-0.1,2.3c0,0.4,0,0.8,0,1.1l0.2,1.1c0.1,0.7,0.2,1.3,0.4,2c1,4.9,1.8,9.9,2.3,14.9
		c0.5,4.3,0.3,8.6-0.6,12.9c-0.4,1.7-1.1,3.3-2,4.7c-0.7,1.1-1.6,2.1-2.6,3c-0.7,0.5-1.4,1-2.2,1.4l-0.8,0.4l0.9-0.3
		c0.8-0.3,1.6-0.7,2.4-1.1c1.2-0.8,2.3-1.8,3.2-2.9c1.1-1.4,2-3,2.7-4.8c1.4-4.3,2.2-8.8,2.1-13.4c0-5.1-0.2-10.3-0.7-15.4
		c0-0.6-0.1-1.3-0.1-1.9v-0.8c0-0.3,0.1-0.5,0.1-0.8c0-0.5,0.2-1,0.2-1.6c0.1-0.5,0.3-1,0.5-1.5c0.8-2.1,1.9-4,3.2-5.8
		c2.6-3.3,5.5-6.2,8.7-8.8c2.2-1.8,4.2-3.2,5.8-4.3c-0.2,1.2-0.3,2.5-0.5,3.9c-0.5,4.8-0.6,9.6-0.4,14.4c0.2,2.7,0.5,5.5,1.1,8.1
		c0.6,2.9,1.6,5.6,3.1,8.2c0.3,0.5,0.5,0.9,0.8,1.3l-0.4,0.4l-0.9,0.8c-0.3,0.3-0.5,0.5-0.8,0.8l-1.5,1.6c-1.8,2.2-3.4,4.6-4.7,7.2
		c-1.2,2.4-2.2,4.8-2.9,7.4c-0.3,1.2-0.6,2.4-0.8,3.6c-0.2,1.1-0.3,2.2-0.4,3.4c0,0.5-0.1,1.1-0.1,1.6s0,1,0,1.5s0,1,0,1.4
		s0.1,0.9,0.2,1.4s0.1,0.9,0.1,1.3c0,0.4,0.2,0.8,0.2,1.2c0.1,0.7,0.3,1.3,0.5,2c0.2,0.6,0.4,1.1,0.5,1.6s0.4,0.8,0.5,1.1l0.4,0.9
		l-0.3-1l-0.4-1.1c-0.1-0.5-0.2-1-0.4-1.6c-0.2-0.7-0.3-1.3-0.3-2c0-0.4-0.1-0.8-0.1-1.1c0-0.4,0-0.8,0-1.2v-1.3
		c0-0.5,0.1-0.9,0.1-1.4c0-0.5,0-1,0.1-1.5s0.2-1,0.2-1.5c0.2-1.1,0.4-2.1,0.7-3.2c0.3-1.1,0.7-2.2,1.1-3.3c0.9-2.3,2-4.5,3.4-6.6
		c1.4-2.2,3.1-4.3,4.9-6.1l1.5-1.3c0.2-0.2,0.5-0.5,0.8-0.7l0.8-0.6l0.4-0.3l1.9,2.1c1.8,1.9,3.4,3.9,5,5.9c1.3,1.6,2.5,3.3,3.6,5
		c-0.8,2.4-1.1,4.9-1.1,7.4c0,2.5,0.4,4.9,1,7.3c0.9,3.5,2.2,6.9,3.9,10.1c0.6,1.2,1.3,2.4,2,3.5c-0.6-1.2-1.2-2.4-1.7-3.7
		c-1.4-3.3-2.3-6.7-2.9-10.2c-0.4-2.3-0.4-4.6-0.3-6.9c0.2-1.5,0.4-2.9,0.9-4.3c0.6,1.1,1.1,2.3,1.5,3.4c0.3,0.9,0.6,1.8,0.9,2.7
		c0.1,0.4,0.2,0.9,0.3,1.3s0.2,0.8,0.2,1.2c0.2,0.7,0.3,1.5,0.3,2.2c0.1,0.6,0.1,1.3,0.2,1.9c0,0.9,0,1.8,0,2.7c0,0.6,0,1,0,1l0.1-1
		c0.1-0.9,0.2-1.8,0.2-2.7c0-0.7,0-1.3,0-2c0-0.7,0-1.5-0.1-2.3c0-0.4-0.1-0.9-0.1-1.3c0-0.4-0.1-0.9-0.2-1.4
		c-0.1-0.9-0.4-1.9-0.6-2.9c-0.5-1.9-1.2-3.7-1.9-5.4c0.1-0.1,0.1-0.3,0.2-0.5c1.2-2.3,2.9-4.4,4.9-6l0.9-0.7l0.4-0.3l0.5-0.4
		c0.7-0.5,1.3-1,1.9-1.5l0.9-0.9l0.8-1c0.5-0.6,1-1.3,1.4-2c1.7-2.8,2.8-5.8,3.4-9c0.6-3,0.9-6,0.9-9c0-1.9,0-3.8-0.1-5.6
		c0.2,0.5,0.4,1,0.6,1.5c0.2,0.5,0.5,1.2,0.8,1.7l1,1.6l0.5,0.8l0.1,0.1l0.1,0.1l0.1,0.2l0.2,0.3c0.7,0.9,1.3,1.8,2.1,2.7
		c1.5,1.9,2.9,3.5,4.4,5.2s2.9,3.3,4.1,4.9c1.2,1.5,2.3,3.2,3.3,4.9c0.4,0.8,0.8,1.6,1.1,2.5c0.1,0.4,0.3,0.8,0.4,1.2
		c0.1,0.4,0.2,0.8,0.3,1.2c0.1,0.4,0.2,0.8,0.2,1.2l0.1,1.1c0.1,0.7,0.1,1.4,0,2.1c0,0.3,0,0.7-0.1,1c0,0.3-0.1,0.6-0.2,0.9
		c-0.1,0.6-0.2,1.1-0.3,1.6c-0.3,0.9-0.5,1.7-0.7,2.2l-0.3,0.8l0.3-0.7c0.2-0.5,0.6-1.2,1-2.1c0.2-0.5,0.3-1,0.5-1.6
		c0.1-0.3,0.2-0.6,0.3-0.9s0.1-0.7,0.2-1c0.2-0.7,0.3-1.5,0.3-2.2l0.1-1.2c0-0.4,0-0.9-0.1-1.3c0-0.4-0.1-0.9-0.1-1.4l-0.3-1.4
		c-0.2-1-0.5-1.9-0.9-2.8c-0.8-1.9-1.7-3.8-2.8-5.6c-1.1-1.9-2.3-3.7-3.6-5.5c-1.2-1.9-2.5-3.7-3.6-5.5c-0.6-0.9-1.1-1.9-1.7-2.9
		l-0.2-0.4l-0.1-0.2v-0.1c0,0.1,0,0,0,0l-0.3-0.7l-0.6-1.3c-0.2-0.4-0.3-0.9-0.4-1.4c-0.1-0.4-0.3-0.9-0.3-1.4
		c-0.2-0.9-0.3-1.8-0.3-2.8c0-0.5,0-0.9,0-1.4s0-0.9,0.1-1.4c0-0.9,0.1-1.8,0.3-2.6c0.2-1.7,0.5-3.3,0.9-4.9
		c0.2-0.7,0.5-1.4,0.7-2.1l0.7-1.9c0.5-1.1,1-2.1,1.4-2.9c0.4-0.8,0.8-1.4,1-1.8l0.3-0.5l0.3,0.3l1,0.8c1.5,1.3,2.9,2.7,4.2,4.2
		c0.6,0.9,1.4,1.8,2,2.7c0.7,1,1.3,2.1,1.8,3.1c0.3,0.6,0.6,1.1,0.8,1.7c0.2,0.6,0.4,1.2,0.7,1.8c0.5,1.3,0.8,2.6,1.1,3.9
		c0.2,0.7,0.3,1.4,0.3,2.1l0.3,2.1c0.1,1.5,0,2.9,0,4.4c0,0.8-0.1,1.6-0.1,2.4l-0.1,2.5c0,1.6,0,3.3,0.1,5c0.1,6.5,1.2,13,3.2,19.2
		c0.9,2.9,2.2,5.6,3.9,8.2c1.5,2.3,3.3,4.3,5.4,6c1.8,1.4,3.8,2.5,5.9,3.3c2.7,0.9,5.5,1.4,8.4,1.3h1.2L198.8,326.9z M121.9,291.9
		l-0.4,0.3l-0.1,0.1l0,0l0,0l-0.1,0.1l-0.2,0.2l-0.5,0.3c-0.1-0.2-0.2-0.4-0.3-0.6c-0.9-2.2-1.5-4.6-1.8-7c-0.3-2.4-0.3-4.9-0.2-7.3
		c0.2-4.4,0.8-8.8,1.7-13.1c0.5-2.2,0.9-4.2,1.4-5.9c0.8,0.2,1.7,0.4,2.5,0.5c0.9,2.7,1.7,5.5,2.3,8.3c1,4.4,1.4,8.9,1,13.4
		c-0.2,2.4-0.9,4.7-2,6.8c-0.3,0.5-0.6,1-0.9,1.5c-0.4,0.5-0.7,0.9-1.2,1.3l-0.6,0.6C122.4,291.5,122.1,291.7,121.9,291.9
		L121.9,291.9z M142.8,289.3c-0.2,2.7-0.9,5.3-2.1,7.7c-0.3,0.6-0.6,1.2-1,1.7l-0.5,0.8l-0.6,0.8c-0.4,0.5-0.8,1-1.3,1.4l-0.3,0.3
		l-0.5,0.4l-0.8,0.8c-1.8,1.7-3.3,3.7-4.4,5.9c-0.7-1.3-1.5-2.7-2.3-4c-1.4-2.2-2.9-4.4-4.5-6.5l-1.4-1.9l1.4-0.9
		c0.4-0.2,0.7-0.4,1-0.7l1-0.8c0.6-0.5,1.2-1.1,1.8-1.7c0.5-0.6,1-1.3,1.5-1.9c1.8-2.6,3-5.5,3.6-8.6c0.6-2.7,0.8-5.5,0.8-8.3
		c0-2.4-0.1-4.9-0.4-7.3c-0.3-2.4-0.6-4.5-1-6.4c1.7,0,3.5-0.1,5.2-0.3c0.7,2,1.5,4.4,2.2,7.2c1.3,4.7,2.2,9.4,2.6,14.3
		C143.1,283.9,143,286.6,142.8,289.3L142.8,289.3z M148,259.2c-0.3,1.8-0.5,3.5-0.6,5.3c-0.4-2.4-0.9-4.5-1.3-6.4
		c0.8-0.2,1.6-0.5,2.3-0.8C148.3,257.9,148.1,258.5,148,259.2L148,259.2z M158.3,251L158.3,251l0.6,0.3l0.2,0.1L158.3,251z"/>
	
		<ellipse transform="matrix(0.9999 -1.623085e-02 1.623085e-02 0.9999 -3.5584 1.8996)" class="st3" cx="115.2" cy="220.2" rx="5.9" ry="10.9"/>
	
		<ellipse transform="matrix(0.9999 -1.623085e-02 1.623085e-02 0.9999 -3.5638 1.9261)" class="st4" cx="116.9" cy="220.5" rx="2.5" ry="6"/>
	
		<ellipse transform="matrix(0.9999 -1.623085e-02 1.623085e-02 0.9999 -3.5452 2.4351)" class="st3" cx="148.2" cy="219.6" rx="5.9" ry="10.9"/>
	
		<ellipse transform="matrix(0.9999 -1.623085e-02 1.623085e-02 0.9999 -3.5507 2.4615)" class="st4" cx="149.9" cy="220" rx="2.5" ry="6"/>
	<path class="st5" d="M123.2,240.4c0,0,8.2,8.9,15.8,1.2"/>
</g>
</svg>
