<?xml version="1.0" encoding="utf-8"?>
<!-- Generator: Adobe Illustrator 23.0.2, SVG Export Plug-In . SVG Version: 6.00 Build 0)  -->
<svg version="1.1" id="Layer_1" xmlns="http://www.w3.org/2000/svg" xmlns:xlink="http://www.w3.org/1999/xlink" x="0px" y="0px"
	 viewBox="0 0 250.8 315.2" style="enable-background:new 0 0 250.8 315.2;" xml:space="preserve">
<style type="text/css">
	.st0{stroke:#000000;stroke-miterlimit:10;}
</style>
<title>Sea Amigos Animals</title>
<g id="Blue_Whale">
	<path class="st0" d="M79.3,159.9c0,0,7.2,16,5.2,30.2s6,12.5,10.2,9.2s16.8-18.5,14-31.2L79.3,159.9z"/>
	<path class="st0" d="M8.4,69.5c0,0-20.7-27.3,2.7-47.3S113-13,160.4,16.5C201.5,42,258.4,78,250,198.4c-0.1,1.5-1,2.8-2.3,3.5
		l-2.2,1.2c0,0-32.3,60.7-107.3,55.7c0,0,5.7,40-37,56.3c0,0-6.3-3,2.3-8.3c0,0-6.7-26.7,11.7-42c0,0-18.3,8.3-37.3-14.7
		c-10.7-1-3.7-9.3-3.7-9.3c39.7-22,55.3-0.7,55.3-0.7l33.3,1.8c0,0,44.8-41.5,30.8-84.8s-67.2-88-67.2-88s-19.8,16.8-59,2.5
		s-54.5,2.2-54.5,2.2L8.4,69.5z"/>
	<ellipse class="st0" cx="101.3" cy="30.5" rx="7.8" ry="10.4"/>
	<path class="st0" d="M181.8,69.4c0,0,11.5,15.2,23.8,28.2s21,10.8,19.2,21s-32.5,0-42.2-8.5"/>
	<circle class="st0" cx="103" cy="28.7" r="3"/>
	<path class="st0" d="M124.3,60.2c0,0,64.8,44.8,74.5,108.5s-60.7,90.2-60.7,90.2s-13.2-9.2-8.7-18.7s18.1-13.8,16.6-25.5
		s-19.2-38.5-57-49.8c-10.6-3.2-93-6.8-82.5-93.2c0,0,15-23.2,37-16.5S86,74.7,100.3,71.7C109.1,69.7,117.3,65.8,124.3,60.2z"/>
	<path class="st0" d="M13.3,62.7c0,0-10.5,63.8,38,82.5C99.1,163.6,159,177.1,155,212.4c-2.5,22.5-26.8,34.8-26.8,34.8"/>
	<path class="st0" d="M25,54.9c0,0-11,61.8,32.8,80.2s94.8,26,103.2,51s2.5,48-31.8,63.8"/>
	<path class="st0" d="M47,54.4c0,0-8,57,34.8,72.8s89.7,30.5,90.2,66.2c0.5,32.2-14.8,44.8-41.5,59"/>
	<path class="st0" d="M70.3,60.4c0,0-14,42.5,40,63.8s70,42,69.2,63s-2.8,50.2-47.8,67.2"/>
	<path class="st0" d="M99.3,63.4c0,0-11.8,36.3,36.5,57.5s55.8,49.8,56.2,63.2s-7,49.8-58.8,73.8"/>
</g>
</svg>
