<svg xmlns="http://www.w3.org/2000/svg" viewBox="0 0 250.79 315.16"><defs><style>.cls-1{fill:#2a4d8b;}.cls-2{fill:#231f20;}.cls-3,.cls-6{fill:none;stroke-miterlimit:10;}.cls-3{stroke:#031a45;}.cls-4{fill:#fff;}.cls-5{fill:#d1d3d4;}.cls-6{stroke:#2a4d8b;}</style></defs><title>Sea Amigos Animals</title><g id="Blue_Whale" data-name="Blue Whale"><path class="cls-1" d="M79.28,159.91s7.25,16,5.25,30.25,6,12.5,10.25,9.25,16.75-18.5,14-31.25Z"/><path class="cls-1" d="M8.44,69.5s-20.66-27.34,2.67-47.34S113-13,160.44,16.5C201.51,42,258.36,78,250,198.45a4.32,4.32,0,0,1-2.27,3.51l-2.24,1.2s-32.33,60.67-107.33,55.67c0,0,5.67,40-37,56.33,0,0-6.33-3,2.33-8.33,0,0-6.66-26.67,11.67-42,0,0-18.33,8.33-37.33-14.67-10.67-1-3.67-9.33-3.67-9.33,39.67-22,55.33-.67,55.33-.67l33.34,1.75s44.75-41.5,30.75-84.75-67.25-88-67.25-88-19.75,16.75-59,2.5-54.5,2.25-54.5,2.25Z"/><ellipse class="cls-2" cx="101.28" cy="30.54" rx="7.75" ry="10.38"/><path class="cls-3" d="M181.78,69.41s11.5,15.25,23.75,28.25,21,10.75,19.25,21-32.5,0-42.25-8.5"/><circle class="cls-4" cx="103.03" cy="28.66" r="3"/><path class="cls-5" d="M124.28,60.16s64.75,44.75,74.5,108.5-60.67,90.17-60.67,90.17-13.25-9.17-8.67-18.67,18.09-13.75,16.59-25.5-19.25-38.5-57-49.75c-10.61-3.16-93-6.75-82.5-93.25,0,0,15-23.25,37-16.5s42.5,19.5,56.75,16.5A58.4,58.4,0,0,0,124.28,60.16Z"/><path class="cls-6" d="M13.28,62.66s-10.5,63.75,38,82.5C99.09,163.65,159,177.06,155,212.41c-2.5,22.5-26.75,34.75-26.75,34.75"/><path class="cls-6" d="M25,54.91s-11,61.75,32.75,80.25,94.75,26,103.25,51,2.5,48-31.75,63.75"/><path class="cls-6" d="M47,54.41s-8,57,34.75,72.75,89.69,30.49,90.25,66.25c.5,32.25-14.75,44.75-41.5,59"/><path class="cls-6" d="M70.28,60.41s-14,42.5,40,63.75,70,42,69.25,63-2.75,50.25-47.75,67.25"/><path class="cls-6" d="M99.28,63.41s-11.75,36.25,36.5,57.5,55.75,49.75,56.25,63.25-7,49.75-58.75,73.75"/></g></svg>