<svg xmlns="http://www.w3.org/2000/svg" viewBox="0 0 192.03 264.62"><defs><style>.cls-1{fill:#a97c50;}.cls-2{fill:#3c2415;}.cls-3{fill:#8dc63f;}.cls-4{fill:#754c29;}.cls-5{fill:#c2b59b;}.cls-6{fill:#231f20;}.cls-7{fill:#262262;}.cls-8{fill:#ffde17;}.cls-9{fill:#fff;}.cls-10{fill:#9b8579;}</style></defs><title>Asset 10</title><g id="Layer_2" data-name="Layer 2"><g id="Turtle"><path class="cls-1" d="M92.73,237.56a52,52,0,0,1-11.62-1.31c-17.23-4-31.72-15.81-40.8-33.39-9.22-17.83-12-40.26-7.85-63.14,8.17-45,42.9-65.49,71.71-65.49a61,61,0,0,1,13.62,1.52c17.45,4,31,14.61,39.19,30.67,8.28,16.25,10.43,37.12,6.2,60.36C155.74,207.79,126.11,237.56,92.73,237.56Z"/><path class="cls-2" d="M93,235.68a55,55,0,0,1-11.68-1.26c-17.3-3.78-31.86-15.12-41-31.93-9.26-17.06-12.06-38.5-7.88-60.39,8.21-43,43.1-62.64,72.05-62.64a64,64,0,0,1,13.68,1.46c17.53,3.83,31.14,14,39.37,29.33,8.32,15.54,10.47,35.5,6.23,57.73C156.32,207.21,126.56,235.68,93,235.68Z"/><path class="cls-3" d="M158.81,60.37s-1.25-26.78-25.94-28.88S96.46,50.74,102.11,65,79.3,91.13,79.3,91.13s26.16-9,48.54,1.46,23,13.81,23,13.81L140.19,90.92s-3.77-4.19,6.49-9.21,7.53-12.13,6.69-12.13S129.1,80,117.59,62.67C117.59,62.67,144.37,75,158.81,60.37Z"/><path class="cls-3" d="M57.12,101.8S33.27,101.38,13,127.12s-11.3,44.77-9,43.94,17.57-28.25,29.5-28.88C33.48,142.18,33.27,122.09,57.12,101.8Z"/><path class="cls-3" d="M37.66,207l-8.79,20.51s-5.64,8.16.84,17.78,7.12,8.37,7.12,8.37,13.39-2.3,18.41-11.5,6.28-10.88,6.28-10.88S45,219.81,37.66,207Z"/><path class="cls-3" d="M105,235.08s17.78-2.3,28.87-13.18c0,0,5.86,17.37,3.14,25.74s-11.93,16.53-13.6,16.94-12.34-2.72-18-11.09Z"/><path class="cls-3" d="M69.18,231.58s2.89,11.35,8.79,13.7,17.58-10,17-10S87.87,239.55,69.18,231.58Z"/><path class="cls-3" d="M150,106.19s22.45-6.56,27.8-27.62,9.56-13.72,12.79-2.17,1.09,24-7.75,39.51-19,21.89-19,21.89A109.21,109.21,0,0,0,150,106.19Z"/><path class="cls-4" d="M90.91,237.56a61.07,61.07,0,0,1-12.18-1.22A63.8,63.8,0,0,1,36,205.44C26.3,188.93,23.38,168.17,27.74,147c8.56-41.65,45-60.63,75.17-60.63a72.47,72.47,0,0,1,14.27,1.41c18.29,3.71,32.49,13.53,41.07,28.39,8.68,15,10.93,34.37,6.51,55.88C157,210,125.9,237.56,90.91,237.56Z"/><path class="cls-5" d="M160.92,172.16c-8.75,42.88-47,68.54-81.06,61.57s-56.38-42.18-47.63-85S82.65,85.33,116.75,92.3,169.68,129.29,160.92,172.16Z"/><ellipse class="cls-6" cx="123.76" cy="48.97" rx="3.45" ry="5.96"/><ellipse class="cls-6" cx="147.62" cy="49.07" rx="3.45" ry="5.96"/><path class="cls-7" d="M145.5,28.27s8.25-2.13,8.71,4.54S130.29,41.62,127,41.34s-11.59-1-13.54-4.08Z"/><path class="cls-8" d="M113.42,37.26s28.46-3.71,33.1-8.81l-.74-2.5a114.72,114.72,0,0,1-32.92,10.38Z"/><path class="cls-7" d="M145.4,19.74a20.52,20.52,0,0,1,1.77,6.3s-17.43,8.07-34.31,10.29a4.37,4.37,0,0,1-1.57-3Z"/><path class="cls-9" d="M111.66,34s-6.86.37-8.62-3.62,6.95-6.67,11.86-9S133.07,8.8,134.28,7.59,144.76-2.42,150,.64s1,7.71-.09,10.2c-1.21,2.69-4.17,9.46-4.17,9.46Z"/><ellipse class="cls-8" cx="141.28" cy="18.86" rx="5.89" ry="8.02"/><path class="cls-10" d="M119.89,93s-.24,2.3-.76,6.31-1.29,9.75-2.4,16.6-2.4,14.85-4.07,23.36-3.58,17.58-5.71,26.59c-1.09,4.5-2.26,9-3.46,13.38S101,188,99.73,192.1s-2.68,8.12-4.09,11.85-2.84,7.22-4.3,10.38A82.72,82.72,0,0,1,87,222.76a57.76,57.76,0,0,1-4.08,6.08l-1.77,2.06a14.88,14.88,0,0,1-1.44,1.39l-1.23,1.12,1.17-1.19A17,17,0,0,0,81,230.77l1.66-2.13a57.43,57.43,0,0,0,3.8-6.18c1.33-2.47,2.68-5.34,4-8.51s2.7-6.68,4-10.42,2.56-7.73,3.85-11.85,2.48-8.44,3.64-12.84,2.29-8.87,3.35-13.36c2.19-9,4.17-18,5.91-26.48s3.33-16.42,4.57-23.24,2.32-12.5,3-16.49Z"/><path class="cls-10" d="M87.88,92.8c2.36,2.92,4.63,5.9,6.94,8.85l6.79,9c2.25,3,4.45,6,6.67,9s4.47,6,6.62,9.08l-1.07-.22c5.58-3.25,11.1-6.6,16.74-9.76L139,114c2.84-1.55,5.65-3.13,8.51-4.64-2.68,1.81-5.41,3.53-8.12,5.3l-8.2,5.16c-5.45,3.47-11,6.74-16.53,10.12l-.62.38-.46-.6c-2.24-3-4.37-6.09-6.56-9.13s-4.36-6.09-6.5-9.16l-6.4-9.25C92,99,89.92,96,87.88,92.8Z"/><path class="cls-10" d="M49,116.86s1.49,1.19,4.18,3.13,6.62,4.59,11.45,7.58c2.43,1.47,5.07,3.05,7.94,4.58s5.92,3.09,9.1,4.65,6.54,3,10,4.34,7,2.56,10.64,3.67,7.27,2,10.91,2.72c1.82.37,3.63.71,5.44.93l2.68.37,2.66.24c1.75.21,3.49.23,5.19.31s3.36.06,5,0,3.19-.12,4.71-.24l2.24-.17,2.15-.3c2.81-.33,5.34-.92,7.6-1.36s4.17-1.11,5.76-1.57l4.93-1.72-4.82,2c-1.58.54-3.5,1.19-5.72,1.86a71.51,71.51,0,0,1-7.62,1.68l-2.16.37-2.26.24c-1.54.16-3.13.35-4.77.38s-3.33.18-5.05.11-3.49-.06-5.28-.24l-2.7-.22-2.72-.35c-1.84-.21-3.67-.54-5.52-.89-3.71-.67-7.41-1.62-11.09-2.66s-7.26-2.39-10.73-3.82S84.24,139.6,81,138.06a163.44,163.44,0,0,1-16.91-9.73c-4.78-3.13-8.55-6-11.16-8.09S49,116.86,49,116.86Z"/><path class="cls-10" d="M32,149.92s7.43,3.43,18.81,8c5.67,2.31,12.37,4.79,19.58,7.33s15,5.06,22.84,7.19c3.93,1.09,7.86,2.14,11.77,3s7.78,1.7,11.53,2.36a155.34,155.34,0,0,0,20.71,2.38c1.52.11,3,.06,4.38.09s2.71,0,4-.05c2.49,0,4.64-.27,6.42-.44s3.15-.44,4.1-.56l1.46-.21-1.44.3c-.94.17-2.3.57-4.08.79s-3.93.59-6.42.74c-1.25.12-2.58.22-4,.24s-2.88.1-4.41,0a139.11,139.11,0,0,1-20.93-1.89c-3.79-.63-7.7-1.37-11.63-2.27S96.75,175.09,92.8,174c-7.9-2.22-15.67-4.81-22.89-7.43-3.62-1.29-7.06-2.67-10.32-4s-6.32-2.62-9.14-3.84c-5.63-2.45-10.22-4.69-13.44-6.26S32,149.92,32,149.92Z"/><path class="cls-10" d="M34.11,188.21l4.73.51c3,.36,7.3.82,12.44,1.57,2.57.37,5.35.78,8.29,1.27,1.47.25,3,.52,4.52.82a24.9,24.9,0,0,1,4.67,1.38c3,1.24,6.1,2.51,9.28,3.73s6.4,2.43,9.66,3.52c1.62.58,3.25,1.14,4.89,1.65s3.25,1.06,4.88,1.52c3.25,1,6.48,1.79,9.62,2.55l4.64,1c1.52.33,3,.55,4.47.81s2.88.48,4.26.63,2.71.34,4,.46l3.69.21a29.62,29.62,0,0,0,3.34.11c2.09-.07,3.94,0,5.43-.15l4.73-.45-4.69.78c-1.5.28-3.35.27-5.46.45s-4.5,0-7.11,0c-1.3-.08-2.65-.22-4-.33s-2.85-.25-4.32-.48-3-.4-4.55-.67l-4.71-.94c-3.17-.73-6.45-1.5-9.73-2.46-1.65-.44-3.3-1-4.94-1.47s-3.31-1.05-5-1.62c-3.28-1.13-6.51-2.39-9.68-3.65s-6.28-2.59-9.22-3.83a50.1,50.1,0,0,0-8.9-2.36c-2.9-.59-5.66-1.09-8.21-1.55Z"/><path class="cls-10" d="M53.36,220.23c3-.58,6.09-1.11,9.15-1.57s6.11-1,9.17-1.36c6.12-.86,12.26-1.58,18.41-2.24l.5-.06.25.41c1.85,3,3.65,6,5.43,9,.89,1.51,1.79,3,2.64,4.56s1.74,3.05,2.57,4.61c-1.06-1.41-2.06-2.85-3.08-4.28s-2-2.88-3-4.34c-2-2.9-4-5.8-5.87-8.75l.75.36c-6.13.8-12.26,1.54-18.41,2.15-3.08.33-6.16.56-9.24.84S56.45,220.07,53.36,220.23Z"/><ellipse class="cls-9" cx="124.78" cy="47.61" rx="0.77" ry="1.39"/><ellipse class="cls-9" cx="149.19" cy="47.61" rx="0.77" ry="1.39"/></g></g></svg>