<svg xmlns="http://www.w3.org/2000/svg" viewBox="0 0 320.3 640.67"><defs><style>.cls-1{fill:#d0ecf4;}.cls-2{fill:#998675;}.cls-3{fill:#39b54a;}.cls-4{fill:#736357;}.cls-5{fill:#92d7e7;}.cls-6{fill:#f8db94;}.cls-7{fill:#fff;}.cls-8{fill:#f9a01b;}.cls-9{fill:#fff200;}.cls-10{fill:none;}</style></defs><title>Asset 12</title><g id="Layer_2" data-name="Layer 2"><g id="Coconut_Crab" data-name="Coconut Crab"><polygon class="cls-1" points="320.05 221.17 0.05 221.17 0.05 0.79 155.32 0.79 320.05 0.79 320.05 221.17"/><path class="cls-2" d="M59.52,210.69s-10.86-22.23-5.9-52.35l1.61-.44s-1.48,40.52,14,51.69Z"/><path class="cls-3" d="M55.43,157.37s-15.36,3.92-15,17.56C40.4,174.93,30.92,152.36,55.43,157.37Z"/><path class="cls-3" d="M54.85,159s-13.78-7.84-23,2.22C31.84,161.26,40.68,138.42,54.85,159Z"/><path class="cls-3" d="M52.53,158.15s15.24-4.37,21.84,7.57C74.37,165.72,71.16,141.45,52.53,158.15Z"/><path class="cls-3" d="M53.88,159.3s7.93-13.72,21-9.71C74.86,149.59,55.7,134.35,53.88,159.3Z"/><circle class="cls-4" cx="51.31" cy="160.41" r="3.16"/><circle class="cls-4" cx="56.14" cy="160" r="3.16"/><path class="cls-2" d="M61.47,210s-4.21-26.21,10.68-52.86l1.66.13s-14.14,36.61-3.36,52.38Z"/><path class="cls-3" d="M74.18,156.83s-15.78-1.53-20.1,11.42C54.08,168.25,52.82,143.8,74.18,156.83Z"/><path class="cls-3" d="M73.06,158.21s-10.29-12.05-22.39-5.73C50.67,152.48,66.73,134,73.06,158.21Z"/><circle class="cls-4" cx="69.27" cy="158.29" r="3.16"/><circle class="cls-4" cx="73.96" cy="159.55" r="3.16"/><circle class="cls-4" cx="71.64" cy="163.37" r="3.16"/><polygon class="cls-5" points="320.05 368.31 0.05 368.31 0.05 221.17 155.32 221.17 320.05 221.17 320.05 368.31"/><path class="cls-6" d="M320.05,640.67H.05V332.38l37.84,2.28a340,340,0,0,0,113-12.32l24.18-6.82c48.53-13.69,99.24-7.79,145,16.86h0Z"/><path class="cls-7" d="M114.3,129.36A6.34,6.34,0,0,0,108,123a8.19,8.19,0,0,0-16.38,0,8.94,8.94,0,0,0,.09,1.17A6.34,6.34,0,1,0,87,135.63v.08h22v-.09A6.35,6.35,0,0,0,114.3,129.36Z"/><path class="cls-7" d="M182,118.92a6.35,6.35,0,0,0-6.35-6.35,8.19,8.19,0,0,0-16.37,0,7.53,7.53,0,0,0,.09,1.18,6.34,6.34,0,1,0-4.65,11.44v.08h22v-.09A6.35,6.35,0,0,0,182,118.92Z"/><path class="cls-7" d="M95.2,62.55a6.42,6.42,0,0,0,.13-1.32A6.56,6.56,0,0,0,85,55.88,13.49,13.49,0,0,0,59.51,57a10.5,10.5,0,1,0-6.63,18.65H95a6.56,6.56,0,0,0,.25-13.12Z"/><path class="cls-7" d="M170.53,119.65a6.45,6.45,0,0,1-.13-1.33,6.56,6.56,0,0,1,6.56-6.56,6.48,6.48,0,0,1,3.8,1.22,13.48,13.48,0,0,1,25.46,1.14,10.5,10.5,0,1,1,6.63,18.64H170.79a6.56,6.56,0,0,1-.26-13.11Z"/><path class="cls-6" d="M19.42,225.53a3.43,3.43,0,0,1-3.23-4.69c4.43-10.63,23.58-18.62,46.53-18.62s42.11,8,46.54,18.62a3.44,3.44,0,0,1-3.24,4.69Z"/><path class="cls-8" d="M197.64.67c6.75,7.8,20.45,28.83-17.27,38.5,0,0,63.68,15,27.31,52.74,0,0,55.48-30.39,56.48,25.07,0,0,30.39-36.51,36.89,4.09,0,0,.36-37.42,19.25-30.83V.67Z"/><path class="cls-9" d="M233.37.67A51.23,51.23,0,0,0,320.3,54.42V.67Z"/><path class="cls-3" d="M71.19,156.58s15.82,1.06,18,14.54C89.17,171.12,94.38,147.2,71.19,156.58Z"/><path class="cls-3" d="M72.07,158.12s12.12-10.21,23-2C95.1,156.11,82.25,135.27,72.07,158.12Z"/><rect class="cls-10" width="320.04" height="640"/></g></g></svg>