<svg xmlns="http://www.w3.org/2000/svg" xmlns:xlink="http://www.w3.org/1999/xlink" viewBox="0 0 321.21 643.26"><defs><style>.cls-1{isolation:isolate;}.cls-2{fill:url(#linear-gradient);}.cls-3,.cls-4,.cls-5,.cls-6{opacity:0.26;}.cls-3{fill:url(#linear-gradient-2);}.cls-4{fill:url(#linear-gradient-3);}.cls-5{fill:url(#linear-gradient-4);}.cls-6{fill:url(#linear-gradient-5);}.cls-7{fill:#fff8a1;mix-blend-mode:soft-light;}.cls-8{fill:none;}</style><linearGradient id="linear-gradient" x1="161" x2="161" y2="642.57" gradientUnits="userSpaceOnUse"><stop offset="0" stop-color="#79e0e6"/><stop offset="0.1" stop-color="#6ed6d7"/><stop offset="0.34" stop-color="#55c0b8"/><stop offset="0.58" stop-color="#44b0a1"/><stop offset="0.8" stop-color="#3aa694"/><stop offset="1" stop-color="#36a38f"/></linearGradient><linearGradient id="linear-gradient-2" x1="315.43" y1="89.23" x2="150.74" y2="374.49" gradientUnits="userSpaceOnUse"><stop offset="0" stop-color="#fff"/><stop offset="1" stop-color="#fff" stop-opacity="0"/></linearGradient><linearGradient id="linear-gradient-3" x1="204.3" y1="97.08" x2="-63.72" y2="561.31" xlink:href="#linear-gradient-2"/><linearGradient id="linear-gradient-4" x1="259.93" y1="111.88" x2="16.02" y2="534.34" xlink:href="#linear-gradient-2"/><linearGradient id="linear-gradient-5" x1="313.75" y1="111.8" x2="66.09" y2="540.75" xlink:href="#linear-gradient-2"/></defs><title>Asset 14</title><g class="cls-1"><g id="Layer_2" data-name="Layer 2"><g id="Manatee"><rect class="cls-2" x="1" width="320" height="642.57"/><path class="cls-3" d="M160.89,0H139.94L321,472.78l-.15-118.29Z"/><path class="cls-4" d="M36.15,0H18.25L76,642h55.76Z"/><path class="cls-5" d="M66.15,0H61.48l141,642h14.39Z"/><path class="cls-6" d="M78.73,0,243.65,643.26l77.19-24.87L321,514.18,120.1,0Z"/><path class="cls-7" d="M321.21,643H.88V316.58l2,2.33a91.07,91.07,0,0,0,30,23c53.78,25.77,92.17,20.24,146.88-1h0c15.78-5.69,31.68-11.61,47.07-17a146.36,146.36,0,0,1,94.41-1.1h0Z"/><rect class="cls-8" x="1" width="319" height="640"/><rect class="cls-8" width="320" height="642.57"/></g></g></g></svg>