<?xml version="1.0" encoding="utf-8"?>
<!-- Generator: Adobe Illustrator 19.0.0, SVG Export Plug-In . SVG Version: 6.00 Build 0)  -->
<svg version="1.1" id="Layer_1" xmlns="http://www.w3.org/2000/svg" xmlns:xlink="http://www.w3.org/1999/xlink" x="0px" y="0px"
	 viewBox="140 -300.7 320.3 640.7" style="enable-background:new 140 -300.7 320.3 640.7;" xml:space="preserve">
<style type="text/css">
	.st0{fill:#D0ECF4;}
	.st1{fill:#998675;}
	.st2{fill:#39B54A;}
	.st3{fill:#736357;}
	.st4{fill:#92D7E7;}
	.st5{fill:#F8DB94;}
	.st6{fill:#FFFFFF;}
	.st7{fill:#F9A01B;}
	.st8{fill:#FFF200;}
	.st9{fill:none;}
</style>
<title>Asset 12</title>
<polygon class="st0" points="460,-79.5 140.1,-79.5 140.1,-299.9 295.3,-299.9 460,-299.9 "/>
<path class="st1" d="M199.5-90c0,0-10.9-22.2-5.9-52.4l1.6-0.4c0,0-1.5,40.5,14,51.7L199.5-90z"/>
<path class="st2" d="M195.4-143.3c0,0-15.4,3.9-15,17.6C180.4-125.7,170.9-148.3,195.4-143.3z"/>
<path class="st2" d="M194.9-141.7c0,0-13.8-7.8-23,2.2C171.8-139.4,180.7-162.2,194.9-141.7z"/>
<path class="st2" d="M192.5-142.5c0,0,15.2-4.4,21.8,7.6C214.4-134.9,211.2-159.2,192.5-142.5z"/>
<path class="st2" d="M193.9-141.4c0,0,7.9-13.7,21-9.7C214.9-151.1,195.7-166.3,193.9-141.4z"/>
<circle class="st3" cx="191.3" cy="-140.3" r="3.2"/>
<circle class="st3" cx="196.1" cy="-140.7" r="3.2"/>
<path class="st1" d="M201.5-90.7c0,0-4.2-26.2,10.7-52.9l1.7,0.1c0,0-14.1,36.6-3.4,52.4L201.5-90.7z"/>
<path class="st2" d="M214.2-143.8c0,0-15.8-1.5-20.1,11.4C194.1-132.4,192.8-156.9,214.2-143.8z"/>
<path class="st2" d="M213.1-142.5c0,0-10.3-12.1-22.4-5.7C190.7-148.2,206.7-166.7,213.1-142.5z"/>
<circle class="st3" cx="209.3" cy="-142.4" r="3.2"/>
<circle class="st3" cx="214" cy="-141.1" r="3.2"/>
<circle class="st3" cx="211.6" cy="-137.3" r="3.2"/>
<polygon class="st4" points="460,67.6 140.1,67.6 140.1,-79.5 295.3,-79.5 460,-79.5 "/>
<path class="st5" d="M460,340h-320V31.7l37.8,2.3c38.1,2.3,76.3-1.9,113-12.3l24.2-6.8c48.5-13.7,99.2-7.8,145,16.9l0,0L460,340z"/>
<path class="st6" d="M254.3-171.3c0-3.5-2.8-6.3-6.3-6.4c0-4.5-3.7-8.2-8.2-8.2c-4.5,0-8.2,3.7-8.2,8.2c0,0.4,0,0.8,0.1,1.2
	c-2.9-2-6.8-1.3-8.8,1.6s-1.3,6.8,1.6,8.8c0.7,0.5,1.6,0.9,2.5,1v0.1h22v-0.1C252.1-165.6,254.3-168.2,254.3-171.3z"/>
<path class="st6" d="M322-181.7c0-3.5-2.8-6.3-6.4-6.3l0,0c-0.2-4.5-4-8.1-8.5-7.9c-4.3,0.2-7.7,3.6-7.9,7.9c0,0.4,0,0.8,0.1,1.2
	c-2.9-2-6.8-1.3-8.8,1.5c-2,2.9-1.3,6.8,1.5,8.8c0.8,0.6,1.7,0.9,2.7,1.1v0.1h22v-0.1C319.8-176,322-178.7,322-181.7z"/>
<path class="st6" d="M416.2-129.1c0.1-0.4,0.1-0.9,0.1-1.3c0-3.6-3-6.6-6.6-6.5c-1.3,0-2.7,0.4-3.8,1.2c-2.7-6.9-10.6-10.3-17.5-7.6
	c-3.9,1.5-6.8,4.7-8,8.7c-4.5-3.7-11.1-3-14.8,1.5c-3.7,4.5-3,11.1,1.5,14.8c1.9,1.5,4.2,2.3,6.6,2.3H416c3.6,0.1,6.6-2.8,6.7-6.4
	S419.9-129.1,416.2-129.1L416.2-129.1z"/>
<path class="st6" d="M310.5-181c-0.1-0.4-0.1-0.9-0.1-1.3c0-3.6,2.9-6.6,6.6-6.6c1.4,0,2.7,0.4,3.8,1.2c2.7-6.9,10.6-10.3,17.5-7.6
	c3.9,1.5,6.8,4.7,8,8.7c4.5-3.7,11.1-3,14.8,1.5c3.7,4.5,3,11.1-1.5,14.8c-1.9,1.5-4.2,2.4-6.6,2.4h-42.1c-3.6-0.1-6.5-3-6.5-6.6
	C304.4-178,307.1-180.8,310.5-181z"/>
<path class="st5" d="M159.4-75.1c-1.9,0-3.4-1.5-3.5-3.4c0-0.4,0.1-0.9,0.2-1.3c4.4-10.6,23.6-18.6,46.5-18.6s42.1,8,46.5,18.6
	c0.7,1.8-0.2,3.8-2,4.5c-0.4,0.2-0.8,0.2-1.3,0.2H159.4z"/>
<path class="st7" d="M337.6-300c6.8,7.8,20.4,28.8-17.3,38.5c0,0,63.7,15,27.3,52.7c0,0,55.5-30.4,56.5,25.1c0,0,30.4-36.5,36.9,4.1
	c0,0,0.4-37.4,19.3-30.8V-300H337.6z"/>
<path class="st8" d="M373.4-300c-13.1,25.1-3.5,56,21.6,69.2c22.6,11.9,50.5,5.3,65.4-15.4V-300H373.4z"/>
<path class="st2" d="M211.2-144.1c0,0,15.8,1.1,18,14.5C229.2-129.5,234.4-153.5,211.2-144.1z"/>
<path class="st2" d="M212.1-142.5c0,0,12.1-10.2,23-2C235.1-144.6,222.3-165.4,212.1-142.5z"/>
<rect x="140" y="-300.7" class="st9" width="320" height="640"/>
</svg>
