<?xml version="1.0" encoding="utf-8"?>
<!-- Generator: Adobe Illustrator 19.0.0, SVG Export Plug-In . SVG Version: 6.00 Build 0)  -->
<svg version="1.1" id="Layer_1" xmlns="http://www.w3.org/2000/svg" xmlns:xlink="http://www.w3.org/1999/xlink" x="0px" y="0px"
	 viewBox="140 -301.6 320.7 643.6" style="enable-background:new 140 -301.6 320.7 643.6;" xml:space="preserve">
<style type="text/css">
	.st0{fill:#B1EFFF;}
	.st1{fill:#534741;}
	.st2{opacity:0.65;fill:#5E8272;enable-background:new    ;}
	.st3{fill:#95866C;}
	.st4{fill:#5E8272;}
</style>
<title>Asset 21</title>
<rect x="140.5" y="-300.6" class="st0" width="320" height="642.6"/>
<path class="st1" d="M178.7-61.3c0,0,13.8-132.8,70.5-240.3l29.7,0.3c0,0-49.3,80.6-64.5,223L178.7-61.3z"/>
<path class="st1" d="M430.8-126.9c0,0-13.8-96.5-70.5-174.7l-29.7,0.3c0,0,49.3,58.6,64.5,162.1L430.8-126.9z"/>
<path class="st2" d="M460.7,98.3H140V-21.5l70.7-65.3c38-35.1,81.3-44.5,125.8-46.4l124.1-5.2V98.3z"/>
<path class="st3" d="M460.7-9.6V342H140.5V87.4l68.9,0.5c4.4,0,8.7-0.6,12.9-1.9l27.9-8.7c4.3-1.3,8.8-2,13.4-1.9l48.9,0.9
	c5.4,0.1,10.8-0.8,15.8-2.8l36.1-13.8c2.4-0.9,4.9-1.6,7.4-2.1l17.2-3.2c9.8-1.7,18.5-7,24.5-14.9L435.4,20
	c2.6-3.5,4.5-7.5,5.5-11.7L460.7-9.6z"/>
<path class="st4" d="M388.9-152.1l-10.7,4.1c-11.9,4.6-24.9,5.9-37.5,3.6l-34-6.1c-11.5-2.1-23.3-1.2-34.3,2.5l-28.9,9.6
	c-5.5,1.8-10.7,4.3-15.5,7.4l-35.2,22.6c-15.5,9.9-34.2,13.3-52.1,9.4l0,0v81.6l70.1-42.8c38-23.2,81.3-36.1,125.8-37.3l124.1-3.4
	v-51.3l-39.2-4.2C410.4-157.6,399.3-156.1,388.9-152.1z"/>
</svg>
