<svg xmlns="http://www.w3.org/2000/svg" viewBox="0 0 320.67 643.57"><defs><style>.cls-1{isolation:isolate;}.cls-2{fill:#b1efff;}.cls-3,.cls-6{fill:#5e8272;}.cls-3{opacity:0.65;mix-blend-mode:darken;}.cls-4{fill:#95866c;}.cls-5{fill:#534741;}</style></defs><title>Asset 21</title><g class="cls-1"><g id="Layer_2" data-name="Layer 2"><g id="Crocdile"><rect class="cls-2" x="0.46" y="1" width="320" height="642.57"/><path class="cls-3" d="M320.67,417.33H0V344.67l70.73-43.25a254.8,254.8,0,0,1,125.82-37.31l124.12-3.44Z"/><path class="cls-4" d="M320.67,292V643.57H.46V389l68.91.55a42.22,42.22,0,0,0,12.9-1.91l27.9-8.7a42.15,42.15,0,0,1,13.36-1.9l48.9.92a41.83,41.83,0,0,0,15.82-2.75l36.14-13.84a41.32,41.32,0,0,1,7.45-2.07L249,356.14a38.91,38.91,0,0,0,24.53-14.89l21.86-19.71a33.33,33.33,0,0,0,5.52-11.66Z"/><path class="cls-5" d="M.67,344.26S15.76,154,77.57,0L110,.5S56.15,116,39.63,320Z"/><path class="cls-5" d="M315.83,250.29S300.74,112,238.93,0L206.5.36s53.85,84,70.37,232.29Z"/><path class="cls-6" d="M248.89,209.46l-10.66,4.13a69.64,69.64,0,0,1-37.47,3.63l-34-6.09a69.7,69.7,0,0,0-34.3,2.48l-28.95,9.65A69.52,69.52,0,0,0,88,230.67L52.79,253.23A69.65,69.65,0,0,1,.67,262.67h0v81.59l70.06-42.84a254.8,254.8,0,0,1,125.82-37.31l124.12-3.44V209.33l-39.18-4.19A69.46,69.46,0,0,0,248.89,209.46Z"/></g></g></g></svg>