<?xml version="1.0" encoding="utf-8"?>
<!-- Generator: Adobe Illustrator 22.1.0, SVG Export Plug-In . SVG Version: 6.00 Build 0)  -->
<svg version="1.1" id="Layer_1" xmlns="http://www.w3.org/2000/svg" xmlns:xlink="http://www.w3.org/1999/xlink" x="0px" y="0px"
	 viewBox="0 0 274 250.1" style="enable-background:new 0 0 274 250.1;" xml:space="preserve">
<style type="text/css">
	.st0{fill:#D1D3D4;}
	.st1{fill:#E6E7E8;}
	.st2{fill:#231F20;}
	.st3{fill:#FFFFFF;}
	.st4{fill:none;stroke:#231F20;stroke-width:1.6471;stroke-miterlimit:10;}
	.st5{fill:none;stroke:#D1D3D4;stroke-width:1.6471;stroke-miterlimit:10;}
</style>
<title>Sea Amigos Animals</title>
<g id="Polar_Bear">
	<path class="st0" d="M208.7,197.1l1.1,47.3c0,0,1.8,5,4.6,5s23.1,1.4,24.9-1.9c1.2-2.4,1.8-5.1,2-7.8c0,0,0.3-56.4-5.9-68
		L208.7,197.1z"/>
	<path class="st1" d="M271.4,180.3c-1.3-8.4-1.3-34.2-3.4-38.5c-2.1-4.4-5.6-34.5-5.6-34.5s3,0,4.4-6.7c1.4-6.7-16.2-25.7-58.1-37.1
		c-28.4-7.7-90.3-7-97.3-5.7c-1.6-8.3-9.8-13.5-9.8-13.5c0.3-3.8,0.2-7.6-0.5-11.4c4.3-2.8,6.9-8,6.9-13.6c0-8.4-5.7-15.3-12.8-15.3
		c-3.3,0-6.4,1.5-8.7,4.1c-6.9-4.9-16.8-8.2-31-8.1c-7.2-0.1-14.3,1.4-21,4.4C32.1,2.2,29,1,25.9,1.1c-7.5,0-13.6,6.4-13.6,14.2
		c0,2.9,0.9,5.8,2.5,8.1c-9,16.7-8.1,36.1-8.1,36.1c-18.6,26.7,6.6,47.7,17.9,49c7.6,0.9,11.1,5.3,12.6,8.1
		c-1.3,16.9,8.5,34.9,8.5,34.9s-3.1,30.4-2.1,41.5c1,11.1,11.9,36.5,12.7,40.3c0.6,3.8,1,7.6,1.3,11.4c11.1,6.7,27.9,2,27.9,2
		c11.1,4.1,30.8,2.9,33.4,0.6s3.4-45.3,3.4-45.3c43.3,15.3,71.9,12.3,92.4,2.6c21.8-10.3,23.4-10.1,23.4-10.1
		c3.2,34.1-0.1,37.9,1.4,49c1.6,11.1,32.6,5.3,34.1,1.5S272.7,188.8,271.4,180.3z"/>
	<ellipse class="st2" cx="18.7" cy="41.8" rx="4.2" ry="8.2"/>
	<ellipse class="st3" cx="20.2" cy="40.9" rx="1.8" ry="2.5"/>
	<ellipse class="st2" cx="53.9" cy="40.7" rx="4.2" ry="8.2"/>
	<ellipse class="st3" cx="55.4" cy="39.7" rx="1.8" ry="2.5"/>
	<path class="st2" d="M36,65.5c0,1.8-2.9,6.8-6.4,6.8s-6.4-5-6.4-6.8c0-1.8,2.9-3.3,6.4-3.3S36,63.7,36,65.5z"/>
	<path class="st4" d="M16.9,94.6c0.4,0,4.8,5.7,13.2-0.7c0,0,5.3,7.3,14.5,1.2"/>
	<line class="st4" x1="30" y1="94.1" x2="30" y2="69.9"/>
	<path class="st5" d="M82.5,151.3c0,0,2.1,52.3,2.1,56.3s-4.7,30-0.2,38.8"/>
	<path class="st0" d="M90.6,13.1c0,0,5.4-6,10.3-1.1s2.8,14.4-1.1,14.9C99.8,27,98.2,16.8,90.6,13.1z"/>
	<path class="st0" d="M17.1,20.1c0,0,3.4-10.2,12.1-12.7c-3.8-3.2-9.1-2.3-12,1.9c0,0,0,0,0,0C13.7,14.1,17.1,20.1,17.1,20.1z"/>
</g>
</svg>
