<svg xmlns="http://www.w3.org/2000/svg" viewBox="0 0 293.39 237.25"><defs><style>.cls-1{fill:#d1d3d4;}.cls-2{fill:#e6e7e8;}.cls-3{fill:#231f20;}.cls-4{fill:#fff;}.cls-5,.cls-6{fill:none;stroke-miterlimit:10;stroke-width:1.66px;}.cls-5{stroke:#231f20;}.cls-6{stroke:#d1d3d4;}</style></defs><title>Sea Amigos Animals</title><g id="Polar_Bear" data-name="Polar Bear"><path class="cls-1" d="M223.45,187l1.23,44.84s1.92,4.72,4.88,4.72,24.78,1.3,26.7-1.84a17.87,17.87,0,0,0,2.1-7.42s.34-53.48-6.29-64.49Z"/><path class="cls-2" d="M290.62,171c-1.38-8-1.38-32.4-3.6-36.56s-5.95-32.68-5.95-32.68,3.18,0,4.71-6.37-17.32-24.38-62.19-35.18c-30.36-7.31-96.68-6.63-104.16-5.43C117.71,46.91,108.92,42,108.92,42a37.91,37.91,0,0,0-.52-10.8,14.66,14.66,0,0,0,7.37-12.89c0-8-6.13-14.54-13.71-14.54A13.22,13.22,0,0,0,92.7,7.68C85.35,3.05,74.75-.11,59.48,0A60.41,60.41,0,0,0,37,4.13,15.16,15.16,0,0,0,27.69,1c-8,0-14.54,6.05-14.54,13.51a12.81,12.81,0,0,0,2.63,7.73C6.19,38.09,7.12,56.51,7.12,56.51-12.82,81.85,14.19,101.8,26.24,103c8.1.84,11.87,5,13.48,7.73-1.35,16.06,9.09,33.13,9.09,33.13s-3.32,28.81-2.21,39.33,12.74,34.63,13.57,38.23a100.84,100.84,0,0,1,1.38,10.8c11.91,6.37,29.92,1.94,29.92,1.94,11.91,3.88,33,2.77,35.73.55s3.6-42.93,3.6-42.93c46.36,14.55,77,11.63,98.89,2.49,23.34-9.75,25.06-9.62,25.06-9.62,3.47,32.34-.13,35.94,1.53,46.46s34.9,5,36.56,1.39S292,179.08,290.62,171Z"/><ellipse class="cls-3" cx="20.07" cy="39.68" rx="4.5" ry="7.82"/><ellipse class="cls-4" cx="21.67" cy="38.78" rx="1.94" ry="2.35"/><ellipse class="cls-3" cx="57.74" cy="38.57" rx="4.5" ry="7.82"/><ellipse class="cls-4" cx="59.34" cy="37.67" rx="1.94" ry="2.35"/><path class="cls-3" d="M38.56,62.12c0,1.72-3.07,6.44-6.85,6.44s-6.86-4.72-6.86-6.44S27.92,59,31.71,59,38.56,60.4,38.56,62.12Z"/><path class="cls-5" d="M18.07,89.75c.41,0,5.12,5.4,14.12-.69,0,0,5.68,6.92,15.51,1.1"/><line class="cls-5" x1="32.12" y1="89.26" x2="32.12" y2="66.27"/><path class="cls-6" d="M88.35,143.55s2.29,49.65,2.29,53.39-5,28.46-.21,36.77"/><path class="cls-1" d="M97,12.41s5.83-5.67,11-1,3,13.66-1.17,14.16C106.86,25.57,105.2,15.91,97,12.41Z"/><path class="cls-1" d="M18.36,19.07s3.67-9.66,13-12A9.15,9.15,0,0,0,18.53,8.91C14.7,13.41,18.36,19.07,18.36,19.07Z"/></g></svg>