<svg xmlns="http://www.w3.org/2000/svg" viewBox="0 0 152.96 324.5"><defs><style>.cls-1{fill:#f1f2f2;}.cls-2{fill:none;stroke:#a7a9ac;stroke-miterlimit:10;}.cls-3{fill:#231f20;}.cls-4{fill:#fff;}</style></defs><title>Sea Amigos Animals</title><g id="Beluga"><path class="cls-1" d="M51.73,33.33C26.07,55,14.9,79,14.9,79c-17.5,40-26.5,91,13,164.5,18,25,27,31,27,31s-16,36,11,50c0,0,20-14,11.5-41,0,0,36.5,16.5,46-8.5,0,0-9-17.5-38.5-12,0,0-19.5-36,15-69,0,0,59.83-44.67,28.5-105.33,0,0,9.25-4.67,11-12.17,0,0,5.75,2.25,10-4s-3.75-10-.25-17,14-43-27.25-53.75S51.73,33.33,51.73,33.33Z"/><path class="cls-2" d="M56.9,104.5s-49.75,35.25-36.75,52,55.25-15,55.25-15"/><path class="cls-2" d="M86.15,73.5s18.75,12.25,41-4c0,0,3.25,4.67,12.25,7"/><path class="cls-2" d="M82.23,88s26.17,13.5,46.17.67"/><ellipse class="cls-3" cx="91.4" cy="40.92" rx="5.83" ry="8.42"/><ellipse class="cls-4" cx="90.32" cy="39.33" rx="1.75" ry="2.67"/><ellipse class="cls-3" cx="136.9" cy="40.92" rx="5.83" ry="8.42"/><ellipse class="cls-4" cx="135.82" cy="39.33" rx="1.75" ry="2.67"/></g></svg>