<?xml version="1.0" encoding="utf-8"?>
<!-- Generator: Adobe Illustrator 22.1.0, SVG Export Plug-In . SVG Version: 6.00 Build 0)  -->
<svg version="1.1" id="Layer_1" xmlns="http://www.w3.org/2000/svg" xmlns:xlink="http://www.w3.org/1999/xlink" x="0px" y="0px"
	 viewBox="0 0 211.3 324.5" style="enable-background:new 0 0 211.3 324.5;" xml:space="preserve">
<style type="text/css">
	.st0{fill:#F1F2F2;}
	.st1{fill:none;stroke:#A7A9AC;stroke-miterlimit:10;}
	.st2{fill:#231F20;}
	.st3{fill:#FFFFFF;}
</style>
<title>Sea Amigos Animals</title>
<g id="Beluga">
	<path class="st0" d="M88.4,33.3C62.7,55,51.6,79,51.6,79c-17.5,40-26.5,91,13,164.5c18,25,27,31,27,31s-16,36,11,50
		c0,0,20-14,11.5-41c0,0,36.5,16.5,46-8.5c0,0-9-17.5-38.5-12c0,0-19.5-36,15-69c0,0,59.8-44.7,28.5-105.3c0,0,9.2-4.7,11-12.2
		c0,0,5.8,2.2,10-4s-3.8-10-0.2-17s14-43-27.2-53.8S88.4,33.3,88.4,33.3z"/>
	<path class="st1" d="M93.6,104.5c0,0-49.7,35.2-36.7,52s55.2-15,55.2-15"/>
	<path class="st1" d="M122.8,73.5c0,0,18.8,12.2,41-4c0,0,3.2,4.7,12.2,7"/>
	<path class="st1" d="M118.9,88c0,0,26.2,13.5,46.2,0.7"/>
	<ellipse class="st2" cx="128.1" cy="40.9" rx="5.8" ry="8.4"/>
	<ellipse class="st3" cx="127" cy="39.3" rx="1.8" ry="2.7"/>
	<ellipse class="st2" cx="173.6" cy="40.9" rx="5.8" ry="8.4"/>
	<ellipse class="st3" cx="172.5" cy="39.3" rx="1.8" ry="2.7"/>
</g>
</svg>
