<?xml version="1.0" encoding="utf-8"?>
<!-- Generator: Adobe Illustrator 19.0.0, SVG Export Plug-In . SVG Version: 6.00 Build 0)  -->
<svg version="1.1" id="Layer_1" xmlns="http://www.w3.org/2000/svg" xmlns:xlink="http://www.w3.org/1999/xlink" x="0px" y="0px"
	 viewBox="53 -7.9 145.9 55.9" style="enable-background:new 53 -7.9 145.9 55.9;" xml:space="preserve">
<style type="text/css">
	.st0{fill:#FFFFFF;}
	.st1{fill:#45ABE1;}
	.st2{enable-background:new    ;}
</style>
<title>Asset 5</title>
<path class="st0" d="M195.1,3.7h-90.6c-2.1,0-3.8-1.7-3.8-3.8l0,0c0-2.1-1.7-3.8-3.9-3.8c-0.6,0-1.3,0.2-1.8,0.5L55,18.7
	c-1.8,1-2.5,3.3-1.5,5.2c0.3,0.6,0.9,1.2,1.5,1.5l40,22.1c1.8,1,4.2,0.4,5.2-1.5c0.3-0.6,0.5-1.2,0.5-1.8l0,0c0-2.1,1.7-3.8,3.8-3.8
	l0,0h90.6c2.1,0,3.8-1.7,3.8-3.8v-29C198.9,5.5,197.2,3.7,195.1,3.7z"/>
<path class="st1" d="M195.1-0.2h-90.6c-2.1,0-3.8-1.7-3.8-3.8l0,0c0-2.2-1.7-3.9-3.9-3.9c-0.6,0-1.3,0.2-1.8,0.5L55,14.7
	c-1.8,1-2.5,3.3-1.5,5.2c0.3,0.6,0.9,1.2,1.5,1.5l40,22.1c1.8,1,4.2,0.4,5.2-1.5c0.3-0.6,0.5-1.2,0.5-1.8l0,0c0-2.1,1.7-3.8,3.8-3.8
	l0,0h90.6c2.1,0,3.8-1.7,3.8-3.8v-29C198.9,1.5,197.2-0.3,195.1-0.2z"/>
<g class="st2">
	<path class="st0" d="M108.9,8h3.5V24h9.9v3h-13.4V8z"/>
</g>
<g class="st2">
	<path class="st0" d="M136.9,18.5v8.4h-3.2v-1.8c-0.8,1.2-2.4,1.9-4.5,1.9c-3.3,0-5.4-1.8-5.4-4.3c0-2.4,1.6-4.3,6-4.3h3.7v-0.2
		c0-2-1.2-3.1-3.6-3.1c-1.6,0-3.3,0.5-4.4,1.4l-1.3-2.5c1.5-1.2,3.8-1.8,6.1-1.8C134.5,12.3,136.9,14.3,136.9,18.5z M133.6,22.4
		v-1.7h-3.5c-2.3,0-2.9,0.9-2.9,1.9c0,1.2,1,2,2.8,2C131.6,24.7,133,23.9,133.6,22.4z"/>
</g>
<g class="st2">
	<path class="st0" d="M155.5,18.7v8.3h-3.4v-7.8c0-2.6-1.3-3.8-3.4-3.8c-2.4,0-4,1.5-4,4.3v7.3h-3.4V12.5h3.2v1.9c1.1-1.3,2.9-2,5-2
		C152.9,12.3,155.5,14.3,155.5,18.7z"/>
</g>
<g class="st2">
	<path class="st0" d="M174,6.9v20h-3.2v-1.9c-1.1,1.4-2.8,2.1-4.8,2.1c-4.2,0-7.3-2.9-7.3-7.4c0-4.5,3.1-7.4,7.3-7.4
		c1.9,0,3.5,0.6,4.6,1.9V6.9H174z M170.7,19.7c0-2.8-1.9-4.5-4.3-4.5c-2.4,0-4.3,1.8-4.3,4.5c0,2.8,1.9,4.5,4.3,4.5
		C168.8,24.2,170.7,22.5,170.7,19.7z"/>
</g>
</svg>
