<?xml version="1.0" encoding="utf-8"?>
<!-- Generator: Adobe Illustrator 22.1.0, SVG Export Plug-In . SVG Version: 6.00 Build 0)  -->
<svg version="1.1" id="Layer_1" xmlns="http://www.w3.org/2000/svg" xmlns:xlink="http://www.w3.org/1999/xlink" x="0px" y="0px"
	 viewBox="0 0 242.6 216.7" style="enable-background:new 0 0 242.6 216.7;" xml:space="preserve">
<style type="text/css">
	.st0{fill:#939598;}
	.st1{fill:#BCBEC0;}
	.st2{fill:#C49A6C;}
	.st3{fill:#231F20;}
	.st4{fill:none;stroke:#231F20;stroke-width:1.45;stroke-miterlimit:10;}
	.st5{fill:#A7A9AC;}
	.st6{fill:#FFFFFF;}
</style>
<title>Sea Amigos Animals</title>
<g id="Narwhal">
	<path class="st0" d="M78,161.3l6.9-4.4c0,0,41.7,8.3,43.1,56.5l-4.3,3.3c0,0-22.8-7.6-35.1-29.7C88.5,187,77.7,181.9,78,161.3z"/>
	<path class="st1" d="M168.6,0.4C135.7-3,108.1,14.2,94.9,23.3c-0.4,0-0.9,0-1.3,0c-27.6,0-51.5,12-50.7,40.9
		c0.7,26.1,17.7,38.4,45.3,38.4c9.9,0,23.8-2.9,31.6-6.6c1.2,1.9,2,4,2.5,6.3c4,15.6,19.6,31.9,19.6,31.9
		c-13.8,11.2-8.3,23.2-8.3,23.2c-7.8,5.8-16.4,10.7-25.4,14.5c-14.1,5.8-20.3,12.3-19.9,14.5s17.8,1.8,73.9-11.6
		s77.2-44.1,80.4-92.4C244.8,48.3,208.3,4.5,168.6,0.4z"/>
	<path class="st2" d="M63.2,65.9L0.6,93.6c-0.6,0.3-0.8,1-0.5,1.6c0.3,0.5,0.8,0.7,1.3,0.6l64.4-20.2c0.3-0.1,0.6-0.4,0.7-0.7
		c1.1-3.1,0.2-6.5-2.2-8.8C64.1,65.8,63.7,65.8,63.2,65.9z"/>
	<ellipse class="st3" cx="89.4" cy="59.8" rx="3.8" ry="7.2"/>
	<ellipse class="st3" cx="49.1" cy="60.9" rx="3.8" ry="7.3"/>
	<path class="st4" d="M65.7,85.2c0,0,11.2,6.2,18.5-3.6"/>
	<path class="st5" d="M185.3,70.4c0,0,30.1,2.5,36.2,20.6c-11.1,8.4-26,9.8-38.4,3.6C183.1,94.6,177.7,83.4,185.3,70.4z"/>
	<ellipse transform="matrix(0.96 -0.28 0.28 0.96 -11.3944 15.6951)" class="st0" cx="49.2" cy="47.7" rx="3.1" ry="1.6"/>
	<ellipse transform="matrix(0.2441 -0.9697 0.9697 0.2441 22.2006 122.604)" class="st0" cx="89.7" cy="47.1" rx="1.6" ry="3.1"/>
	<ellipse transform="matrix(0.5281 -0.8492 0.8492 0.5281 71.0743 180.0901)" class="st0" cx="197.6" cy="26.1" rx="2.4" ry="4.8"/>
	<ellipse transform="matrix(0.5281 -0.8492 0.8492 0.5281 61.9117 189.1042)" class="st0" cx="201.1" cy="38.8" rx="1.8" ry="3.7"/>
	<ellipse transform="matrix(0.5281 -0.8492 0.8492 0.5281 69.6079 168.9025)" class="st0" cx="186.8" cy="21.8" rx="1.4" ry="2.7"/>
	<ellipse transform="matrix(0.6205 -0.7842 0.7842 0.6205 44.6146 184.6606)" class="st0" cx="213.1" cy="46.2" rx="1.4" ry="2.7"/>
	<ellipse transform="matrix(0.6347 -0.7727 0.7727 0.6347 49.6253 179.3017)" class="st0" cx="214.5" cy="37.2" rx="3" ry="7.3"/>
	<ellipse transform="matrix(0.352 -0.936 0.936 0.352 30.0309 291.9798)" class="st0" cx="225.9" cy="124.3" rx="3.7" ry="1.8"/>
	
		<ellipse transform="matrix(0.9041 -0.4274 0.4274 0.9041 -3.180563e-02 101.6545)" class="st0" cx="226.4" cy="50.9" rx="1.4" ry="2.7"/>
	
		<ellipse transform="matrix(0.1759 -0.9844 0.9844 0.1759 87.2975 313.3467)" class="st0" cx="230.8" cy="104.5" rx="2.7" ry="1.4"/>
	
		<ellipse transform="matrix(0.1623 -0.9867 0.9867 0.1623 77.0646 326.1891)" class="st0" cx="230.6" cy="117.7" rx="2.1" ry="1.1"/>
	<ellipse transform="matrix(0.9838 -0.1793 0.1793 0.9838 -12.2973 43.0349)" class="st0" cx="231.9" cy="89.5" rx="1.1" ry="2.1"/>
	<ellipse transform="matrix(0.1623 -0.9867 0.9867 0.1623 57.1202 325.2086)" class="st0" cx="220.1" cy="129" rx="2.1" ry="1.1"/>
	<ellipse transform="matrix(0.9326 -0.3608 0.3608 0.9326 -6.7653 84.3805)" class="st0" cx="222.6" cy="60.3" rx="3" ry="7.3"/>
	<ellipse class="st6" cx="50.5" cy="60" rx="0.9" ry="1.6"/>
	<ellipse class="st6" cx="91.3" cy="60" rx="0.9" ry="1.6"/>
</g>
</svg>
