<svg xmlns="http://www.w3.org/2000/svg" viewBox="0 0 258.14 216.72"><defs><style>.cls-1{fill:#939598;}.cls-2{fill:#bcbec0;}.cls-3{fill:#c49a6c;}.cls-4{fill:#231f20;}.cls-5{fill:none;stroke:#231f20;stroke-miterlimit:10;stroke-width:1.45px;}.cls-6{fill:#a7a9ac;}.cls-7{fill:#fff;}</style></defs><title>Sea Amigos Animals</title><g id="Narwhal"><path class="cls-1" d="M93.56,161.29l6.88-4.35s41.67,8.33,43.11,56.52l-4.34,3.26s-22.83-7.61-35.14-29.71C104.07,187,93.2,181.94,93.56,161.29Z"/><path class="cls-2" d="M184.13.44C151.26-3,123.58,14.2,110.44,23.29c-.43,0-.86,0-1.3,0-27.61,0-51.52,12-50.72,40.94.73,26.08,17.67,38.4,45.28,38.4,9.89,0,23.82-2.9,31.58-6.63a18.64,18.64,0,0,1,2.48,6.27c4,15.58,19.56,31.88,19.56,31.88C143.55,145.35,149,157.3,149,157.3a122.25,122.25,0,0,1-25.36,14.49c-14.13,5.8-20.29,12.32-19.93,14.5s17.76,1.81,73.91-11.6S254.78,130.57,258,82.31C260.33,48.26,223.86,4.54,184.13.44Z"/><path class="cls-3" d="M78.77,65.94.7,100.55a1.16,1.16,0,0,0,.84,2.15l79.9-27.09a1.15,1.15,0,0,0,.73-.74A8.27,8.27,0,0,0,80,66.12,1.14,1.14,0,0,0,78.77,65.94Z"/><ellipse class="cls-4" cx="104.97" cy="59.85" rx="3.8" ry="7.25"/><ellipse class="cls-4" cx="64.58" cy="60.94" rx="3.8" ry="7.25"/><path class="cls-5" d="M81.24,85.21s11.23,6.16,18.48-3.62"/><path class="cls-6" d="M200.79,70.36S230.86,72.89,237,91a36.44,36.44,0,0,1-38.4,3.62S193.19,83.4,200.79,70.36Z"/><ellipse class="cls-1" cx="64.7" cy="47.9" rx="3.14" ry="1.57" transform="matrix(0.96, -0.28, 0.28, 0.96, -10.76, 19.86)"/><ellipse class="cls-1" cx="105.27" cy="47.05" rx="1.57" ry="3.14" transform="translate(33.95 137.66) rotate(-75.87)"/><ellipse class="cls-1" cx="213.12" cy="26.1" rx="2.39" ry="4.78" transform="translate(78.39 193.28) rotate(-58.12)"/><ellipse class="cls-1" cx="216.65" cy="38.86" rx="1.83" ry="3.66" transform="translate(69.22 202.29) rotate(-58.12)"/><ellipse class="cls-1" cx="202.32" cy="21.83" rx="1.37" ry="2.73" transform="translate(76.92 182.09) rotate(-58.12)"/><ellipse class="cls-1" cx="228.63" cy="46.25" rx="1.37" ry="2.73" transform="translate(50.49 196.84) rotate(-51.65)"/><ellipse class="cls-1" cx="229.99" cy="37.15" rx="2.99" ry="7.35" transform="translate(55.31 191.3) rotate(-50.6)"/><ellipse class="cls-1" cx="241.4" cy="124.29" rx="3.66" ry="1.83" transform="translate(40.11 306.5) rotate(-69.39)"/><ellipse class="cls-1" cx="241.97" cy="50.92" rx="1.37" ry="2.73" transform="translate(1.45 108.27) rotate(-25.3)"/><ellipse class="cls-1" cx="246.32" cy="104.53" rx="2.73" ry="1.37" transform="translate(100.1 328.63) rotate(-79.87)"/><ellipse class="cls-1" cx="246.17" cy="117.71" rx="2.12" ry="1.06" transform="translate(90.07 341.51) rotate(-80.66)"/><ellipse class="cls-1" cx="247.43" cy="89.55" rx="1.06" ry="2.12" transform="translate(-12.05 45.81) rotate(-10.33)"/><ellipse class="cls-1" cx="235.63" cy="128.96" rx="2.12" ry="1.06" transform="translate(70.13 340.54) rotate(-80.66)"/><ellipse class="cls-1" cx="238.13" cy="60.29" rx="2.99" ry="7.35" transform="translate(-5.71 90) rotate(-21.15)"/><ellipse class="cls-7" cx="66.07" cy="60.05" rx="0.92" ry="1.58"/><ellipse class="cls-7" cx="106.82" cy="60.05" rx="0.92" ry="1.58"/></g></svg>