<svg xmlns="http://www.w3.org/2000/svg" xmlns:xlink="http://www.w3.org/1999/xlink" viewBox="0 0 1056.66 630.91"><defs><style>.cls-1{isolation:isolate;}.cls-2{fill:url(#linear-gradient);}.cls-3{fill:url(#linear-gradient-2);}.cls-4{opacity:0.67;mix-blend-mode:screen;fill:url(#linear-gradient-3);}.cls-5{fill:#e1ffff;}</style><linearGradient id="linear-gradient" x1="528.33" x2="528.33" y2="630.91" gradientUnits="userSpaceOnUse"><stop offset="0" stop-color="#0071bc"/><stop offset="0.06" stop-color="#0c79c0"/><stop offset="0.17" stop-color="#2b8fcc"/><stop offset="0.32" stop-color="#5db3df"/><stop offset="0.5" stop-color="#a2e4f9"/><stop offset="0.54" stop-color="#b1efff"/></linearGradient><linearGradient id="linear-gradient-2" x1="528.33" y1="630.91" x2="528.33" y2="315.45" gradientUnits="userSpaceOnUse"><stop offset="0" stop-color="#006685" stop-opacity="0.7"/><stop offset="0.33" stop-color="#2f85a7" stop-opacity="0.83"/><stop offset="0.62" stop-color="#529bc1" stop-opacity="0.92"/><stop offset="0.85" stop-color="#67a9d0" stop-opacity="0.98"/><stop offset="1" stop-color="#6faed6"/></linearGradient><linearGradient id="linear-gradient-3" y1="473.18" x2="528.06" y2="473.18" gradientUnits="userSpaceOnUse"><stop offset="0" stop-color="#87cce2"/><stop offset="0.09" stop-color="#8bcee3" stop-opacity="0.96"/><stop offset="0.25" stop-color="#95d4e7" stop-opacity="0.84"/><stop offset="0.45" stop-color="#a6deec" stop-opacity="0.66"/><stop offset="0.68" stop-color="#bdebf3" stop-opacity="0.4"/><stop offset="0.95" stop-color="#dbfbfd" stop-opacity="0.07"/><stop offset="1" stop-color="#e1ffff" stop-opacity="0"/></linearGradient></defs><title>NP-bg</title><g class="cls-1"><g id="Layer_2" data-name="Layer 2"><g id="North_Pole_Background" data-name="North Pole Background"><rect class="cls-2" width="1056.66" height="630.91"/><path class="cls-3" d="M0,315.45l138.14,21.86a702.67,702.67,0,0,0,169.52,5.8L423,333.1a707.38,707.38,0,0,1,134.87,1.23l56.52,6c71.86,7.59,145.87,4,214.58-10.49h0a685.94,685.94,0,0,1,140.72-14.37h86.93V630.91H0Z"/><path class="cls-4" d="M0,315.45l69,21.86a178.34,178.34,0,0,0,84.72,5.8l57.66-10a177.94,177.94,0,0,1,67.4,1.23l28.24,6a179.27,179.27,0,0,0,107.24-10.49h0a180.67,180.67,0,0,1,70.32-14.37h43.45V630.91H0Z"/><path class="cls-5" d="M154.27,425.9l-11.18-1.3a3,3,0,0,0-2.38.8l-4.53,4.37a2.92,2.92,0,0,0-.74,3.05l4.6,13.55a2.93,2.93,0,0,0,4,1.72l23.56-10.77a2.93,2.93,0,0,0,0-5.32l-12.44-5.84A3.1,3.1,0,0,0,154.27,425.9Z"/><path class="cls-5" d="M0,414.66l60.1,7.63a10.21,10.21,0,0,0,2.47,0l32.87-3.49a10.65,10.65,0,0,1,5,.65l19.2,7.39a10.69,10.69,0,0,1,6.11,6.08l6.2,15.9h0a10.69,10.69,0,0,0,13.19,6.73l10.6-3.22a10.53,10.53,0,0,1,3.1-.46h12.58a10.68,10.68,0,0,1,10.23,7.61L198,514.28a10.66,10.66,0,0,0,2.27,4.06l17.52,19.59a10.67,10.67,0,0,1,1.1,12.76L198,584.26a10.68,10.68,0,0,1-7.7,5L78.84,601.56c-.49.06-18-4-32-7.14A41,41,0,0,1,20.45,575L0,539.9Z"/><path class="cls-5" d="M199.42,490.5,202.57,506a2.36,2.36,0,0,0,.44,1l13.27,17.58a2.48,2.48,0,0,0,2,1h12.6a2.45,2.45,0,0,0,2-3.91l-24.7-33.09a2.49,2.49,0,0,0-2-1h-4.32A2.46,2.46,0,0,0,199.42,490.5Z"/><path class="cls-5" d="M221.32,528.56h13a1.81,1.81,0,0,1,1,.27l6.39,3.8a1.88,1.88,0,0,1,.17,3.12l-12.92,9.69a1.88,1.88,0,0,1-2.82-.69l-6.47-13.5A1.88,1.88,0,0,1,221.32,528.56Z"/><path class="cls-5" d="M245.92,533.79l-.74,3a1.35,1.35,0,0,1-.38.68l-3.4,3.31a1.42,1.42,0,0,0,.26,2.23l4,2.4a1.43,1.43,0,0,0,1.36.06l10.52-5.27a1.41,1.41,0,0,0,0-2.53l-9.62-4.82A1.42,1.42,0,0,0,245.92,533.79Z"/><path class="cls-5" d="M0,404.67l62.93,5.79a13.38,13.38,0,0,0,6.75.7l86.64-13.33a13.65,13.65,0,0,1,2.39-.15l71,1.84a13.42,13.42,0,0,0,9-3.13L280,367.31a12.76,12.76,0,0,1,1.92-1.35l9.91-5.72a13.42,13.42,0,0,0,2.78-21.11l-27.45-27.46a13.52,13.52,0,0,0-5.42-3.29l-63.1-20.08-109.51-19a13.43,13.43,0,0,0-7.64.22L9.66,283.07c-.42.14-.85.26-1.28.36L0,285.29Z"/><path class="cls-5" d="M330,333.73a27.68,27.68,0,0,0-15.76,17.49c-2.26,7.36-6.64,16-15.09,19.24-12.93,5-39,27.09-48.15,35a27.26,27.26,0,0,1-7.34,4.58l-28.13,11.87a27.54,27.54,0,0,0-14.73,35.92L209.19,478a27.67,27.67,0,0,0,3.84,6.53L240,518.61a27.55,27.55,0,0,0,26.5,10l127.47-23.08a27.47,27.47,0,0,0,10-4l80.39-51.86a27.63,27.63,0,0,0,9.36-10.17l31.11-58.27A27.53,27.53,0,0,0,528,367.22l-.84-21.37a27.53,27.53,0,0,0-25.76-26.38l-71.18-4.55a27.22,27.22,0,0,0-4.69.1l-64.24,6.87a27.92,27.92,0,0,0-7.68,2Z"/><path class="cls-5" d="M164.1,407.06h54.06a5,5,0,0,1,4.56,7h0a5,5,0,0,1-2.94,2.7l-21.69,7.42a5,5,0,0,0-3.07,3l-2.68,7.36a5,5,0,0,1-7.12,2.64L159.78,423a5,5,0,0,1-2.36-5.72l1.88-6.59A5,5,0,0,1,164.1,407.06Z"/><path class="cls-5" d="M153.68,409.93l-2.38,10.49a2.36,2.36,0,0,1-2.53,1.82l-36.56-3.72a2.36,2.36,0,0,1-.65-4.52l16.6-6.76a2.25,2.25,0,0,1,.89-.18h22.34A2.34,2.34,0,0,1,153.68,409.93Z"/></g></g></g></svg>