<?xml version="1.0" encoding="utf-8"?>
<!-- Generator: Adobe Illustrator 19.0.0, SVG Export Plug-In . SVG Version: 6.00 Build 0)  -->
<svg version="1.1" id="Layer_1" xmlns="http://www.w3.org/2000/svg" xmlns:xlink="http://www.w3.org/1999/xlink" x="0px" y="0px"
	 viewBox="508 -295.9 1056.7 630.9" style="enable-background:new 508 -295.9 1056.7 630.9;" xml:space="preserve">
<style type="text/css">
	.st0{fill:url(#SVGID_1_);}
	.st1{fill:url(#SVGID_2_);}
	.st2{opacity:0.67;fill:url(#SVGID_3_);enable-background:new    ;}
	.st3{fill:#E1FFFF;}
</style>
<title>NP-bg</title>
<linearGradient id="SVGID_1_" gradientUnits="userSpaceOnUse" x1="1036.33" y1="334.09" x2="1036.3301" y2="-296.8199" gradientTransform="matrix(1 0 0 -1 0 38.1801)">
	<stop  offset="0" style="stop-color:#0071BC"/>
	<stop  offset="6.000000e-002" style="stop-color:#0C79C0"/>
	<stop  offset="0.17" style="stop-color:#2B8FCC"/>
	<stop  offset="0.32" style="stop-color:#5DB3DF"/>
	<stop  offset="0.5" style="stop-color:#A2E4F9"/>
	<stop  offset="0.54" style="stop-color:#B1EFFF"/>
</linearGradient>
<rect x="508" y="-295.9" class="st0" width="1056.7" height="630.9"/>
<linearGradient id="SVGID_2_" gradientUnits="userSpaceOnUse" x1="1036.4734" y1="-296.8199" x2="1036.4734" y2="18.64" gradientTransform="matrix(1 0 0 -1 0 38.1801)">
	<stop  offset="0" style="stop-color:#006685;stop-opacity:0.7"/>
	<stop  offset="0.33" style="stop-color:#2F85A7;stop-opacity:0.83"/>
	<stop  offset="0.62" style="stop-color:#529BC1;stop-opacity:0.92"/>
	<stop  offset="0.85" style="stop-color:#67A9D0;stop-opacity:0.98"/>
	<stop  offset="1" style="stop-color:#6FAED6"/>
</linearGradient>
<path class="st1" d="M508,19.5l138.2,21.9c56.1,8.8,113,10.7,169.6,5.8l115.4-10c44.9-3.9,90.1-3.5,134.9,1.2l56.5,6
	c71.9,7.6,145.9,4,214.6-10.5l0,0c46.3-9.6,93.5-14.4,140.8-14.4h87V335H508V19.5z"/>
<linearGradient id="SVGID_3_" gradientUnits="userSpaceOnUse" x1="508" y1="-139.09" x2="1036.03" y2="-139.09" gradientTransform="matrix(1 0 0 -1 0 38.1801)">
	<stop  offset="0" style="stop-color:#87CCE2"/>
	<stop  offset="9.000000e-002" style="stop-color:#8BCEE3;stop-opacity:0.96"/>
	<stop  offset="0.25" style="stop-color:#95D4E7;stop-opacity:0.84"/>
	<stop  offset="0.45" style="stop-color:#A6DEEC;stop-opacity:0.66"/>
	<stop  offset="0.68" style="stop-color:#BDEBF3;stop-opacity:0.4"/>
	<stop  offset="0.95" style="stop-color:#DBFBFD;stop-opacity:7.000000e-002"/>
	<stop  offset="1" style="stop-color:#E1FFFF;stop-opacity:0"/>
</linearGradient>
<path class="st2" d="M508,19.5l69,21.9c27.4,8.7,56.4,10.7,84.7,5.8l57.7-10c22.3-3.9,45.2-3.5,67.4,1.2l28.2,6
	c36,7.6,73.4,3.9,107.2-10.5l0,0c22.2-9.4,46.2-14.3,70.3-14.4h43.5V335H508V19.5z"/>
<path class="st3" d="M567.3,102.6l-7.3-0.8c-0.6-0.1-1.1,0.1-1.5,0.5l-2.9,2.8c-0.5,0.5-0.7,1.3-0.5,2l3,8.8c0.3,1,1.4,1.5,2.4,1.2
	c0.1,0,0.1,0,0.2-0.1l15.3-7c1-0.4,1.4-1.6,0.9-2.5c-0.2-0.4-0.5-0.7-0.9-0.9l-8.1-3.8C567.7,102.7,567.5,102.6,567.3,102.6z"/>
<path class="st3" d="M606.9,175.4l-11.4-12.7c-0.7-0.8-1.2-1.7-1.5-2.6l-10.6-35.6c-0.9-2.9-3.6-4.9-6.6-4.9h-8.2
	c-0.7,0-1.4,0.1-2,0.3l-6.9,2.1c-3.6,1.1-7.4-0.9-8.6-4.4l-4-10.3c-0.7-1.8-2.2-3.3-4-4l-12.5-4.8c-1-0.4-2.1-0.5-3.2-0.4l-19.1,2
	v114.9c4.6,1.1,8.2,1.8,8.3,1.8l72.4-8c2.1-0.3,3.9-1.5,5-3.2l13.6-21.8C609.2,181.1,608.9,177.7,606.9,175.4z"/>
<path class="st3" d="M594.9,144.6l2,10.1c0,0.2,0.1,0.5,0.3,0.6l8.6,11.4c0.3,0.4,0.8,0.7,1.3,0.6h8.2c0.9,0,1.6-0.7,1.6-1.6
	c0-0.3-0.1-0.7-0.3-1l-16.1-21.5c-0.3-0.4-0.8-0.7-1.3-0.6h-2.8c-0.9,0-1.6,0.7-1.6,1.6C594.9,144.4,594.9,144.5,594.9,144.6z"/>
<path class="st3" d="M609.2,169.3h8.4c0.2,0,0.5,0.1,0.6,0.2l4.2,2.5c0.6,0.3,0.8,1.1,0.4,1.7c-0.1,0.1-0.2,0.3-0.3,0.4l-8.4,6.3
	c-0.5,0.4-1.3,0.3-1.7-0.2c0-0.1-0.1-0.1-0.1-0.2l-4.2-8.8c-0.3-0.6,0-1.3,0.6-1.6C608.8,169.3,609,169.3,609.2,169.3z"/>
<path class="st3" d="M508,90.7l44-6.4c0.5-0.1,1-0.1,1.6-0.1l46.1,1.2c2.1,0.1,4.2-0.7,5.8-2l26.8-18.9c0.4-0.3,0.8-0.6,1.2-0.9
	l6.4-3.7c4.2-2.4,5.6-7.7,3.2-11.9c-0.4-0.7-0.8-1.3-1.4-1.8L624,28.3c-1-1-2.2-1.7-3.5-2.1l-41-13.1L508.3,0.8L508,90.7z"/>
<path class="st3" d="M625.2,172.7l-0.5,1.9c0,0.2-0.1,0.3-0.2,0.4l-2.2,2.2c-0.4,0.4-0.4,0.9,0,1.3c0.1,0.1,0.1,0.1,0.2,0.1l2.6,1.6
	c0.3,0.2,0.6,0.2,0.9,0l6.8-3.4c0.5-0.2,0.6-0.8,0.4-1.2c-0.1-0.2-0.2-0.3-0.4-0.4l-6.3-3.1c-0.5-0.2-1,0-1.2,0.4
	C625.2,172.6,625.2,172.6,625.2,172.7z"/>
<path class="st3" d="M669.8,32.7c-4.9,2.1-8.7,6.2-10.2,11.4c-1.5,4.8-4.3,10.4-9.8,12.5c-8.4,3.2-25.3,17.6-31.3,22.7
	c-1.4,1.2-3,2.2-4.8,3L595.4,90c-9.1,3.8-13.3,14.3-9.6,23.3l5.5,13.1c0.6,1.5,1.5,3,2.5,4.2l17.5,22.2c4.1,5.2,10.7,7.7,17.2,6.5
	l82.9-15c2.3-0.4,4.5-1.3,6.5-2.6l52.3-33.7c2.6-1.7,4.6-3.9,6.1-6.6l20.2-37.9c1.5-2.8,2.2-5.9,2.1-9.1L798,40.5
	c-0.4-9.2-7.6-16.6-16.7-17.1l-46.3-3c-1-0.1-2,0-3,0.1L690.1,25c-1.7,0.2-3.4,0.6-5,1.3L669.8,32.7z"/>
<path class="st3" d="M566.9,92.2l-1.5,6.8c-0.2,0.8-0.9,1.3-1.6,1.2L540,97.8c-0.8-0.1-1.4-0.9-1.4-1.7c0.1-0.6,0.4-1,0.9-1.2
	l10.8-4.4c0.2-0.1,0.4-0.1,0.6-0.1h14.5c0.8,0,1.5,0.7,1.5,1.5C567,92,566.9,92.1,566.9,92.2z"/>
<path class="st3" d="M939.5,15.9c-0.5-0.1-1-0.1-1.5-0.1c-12,0.5-95.9,7.6-107.8,18.6c-16.8,15.6-35.8,82.7-40.6,94.6
	c-0.4,1-0.9,1.8-1.5,2.6l-31.7,42.8c-1.9,2.5-4.6,3.9-7.4,3.8l-48.2-2.6c-8.4-0.4-13,11.8-7.4,19.5l48.5,66.6
	c1.7,2.4,4.2,3.8,6.8,3.9l130.6,3.8c1.2,0,2.5-0.2,3.6-0.8l83.7-29.9c9.7-3.5,18.1-9.7,24.3-17.8l53.1-69.9c0.3-0.4,0.6-0.7,0.9-1.1
	c0,0,0.1-0.1,0.1-0.1c3.2-3.5,5-8.1,4.9-12.8l-3.1-86.2c0-1.1,0-2.3,0.2-3.4c1-6.5-2.7-12.9-8.1-13.7L939.5,15.9z"/>
<path class="st3" d="M766.9,115.3l-31.6,22c-3.4,2.4-2.3,7.7,1.8,8.5l17.8,3.4c1.6,0.3,3.2-0.2,4.3-1.4l18-18.6
	c1.5-1.5,1.8-3.9,0.7-5.7l-4.2-6.9C772.2,114.4,769.1,113.7,766.9,115.3z"/>
<path class="st3" d="M722.5,145.2l-11.7,2.3c-2.2,0.4-2.6,3.4-0.6,4.4l13.2,6.6c0.8,0.4,1.7,0.3,2.4-0.2l9.2-6.2
	c1.7-1.1,1.2-3.7-0.8-4.2l-10.7-2.6C723.2,145.1,722.8,145.1,722.5,145.2z"/>
<path class="st3" d="M748.3,151.5l-5.5-1.7c-1.2-0.4-2.4,0.2-2.9,1.4l-5.1,12.7c-0.2,0.6-0.2,1.3,0,1.9l1.2,2.6
	c0.8,1.7,3,1.9,4.1,0.4l9.5-13.6C750.4,153.8,749.8,151.9,748.3,151.5z"/>
<path class="st3" d="M655.7,172.1L655.7,172.1c0-1.1,0.8-2.1,2-2.3l14-2.4c2.2-0.4,2.7-3.4,0.6-4.4l-5.8-2.9c-0.3-0.2-0.7-0.2-1-0.2
	l-15.7-0.3c-1.6,0-2.8,1.6-2.3,3.1l3.6,10.2C652,175.3,655.7,174.7,655.7,172.1z"/>
<path class="st3" d="M627.2,190.8l17.1-3.7c2-0.4,4.1-0.7,6.2-0.7l8.3-0.2c12.5-0.3,24.1,6.7,29.8,17.9l36.5,72.1
	c2.3,4.6,3.5,9.6,3.5,14.8V335H508V226.4l60.9,5.5c12.5,1.1,24.5-5,30.9-15.7l6.2-10.3C610.7,198.1,618.3,192.7,627.2,190.8z"/>
</svg>
