<?xml version="1.0" encoding="utf-8"?>
<!-- Generator: Adobe Illustrator 22.1.0, SVG Export Plug-In . SVG Version: 6.00 Build 0)  -->
<svg version="1.1" id="Layer_1" xmlns="http://www.w3.org/2000/svg" xmlns:xlink="http://www.w3.org/1999/xlink" x="0px" y="0px"
	 viewBox="0 0 145.9 56.6" style="enable-background:new 0 0 145.9 56.6;" xml:space="preserve">
<style type="text/css">
	.st0{fill:#FFFFFF;}
	.st1{fill:#45ABE1;}
	.st2{font-family:'Montserrat-SemiBold';}
	.st3{font-size:27px;}
</style>
<title>Asset 7</title>
<path class="st0" d="M3.8,48.9h90.6c2.1,0,3.8,1.7,3.8,3.8l0,0c0,2.1,1.7,3.8,3.8,3.8c0.6,0,1.3-0.2,1.9-0.5l40-22.1
	c1.8-1,2.5-3.3,1.5-5.2c-0.3-0.6-0.9-1.2-1.5-1.5l-40-22.1c-1.8-1-4.2-0.4-5.2,1.5c-0.3,0.6-0.5,1.2-0.5,1.9l0,0
	c0,2.1-1.7,3.8-3.8,3.8H3.8C1.7,12.3,0,14,0,16.1V45C0,47.2,1.7,48.9,3.8,48.9L3.8,48.9z"/>
<path class="st1" d="M3.8,44.2h90.6c2.1,0,3.8,1.7,3.8,3.8l0,0c0,2.1,1.7,3.8,3.8,3.8c0.6,0,1.3-0.2,1.8-0.5l40-22.1
	c1.8-1,2.5-3.3,1.5-5.2c-0.3-0.6-0.9-1.2-1.5-1.5l-40-22.1c-1.8-1-4.2-0.4-5.2,1.5c-0.3,0.6-0.5,1.2-0.5,1.9l0,0
	c0,2.1-1.7,3.8-3.8,3.8H3.8C1.7,7.7,0,9.4,0,11.5v28.9C0,42.5,1.7,44.2,3.8,44.2L3.8,44.2z"/>
<text transform="matrix(1 0 0 1 16.51 34.65)" class="st0 st2 st3">O</text>
<text transform="matrix(1 0 0 1 39.24 34.65)" class="st0 st2 st3">c</text>
<text transform="matrix(1 0 0 1 54.72 34.65)" class="st0 st2 st3">e</text>
<text transform="matrix(1 0 0 1 71.1 34.65)" class="st0 st2 st3">an</text>
</svg>
