<svg xmlns="http://www.w3.org/2000/svg" xmlns:xlink="http://www.w3.org/1999/xlink" viewBox="0 0 320 640"><defs><style>.cls-1{fill:url(#radial-gradient);}.cls-2{font-size:29px;}.cls-2,.cls-24,.cls-3{fill:#fff;}.cls-2,.cls-3{font-family:Montserrat-Bold, Montserrat;font-weight:700;}.cls-3{font-size:20px;}.cls-4{letter-spacing:0em;}.cls-5{letter-spacing:-0.02em;}.cls-6{letter-spacing:-0.02em;}.cls-7{letter-spacing:-0.01em;}.cls-8{letter-spacing:0.01em;}.cls-9{letter-spacing:-0.02em;}.cls-10{letter-spacing:0.01em;}.cls-11{letter-spacing:-0.01em;}.cls-12{letter-spacing:-0.01em;}.cls-13{letter-spacing:0.01em;}.cls-14{letter-spacing:-0.01em;}.cls-15{letter-spacing:-0.01em;}.cls-16{letter-spacing:0em;}.cls-17{letter-spacing:0.02em;}.cls-18{fill:#939598;}.cls-19{fill:#bcbec0;}.cls-20{fill:#c49a6c;}.cls-21{fill:#231f20;}.cls-22{fill:none;stroke:#231f20;stroke-miterlimit:10;stroke-width:1.45px;}.cls-23{fill:#a7a9ac;}</style><radialGradient id="radial-gradient" cx="160" cy="320" r="252.98" gradientUnits="userSpaceOnUse"><stop offset="0" stop-color="#59afc5"/><stop offset="0.23" stop-color="#4aa8c0"/><stop offset="0.66" stop-color="#2396b2"/><stop offset="1" stop-color="#0085a6"/></radialGradient></defs><title>Asset 37</title><g id="Layer_2" data-name="Layer 2"><g id="Amazon_Environment" data-name="Amazon Environment"><rect class="cls-1" width="320" height="640"/><text class="cls-2" transform="translate(99.84 434.63)">UH OH!</text><text class="cls-3" transform="translate(27.84 472.98)"><tspan class="cls-4">L</tspan><tspan x="12" y="0">oo</tspan><tspan class="cls-5" x="38.2" y="0">k</tspan><tspan x="51.04" y="0">s li</tspan><tspan class="cls-6" x="79.36" y="0">k</tspan><tspan x="92.1" y="0">e </tspan><tspan class="cls-7" x="110.38" y="0">y</tspan><tspan x="122.04" y="0">ou </tspan><tspan class="cls-8" x="154.54" y="0">n</tspan><tspan x="168.48" y="0">eed </tspan><tspan class="cls-9" x="213.22" y="0">t</tspan><tspan x="221.58" y="0">o do </tspan><tspan x="7.43" y="24">so</tspan><tspan class="cls-10" x="31.15" y="24">m</tspan><tspan x="52.25" y="24">e </tspan><tspan class="cls-11" x="70.53" y="24">r</tspan><tspan class="cls-12" x="78.97" y="24">e</tspan><tspan x="91.39" y="24">vi</tspan><tspan class="cls-12" x="109.37" y="24">e</tspan><tspan x="121.79" y="24">w! Ma</tspan><tspan class="cls-6" x="183.41" y="24">k</tspan><tspan x="196.15" y="24">e su</tspan><tspan class="cls-11" x="238.79" y="24">r</tspan><tspan x="247.23" y="24">e </tspan><tspan class="cls-7" x="-6.68" y="48">y</tspan><tspan x="4.98" y="48">ou go th</tspan><tspan class="cls-11" x="92.76" y="48">r</tspan><tspan x="101.2" y="48">ough t</tspan><tspan class="cls-10" x="170.22" y="48">h</tspan><tspan x="184.16" y="48">e animal </tspan><tspan class="cls-12" x="-6.21" y="72">f</tspan><tspan class="cls-10" x="1.33" y="72">a</tspan><tspan class="cls-13" x="13.79" y="72">c</tspan><tspan x="25.77" y="72">ts </tspan><tspan class="cls-10" x="50.75" y="72">a</tspan><tspan x="63.21" y="72">gain be</tspan><tspan class="cls-14" x="141.47" y="72">f</tspan><tspan x="149.07" y="72">o</tspan><tspan class="cls-15" x="162.17" y="72">r</tspan><tspan class="cls-16" x="170.61" y="72">e </tspan><tspan class="cls-15" x="188.89" y="72">r</tspan><tspan x="197.33" y="72">et</tspan><tspan class="cls-17" x="218.65" y="72">r</tspan><tspan x="227.57" y="72">yi</tspan><tspan class="cls-8" x="245.55" y="72">n</tspan><tspan x="259.49" y="72">g </tspan><tspan x="88.29" y="96">t</tspan><tspan class="cls-10" x="96.99" y="96">h</tspan><tspan x="110.93" y="96">e qui</tspan><tspan class="cls-10" x="162.77" y="96">z</tspan><tspan x="173.75" y="96">.</tspan></text><g id="Narwhal"><path class="cls-18" d="M105.49,315.92l7.43-4.74s44.93,8.94,46.44,60.88l-4.63,3.55s-24.57-8.19-37.82-32C116.8,343.61,105.16,338.12,105.49,315.92Z"/><path class="cls-19" d="M203.1,142.56c-35.45-3.66-65.18,14.87-79.41,24.67h-1.4c-29.73,0-55.48,12.93-54.62,44.07.75,28.12,19.07,41.38,48.81,41.38,10.66,0,25.64-3.13,34-7.12a20.73,20.73,0,0,1,2.7,6.79c4.31,16.81,21.11,34.37,21.11,34.37-14.86,12.07-8.94,25-8.94,25A131.82,131.82,0,0,1,138,327.34c-15.19,6.25-21.87,13.26-21.44,15.63s19.18,1.94,79.63-12.5,83.18-47.52,86.62-99.56C285.2,194.17,245.88,147,203.1,142.56Z"/><path class="cls-20" d="M89.54,213.13,22.09,243a1.25,1.25,0,0,0-.54,1.72,1.3,1.3,0,0,0,1.4.65l69.39-21.77a1.31,1.31,0,0,0,.76-.75,9,9,0,0,0-2.38-9.48C90.51,213,90.08,213,89.54,213.13Z"/><ellipse class="cls-21" cx="117.77" cy="206.56" rx="4.09" ry="7.76"/><ellipse class="cls-21" cx="74.35" cy="207.75" rx="4.09" ry="7.87"/><path class="cls-22" d="M111.67,234.3s-12.07-6.68-19.94,3.88"/><path class="cls-23" d="M221.1,218s32.43,2.7,39,22.2a39.4,39.4,0,0,1-41.37,3.88S212.91,232,221.1,218Z"/><ellipse class="cls-18" cx="74.45" cy="193.54" rx="3.34" ry="1.72" transform="translate(-51.21 28.59) rotate(-16.26)"/><ellipse class="cls-18" cx="118.17" cy="192.9" rx="1.72" ry="3.34" transform="translate(-97.74 260.4) rotate(-75.87)"/><ellipse class="cls-18" cx="234.34" cy="170.22" rx="2.59" ry="5.17" transform="translate(-33.96 279.33) rotate(-58.12)"/><ellipse class="cls-18" cx="238.08" cy="183.96" rx="1.94" ry="3.99" transform="translate(-43.86 288.98) rotate(-58.12)"/><ellipse class="cls-18" cx="222.68" cy="165.6" rx="1.51" ry="2.91" transform="translate(-35.54 267.25) rotate(-58.12)"/><ellipse class="cls-18" cx="251.02" cy="191.92" rx="1.51" ry="2.91" transform="matrix(0.62, -0.78, 0.78, 0.62, -55.25, 269.69)"/><ellipse class="cls-18" cx="252.57" cy="182.18" rx="3.23" ry="7.87" transform="matrix(0.63, -0.77, 0.77, 0.63, -48.52, 261.71)"/><ellipse class="cls-18" cx="264.83" cy="276.05" rx="3.99" ry="1.94" transform="translate(-86.77 426.76) rotate(-69.39)"/><ellipse class="cls-18" cx="265.39" cy="196.98" rx="1.51" ry="2.91" transform="translate(-58.73 132.32) rotate(-25.3)"/><ellipse class="cls-18" cx="270.08" cy="254.75" rx="2.91" ry="1.51" transform="translate(-28.21 475.81) rotate(-79.87)"/><ellipse class="cls-18" cx="269.93" cy="269.01" rx="2.26" ry="1.19" transform="translate(-39.32 491.7) rotate(-80.66)"/><ellipse class="cls-18" cx="271.3" cy="238.57" rx="1.19" ry="2.26" transform="translate(-38.38 52.51) rotate(-10.33)"/><ellipse class="cls-18" cx="258.62" cy="281.09" rx="2.26" ry="1.19" transform="translate(-60.72 490.66) rotate(-80.66)"/><ellipse class="cls-18" cx="261.27" cy="207.1" rx="3.23" ry="7.87" transform="translate(-57.13 108.22) rotate(-21.15)"/><ellipse class="cls-24" cx="75.86" cy="206.78" rx="0.97" ry="1.72"/><ellipse class="cls-24" cx="119.82" cy="206.78" rx="0.97" ry="1.72"/><path class="cls-19" d="M114.09,198.1s6,7.92,11.59,9.33C125.68,207.43,126.18,196.43,114.09,198.1Z"/><path class="cls-19" d="M79.92,197.82s-6,7.91-11.58,9.33C68.34,207.15,67.84,196.15,79.92,197.82Z"/></g></g></g></svg>