<?xml version="1.0" encoding="utf-8"?>
<!-- Generator: Adobe Illustrator 19.0.0, SVG Export Plug-In . SVG Version: 6.00 Build 0)  -->
<svg version="1.1" id="Layer_1" xmlns="http://www.w3.org/2000/svg" xmlns:xlink="http://www.w3.org/1999/xlink" x="0px" y="0px"
	 viewBox="140 -300 320 640" style="enable-background:new 140 -300 320 640;" xml:space="preserve">
<style type="text/css">
	.st0{fill:url(#SVGID_1_);}
	.st1{fill:#939598;}
	.st2{fill:#BCBEC0;}
	.st3{fill:#C49A6C;}
	.st4{fill:#231F20;}
	.st5{fill:none;stroke:#231F20;stroke-width:1.3713;stroke-miterlimit:10;}
	.st6{fill:#A7A9AC;}
	.st7{fill:#FFFFFF;}
</style>
<title>Asset 37</title>
<radialGradient id="SVGID_1_" cx="300" cy="20" r="252.9822" gradientTransform="matrix(1 0 0 -1 0 40)" gradientUnits="userSpaceOnUse">
	<stop  offset="0" style="stop-color:#59AFC5"/>
	<stop  offset="0.23" style="stop-color:#4AA8C0"/>
	<stop  offset="0.66" style="stop-color:#2396B2"/>
	<stop  offset="1" style="stop-color:#0085A6"/>
</radialGradient>
<rect x="140" y="-300" class="st0" width="320" height="640"/>
<g id="Narwhal">
	<path class="st1" d="M247.9-46.2l7-4.5c0,0,42.5,8.5,43.9,57.6l-4.4,3.4c0,0-23.2-7.7-35.8-30.3C258.6-20,247.6-25.2,247.9-46.2z"
		/>
	<path class="st2" d="M340.2-210.1c-33.5-3.5-61.6,14.1-75.1,23.3h-1.3c-28.1,0-52.5,12.2-51.7,41.7c0.7,26.6,18,39.1,46.2,39.1
		c10.1,0,24.2-3,32.2-6.7c1.2,2,2.1,4.1,2.6,6.4c4.1,15.9,20,32.5,20,32.5c-14.1,11.4-8.5,23.6-8.5,23.6c-8,5.9-16.7,10.9-25.9,14.8
		c-14.4,5.9-20.7,12.5-20.3,14.8c0.4,2.2,18.1,1.8,75.3-11.8s78.7-44.9,81.9-94.2C417.8-161.3,380.6-205.9,340.2-210.1z"/>
	<path class="st3" d="M232.8-143.4L169-115.1c-0.6,0.3-0.8,1-0.5,1.6c0,0,0,0,0,0c0.3,0.5,0.8,0.7,1.3,0.6l65.6-20.6
		c0.3-0.1,0.6-0.4,0.7-0.7c1.1-3.2,0.2-6.7-2.3-9C233.7-143.5,233.3-143.5,232.8-143.4z"/>
	<ellipse class="st4" cx="259.5" cy="-149.6" rx="3.9" ry="7.3"/>
	<ellipse class="st4" cx="218.4" cy="-148.5" rx="3.9" ry="7.4"/>
	<path class="st5" d="M253.7-123.4c0,0-11.4-6.3-18.9,3.7"/>
	<path class="st6" d="M357.2-138.8c0,0,30.7,2.6,36.9,21c-11.3,8.6-26.4,10-39.1,3.7C355-114.1,349.5-125.5,357.2-138.8z"/>
	<ellipse transform="matrix(-0.28 -0.96 0.96 -0.28 435.1337 2.5218)" class="st1" cx="218.5" cy="-161.9" rx="1.6" ry="3.2"/>
	
		<ellipse transform="matrix(-0.9697 -0.2441 0.2441 -0.9697 551.5344 -256.6969)" class="st1" cx="259.9" cy="-162.5" rx="3.2" ry="1.6"/>
	
		<ellipse transform="matrix(-0.8492 -0.5281 0.5281 -0.8492 780.8519 -144.8881)" class="st1" cx="369.7" cy="-184" rx="4.9" ry="2.4"/>
	
		<ellipse transform="matrix(-0.8492 -0.5281 0.5281 -0.8492 780.5388 -119.0054)" class="st1" cx="373.3" cy="-171" rx="3.8" ry="1.8"/>
	
		<ellipse transform="matrix(-0.8492 -0.5281 0.5281 -0.8492 762.7651 -158.7905)" class="st1" cx="358.7" cy="-188.3" rx="2.8" ry="1.4"/>
	
		<ellipse transform="matrix(-0.7828 -0.6222 0.6222 -0.7828 786.8358 -50.4515)" class="st1" cx="384.6" cy="-162.5" rx="2.7" ry="1.4"/>
	
		<ellipse transform="matrix(-0.774 -0.6332 0.6332 -0.774 793.0671 -62.5587)" class="st1" cx="385.4" cy="-172.8" rx="7.4" ry="3"/>
	<ellipse transform="matrix(-0.936 -0.352 0.352 -0.936 801.152 -22.0986)" class="st1" cx="398.6" cy="-83.9" rx="1.8" ry="3.8"/>
	
		<ellipse transform="matrix(-0.4274 -0.9041 0.9041 -0.4274 713.0797 134.3518)" class="st1" cx="399.1" cy="-158.7" rx="2.8" ry="1.4"/>
	
		<ellipse transform="matrix(-0.9844 -0.1759 0.1759 -0.9844 819.0473 -135.4688)" class="st1" cx="403.5" cy="-104" rx="1.4" ry="2.8"/>
	
		<ellipse transform="matrix(-0.9867 -0.1623 0.1623 -0.9867 816.123 -114.4208)" class="st1" cx="403.4" cy="-90.5" rx="1.1" ry="2.1"/>
	
		<ellipse transform="matrix(-0.1793 -0.9838 0.9838 -0.1793 594.6528 257.391)" class="st1" cx="404.7" cy="-119.3" rx="2.1" ry="1.1"/>
	
		<ellipse transform="matrix(-0.9867 -0.1623 0.1623 -0.9867 793.0068 -93.4586)" class="st1" cx="392.7" cy="-79.1" rx="1.1" ry="2.1"/>
	
		<ellipse transform="matrix(-0.3608 -0.9326 0.9326 -0.3608 676.8303 165.6841)" class="st1" cx="395.2" cy="-149.1" rx="7.4" ry="3.1"/>
	<ellipse class="st7" cx="219.8" cy="-149.4" rx="0.9" ry="1.6"/>
	<ellipse class="st7" cx="261.4" cy="-149.4" rx="0.9" ry="1.6"/>
	<path class="st2" d="M256-157.6c0,0,5.7,7.5,11,8.8C267-148.8,267.4-159.2,256-157.6z"/>
	<path class="st2" d="M223.7-157.9c0,0-5.7,7.5-11,8.8C212.7-149,212.3-159.4,223.7-157.9z"/>
</g>
<g>
	<g>
		<path class="st7" d="M243.2,59.6l-1.9-4.6h-11l-1.9,4.6h-5.5l10.3-23.8h5.5l10.2,23.8H243.2z M232,50.7h7.5l-3.7-9.2L232,50.7z"/>
		<path class="st7" d="M251.4,35.8h5.4v19.1H267v4.7h-15.6V35.8z"/>
		<path class="st7" d="M270.1,35.8h6l7.4,14.6l7.3-14.6h6v23.8H292V43.5l-6.8,13.7h-3.5L275,43.5v16.1h-4.8V35.8z"/>
		<path class="st7" d="M319.7,37.1c1.9,1.1,3.5,2.5,4.6,4.4c1.1,1.9,1.7,3.9,1.7,6.2c0,2.3-0.6,4.4-1.7,6.3
			c-1.1,1.9-2.7,3.4-4.6,4.4c-2,1.1-4.1,1.6-6.5,1.6c-2.4,0-4.5-0.5-6.5-1.6c-1.9-1.1-3.5-2.5-4.6-4.4c-1.1-1.9-1.7-4-1.7-6.3
			c0-2.3,0.6-4.4,1.7-6.2c1.1-1.9,2.7-3.3,4.6-4.4s4.1-1.6,6.5-1.6C315.6,35.5,317.7,36,319.7,37.1z M309.6,41.2
			c-1.1,0.7-2,1.6-2.7,2.7c-0.7,1.2-1,2.4-1,3.8c0,1.4,0.3,2.7,1,3.8s1.6,2.1,2.7,2.8c1.1,0.7,2.3,1,3.7,1s2.5-0.3,3.6-1
			c1.1-0.7,2-1.6,2.6-2.8c0.6-1.2,1-2.5,1-3.9c0-1.4-0.3-2.7-1-3.8s-1.5-2.1-2.6-2.7c-1.1-0.7-2.3-1-3.6-1S310.7,40.5,309.6,41.2z"
			/>
		<path class="st7" d="M341.3,40.7c-1.4-0.4-2.5-0.7-3.5-0.7c-0.9,0-1.7,0.2-2.2,0.5c-0.5,0.3-0.8,0.8-0.8,1.5
			c0,0.8,0.4,1.5,1.2,1.9c0.8,0.4,2,0.9,3.6,1.4c1.6,0.5,3,1,4,1.4c1.1,0.5,2,1.2,2.7,2.1s1.1,2.2,1.1,3.8c0,1.5-0.4,2.8-1.2,3.9
			s-1.9,1.9-3.3,2.5c-1.4,0.6-3,0.8-4.8,0.8c-1.9,0-3.8-0.3-5.7-1c-1.9-0.7-3.5-1.6-4.8-2.8l2.1-4.4c1.2,1.1,2.6,2,4.1,2.6
			s3,1,4.3,1c1.1,0,2-0.2,2.6-0.6c0.6-0.4,0.9-1,0.9-1.8c0-0.6-0.2-1.1-0.6-1.5c-0.4-0.4-1-0.7-1.6-1c-0.6-0.2-1.5-0.5-2.7-0.8
			c-1.6-0.5-3-0.9-4-1.4c-1-0.5-1.9-1.1-2.7-2.1S329,44,329,42.5c0-1.4,0.4-2.7,1.2-3.8c0.8-1.1,1.8-1.9,3.2-2.5s3-0.9,4.8-0.9
			c1.6,0,3.2,0.2,4.8,0.7c1.6,0.5,3,1.1,4.2,1.9l-2.1,4.5C344,41.7,342.7,41.1,341.3,40.7z"/>
		<path class="st7" d="M348.8,35.8h19.9v4.6h-7.3v19.2h-5.4V40.4h-7.2V35.8z"/>
		<path class="st7" d="M375.2,55.3c0.5,0.5,0.7,1.1,0.7,1.9c0,0.8-0.2,1.4-0.7,2c-0.5,0.5-1.1,0.8-1.9,0.8c-0.7,0-1.4-0.3-1.9-0.8
			c-0.5-0.5-0.7-1.2-0.7-1.9c0-0.8,0.3-1.4,0.7-1.9c0.5-0.5,1.1-0.7,1.9-0.7C374.1,54.5,374.7,54.8,375.2,55.3z M370.9,36h5v6
			l-0.9,9.6h-3.2l-0.9-9.6V36z"/>
	</g>
	<g>
		<path class="st7" d="M183.4,76.4h2.7V89h-2.6l-6.1-8.1V89h-2.7V76.4h2.6l6.1,8.1V76.4z"/>
		<path class="st7" d="M191.3,75.5c0.3,0.3,0.4,0.7,0.4,1.1c0,0.5-0.1,0.8-0.4,1.1c-0.3,0.3-0.6,0.4-1.1,0.4c-0.4,0-0.8-0.1-1.1-0.4
			c-0.3-0.3-0.4-0.7-0.4-1.1c0-0.5,0.1-0.8,0.4-1.1c0.3-0.3,0.6-0.4,1.1-0.4C190.6,75,191,75.2,191.3,75.5z M188.8,79.3h2.8V89h-2.8
			V79.3z"/>
		<path class="st7" d="M198.6,81.6c-0.7,0-1.3,0.2-1.7,0.7c-0.4,0.5-0.7,1.1-0.7,1.9c0,0.8,0.2,1.4,0.6,1.9c0.4,0.5,1,0.7,1.7,0.7
			c1,0,1.8-0.4,2.3-1.1l1.9,1.3c-0.4,0.7-1,1.2-1.7,1.6c-0.7,0.4-1.6,0.6-2.6,0.6c-1,0-1.8-0.2-2.6-0.6s-1.3-1-1.7-1.7
			c-0.4-0.7-0.6-1.6-0.6-2.6c0-1,0.2-1.9,0.6-2.6s1-1.3,1.7-1.7c0.7-0.4,1.6-0.6,2.6-0.6c0.9,0,1.7,0.2,2.5,0.5
			c0.7,0.4,1.3,0.9,1.7,1.5l-1.9,1.4C200.2,81.9,199.4,81.6,198.6,81.6z"/>
		<path class="st7" d="M211.8,80.6c0.8,0.9,1.2,2.2,1.2,3.8c0,0.3,0,0.5,0,0.7H206c0.2,0.6,0.5,1.1,0.9,1.4c0.4,0.3,1,0.5,1.6,0.5
			c0.5,0,0.9-0.1,1.3-0.3c0.4-0.2,0.8-0.4,1.1-0.8l1.5,1.5c-0.5,0.6-1.1,1-1.8,1.3c-0.7,0.3-1.5,0.4-2.3,0.4c-1,0-1.9-0.2-2.7-0.6
			c-0.8-0.4-1.4-1-1.8-1.7c-0.4-0.7-0.6-1.6-0.6-2.6c0-1,0.2-1.9,0.6-2.6s1-1.3,1.8-1.7s1.6-0.6,2.6-0.6
			C209.8,79.2,211,79.7,211.8,80.6z M210.4,83.4c0-0.6-0.2-1.1-0.6-1.5c-0.4-0.4-0.9-0.6-1.5-0.6c-0.6,0-1.1,0.2-1.5,0.6
			s-0.7,0.9-0.8,1.5H210.4z"/>
		<path class="st7" d="M225,88.5c-0.4,0.2-0.8,0.4-1.2,0.5s-0.9,0.2-1.3,0.2c-0.9,0-1.6-0.3-2.2-0.8c-0.6-0.5-0.8-1.3-0.8-2.2v-4.5
			h-1.4v-1.9h1.4v-2.7h2.8v2.7h2.6v1.9h-2.6v4c0,0.7,0.3,1.1,0.9,1.1c0.4,0,0.9-0.1,1.4-0.4L225,88.5z"/>
		<path class="st7" d="M230.8,79.7c0.5-0.3,1.2-0.5,1.9-0.5v2.6c-0.1,0-0.2,0-0.4,0c-0.9,0-1.5,0.2-2,0.7c-0.5,0.5-0.7,1.1-0.7,1.8
			V89h-2.8v-9.7h2.8v1.7C229.8,80.5,230.3,80,230.8,79.7z"/>
		<path class="st7" d="M235.8,92.6c-0.5,0-1-0.1-1.4-0.2c-0.4-0.1-0.8-0.4-1.2-0.7l1.2-2c0.4,0.3,0.8,0.5,1.3,0.5
			c0.6,0,1-0.3,1.3-0.9l0.3-0.5l-4-9.5h2.9l2.5,6.7l2.3-6.7h2.8l-4.2,10.8C238.7,91.8,237.5,92.6,235.8,92.6z"/>
		<path class="st7" d="M246.2,86.7c0.3,0.3,0.4,0.6,0.4,1c0,0.4-0.1,0.8-0.4,1c-0.3,0.3-0.6,0.4-1,0.4c-0.4,0-0.7-0.1-1-0.4
			c-0.3-0.3-0.4-0.6-0.4-1c0-0.4,0.1-0.8,0.4-1c0.3-0.3,0.6-0.4,1-0.4C245.6,86.3,245.9,86.5,246.2,86.7z"/>
		<path class="st7" d="M252.9,76.4h3.2l3.9,7.7l3.9-7.7h3.1V89h-2.6v-8.5l-3.6,7.2h-1.8l-3.6-7.2V89h-2.6V76.4z"/>
		<path class="st7" d="M275.4,89v-1.1c-0.3,0.4-0.7,0.7-1.3,0.9c-0.5,0.2-1.1,0.3-1.8,0.3c-1,0-1.8-0.3-2.4-0.8
			c-0.6-0.6-0.9-1.3-0.9-2.2c0-0.9,0.3-1.6,1-2.1c0.6-0.5,1.6-0.8,2.7-0.8h2.7V83c0-0.5-0.2-0.9-0.5-1.2c-0.3-0.3-0.8-0.4-1.5-0.4
			c-0.9,0-1.9,0.3-2.9,0.8l-0.9-1.9c0.8-0.4,1.5-0.7,2.2-0.8c0.7-0.2,1.4-0.3,2.2-0.3c1.3,0,2.3,0.3,3,0.9c0.7,0.6,1.1,1.5,1.1,2.6
			l0,6.3H275.4z M274.6,86.8c0.4-0.3,0.7-0.6,0.8-1v-0.9h-2.2c-0.5,0-0.9,0.1-1.2,0.3c-0.3,0.2-0.4,0.5-0.4,0.8
			c0,0.4,0.1,0.7,0.4,0.9c0.3,0.2,0.6,0.3,1.1,0.3C273.7,87.2,274.2,87,274.6,86.8z"/>
		<path class="st7" d="M287,89l-2.3-3.9l-1.2,1.3V89h-2.8V75.7h2.8V83l3.5-3.7h3.1l-3.5,3.7l3.7,5.9H287z"/>
		<path class="st7" d="M298.9,80.6c0.8,0.9,1.2,2.2,1.2,3.8c0,0.3,0,0.5,0,0.7h-6.9c0.2,0.6,0.5,1.1,0.9,1.4c0.4,0.3,1,0.5,1.6,0.5
			c0.5,0,0.9-0.1,1.3-0.3c0.4-0.2,0.8-0.4,1.1-0.8l1.5,1.5c-0.5,0.6-1.1,1-1.8,1.3c-0.7,0.3-1.5,0.4-2.3,0.4c-1,0-1.9-0.2-2.7-0.6
			c-0.8-0.4-1.4-1-1.8-1.7c-0.4-0.7-0.6-1.6-0.6-2.6c0-1,0.2-1.9,0.6-2.6s1-1.3,1.8-1.7s1.6-0.6,2.6-0.6
			C296.9,79.2,298.1,79.7,298.9,80.6z M297.5,83.4c0-0.6-0.2-1.1-0.6-1.5c-0.4-0.4-0.9-0.6-1.5-0.6c-0.6,0-1.1,0.2-1.5,0.6
			s-0.7,0.9-0.8,1.5H297.5z"/>
		<path class="st7" d="M310.7,81.5c-0.5-0.2-1-0.2-1.4-0.2c-0.3,0-0.6,0.1-0.8,0.2s-0.3,0.3-0.3,0.5c0,0.3,0.1,0.5,0.4,0.6
			c0.3,0.1,0.7,0.3,1.3,0.5c0.7,0.2,1.2,0.4,1.7,0.6c0.4,0.2,0.8,0.5,1.2,0.9c0.3,0.4,0.5,0.9,0.5,1.5c0,1-0.4,1.7-1.1,2.2
			c-0.7,0.5-1.7,0.8-2.8,0.8c-0.8,0-1.6-0.1-2.3-0.4c-0.7-0.2-1.4-0.6-1.9-1l0.9-1.9c0.5,0.4,1,0.7,1.6,0.9s1.2,0.3,1.7,0.3
			c0.4,0,0.7-0.1,0.9-0.2c0.2-0.1,0.3-0.3,0.3-0.6c0-0.3-0.1-0.5-0.4-0.6c-0.3-0.2-0.7-0.3-1.4-0.5c-0.7-0.2-1.2-0.4-1.6-0.6
			c-0.4-0.2-0.8-0.5-1.1-0.9c-0.3-0.4-0.5-0.9-0.5-1.5c0-1,0.4-1.7,1.1-2.2c0.7-0.5,1.6-0.8,2.7-0.8c0.7,0,1.3,0.1,2,0.3
			c0.7,0.2,1.3,0.5,1.8,0.8l-1,1.9C311.7,81.9,311.2,81.7,310.7,81.5z"/>
		<path class="st7" d="M324.3,79.3V89h-2.8v-1.7c-0.7,1.2-1.7,1.8-3.2,1.8c-1.1,0-1.9-0.3-2.5-1s-0.9-1.6-0.9-2.7v-6.1h2.8v5.3
			c0,0.6,0.2,1.1,0.5,1.4c0.3,0.3,0.8,0.5,1.3,0.5c0.7,0,1.2-0.2,1.6-0.7c0.4-0.5,0.6-1,0.6-1.8v-4.8H324.3z"/>
		<path class="st7" d="M331.1,79.7c0.5-0.3,1.2-0.5,1.9-0.5v2.6c-0.1,0-0.2,0-0.4,0c-0.9,0-1.5,0.2-2,0.7c-0.5,0.5-0.7,1.1-0.7,1.8
			V89H327v-9.7h2.8v1.7C330.1,80.5,330.5,80,331.1,79.7z"/>
		<path class="st7" d="M342.2,80.6c0.8,0.9,1.2,2.2,1.2,3.8c0,0.3,0,0.5,0,0.7h-6.9c0.2,0.6,0.5,1.1,0.9,1.4c0.4,0.3,1,0.5,1.6,0.5
			c0.5,0,0.9-0.1,1.3-0.3c0.4-0.2,0.8-0.4,1.1-0.8l1.5,1.5c-0.5,0.6-1.1,1-1.8,1.3c-0.7,0.3-1.5,0.4-2.3,0.4c-1,0-1.9-0.2-2.7-0.6
			c-0.8-0.4-1.4-1-1.8-1.7c-0.4-0.7-0.6-1.6-0.6-2.6c0-1,0.2-1.9,0.6-2.6s1-1.3,1.8-1.7s1.6-0.6,2.6-0.6
			C340.2,79.2,341.4,79.7,342.2,80.6z M340.8,83.4c0-0.6-0.2-1.1-0.6-1.5c-0.4-0.4-0.9-0.6-1.5-0.6c-0.6,0-1.1,0.2-1.5,0.6
			s-0.7,0.9-0.8,1.5H340.8z"/>
		<path class="st7" d="M350.6,92.6c-0.5,0-1-0.1-1.4-0.2c-0.4-0.1-0.8-0.4-1.2-0.7l1.2-2c0.4,0.3,0.8,0.5,1.3,0.5
			c0.6,0,1-0.3,1.3-0.9l0.3-0.5l-4-9.5h2.9l2.5,6.7l2.3-6.7h2.8l-4.2,10.8C353.5,91.8,352.3,92.6,350.6,92.6z"/>
		<path class="st7" d="M366.3,79.9c0.8,0.4,1.4,1,1.8,1.7c0.4,0.7,0.6,1.6,0.6,2.6c0,1-0.2,1.8-0.6,2.6c-0.4,0.8-1,1.3-1.8,1.7
			c-0.8,0.4-1.7,0.6-2.7,0.6c-1,0-1.9-0.2-2.7-0.6c-0.8-0.4-1.4-1-1.8-1.7c-0.4-0.8-0.6-1.6-0.6-2.6c0-1,0.2-1.8,0.6-2.6
			c0.4-0.7,1-1.3,1.8-1.7c0.8-0.4,1.7-0.6,2.7-0.6C364.6,79.2,365.6,79.5,366.3,79.9z M361.9,82.3c-0.5,0.5-0.7,1.1-0.7,1.9
			s0.2,1.4,0.7,1.9s1,0.7,1.8,0.7c0.7,0,1.3-0.2,1.7-0.7c0.5-0.5,0.7-1.1,0.7-1.9s-0.2-1.4-0.7-1.9c-0.4-0.5-1-0.7-1.7-0.7
			C362.9,81.6,362.3,81.8,361.9,82.3z"/>
		<path class="st7" d="M379.8,79.3V89h-2.8v-1.7c-0.7,1.2-1.7,1.8-3.2,1.8c-1.1,0-1.9-0.3-2.5-1c-0.6-0.7-0.9-1.6-0.9-2.7v-6.1h2.8
			v5.3c0,0.6,0.2,1.1,0.5,1.4c0.3,0.3,0.8,0.5,1.3,0.5c0.7,0,1.2-0.2,1.6-0.7c0.4-0.5,0.6-1,0.6-1.8v-4.8H379.8z"/>
		<path class="st7" d="M390.8,79.7c0.5-0.3,1.2-0.5,1.9-0.5v2.6c-0.1,0-0.2,0-0.4,0c-0.9,0-1.5,0.2-2,0.7s-0.7,1.1-0.7,1.8V89h-2.8
			v-9.7h2.8v1.7C389.8,80.5,390.3,80,390.8,79.7z"/>
		<path class="st7" d="M401.9,80.6c0.8,0.9,1.2,2.2,1.2,3.8c0,0.3,0,0.5,0,0.7h-6.9c0.2,0.6,0.5,1.1,0.9,1.4c0.4,0.3,1,0.5,1.6,0.5
			c0.5,0,0.9-0.1,1.3-0.3c0.4-0.2,0.8-0.4,1.1-0.8l1.5,1.5c-0.5,0.6-1.1,1-1.8,1.3s-1.5,0.4-2.3,0.4c-1,0-1.9-0.2-2.7-0.6
			s-1.3-1-1.8-1.7c-0.4-0.7-0.6-1.6-0.6-2.6c0-1,0.2-1.9,0.6-2.6s1-1.3,1.8-1.7s1.6-0.6,2.6-0.6C399.9,79.2,401.1,79.7,401.9,80.6z
			 M400.5,83.4c0-0.6-0.2-1.1-0.6-1.5s-0.9-0.6-1.5-0.6c-0.6,0-1.1,0.2-1.5,0.6s-0.7,0.9-0.8,1.5H400.5z"/>
		<path class="st7" d="M410.6,89v-1.1c-0.3,0.4-0.7,0.7-1.3,0.9s-1.1,0.3-1.8,0.3c-1,0-1.8-0.3-2.4-0.8c-0.6-0.6-0.9-1.3-0.9-2.2
			c0-0.9,0.3-1.6,1-2.1c0.6-0.5,1.6-0.8,2.7-0.8h2.7V83c0-0.5-0.2-0.9-0.5-1.2c-0.3-0.3-0.8-0.4-1.5-0.4c-0.9,0-1.9,0.3-2.9,0.8
			l-0.9-1.9c0.8-0.4,1.5-0.7,2.2-0.8c0.7-0.2,1.4-0.3,2.2-0.3c1.3,0,2.3,0.3,3,0.9c0.7,0.6,1.1,1.5,1.1,2.6l0,6.3H410.6z
			 M409.8,86.8c0.4-0.3,0.7-0.6,0.8-1v-0.9h-2.2c-0.5,0-0.9,0.1-1.2,0.3s-0.4,0.5-0.4,0.8c0,0.4,0.1,0.7,0.4,0.9
			c0.3,0.2,0.6,0.3,1.1,0.3C408.9,87.2,409.4,87,409.8,86.8z"/>
		<path class="st7" d="M425.3,75.7V89h-2.8v-1.4c-0.3,0.5-0.8,0.9-1.3,1.1c-0.5,0.3-1.1,0.4-1.8,0.4c-0.9,0-1.7-0.2-2.4-0.6
			s-1.2-1-1.6-1.8c-0.4-0.8-0.6-1.6-0.6-2.6c0-1,0.2-1.8,0.6-2.6c0.4-0.7,0.9-1.3,1.6-1.7c0.7-0.4,1.5-0.6,2.4-0.6
			c1.4,0,2.4,0.5,3.1,1.5v-5.1H425.3z M421.8,86.2c0.5-0.5,0.7-1.1,0.7-1.9s-0.2-1.4-0.7-1.9s-1-0.7-1.7-0.7c-0.7,0-1.3,0.2-1.8,0.7
			c-0.5,0.5-0.7,1.1-0.7,1.9c0,0.8,0.2,1.4,0.7,1.9c0.4,0.5,1,0.7,1.8,0.7C420.8,86.9,421.4,86.6,421.8,86.2z"/>
		<path class="st7" d="M167.6,110.1c-0.4,0.2-0.8,0.4-1.2,0.5s-0.9,0.2-1.3,0.2c-0.9,0-1.6-0.3-2.2-0.8c-0.6-0.5-0.8-1.3-0.8-2.2
			v-4.5h-1.4v-1.9h1.4v-2.7h2.8v2.7h2.6v1.9h-2.6v4c0,0.7,0.3,1.1,0.9,1.1c0.4,0,0.9-0.1,1.4-0.4L167.6,110.1z"/>
		<path class="st7" d="M178.1,101.8c0.6,0.7,1,1.6,1,2.7v6.1h-2.8v-5.3c0-0.6-0.2-1.1-0.5-1.4c-0.3-0.4-0.8-0.5-1.4-0.5
			c-0.7,0-1.2,0.2-1.6,0.7s-0.6,1.1-0.6,1.8v4.8h-2.8V97.3h2.8v5.4c0.7-1.2,1.8-1.8,3.3-1.8C176.6,100.8,177.4,101.2,178.1,101.8z"
			/>
		<path class="st7" d="M185.5,101.3c0.5-0.3,1.2-0.5,1.9-0.5v2.6c-0.1,0-0.2,0-0.4,0c-0.9,0-1.5,0.2-2,0.7c-0.5,0.5-0.7,1.1-0.7,1.8
			v4.7h-2.8v-9.7h2.8v1.7C184.5,102.1,185,101.6,185.5,101.3z"/>
		<path class="st7" d="M196,101.5c0.8,0.4,1.4,1,1.8,1.7c0.4,0.7,0.6,1.6,0.6,2.6c0,1-0.2,1.8-0.6,2.6c-0.4,0.8-1,1.3-1.8,1.7
			c-0.8,0.4-1.7,0.6-2.7,0.6c-1,0-1.9-0.2-2.7-0.6c-0.8-0.4-1.4-1-1.8-1.7c-0.4-0.8-0.6-1.6-0.6-2.6c0-1,0.2-1.8,0.6-2.6
			c0.4-0.7,1-1.3,1.8-1.7c0.8-0.4,1.7-0.6,2.7-0.6C194.3,100.8,195.2,101.1,196,101.5z M191.5,103.9c-0.5,0.5-0.7,1.1-0.7,1.9
			s0.2,1.4,0.7,1.9c0.4,0.5,1,0.7,1.8,0.7c0.7,0,1.3-0.2,1.7-0.7c0.5-0.5,0.7-1.1,0.7-1.9s-0.2-1.4-0.7-1.9c-0.4-0.5-1-0.7-1.7-0.7
			C192.6,103.2,192,103.4,191.5,103.9z"/>
		<path class="st7" d="M209.5,100.9v9.7h-2.8v-1.7c-0.7,1.2-1.7,1.8-3.2,1.8c-1.1,0-1.9-0.3-2.5-1c-0.6-0.7-0.9-1.6-0.9-2.7v-6.1
			h2.8v5.3c0,0.6,0.2,1.1,0.5,1.4c0.3,0.3,0.8,0.5,1.3,0.5c0.7,0,1.2-0.2,1.6-0.7c0.4-0.5,0.6-1,0.6-1.8v-4.8H209.5z"/>
		<path class="st7" d="M221.3,100.9v8.8c0,0.9-0.2,1.7-0.6,2.4c-0.4,0.7-1,1.2-1.8,1.6c-0.8,0.4-1.7,0.5-2.7,0.5
			c-0.8,0-1.5-0.1-2.3-0.3s-1.4-0.5-2-0.9l1-1.9c0.9,0.6,1.9,1,3,1c0.8,0,1.4-0.2,1.9-0.6c0.5-0.4,0.7-0.9,0.7-1.6v-1.1
			c-0.3,0.5-0.7,0.8-1.2,1c-0.5,0.2-1.1,0.4-1.7,0.4c-0.8,0-1.6-0.2-2.2-0.6s-1.1-0.9-1.5-1.6c-0.4-0.7-0.5-1.5-0.5-2.4
			c0-0.9,0.2-1.7,0.5-2.4c0.4-0.7,0.9-1.2,1.5-1.6c0.6-0.4,1.4-0.6,2.2-0.6c0.6,0,1.2,0.1,1.7,0.4c0.5,0.2,0.9,0.6,1.2,1v-1.3H221.3
			z M217.9,107.3c0.4-0.5,0.6-1.1,0.6-1.8c0-0.7-0.2-1.3-0.6-1.8c-0.4-0.5-1-0.7-1.6-0.7s-1.2,0.2-1.6,0.7c-0.4,0.5-0.6,1.1-0.6,1.8
			c0,0.7,0.2,1.3,0.6,1.8s1,0.7,1.6,0.7C216.9,108,217.4,107.8,217.9,107.3z"/>
		<path class="st7" d="M232.6,101.8c0.6,0.7,1,1.6,1,2.7v6.1h-2.8v-5.3c0-0.6-0.2-1.1-0.5-1.4c-0.3-0.4-0.8-0.5-1.4-0.5
			c-0.7,0-1.2,0.2-1.6,0.7s-0.6,1.1-0.6,1.8v4.8h-2.8V97.3h2.8v5.4c0.7-1.2,1.8-1.8,3.3-1.8C231.1,100.8,232,101.2,232.6,101.8z"/>
		<path class="st7" d="M246.1,110.1c-0.4,0.2-0.8,0.4-1.2,0.5s-0.9,0.2-1.3,0.2c-0.9,0-1.6-0.3-2.2-0.8c-0.6-0.5-0.8-1.3-0.8-2.2
			v-4.5h-1.4v-1.9h1.4v-2.7h2.8v2.7h2.6v1.9h-2.6v4c0,0.7,0.3,1.1,0.9,1.1c0.4,0,0.9-0.1,1.4-0.4L246.1,110.1z"/>
		<path class="st7" d="M256.6,101.8c0.6,0.7,1,1.6,1,2.7v6.1h-2.8v-5.3c0-0.6-0.2-1.1-0.5-1.4c-0.3-0.4-0.8-0.5-1.4-0.5
			c-0.7,0-1.2,0.2-1.6,0.7s-0.6,1.1-0.6,1.8v4.8h-2.8V97.3h2.8v5.4c0.7-1.2,1.8-1.8,3.3-1.8C255.1,100.8,256,101.2,256.6,101.8z"/>
		<path class="st7" d="M267.7,102.2c0.8,0.9,1.2,2.2,1.2,3.8c0,0.3,0,0.5,0,0.7h-6.9c0.2,0.6,0.5,1.1,0.9,1.4c0.4,0.3,1,0.5,1.6,0.5
			c0.5,0,0.9-0.1,1.3-0.3c0.4-0.2,0.8-0.4,1.1-0.8l1.5,1.5c-0.5,0.6-1.1,1-1.8,1.3c-0.7,0.3-1.5,0.4-2.3,0.4c-1,0-1.9-0.2-2.7-0.6
			c-0.8-0.4-1.4-1-1.8-1.7c-0.4-0.7-0.6-1.6-0.6-2.6c0-1,0.2-1.9,0.6-2.6s1-1.3,1.8-1.7s1.6-0.6,2.6-0.6
			C265.7,100.8,266.9,101.3,267.7,102.2z M266.3,105c0-0.6-0.2-1.1-0.6-1.5c-0.4-0.4-0.9-0.6-1.5-0.6c-0.6,0-1.1,0.2-1.5,0.6
			s-0.7,0.9-0.8,1.5H266.3z"/>
		<path class="st7" d="M280.5,110.6v-1.1c-0.3,0.4-0.7,0.7-1.3,0.9c-0.5,0.2-1.1,0.3-1.8,0.3c-1,0-1.8-0.3-2.4-0.8
			c-0.6-0.6-0.9-1.3-0.9-2.2c0-0.9,0.3-1.6,1-2.1c0.6-0.5,1.6-0.8,2.7-0.8h2.7v-0.2c0-0.5-0.2-0.9-0.5-1.2c-0.3-0.3-0.8-0.4-1.5-0.4
			c-0.9,0-1.9,0.3-2.9,0.8l-0.9-1.9c0.8-0.4,1.5-0.7,2.2-0.8c0.7-0.2,1.4-0.3,2.2-0.3c1.3,0,2.3,0.3,3,0.9c0.7,0.6,1.1,1.5,1.1,2.6
			l0,6.3H280.5z M279.8,108.4c0.4-0.3,0.7-0.6,0.8-1v-0.9h-2.2c-0.5,0-0.9,0.1-1.2,0.3c-0.3,0.2-0.4,0.5-0.4,0.8
			c0,0.4,0.1,0.7,0.4,0.9c0.3,0.2,0.6,0.3,1.1,0.3C278.9,108.8,279.3,108.6,279.8,108.4z"/>
		<path class="st7" d="M294.4,101.8c0.6,0.7,1,1.6,1,2.7v6.1h-2.8v-5.3c0-0.6-0.2-1.1-0.5-1.4c-0.3-0.4-0.8-0.5-1.4-0.5
			c-0.7,0-1.2,0.2-1.6,0.7c-0.4,0.5-0.6,1.1-0.6,1.8v4.8h-2.8v-9.7h2.8v1.7c0.7-1.2,1.8-1.8,3.3-1.8
			C292.9,100.8,293.7,101.2,294.4,101.8z"/>
		<path class="st7" d="M300.2,97.1c0.3,0.3,0.4,0.7,0.4,1.1c0,0.5-0.1,0.8-0.4,1.1c-0.3,0.3-0.6,0.4-1.1,0.4c-0.4,0-0.8-0.1-1.1-0.4
			c-0.3-0.3-0.4-0.7-0.4-1.1c0-0.5,0.1-0.8,0.4-1.1c0.3-0.3,0.6-0.4,1.1-0.4C299.5,96.6,299.9,96.8,300.2,97.1z M297.7,100.9h2.8
			v9.7h-2.8V100.9z"/>
		<path class="st7" d="M318.5,101.8c0.6,0.7,0.9,1.6,0.9,2.7v6.1h-2.8v-5.3c0-0.6-0.2-1.1-0.5-1.5c-0.3-0.3-0.8-0.5-1.4-0.5
			c-0.7,0-1.2,0.2-1.6,0.7c-0.4,0.5-0.6,1-0.6,1.8v4.8h-2.8v-5.3c0-0.6-0.2-1.1-0.5-1.4c-0.3-0.4-0.8-0.5-1.4-0.5
			c-0.7,0-1.2,0.2-1.6,0.7c-0.4,0.5-0.6,1-0.6,1.8v4.8h-2.8v-9.7h2.8v1.7c0.7-1.2,1.8-1.8,3.3-1.8c0.8,0,1.5,0.2,2.1,0.6
			c0.6,0.4,1,0.9,1.2,1.6c0.3-0.7,0.8-1.3,1.4-1.7s1.3-0.6,2.1-0.6C317,100.8,317.9,101.2,318.5,101.8z"/>
		<path class="st7" d="M327.5,110.6v-1.1c-0.3,0.4-0.7,0.7-1.3,0.9c-0.5,0.2-1.1,0.3-1.8,0.3c-1,0-1.8-0.3-2.4-0.8s-0.9-1.3-0.9-2.2
			c0-0.9,0.3-1.6,1-2.1c0.6-0.5,1.6-0.8,2.7-0.8h2.7v-0.2c0-0.5-0.2-0.9-0.5-1.2c-0.3-0.3-0.8-0.4-1.5-0.4c-0.9,0-1.9,0.3-2.9,0.8
			l-0.9-1.9c0.8-0.4,1.5-0.7,2.2-0.8c0.7-0.2,1.4-0.3,2.2-0.3c1.3,0,2.3,0.3,3,0.9c0.7,0.6,1.1,1.5,1.1,2.6l0,6.3H327.5z
			 M326.7,108.4c0.4-0.3,0.7-0.6,0.8-1v-0.9h-2.2c-0.5,0-0.9,0.1-1.2,0.3c-0.3,0.2-0.4,0.5-0.4,0.8c0,0.4,0.1,0.7,0.4,0.9
			c0.3,0.2,0.6,0.3,1.1,0.3C325.8,108.8,326.3,108.6,326.7,108.4z"/>
		<path class="st7" d="M332.7,97.3h2.8v13.4h-2.8V97.3z"/>
		<path class="st7" d="M346,99.7c-0.2,0.2-0.3,0.5-0.3,0.8v0.8h2.3v1.9h-2.3v7.3h-2.8v-7.3h-1.3v-1.9h1.3v-0.9
			c0-0.7,0.2-1.3,0.5-1.8c0.3-0.5,0.7-0.9,1.3-1.1c0.5-0.3,1.1-0.4,1.8-0.4c0.6,0,1.3,0.1,1.9,0.4l-0.4,2.2
			c-0.2-0.1-0.4-0.1-0.6-0.2c-0.2-0.1-0.4-0.1-0.6-0.1C346.5,99.4,346.2,99.5,346,99.7z"/>
		<path class="st7" d="M354.4,110.6v-1.1c-0.3,0.4-0.7,0.7-1.3,0.9c-0.5,0.2-1.1,0.3-1.8,0.3c-1,0-1.8-0.3-2.4-0.8s-0.9-1.3-0.9-2.2
			c0-0.9,0.3-1.6,1-2.1c0.6-0.5,1.6-0.8,2.7-0.8h2.7v-0.2c0-0.5-0.2-0.9-0.5-1.2c-0.3-0.3-0.8-0.4-1.5-0.4c-0.9,0-1.9,0.3-2.9,0.8
			l-0.9-1.9c0.8-0.4,1.5-0.7,2.2-0.8c0.7-0.2,1.4-0.3,2.2-0.3c1.3,0,2.3,0.3,3,0.9c0.7,0.6,1.1,1.5,1.1,2.6l0,6.3H354.4z
			 M353.6,108.4c0.4-0.3,0.7-0.6,0.8-1v-0.9h-2.2c-0.5,0-0.9,0.1-1.2,0.3c-0.3,0.2-0.4,0.5-0.4,0.8c0,0.4,0.1,0.7,0.4,0.9
			c0.3,0.2,0.6,0.3,1.1,0.3C352.7,108.8,353.2,108.6,353.6,108.4z"/>
		<path class="st7" d="M363.8,103.2c-0.7,0-1.3,0.2-1.7,0.7c-0.4,0.5-0.7,1.1-0.7,1.9c0,0.8,0.2,1.4,0.6,1.9c0.4,0.5,1,0.7,1.7,0.7
			c1,0,1.8-0.4,2.3-1.1l1.9,1.3c-0.4,0.7-1,1.2-1.7,1.6s-1.6,0.6-2.6,0.6c-1,0-1.8-0.2-2.6-0.6s-1.3-1-1.7-1.7
			c-0.4-0.7-0.6-1.6-0.6-2.6c0-1,0.2-1.9,0.6-2.6s1-1.3,1.7-1.7s1.6-0.6,2.6-0.6c0.9,0,1.7,0.2,2.5,0.5c0.7,0.4,1.3,0.9,1.7,1.5
			l-1.9,1.4C365.4,103.5,364.7,103.2,363.8,103.2z"/>
		<path class="st7" d="M375.6,110.1c-0.4,0.2-0.8,0.4-1.2,0.5c-0.4,0.1-0.9,0.2-1.3,0.2c-0.9,0-1.6-0.3-2.2-0.8
			c-0.6-0.5-0.8-1.3-0.8-2.2v-4.5h-1.3v-1.9h1.3v-2.7h2.8v2.7h2.6v1.9h-2.6v4c0,0.7,0.3,1.1,0.9,1.1c0.4,0,0.9-0.1,1.4-0.4
			L375.6,110.1z"/>
		<path class="st7" d="M381.8,103.1c-0.5-0.2-1-0.2-1.4-0.2c-0.3,0-0.6,0.1-0.8,0.2c-0.2,0.1-0.3,0.3-0.3,0.5c0,0.3,0.1,0.5,0.4,0.6
			c0.3,0.1,0.7,0.3,1.3,0.5c0.7,0.2,1.2,0.4,1.7,0.6c0.4,0.2,0.8,0.5,1.2,0.9c0.3,0.4,0.5,0.9,0.5,1.5c0,1-0.4,1.7-1.1,2.2
			c-0.7,0.5-1.7,0.8-2.8,0.8c-0.8,0-1.6-0.1-2.3-0.4c-0.7-0.2-1.4-0.6-1.9-1l0.9-1.9c0.5,0.4,1,0.7,1.6,0.9c0.6,0.2,1.2,0.3,1.7,0.3
			c0.4,0,0.7-0.1,0.9-0.2s0.3-0.3,0.3-0.6c0-0.3-0.1-0.5-0.4-0.6c-0.3-0.2-0.7-0.3-1.4-0.5c-0.7-0.2-1.2-0.4-1.6-0.6
			c-0.4-0.2-0.8-0.5-1.1-0.9c-0.3-0.4-0.5-0.9-0.5-1.5c0-1,0.4-1.7,1.1-2.2c0.7-0.5,1.6-0.8,2.7-0.8c0.7,0,1.3,0.1,2,0.3
			c0.7,0.2,1.3,0.5,1.8,0.8l-1,1.9C382.9,103.5,382.4,103.3,381.8,103.1z"/>
		<path class="st7" d="M396.1,110.6v-1.1c-0.3,0.4-0.7,0.7-1.3,0.9s-1.1,0.3-1.8,0.3c-1,0-1.8-0.3-2.4-0.8c-0.6-0.6-0.9-1.3-0.9-2.2
			c0-0.9,0.3-1.6,1-2.1c0.6-0.5,1.6-0.8,2.7-0.8h2.7v-0.2c0-0.5-0.2-0.9-0.5-1.2c-0.3-0.3-0.8-0.4-1.5-0.4c-0.9,0-1.9,0.3-2.9,0.8
			l-0.9-1.9c0.8-0.4,1.5-0.7,2.2-0.8c0.7-0.2,1.4-0.3,2.2-0.3c1.3,0,2.3,0.3,3,0.9c0.7,0.6,1.1,1.5,1.1,2.6l0,6.3H396.1z
			 M395.3,108.4c0.4-0.3,0.7-0.6,0.8-1v-0.9h-2.2c-0.5,0-0.9,0.1-1.2,0.3s-0.4,0.5-0.4,0.8c0,0.4,0.1,0.7,0.4,0.9
			c0.3,0.2,0.6,0.3,1.1,0.3C394.4,108.8,394.9,108.6,395.3,108.4z"/>
		<path class="st7" d="M410.3,100.9v8.8c0,0.9-0.2,1.7-0.6,2.4c-0.4,0.7-1,1.2-1.8,1.6c-0.8,0.4-1.7,0.5-2.7,0.5
			c-0.8,0-1.5-0.1-2.3-0.3s-1.4-0.5-2-0.9l1-1.9c0.9,0.6,1.9,1,3,1c0.8,0,1.4-0.2,1.9-0.6c0.5-0.4,0.7-0.9,0.7-1.6v-1.1
			c-0.3,0.5-0.7,0.8-1.2,1c-0.5,0.2-1.1,0.4-1.7,0.4c-0.8,0-1.6-0.2-2.2-0.6s-1.1-0.9-1.5-1.6c-0.4-0.7-0.5-1.5-0.5-2.4
			c0-0.9,0.2-1.7,0.5-2.4c0.4-0.7,0.9-1.2,1.5-1.6c0.6-0.4,1.4-0.6,2.2-0.6c0.6,0,1.2,0.1,1.7,0.4c0.5,0.2,0.9,0.6,1.2,1v-1.3H410.3
			z M406.9,107.3c0.4-0.5,0.6-1.1,0.6-1.8c0-0.7-0.2-1.3-0.6-1.8c-0.4-0.5-1-0.7-1.6-0.7s-1.2,0.2-1.6,0.7c-0.4,0.5-0.6,1.1-0.6,1.8
			c0,0.7,0.2,1.3,0.6,1.8s1,0.7,1.6,0.7C406,108,406.5,107.8,406.9,107.3z"/>
		<path class="st7" d="M418.5,110.6v-1.1c-0.3,0.4-0.7,0.7-1.3,0.9s-1.1,0.3-1.8,0.3c-1,0-1.8-0.3-2.4-0.8c-0.6-0.6-0.9-1.3-0.9-2.2
			c0-0.9,0.3-1.6,1-2.1c0.6-0.5,1.6-0.8,2.7-0.8h2.7v-0.2c0-0.5-0.2-0.9-0.5-1.2c-0.3-0.3-0.8-0.4-1.5-0.4c-0.9,0-1.9,0.3-2.9,0.8
			l-0.9-1.9c0.8-0.4,1.5-0.7,2.2-0.8c0.7-0.2,1.4-0.3,2.2-0.3c1.3,0,2.3,0.3,3,0.9c0.7,0.6,1.1,1.5,1.1,2.6l0,6.3H418.5z
			 M417.7,108.4c0.4-0.3,0.7-0.6,0.8-1v-0.9h-2.2c-0.5,0-0.9,0.1-1.2,0.3s-0.4,0.5-0.4,0.8c0,0.4,0.1,0.7,0.4,0.9
			c0.3,0.2,0.6,0.3,1.1,0.3C416.8,108.8,417.3,108.6,417.7,108.4z"/>
		<path class="st7" d="M426,97.1c0.3,0.3,0.4,0.7,0.4,1.1c0,0.5-0.1,0.8-0.4,1.1c-0.3,0.3-0.6,0.4-1.1,0.4c-0.4,0-0.8-0.1-1.1-0.4
			c-0.3-0.3-0.4-0.7-0.4-1.1c0-0.5,0.1-0.8,0.4-1.1c0.3-0.3,0.6-0.4,1.1-0.4C425.4,96.6,425.7,96.8,426,97.1z M423.6,100.9h2.8v9.7
			h-2.8V100.9z"/>
		<path class="st7" d="M437.7,101.8c0.6,0.7,1,1.6,1,2.7v6.1h-2.8v-5.3c0-0.6-0.2-1.1-0.5-1.4c-0.3-0.4-0.8-0.5-1.4-0.5
			c-0.7,0-1.2,0.2-1.6,0.7s-0.6,1.1-0.6,1.8v4.8H429v-9.7h2.8v1.7c0.7-1.2,1.8-1.8,3.3-1.8C436.2,100.8,437.1,101.2,437.7,101.8z"/>
		<path class="st7" d="M200,123.1c0.7,0.4,1.2,1,1.6,1.8c0.4,0.8,0.6,1.6,0.6,2.6c0,1-0.2,1.8-0.6,2.6c-0.4,0.7-0.9,1.3-1.6,1.7
			c-0.7,0.4-1.5,0.6-2.4,0.6c-0.7,0-1.3-0.1-1.8-0.4c-0.5-0.3-1-0.6-1.3-1.1v1.4h-2.8v-13.4h2.8v5.1c0.3-0.5,0.8-0.9,1.3-1.1
			s1.1-0.4,1.8-0.4C198.5,122.4,199.3,122.7,200,123.1z M198.7,129.3c0.4-0.5,0.7-1.1,0.7-1.9c0-0.8-0.2-1.4-0.7-1.9s-1-0.7-1.7-0.7
			s-1.3,0.2-1.7,0.7c-0.5,0.5-0.7,1.1-0.7,1.9c0,0.8,0.2,1.5,0.7,1.9c0.4,0.5,1,0.7,1.7,0.7S198.3,129.8,198.7,129.3z"/>
		<path class="st7" d="M211.7,123.8c0.8,0.9,1.2,2.2,1.2,3.8c0,0.3,0,0.5,0,0.7H206c0.2,0.6,0.5,1.1,0.9,1.4c0.4,0.3,1,0.5,1.6,0.5
			c0.5,0,0.9-0.1,1.3-0.3c0.4-0.2,0.8-0.4,1.1-0.8l1.5,1.5c-0.5,0.6-1.1,1-1.8,1.3c-0.7,0.3-1.5,0.4-2.3,0.4c-1,0-1.9-0.2-2.7-0.6
			c-0.8-0.4-1.4-1-1.8-1.7c-0.4-0.7-0.6-1.6-0.6-2.6c0-1,0.2-1.9,0.6-2.6s1-1.3,1.8-1.7s1.6-0.6,2.6-0.6
			C209.7,122.4,210.9,122.9,211.7,123.8z M210.3,126.6c0-0.6-0.2-1.1-0.6-1.5c-0.4-0.4-0.9-0.6-1.5-0.6c-0.6,0-1.1,0.2-1.5,0.6
			s-0.7,0.9-0.8,1.5H210.3z"/>
		<path class="st7" d="M218.2,121.3c-0.2,0.2-0.3,0.5-0.3,0.8v0.8h2.3v1.9h-2.3v7.3h-2.8v-7.3h-1.3V123h1.3v-0.9
			c0-0.7,0.2-1.3,0.5-1.8c0.3-0.5,0.7-0.9,1.3-1.1s1.1-0.4,1.8-0.4c0.6,0,1.3,0.1,1.9,0.4l-0.4,2.2c-0.2-0.1-0.4-0.1-0.6-0.2
			c-0.2-0.1-0.4-0.1-0.6-0.1C218.7,121,218.5,121.1,218.2,121.3z"/>
		<path class="st7" d="M228.4,123.1c0.8,0.4,1.4,1,1.8,1.7c0.4,0.7,0.6,1.6,0.6,2.6c0,1-0.2,1.8-0.6,2.6c-0.4,0.8-1,1.3-1.8,1.7
			c-0.8,0.4-1.7,0.6-2.7,0.6c-1,0-1.9-0.2-2.7-0.6c-0.8-0.4-1.4-1-1.8-1.7c-0.4-0.8-0.6-1.6-0.6-2.6c0-1,0.2-1.8,0.6-2.6
			c0.4-0.7,1-1.3,1.8-1.7c0.8-0.4,1.7-0.6,2.7-0.6C226.7,122.4,227.6,122.7,228.4,123.1z M223.9,125.5c-0.5,0.5-0.7,1.1-0.7,1.9
			s0.2,1.4,0.7,1.9c0.4,0.5,1,0.7,1.8,0.7c0.7,0,1.3-0.2,1.7-0.7c0.5-0.5,0.7-1.1,0.7-1.9s-0.2-1.4-0.7-1.9c-0.4-0.5-1-0.7-1.7-0.7
			C225,124.8,224.4,125,223.9,125.5z"/>
		<path class="st7" d="M236.8,122.9c0.5-0.3,1.2-0.5,1.9-0.5v2.6c-0.1,0-0.2,0-0.4,0c-0.9,0-1.5,0.2-2,0.7c-0.5,0.5-0.7,1.1-0.7,1.8
			v4.7h-2.8v-9.7h2.8v1.7C235.8,123.7,236.2,123.2,236.8,122.9z"/>
		<path class="st7" d="M247.9,123.8c0.8,0.9,1.2,2.2,1.2,3.8c0,0.3,0,0.5,0,0.7h-6.9c0.2,0.6,0.5,1.1,0.9,1.4c0.4,0.3,1,0.5,1.6,0.5
			c0.5,0,0.9-0.1,1.3-0.3c0.4-0.2,0.8-0.4,1.1-0.8l1.5,1.5c-0.5,0.6-1.1,1-1.8,1.3c-0.7,0.3-1.5,0.4-2.3,0.4c-1,0-1.9-0.2-2.7-0.6
			c-0.8-0.4-1.4-1-1.8-1.7c-0.4-0.7-0.6-1.6-0.6-2.6c0-1,0.2-1.9,0.6-2.6s1-1.3,1.8-1.7s1.6-0.6,2.6-0.6
			C245.9,122.4,247.1,122.9,247.9,123.8z M246.5,126.6c0-0.6-0.2-1.1-0.6-1.5c-0.4-0.4-0.9-0.6-1.5-0.6c-0.6,0-1.1,0.2-1.5,0.6
			s-0.7,0.9-0.8,1.5H246.5z"/>
		<path class="st7" d="M259.2,122.9c0.5-0.3,1.2-0.5,1.9-0.5v2.6c-0.1,0-0.2,0-0.4,0c-0.9,0-1.5,0.2-2,0.7c-0.5,0.5-0.7,1.1-0.7,1.8
			v4.7h-2.8v-9.7h2.8v1.7C258.3,123.7,258.7,123.2,259.2,122.9z"/>
		<path class="st7" d="M270.3,123.8c0.8,0.9,1.2,2.2,1.2,3.8c0,0.3,0,0.5,0,0.7h-6.9c0.2,0.6,0.5,1.1,0.9,1.4c0.4,0.3,1,0.5,1.6,0.5
			c0.5,0,0.9-0.1,1.3-0.3c0.4-0.2,0.8-0.4,1.1-0.8l1.5,1.5c-0.5,0.6-1.1,1-1.8,1.3c-0.7,0.3-1.5,0.4-2.3,0.4c-1,0-1.9-0.2-2.7-0.6
			c-0.8-0.4-1.4-1-1.8-1.7c-0.4-0.7-0.6-1.6-0.6-2.6c0-1,0.2-1.9,0.6-2.6s1-1.3,1.8-1.7s1.6-0.6,2.6-0.6
			C268.4,122.4,269.5,122.9,270.3,123.8z M269,126.6c0-0.6-0.2-1.1-0.6-1.5c-0.4-0.4-0.9-0.6-1.5-0.6c-0.6,0-1.1,0.2-1.5,0.6
			s-0.7,0.9-0.8,1.5H269z"/>
		<path class="st7" d="M279.4,131.7c-0.4,0.2-0.8,0.4-1.2,0.5s-0.9,0.2-1.3,0.2c-0.9,0-1.6-0.3-2.2-0.8c-0.6-0.5-0.8-1.3-0.8-2.2
			v-4.5h-1.4V123h1.4v-2.7h2.8v2.7h2.6v1.9h-2.6v4c0,0.7,0.3,1.1,0.9,1.1c0.4,0,0.9-0.1,1.4-0.4L279.4,131.7z"/>
		<path class="st7" d="M285.1,122.9c0.5-0.3,1.2-0.5,1.9-0.5v2.6c-0.1,0-0.2,0-0.4,0c-0.9,0-1.5,0.2-2,0.7c-0.5,0.5-0.7,1.1-0.7,1.8
			v4.7H281v-9.7h2.8v1.7C284.2,123.7,284.6,123.2,285.1,122.9z"/>
		<path class="st7" d="M290.1,135.8c-0.5,0-1-0.1-1.4-0.2c-0.4-0.1-0.8-0.4-1.2-0.7l1.2-2c0.4,0.3,0.8,0.5,1.3,0.5
			c0.6,0,1-0.3,1.3-0.9l0.3-0.5l-4-9.5h2.9l2.5,6.7l2.3-6.7h2.8l-4.2,10.8C293,135,291.8,135.8,290.1,135.8z"/>
		<path class="st7" d="M301.6,118.7c0.3,0.3,0.4,0.7,0.4,1.1c0,0.5-0.1,0.8-0.4,1.1s-0.6,0.4-1.1,0.4c-0.4,0-0.8-0.1-1.1-0.4
			c-0.3-0.3-0.4-0.7-0.4-1.1c0-0.5,0.1-0.8,0.4-1.1c0.3-0.3,0.6-0.4,1.1-0.4C300.9,118.2,301.3,118.4,301.6,118.7z M299.1,122.5h2.8
			v9.7h-2.8V122.5z"/>
		<path class="st7" d="M313.3,123.4c0.6,0.7,1,1.6,1,2.7v6.1h-2.8v-5.3c0-0.6-0.2-1.1-0.5-1.4c-0.3-0.4-0.8-0.5-1.4-0.5
			c-0.7,0-1.2,0.2-1.6,0.7s-0.6,1.1-0.6,1.8v4.8h-2.8v-9.7h2.8v1.7c0.7-1.2,1.8-1.8,3.3-1.8C311.8,122.4,312.6,122.8,313.3,123.4z"
			/>
		<path class="st7" d="M325.7,122.5v8.8c0,0.9-0.2,1.7-0.6,2.4c-0.4,0.7-1,1.2-1.8,1.6s-1.7,0.5-2.7,0.5c-0.8,0-1.5-0.1-2.3-0.3
			s-1.4-0.5-2-0.9l1-1.9c0.9,0.6,1.9,1,3,1c0.8,0,1.4-0.2,1.9-0.6c0.5-0.4,0.7-0.9,0.7-1.6v-1.1c-0.3,0.5-0.7,0.8-1.2,1
			c-0.5,0.2-1.1,0.4-1.7,0.4c-0.8,0-1.6-0.2-2.2-0.6s-1.1-0.9-1.5-1.6c-0.4-0.7-0.5-1.5-0.5-2.4c0-0.9,0.2-1.7,0.5-2.4
			s0.9-1.2,1.5-1.6c0.6-0.4,1.4-0.6,2.2-0.6c0.6,0,1.2,0.1,1.7,0.4c0.5,0.2,0.9,0.6,1.2,1v-1.3H325.7z M322.3,128.9
			c0.4-0.5,0.6-1.1,0.6-1.8c0-0.7-0.2-1.3-0.6-1.8c-0.4-0.5-1-0.7-1.6-0.7s-1.2,0.2-1.6,0.7c-0.4,0.5-0.6,1.1-0.6,1.8
			c0,0.7,0.2,1.3,0.6,1.8s1,0.7,1.6,0.7C321.3,129.6,321.9,129.4,322.3,128.9z"/>
		<path class="st7" d="M338.4,131.7c-0.4,0.2-0.8,0.4-1.2,0.5s-0.9,0.2-1.3,0.2c-0.9,0-1.6-0.3-2.2-0.8c-0.6-0.5-0.8-1.3-0.8-2.2
			v-4.5h-1.3V123h1.3v-2.7h2.8v2.7h2.6v1.9h-2.6v4c0,0.7,0.3,1.1,0.9,1.1c0.4,0,0.9-0.1,1.3-0.4L338.4,131.7z"/>
		<path class="st7" d="M348.9,123.4c0.6,0.7,1,1.6,1,2.7v6.1h-2.8v-5.3c0-0.6-0.2-1.1-0.5-1.4c-0.3-0.4-0.8-0.5-1.4-0.5
			c-0.7,0-1.2,0.2-1.6,0.7s-0.6,1.1-0.6,1.8v4.8h-2.8v-13.4h2.8v5.4c0.7-1.2,1.8-1.8,3.3-1.8C347.4,122.4,348.3,122.8,348.9,123.4z"
			/>
		<path class="st7" d="M360,123.8c0.8,0.9,1.2,2.2,1.2,3.8c0,0.3,0,0.5,0,0.7h-6.9c0.2,0.6,0.5,1.1,0.9,1.4c0.4,0.3,1,0.5,1.6,0.5
			c0.5,0,0.9-0.1,1.3-0.3c0.4-0.2,0.8-0.4,1.1-0.8l1.5,1.5c-0.5,0.6-1.1,1-1.8,1.3c-0.7,0.3-1.5,0.4-2.3,0.4c-1,0-1.9-0.2-2.7-0.6
			s-1.3-1-1.8-1.7c-0.4-0.7-0.6-1.6-0.6-2.6c0-1,0.2-1.9,0.6-2.6s1-1.3,1.8-1.7s1.6-0.6,2.6-0.6C358,122.4,359.2,122.9,360,123.8z
			 M358.6,126.6c0-0.6-0.2-1.1-0.6-1.5c-0.4-0.4-0.9-0.6-1.5-0.6c-0.6,0-1.1,0.2-1.5,0.6c-0.4,0.4-0.7,0.9-0.8,1.5H358.6z"/>
		<path class="st7" d="M376.8,122.5v13.2H374v-4.9c-0.3,0.5-0.8,0.9-1.3,1.1c-0.5,0.3-1.1,0.4-1.8,0.4c-0.9,0-1.7-0.2-2.4-0.6
			s-1.2-1-1.6-1.8c-0.4-0.8-0.6-1.6-0.6-2.6c0-1,0.2-1.8,0.6-2.6c0.4-0.7,0.9-1.3,1.6-1.7c0.7-0.4,1.5-0.6,2.4-0.6
			c1.4,0,2.4,0.5,3.1,1.5v-1.4H376.8z M373.3,129.4c0.5-0.5,0.7-1.1,0.7-1.9s-0.2-1.4-0.7-1.9c-0.4-0.5-1-0.7-1.7-0.7
			c-0.7,0-1.3,0.2-1.8,0.7c-0.4,0.5-0.7,1.1-0.7,1.9c0,0.8,0.2,1.4,0.7,1.9c0.5,0.5,1,0.7,1.8,0.7
			C372.3,130.1,372.9,129.8,373.3,129.4z"/>
		<path class="st7" d="M388.7,122.5v9.7H386v-1.7c-0.7,1.2-1.7,1.8-3.2,1.8c-1.1,0-1.9-0.3-2.5-1c-0.6-0.7-0.9-1.6-0.9-2.7v-6.1h2.8
			v5.3c0,0.6,0.2,1.1,0.5,1.4c0.3,0.3,0.8,0.5,1.3,0.5c0.7,0,1.2-0.2,1.6-0.7s0.6-1,0.6-1.8v-4.8H388.7z"/>
		<path class="st7" d="M393.9,118.7c0.3,0.3,0.4,0.7,0.4,1.1c0,0.5-0.1,0.8-0.4,1.1s-0.6,0.4-1.1,0.4c-0.4,0-0.8-0.1-1.1-0.4
			s-0.4-0.7-0.4-1.1c0-0.5,0.1-0.8,0.4-1.1s0.6-0.4,1.1-0.4C393.2,118.2,393.6,118.4,393.9,118.7z M391.4,122.5h2.8v9.7h-2.8V122.5z
			"/>
		<path class="st7" d="M396.4,122.6h8.3v1.7l-5,5.7h5.1v2.2l-8.6,0v-1.7l5-5.7l-4.8,0V122.6z"/>
		<path class="st7" d="M408.5,129.9c0.3,0.3,0.4,0.6,0.4,1c0,0.4-0.1,0.8-0.4,1c-0.3,0.3-0.6,0.4-1,0.4c-0.4,0-0.7-0.1-1-0.4
			c-0.3-0.3-0.4-0.6-0.4-1c0-0.4,0.1-0.8,0.4-1s0.6-0.4,1-0.4C407.9,129.5,408.2,129.7,408.5,129.9z"/>
	</g>
</g>
</svg>
