<svg xmlns="http://www.w3.org/2000/svg" xmlns:xlink="http://www.w3.org/1999/xlink" viewBox="0 0 320 640"><defs><style>.cls-1{fill:url(#radial-gradient);}.cls-2{font-size:29px;}.cls-2,.cls-21,.cls-5{fill:#fff;}.cls-2,.cls-5{font-family:Montserrat-Bold, Montserrat;font-weight:700;}.cls-3{letter-spacing:-0.01em;}.cls-4{letter-spacing:0.02em;}.cls-5{font-size:20px;}.cls-6{letter-spacing:-0.01em;}.cls-7{letter-spacing:0.01em;}.cls-8{letter-spacing:-0.03em;}.cls-9{letter-spacing:-0.02em;}.cls-10{letter-spacing:-0.01em;}.cls-11{letter-spacing:-0.01em;}.cls-12{letter-spacing:0.01em;}.cls-13{letter-spacing:-0.01em;}.cls-14{letter-spacing:0.01em;}.cls-15{letter-spacing:0em;}.cls-16{letter-spacing:0.02em;}.cls-17{letter-spacing:0.01em;}.cls-18{fill:#f1f2f2;}.cls-19{fill:none;stroke:#a7a9ac;stroke-miterlimit:10;}.cls-20{fill:#231f20;}</style><radialGradient id="radial-gradient" cx="160" cy="320" r="252.98" gradientUnits="userSpaceOnUse"><stop offset="0" stop-color="#59afc5"/><stop offset="0.23" stop-color="#4aa8c0"/><stop offset="0.66" stop-color="#2396b2"/><stop offset="1" stop-color="#0085a6"/></radialGradient></defs><title>Asset 38</title><g id="Layer_2" data-name="Layer 2"><g id="Amazon_Environment" data-name="Amazon Environment"><rect class="cls-1" width="320" height="640"/><text class="cls-2" transform="translate(86.23 435.63)">ALMO<tspan class="cls-3" x="91.9" y="0">S</tspan><tspan class="cls-4" x="110.11" y="0">T</tspan><tspan x="128.61" y="0">!</tspan></text><text class="cls-5" transform="translate(38.97 473.98)">Ni<tspan class="cls-6" x="22.18" y="0">c</tspan><tspan x="33.86" y="0">e t</tspan><tspan class="cls-7" x="60.84" y="0">r</tspan><tspan class="cls-8" x="69.76" y="0">y</tspan><tspan x="81.08" y="0">. Ma</tspan><tspan class="cls-9" x="123.42" y="0">k</tspan><tspan x="136.16" y="0">e su</tspan><tspan class="cls-10" x="178.8" y="0">r</tspan><tspan x="187.24" y="0">e </tspan><tspan class="cls-11" x="205.52" y="0">y</tspan><tspan x="217.18" y="0">ou </tspan><tspan class="cls-10" x="-6.21" y="24">r</tspan><tspan class="cls-11" x="2.23" y="24">e</tspan><tspan class="cls-12" x="14.55" y="24">a</tspan><tspan x="27.01" y="24">d th</tspan><tspan class="cls-10" x="69.03" y="24">r</tspan><tspan x="77.47" y="24">ough t</tspan><tspan class="cls-12" x="146.49" y="24">h</tspan><tspan x="160.43" y="24">e animal </tspan><tspan class="cls-13" x="-17.84" y="48">f</tspan><tspan class="cls-12" x="-10.3" y="48">a</tspan><tspan class="cls-14" x="2.16" y="48">c</tspan><tspan x="14.14" y="48">ts </tspan><tspan class="cls-12" x="39.12" y="48">a</tspan><tspan x="51.58" y="48">gain be</tspan><tspan class="cls-6" x="129.84" y="48">f</tspan><tspan x="137.44" y="48">o</tspan><tspan class="cls-10" x="150.54" y="48">r</tspan><tspan class="cls-15" x="158.98" y="48">e </tspan><tspan class="cls-10" x="177.26" y="48">r</tspan><tspan x="185.7" y="48">et</tspan><tspan class="cls-16" x="207.02" y="48">r</tspan><tspan x="215.94" y="48">yi</tspan><tspan class="cls-17" x="233.92" y="48">n</tspan><tspan x="247.86" y="48">g </tspan><tspan x="76.66" y="72">t</tspan><tspan class="cls-12" x="85.36" y="72">h</tspan><tspan x="99.3" y="72">e qui</tspan><tspan class="cls-12" x="151.14" y="72">z</tspan><tspan x="162.12" y="72">.</tspan></text><g id="Beluga"><path class="cls-18" d="M128.56,107.4c-25.7,21.7-36.8,45.7-36.8,45.7-17.5,40-26.5,91,13,164.5,18,25,27,31,27,31s-16,36,11,50c0,0,20-14,11.5-41,0,0,36.5,16.5,46-8.5,0,0-9-17.5-38.5-12,0,0-19.5-36,15-69,0,0,59.8-44.7,28.5-105.3,0,0,9.2-4.7,11-12.2,0,0,5.8,2.2,10-4s-3.8-10-.2-17,14-43-27.2-53.8S128.56,107.4,128.56,107.4Z"/><path class="cls-19" d="M133.76,178.6s-49.7,35.2-36.7,52,55.2-15,55.2-15"/><path class="cls-19" d="M163,147.6s18.8,12.2,41-4c0,0,3.2,4.7,12.2,7"/><path class="cls-19" d="M159.06,162.1s26.2,13.5,46.2.7"/><ellipse class="cls-20" cx="168.26" cy="115" rx="5.8" ry="8.4"/><ellipse class="cls-21" cx="167.16" cy="113.4" rx="1.8" ry="2.7"/><ellipse class="cls-20" cx="213.76" cy="115" rx="5.8" ry="8.4"/><ellipse class="cls-21" cx="212.66" cy="113.4" rx="1.8" ry="2.7"/></g><path class="cls-18" d="M174.16,104.6s-8.38,10.62-16.88,10.37C157.28,115,161.28,103,174.16,104.6Z"/><path class="cls-18" d="M208,104.6s8.38,10.62,16.88,10.37C224.91,115,220.91,103,208,104.6Z"/></g></g></svg>