<svg xmlns="http://www.w3.org/2000/svg" xmlns:xlink="http://www.w3.org/1999/xlink" viewBox="0 0 320 640"><defs><style>.cls-1{fill:url(#radial-gradient);}.cls-2{font-size:29px;}.cls-2,.cls-21,.cls-3{fill:#fff;}.cls-2,.cls-3{font-family:Montserrat-Bold, Montserrat;font-weight:700;}.cls-3{font-size:20px;}.cls-4{letter-spacing:0em;}.cls-5{letter-spacing:-0.02em;}.cls-6{letter-spacing:-0.02em;}.cls-7{letter-spacing:-0.01em;}.cls-8{letter-spacing:0.01em;}.cls-9{letter-spacing:-0.02em;}.cls-10{letter-spacing:0.01em;}.cls-11{letter-spacing:-0.01em;}.cls-12{letter-spacing:-0.01em;}.cls-13{letter-spacing:0.01em;}.cls-14{letter-spacing:-0.01em;}.cls-15{letter-spacing:-0.01em;}.cls-16{letter-spacing:0em;}.cls-17{letter-spacing:0.02em;}.cls-18{fill:#d1d3d4;}.cls-19{fill:#e6e7e8;}.cls-20{fill:#231f20;}.cls-22,.cls-23{fill:none;stroke-miterlimit:10;stroke-width:1.65px;}.cls-22{stroke:#d1d3d4;}.cls-23{stroke:#231f20;}</style><radialGradient id="radial-gradient" cx="160" cy="320" r="252.98" gradientUnits="userSpaceOnUse"><stop offset="0" stop-color="#59afc5"/><stop offset="0.23" stop-color="#4aa8c0"/><stop offset="0.66" stop-color="#2396b2"/><stop offset="1" stop-color="#0085a6"/></radialGradient></defs><title>Asset 36</title><g id="Layer_2" data-name="Layer 2"><g id="Amazon_Environment" data-name="Amazon Environment"><rect class="cls-1" width="320" height="640"/><text class="cls-2" transform="translate(100.71 439.38)">UH OH!</text><text class="cls-3" transform="translate(28.72 477.73)"><tspan class="cls-4">L</tspan><tspan x="12" y="0">oo</tspan><tspan class="cls-5" x="38.2" y="0">k</tspan><tspan x="51.04" y="0">s li</tspan><tspan class="cls-6" x="79.36" y="0">k</tspan><tspan x="92.1" y="0">e </tspan><tspan class="cls-7" x="110.38" y="0">y</tspan><tspan x="122.04" y="0">ou </tspan><tspan class="cls-8" x="154.54" y="0">n</tspan><tspan x="168.48" y="0">eed </tspan><tspan class="cls-9" x="213.22" y="0">t</tspan><tspan x="221.58" y="0">o do </tspan><tspan x="7.43" y="24">so</tspan><tspan class="cls-10" x="31.15" y="24">m</tspan><tspan x="52.25" y="24">e </tspan><tspan class="cls-11" x="70.53" y="24">r</tspan><tspan class="cls-12" x="78.97" y="24">e</tspan><tspan x="91.39" y="24">vi</tspan><tspan class="cls-12" x="109.37" y="24">e</tspan><tspan x="121.79" y="24">w! Ma</tspan><tspan class="cls-6" x="183.41" y="24">k</tspan><tspan x="196.15" y="24">e su</tspan><tspan class="cls-11" x="238.79" y="24">r</tspan><tspan x="247.23" y="24">e </tspan><tspan class="cls-7" x="-6.68" y="48">y</tspan><tspan x="4.98" y="48">ou go th</tspan><tspan class="cls-11" x="92.76" y="48">r</tspan><tspan x="101.2" y="48">ough t</tspan><tspan class="cls-10" x="170.22" y="48">h</tspan><tspan x="184.16" y="48">e animal </tspan><tspan class="cls-12" x="-6.21" y="72">f</tspan><tspan class="cls-10" x="1.33" y="72">a</tspan><tspan class="cls-13" x="13.79" y="72">c</tspan><tspan x="25.77" y="72">ts </tspan><tspan class="cls-10" x="50.75" y="72">a</tspan><tspan x="63.21" y="72">gain be</tspan><tspan class="cls-14" x="141.47" y="72">f</tspan><tspan x="149.07" y="72">o</tspan><tspan class="cls-15" x="162.17" y="72">r</tspan><tspan class="cls-16" x="170.61" y="72">e </tspan><tspan class="cls-15" x="188.89" y="72">r</tspan><tspan x="197.33" y="72">et</tspan><tspan class="cls-17" x="218.65" y="72">r</tspan><tspan x="227.57" y="72">yi</tspan><tspan class="cls-8" x="245.55" y="72">n</tspan><tspan x="259.49" y="72">g </tspan><tspan x="88.29" y="96">t</tspan><tspan class="cls-10" x="96.99" y="96">h</tspan><tspan x="110.93" y="96">e qui</tspan><tspan class="cls-10" x="162.77" y="96">z</tspan><tspan x="173.75" y="96">.</tspan></text><g id="Polar_Bear" data-name="Polar Bear"><path class="cls-18" d="M217,303.35l1,43.46s1.66,4.59,4.23,4.59,21.22,1.29,22.88-1.74a19.23,19.23,0,0,0,1.83-7.17s.28-51.81-5.42-62.47Z"/><path class="cls-19" d="M274.64,287.92c-1.2-7.72-1.2-31.42-3.13-35.37s-5.14-31.7-5.14-31.7,2.75,0,4-6.15S255.53,191.09,217,180.62c-26.09-7.08-83-6.44-89.39-5.24-1.47-7.63-9-12.4-9-12.4a40.08,40.08,0,0,0-.46-10.48A14.83,14.83,0,0,0,124.52,140c0-7.72-5.24-14.06-11.76-14.06a10.66,10.66,0,0,0-8,3.77c-6.34-4.5-15.44-7.53-28.48-7.44a45.48,45.48,0,0,0-19.3,4,11.24,11.24,0,0,0-7.9-3c-6.89,0-12.49,5.88-12.49,13a13.23,13.23,0,0,0,2.3,7.45c-8.27,15.34-7.44,33.16-7.44,33.16-17.09,24.53,6.06,43.82,16.44,45,7,.82,10.2,4.87,11.58,7.44-1.2,15.52,7.8,32.06,7.8,32.06s-2.84,27.93-1.92,38.13,10.93,33.53,11.66,37c.55,3.49.92,7,1.2,10.47,10.19,6.16,25.63,1.84,25.63,1.84,10.2,3.77,28.29,2.67,30.68.55s3.13-41.61,3.13-41.61c39.78,14.05,66.05,11.3,84.89,2.38C242.57,300.78,244,301,244,301c2.94,31.32-.09,34.81,1.29,45s29.95,4.87,31.33,1.38S275.83,295.73,274.64,287.92Z"/><ellipse class="cls-20" cx="42.48" cy="160.68" rx="3.86" ry="7.53"/><ellipse class="cls-21" cx="43.86" cy="159.85" rx="1.65" ry="2.3"/><ellipse class="cls-20" cx="74.82" cy="159.67" rx="3.86" ry="7.53"/><ellipse class="cls-21" cx="76.2" cy="158.75" rx="1.65" ry="2.3"/><path class="cls-20" d="M58.37,182.45c0,1.66-2.66,6.25-5.88,6.25s-5.88-4.59-5.88-6.25,2.67-3,5.88-3S58.37,180.8,58.37,182.45Z"/><path class="cls-22" d="M101.09,261.28S103,309.33,103,313s-4.32,27.56-.18,35.65"/><path class="cls-18" d="M108.53,134.31s5-5.51,9.47-1,2.57,13.23-1,13.69C117,147.08,115.52,137.71,108.53,134.31Z"/><path class="cls-18" d="M41,140.74s3.12-9.37,11.12-11.66c-3.5-2.94-8.36-2.12-11,1.74h0C37.89,135.23,41,140.74,41,140.74Z"/><path class="cls-19" d="M69.84,149.72s4.75,8.5,12.67,9.41C82.51,159.13,79.26,148.22,69.84,149.72Z"/><path class="cls-19" d="M47.34,149.63s-4.75,8.5-12.67,9.42C34.67,159.05,37.92,148.13,47.34,149.63Z"/><polyline class="cls-23" points="43.84 213.05 52.86 208.73 52.86 186.5"/><line class="cls-23" x1="61.51" y1="213.05" x2="52.86" y2="208.73"/></g></g></g></svg>