<svg xmlns="http://www.w3.org/2000/svg" xmlns:xlink="http://www.w3.org/1999/xlink" viewBox="0 0 320 640"><defs><style>.cls-1{fill:url(#radial-gradient);}.cls-2{font-size:29px;}.cls-2,.cls-21,.cls-5{fill:#fff;}.cls-2,.cls-5{font-family:Montserrat-Bold, Montserrat;font-weight:700;}.cls-3{letter-spacing:-0.01em;}.cls-4{letter-spacing:0.02em;}.cls-5{font-size:20px;}.cls-6{letter-spacing:-0.01em;}.cls-7{letter-spacing:0.01em;}.cls-8{letter-spacing:-0.03em;}.cls-9{letter-spacing:-0.02em;}.cls-10{letter-spacing:-0.01em;}.cls-11{letter-spacing:-0.01em;}.cls-12{letter-spacing:0.01em;}.cls-13{letter-spacing:-0.01em;}.cls-14{letter-spacing:0.01em;}.cls-15{letter-spacing:0em;}.cls-16{letter-spacing:0.02em;}.cls-17{letter-spacing:0.01em;}.cls-18{fill:#8b5e3c;}.cls-19{fill:none;stroke:#754c29;stroke-miterlimit:10;stroke-width:1px;}.cls-20{fill:#3c2415;}.cls-22{fill:#603913;}.cls-23{fill:#231f20;}.cls-24{fill:#f9ac90;}.cls-25{fill:#c49a6c;}.cls-26{fill:#c2b59b;}</style><radialGradient id="radial-gradient" cx="160" cy="320" r="252.98" gradientUnits="userSpaceOnUse"><stop offset="0" stop-color="#59afc5"/><stop offset="0.23" stop-color="#4aa8c0"/><stop offset="0.66" stop-color="#2396b2"/><stop offset="1" stop-color="#0085a6"/></radialGradient></defs><title>Asset 39</title><g id="Layer_2" data-name="Layer 2"><g id="Amazon_Environment" data-name="Amazon Environment"><rect class="cls-1" width="320" height="640"/><text class="cls-2" transform="translate(83.73 439.38)">ALMO<tspan class="cls-3" x="91.9" y="0">S</tspan><tspan class="cls-4" x="110.11" y="0">T</tspan><tspan x="128.61" y="0">!</tspan></text><text class="cls-5" transform="translate(36.47 477.73)">Ni<tspan class="cls-6" x="22.18" y="0">c</tspan><tspan x="33.86" y="0">e t</tspan><tspan class="cls-7" x="60.84" y="0">r</tspan><tspan class="cls-8" x="69.76" y="0">y</tspan><tspan x="81.08" y="0">. Ma</tspan><tspan class="cls-9" x="123.42" y="0">k</tspan><tspan x="136.16" y="0">e su</tspan><tspan class="cls-10" x="178.8" y="0">r</tspan><tspan x="187.24" y="0">e </tspan><tspan class="cls-11" x="205.52" y="0">y</tspan><tspan x="217.18" y="0">ou </tspan><tspan class="cls-10" x="-6.21" y="24">r</tspan><tspan class="cls-11" x="2.23" y="24">e</tspan><tspan class="cls-12" x="14.55" y="24">a</tspan><tspan x="27.01" y="24">d th</tspan><tspan class="cls-10" x="69.03" y="24">r</tspan><tspan x="77.47" y="24">ough t</tspan><tspan class="cls-12" x="146.49" y="24">h</tspan><tspan x="160.43" y="24">e animal </tspan><tspan class="cls-13" x="-17.84" y="48">f</tspan><tspan class="cls-12" x="-10.3" y="48">a</tspan><tspan class="cls-14" x="2.16" y="48">c</tspan><tspan x="14.14" y="48">ts </tspan><tspan class="cls-12" x="39.12" y="48">a</tspan><tspan x="51.58" y="48">gain be</tspan><tspan class="cls-6" x="129.84" y="48">f</tspan><tspan x="137.44" y="48">o</tspan><tspan class="cls-10" x="150.54" y="48">r</tspan><tspan class="cls-15" x="158.98" y="48">e </tspan><tspan class="cls-10" x="177.26" y="48">r</tspan><tspan x="185.7" y="48">et</tspan><tspan class="cls-16" x="207.02" y="48">r</tspan><tspan x="215.94" y="48">yi</tspan><tspan class="cls-17" x="233.92" y="48">n</tspan><tspan x="247.86" y="48">g </tspan><tspan x="76.66" y="72">t</tspan><tspan class="cls-12" x="85.36" y="72">h</tspan><tspan x="99.3" y="72">e qui</tspan><tspan class="cls-12" x="151.14" y="72">z</tspan><tspan x="162.12" y="72">.</tspan></text><path class="cls-18" d="M86.9,257.19s.17,29.36-30.81,50.72c-8.17,6.3.34,10.39,8.09,8.26,6.89-1.87,25.61-3.4,44.76-27.24"/><path class="cls-18" d="M52,195.14s-7.66-29.28,21.7-45.36c34.89-13.79,53.28,22,53.28,22s11.83.85,22.21,20.17c0,0,61.45,9.11,84.26,74,4.85,4.69,1.79,7.15,13.88,13.37s37.36,32.17,40.93,43.32c2.47,5-7.15,3.23-11,2.64s-35.49-17.71-58.55-13-79.92,5.87-91.16,3.23-37.62,2.3-47-10.81-33.79-49.79-29.11-92.52Z"/><path class="cls-19" d="M141.54,196.33s-6.47-17.7-14.55-24.59"/><path class="cls-19" d="M152.52,240.42S157,215.65,149.2,192"/><ellipse class="cls-20" cx="80.35" cy="211.74" rx="22.81" ry="13.28"/><path class="cls-21" d="M56.69,207.74s-10.13,26.81,0,73a1.55,1.55,0,0,0,3.06-.25c.51-17.28,2.81-49.28,12.94-72.94Z"/><path class="cls-21" d="M92.86,210.38s10.13,26.81,0,73a1.55,1.55,0,0,1-3.07-.25c-.51-17.28-2.89-49.28-12.93-72.94Z"/><ellipse class="cls-22" cx="64.43" cy="201.78" rx="16.6" ry="16.68"/><ellipse class="cls-22" cx="87.84" cy="202.04" rx="20.26" ry="17.45"/><ellipse class="cls-23" cx="65.03" cy="173.52" rx="4" ry="7.15"/><ellipse class="cls-21" cx="66.05" cy="171.74" rx="1.7" ry="1.79"/><ellipse class="cls-23" cx="93.96" cy="174.89" rx="4" ry="7.15"/><ellipse class="cls-21" cx="95.07" cy="173.01" rx="1.7" ry="1.79"/><ellipse class="cls-24" cx="76.01" cy="189.53" rx="4.85" ry="3.4"/><path class="cls-18" d="M159.07,259.83s9.37,41.28,43.41,56.51c9,4.68,1.36,10.3-6.55,9.62-7.15-.6-30.73,0-53.54-19.92"/><path class="cls-19" d="M288.19,322.64s-12.34-16.43-17.53-18.13"/><path class="cls-19" d="M287.42,325.53s-15.66-16.68-20.34-17.87"/><path class="cls-19" d="M282.74,325.53s-12.6-12.85-19-13.79"/><path class="cls-25" d="M60.86,193.1A.8.8,0,0,1,60,194a.92.92,0,0,1-.86-.85.86.86,0,0,1,1.71,0Z"/><path class="cls-25" d="M64.43,196.67a.58.58,0,0,1-.59.6.59.59,0,0,1-.6-.6.58.58,0,0,1,.6-.59.57.57,0,0,1,.59.59Z"/><circle class="cls-25" cx="57.45" cy="201.1" r="0.43"/><path class="cls-25" d="M95.33,194.63a.58.58,0,0,1-.51.6c-.34,0-.51-.26-.51-.6a.56.56,0,0,1,.51-.59h0a.57.57,0,0,1,.51.59Z"/><ellipse class="cls-25" cx="62.98" cy="208.5" rx="0.51" ry="0.6"/><path class="cls-25" d="M99.33,199.31a.63.63,0,0,1-.68.68.73.73,0,0,1-.68-.68.63.63,0,0,1,.68-.68h0a.73.73,0,0,1,.68.68Z"/><path class="cls-25" d="M89.37,200.16c0,.17-.26.34-.43.34s-.25-.17-.34-.34.09-.42.34-.42.34.08.43.42Z"/><path class="cls-25" d="M80.18,204.42a.35.35,0,1,1-.68,0,.39.39,0,0,1,.34-.43.58.58,0,0,1,.34.43Z"/><path class="cls-25" d="M82.22,197.1a.35.35,0,1,1-.34-.43.39.39,0,0,1,.34.43Z"/><path class="cls-25" d="M94.9,203.82a.57.57,0,0,1-.51.6c-.34,0-.51-.26-.51-.6a.57.57,0,0,1,.51-.59h0a.72.72,0,0,1,.51.59Z"/><path class="cls-25" d="M101.2,205.44a.59.59,0,0,1-.6.6.58.58,0,0,1-.59-.6.57.57,0,0,1,.59-.59.63.63,0,0,1,.6.59Z"/><path class="cls-25" d="M86.9,194a.22.22,0,0,1-.25.25.28.28,0,0,1-.26-.25.23.23,0,0,1,.26-.26c.17,0,.25.09.25.26Z"/><circle class="cls-25" cx="77.88" cy="211.48" r="0.26"/><path class="cls-25" d="M88.77,207.65c0,.17-.08.26-.25.26a.23.23,0,0,1-.26-.26c0-.17.09-.25.26-.25h0A.27.27,0,0,1,88.77,207.65Z"/><path class="cls-25" d="M63.24,203.57a.34.34,0,1,1-.34-.34h0a.37.37,0,0,1,.34.34Z"/><circle class="cls-25" cx="69.96" cy="199.48" r="0.34"/><path class="cls-25" d="M67,194.46a.67.67,0,0,1-.68.68.73.73,0,0,1-.68-.68.67.67,0,0,1,.68-.68A.73.73,0,0,1,67,194.46Z"/><circle class="cls-25" cx="74.05" cy="202.04" r="0.68"/><path class="cls-25" d="M59.49,207.14c0,.17-.08.26-.25.26h0c-.17,0-.26-.17-.17-.26a.18.18,0,0,1,.17-.17C59.41,206.89,59.49,207,59.49,207.14Z"/><path class="cls-25" d="M54.39,200.76a.58.58,0,0,1-.51.6c-.34,0-.51-.26-.51-.6a.57.57,0,0,1,.51-.6h0a.58.58,0,0,1,.51.6Z"/><circle class="cls-25" cx="55.49" cy="197.95" r="0.43"/><path class="cls-25" d="M65.79,210.21a.22.22,0,0,1-.25.25c-.17,0-.26-.08-.26-.25a.23.23,0,0,1,.26-.26h0C65.71,210,65.79,210,65.79,210.21Z"/><path class="cls-25" d="M95.07,210.8a.48.48,0,0,1-.25.43.45.45,0,0,1-.43-.34v-.09a.39.39,0,0,1,.43-.34C95,210.55,95.07,210.63,95.07,210.8Z"/><path class="cls-25" d="M71.67,208a.37.37,0,0,1-.34.34.34.34,0,1,1,0-.68h0c.25,0,.34.09.34.34Z"/><path class="cls-26" d="M58.9,196.84h-.17l-.68.09c-.6.08-1.45.17-2.47.34a34.65,34.65,0,0,0-7.49,2.21,42,42,0,0,0-3.83,2.05c-.6.42-1.19.85-1.7,1.27a8.29,8.29,0,0,0-1.45,1.45,4.58,4.58,0,0,0-.59.68,4.5,4.5,0,0,0-.6.68c-.26.34-.51.77-.77,1.19a3.78,3.78,0,0,0-.42.85l-.17.26.17-.34a7.49,7.49,0,0,1,.42-.85l.77-1.28c.17-.25.34-.42.51-.68a2.18,2.18,0,0,1,.6-.68,5.22,5.22,0,0,1,.68-.77,5.82,5.82,0,0,1,.76-.68c.51-.51,1.11-.85,1.71-1.36A22.47,22.47,0,0,1,48,199a35.88,35.88,0,0,1,7.48-2.64c1-.25,1.88-.42,2.47-.51l.68-.08H59Z"/><path class="cls-26" d="M59.32,199.23A32.78,32.78,0,0,0,56,200.76a34.69,34.69,0,0,0-3.32,2c-.6.34-1.2.85-1.88,1.27s-1.27.94-1.87,1.45L47.15,207a16.15,16.15,0,0,0-1.7,1.71c-.51.59-1.1,1.1-1.53,1.7a19.38,19.38,0,0,0-1.28,1.7l-1,1.53a5.07,5.07,0,0,0-.76,1.28l-.69,1.1.6-1.27a7.46,7.46,0,0,1,.77-1.28l1-1.53c.34-.6.85-1.11,1.27-1.79a16.49,16.49,0,0,1,1.54-1.79c.51-.59,1.1-1.19,1.7-1.78s1.19-1.11,1.79-1.7,1.27-1,1.87-1.54A15.17,15.17,0,0,1,52.6,202c1.19-.85,2.38-1.53,3.32-2.13A30.59,30.59,0,0,1,59.24,198Z"/><path class="cls-26" d="M59.67,202a20.19,20.19,0,0,0-2.3,1.79c-.68.59-1.45,1.28-2.3,2.13a8.6,8.6,0,0,0-1.19,1.36,9.94,9.94,0,0,0-1.19,1.53c-.43.51-.77,1-1.2,1.62a17.78,17.78,0,0,0-1,1.7c-.34.51-.59,1.11-.93,1.7s-.51,1-.77,1.62l-.59,1.45c-.17.42-.26.85-.43,1.19l-.34,1,.34-1a7.89,7.89,0,0,1,.34-1.19l.6-1.45c.25-.6.42-1.11.68-1.7s.59-1.19.85-1.79l1-1.79c.34-.59.77-1.19,1.11-1.79a11.16,11.16,0,0,1,1.19-1.61c.42-.51.76-1,1.19-1.45.76-.85,1.62-1.7,2.21-2.38a17.43,17.43,0,0,1,2.38-2Z"/><path class="cls-26" d="M91.33,197.61h.42l.94.09c.85.08,2,.25,3.32.42a51,51,0,0,1,9.87,2.55l2.55,1a20.46,20.46,0,0,1,2.39,1.19,12.64,12.64,0,0,1,2.12,1.36c.6.42,1.2.94,1.79,1.45a5.87,5.87,0,0,0,.77.68,2.28,2.28,0,0,1,.59.68,6.49,6.49,0,0,1,.94,1.19,3,3,0,0,1,.51.85l.17.34V209c-.17-.17-.25-.52-.51-.77a12.12,12.12,0,0,0-.94-1.11,5.44,5.44,0,0,0-.68-.68c-.25-.25-.51-.42-.76-.68-.6-.51-1.19-.93-1.79-1.36s-1.45-.85-2.21-1.28-1.62-.76-2.39-1.1-1.7-.68-2.55-.94A57.16,57.16,0,0,0,96,199c-1.36-.17-2.47-.25-3.32-.34l-.94-.08H91.5Z"/><path class="cls-26" d="M91.07,200s1.79.6,4.43,1.71c1.27.59,2.81,1.27,4.42,2.12a21.48,21.48,0,0,1,2.39,1.37,22.45,22.45,0,0,1,2.38,1.53,23.6,23.6,0,0,1,2.3,1.61,24,24,0,0,1,2.21,1.79c.68.68,1.36,1.11,2,1.79s1.19,1.11,1.61,1.7l1.28,1.45a12,12,0,0,1,.94,1.28l.76,1.1-.85-1c-.25-.34-.59-.77-.93-1.19l-1.37-1.45c-.51-.51-1.1-1-1.61-1.62s-1.28-1.1-2-1.7a22.32,22.32,0,0,0-2.21-1.61,22.67,22.67,0,0,0-2.39-1.54c-.76-.51-1.61-.93-2.46-1.44s-1.62-.85-2.39-1.28a34.06,34.06,0,0,0-4.42-1.87c-2.64-1-4.43-1.53-4.43-1.53Z"/><path class="cls-26" d="M90.82,202.63a26.33,26.33,0,0,1,3.14,2c.43.35.94.69,1.45,1.11l1.53,1.28c.51.42,1,.93,1.62,1.44a14.6,14.6,0,0,1,1.53,1.62,15.74,15.74,0,0,1,1.45,1.79,8.14,8.14,0,0,0,.68.85l.6.85.59.85a7.06,7.06,0,0,0,.51.85,9.57,9.57,0,0,1,.85,1.62l.68,1.36.43,1.11.43.85-.43-.85a7.74,7.74,0,0,0-.43-1.11c-.17-.42-.42-.85-.68-1.36a13.9,13.9,0,0,0-.93-1.53l-.51-.85-.6-.85-.59-.85-.69-.86a8.89,8.89,0,0,0-1.53-1.61l-1.53-1.53c-.51-.52-1.11-.94-1.62-1.37s-1-.85-1.53-1.19-1-.68-1.45-1a28.57,28.57,0,0,0-3.06-1.79Z"/><path class="cls-18" d="M57.87,175.42a57.42,57.42,0,0,0,12.68-10S58.94,162.07,57.87,175.42Z"/><path class="cls-18" d="M101.59,176.31a56.42,56.42,0,0,1-12.47-9.82S100.53,163.19,101.59,176.31Z"/></g></g></svg>