<?xml version="1.0" encoding="utf-8"?>
<!-- Generator: Adobe Illustrator 19.0.0, SVG Export Plug-In . SVG Version: 6.00 Build 0)  -->
<svg version="1.1" id="Layer_1" xmlns="http://www.w3.org/2000/svg" xmlns:xlink="http://www.w3.org/1999/xlink" x="0px" y="0px"
	 viewBox="140 -300 320 640" style="enable-background:new 140 -300 320 640;" xml:space="preserve">
<style type="text/css">
	.st0{fill:url(#SVGID_1_);}
	.st1{fill:#8B5E3C;}
	.st2{fill:none;stroke:#754C29;stroke-miterlimit:10;}
	.st3{fill:#3C2415;}
	.st4{fill:#FFFFFF;}
	.st5{fill:#603913;}
	.st6{fill:#231F20;}
	.st7{fill:#F9AC90;}
	.st8{fill:#C49A6C;}
	.st9{fill:#C2B59B;}
</style>
<title>Asset 39</title>
<radialGradient id="SVGID_1_" cx="300" cy="20" r="252.9822" gradientTransform="matrix(1 0 0 -1 0 40)" gradientUnits="userSpaceOnUse">
	<stop  offset="0" style="stop-color:#59AFC5"/>
	<stop  offset="0.23" style="stop-color:#4AA8C0"/>
	<stop  offset="0.66" style="stop-color:#2396B2"/>
	<stop  offset="1" style="stop-color:#0085A6"/>
</radialGradient>
<rect x="140" y="-300" class="st0" width="320" height="640"/>
<g>
	<path class="st1" d="M226.9-52.8c0,0,0.2,29.4-30.8,50.7c-8.2,6.3,0.3,10.4,8.1,8.3c6.9-1.9,25.6-3.4,44.8-27.2"/>
	<path class="st1" d="M192-114.9c0,0-7.7-29.3,21.7-45.4c34.9-13.8,53.3,22,53.3,22s11.8,0.9,22.2,20.2c0,0,61.5,9.1,84.3,74
		c4.9,4.7,1.8,7.1,13.9,13.4s37.4,32.2,40.9,43.3c2.5,5-7.1,3.2-11,2.6s-35.5-17.7-58.5-13s-79.9,5.9-91.2,3.2
		c-11.2-2.6-37.6,2.3-47-10.8s-33.8-49.8-29.1-92.5L192-114.9z"/>
	<path class="st2" d="M281.5-113.7c0,0-6.5-17.7-14.5-24.6"/>
	<path class="st2" d="M292.5-69.6c0,0,4.5-24.8-3.3-48.4"/>
	<ellipse class="st3" cx="220.4" cy="-98.3" rx="22.8" ry="13.3"/>
	<path class="st4" d="M196.7-102.3c0,0-10.1,26.8,0,73c0.2,0.8,1,1.4,1.9,1.2c0.7-0.2,1.2-0.7,1.2-1.4c0.5-17.3,2.8-49.3,12.9-72.9
		L196.7-102.3z"/>
	<path class="st4" d="M232.9-99.6c0,0,10.1,26.8,0,73c-0.2,0.8-1,1.4-1.8,1.2c-0.7-0.1-1.2-0.7-1.2-1.5
		c-0.5-17.3-2.9-49.3-12.9-72.9L232.9-99.6z"/>
	<ellipse class="st5" cx="204.4" cy="-108.2" rx="16.6" ry="16.7"/>
	<ellipse class="st5" cx="227.8" cy="-108" rx="20.3" ry="17.4"/>
	<ellipse class="st6" cx="205" cy="-136.5" rx="4" ry="7.1"/>
	<ellipse class="st4" cx="206.1" cy="-138.3" rx="1.7" ry="1.8"/>
	<ellipse class="st6" cx="234" cy="-135.1" rx="4" ry="7.1"/>
	<ellipse class="st4" cx="235.1" cy="-137" rx="1.7" ry="1.8"/>
	<ellipse class="st7" cx="216" cy="-120.5" rx="4.8" ry="3.4"/>
	<path class="st1" d="M299.1-50.2c0,0,9.4,41.3,43.4,56.5c9,4.7,1.4,10.3-6.6,9.6c-7.1-0.6-30.7,0-53.5-19.9"/>
	<path class="st2" d="M428.2,12.6c0,0-12.3-16.4-17.5-18.1"/>
	<path class="st2" d="M427.4,15.5c0,0-15.7-16.7-20.3-17.9"/>
	<path class="st2" d="M422.7,15.5c0,0-12.6-12.9-19-13.8"/>
	<path class="st8" d="M200.9-116.9c0.1,0.4-0.3,0.8-0.7,0.9c-0.1,0-0.1,0-0.2,0c-0.5,0-0.8-0.4-0.9-0.9c0.1-0.5,0.5-0.8,0.9-0.8
		C200.5-117.6,200.8-117.3,200.9-116.9L200.9-116.9z"/>
	<path class="st8" d="M204.4-113.3c0,0.3-0.2,0.6-0.6,0.6c0,0,0,0,0,0c-0.3,0-0.6-0.3-0.6-0.6c0,0,0,0,0,0c0-0.3,0.2-0.6,0.6-0.6
		c0,0,0,0,0,0C204.2-113.9,204.4-113.7,204.4-113.3C204.4-113.4,204.4-113.3,204.4-113.3z"/>
	<circle class="st8" cx="197.4" cy="-108.9" r="0.4"/>
	<path class="st8" d="M235.3-115.4c0,0.3-0.2,0.6-0.5,0.6c-0.3,0-0.5-0.3-0.5-0.6c0-0.3,0.2-0.6,0.5-0.6l0,0
		C235.1-115.9,235.3-115.7,235.3-115.4z"/>
	<ellipse class="st8" cx="203" cy="-101.5" rx="0.5" ry="0.6"/>
	<path class="st8" d="M239.3-110.7c0,0.3-0.2,0.7-0.6,0.7c0,0-0.1,0-0.1,0c-0.4,0-0.7-0.3-0.7-0.7c0-0.3,0.2-0.7,0.6-0.7
		c0,0,0.1,0,0.1,0l0,0C239-111.3,239.3-111.1,239.3-110.7z"/>
	<path class="st8" d="M229.4-109.8c0,0.2-0.3,0.3-0.4,0.3s-0.3-0.2-0.3-0.3s0.1-0.4,0.3-0.4S229.3-110.2,229.4-109.8z"/>
	<path class="st8" d="M220.2-105.6c0,0.2-0.1,0.4-0.3,0.4c-0.2,0-0.4-0.1-0.4-0.3c0-0.1,0-0.1,0-0.2c0-0.2,0.1-0.4,0.3-0.4
		C220-105.9,220.1-105.8,220.2-105.6z"/>
	<path class="st8" d="M222.2-112.9c0,0.2-0.2,0.3-0.4,0.3s-0.3-0.2-0.3-0.4c0-0.2,0.2-0.3,0.3-0.3
		C222.1-113.3,222.2-113.1,222.2-112.9z"/>
	<path class="st8" d="M234.9-106.2c0,0.3-0.2,0.6-0.5,0.6c-0.3,0-0.5-0.3-0.5-0.6c0-0.3,0.2-0.6,0.5-0.6l0,0
		C234.7-106.7,234.9-106.5,234.9-106.2z"/>
	<path class="st8" d="M241.2-104.6c0,0.3-0.3,0.6-0.6,0.6c0,0,0,0,0,0c-0.3,0-0.6-0.2-0.6-0.6c0,0,0,0,0,0c0-0.3,0.2-0.6,0.5-0.6
		c0,0,0,0,0,0C240.9-105.1,241.2-104.9,241.2-104.6z"/>
	<path class="st8" d="M226.9-116c0,0.1-0.1,0.2-0.2,0.3c0,0,0,0-0.1,0c-0.1,0-0.2-0.1-0.3-0.3c0-0.1,0.1-0.2,0.2-0.3c0,0,0,0,0.1,0
		C226.8-116.3,226.9-116.2,226.9-116z"/>
	<circle class="st8" cx="217.9" cy="-98.5" r="0.3"/>
	<path class="st8" d="M228.8-102.4c0,0.2-0.1,0.3-0.3,0.3c-0.1,0-0.2-0.1-0.3-0.2c0,0,0,0,0-0.1c0-0.2,0.1-0.3,0.3-0.3l0,0
		C228.7-102.6,228.8-102.5,228.8-102.4z"/>
	<path class="st8" d="M203.2-106.4c0,0.2-0.2,0.3-0.3,0.3c-0.2,0-0.3-0.2-0.3-0.3c0-0.2,0.2-0.3,0.3-0.3l0,0l0,0
		C203.1-106.8,203.2-106.6,203.2-106.4z"/>
	<circle class="st8" cx="210" cy="-110.5" r="0.3"/>
	<path class="st8" d="M207-115.5c0,0.4-0.3,0.7-0.7,0.7c0,0,0,0,0,0c-0.4,0-0.7-0.3-0.7-0.7c0-0.4,0.3-0.7,0.7-0.7c0,0,0,0,0,0
		C206.7-116.2,207-115.9,207-115.5z"/>
	<circle class="st8" cx="214.1" cy="-108" r="0.7"/>
	<path class="st8" d="M199.5-102.9c0,0.2-0.1,0.3-0.3,0.3l0,0c-0.2,0-0.3-0.2-0.2-0.3c0-0.1,0.1-0.2,0.2-0.2
		C199.4-103.1,199.5-103,199.5-102.9z"/>
	<path class="st8" d="M194.4-109.2c0,0.3-0.2,0.6-0.5,0.6c-0.3,0-0.5-0.3-0.5-0.6c0-0.3,0.2-0.6,0.5-0.6l0,0
		C194.2-109.8,194.4-109.5,194.4-109.2z"/>
	<circle class="st8" cx="195.5" cy="-112.1" r="0.4"/>
	<path class="st8" d="M205.8-99.8c0,0.1-0.1,0.2-0.2,0.3c0,0,0,0-0.1,0c-0.2,0-0.3-0.1-0.3-0.3c0-0.1,0.1-0.2,0.2-0.3c0,0,0,0,0.1,0
		l0,0C205.7-100,205.8-100,205.8-99.8z"/>
	<path class="st8" d="M235.1-99.2c0,0.2-0.1,0.3-0.3,0.4c-0.2,0-0.4-0.1-0.4-0.3v-0.1c0-0.2,0.2-0.4,0.4-0.3
		C235-99.4,235.1-99.4,235.1-99.2z"/>
	<path class="st8" d="M211.7-102c0,0.2-0.2,0.3-0.3,0.3c-0.2,0-0.3-0.2-0.3-0.3c0-0.2,0.2-0.3,0.3-0.3c0,0,0,0,0,0l0,0
		C211.6-102.3,211.7-102.3,211.7-102z"/>
	<path class="st9" d="M198.9-113.2h-0.2l-0.7,0.1c-0.6,0.1-1.4,0.2-2.5,0.3c-2.6,0.5-5.1,1.2-7.5,2.2c-1.3,0.6-2.6,1.3-3.8,2.1
		c-0.6,0.4-1.2,0.9-1.7,1.3c-0.5,0.4-1,0.9-1.4,1.4c-0.2,0.2-0.4,0.4-0.6,0.7c-0.2,0.2-0.4,0.4-0.6,0.7c-0.3,0.3-0.5,0.8-0.8,1.2
		c-0.2,0.3-0.3,0.6-0.4,0.9l-0.2,0.3l0.2-0.3c0.1-0.3,0.3-0.6,0.4-0.9l0.8-1.3c0.2-0.3,0.3-0.4,0.5-0.7c0.2-0.3,0.4-0.5,0.6-0.7
		c0.2-0.3,0.4-0.5,0.7-0.8c0.2-0.2,0.5-0.5,0.8-0.7c0.5-0.5,1.1-0.9,1.7-1.4c1.2-0.9,2.5-1.6,3.8-2.3c2.4-1.2,4.9-2,7.5-2.6
		c1-0.3,1.9-0.4,2.5-0.5l0.7-0.1h0.4L198.9-113.2z"/>
	<path class="st9" d="M199.3-110.8c-1.1,0.4-2.2,1-3.3,1.5c-1.1,0.6-2.3,1.3-3.3,2c-0.6,0.3-1.2,0.9-1.9,1.3
		c-0.7,0.4-1.3,0.9-1.9,1.4l-1.8,1.5c-0.6,0.5-1.2,1.1-1.7,1.7c-0.5,0.6-1.1,1.1-1.5,1.7c-0.5,0.5-0.9,1.1-1.3,1.7l-1,1.5
		c-0.3,0.4-0.6,0.8-0.8,1.3l-0.7,1.1l0.6-1.3c0.2-0.5,0.5-0.9,0.8-1.3l1-1.5c0.3-0.6,0.9-1.1,1.3-1.8c0.5-0.6,1-1.2,1.5-1.8
		c0.5-0.6,1.1-1.2,1.7-1.8s1.2-1.1,1.8-1.7c0.6-0.6,1.3-1,1.9-1.5c0.6-0.5,1.2-0.9,1.9-1.3c1.2-0.9,2.4-1.5,3.3-2.1
		c1.1-0.7,2.2-1.3,3.3-1.9L199.3-110.8z"/>
	<path class="st9" d="M199.7-108c-0.8,0.5-1.6,1.1-2.3,1.8c-0.7,0.6-1.4,1.3-2.3,2.1c-0.4,0.4-0.8,0.9-1.2,1.4
		c-0.4,0.5-0.8,1-1.2,1.5c-0.4,0.5-0.8,1-1.2,1.6c-0.4,0.5-0.7,1.1-1,1.7c-0.3,0.5-0.6,1.1-0.9,1.7s-0.5,1-0.8,1.6l-0.6,1.4
		c-0.2,0.4-0.3,0.9-0.4,1.2l-0.3,1l0.3-1c0.1-0.4,0.2-0.8,0.3-1.2l0.6-1.4c0.3-0.6,0.4-1.1,0.7-1.7s0.6-1.2,0.8-1.8l1-1.8
		c0.3-0.6,0.8-1.2,1.1-1.8c0.3-0.6,0.7-1.1,1.2-1.6c0.4-0.5,0.8-1,1.2-1.4c0.8-0.9,1.6-1.7,2.2-2.4c0.7-0.7,1.5-1.4,2.4-2L199.7-108
		z"/>
	<path class="st9" d="M231.3-112.4h0.4l0.9,0.1c0.9,0.1,2,0.3,3.3,0.4c3.4,0.5,6.7,1.4,9.9,2.6l2.6,1c0.8,0.3,1.6,0.7,2.4,1.2
		c0.8,0.4,1.5,0.8,2.1,1.4c0.6,0.4,1.2,0.9,1.8,1.4c0.2,0.2,0.5,0.5,0.8,0.7c0.2,0.2,0.4,0.4,0.6,0.7c0.4,0.4,0.7,0.8,0.9,1.2
		c0.2,0.3,0.4,0.5,0.5,0.9l0.2,0.3v-0.4c-0.2-0.2-0.3-0.5-0.5-0.8c-0.3-0.4-0.6-0.8-0.9-1.1c-0.2-0.2-0.4-0.5-0.7-0.7
		c-0.3-0.3-0.5-0.4-0.8-0.7c-0.6-0.5-1.2-0.9-1.8-1.4s-1.4-0.9-2.2-1.3c-0.8-0.4-1.6-0.8-2.4-1.1c-0.8-0.3-1.7-0.7-2.5-0.9
		c-3.2-1-6.5-1.7-9.9-2.1c-1.4-0.2-2.5-0.3-3.3-0.3l-0.9-0.1h-0.2L231.3-112.4z"/>
	<path class="st9" d="M231.1-110c0,0,1.8,0.6,4.4,1.7c1.3,0.6,2.8,1.3,4.4,2.1c0.8,0.4,1.6,0.9,2.4,1.4c0.8,0.5,1.6,1,2.4,1.5
		c0.8,0.5,1.6,1,2.3,1.6c0.8,0.6,1.5,1.2,2.2,1.8c0.7,0.7,1.4,1.1,2,1.8s1.2,1.1,1.6,1.7l1.3,1.4c0.3,0.4,0.7,0.8,0.9,1.3l0.8,1.1
		l-0.9-1c-0.3-0.3-0.6-0.8-0.9-1.2l-1.4-1.4c-0.5-0.5-1.1-1-1.6-1.6s-1.3-1.1-2-1.7c-0.7-0.6-1.4-1.1-2.2-1.6
		c-0.8-0.6-1.6-1.1-2.4-1.5c-0.8-0.5-1.6-0.9-2.5-1.4s-1.6-0.9-2.4-1.3c-1.4-0.7-2.9-1.4-4.4-1.9c-2.6-1-4.4-1.5-4.4-1.5L231.1-110z
		"/>
	<path class="st9" d="M230.8-107.4c1.1,0.6,2.1,1.3,3.1,2c0.4,0.4,0.9,0.7,1.5,1.1l1.5,1.3c0.5,0.4,1,0.9,1.6,1.4
		c0.6,0.5,1.1,1,1.5,1.6c0.5,0.6,1,1.2,1.4,1.8c0.2,0.3,0.4,0.6,0.7,0.9l0.6,0.9l0.6,0.9c0.1,0.3,0.3,0.6,0.5,0.9
		c0.3,0.5,0.6,1.1,0.9,1.6l0.7,1.4l0.4,1.1l0.4,0.9l-0.4-0.9c-0.1-0.4-0.3-0.8-0.4-1.1c-0.2-0.4-0.4-0.9-0.7-1.4
		c-0.3-0.5-0.6-1-0.9-1.5l-0.5-0.9l-0.6-0.9l-0.6-0.9l-0.7-0.9c-0.4-0.6-1-1.1-1.5-1.6l-1.5-1.5c-0.5-0.5-1.1-0.9-1.6-1.4
		s-1-0.9-1.5-1.2s-1-0.7-1.4-1c-1-0.7-2-1.3-3.1-1.8L230.8-107.4z"/>
	<path class="st1" d="M197.9-134.6c4.7-2.7,8.9-6.1,12.7-10C210.6-144.6,198.9-147.9,197.9-134.6z"/>
	<path class="st1" d="M241.6-133.7c-4.6-2.7-8.8-6-12.5-9.8C229.1-143.5,240.5-146.8,241.6-133.7z"/>
</g>
<g>
	<g>
		<path class="st4" d="M243.2,69.6l-1.9-4.6h-11l-1.9,4.6h-5.5l10.3-23.8h5.5l10.2,23.8H243.2z M232,60.7h7.5l-3.7-9.2L232,60.7z"/>
		<path class="st4" d="M251.4,45.8h5.4v19.1H267v4.7h-15.6V45.8z"/>
		<path class="st4" d="M270.1,45.8h6l7.4,14.6l7.3-14.6h6v23.8H292V53.5l-6.8,13.7h-3.5L275,53.5v16.1h-4.8V45.8z"/>
		<path class="st4" d="M319.7,47.1c1.9,1.1,3.5,2.5,4.6,4.4c1.1,1.9,1.7,3.9,1.7,6.2c0,2.3-0.6,4.4-1.7,6.3
			c-1.1,1.9-2.7,3.4-4.6,4.4c-2,1.1-4.1,1.6-6.5,1.6c-2.4,0-4.5-0.5-6.5-1.6c-1.9-1.1-3.5-2.5-4.6-4.4c-1.1-1.9-1.7-4-1.7-6.3
			c0-2.3,0.6-4.4,1.7-6.2c1.1-1.9,2.7-3.3,4.6-4.4s4.1-1.6,6.5-1.6C315.6,45.5,317.7,46,319.7,47.1z M309.6,51.2
			c-1.1,0.7-2,1.6-2.7,2.7c-0.7,1.2-1,2.4-1,3.8c0,1.4,0.3,2.7,1,3.8s1.6,2.1,2.7,2.8c1.1,0.7,2.3,1,3.7,1s2.5-0.3,3.6-1
			c1.1-0.7,2-1.6,2.6-2.8c0.6-1.2,1-2.5,1-3.9c0-1.4-0.3-2.7-1-3.8s-1.5-2.1-2.6-2.7c-1.1-0.7-2.3-1-3.6-1S310.7,50.5,309.6,51.2z"
			/>
		<path class="st4" d="M341.3,50.7c-1.4-0.4-2.5-0.7-3.5-0.7c-0.9,0-1.7,0.2-2.2,0.5c-0.5,0.3-0.8,0.8-0.8,1.5
			c0,0.8,0.4,1.5,1.2,1.9c0.8,0.4,2,0.9,3.6,1.4c1.6,0.5,3,1,4,1.4c1.1,0.5,2,1.2,2.7,2.1s1.1,2.2,1.1,3.8c0,1.5-0.4,2.8-1.2,3.9
			s-1.9,1.9-3.3,2.5c-1.4,0.6-3,0.8-4.8,0.8c-1.9,0-3.8-0.3-5.7-1c-1.9-0.7-3.5-1.6-4.8-2.8l2.1-4.4c1.2,1.1,2.6,2,4.1,2.6
			s3,1,4.3,1c1.1,0,2-0.2,2.6-0.6c0.6-0.4,0.9-1,0.9-1.8c0-0.6-0.2-1.1-0.6-1.5c-0.4-0.4-1-0.7-1.6-1c-0.6-0.2-1.5-0.5-2.7-0.8
			c-1.6-0.5-3-0.9-4-1.4c-1-0.5-1.9-1.1-2.7-2.1S329,54,329,52.5c0-1.4,0.4-2.7,1.2-3.8c0.8-1.1,1.8-1.9,3.2-2.5s3-0.9,4.8-0.9
			c1.6,0,3.2,0.2,4.8,0.7c1.6,0.5,3,1.1,4.2,1.9l-2.1,4.5C344,51.7,342.7,51.1,341.3,50.7z"/>
		<path class="st4" d="M348.8,45.8h19.9v4.6h-7.3v19.2h-5.4V50.4h-7.2V45.8z"/>
		<path class="st4" d="M375.2,65.3c0.5,0.5,0.7,1.1,0.7,1.9c0,0.8-0.2,1.4-0.7,2c-0.5,0.5-1.1,0.8-1.9,0.8c-0.7,0-1.4-0.3-1.9-0.8
			c-0.5-0.5-0.7-1.2-0.7-1.9c0-0.8,0.3-1.4,0.7-1.9c0.5-0.5,1.1-0.7,1.9-0.7C374.1,64.5,374.7,64.8,375.2,65.3z M370.9,46h5v6
			l-0.9,9.6h-3.2l-0.9-9.6V46z"/>
	</g>
	<g>
		<path class="st4" d="M183.4,86.4h2.7V99h-2.6l-6.1-8.1V99h-2.7V86.4h2.6l6.1,8.1V86.4z"/>
		<path class="st4" d="M191.3,85.5c0.3,0.3,0.4,0.7,0.4,1.1c0,0.5-0.1,0.8-0.4,1.1c-0.3,0.3-0.6,0.4-1.1,0.4c-0.4,0-0.8-0.1-1.1-0.4
			c-0.3-0.3-0.4-0.7-0.4-1.1c0-0.5,0.1-0.8,0.4-1.1c0.3-0.3,0.6-0.4,1.1-0.4C190.6,85,191,85.2,191.3,85.5z M188.8,89.3h2.8V99h-2.8
			V89.3z"/>
		<path class="st4" d="M198.6,91.6c-0.7,0-1.3,0.2-1.7,0.7c-0.4,0.5-0.7,1.1-0.7,1.9c0,0.8,0.2,1.4,0.6,1.9c0.4,0.5,1,0.7,1.7,0.7
			c1,0,1.8-0.4,2.3-1.1l1.9,1.3c-0.4,0.7-1,1.2-1.7,1.6c-0.7,0.4-1.6,0.6-2.6,0.6c-1,0-1.8-0.2-2.6-0.6s-1.3-1-1.7-1.7
			c-0.4-0.7-0.6-1.6-0.6-2.6c0-1,0.2-1.9,0.6-2.6s1-1.3,1.7-1.7c0.7-0.4,1.6-0.6,2.6-0.6c0.9,0,1.7,0.2,2.5,0.5
			c0.7,0.4,1.3,0.9,1.7,1.5l-1.9,1.4C200.2,91.9,199.4,91.6,198.6,91.6z"/>
		<path class="st4" d="M211.8,90.6c0.8,0.9,1.2,2.2,1.2,3.8c0,0.3,0,0.5,0,0.7H206c0.2,0.6,0.5,1.1,0.9,1.4c0.4,0.3,1,0.5,1.6,0.5
			c0.5,0,0.9-0.1,1.3-0.3c0.4-0.2,0.8-0.4,1.1-0.8l1.5,1.5c-0.5,0.6-1.1,1-1.8,1.3c-0.7,0.3-1.5,0.4-2.3,0.4c-1,0-1.9-0.2-2.7-0.6
			c-0.8-0.4-1.4-1-1.8-1.7c-0.4-0.7-0.6-1.6-0.6-2.6c0-1,0.2-1.9,0.6-2.6s1-1.3,1.8-1.7s1.6-0.6,2.6-0.6
			C209.8,89.2,211,89.7,211.8,90.6z M210.4,93.4c0-0.6-0.2-1.1-0.6-1.5c-0.4-0.4-0.9-0.6-1.5-0.6c-0.6,0-1.1,0.2-1.5,0.6
			s-0.7,0.9-0.8,1.5H210.4z"/>
		<path class="st4" d="M225,98.5c-0.4,0.2-0.8,0.4-1.2,0.5s-0.9,0.2-1.3,0.2c-0.9,0-1.6-0.3-2.2-0.8c-0.6-0.5-0.8-1.3-0.8-2.2v-4.5
			h-1.4v-1.9h1.4v-2.7h2.8v2.7h2.6v1.9h-2.6v4c0,0.7,0.3,1.1,0.9,1.1c0.4,0,0.9-0.1,1.4-0.4L225,98.5z"/>
		<path class="st4" d="M230.8,89.7c0.5-0.3,1.2-0.5,1.9-0.5v2.6c-0.1,0-0.2,0-0.4,0c-0.9,0-1.5,0.2-2,0.7c-0.5,0.5-0.7,1.1-0.7,1.8
			V99h-2.8v-9.7h2.8v1.7C229.8,90.5,230.3,90,230.8,89.7z"/>
		<path class="st4" d="M235.8,102.6c-0.5,0-1-0.1-1.4-0.2c-0.4-0.1-0.8-0.4-1.2-0.7l1.2-2c0.4,0.3,0.8,0.5,1.3,0.5
			c0.6,0,1-0.3,1.3-0.9l0.3-0.5l-4-9.5h2.9l2.5,6.7l2.3-6.7h2.8l-4.2,10.8C238.7,101.8,237.5,102.6,235.8,102.6z"/>
		<path class="st4" d="M246.2,96.7c0.3,0.3,0.4,0.6,0.4,1c0,0.4-0.1,0.8-0.4,1c-0.3,0.3-0.6,0.4-1,0.4c-0.4,0-0.7-0.1-1-0.4
			c-0.3-0.3-0.4-0.6-0.4-1c0-0.4,0.1-0.8,0.4-1c0.3-0.3,0.6-0.4,1-0.4C245.6,96.3,245.9,96.5,246.2,96.7z"/>
		<path class="st4" d="M252.9,86.4h3.2l3.9,7.7l3.9-7.7h3.1V99h-2.6v-8.5l-3.6,7.2h-1.8l-3.6-7.2V99h-2.6V86.4z"/>
		<path class="st4" d="M275.4,99v-1.1c-0.3,0.4-0.7,0.7-1.3,0.9c-0.5,0.2-1.1,0.3-1.8,0.3c-1,0-1.8-0.3-2.4-0.8
			c-0.6-0.6-0.9-1.3-0.9-2.2c0-0.9,0.3-1.6,1-2.1c0.6-0.5,1.6-0.8,2.7-0.8h2.7V93c0-0.5-0.2-0.9-0.5-1.2c-0.3-0.3-0.8-0.4-1.5-0.4
			c-0.9,0-1.9,0.3-2.9,0.8l-0.9-1.9c0.8-0.4,1.5-0.7,2.2-0.8c0.7-0.2,1.4-0.3,2.2-0.3c1.3,0,2.3,0.3,3,0.9c0.7,0.6,1.1,1.5,1.1,2.6
			l0,6.3H275.4z M274.6,96.8c0.4-0.3,0.7-0.6,0.8-1v-0.9h-2.2c-0.5,0-0.9,0.1-1.2,0.3c-0.3,0.2-0.4,0.5-0.4,0.8
			c0,0.4,0.1,0.7,0.4,0.9c0.3,0.2,0.6,0.3,1.1,0.3C273.7,97.2,274.2,97,274.6,96.8z"/>
		<path class="st4" d="M287,99l-2.3-3.9l-1.2,1.3V99h-2.8V85.7h2.8V93l3.5-3.7h3.1l-3.5,3.7l3.7,5.9H287z"/>
		<path class="st4" d="M298.9,90.6c0.8,0.9,1.2,2.2,1.2,3.8c0,0.3,0,0.5,0,0.7h-6.9c0.2,0.6,0.5,1.1,0.9,1.4c0.4,0.3,1,0.5,1.6,0.5
			c0.5,0,0.9-0.1,1.3-0.3c0.4-0.2,0.8-0.4,1.1-0.8l1.5,1.5c-0.5,0.6-1.1,1-1.8,1.3c-0.7,0.3-1.5,0.4-2.3,0.4c-1,0-1.9-0.2-2.7-0.6
			c-0.8-0.4-1.4-1-1.8-1.7c-0.4-0.7-0.6-1.6-0.6-2.6c0-1,0.2-1.9,0.6-2.6s1-1.3,1.8-1.7s1.6-0.6,2.6-0.6
			C296.9,89.2,298.1,89.7,298.9,90.6z M297.5,93.4c0-0.6-0.2-1.1-0.6-1.5c-0.4-0.4-0.9-0.6-1.5-0.6c-0.6,0-1.1,0.2-1.5,0.6
			s-0.7,0.9-0.8,1.5H297.5z"/>
		<path class="st4" d="M310.7,91.5c-0.5-0.2-1-0.2-1.4-0.2c-0.3,0-0.6,0.1-0.8,0.2s-0.3,0.3-0.3,0.5c0,0.3,0.1,0.5,0.4,0.6
			c0.3,0.1,0.7,0.3,1.3,0.5c0.7,0.2,1.2,0.4,1.7,0.6c0.4,0.2,0.8,0.5,1.2,0.9c0.3,0.4,0.5,0.9,0.5,1.5c0,1-0.4,1.7-1.1,2.2
			c-0.7,0.5-1.7,0.8-2.8,0.8c-0.8,0-1.6-0.1-2.3-0.4c-0.7-0.2-1.4-0.6-1.9-1l0.9-1.9c0.5,0.4,1,0.7,1.6,0.9s1.2,0.3,1.7,0.3
			c0.4,0,0.7-0.1,0.9-0.2c0.2-0.1,0.3-0.3,0.3-0.6c0-0.3-0.1-0.5-0.4-0.6c-0.3-0.2-0.7-0.3-1.4-0.5c-0.7-0.2-1.2-0.4-1.6-0.6
			c-0.4-0.2-0.8-0.5-1.1-0.9c-0.3-0.4-0.5-0.9-0.5-1.5c0-1,0.4-1.7,1.1-2.2c0.7-0.5,1.6-0.8,2.7-0.8c0.7,0,1.3,0.1,2,0.3
			c0.7,0.2,1.3,0.5,1.8,0.8l-1,1.9C311.7,91.9,311.2,91.7,310.7,91.5z"/>
		<path class="st4" d="M324.3,89.3V99h-2.8v-1.7c-0.7,1.2-1.7,1.8-3.2,1.8c-1.1,0-1.9-0.3-2.5-1s-0.9-1.6-0.9-2.7v-6.1h2.8v5.3
			c0,0.6,0.2,1.1,0.5,1.4c0.3,0.3,0.8,0.5,1.3,0.5c0.7,0,1.2-0.2,1.6-0.7c0.4-0.5,0.6-1,0.6-1.8v-4.8H324.3z"/>
		<path class="st4" d="M331.1,89.7c0.5-0.3,1.2-0.5,1.9-0.5v2.6c-0.1,0-0.2,0-0.4,0c-0.9,0-1.5,0.2-2,0.7c-0.5,0.5-0.7,1.1-0.7,1.8
			V99H327v-9.7h2.8v1.7C330.1,90.5,330.5,90,331.1,89.7z"/>
		<path class="st4" d="M342.2,90.6c0.8,0.9,1.2,2.2,1.2,3.8c0,0.3,0,0.5,0,0.7h-6.9c0.2,0.6,0.5,1.1,0.9,1.4c0.4,0.3,1,0.5,1.6,0.5
			c0.5,0,0.9-0.1,1.3-0.3c0.4-0.2,0.8-0.4,1.1-0.8l1.5,1.5c-0.5,0.6-1.1,1-1.8,1.3c-0.7,0.3-1.5,0.4-2.3,0.4c-1,0-1.9-0.2-2.7-0.6
			c-0.8-0.4-1.4-1-1.8-1.7c-0.4-0.7-0.6-1.6-0.6-2.6c0-1,0.2-1.9,0.6-2.6s1-1.3,1.8-1.7s1.6-0.6,2.6-0.6
			C340.2,89.2,341.4,89.7,342.2,90.6z M340.8,93.4c0-0.6-0.2-1.1-0.6-1.5c-0.4-0.4-0.9-0.6-1.5-0.6c-0.6,0-1.1,0.2-1.5,0.6
			s-0.7,0.9-0.8,1.5H340.8z"/>
		<path class="st4" d="M350.6,102.6c-0.5,0-1-0.1-1.4-0.2c-0.4-0.1-0.8-0.4-1.2-0.7l1.2-2c0.4,0.3,0.8,0.5,1.3,0.5
			c0.6,0,1-0.3,1.3-0.9l0.3-0.5l-4-9.5h2.9l2.5,6.7l2.3-6.7h2.8l-4.2,10.8C353.5,101.8,352.3,102.6,350.6,102.6z"/>
		<path class="st4" d="M366.3,89.9c0.8,0.4,1.4,1,1.8,1.7c0.4,0.7,0.6,1.6,0.6,2.6c0,1-0.2,1.8-0.6,2.6c-0.4,0.8-1,1.3-1.8,1.7
			c-0.8,0.4-1.7,0.6-2.7,0.6c-1,0-1.9-0.2-2.7-0.6c-0.8-0.4-1.4-1-1.8-1.7c-0.4-0.8-0.6-1.6-0.6-2.6c0-1,0.2-1.8,0.6-2.6
			c0.4-0.7,1-1.3,1.8-1.7c0.8-0.4,1.7-0.6,2.7-0.6C364.6,89.2,365.6,89.5,366.3,89.9z M361.9,92.3c-0.5,0.5-0.7,1.1-0.7,1.9
			s0.2,1.4,0.7,1.9s1,0.7,1.8,0.7c0.7,0,1.3-0.2,1.7-0.7c0.5-0.5,0.7-1.1,0.7-1.9s-0.2-1.4-0.7-1.9c-0.4-0.5-1-0.7-1.7-0.7
			C362.9,91.6,362.3,91.8,361.9,92.3z"/>
		<path class="st4" d="M379.8,89.3V99h-2.8v-1.7c-0.7,1.2-1.7,1.8-3.2,1.8c-1.1,0-1.9-0.3-2.5-1c-0.6-0.7-0.9-1.6-0.9-2.7v-6.1h2.8
			v5.3c0,0.6,0.2,1.1,0.5,1.4c0.3,0.3,0.8,0.5,1.3,0.5c0.7,0,1.2-0.2,1.6-0.7c0.4-0.5,0.6-1,0.6-1.8v-4.8H379.8z"/>
		<path class="st4" d="M390.8,89.7c0.5-0.3,1.2-0.5,1.9-0.5v2.6c-0.1,0-0.2,0-0.4,0c-0.9,0-1.5,0.2-2,0.7s-0.7,1.1-0.7,1.8V99h-2.8
			v-9.7h2.8v1.7C389.8,90.5,390.3,90,390.8,89.7z"/>
		<path class="st4" d="M401.9,90.6c0.8,0.9,1.2,2.2,1.2,3.8c0,0.3,0,0.5,0,0.7h-6.9c0.2,0.6,0.5,1.1,0.9,1.4c0.4,0.3,1,0.5,1.6,0.5
			c0.5,0,0.9-0.1,1.3-0.3c0.4-0.2,0.8-0.4,1.1-0.8l1.5,1.5c-0.5,0.6-1.1,1-1.8,1.3s-1.5,0.4-2.3,0.4c-1,0-1.9-0.2-2.7-0.6
			s-1.3-1-1.8-1.7c-0.4-0.7-0.6-1.6-0.6-2.6c0-1,0.2-1.9,0.6-2.6s1-1.3,1.8-1.7s1.6-0.6,2.6-0.6C399.9,89.2,401.1,89.7,401.9,90.6z
			 M400.5,93.4c0-0.6-0.2-1.1-0.6-1.5s-0.9-0.6-1.5-0.6c-0.6,0-1.1,0.2-1.5,0.6s-0.7,0.9-0.8,1.5H400.5z"/>
		<path class="st4" d="M410.6,99v-1.1c-0.3,0.4-0.7,0.7-1.3,0.9s-1.1,0.3-1.8,0.3c-1,0-1.8-0.3-2.4-0.8c-0.6-0.6-0.9-1.3-0.9-2.2
			c0-0.9,0.3-1.6,1-2.1c0.6-0.5,1.6-0.8,2.7-0.8h2.7V93c0-0.5-0.2-0.9-0.5-1.2c-0.3-0.3-0.8-0.4-1.5-0.4c-0.9,0-1.9,0.3-2.9,0.8
			l-0.9-1.9c0.8-0.4,1.5-0.7,2.2-0.8c0.7-0.2,1.4-0.3,2.2-0.3c1.3,0,2.3,0.3,3,0.9c0.7,0.6,1.1,1.5,1.1,2.6l0,6.3H410.6z
			 M409.8,96.8c0.4-0.3,0.7-0.6,0.8-1v-0.9h-2.2c-0.5,0-0.9,0.1-1.2,0.3s-0.4,0.5-0.4,0.8c0,0.4,0.1,0.7,0.4,0.9
			c0.3,0.2,0.6,0.3,1.1,0.3C408.9,97.2,409.4,97,409.8,96.8z"/>
		<path class="st4" d="M425.3,85.7V99h-2.8v-1.4c-0.3,0.5-0.8,0.9-1.3,1.1c-0.5,0.3-1.1,0.4-1.8,0.4c-0.9,0-1.7-0.2-2.4-0.6
			s-1.2-1-1.6-1.8c-0.4-0.8-0.6-1.6-0.6-2.6c0-1,0.2-1.8,0.6-2.6c0.4-0.7,0.9-1.3,1.6-1.7c0.7-0.4,1.5-0.6,2.4-0.6
			c1.4,0,2.4,0.5,3.1,1.5v-5.1H425.3z M421.8,96.2c0.5-0.5,0.7-1.1,0.7-1.9s-0.2-1.4-0.7-1.9s-1-0.7-1.7-0.7c-0.7,0-1.3,0.2-1.8,0.7
			c-0.5,0.5-0.7,1.1-0.7,1.9c0,0.8,0.2,1.4,0.7,1.9c0.4,0.5,1,0.7,1.8,0.7C420.8,96.9,421.4,96.6,421.8,96.2z"/>
		<path class="st4" d="M167.6,120.1c-0.4,0.2-0.8,0.4-1.2,0.5s-0.9,0.2-1.3,0.2c-0.9,0-1.6-0.3-2.2-0.8c-0.6-0.5-0.8-1.3-0.8-2.2
			v-4.5h-1.4v-1.9h1.4v-2.7h2.8v2.7h2.6v1.9h-2.6v4c0,0.7,0.3,1.1,0.9,1.1c0.4,0,0.9-0.1,1.4-0.4L167.6,120.1z"/>
		<path class="st4" d="M178.1,111.8c0.6,0.7,1,1.6,1,2.7v6.1h-2.8v-5.3c0-0.6-0.2-1.1-0.5-1.4c-0.3-0.4-0.8-0.5-1.4-0.5
			c-0.7,0-1.2,0.2-1.6,0.7s-0.6,1.1-0.6,1.8v4.8h-2.8v-13.4h2.8v5.4c0.7-1.2,1.8-1.8,3.3-1.8C176.6,110.8,177.4,111.2,178.1,111.8z"
			/>
		<path class="st4" d="M185.5,111.3c0.5-0.3,1.2-0.5,1.9-0.5v2.6c-0.1,0-0.2,0-0.4,0c-0.9,0-1.5,0.2-2,0.7c-0.5,0.5-0.7,1.1-0.7,1.8
			v4.7h-2.8v-9.7h2.8v1.7C184.5,112.1,185,111.6,185.5,111.3z"/>
		<path class="st4" d="M196,111.5c0.8,0.4,1.4,1,1.8,1.7c0.4,0.7,0.6,1.6,0.6,2.6c0,1-0.2,1.8-0.6,2.6c-0.4,0.8-1,1.3-1.8,1.7
			c-0.8,0.4-1.7,0.6-2.7,0.6c-1,0-1.9-0.2-2.7-0.6c-0.8-0.4-1.4-1-1.8-1.7c-0.4-0.8-0.6-1.6-0.6-2.6c0-1,0.2-1.8,0.6-2.6
			c0.4-0.7,1-1.3,1.8-1.7c0.8-0.4,1.7-0.6,2.7-0.6C194.3,110.8,195.2,111.1,196,111.5z M191.5,113.9c-0.5,0.5-0.7,1.1-0.7,1.9
			s0.2,1.4,0.7,1.9c0.4,0.5,1,0.7,1.8,0.7c0.7,0,1.3-0.2,1.7-0.7c0.5-0.5,0.7-1.1,0.7-1.9s-0.2-1.4-0.7-1.9c-0.4-0.5-1-0.7-1.7-0.7
			C192.6,113.2,192,113.4,191.5,113.9z"/>
		<path class="st4" d="M209.5,110.9v9.7h-2.8v-1.7c-0.7,1.2-1.7,1.8-3.2,1.8c-1.1,0-1.9-0.3-2.5-1c-0.6-0.7-0.9-1.6-0.9-2.7v-6.1
			h2.8v5.3c0,0.6,0.2,1.1,0.5,1.4c0.3,0.3,0.8,0.5,1.3,0.5c0.7,0,1.2-0.2,1.6-0.7c0.4-0.5,0.6-1,0.6-1.8v-4.8H209.5z"/>
		<path class="st4" d="M221.3,110.9v8.8c0,0.9-0.2,1.7-0.6,2.4c-0.4,0.7-1,1.2-1.8,1.6c-0.8,0.4-1.7,0.5-2.7,0.5
			c-0.8,0-1.5-0.1-2.3-0.3s-1.4-0.5-2-0.9l1-1.9c0.9,0.6,1.9,1,3,1c0.8,0,1.4-0.2,1.9-0.6c0.5-0.4,0.7-0.9,0.7-1.6v-1.1
			c-0.3,0.5-0.7,0.8-1.2,1c-0.5,0.2-1.1,0.4-1.7,0.4c-0.8,0-1.6-0.2-2.2-0.6s-1.1-0.9-1.5-1.6c-0.4-0.7-0.5-1.5-0.5-2.4
			c0-0.9,0.2-1.7,0.5-2.4c0.4-0.7,0.9-1.2,1.5-1.6c0.6-0.4,1.4-0.6,2.2-0.6c0.6,0,1.2,0.1,1.7,0.4c0.5,0.2,0.9,0.6,1.2,1v-1.3H221.3
			z M217.9,117.3c0.4-0.5,0.6-1.1,0.6-1.8c0-0.7-0.2-1.3-0.6-1.8c-0.4-0.5-1-0.7-1.6-0.7s-1.2,0.2-1.6,0.7c-0.4,0.5-0.6,1.1-0.6,1.8
			c0,0.7,0.2,1.3,0.6,1.8s1,0.7,1.6,0.7C216.9,118,217.4,117.8,217.9,117.3z"/>
		<path class="st4" d="M232.6,111.8c0.6,0.7,1,1.6,1,2.7v6.1h-2.8v-5.3c0-0.6-0.2-1.1-0.5-1.4c-0.3-0.4-0.8-0.5-1.4-0.5
			c-0.7,0-1.2,0.2-1.6,0.7s-0.6,1.1-0.6,1.8v4.8h-2.8v-13.4h2.8v5.4c0.7-1.2,1.8-1.8,3.3-1.8C231.1,110.8,232,111.2,232.6,111.8z"/>
		<path class="st4" d="M246.1,120.1c-0.4,0.2-0.8,0.4-1.2,0.5s-0.9,0.2-1.3,0.2c-0.9,0-1.6-0.3-2.2-0.8c-0.6-0.5-0.8-1.3-0.8-2.2
			v-4.5h-1.4v-1.9h1.4v-2.7h2.8v2.7h2.6v1.9h-2.6v4c0,0.7,0.3,1.1,0.9,1.1c0.4,0,0.9-0.1,1.4-0.4L246.1,120.1z"/>
		<path class="st4" d="M256.6,111.8c0.6,0.7,1,1.6,1,2.7v6.1h-2.8v-5.3c0-0.6-0.2-1.1-0.5-1.4c-0.3-0.4-0.8-0.5-1.4-0.5
			c-0.7,0-1.2,0.2-1.6,0.7s-0.6,1.1-0.6,1.8v4.8h-2.8v-13.4h2.8v5.4c0.7-1.2,1.8-1.8,3.3-1.8C255.1,110.8,256,111.2,256.6,111.8z"/>
		<path class="st4" d="M267.7,112.2c0.8,0.9,1.2,2.2,1.2,3.8c0,0.3,0,0.5,0,0.7h-6.9c0.2,0.6,0.5,1.1,0.9,1.4c0.4,0.3,1,0.5,1.6,0.5
			c0.5,0,0.9-0.1,1.3-0.3c0.4-0.2,0.8-0.4,1.1-0.8l1.5,1.5c-0.5,0.6-1.1,1-1.8,1.3c-0.7,0.3-1.5,0.4-2.3,0.4c-1,0-1.9-0.2-2.7-0.6
			c-0.8-0.4-1.4-1-1.8-1.7c-0.4-0.7-0.6-1.6-0.6-2.6c0-1,0.2-1.9,0.6-2.6s1-1.3,1.8-1.7s1.6-0.6,2.6-0.6
			C265.7,110.8,266.9,111.3,267.7,112.2z M266.3,115c0-0.6-0.2-1.1-0.6-1.5c-0.4-0.4-0.9-0.6-1.5-0.6c-0.6,0-1.1,0.2-1.5,0.6
			s-0.7,0.9-0.8,1.5H266.3z"/>
		<path class="st4" d="M280.5,120.6v-1.1c-0.3,0.4-0.7,0.7-1.3,0.9c-0.5,0.2-1.1,0.3-1.8,0.3c-1,0-1.8-0.3-2.4-0.8
			c-0.6-0.6-0.9-1.3-0.9-2.2c0-0.9,0.3-1.6,1-2.1c0.6-0.5,1.6-0.8,2.7-0.8h2.7v-0.2c0-0.5-0.2-0.9-0.5-1.2c-0.3-0.3-0.8-0.4-1.5-0.4
			c-0.9,0-1.9,0.3-2.9,0.8l-0.9-1.9c0.8-0.4,1.5-0.7,2.2-0.8c0.7-0.2,1.4-0.3,2.2-0.3c1.3,0,2.3,0.3,3,0.9c0.7,0.6,1.1,1.5,1.1,2.6
			l0,6.3H280.5z M279.8,118.4c0.4-0.3,0.7-0.6,0.8-1v-0.9h-2.2c-0.5,0-0.9,0.1-1.2,0.3c-0.3,0.2-0.4,0.5-0.4,0.8
			c0,0.4,0.1,0.7,0.4,0.9c0.3,0.2,0.6,0.3,1.1,0.3C278.9,118.8,279.3,118.6,279.8,118.4z"/>
		<path class="st4" d="M294.4,111.8c0.6,0.7,1,1.6,1,2.7v6.1h-2.8v-5.3c0-0.6-0.2-1.1-0.5-1.4c-0.3-0.4-0.8-0.5-1.4-0.5
			c-0.7,0-1.2,0.2-1.6,0.7c-0.4,0.5-0.6,1.1-0.6,1.8v4.8h-2.8v-9.7h2.8v1.7c0.7-1.2,1.8-1.8,3.3-1.8
			C292.9,110.8,293.7,111.2,294.4,111.8z"/>
		<path class="st4" d="M300.2,107.1c0.3,0.3,0.4,0.7,0.4,1.1c0,0.5-0.1,0.8-0.4,1.1c-0.3,0.3-0.6,0.4-1.1,0.4
			c-0.4,0-0.8-0.1-1.1-0.4c-0.3-0.3-0.4-0.7-0.4-1.1c0-0.5,0.1-0.8,0.4-1.1c0.3-0.3,0.6-0.4,1.1-0.4
			C299.5,106.6,299.9,106.8,300.2,107.1z M297.7,110.9h2.8v9.7h-2.8V110.9z"/>
		<path class="st4" d="M318.5,111.8c0.6,0.7,0.9,1.6,0.9,2.7v6.1h-2.8v-5.3c0-0.6-0.2-1.1-0.5-1.5c-0.3-0.3-0.8-0.5-1.4-0.5
			c-0.7,0-1.2,0.2-1.6,0.7c-0.4,0.5-0.6,1-0.6,1.8v4.8h-2.8v-5.3c0-0.6-0.2-1.1-0.5-1.4c-0.3-0.4-0.8-0.5-1.4-0.5
			c-0.7,0-1.2,0.2-1.6,0.7c-0.4,0.5-0.6,1-0.6,1.8v4.8h-2.8v-9.7h2.8v1.7c0.7-1.2,1.8-1.8,3.3-1.8c0.8,0,1.5,0.2,2.1,0.6
			c0.6,0.4,1,0.9,1.2,1.6c0.3-0.7,0.8-1.3,1.4-1.7s1.3-0.6,2.1-0.6C317,110.8,317.9,111.2,318.5,111.8z"/>
		<path class="st4" d="M327.5,120.6v-1.1c-0.3,0.4-0.7,0.7-1.3,0.9c-0.5,0.2-1.1,0.3-1.8,0.3c-1,0-1.8-0.3-2.4-0.8s-0.9-1.3-0.9-2.2
			c0-0.9,0.3-1.6,1-2.1c0.6-0.5,1.6-0.8,2.7-0.8h2.7v-0.2c0-0.5-0.2-0.9-0.5-1.2c-0.3-0.3-0.8-0.4-1.5-0.4c-0.9,0-1.9,0.3-2.9,0.8
			l-0.9-1.9c0.8-0.4,1.5-0.7,2.2-0.8c0.7-0.2,1.4-0.3,2.2-0.3c1.3,0,2.3,0.3,3,0.9c0.7,0.6,1.1,1.5,1.1,2.6l0,6.3H327.5z
			 M326.7,118.4c0.4-0.3,0.7-0.6,0.8-1v-0.9h-2.2c-0.5,0-0.9,0.1-1.2,0.3c-0.3,0.2-0.4,0.5-0.4,0.8c0,0.4,0.1,0.7,0.4,0.9
			c0.3,0.2,0.6,0.3,1.1,0.3C325.8,118.8,326.3,118.6,326.7,118.4z"/>
		<path class="st4" d="M332.7,107.3h2.8v13.4h-2.8V107.3z"/>
		<path class="st4" d="M346,109.7c-0.2,0.2-0.3,0.5-0.3,0.8v0.8h2.3v1.9h-2.3v7.3h-2.8v-7.3h-1.3v-1.9h1.3v-0.9
			c0-0.7,0.2-1.3,0.5-1.8c0.3-0.5,0.7-0.9,1.3-1.1c0.5-0.3,1.1-0.4,1.8-0.4c0.6,0,1.3,0.1,1.9,0.4l-0.4,2.2
			c-0.2-0.1-0.4-0.1-0.6-0.2c-0.2-0.1-0.4-0.1-0.6-0.1C346.5,109.4,346.2,109.5,346,109.7z"/>
		<path class="st4" d="M354.4,120.6v-1.1c-0.3,0.4-0.7,0.7-1.3,0.9c-0.5,0.2-1.1,0.3-1.8,0.3c-1,0-1.8-0.3-2.4-0.8s-0.9-1.3-0.9-2.2
			c0-0.9,0.3-1.6,1-2.1c0.6-0.5,1.6-0.8,2.7-0.8h2.7v-0.2c0-0.5-0.2-0.9-0.5-1.2c-0.3-0.3-0.8-0.4-1.5-0.4c-0.9,0-1.9,0.3-2.9,0.8
			l-0.9-1.9c0.8-0.4,1.5-0.7,2.2-0.8c0.7-0.2,1.4-0.3,2.2-0.3c1.3,0,2.3,0.3,3,0.9c0.7,0.6,1.1,1.5,1.1,2.6l0,6.3H354.4z
			 M353.6,118.4c0.4-0.3,0.7-0.6,0.8-1v-0.9h-2.2c-0.5,0-0.9,0.1-1.2,0.3c-0.3,0.2-0.4,0.5-0.4,0.8c0,0.4,0.1,0.7,0.4,0.9
			c0.3,0.2,0.6,0.3,1.1,0.3C352.7,118.8,353.2,118.6,353.6,118.4z"/>
		<path class="st4" d="M363.8,113.2c-0.7,0-1.3,0.2-1.7,0.7c-0.4,0.5-0.7,1.1-0.7,1.9c0,0.8,0.2,1.4,0.6,1.9c0.4,0.5,1,0.7,1.7,0.7
			c1,0,1.8-0.4,2.3-1.1l1.9,1.3c-0.4,0.7-1,1.2-1.7,1.6s-1.6,0.6-2.6,0.6c-1,0-1.8-0.2-2.6-0.6s-1.3-1-1.7-1.7
			c-0.4-0.7-0.6-1.6-0.6-2.6c0-1,0.2-1.9,0.6-2.6s1-1.3,1.7-1.7s1.6-0.6,2.6-0.6c0.9,0,1.7,0.2,2.5,0.5c0.7,0.4,1.3,0.9,1.7,1.5
			l-1.9,1.4C365.4,113.5,364.7,113.2,363.8,113.2z"/>
		<path class="st4" d="M375.6,120.1c-0.4,0.2-0.8,0.4-1.2,0.5c-0.4,0.1-0.9,0.2-1.3,0.2c-0.9,0-1.6-0.3-2.2-0.8
			c-0.6-0.5-0.8-1.3-0.8-2.2v-4.5h-1.3v-1.9h1.3v-2.7h2.8v2.7h2.6v1.9h-2.6v4c0,0.7,0.3,1.1,0.9,1.1c0.4,0,0.9-0.1,1.4-0.4
			L375.6,120.1z"/>
		<path class="st4" d="M381.8,113.1c-0.5-0.2-1-0.2-1.4-0.2c-0.3,0-0.6,0.1-0.8,0.2c-0.2,0.1-0.3,0.3-0.3,0.5c0,0.3,0.1,0.5,0.4,0.6
			c0.3,0.1,0.7,0.3,1.3,0.5c0.7,0.2,1.2,0.4,1.7,0.6c0.4,0.2,0.8,0.5,1.2,0.9c0.3,0.4,0.5,0.9,0.5,1.5c0,1-0.4,1.7-1.1,2.2
			c-0.7,0.5-1.7,0.8-2.8,0.8c-0.8,0-1.6-0.1-2.3-0.4c-0.7-0.2-1.4-0.6-1.9-1l0.9-1.9c0.5,0.4,1,0.7,1.6,0.9c0.6,0.2,1.2,0.3,1.7,0.3
			c0.4,0,0.7-0.1,0.9-0.2s0.3-0.3,0.3-0.6c0-0.3-0.1-0.5-0.4-0.6c-0.3-0.2-0.7-0.3-1.4-0.5c-0.7-0.2-1.2-0.4-1.6-0.6
			c-0.4-0.2-0.8-0.5-1.1-0.9c-0.3-0.4-0.5-0.9-0.5-1.5c0-1,0.4-1.7,1.1-2.2c0.7-0.5,1.6-0.8,2.7-0.8c0.7,0,1.3,0.1,2,0.3
			c0.7,0.2,1.3,0.5,1.8,0.8l-1,1.9C382.9,113.5,382.4,113.3,381.8,113.1z"/>
		<path class="st4" d="M396.1,120.6v-1.1c-0.3,0.4-0.7,0.7-1.3,0.9s-1.1,0.3-1.8,0.3c-1,0-1.8-0.3-2.4-0.8c-0.6-0.6-0.9-1.3-0.9-2.2
			c0-0.9,0.3-1.6,1-2.1c0.6-0.5,1.6-0.8,2.7-0.8h2.7v-0.2c0-0.5-0.2-0.9-0.5-1.2c-0.3-0.3-0.8-0.4-1.5-0.4c-0.9,0-1.9,0.3-2.9,0.8
			l-0.9-1.9c0.8-0.4,1.5-0.7,2.2-0.8c0.7-0.2,1.4-0.3,2.2-0.3c1.3,0,2.3,0.3,3,0.9c0.7,0.6,1.1,1.5,1.1,2.6l0,6.3H396.1z
			 M395.3,118.4c0.4-0.3,0.7-0.6,0.8-1v-0.9h-2.2c-0.5,0-0.9,0.1-1.2,0.3s-0.4,0.5-0.4,0.8c0,0.4,0.1,0.7,0.4,0.9
			c0.3,0.2,0.6,0.3,1.1,0.3C394.4,118.8,394.9,118.6,395.3,118.4z"/>
		<path class="st4" d="M410.3,110.9v8.8c0,0.9-0.2,1.7-0.6,2.4c-0.4,0.7-1,1.2-1.8,1.6c-0.8,0.4-1.7,0.5-2.7,0.5
			c-0.8,0-1.5-0.1-2.3-0.3s-1.4-0.5-2-0.9l1-1.9c0.9,0.6,1.9,1,3,1c0.8,0,1.4-0.2,1.9-0.6c0.5-0.4,0.7-0.9,0.7-1.6v-1.1
			c-0.3,0.5-0.7,0.8-1.2,1c-0.5,0.2-1.1,0.4-1.7,0.4c-0.8,0-1.6-0.2-2.2-0.6s-1.1-0.9-1.5-1.6c-0.4-0.7-0.5-1.5-0.5-2.4
			c0-0.9,0.2-1.7,0.5-2.4c0.4-0.7,0.9-1.2,1.5-1.6c0.6-0.4,1.4-0.6,2.2-0.6c0.6,0,1.2,0.1,1.7,0.4c0.5,0.2,0.9,0.6,1.2,1v-1.3H410.3
			z M406.9,117.3c0.4-0.5,0.6-1.1,0.6-1.8c0-0.7-0.2-1.3-0.6-1.8c-0.4-0.5-1-0.7-1.6-0.7s-1.2,0.2-1.6,0.7c-0.4,0.5-0.6,1.1-0.6,1.8
			c0,0.7,0.2,1.3,0.6,1.8s1,0.7,1.6,0.7C406,118,406.5,117.8,406.9,117.3z"/>
		<path class="st4" d="M418.5,120.6v-1.1c-0.3,0.4-0.7,0.7-1.3,0.9s-1.1,0.3-1.8,0.3c-1,0-1.8-0.3-2.4-0.8c-0.6-0.6-0.9-1.3-0.9-2.2
			c0-0.9,0.3-1.6,1-2.1c0.6-0.5,1.6-0.8,2.7-0.8h2.7v-0.2c0-0.5-0.2-0.9-0.5-1.2c-0.3-0.3-0.8-0.4-1.5-0.4c-0.9,0-1.9,0.3-2.9,0.8
			l-0.9-1.9c0.8-0.4,1.5-0.7,2.2-0.8c0.7-0.2,1.4-0.3,2.2-0.3c1.3,0,2.3,0.3,3,0.9c0.7,0.6,1.1,1.5,1.1,2.6l0,6.3H418.5z
			 M417.7,118.4c0.4-0.3,0.7-0.6,0.8-1v-0.9h-2.2c-0.5,0-0.9,0.1-1.2,0.3s-0.4,0.5-0.4,0.8c0,0.4,0.1,0.7,0.4,0.9
			c0.3,0.2,0.6,0.3,1.1,0.3C416.8,118.8,417.3,118.6,417.7,118.4z"/>
		<path class="st4" d="M426,107.1c0.3,0.3,0.4,0.7,0.4,1.1c0,0.5-0.1,0.8-0.4,1.1c-0.3,0.3-0.6,0.4-1.1,0.4c-0.4,0-0.8-0.1-1.1-0.4
			c-0.3-0.3-0.4-0.7-0.4-1.1c0-0.5,0.1-0.8,0.4-1.1c0.3-0.3,0.6-0.4,1.1-0.4C425.4,106.6,425.7,106.8,426,107.1z M423.6,110.9h2.8
			v9.7h-2.8V110.9z"/>
		<path class="st4" d="M437.7,111.8c0.6,0.7,1,1.6,1,2.7v6.1h-2.8v-5.3c0-0.6-0.2-1.1-0.5-1.4c-0.3-0.4-0.8-0.5-1.4-0.5
			c-0.7,0-1.2,0.2-1.6,0.7s-0.6,1.1-0.6,1.8v4.8H429v-9.7h2.8v1.7c0.7-1.2,1.8-1.8,3.3-1.8C436.2,110.8,437.1,111.2,437.7,111.8z"/>
		<path class="st4" d="M200,133.1c0.7,0.4,1.2,1,1.6,1.8c0.4,0.8,0.6,1.6,0.6,2.6c0,1-0.2,1.8-0.6,2.6c-0.4,0.7-0.9,1.3-1.6,1.7
			c-0.7,0.4-1.5,0.6-2.4,0.6c-0.7,0-1.3-0.1-1.8-0.4c-0.5-0.3-1-0.6-1.3-1.1v1.4h-2.8v-13.4h2.8v5.1c0.3-0.5,0.8-0.9,1.3-1.1
			s1.1-0.4,1.8-0.4C198.5,132.4,199.3,132.7,200,133.1z M198.7,139.3c0.4-0.5,0.7-1.1,0.7-1.9c0-0.8-0.2-1.4-0.7-1.9s-1-0.7-1.7-0.7
			s-1.3,0.2-1.7,0.7c-0.5,0.5-0.7,1.1-0.7,1.9c0,0.8,0.2,1.5,0.7,1.9c0.4,0.5,1,0.7,1.7,0.7S198.3,139.8,198.7,139.3z"/>
		<path class="st4" d="M211.7,133.8c0.8,0.9,1.2,2.2,1.2,3.8c0,0.3,0,0.5,0,0.7H206c0.2,0.6,0.5,1.1,0.9,1.4c0.4,0.3,1,0.5,1.6,0.5
			c0.5,0,0.9-0.1,1.3-0.3c0.4-0.2,0.8-0.4,1.1-0.8l1.5,1.5c-0.5,0.6-1.1,1-1.8,1.3c-0.7,0.3-1.5,0.4-2.3,0.4c-1,0-1.9-0.2-2.7-0.6
			c-0.8-0.4-1.4-1-1.8-1.7c-0.4-0.7-0.6-1.6-0.6-2.6c0-1,0.2-1.9,0.6-2.6s1-1.3,1.8-1.7s1.6-0.6,2.6-0.6
			C209.7,132.4,210.9,132.9,211.7,133.8z M210.3,136.6c0-0.6-0.2-1.1-0.6-1.5c-0.4-0.4-0.9-0.6-1.5-0.6c-0.6,0-1.1,0.2-1.5,0.6
			s-0.7,0.9-0.8,1.5H210.3z"/>
		<path class="st4" d="M218.2,131.3c-0.2,0.2-0.3,0.5-0.3,0.8v0.8h2.3v1.9h-2.3v7.3h-2.8v-7.3h-1.3V133h1.3v-0.9
			c0-0.7,0.2-1.3,0.5-1.8c0.3-0.5,0.7-0.9,1.3-1.1s1.1-0.4,1.8-0.4c0.6,0,1.3,0.1,1.9,0.4l-0.4,2.2c-0.2-0.1-0.4-0.1-0.6-0.2
			c-0.2-0.1-0.4-0.1-0.6-0.1C218.7,131,218.5,131.1,218.2,131.3z"/>
		<path class="st4" d="M228.4,133.1c0.8,0.4,1.4,1,1.8,1.7c0.4,0.7,0.6,1.6,0.6,2.6c0,1-0.2,1.8-0.6,2.6c-0.4,0.8-1,1.3-1.8,1.7
			c-0.8,0.4-1.7,0.6-2.7,0.6c-1,0-1.9-0.2-2.7-0.6c-0.8-0.4-1.4-1-1.8-1.7c-0.4-0.8-0.6-1.6-0.6-2.6c0-1,0.2-1.8,0.6-2.6
			c0.4-0.7,1-1.3,1.8-1.7c0.8-0.4,1.7-0.6,2.7-0.6C226.7,132.4,227.6,132.7,228.4,133.1z M223.9,135.5c-0.5,0.5-0.7,1.1-0.7,1.9
			s0.2,1.4,0.7,1.9c0.4,0.5,1,0.7,1.8,0.7c0.7,0,1.3-0.2,1.7-0.7c0.5-0.5,0.7-1.1,0.7-1.9s-0.2-1.4-0.7-1.9c-0.4-0.5-1-0.7-1.7-0.7
			C225,134.8,224.4,135,223.9,135.5z"/>
		<path class="st4" d="M236.8,132.9c0.5-0.3,1.2-0.5,1.9-0.5v2.6c-0.1,0-0.2,0-0.4,0c-0.9,0-1.5,0.2-2,0.7c-0.5,0.5-0.7,1.1-0.7,1.8
			v4.7h-2.8v-9.7h2.8v1.7C235.8,133.7,236.2,133.2,236.8,132.9z"/>
		<path class="st4" d="M247.9,133.8c0.8,0.9,1.2,2.2,1.2,3.8c0,0.3,0,0.5,0,0.7h-6.9c0.2,0.6,0.5,1.1,0.9,1.4c0.4,0.3,1,0.5,1.6,0.5
			c0.5,0,0.9-0.1,1.3-0.3c0.4-0.2,0.8-0.4,1.1-0.8l1.5,1.5c-0.5,0.6-1.1,1-1.8,1.3c-0.7,0.3-1.5,0.4-2.3,0.4c-1,0-1.9-0.2-2.7-0.6
			c-0.8-0.4-1.4-1-1.8-1.7c-0.4-0.7-0.6-1.6-0.6-2.6c0-1,0.2-1.9,0.6-2.6s1-1.3,1.8-1.7s1.6-0.6,2.6-0.6
			C245.9,132.4,247.1,132.9,247.9,133.8z M246.5,136.6c0-0.6-0.2-1.1-0.6-1.5c-0.4-0.4-0.9-0.6-1.5-0.6c-0.6,0-1.1,0.2-1.5,0.6
			s-0.7,0.9-0.8,1.5H246.5z"/>
		<path class="st4" d="M259.2,132.9c0.5-0.3,1.2-0.5,1.9-0.5v2.6c-0.1,0-0.2,0-0.4,0c-0.9,0-1.5,0.2-2,0.7c-0.5,0.5-0.7,1.1-0.7,1.8
			v4.7h-2.8v-9.7h2.8v1.7C258.3,133.7,258.7,133.2,259.2,132.9z"/>
		<path class="st4" d="M270.3,133.8c0.8,0.9,1.2,2.2,1.2,3.8c0,0.3,0,0.5,0,0.7h-6.9c0.2,0.6,0.5,1.1,0.9,1.4c0.4,0.3,1,0.5,1.6,0.5
			c0.5,0,0.9-0.1,1.3-0.3c0.4-0.2,0.8-0.4,1.1-0.8l1.5,1.5c-0.5,0.6-1.1,1-1.8,1.3c-0.7,0.3-1.5,0.4-2.3,0.4c-1,0-1.9-0.2-2.7-0.6
			c-0.8-0.4-1.4-1-1.8-1.7c-0.4-0.7-0.6-1.6-0.6-2.6c0-1,0.2-1.9,0.6-2.6s1-1.3,1.8-1.7s1.6-0.6,2.6-0.6
			C268.4,132.4,269.5,132.9,270.3,133.8z M269,136.6c0-0.6-0.2-1.1-0.6-1.5c-0.4-0.4-0.9-0.6-1.5-0.6c-0.6,0-1.1,0.2-1.5,0.6
			s-0.7,0.9-0.8,1.5H269z"/>
		<path class="st4" d="M279.4,141.7c-0.4,0.2-0.8,0.4-1.2,0.5s-0.9,0.2-1.3,0.2c-0.9,0-1.6-0.3-2.2-0.8c-0.6-0.5-0.8-1.3-0.8-2.2
			v-4.5h-1.4V133h1.4v-2.7h2.8v2.7h2.6v1.9h-2.6v4c0,0.7,0.3,1.1,0.9,1.1c0.4,0,0.9-0.1,1.4-0.4L279.4,141.7z"/>
		<path class="st4" d="M285.1,132.9c0.5-0.3,1.2-0.5,1.9-0.5v2.6c-0.1,0-0.2,0-0.4,0c-0.9,0-1.5,0.2-2,0.7c-0.5,0.5-0.7,1.1-0.7,1.8
			v4.7H281v-9.7h2.8v1.7C284.2,133.7,284.6,133.2,285.1,132.9z"/>
		<path class="st4" d="M290.1,145.8c-0.5,0-1-0.1-1.4-0.2c-0.4-0.1-0.8-0.4-1.2-0.7l1.2-2c0.4,0.3,0.8,0.5,1.3,0.5
			c0.6,0,1-0.3,1.3-0.9l0.3-0.5l-4-9.5h2.9l2.5,6.7l2.3-6.7h2.8l-4.2,10.8C293,145,291.8,145.8,290.1,145.8z"/>
		<path class="st4" d="M301.6,128.7c0.3,0.3,0.4,0.7,0.4,1.1c0,0.5-0.1,0.8-0.4,1.1s-0.6,0.4-1.1,0.4c-0.4,0-0.8-0.1-1.1-0.4
			c-0.3-0.3-0.4-0.7-0.4-1.1c0-0.5,0.1-0.8,0.4-1.1c0.3-0.3,0.6-0.4,1.1-0.4C300.9,128.2,301.3,128.4,301.6,128.7z M299.1,132.5h2.8
			v9.7h-2.8V132.5z"/>
		<path class="st4" d="M313.3,133.4c0.6,0.7,1,1.6,1,2.7v6.1h-2.8v-5.3c0-0.6-0.2-1.1-0.5-1.4c-0.3-0.4-0.8-0.5-1.4-0.5
			c-0.7,0-1.2,0.2-1.6,0.7s-0.6,1.1-0.6,1.8v4.8h-2.8v-9.7h2.8v1.7c0.7-1.2,1.8-1.8,3.3-1.8C311.8,132.4,312.6,132.8,313.3,133.4z"
			/>
		<path class="st4" d="M325.7,132.5v8.8c0,0.9-0.2,1.7-0.6,2.4c-0.4,0.7-1,1.2-1.8,1.6s-1.7,0.5-2.7,0.5c-0.8,0-1.5-0.1-2.3-0.3
			s-1.4-0.5-2-0.9l1-1.9c0.9,0.6,1.9,1,3,1c0.8,0,1.4-0.2,1.9-0.6c0.5-0.4,0.7-0.9,0.7-1.6v-1.1c-0.3,0.5-0.7,0.8-1.2,1
			c-0.5,0.2-1.1,0.4-1.7,0.4c-0.8,0-1.6-0.2-2.2-0.6s-1.1-0.9-1.5-1.6c-0.4-0.7-0.5-1.5-0.5-2.4c0-0.9,0.2-1.7,0.5-2.4
			s0.9-1.2,1.5-1.6c0.6-0.4,1.4-0.6,2.2-0.6c0.6,0,1.2,0.1,1.7,0.4c0.5,0.2,0.9,0.6,1.2,1v-1.3H325.7z M322.3,138.9
			c0.4-0.5,0.6-1.1,0.6-1.8c0-0.7-0.2-1.3-0.6-1.8c-0.4-0.5-1-0.7-1.6-0.7s-1.2,0.2-1.6,0.7c-0.4,0.5-0.6,1.1-0.6,1.8
			c0,0.7,0.2,1.3,0.6,1.8s1,0.7,1.6,0.7C321.3,139.6,321.9,139.4,322.3,138.9z"/>
		<path class="st4" d="M338.4,141.7c-0.4,0.2-0.8,0.4-1.2,0.5s-0.9,0.2-1.3,0.2c-0.9,0-1.6-0.3-2.2-0.8c-0.6-0.5-0.8-1.3-0.8-2.2
			v-4.5h-1.3V133h1.3v-2.7h2.8v2.7h2.6v1.9h-2.6v4c0,0.7,0.3,1.1,0.9,1.1c0.4,0,0.9-0.1,1.3-0.4L338.4,141.7z"/>
		<path class="st4" d="M348.9,133.4c0.6,0.7,1,1.6,1,2.7v6.1h-2.8v-5.3c0-0.6-0.2-1.1-0.5-1.4c-0.3-0.4-0.8-0.5-1.4-0.5
			c-0.7,0-1.2,0.2-1.6,0.7s-0.6,1.1-0.6,1.8v4.8h-2.8v-13.4h2.8v5.4c0.7-1.2,1.8-1.8,3.3-1.8C347.4,132.4,348.3,132.8,348.9,133.4z"
			/>
		<path class="st4" d="M360,133.8c0.8,0.9,1.2,2.2,1.2,3.8c0,0.3,0,0.5,0,0.7h-6.9c0.2,0.6,0.5,1.1,0.9,1.4c0.4,0.3,1,0.5,1.6,0.5
			c0.5,0,0.9-0.1,1.3-0.3c0.4-0.2,0.8-0.4,1.1-0.8l1.5,1.5c-0.5,0.6-1.1,1-1.8,1.3c-0.7,0.3-1.5,0.4-2.3,0.4c-1,0-1.9-0.2-2.7-0.6
			s-1.3-1-1.8-1.7c-0.4-0.7-0.6-1.6-0.6-2.6c0-1,0.2-1.9,0.6-2.6s1-1.3,1.8-1.7s1.6-0.6,2.6-0.6C358,132.4,359.2,132.9,360,133.8z
			 M358.6,136.6c0-0.6-0.2-1.1-0.6-1.5c-0.4-0.4-0.9-0.6-1.5-0.6c-0.6,0-1.1,0.2-1.5,0.6c-0.4,0.4-0.7,0.9-0.8,1.5H358.6z"/>
		<path class="st4" d="M376.8,132.5v13.2H374v-4.9c-0.3,0.5-0.8,0.9-1.3,1.1c-0.5,0.3-1.1,0.4-1.8,0.4c-0.9,0-1.7-0.2-2.4-0.6
			s-1.2-1-1.6-1.8c-0.4-0.8-0.6-1.6-0.6-2.6c0-1,0.2-1.8,0.6-2.6c0.4-0.7,0.9-1.3,1.6-1.7c0.7-0.4,1.5-0.6,2.4-0.6
			c1.4,0,2.4,0.5,3.1,1.5v-1.4H376.8z M373.3,139.4c0.5-0.5,0.7-1.1,0.7-1.9s-0.2-1.4-0.7-1.9c-0.4-0.5-1-0.7-1.7-0.7
			c-0.7,0-1.3,0.2-1.8,0.7c-0.4,0.5-0.7,1.1-0.7,1.9c0,0.8,0.2,1.4,0.7,1.9c0.5,0.5,1,0.7,1.8,0.7
			C372.3,140.1,372.9,139.8,373.3,139.4z"/>
		<path class="st4" d="M388.7,132.5v9.7H386v-1.7c-0.7,1.2-1.7,1.8-3.2,1.8c-1.1,0-1.9-0.3-2.5-1c-0.6-0.7-0.9-1.6-0.9-2.7v-6.1h2.8
			v5.3c0,0.6,0.2,1.1,0.5,1.4c0.3,0.3,0.8,0.5,1.3,0.5c0.7,0,1.2-0.2,1.6-0.7s0.6-1,0.6-1.8v-4.8H388.7z"/>
		<path class="st4" d="M393.9,128.7c0.3,0.3,0.4,0.7,0.4,1.1c0,0.5-0.1,0.8-0.4,1.1s-0.6,0.4-1.1,0.4c-0.4,0-0.8-0.1-1.1-0.4
			s-0.4-0.7-0.4-1.1c0-0.5,0.1-0.8,0.4-1.1s0.6-0.4,1.1-0.4C393.2,128.2,393.6,128.4,393.9,128.7z M391.4,132.5h2.8v9.7h-2.8V132.5z
			"/>
		<path class="st4" d="M396.4,132.6h8.3v1.7l-5,5.7h5.1v2.2l-8.6,0v-1.7l5-5.7l-4.8,0V132.6z"/>
		<path class="st4" d="M408.5,139.9c0.3,0.3,0.4,0.6,0.4,1c0,0.4-0.1,0.8-0.4,1c-0.3,0.3-0.6,0.4-1,0.4c-0.4,0-0.7-0.1-1-0.4
			c-0.3-0.3-0.4-0.6-0.4-1c0-0.4,0.1-0.8,0.4-1s0.6-0.4,1-0.4C407.9,139.5,408.2,139.7,408.5,139.9z"/>
	</g>
</g>
</svg>
