<svg xmlns="http://www.w3.org/2000/svg" viewBox="0 0 86.57 86.57"><defs><style>.cls-1{isolation:isolate;}.cls-2{mix-blend-mode:multiply;}.cls-3{fill:#fff;}.cls-4{fill:#45abe1;}</style></defs><title>TalkDefault_NP</title><g class="cls-1"><g id="Layer_2" data-name="Layer 2"><g id="Layer_1-2" data-name="Layer 1"><g class="cls-2"><circle class="cls-3" cx="45.78" cy="45.78" r="40.78"/></g><circle class="cls-4" cx="40.78" cy="40.78" r="40.78"/><path class="cls-3" d="M47.31,49.5a19.11,19.11,0,1,1-2.87-16.34L28.15,44.41ZM30,31a2.38,2.38,0,1,0,2.67,2A2.38,2.38,0,0,0,30,31Z"/><polygon class="cls-3" points="62.14 30.61 49.54 38.1 48.29 36.54 58.39 25.92 62.14 30.61"/><polygon class="cls-3" points="61.16 48.95 51.52 45.85 51.74 43.86 61.83 42.98 61.16 48.95"/><polygon class="cls-3" points="75.12 36.7 51.58 41.39 51.03 39.47 73.46 30.94 75.12 36.7"/></g></g></g></svg>