<svg xmlns="http://www.w3.org/2000/svg" viewBox="0 0 81.57 81.57"><defs><style>.cls-1{fill:#3b92c0;}.cls-2{fill:#fff;}</style></defs><title>Asset 22</title><g id="Layer_2" data-name="Layer 2"><g id="Layer_1-2" data-name="Layer 1"><circle class="cls-1" cx="40.78" cy="40.78" r="40.78"/><path class="cls-2" d="M48.31,49.5a19.11,19.11,0,1,1-2.87-16.34L29.15,44.41ZM31,31a2.38,2.38,0,1,0,2.67,2A2.38,2.38,0,0,0,31,31Z"/><polygon class="cls-2" points="63.14 30.61 50.54 38.1 49.29 36.54 59.39 25.92 63.14 30.61"/><polygon class="cls-2" points="62.16 48.95 52.52 45.85 52.74 43.86 62.83 42.98 62.16 48.95"/><polygon class="cls-2" points="76.12 36.7 52.58 41.39 52.03 39.47 74.46 30.94 76.12 36.7"/></g></g></svg>