<?xml version="1.0" encoding="utf-8"?>
<!-- Generator: Adobe Illustrator 23.0.2, SVG Export Plug-In . SVG Version: 6.00 Build 0)  -->
<svg version="1.1" id="Layer_1" xmlns="http://www.w3.org/2000/svg" xmlns:xlink="http://www.w3.org/1999/xlink" x="0px" y="0px"
	 viewBox="0 0 333.8 210.8" style="enable-background:new 0 0 333.8 210.8;" xml:space="preserve">
<style type="text/css">
	.st0{stroke:#000000;stroke-miterlimit:10;}
	.st1{stroke:#000000;stroke-width:0.9992;stroke-miterlimit:10;}
</style>
<title>Sea Amigos Animals</title>
<g>
	<path class="st0" d="M56.8,129.9c0,0,0.2,34.5-36.2,59.6c-9.6,7.4,0.4,12.2,9.5,9.7c8.1-2.2,30.1-4,52.6-32"/>
	<path class="st0" d="M15.8,57c0,0-9-34.4,25.5-53.3c41-16.2,62.6,25.8,62.6,25.8s13.9,1,26.1,23.7c0,0,72.2,10.7,99,87
		c36.1,23,42.1,8.4,56.3,15.7s43.9,37.8,48.1,50.9c2.9,5.9-8.4,3.8-12.9,3.1s-41.7-20.8-68.8-15.3s-133.9,6.9-147.1,3.8
		s-44.2,2.7-55.2-12.7S9.7,127.2,15.2,77L15.8,57z"/>
	<path class="st1" d="M121,58.4c0,0-7.6-20.8-17.1-28.9"/>
	<path class="st1" d="M133.9,110.2c0,0,5.2-29.1-3.9-56.9"/>
	<ellipse class="st0" cx="49.1" cy="76.5" rx="26.8" ry="15.6"/>
	<path class="st0" d="M21.3,71.8c0,0-11.9,31.5,0,85.8c0.5,2.1,3.6,1.8,3.6-0.3c0.6-20.3,3.3-57.9,15.2-85.7L21.3,71.8z"/>
	<path class="st0" d="M63.8,74.9c0,0,11.9,31.5,0,85.8c-0.5,2.1-3.6,1.8-3.6-0.3c-0.6-20.3-3.4-57.9-15.2-85.7L63.8,74.9z"/>
	<ellipse class="st0" cx="30.4" cy="64.8" rx="19.5" ry="19.6"/>
	<ellipse class="st0" cx="57.9" cy="65.1" rx="23.8" ry="20.5"/>
	<ellipse class="st0" cx="31.1" cy="31.6" rx="4.7" ry="8.4"/>
	<ellipse class="st0" cx="32.3" cy="29.5" rx="2" ry="2.1"/>
	<ellipse class="st0" cx="65.1" cy="33.2" rx="4.7" ry="8.4"/>
	<ellipse class="st0" cx="66.4" cy="31" rx="2" ry="2.1"/>
	<ellipse class="st0" cx="44" cy="50.4" rx="5.7" ry="4"/>
	<path class="st0" d="M141.6,133c0,0,11,48.5,51,66.4c10.6,5.5,1.6,12.1-7.7,11.3c-8.4-0.7-36.1,0-62.9-23.4"/>
	<path class="st1" d="M333.3,206.8c0,0-14.5-19.3-20.6-21.3"/>
	<path class="st1" d="M332.4,210.2c0,0-18.4-19.6-23.9-21"/>
	<path class="st1" d="M326.9,210.2c0,0-14.8-15.1-22.3-16.2"/>
	<path class="st0" d="M26.2,54.6c0,0.6-0.4,1-1,1c-0.5,0-1-0.5-1-1c0-0.6,0.4-1,1-1C25.8,53.6,26.2,54,26.2,54.6z"/>
	<path class="st0" d="M30.4,58.8c0,0.4-0.3,0.7-0.7,0.7c-0.4,0-0.7-0.3-0.7-0.7s0.3-0.7,0.7-0.7S30.4,58.4,30.4,58.8L30.4,58.8z"/>
	<ellipse class="st0" cx="22.2" cy="64" rx="0.5" ry="0.5"/>
	<path class="st0" d="M66.7,56.4c0,0.4-0.3,0.7-0.6,0.7c-0.4,0-0.6-0.3-0.6-0.7s0.3-0.7,0.6-0.7l0,0C66.4,55.7,66.7,56,66.7,56.4
		L66.7,56.4z"/>
	<ellipse class="st0" cx="28.7" cy="72.7" rx="0.6" ry="0.7"/>
	<path class="st0" d="M71.4,61.9c0,0.5-0.3,0.8-0.8,0.8c-0.4,0-0.8-0.4-0.8-0.8c0-0.5,0.3-0.8,0.8-0.8l0,0
		C71,61.1,71.4,61.5,71.4,61.9L71.4,61.9z"/>
	<path class="st0" d="M59.7,62.9c0,0.2-0.3,0.4-0.5,0.4s-0.3-0.2-0.4-0.4c0-0.2,0.1-0.5,0.4-0.5S59.6,62.5,59.7,62.9
		C59.7,62.8,59.7,62.9,59.7,62.9z"/>
	<path class="st0" d="M48.9,67.9c0,0.3-0.2,0.5-0.4,0.5s-0.4-0.2-0.4-0.5s0.2-0.5,0.4-0.5C48.7,67.5,48.9,67.7,48.9,67.9L48.9,67.9z
		"/>
	<path class="st0" d="M51.3,59.3c0,0.3-0.2,0.5-0.4,0.5s-0.4-0.2-0.4-0.5s0.2-0.5,0.4-0.5S51.3,59,51.3,59.3L51.3,59.3z"/>
	<path class="st0" d="M66.2,67.2c0,0.4-0.3,0.7-0.6,0.7c-0.4,0-0.6-0.3-0.6-0.7s0.3-0.7,0.6-0.7l0,0C65.9,66.6,66.2,66.9,66.2,67.2
		L66.2,67.2z"/>
	<path class="st0" d="M73.6,69.1c0,0.4-0.3,0.7-0.7,0.7c-0.4,0-0.7-0.3-0.7-0.7s0.3-0.7,0.7-0.7C73.2,68.4,73.6,68.7,73.6,69.1
		L73.6,69.1z"/>
	<path class="st0" d="M56.8,55.7c0,0.2-0.1,0.3-0.3,0.3s-0.3-0.2-0.3-0.3c0-0.2,0.1-0.3,0.3-0.3S56.8,55.5,56.8,55.7L56.8,55.7z"/>
	<ellipse class="st0" cx="46.2" cy="76.2" rx="0.3" ry="0.3"/>
	<path class="st0" d="M59,71.7c0,0.2-0.1,0.3-0.3,0.3s-0.3-0.1-0.3-0.3c0-0.2,0.1-0.3,0.3-0.3l0,0C58.8,71.4,59,71.5,59,71.7z"/>
	<path class="st0" d="M29,66.9c0,0.2-0.2,0.4-0.4,0.4c-0.2,0-0.4-0.2-0.4-0.4c0-0.2,0.2-0.4,0.4-0.4l0,0C28.8,66.5,29,66.7,29,66.9
		L29,66.9z"/>
	<ellipse class="st0" cx="36.9" cy="62.1" rx="0.4" ry="0.4"/>
	<path class="st0" d="M33.4,56.2c0,0.5-0.4,0.8-0.8,0.8c-0.4,0-0.8-0.4-0.8-0.8c0-0.5,0.4-0.8,0.8-0.8S33.4,55.8,33.4,56.2z"/>
	<ellipse class="st0" cx="41.7" cy="65.1" rx="0.8" ry="0.8"/>
	<path class="st0" d="M24.6,71.1c0,0.2-0.1,0.3-0.3,0.3l0,0c-0.2,0-0.3-0.2-0.2-0.3c0-0.1,0.1-0.2,0.2-0.2
		C24.5,70.8,24.6,70.9,24.6,71.1z"/>
	<path class="st0" d="M18.6,63.6c0,0.4-0.3,0.7-0.6,0.7c-0.4,0-0.6-0.3-0.6-0.7s0.3-0.7,0.6-0.7l0,0C18.3,62.9,18.6,63.2,18.6,63.6
		L18.6,63.6z"/>
	<ellipse class="st0" cx="19.9" cy="60.3" rx="0.5" ry="0.5"/>
	<path class="st0" d="M32,74.7c0,0.2-0.1,0.3-0.3,0.3c-0.2,0-0.3-0.1-0.3-0.3c0-0.2,0.1-0.3,0.3-0.3l0,0C31.9,74.4,32,74.5,32,74.7z
		"/>
	<path class="st0" d="M66.4,75.4c0,0.2-0.1,0.4-0.3,0.5c-0.2,0-0.4-0.1-0.5-0.4v-0.1c0-0.2,0.2-0.4,0.5-0.4
		C66.3,75.1,66.4,75.2,66.4,75.4z"/>
	<path class="st0" d="M38.9,72.1c0,0.2-0.2,0.4-0.4,0.4s-0.4-0.2-0.4-0.4c0-0.2,0.2-0.4,0.4-0.4l0,0C38.8,71.7,38.9,71.8,38.9,72.1
		L38.9,72.1z"/>
	<path class="st0" d="M23.9,59h-0.2l-0.8,0.1c-0.7,0.1-1.7,0.2-2.9,0.4c-3,0.5-5.9,1.4-8.8,2.6c-1.5,0.7-3,1.5-4.5,2.4
		c-0.7,0.5-1.4,1-2,1.5c-0.3,0.2-0.6,0.5-0.9,0.8S3.2,67.4,3,67.7c-0.2,0.2-0.5,0.5-0.7,0.8C2,68.8,1.8,69,1.6,69.3
		c-0.3,0.4-0.6,0.9-0.9,1.4c-0.3,0.4-0.4,0.8-0.5,1L0,72l0.2-0.4c0.2-0.4,0.3-0.7,0.5-1c0.3-0.5,0.6-1,0.9-1.5
		c0.2-0.3,0.4-0.5,0.6-0.8s0.4-0.6,0.7-0.8c0.2-0.3,0.5-0.6,0.8-0.9s0.6-0.6,0.9-0.8c0.6-0.6,1.3-1,2-1.6c1.5-1.1,3-2,4.5-2.7
		c2.9-1.4,5.8-2.4,8.8-3.1c1.2-0.3,2.2-0.5,2.9-0.6l0.8-0.1H24L23.9,59z"/>
	<path class="st0" d="M24.4,61.8c0,0-1.6,0.6-3.9,1.8c-1.2,0.6-2.5,1.4-3.9,2.3c-0.7,0.4-1.4,1-2.2,1.5c-0.7,0.5-1.5,1.1-2.2,1.7
		s-1.4,1.2-2.1,1.8s-1.4,1.3-2,2s-1.3,1.3-1.8,2s-1.1,1.3-1.5,2l-1.2,1.8c-0.4,0.5-0.7,1-0.9,1.5l-0.8,1.3L2.6,80
		c0.2-0.4,0.5-1,0.9-1.5l1.2-1.8c0.4-0.7,1-1.3,1.5-2.1s1.2-1.4,1.8-2.1s1.3-1.4,2-2.1s1.4-1.3,2.1-2c0.7-0.7,1.5-1.2,2.2-1.8
		s1.4-1.1,2.2-1.6c1.4-1,2.8-1.8,3.9-2.5c2.3-1.4,3.9-2.1,3.9-2.1L24.4,61.8z"/>
	<path class="st0" d="M24.8,65c-0.9,0.6-1.8,1.3-2.7,2.1c-0.8,0.7-1.7,1.5-2.7,2.5c-0.5,0.5-1,1-1.4,1.6c-0.5,0.5-1,1.2-1.4,1.8
		c-0.5,0.6-0.9,1.2-1.4,1.9c-0.4,0.7-0.9,1.3-1.2,2c-0.4,0.6-0.7,1.3-1.1,2c-0.3,0.6-0.6,1.2-0.9,1.9l-0.7,1.7
		c-0.2,0.5-0.3,1-0.5,1.4l-0.4,1.2l0.4-1.2c0.1-0.4,0.2-0.9,0.4-1.4l0.7-1.7c0.3-0.7,0.5-1.3,0.8-2s0.7-1.4,1-2.1
		c0.4-0.7,0.8-1.4,1.2-2.1s0.9-1.4,1.3-2.1c0.4-0.7,0.9-1.3,1.4-1.9s0.9-1.2,1.4-1.7c0.9-1,1.9-2,2.6-2.8c0.9-0.9,1.8-1.6,2.8-2.3
		L24.8,65z"/>
	<path class="st0" d="M62,59.9h0.5l1.1,0.1c1,0.1,2.3,0.3,3.9,0.5c3.9,0.6,7.8,1.6,11.6,3c1,0.4,2,0.8,3,1.2c1,0.4,1.9,0.9,2.8,1.4
		s1.8,1,2.5,1.6c0.7,0.5,1.4,1.1,2.1,1.7c0.3,0.3,0.6,0.6,0.9,0.8c0.3,0.2,0.5,0.5,0.7,0.8c0.4,0.4,0.8,0.9,1.1,1.4
		c0.3,0.4,0.5,0.7,0.6,1c0.1,0.2,0.2,0.4,0.2,0.4l0-0.5c-0.2-0.2-0.3-0.6-0.6-0.9c-0.4-0.5-0.7-0.9-1.1-1.3
		c-0.2-0.3-0.5-0.5-0.8-0.8s-0.6-0.5-0.9-0.8c-0.7-0.6-1.4-1.1-2.1-1.6c-0.8-0.5-1.7-1-2.6-1.5C84,66,83,65.5,82.1,65.1
		c-1-0.4-2-0.8-3-1.1c-3.8-1.2-7.7-2-11.6-2.5c-1.6-0.2-2.9-0.3-3.9-0.4L62.5,61h-0.3L62,59.9z"/>
	<path class="st0" d="M61.7,62.7c0,0,2.1,0.7,5.2,2c1.5,0.7,3.3,1.5,5.2,2.5c1,0.5,1.9,1,2.8,1.6c1,0.5,1.9,1.2,2.8,1.8
		s1.9,1.2,2.7,1.9c0.9,0.7,1.8,1.3,2.6,2.1c0.8,0.8,1.6,1.3,2.3,2.1s1.4,1.3,1.9,2l1.5,1.7c0.4,0.5,0.8,1,1.1,1.5l0.9,1.3l-1-1.2
		c-0.3-0.4-0.7-0.9-1.1-1.4L87,78.9c-0.6-0.6-1.3-1.2-1.9-1.9c-0.7-0.7-1.5-1.3-2.3-2s-1.7-1.3-2.6-1.9c-0.9-0.7-1.8-1.2-2.8-1.8
		c-0.9-0.6-1.9-1.1-2.9-1.7c-1-0.5-1.9-1-2.8-1.5c-1.9-0.9-3.6-1.7-5.2-2.2c-3.1-1.2-5.2-1.8-5.2-1.8L61.7,62.7z"/>
	<path class="st0" d="M61.4,65.8c1.3,0.7,2.5,1.5,3.7,2.4c0.5,0.4,1.1,0.8,1.7,1.3s1.2,1,1.8,1.5c0.6,0.5,1.2,1.1,1.9,1.7
		s1.2,1.2,1.8,1.9c0.6,0.7,1.2,1.3,1.7,2.1c0.3,0.4,0.5,0.7,0.8,1l0.7,1l0.7,1c0.2,0.4,0.4,0.7,0.6,1c0.4,0.6,0.7,1.2,1,1.9l0.8,1.6
		l0.5,1.3l0.5,1l-0.5-1c-0.1-0.4-0.3-0.8-0.5-1.3s-0.5-1-0.8-1.6s-0.7-1.2-1.1-1.8l-0.6-1l-0.7-1l-0.7-1l-0.8-1
		c-0.5-0.7-1.1-1.3-1.8-1.9c-0.6-0.6-1.2-1.2-1.8-1.8c-0.6-0.6-1.3-1.1-1.9-1.6c-0.7-0.5-1.2-1-1.8-1.4c-0.6-0.4-1.2-0.8-1.7-1.2
		c-1.2-0.8-2.4-1.5-3.6-2.1L61.4,65.8z"/>
</g>
</svg>
