<?xml version="1.0" encoding="utf-8"?>
<!-- Generator: Adobe Illustrator 19.0.0, SVG Export Plug-In . SVG Version: 6.00 Build 0)  -->
<svg version="1.1" id="Layer_1" xmlns="http://www.w3.org/2000/svg" xmlns:xlink="http://www.w3.org/1999/xlink" x="0px" y="0px"
	 viewBox="-331 175.1 273.9 210.8" style="enable-background:new -331 175.1 273.9 210.8;" xml:space="preserve">
<style type="text/css">
	.st0{fill:#8B5E3C;}
	.st1{fill:none;stroke:#754C29;stroke-width:0.9992;stroke-miterlimit:10;}
	.st2{fill:#3C2415;}
	.st3{fill:#FFFFFF;}
	.st4{fill:#603913;}
	.st5{fill:#231F20;}
	.st6{fill:#F9AC90;}
	.st7{fill:#C49A6C;}
	.st8{fill:#C2B59B;}
</style>
<title>Sea Amigos Animals</title>
<g>
	<path class="st0" d="M-274.2,305.1c0,0,0.2,34.5-36.2,59.6c-9.6,7.4,0.4,12.2,9.5,9.7c8.1-2.2,30.1-4,52.6-32"/>
	<path class="st0" d="M-315.2,232.2c0,0-9-34.4,25.5-53.3c41-16.2,62.6,25.8,62.6,25.8s13.9,1,26.1,23.7c0,0,72.2,10.7,99,87
		c5.7,5.5,2.1,8.4,16.3,15.7c14.2,7.3,23.9,27.8,28.1,40.9c2.9,5.9-8.4,3.8-12.9,3.1c-4.5-0.7-21.7-10.8-48.8-5.3
		c-27.1,5.5-93.9,6.9-107.1,3.8c-13.2-3.1-44.2,2.7-55.2-12.7s-39.7-58.5-34.2-108.7L-315.2,232.2z"/>
	<path class="st1" d="M-210,233.6c0,0-7.6-20.8-17.1-28.9"/>
	<path class="st1" d="M-197.1,285.4c0,0,5.2-29.1-3.9-56.9"/>
	<ellipse class="st2" cx="-281.9" cy="251.7" rx="26.8" ry="15.6"/>
	<path class="st3" d="M-309.7,247c0,0-11.9,31.5,0,85.8c0.5,2.1,3.6,1.8,3.6-0.3c0.6-20.3,3.3-57.9,15.2-85.7L-309.7,247z"/>
	<path class="st3" d="M-267.2,250.1c0,0,11.9,31.5,0,85.8c-0.5,2.1-3.6,1.8-3.6-0.3c-0.6-20.3-3.4-57.9-15.2-85.7L-267.2,250.1z"/>
	<ellipse class="st4" cx="-300.6" cy="240" rx="19.5" ry="19.6"/>
	<ellipse class="st4" cx="-273.1" cy="240.3" rx="23.8" ry="20.5"/>
	<ellipse class="st5" cx="-299.9" cy="206.8" rx="4.7" ry="8.4"/>
	<ellipse class="st3" cx="-298.7" cy="204.7" rx="2" ry="2.1"/>
	<ellipse class="st5" cx="-265.9" cy="208.4" rx="4.7" ry="8.4"/>
	<ellipse class="st3" cx="-264.6" cy="206.2" rx="2" ry="2.1"/>
	<ellipse class="st6" cx="-287" cy="225.6" rx="5.7" ry="4"/>
	<path class="st0" d="M-189.4,308.2c0,0,11,48.5,51,66.4c10.6,5.5,1.6,12.1-7.7,11.3c-8.4-0.7-36.1,0-62.9-23.4"/>
	<path class="st1" d="M-57.7,372.3c0,0-14.5-19.3-20.6-21.3"/>
	<path class="st1" d="M-58.6,375.7c0,0-18.4-19.6-23.9-21"/>
	<path class="st1" d="M-64.1,375.7c0,0-14.8-15.1-22.3-16.2"/>
	<path class="st7" d="M-304.8,229.8c0,0.6-0.4,1-1,1c-0.5,0-1-0.5-1-1c0-0.6,0.4-1,1-1S-304.8,229.2-304.8,229.8z"/>
	<path class="st7" d="M-300.6,234c0,0.4-0.3,0.7-0.7,0.7s-0.7-0.3-0.7-0.7c0-0.4,0.3-0.7,0.7-0.7S-300.6,233.6-300.6,234L-300.6,234
		z"/>
	<ellipse class="st7" cx="-308.8" cy="239.2" rx="0.5" ry="0.5"/>
	<path class="st7" d="M-264.3,231.6c0,0.4-0.3,0.7-0.6,0.7c-0.4,0-0.6-0.3-0.6-0.7c0-0.4,0.3-0.7,0.6-0.7l0,0
		C-264.6,230.9-264.3,231.2-264.3,231.6L-264.3,231.6z"/>
	<ellipse class="st7" cx="-302.3" cy="247.9" rx="0.6" ry="0.7"/>
	<path class="st7" d="M-259.6,237.1c0,0.5-0.3,0.8-0.8,0.8c-0.4,0-0.8-0.4-0.8-0.8c0-0.5,0.3-0.8,0.8-0.8l0,0
		C-260,236.3-259.6,236.7-259.6,237.1L-259.6,237.1z"/>
	<path class="st7" d="M-271.3,238.1c0,0.2-0.3,0.4-0.5,0.4s-0.3-0.2-0.4-0.4c0-0.2,0.1-0.5,0.4-0.5S-271.4,237.7-271.3,238.1
		C-271.3,238-271.3,238.1-271.3,238.1z"/>
	<path class="st7" d="M-282.1,243.1c0,0.3-0.2,0.5-0.4,0.5c-0.2,0-0.4-0.2-0.4-0.5c0-0.3,0.2-0.5,0.4-0.5
		C-282.3,242.7-282.1,242.9-282.1,243.1L-282.1,243.1z"/>
	<path class="st7" d="M-279.7,234.5c0,0.3-0.2,0.5-0.4,0.5s-0.4-0.2-0.4-0.5s0.2-0.5,0.4-0.5S-279.7,234.2-279.7,234.5L-279.7,234.5
		z"/>
	<path class="st7" d="M-264.8,242.4c0,0.4-0.3,0.7-0.6,0.7c-0.4,0-0.6-0.3-0.6-0.7c0-0.4,0.3-0.7,0.6-0.7l0,0
		C-265.1,241.8-264.8,242.1-264.8,242.4L-264.8,242.4z"/>
	<path class="st7" d="M-257.4,244.3c0,0.4-0.3,0.7-0.7,0.7s-0.7-0.3-0.7-0.7c0-0.4,0.3-0.7,0.7-0.7
		C-257.8,243.6-257.4,243.9-257.4,244.3L-257.4,244.3z"/>
	<path class="st7" d="M-274.2,230.9c0,0.2-0.1,0.3-0.3,0.3c-0.2,0-0.3-0.2-0.3-0.3c0-0.2,0.1-0.3,0.3-0.3
		C-274.3,230.6-274.2,230.7-274.2,230.9L-274.2,230.9z"/>
	<ellipse class="st7" cx="-284.8" cy="251.4" rx="0.3" ry="0.3"/>
	<path class="st7" d="M-272,246.9c0,0.2-0.1,0.3-0.3,0.3s-0.3-0.1-0.3-0.3s0.1-0.3,0.3-0.3l0,0C-272.2,246.6-272,246.7-272,246.9z"
		/>
	<path class="st7" d="M-302,242.1c0,0.2-0.2,0.4-0.4,0.4c-0.2,0-0.4-0.2-0.4-0.4c0-0.2,0.2-0.4,0.4-0.4l0,0
		C-302.2,241.7-302,241.9-302,242.1L-302,242.1z"/>
	<ellipse class="st7" cx="-294.1" cy="237.3" rx="0.4" ry="0.4"/>
	<path class="st7" d="M-297.6,231.4c0,0.5-0.4,0.8-0.8,0.8c-0.4,0-0.8-0.4-0.8-0.8c0-0.5,0.4-0.8,0.8-0.8S-297.6,231-297.6,231.4z"
		/>
	<ellipse class="st7" cx="-289.3" cy="240.3" rx="0.8" ry="0.8"/>
	<path class="st7" d="M-306.4,246.3c0,0.2-0.1,0.3-0.3,0.3l0,0c-0.2,0-0.3-0.2-0.2-0.3c0-0.1,0.1-0.2,0.2-0.2
		C-306.5,246-306.4,246.1-306.4,246.3z"/>
	<path class="st7" d="M-312.4,238.8c0,0.4-0.3,0.7-0.6,0.7c-0.4,0-0.6-0.3-0.6-0.7c0-0.4,0.3-0.7,0.6-0.7l0,0
		C-312.7,238.1-312.4,238.4-312.4,238.8L-312.4,238.8z"/>
	<ellipse class="st7" cx="-311.1" cy="235.5" rx="0.5" ry="0.5"/>
	<path class="st7" d="M-299,249.9c0,0.2-0.1,0.3-0.3,0.3s-0.3-0.1-0.3-0.3s0.1-0.3,0.3-0.3l0,0C-299.1,249.6-299,249.7-299,249.9z"
		/>
	<path class="st7" d="M-264.6,250.6c0,0.2-0.1,0.4-0.3,0.5c-0.2,0-0.4-0.1-0.5-0.4v-0.1c0-0.2,0.2-0.4,0.5-0.4
		C-264.7,250.3-264.6,250.4-264.6,250.6z"/>
	<path class="st7" d="M-292.1,247.3c0,0.2-0.2,0.4-0.4,0.4c-0.2,0-0.4-0.2-0.4-0.4c0-0.2,0.2-0.4,0.4-0.4l0,0
		C-292.2,246.9-292.1,247-292.1,247.3L-292.1,247.3z"/>
	<path class="st8" d="M-307.1,234.2h-0.2l-0.8,0.1c-0.7,0.1-1.7,0.2-2.9,0.4c-3,0.5-5.9,1.4-8.8,2.6c-1.5,0.7-3,1.5-4.5,2.4
		c-0.7,0.5-1.4,1-2,1.5c-0.3,0.2-0.6,0.5-0.9,0.8s-0.6,0.6-0.8,0.9c-0.2,0.2-0.5,0.5-0.7,0.8c-0.3,0.3-0.5,0.5-0.7,0.8
		c-0.3,0.4-0.6,0.9-0.9,1.4c-0.3,0.4-0.4,0.8-0.5,1l-0.2,0.3l0.2-0.4c0.2-0.4,0.3-0.7,0.5-1c0.3-0.5,0.6-1,0.9-1.5
		c0.2-0.3,0.4-0.5,0.6-0.8s0.4-0.6,0.7-0.8c0.2-0.3,0.5-0.6,0.8-0.9c0.3-0.3,0.6-0.6,0.9-0.8c0.6-0.6,1.3-1,2-1.6
		c1.5-1.1,3-2,4.5-2.7c2.9-1.4,5.8-2.4,8.8-3.1c1.2-0.3,2.2-0.5,2.9-0.6l0.8-0.1h0.4L-307.1,234.2z"/>
	<path class="st8" d="M-306.6,237c0,0-1.6,0.6-3.9,1.8c-1.2,0.6-2.5,1.4-3.9,2.3c-0.7,0.4-1.4,1-2.2,1.5c-0.7,0.5-1.5,1.1-2.2,1.7
		c-0.7,0.6-1.4,1.2-2.1,1.8c-0.7,0.6-1.4,1.3-2,2c-0.6,0.7-1.3,1.3-1.8,2c-0.5,0.7-1.1,1.3-1.5,2l-1.2,1.8c-0.4,0.5-0.7,1-0.9,1.5
		l-0.8,1.3l0.7-1.5c0.2-0.4,0.5-1,0.9-1.5l1.2-1.8c0.4-0.7,1-1.3,1.5-2.1c0.5-0.8,1.2-1.4,1.8-2.1c0.6-0.7,1.3-1.4,2-2.1
		c0.7-0.7,1.4-1.3,2.1-2c0.7-0.7,1.5-1.2,2.2-1.8c0.7-0.6,1.4-1.1,2.2-1.6c1.4-1,2.8-1.8,3.9-2.5c2.3-1.4,3.9-2.1,3.9-2.1
		L-306.6,237z"/>
	<path class="st8" d="M-306.2,240.2c-0.9,0.6-1.8,1.3-2.7,2.1c-0.8,0.7-1.7,1.5-2.7,2.5c-0.5,0.5-1,1-1.4,1.6
		c-0.5,0.5-1,1.2-1.4,1.8c-0.5,0.6-0.9,1.2-1.4,1.9c-0.4,0.7-0.9,1.3-1.2,2c-0.4,0.6-0.7,1.3-1.1,2c-0.3,0.6-0.6,1.2-0.9,1.9
		l-0.7,1.7c-0.2,0.5-0.3,1-0.5,1.4l-0.4,1.2l0.4-1.2c0.1-0.4,0.2-0.9,0.4-1.4l0.7-1.7c0.3-0.7,0.5-1.3,0.8-2s0.7-1.4,1-2.1
		c0.4-0.7,0.8-1.4,1.2-2.1c0.4-0.7,0.9-1.4,1.3-2.1c0.4-0.7,0.9-1.3,1.4-1.9c0.5-0.6,0.9-1.2,1.4-1.7c0.9-1,1.9-2,2.6-2.8
		c0.9-0.9,1.8-1.6,2.8-2.3L-306.2,240.2z"/>
	<path class="st8" d="M-269,235.1h0.5l1.1,0.1c1,0.1,2.3,0.3,3.9,0.5c3.9,0.6,7.8,1.6,11.6,3c1,0.4,2,0.8,3,1.2
		c1,0.4,1.9,0.9,2.8,1.4c0.9,0.5,1.8,1,2.5,1.6c0.7,0.5,1.4,1.1,2.1,1.7c0.3,0.3,0.6,0.6,0.9,0.8c0.3,0.2,0.5,0.5,0.7,0.8
		c0.4,0.4,0.8,0.9,1.1,1.4c0.3,0.4,0.5,0.7,0.6,1c0.1,0.2,0.2,0.4,0.2,0.4v-0.5c-0.2-0.2-0.3-0.6-0.6-0.9c-0.4-0.5-0.7-0.9-1.1-1.3
		c-0.2-0.3-0.5-0.5-0.8-0.8s-0.6-0.5-0.9-0.8c-0.7-0.6-1.4-1.1-2.1-1.6c-0.8-0.5-1.7-1-2.6-1.5c-0.9-0.4-1.9-0.9-2.8-1.3
		c-1-0.4-2-0.8-3-1.1c-3.8-1.2-7.7-2-11.6-2.5c-1.6-0.2-2.9-0.3-3.9-0.4l-1.1-0.1h-0.3L-269,235.1z"/>
	<path class="st8" d="M-269.3,237.9c0,0,2.1,0.7,5.2,2c1.5,0.7,3.3,1.5,5.2,2.5c1,0.5,1.9,1,2.8,1.6c1,0.5,1.9,1.2,2.8,1.8
		c0.9,0.6,1.9,1.2,2.7,1.9c0.9,0.7,1.8,1.3,2.6,2.1c0.8,0.8,1.6,1.3,2.3,2.1s1.4,1.3,1.9,2l1.5,1.7c0.4,0.5,0.8,1,1.1,1.5l0.9,1.3
		l-1-1.2c-0.3-0.4-0.7-0.9-1.1-1.4l-1.6-1.7c-0.6-0.6-1.3-1.2-1.9-1.9c-0.7-0.7-1.5-1.3-2.3-2s-1.7-1.3-2.6-1.9
		c-0.9-0.7-1.8-1.2-2.8-1.8c-0.9-0.6-1.9-1.1-2.9-1.7c-1-0.5-1.9-1-2.8-1.5c-1.9-0.9-3.6-1.7-5.2-2.2c-3.1-1.2-5.2-1.8-5.2-1.8
		L-269.3,237.9z"/>
	<path class="st8" d="M-269.6,241c1.3,0.7,2.5,1.5,3.7,2.4c0.5,0.4,1.1,0.8,1.7,1.3c0.6,0.5,1.2,1,1.8,1.5s1.2,1.1,1.9,1.7
		c0.7,0.6,1.2,1.2,1.8,1.9c0.6,0.7,1.2,1.3,1.7,2.1c0.3,0.4,0.5,0.7,0.8,1l0.7,1l0.7,1c0.2,0.4,0.4,0.7,0.6,1c0.4,0.6,0.7,1.2,1,1.9
		l0.8,1.6l0.5,1.3l0.5,1l-0.5-1c-0.1-0.4-0.3-0.8-0.5-1.3s-0.5-1-0.8-1.6s-0.7-1.2-1.1-1.8l-0.6-1l-0.7-1l-0.7-1l-0.8-1
		c-0.5-0.7-1.1-1.3-1.8-1.9c-0.6-0.6-1.2-1.2-1.8-1.8c-0.6-0.6-1.3-1.1-1.9-1.6c-0.7-0.5-1.2-1-1.8-1.4c-0.6-0.4-1.2-0.8-1.7-1.2
		c-1.2-0.8-2.4-1.5-3.6-2.1L-269.6,241z"/>
</g>
</svg>
