<?xml version="1.0" encoding="utf-8"?>
<!-- Generator: Adobe Illustrator 19.0.0, SVG Export Plug-In . SVG Version: 6.00 Build 0)  -->
<svg version="1.1" id="Layer_1" xmlns="http://www.w3.org/2000/svg" xmlns:xlink="http://www.w3.org/1999/xlink" x="0px" y="0px"
	 viewBox="147 -85.8 295.3 210.8" style="enable-background:new 147 -85.8 295.3 210.8;" xml:space="preserve">
<style type="text/css">
	.st0{fill:#8B5E3C;}
	.st1{fill:none;stroke:#754C29;stroke-width:0.9992;stroke-miterlimit:10;}
	.st2{fill:#3C2415;}
	.st3{fill:#FFFFFF;}
	.st4{fill:#603913;}
	.st5{fill:#231F20;}
	.st6{fill:#F9AC90;}
	.st7{fill:#C49A6C;}
	.st8{fill:#C2B59B;}
</style>
<title>Sea Amigos Animals</title>
<g>
	<path class="st0" d="M203.8,44.1c0,0,0.2,34.5-36.2,59.6c-9.6,7.4,0.4,12.2,9.5,9.7c8.1-2.2,30.1-4,52.6-32"/>
	<path class="st0" d="M162.8-28.8c0,0-9-34.4,25.5-53.3c41-16.2,62.6,25.8,62.6,25.8s13.9,1,26.1,23.7c0,0,72.2,10.7,99,87
		c5.7,5.5,2.1,8.4,16.3,15.7s43.9,37.8,48.1,50.9c2.9,5.9-8.4,3.8-12.9,3.1s-41.7-20.8-68.8-15.3c-27.1,5.5-93.9,6.9-107.1,3.8
		c-13.2-3.1-44.2,2.7-55.2-12.7S156.7,41.4,162.2-8.8L162.8-28.8z"/>
	<path class="st1" d="M268-27.4c0,0-7.6-20.8-17.1-28.9"/>
	<path class="st1" d="M280.9,24.4c0,0,5.2-29.1-3.9-56.9"/>
	<ellipse class="st2" cx="196.1" cy="-9.3" rx="26.8" ry="15.6"/>
	<path class="st3" d="M168.3-14c0,0-11.9,31.5,0,85.8c0.5,2.1,3.6,1.8,3.6-0.3c0.6-20.3,3.3-57.9,15.2-85.7L168.3-14z"/>
	<path class="st3" d="M210.8-10.9c0,0,11.9,31.5,0,85.8c-0.5,2.1-3.6,1.8-3.6-0.3c-0.6-20.3-3.4-57.9-15.2-85.7L210.8-10.9z"/>
	<ellipse class="st4" cx="177.4" cy="-21" rx="19.5" ry="19.6"/>
	<ellipse class="st4" cx="204.9" cy="-20.7" rx="23.8" ry="20.5"/>
	<ellipse class="st5" cx="178.1" cy="-54.2" rx="4.7" ry="8.4"/>
	<ellipse class="st3" cx="179.3" cy="-56.3" rx="2" ry="2.1"/>
	<ellipse class="st5" cx="212.1" cy="-52.6" rx="4.7" ry="8.4"/>
	<ellipse class="st3" cx="213.4" cy="-54.8" rx="2" ry="2.1"/>
	<ellipse class="st6" cx="191" cy="-35.4" rx="5.7" ry="4"/>
	<path class="st0" d="M288.6,47.2c0,0,11,48.5,51,66.4c10.6,5.5,1.6,12.1-7.7,11.3c-8.4-0.7-36.1,0-62.9-23.4"/>
	<path class="st1" d="M440.3,121c0,0-14.5-19.3-20.6-21.3"/>
	<path class="st1" d="M439.4,124.4c0,0-18.4-19.6-23.9-21"/>
	<path class="st1" d="M433.9,124.4c0,0-14.8-15.1-22.3-16.2"/>
	<path class="st7" d="M173.2-31.2c0,0.6-0.4,1-1,1c-0.5,0-1-0.5-1-1c0-0.6,0.4-1,1-1C172.8-32.2,173.2-31.8,173.2-31.2z"/>
	<path class="st7" d="M177.4-27c0,0.4-0.3,0.7-0.7,0.7c-0.4,0-0.7-0.3-0.7-0.7s0.3-0.7,0.7-0.7C177.1-27.7,177.4-27.4,177.4-27
		L177.4-27z"/>
	<ellipse class="st7" cx="169.2" cy="-21.8" rx="0.5" ry="0.5"/>
	<path class="st7" d="M213.7-29.4c0,0.4-0.3,0.7-0.6,0.7c-0.4,0-0.6-0.3-0.6-0.7s0.3-0.7,0.6-0.7l0,0
		C213.4-30.1,213.7-29.8,213.7-29.4L213.7-29.4z"/>
	<ellipse class="st7" cx="175.7" cy="-13.1" rx="0.6" ry="0.7"/>
	<path class="st7" d="M218.4-23.9c0,0.5-0.3,0.8-0.8,0.8c-0.4,0-0.8-0.4-0.8-0.8c0-0.5,0.3-0.8,0.8-0.8l0,0
		C218-24.7,218.4-24.3,218.4-23.9L218.4-23.9z"/>
	<path class="st7" d="M206.7-22.9c0,0.2-0.3,0.4-0.5,0.4s-0.3-0.2-0.4-0.4c0-0.2,0.1-0.5,0.4-0.5S206.6-23.3,206.7-22.9
		C206.7-23,206.7-22.9,206.7-22.9z"/>
	<path class="st7" d="M195.9-17.9c0,0.3-0.2,0.5-0.4,0.5s-0.4-0.2-0.4-0.5s0.2-0.5,0.4-0.5C195.7-18.3,195.9-18.1,195.9-17.9
		L195.9-17.9z"/>
	<path class="st7" d="M198.3-26.5c0,0.3-0.2,0.5-0.4,0.5c-0.2,0-0.4-0.2-0.4-0.5s0.2-0.5,0.4-0.5C198.1-27,198.3-26.8,198.3-26.5
		L198.3-26.5z"/>
	<path class="st7" d="M213.2-18.6c0,0.4-0.3,0.7-0.6,0.7c-0.4,0-0.6-0.3-0.6-0.7s0.3-0.7,0.6-0.7l0,0
		C212.9-19.2,213.2-18.9,213.2-18.6L213.2-18.6z"/>
	<path class="st7" d="M220.6-16.7c0,0.4-0.3,0.7-0.7,0.7s-0.7-0.3-0.7-0.7s0.3-0.7,0.7-0.7C220.2-17.4,220.6-17.1,220.6-16.7
		L220.6-16.7z"/>
	<path class="st7" d="M203.8-30.1c0,0.2-0.1,0.3-0.3,0.3s-0.3-0.2-0.3-0.3c0-0.2,0.1-0.3,0.3-0.3S203.8-30.3,203.8-30.1L203.8-30.1z
		"/>
	<ellipse class="st7" cx="193.2" cy="-9.6" rx="0.3" ry="0.3"/>
	<path class="st7" d="M206-14.1c0,0.2-0.1,0.3-0.3,0.3s-0.3-0.1-0.3-0.3c0-0.2,0.1-0.3,0.3-0.3l0,0C205.8-14.4,206-14.3,206-14.1z"
		/>
	<path class="st7" d="M176-18.9c0,0.2-0.2,0.4-0.4,0.4c-0.2,0-0.4-0.2-0.4-0.4c0-0.2,0.2-0.4,0.4-0.4l0,0
		C175.8-19.3,176-19.1,176-18.9L176-18.9z"/>
	<ellipse class="st7" cx="183.9" cy="-23.7" rx="0.4" ry="0.4"/>
	<path class="st7" d="M180.4-29.6c0,0.5-0.4,0.8-0.8,0.8c-0.4,0-0.8-0.4-0.8-0.8c0-0.5,0.4-0.8,0.8-0.8S180.4-30,180.4-29.6z"/>
	<ellipse class="st7" cx="188.7" cy="-20.7" rx="0.8" ry="0.8"/>
	<path class="st7" d="M171.6-14.7c0,0.2-0.1,0.3-0.3,0.3l0,0c-0.2,0-0.3-0.2-0.2-0.3c0-0.1,0.1-0.2,0.2-0.2
		C171.5-15,171.6-14.9,171.6-14.7z"/>
	<path class="st7" d="M165.6-22.2c0,0.4-0.3,0.7-0.6,0.7c-0.4,0-0.6-0.3-0.6-0.7s0.3-0.7,0.6-0.7l0,0
		C165.3-22.9,165.6-22.6,165.6-22.2L165.6-22.2z"/>
	<ellipse class="st7" cx="166.9" cy="-25.5" rx="0.5" ry="0.5"/>
	<path class="st7" d="M179-11.1c0,0.2-0.1,0.3-0.3,0.3s-0.3-0.1-0.3-0.3c0-0.2,0.1-0.3,0.3-0.3l0,0C178.9-11.4,179-11.3,179-11.1z"
		/>
	<path class="st7" d="M213.4-10.4c0,0.2-0.1,0.4-0.3,0.5c-0.2,0-0.4-0.1-0.5-0.4v-0.1c0-0.2,0.2-0.4,0.5-0.4
		C213.3-10.7,213.4-10.6,213.4-10.4z"/>
	<path class="st7" d="M185.9-13.7c0,0.2-0.2,0.4-0.4,0.4s-0.4-0.2-0.4-0.4c0-0.2,0.2-0.4,0.4-0.4l0,0
		C185.8-14.1,185.9-14,185.9-13.7L185.9-13.7z"/>
	<path class="st8" d="M170.9-26.8h-0.2l-0.8,0.1c-0.7,0.1-1.7,0.2-2.9,0.4c-3,0.5-5.9,1.4-8.8,2.6c-1.5,0.7-3,1.5-4.5,2.4
		c-0.7,0.5-1.4,1-2,1.5c-0.3,0.2-0.6,0.5-0.9,0.8s-0.6,0.6-0.8,0.9c-0.2,0.2-0.5,0.5-0.7,0.8c-0.3,0.3-0.5,0.5-0.7,0.8
		c-0.3,0.4-0.6,0.9-0.9,1.4c-0.3,0.4-0.4,0.8-0.5,1l-0.2,0.3l0.2-0.4c0.2-0.4,0.3-0.7,0.5-1c0.3-0.5,0.6-1,0.9-1.5
		c0.2-0.3,0.4-0.5,0.6-0.8s0.4-0.6,0.7-0.8c0.2-0.3,0.5-0.6,0.8-0.9s0.6-0.6,0.9-0.8c0.6-0.6,1.3-1,2-1.6c1.5-1.1,3-2,4.5-2.7
		c2.9-1.4,5.8-2.4,8.8-3.1c1.2-0.3,2.2-0.5,2.9-0.6l0.8-0.1h0.4L170.9-26.8z"/>
	<path class="st8" d="M171.4-24c0,0-1.6,0.6-3.9,1.8c-1.2,0.6-2.5,1.4-3.9,2.3c-0.7,0.4-1.4,1-2.2,1.5c-0.7,0.5-1.5,1.1-2.2,1.7
		s-1.4,1.2-2.1,1.8c-0.7,0.6-1.4,1.3-2,2c-0.6,0.7-1.3,1.3-1.8,2s-1.1,1.3-1.5,2l-1.2,1.8c-0.4,0.5-0.7,1-0.9,1.5l-0.8,1.3l0.7-1.5
		c0.2-0.4,0.5-1,0.9-1.5l1.2-1.8c0.4-0.7,1-1.3,1.5-2.1s1.2-1.4,1.8-2.1s1.3-1.4,2-2.1s1.4-1.3,2.1-2c0.7-0.7,1.5-1.2,2.2-1.8
		s1.4-1.1,2.2-1.6c1.4-1,2.8-1.8,3.9-2.5c2.3-1.4,3.9-2.1,3.9-2.1L171.4-24z"/>
	<path class="st8" d="M171.8-20.8c-0.9,0.6-1.8,1.3-2.7,2.1c-0.8,0.7-1.7,1.5-2.7,2.5c-0.5,0.5-1,1-1.4,1.6c-0.5,0.5-1,1.2-1.4,1.8
		c-0.5,0.6-0.9,1.2-1.4,1.9c-0.4,0.7-0.9,1.3-1.2,2c-0.4,0.6-0.7,1.3-1.1,2c-0.3,0.6-0.6,1.2-0.9,1.9l-0.7,1.7
		c-0.2,0.5-0.3,1-0.5,1.4l-0.4,1.2l0.4-1.2c0.1-0.4,0.2-0.9,0.4-1.4l0.7-1.7c0.3-0.7,0.5-1.3,0.8-2s0.7-1.4,1-2.1
		c0.4-0.7,0.8-1.4,1.2-2.1c0.4-0.7,0.9-1.4,1.3-2.1c0.4-0.7,0.9-1.3,1.4-1.9s0.9-1.2,1.4-1.7c0.9-1,1.9-2,2.6-2.8
		c0.9-0.9,1.8-1.6,2.8-2.3L171.8-20.8z"/>
	<path class="st8" d="M209-25.9h0.5l1.1,0.1c1,0.1,2.3,0.3,3.9,0.5c3.9,0.6,7.8,1.6,11.6,3c1,0.4,2,0.8,3,1.2c1,0.4,1.9,0.9,2.8,1.4
		c0.9,0.5,1.8,1,2.5,1.6c0.7,0.5,1.4,1.1,2.1,1.7c0.3,0.3,0.6,0.6,0.9,0.8c0.3,0.2,0.5,0.5,0.7,0.8c0.4,0.4,0.8,0.9,1.1,1.4
		c0.3,0.4,0.5,0.7,0.6,1c0.1,0.2,0.2,0.4,0.2,0.4v-0.5c-0.2-0.2-0.3-0.6-0.6-0.9c-0.4-0.5-0.7-0.9-1.1-1.3c-0.2-0.3-0.5-0.5-0.8-0.8
		s-0.6-0.5-0.9-0.8c-0.7-0.6-1.4-1.1-2.1-1.6c-0.8-0.5-1.7-1-2.6-1.5c-0.9-0.4-1.9-0.9-2.8-1.3c-1-0.4-2-0.8-3-1.1
		c-3.8-1.2-7.7-2-11.6-2.5c-1.6-0.2-2.9-0.3-3.9-0.4l-1.1-0.1h-0.3L209-25.9z"/>
	<path class="st8" d="M208.7-23.1c0,0,2.1,0.7,5.2,2c1.5,0.7,3.3,1.5,5.2,2.5c1,0.5,1.9,1,2.8,1.6c1,0.5,1.9,1.2,2.8,1.8
		c0.9,0.6,1.9,1.2,2.7,1.9c0.9,0.7,1.8,1.3,2.6,2.1c0.8,0.8,1.6,1.3,2.3,2.1s1.4,1.3,1.9,2l1.5,1.7c0.4,0.5,0.8,1,1.1,1.5l0.9,1.3
		l-1-1.2c-0.3-0.4-0.7-0.9-1.1-1.4L234-6.9c-0.6-0.6-1.3-1.2-1.9-1.9c-0.7-0.7-1.5-1.3-2.3-2s-1.7-1.3-2.6-1.9
		c-0.9-0.7-1.8-1.2-2.8-1.8c-0.9-0.6-1.9-1.1-2.9-1.7c-1-0.5-1.9-1-2.8-1.5c-1.9-0.9-3.6-1.7-5.2-2.2c-3.1-1.2-5.2-1.8-5.2-1.8
		L208.7-23.1z"/>
	<path class="st8" d="M208.4-20c1.3,0.7,2.5,1.5,3.7,2.4c0.5,0.4,1.1,0.8,1.7,1.3c0.6,0.5,1.2,1,1.8,1.5c0.6,0.5,1.2,1.1,1.9,1.7
		s1.2,1.2,1.8,1.9c0.6,0.7,1.2,1.3,1.7,2.1c0.3,0.4,0.5,0.7,0.8,1l0.7,1l0.7,1c0.2,0.4,0.4,0.7,0.6,1c0.4,0.6,0.7,1.2,1,1.9l0.8,1.6
		l0.5,1.3l0.5,1l-0.5-1c-0.1-0.4-0.3-0.8-0.5-1.3c-0.2-0.5-0.5-1-0.8-1.6c-0.3-0.6-0.7-1.2-1.1-1.8l-0.6-1l-0.7-1l-0.7-1l-0.8-1
		c-0.5-0.7-1.1-1.3-1.8-1.9c-0.6-0.6-1.2-1.2-1.8-1.8c-0.6-0.6-1.3-1.1-1.9-1.6c-0.7-0.5-1.2-1-1.8-1.4c-0.6-0.4-1.2-0.8-1.7-1.2
		c-1.2-0.8-2.4-1.5-3.6-2.1L208.4-20z"/>
</g>
</svg>
