<svg xmlns="http://www.w3.org/2000/svg" viewBox="0 0 379.12 210.81"><defs><style>.cls-1{fill:#8b5e3c;}.cls-2{fill:none;stroke:#754c29;stroke-miterlimit:10;}.cls-3{fill:#3c2415;}.cls-4{fill:#fff;}.cls-5{fill:#603913;}.cls-6{fill:#231f20;}.cls-7{fill:#f9ac90;}.cls-8{fill:#c49a6c;}.cls-9{fill:#c2b59b;}</style></defs><title>Sea Amigos Animals</title><g id="Walrus"><path class="cls-1" d="M71,125.93s.23,33.48-37.42,57.81c-9.89,7.18.41,11.86,9.81,9.42,8.42-2.18,31.14-3.87,54.39-31"/><path class="cls-1" d="M28.63,55.26S19.3,21.92,55,3.59c42.34-15.67,64.67,25,64.67,25s14.33,1,27,23c0,0,74.67,10.33,102.33,84.33,37.34,22.34,65.34,14.67,80,21.67s45.34,36.67,49.67,49.33c3,5.67-8.67,3.67-13.33,3s-65-26.66-93-21.33-138.34,6.67-152,3.67-45.67,2.66-57-12.34S22.3,123.26,28,74.59Z"/><path class="cls-2" d="M137.3,56.59s-7.84-20.17-17.67-28"/><path class="cls-2" d="M150.63,106.76s5.33-28.17-4-55.17"/><ellipse class="cls-3" cx="63.05" cy="74.13" rx="27.75" ry="15.13"/><path class="cls-4" d="M34.34,69.55s-12.35,30.5,0,83.11c.48,2.05,3.7,1.78,3.76-.32.6-19.72,3.43-56.15,15.67-83.08Z"/><path class="cls-4" d="M78.25,72.55s12.35,30.5,0,83.11c-.49,2.05-3.71,1.78-3.77-.32C73.87,135.62,71,99.19,58.8,72.26Z"/><ellipse class="cls-5" cx="43.67" cy="62.76" rx="20.13" ry="19"/><ellipse class="cls-5" cx="72.17" cy="63.13" rx="24.63" ry="19.88"/><ellipse class="cls-6" cx="44.42" cy="30.63" rx="4.88" ry="8.13"/><circle class="cls-4" cx="45.71" cy="28.59" r="2.08"/><ellipse class="cls-6" cx="79.59" cy="32.13" rx="4.88" ry="8.13"/><circle class="cls-4" cx="80.88" cy="30.09" r="2.08"/><ellipse class="cls-7" cx="57.8" cy="48.88" rx="5.88" ry="3.87"/><path class="cls-1" d="M158.63,128.92s11.33,47,52.67,64.34c11,5.33,1.69,11.74-8,11-8.67-.67-37.34,0-65-22.67"/><path class="cls-2" d="M378.63,206.92s-15-18.66-21.33-20.66"/><path class="cls-2" d="M377.63,210.26s-19-19-24.67-20.34"/><path class="cls-2" d="M372,210.26s-15.33-14.67-23-15.67"/><path class="cls-8" d="M39.36,52.91a1,1,0,1,1-1-1A1,1,0,0,1,39.36,52.91Z"/><path class="cls-8" d="M43.67,57a.72.72,0,1,1-.72-.72A.72.72,0,0,1,43.67,57Z"/><circle class="cls-8" cx="35.23" cy="62.07" r="0.5"/><path class="cls-8" d="M81.17,54.66a.66.66,0,1,1-.66-.65A.65.65,0,0,1,81.17,54.66Z"/><circle class="cls-8" cx="41.94" cy="70.42" r="0.66"/><path class="cls-8" d="M86.05,60a.79.79,0,1,1-.79-.78A.78.78,0,0,1,86.05,60Z"/><path class="cls-8" d="M74,61a.44.44,0,0,1-.87,0A.44.44,0,1,1,74,61Z"/><path class="cls-8" d="M62.8,65.84a.44.44,0,1,1-.44-.44A.44.44,0,0,1,62.8,65.84Z"/><path class="cls-8" d="M65.3,57.45a.44.44,0,1,1-.44-.44A.44.44,0,0,1,65.3,57.45Z"/><path class="cls-8" d="M80.73,65.16a.66.66,0,1,1-.65-.65A.65.65,0,0,1,80.73,65.16Z"/><path class="cls-8" d="M88.3,67a.72.72,0,1,1-.72-.72A.72.72,0,0,1,88.3,67Z"/><path class="cls-8" d="M71,54a.31.31,0,1,1-.31-.32A.31.31,0,0,1,71,54Z"/><circle class="cls-8" cx="60.03" cy="73.9" r="0.31"/><path class="cls-8" d="M73.23,69.51a.31.31,0,1,1-.31-.31A.31.31,0,0,1,73.23,69.51Z"/><path class="cls-8" d="M42.23,64.85a.41.41,0,1,1-.4-.4A.4.4,0,0,1,42.23,64.85Z"/><circle class="cls-8" cx="50.44" cy="60.17" r="0.41"/><path class="cls-8" d="M46.8,54.51a.82.82,0,0,1-.82.81.81.81,0,0,1,0-1.62A.82.82,0,0,1,46.8,54.51Z"/><circle class="cls-8" cx="55.4" cy="63.09" r="0.81"/><path class="cls-8" d="M37.73,68.91a.28.28,0,0,1-.28.29.29.29,0,0,1,0-.57A.28.28,0,0,1,37.73,68.91Z"/><path class="cls-8" d="M31.48,61.6a.66.66,0,1,1-.65-.65A.65.65,0,0,1,31.48,61.6Z"/><circle class="cls-8" cx="32.8" cy="58.45" r="0.5"/><path class="cls-8" d="M45.36,72.38a.32.32,0,1,1-.31-.31A.31.31,0,0,1,45.36,72.38Z"/><path class="cls-8" d="M80.92,73.1a.41.41,0,1,1-.81,0,.41.41,0,0,1,.81,0Z"/><path class="cls-8" d="M52.51,69.85a.41.41,0,1,1-.4-.4A.4.4,0,0,1,52.51,69.85Z"/><path class="cls-9" d="M36.52,57.2h-.36l-1.24.06c-1.08.07-2.62.2-4.47.42A92.3,92.3,0,0,0,17,60.24a55.33,55.33,0,0,0-6.9,2.37c-1.07.46-2.09.93-3,1.45-.47.24-.92.5-1.35.76s-.84.52-1.22.79a10.51,10.51,0,0,0-1.09.78c-.33.26-.66.5-.94.76A15.7,15.7,0,0,0,1.1,68.51c-.39.38-.62.75-.82,1L0,69.82l.27-.35a12.12,12.12,0,0,1,.79-1,16.1,16.1,0,0,1,1.38-1.41c.27-.27.59-.52.92-.79s.68-.55,1.06-.82.78-.56,1.21-.83S6.5,64.07,7,63.8c.93-.54,2-1,3-1.55a53.86,53.86,0,0,1,6.88-2.6,93.66,93.66,0,0,1,13.45-3c1.86-.28,3.42-.45,4.51-.56L36.11,56h.54Z"/><path class="cls-9" d="M37.29,59.89s-2.41.57-6,1.75c-1.77.6-3.84,1.31-6,2.21-1.1.42-2.19.94-3.32,1.43s-2.23,1.07-3.35,1.61-2.21,1.16-3.27,1.79-2.11,1.22-3.07,1.9-1.93,1.25-2.75,1.94-1.67,1.26-2.37,1.89L5.32,76.13c-.56.52-1,1-1.36,1.43L2.79,78.83l1.13-1.31c.37-.4.77-.94,1.32-1.47l1.84-1.79c.68-.65,1.5-1.27,2.32-2s1.77-1.33,2.71-2,2-1.32,3-2,2.15-1.26,3.23-1.9,2.22-1.19,3.34-1.73,2.21-1.08,3.29-1.54c2.15-1,4.21-1.76,6-2.42,3.54-1.31,6-2,6-2Z"/><path class="cls-9" d="M37.87,63a42.51,42.51,0,0,0-4.16,2c-1.23.66-2.64,1.48-4.1,2.44-.74.47-1.46,1-2.21,1.53s-1.48,1.12-2.19,1.72-1.44,1.19-2.08,1.85-1.32,1.26-1.88,1.93a23.3,23.3,0,0,0-1.64,1.92,21,21,0,0,0-1.34,1.82l-1,1.62c-.28.49-.5.94-.69,1.31L16,82.27l.54-1.17c.17-.37.37-.83.63-1.35l1-1.67a20.27,20.27,0,0,1,1.27-1.9,22.44,22.44,0,0,1,1.56-2c.54-.7,1.18-1.36,1.82-2s1.34-1.31,2-2,1.43-1.24,2.13-1.85,1.45-1.16,2.18-1.67c1.44-1,2.83-1.95,4.05-2.68a43.21,43.21,0,0,1,4.21-2.26Z"/><path class="cls-9" d="M76.35,58.06h.49l1.15.09c1,.1,2.39.26,4.05.52a72.51,72.51,0,0,1,12,2.87c1.06.37,2.11.76,3.13,1.19s2,.88,2.94,1.37,1.81,1,2.62,1.52a23.94,23.94,0,0,1,2.19,1.61c.33.26.62.54.9.8a7,7,0,0,1,.77.77,16.18,16.18,0,0,1,1.15,1.34c.31.38.49.72.64.93s.22.34.22.34l-.23-.33c-.16-.21-.35-.54-.67-.91a17.41,17.41,0,0,0-1.18-1.3,9.35,9.35,0,0,0-.79-.73c-.29-.25-.59-.52-.93-.77a24.23,24.23,0,0,0-2.21-1.52,28.57,28.57,0,0,0-2.65-1.42C99,64,98,63.56,97,63.17s-2.07-.75-3.13-1.07a70.79,70.79,0,0,0-12-2.45c-1.66-.21-3-.32-4-.38l-1.11-.05h-.31Z"/><path class="cls-9" d="M76.05,60.79s2.22.63,5.39,1.91c1.58.65,3.42,1.43,5.33,2.39,1,.45,1.93,1,2.93,1.51s2,1.12,2.93,1.71,1.93,1.21,2.83,1.88,1.83,1.27,2.64,2,1.64,1.3,2.34,2,1.41,1.27,2,1.91L104,77.78c.45.53.79,1,1.1,1.41l.94,1.24-1-1.2c-.32-.38-.68-.87-1.14-1.38l-1.62-1.66c-.57-.62-1.31-1.18-2-1.84s-1.55-1.25-2.39-1.9-1.76-1.24-2.67-1.87-1.91-1.17-2.87-1.76-2-1.09-3-1.6-2-1-2.94-1.41c-1.92-.88-3.76-1.6-5.34-2.18-3.18-1.17-5.35-1.71-5.35-1.71Z"/><path class="cls-9" d="M75.74,63.8a33.64,33.64,0,0,1,3.8,2.28c.55.36,1.14.77,1.74,1.23s1.23,1,1.88,1.46,1.28,1.09,1.92,1.67,1.28,1.18,1.87,1.84,1.2,1.27,1.74,2c.27.34.55.67.82,1l.73,1,.71,1q.3.51.6,1a16.07,16.07,0,0,1,1,1.84l.8,1.59.51,1.28L94.35,84,93.85,83c-.15-.35-.34-.77-.56-1.25s-.55-1-.87-1.55a18.54,18.54,0,0,0-1.13-1.78l-.64-.94-.75-.94-.77-1-.85-.94c-.56-.64-1.18-1.24-1.81-1.84S85.19,71.6,84.56,71s-1.32-1.06-2-1.55-1.28-.94-1.9-1.34-1.21-.78-1.76-1.12a32.89,32.89,0,0,0-3.77-2Z"/></g></svg>