<svg xmlns="http://www.w3.org/2000/svg" viewBox="0 0 59.05 48.95"><defs><style>.cls-1,.cls-13,.cls-14{fill:none;stroke-miterlimit:10;}.cls-1{stroke:#8ea3ae;stroke-linecap:round;stroke-width:0.84px;}.cls-2{fill:#e0e9ed;opacity:0.36;}.cls-3{fill:#fff;}.cls-4{fill:#ef9d9c;}.cls-11,.cls-4{opacity:0.41;}.cls-5,.cls-7{fill:#869acf;}.cls-6{fill:#65c8d0;}.cls-7,.cls-9{opacity:0.4;}.cls-8{fill:#ffec5f;}.cls-9{fill:#fff197;}.cls-10,.cls-12{fill:#82a5c0;}.cls-10{opacity:0.38;}.cls-13,.cls-14{stroke:#82a5c0;}.cls-13{stroke-width:0.45px;}.cls-14{stroke-width:0.22px;}</style></defs><title>Plankton</title><g id="Layer_2" data-name="Layer 2"><g id="Layer_1-2" data-name="Layer 1"><path class="cls-1" d="M20,13.73s-4.19,0-5,3.66-2.78,6.47-6.47,5"/><ellipse class="cls-2" cx="24.18" cy="9.41" rx="9.62" ry="7.94" transform="translate(7.49 29.27) rotate(-71.23)"/><ellipse class="cls-3" cx="29.32" cy="5.86" rx="1.43" ry="2.79" transform="translate(-0.51 3.84) rotate(-7.43)"/><ellipse class="cls-4" cx="23.64" cy="10.99" rx="5.51" ry="3.72" transform="translate(5.62 29.84) rotate(-71.23)"/><path class="cls-1" d="M22.23,14.49s1.09,2-1.92,5.64-1.61,7.11-1,7.42"/><path class="cls-1" d="M20.28,15.67s-3.16-.12-3.39,4.77-.63,6.52-3.35,6"/><path class="cls-1" d="M25.07,15.46s3.32,2.55,1.76,6-1.75,6.83,2.07,7.91"/><path class="cls-1" d="M23.65,16.81s2.58,1.83-.22,5.85-3.47,5.56-1,6.83"/><path class="cls-5" d="M40.81,22.28a5.11,5.11,0,0,1-2.46-1.19,4.81,4.81,0,0,1-1.42-2.25,7.34,7.34,0,0,1-.2-2.59c.07-.42.12-.85.21-1.26l.33-1.23L37.05,15c0,.42-.07.84-.1,1.25a6.65,6.65,0,0,0,.4,2.44,4.27,4.27,0,0,0,1.41,1.88,4.45,4.45,0,0,0,2.14.82Z"/><path class="cls-5" d="M41,23.15a7.51,7.51,0,0,1-2.64.3,9.61,9.61,0,0,1-2.55-.5,10.91,10.91,0,0,1-2.29-1.15c-.37-.22-.68-.51-1-.76s-.62-.56-.94-.85c.34.26.66.53,1,.78a11.84,11.84,0,0,0,1.07.66,10.32,10.32,0,0,0,2.31.95,8.76,8.76,0,0,0,2.44.28,6.9,6.9,0,0,0,2.34-.43Z"/><path class="cls-6" d="M41.46,24.17a12.91,12.91,0,0,1,3.73-2,10.93,10.93,0,0,1,4.41-.61,6.15,6.15,0,0,1,2.49.78,8.75,8.75,0,0,1,1.82,1.48,7.44,7.44,0,0,1,2,4.4,8.54,8.54,0,0,1-.13,2.33,10.3,10.3,0,0,1-.64,2.14,7.28,7.28,0,0,1-2.92,3.4,15.12,15.12,0,0,1-8.06,1.64l0-.31A28.48,28.48,0,0,0,48,36.6a10,10,0,0,0,3.32-1.73A5.5,5.5,0,0,0,53.21,32a7.24,7.24,0,0,0,.24-3.4,4.27,4.27,0,0,0-1.67-2.53,13.69,13.69,0,0,0-1.37-.93,4.71,4.71,0,0,0-1.28-.47,15.79,15.79,0,0,0-3.56-.31l-4,.08Z"/><circle cx="42.72" cy="22.34" r="0.84"/><path class="cls-5" d="M41.53,27.16a6.37,6.37,0,0,0-1.77.71,4.19,4.19,0,0,0-1.42,1.29,16.82,16.82,0,0,0-1.73,3.63c.16-.65.36-1.31.58-1.95A12.56,12.56,0,0,1,38,29a4.65,4.65,0,0,1,1.43-1.56,7,7,0,0,1,1.9-1Z"/><path class="cls-5" d="M46.78,27.66a2.71,2.71,0,0,0-.55.38,2.78,2.78,0,0,0-.48.49,2.46,2.46,0,0,0-.53,1.32,2.64,2.64,0,0,1,.19-1.51,3.88,3.88,0,0,1,.38-.69,4.41,4.41,0,0,1,.54-.63Z"/><path class="cls-5" d="M47.5,27.66a3.16,3.16,0,0,0-.39.53,3.64,3.64,0,0,0-.3.63,2.53,2.53,0,0,0-.07,1.42,2.71,2.71,0,0,1-.31-1.49,4.12,4.12,0,0,1,.14-.78,4.36,4.36,0,0,1,.3-.77Z"/><path class="cls-5" d="M48.23,27.77a3,3,0,0,0-.29.6,3.87,3.87,0,0,0-.17.67,2.58,2.58,0,0,0,.2,1.41A2.75,2.75,0,0,1,47.38,29a4.16,4.16,0,0,1,0-.79,3.52,3.52,0,0,1,.16-.81Z"/><path class="cls-7" d="M41,27.21l-.34-.62a6.28,6.28,0,0,1,.74-6.21h0a8.43,8.43,0,0,1,3-.94c1.62-.3,4.89-2,9.71.29,6,2.87,7,9.16.77,15.58C50.69,39.55,46.45,39,44,38.12a.46.46,0,0,1,.12-.89,8.25,8.25,0,0,0,5.72-2.85c2.89-3.36.21-8.47-5.73-5.87C43.25,28.9,42.59,28.77,41,27.21Z"/><path class="cls-8" d="M16.91,36.59a2.86,2.86,0,0,0,1.1-1,2.77,2.77,0,0,0,.43-1.46,4.57,4.57,0,0,0-.31-1.57c-.12-.24-.22-.49-.35-.74l-.41-.7.47.67c.15.23.28.48.42.72a4.4,4.4,0,0,1,.46,1.61,3,3,0,0,1-.34,1.68,3.26,3.26,0,0,1-1.22,1.28Z"/><path class="cls-8" d="M17.28,37.16a4.32,4.32,0,0,0,1.52-.27,5.87,5.87,0,0,0,1.41-.72,6.88,6.88,0,0,0,1.19-1.1,8.83,8.83,0,0,0,.92-1.34,9.23,9.23,0,0,1-.83,1.42,6.79,6.79,0,0,1-1.12,1.22,6.32,6.32,0,0,1-1.43.88,4.88,4.88,0,0,1-1.67.41Z"/><path class="cls-6" d="M17.19,38.6a23.54,23.54,0,0,0-4.53,1.85A3.68,3.68,0,0,0,12,41a8.17,8.17,0,0,0-.61.88,2.69,2.69,0,0,0-.44,1.91,4.59,4.59,0,0,0,.9,2,3.57,3.57,0,0,0,1.8,1.29,9.63,9.63,0,0,0,4.94,0l.06.19a9.7,9.7,0,0,1-5.26.83,4.77,4.77,0,0,1-2.53-1.4,6.31,6.31,0,0,1-1.49-2.52A4.87,4.87,0,0,1,9.58,41a5.71,5.71,0,0,1,.77-1.31,4,4,0,0,1,1.33-1,7.07,7.07,0,0,1,2.81-.62,8.21,8.21,0,0,1,2.7.33Z"/><circle cx="16.01" cy="37.57" r="0.55"/><path class="cls-8" d="M17.77,39.72a4.84,4.84,0,0,1,1.38.17,3,3,0,0,1,1.22.62,11,11,0,0,1,1.72,2,11.41,11.41,0,0,0-1.87-1.81,2.71,2.71,0,0,0-1.16-.45,3.92,3.92,0,0,0-1.23,0Z"/><path class="cls-8" d="M14.89,41.23a2.63,2.63,0,0,1,.86.59,1.74,1.74,0,0,1,.45.87,1.59,1.59,0,0,0-.61-.67,2.25,2.25,0,0,0-.83-.3Z"/><path class="cls-8" d="M14.6,41.47a2.58,2.58,0,0,1,.62.83,1.74,1.74,0,0,1,.15,1,1.57,1.57,0,0,0-.37-.84,2.06,2.06,0,0,0-.68-.54Z"/><path class="cls-8" d="M14.26,41.76a2.55,2.55,0,0,1,.45.94,1.71,1.71,0,0,1,0,1,1.55,1.55,0,0,0-.2-.9,2.14,2.14,0,0,0-.56-.66Z"/><path class="cls-9" d="M18.19,40.13l.06-.45a4.06,4.06,0,0,0-1.86-3.6h0a5.14,5.14,0,0,0-2,.11c-1.05.18-3.42-.11-5.82,2.38-3,3.1-2.17,7.14,3.07,9.61a6.3,6.3,0,0,0,7.17-.74.3.3,0,0,0-.28-.52,5.32,5.32,0,0,1-4.11-.42c-2.51-1.39-2.05-5.09,2.14-4.86C17.18,41.67,17.55,41.44,18.19,40.13Z"/><ellipse class="cls-10" cx="33.41" cy="41.99" rx="1.58" ry="2.63" transform="translate(-15.4 19.71) rotate(-26.96)"/><g class="cls-11"><path class="cls-12" d="M38.43,39.4c.3.59-2.83,2.43-2.68,3s3.76.93,3.74,1.52-3.58.46-3.83,1,1.71,3.45,1.15,3.73-1.69-3-2.34-3.13-2.49,2.9-3.06,2.52,1.41-3.41,1-3.92-3.71,1-4,.39,2.82-2.43,2.68-3-3.76-.93-3.74-1.52,3.58-.46,3.83-1S29.43,35.54,30,35.26s1.69,3,2.34,3.13,2.49-2.9,3.06-2.52-1.41,3.41-1,3.92S38.13,38.81,38.43,39.4Z"/><path class="cls-13" d="M38.43,39.4c.3.59-2.83,2.43-2.68,3s3.76.93,3.74,1.52-3.58.46-3.83,1,1.71,3.45,1.15,3.73-1.69-3-2.34-3.13-2.49,2.9-3.06,2.52,1.41-3.41,1-3.92-3.71,1-4,.39,2.82-2.43,2.68-3-3.76-.93-3.74-1.52,3.58-.46,3.83-1S29.43,35.54,30,35.26s1.69,3,2.34,3.13,2.49-2.9,3.06-2.52-1.41,3.41-1,3.92S38.13,38.81,38.43,39.4Z"/></g><ellipse class="cls-10" cx="3.29" cy="31.15" rx="1.31" ry="0.79" transform="translate(-19.05 9.2) rotate(-39.49)"/><g class="cls-11"><path class="cls-12" d="M5.1,33.31c-.25.21-1.49-1.11-1.76-1s0,1.94-.34,2-.61-1.7-.9-1.77-1.5,1.21-1.7,1,1.29-1.15,1.28-1.48S0,31.14.12,30.83s1.81.31,2,.05S1.26,29.17,1.51,29s1.49,1.11,1.76,1,0-1.94.34-2,.62,1.7.9,1.76,1.5-1.21,1.7-1S4.92,29.9,4.93,30.23s1.69.9,1.56,1.22-1.81-.32-2-.05S5.35,33.1,5.1,33.31Z"/><path class="cls-14" d="M5.1,33.31c-.25.21-1.49-1.11-1.76-1s0,1.94-.34,2-.61-1.7-.9-1.77-1.5,1.21-1.7,1,1.29-1.15,1.28-1.48S0,31.14.12,30.83s1.81.31,2,.05S1.26,29.17,1.51,29s1.49,1.11,1.76,1,0-1.94.34-2,.62,1.7.9,1.76,1.5-1.21,1.7-1S4.92,29.9,4.93,30.23s1.69.9,1.56,1.22-1.81-.32-2-.05S5.35,33.1,5.1,33.31Z"/></g><ellipse class="cls-10" cx="42.95" cy="8.86" rx="0.79" ry="1.31" transform="translate(21.68 47.21) rotate(-72.64)"/><g class="cls-11"><path class="cls-12" d="M42.12,11.55c-.31-.1.12-1.86-.14-2s-1.65,1-1.85.81,1.09-1.45,1-1.72S39.28,8,39.38,7.74,41,8.19,41.31,8s-.16-1.91.17-2,.73,1.7,1.06,1.72,1-1.67,1.27-1.57-.12,1.86.14,2,1.65-1,1.85-.8-1.08,1.44-1,1.71,1.83.59,1.74.89-1.67-.45-1.94-.25.16,1.9-.17,2S43.72,10,43.39,10,42.44,11.65,42.12,11.55Z"/><path class="cls-14" d="M42.12,11.55c-.31-.1.12-1.86-.14-2s-1.65,1-1.85.81,1.09-1.45,1-1.72S39.28,8,39.38,7.74,41,8.19,41.31,8s-.16-1.91.17-2,.73,1.7,1.06,1.72,1-1.67,1.27-1.57-.12,1.86.14,2,1.65-1,1.85-.8-1.08,1.44-1,1.71,1.83.59,1.74.89-1.67-.45-1.94-.25.16,1.9-.17,2S43.72,10,43.39,10,42.44,11.65,42.12,11.55Z"/></g></g></g></svg>