<?xml version="1.0" encoding="utf-8"?>
<!-- Generator: Adobe Illustrator 19.0.0, SVG Export Plug-In . SVG Version: 6.00 Build 0)  -->
<svg version="1.1" id="Layer_1" xmlns="http://www.w3.org/2000/svg" xmlns:xlink="http://www.w3.org/1999/xlink" x="0px" y="0px"
	 viewBox="-319 -101.7 320 763.7" style="enable-background:new -319 -101.7 320 763.7;" xml:space="preserve">
<style type="text/css">
	.st0{fill:url(#SVGID_1_);}
	.st1{fill:#279686;}
	.st2{fill:#FFFFFF;}
	.st3{fill:#895881;}
	.st4{fill:#FFCF01;}
	.st5{fill:#F4BB3A;}
	.st6{fill:#A17A94;}
	.st7{fill:none;stroke:#FFCF01;stroke-width:5.5505;stroke-miterlimit:10;}
	.st8{fill:#F78330;}
	.st9{fill:none;}
	.st10{enable-background:new    ;}
</style>
<radialGradient id="SVGID_1_" cx="-150" cy="1034.2002" r="228.0022" gradientTransform="matrix(1 0 0 -1.1933 0 1387.2025)" gradientUnits="userSpaceOnUse">
	<stop  offset="0" style="stop-color:#DFF7F9"/>
	<stop  offset="0.1438" style="stop-color:#D0F0F7"/>
	<stop  offset="0.4205" style="stop-color:#A8DCF0"/>
	<stop  offset="0.7987" style="stop-color:#69BDE7"/>
	<stop  offset="1" style="stop-color:#45ABE1"/>
</radialGradient>
<rect x="-319" y="-101.7" class="st0" width="320" height="763.7"/>
<g>
	<path class="st1" d="M-289.4,330.4c-1.7-0.4-3.1-1.1-4.3-2.2c-1.2-1.1-2.1-2.5-2.6-4.3c-0.5-1.7-0.5-3.4-0.1-5
		c0.5-1.6,1.3-3,2.6-4.2c1.3-1.2,2.9-2.1,4.8-2.6c1.5-0.4,3-0.5,4.4-0.3c1.4,0.2,2.6,0.6,3.7,1.4c-0.6,0.9-1.1,1.7-1.7,2.6
		c-1.7-1-3.5-1.3-5.5-0.8c-1.3,0.3-2.3,0.9-3.2,1.7c-0.9,0.8-1.4,1.8-1.7,2.8c-0.3,1.1-0.3,2.2,0.1,3.4c0.3,1.2,0.9,2.2,1.7,2.9
		c0.8,0.8,1.8,1.3,2.9,1.6c1.1,0.3,2.3,0.2,3.5-0.1c1.9-0.5,3.3-1.6,4.3-3.4c0.9,0.5,1.8,1,2.7,1.5c-0.6,1.2-1.4,2.2-2.5,3
		c-1.1,0.8-2.4,1.4-3.8,1.8C-286,330.7-287.7,330.8-289.4,330.4z"/>
	<path class="st1" d="M-271,325.6c-1.7-0.4-3.1-1.2-4.3-2.4c-1.2-1.2-2-2.6-2.4-4.3c-0.4-1.7-0.4-3.4,0.1-5s1.4-3,2.8-4.1
		c1.3-1.1,3-1.9,4.9-2.4c1.9-0.4,3.7-0.4,5.4,0c1.7,0.5,3.1,1.3,4.3,2.5c1.2,1.2,1.9,2.7,2.3,4.4c0.4,1.7,0.3,3.4-0.3,5
		c-0.6,1.6-1.5,2.9-2.8,4c-1.3,1.1-2.9,1.9-4.7,2.3C-267.6,326.1-269.4,326.1-271,325.6z M-263.4,321.2c0.9-0.7,1.5-1.7,1.8-2.7
		c0.3-1.1,0.4-2.2,0.1-3.4c-0.3-1.2-0.8-2.2-1.5-3c-0.8-0.8-1.7-1.4-2.8-1.7c-1.1-0.3-2.3-0.3-3.5,0c-1.2,0.3-2.3,0.8-3.2,1.6
		c-0.9,0.8-1.5,1.7-1.8,2.8c-0.3,1.1-0.4,2.2-0.1,3.4c0.3,1.2,0.8,2.2,1.6,3c0.8,0.8,1.7,1.4,2.8,1.7c1.1,0.3,2.2,0.3,3.5,0
		C-265.2,322.5-264.2,322-263.4,321.2z"/>
	<path class="st1" d="M-239.4,301.7c1,6,2,12,3,18c-0.9,0.2-1.9,0.3-2.8,0.5c-4-3.5-8.2-6.9-12.4-10.3c0.8,4,1.6,8.1,2.3,12.1
		c-1.1,0.2-2.2,0.4-3.3,0.7c-1.2-5.9-2.4-11.9-3.6-17.8c1-0.2,1.9-0.4,2.9-0.6c4.2,3.4,8.4,6.8,12.5,10.2c-0.7-4-1.4-8.1-2.1-12.1
		C-241.7,302-240.5,301.8-239.4,301.7z"/>
	<path class="st1" d="M-220.2,307.8c1.1-0.1,2.2-0.3,3.3-0.4c0.3,2.4,0.6,4.8,0.9,7.2c-0.9,0.9-1.9,1.6-3.1,2.1
		c-1.2,0.6-2.5,0.9-3.8,1.1c-1.9,0.3-3.6,0.1-5.2-0.5c-1.6-0.6-3-1.5-4-2.8c-1.1-1.3-1.8-2.8-2-4.5c-0.3-1.8-0.1-3.4,0.6-5
		c0.7-1.5,1.7-2.8,3.1-3.9c1.4-1,3.1-1.7,5.1-1.9c1.6-0.2,3.1-0.2,4.4,0.2c1.4,0.3,2.5,0.9,3.5,1.8c-0.7,0.8-1.3,1.6-1.9,2.3
		c-1.6-1.2-3.4-1.7-5.5-1.4c-1.3,0.2-2.5,0.6-3.4,1.3c-1,0.7-1.6,1.5-2.1,2.6c-0.4,1-0.6,2.2-0.4,3.4c0.2,1.2,0.6,2.2,1.3,3.1
		c0.7,0.9,1.6,1.5,2.7,1.9s2.3,0.5,3.5,0.3c1.4-0.2,2.7-0.7,3.7-1.4C-219.8,311.6-220,309.7-220.2,307.8z"/>
	<path class="st1" d="M-199.4,314.9c-1.4-1.7-2.8-3.3-4.3-5c-0.2,0-0.4,0.1-0.7,0.1c-1.4,0.1-2.8,0.3-4.2,0.4
		c0.2,1.8,0.4,3.5,0.6,5.3c-1.1,0.1-2.3,0.2-3.4,0.4c-0.7-6-1.4-12.1-2.1-18.1c2.6-0.3,5.2-0.6,7.8-0.8c1.6-0.2,3.1,0,4.4,0.4
		s2.3,1.1,3,2s1.1,2,1.3,3.4c0.1,1.4-0.1,2.6-0.7,3.6s-1.5,1.9-2.7,2.5c1.6,1.9,3.2,3.7,4.8,5.6
		C-196.9,314.7-198.2,314.8-199.4,314.9z M-201.9,300.7c-0.8-0.5-2-0.8-3.6-0.6c-1.4,0.1-2.7,0.3-4.1,0.4c0.3,2.4,0.5,4.8,0.8,7.2
		c1.3-0.1,2.7-0.3,4-0.4c1.5-0.1,2.6-0.6,3.3-1.3s1-1.6,0.9-2.8C-200.6,302.1-201.1,301.2-201.9,300.7z"/>
	<path class="st1" d="M-180.5,309.4c-3.1,0.2-6.2,0.3-9.3,0.6c-0.5,1.4-1,2.9-1.5,4.3c-1.2,0.1-2.3,0.2-3.5,0.3
		c2.3-6.3,4.6-12.5,7.1-18.8c1.2-0.1,2.3-0.1,3.5-0.2c3.2,5.9,6.3,11.8,9.3,17.8c-1.2,0-2.4,0.1-3.6,0.2
		C-179.1,312.1-179.8,310.7-180.5,309.4z M-181.8,306.8c-1.3-2.6-2.6-5.2-4-7.7c-1,2.7-2,5.4-3,8.2
		C-186.5,307-184.1,306.9-181.8,306.8z"/>
	<path class="st1" d="M-170.2,297.8c-2.1,0.1-4.2,0.1-6.3,0.2c0-1-0.1-1.9-0.1-2.9c5.4-0.2,10.8-0.4,16.2-0.4c0,1,0,1.9,0,2.9
		c-2.1,0-4.2,0.1-6.3,0.1c0.1,5.1,0.2,10.2,0.3,15.3c-1.1,0-2.3,0.1-3.4,0.1C-169.9,308-170.1,302.9-170.2,297.8z"/>
	<path class="st1" d="M-156,311.1c-1.4-1.4-2.2-3.4-2.2-6.1c0-3.4,0-6.8-0.1-10.3c1.2,0,2.4,0,3.5,0c0,3.4,0,6.8,0,10.1
		c0,3.6,1.6,5.4,4.7,5.4s4.7-1.7,4.8-5.3c0.1-3.4,0.1-6.8,0.2-10.1c1.2,0,2.3,0,3.5,0.1c-0.1,3.4-0.2,6.8-0.3,10.3
		c-0.1,2.6-0.8,4.6-2.3,6c-1.4,1.4-3.4,2-6,2C-152.6,313.2-154.6,312.5-156,311.1z"/>
	<path class="st1" d="M-136.6,295.1c1.2,0,2.4,0.1,3.5,0.1c-0.2,5.1-0.4,10.2-0.7,15.3c3.2,0.1,6.4,0.3,9.7,0.5
		c-0.1,1-0.1,1.9-0.2,2.9c-4.3-0.3-8.7-0.5-13-0.6C-137.1,307.2-136.8,301.1-136.6,295.1z"/>
	<path class="st1" d="M-109.1,310.8c-3.1-0.3-6.2-0.5-9.3-0.8c-0.7,1.4-1.4,2.7-2.1,4.1c-1.2-0.1-2.3-0.2-3.5-0.2
		c3.1-5.9,6.4-11.7,9.7-17.6c1.2,0.1,2.3,0.2,3.5,0.3c2.3,6.3,4.6,12.6,6.7,18.9c-1.2-0.1-2.4-0.2-3.6-0.4
		C-108.2,313.7-108.6,312.3-109.1,310.8z M-110,308.1c-0.9-2.7-1.9-5.5-2.8-8.2c-1.4,2.5-2.8,5.1-4.1,7.7
		C-114.7,307.7-112.4,307.9-110,308.1z"/>
	<path class="st1" d="M-97.3,300.9c-2.1-0.2-4.2-0.5-6.3-0.7c0.1-0.9,0.2-1.9,0.3-2.8c5.4,0.5,10.7,1.2,16.1,1.9
		c-0.1,0.9-0.3,1.9-0.4,2.8c-2.1-0.3-4.2-0.5-6.2-0.8c-0.6,5.1-1.2,10.2-1.8,15.2c-1.1-0.1-2.3-0.3-3.4-0.4
		C-98.4,311-97.8,306-97.3,300.9z"/>
	<path class="st1" d="M-84.5,299.6c1.2,0.2,2.3,0.3,3.5,0.5c-0.9,6-1.7,12-2.6,18c-1.1-0.2-2.3-0.3-3.4-0.5
		C-86.2,311.6-85.3,305.6-84.5,299.6z"/>
	<path class="st1" d="M-75,318.5c-1.4-1-2.4-2.3-3-3.9c-0.6-1.5-0.8-3.2-0.6-4.9c0.3-1.7,0.9-3.3,2-4.5c1.1-1.3,2.5-2.2,4.2-2.7
		s3.5-0.7,5.4-0.3c1.9,0.3,3.6,1,5,2.1c1.4,1.1,2.4,2.4,3,4c0.6,1.6,0.7,3.2,0.4,5c-0.3,1.8-1.1,3.2-2.2,4.5
		c-1.1,1.2-2.5,2.1-4.1,2.6s-3.4,0.6-5.2,0.3C-72.1,320.2-73.7,319.5-75,318.5z M-66.3,317.4c1.1-0.4,2-1,2.7-1.8
		c0.7-0.9,1.2-1.9,1.4-3.1c0.2-1.2,0.1-2.3-0.2-3.4c-0.4-1.1-1-2-1.9-2.7c-0.9-0.7-2-1.2-3.2-1.4c-1.3-0.2-2.4-0.1-3.5,0.2
		c-1.1,0.4-2,1-2.7,1.9s-1.2,1.9-1.4,3.1c-0.2,1.2-0.1,2.3,0.3,3.4s1.1,1.9,1.9,2.6c0.9,0.7,1.9,1.2,3.2,1.4
		C-68.5,317.8-67.3,317.7-66.3,317.4z"/>
	<path class="st1" d="M-36.6,308.6c-1.4,5.9-2.8,11.8-4.2,17.7c-0.9-0.2-1.8-0.4-2.8-0.6c-2.4-4.8-4.9-9.5-7.4-14.3
		c-0.8,4-1.7,8-2.5,12.1c-1.1-0.2-2.2-0.5-3.3-0.7c1.2-5.9,2.4-11.9,3.6-17.8c1,0.2,1.9,0.4,2.9,0.6c2.6,4.7,5.1,9.5,7.6,14.3
		c0.9-4,1.8-8,2.8-12C-38.9,308-37.7,308.3-36.6,308.6z"/>
	<path class="st1" d="M-34.3,327.5c-1.2-0.7-2.1-1.5-2.7-2.3c0.6-0.8,1.2-1.5,1.8-2.3c0.6,0.8,1.4,1.4,2.4,2.1c1,0.6,2,1.1,3.1,1.4
		c1.3,0.3,2.4,0.4,3.2,0.2c0.8-0.2,1.3-0.7,1.4-1.4c0.1-0.5,0.1-1-0.2-1.4c-0.3-0.4-0.7-0.8-1.2-1.1c-0.5-0.3-1.2-0.7-2.2-1.2
		c-1.3-0.7-2.4-1.3-3.1-1.8c-0.8-0.5-1.4-1.2-1.9-2.1c-0.5-0.8-0.5-1.8-0.3-3c0.2-1,0.7-1.8,1.5-2.5c0.8-0.7,1.8-1.1,3-1.3
		c1.2-0.2,2.7-0.1,4.3,0.4c1.1,0.3,2.2,0.7,3.2,1.3s1.9,1.2,2.5,1.9c-0.6,0.7-1.2,1.5-1.8,2.2c-0.7-0.7-1.4-1.2-2.3-1.7
		c-0.8-0.5-1.6-0.8-2.5-1c-1.4-0.4-2.4-0.4-3.2-0.1c-0.8,0.3-1.2,0.8-1.4,1.5c-0.1,0.5,0,1,0.3,1.4c0.3,0.4,0.7,0.8,1.2,1.1
		c0.5,0.3,1.3,0.7,2.2,1.2c1.3,0.7,2.3,1.3,3.1,1.8c0.8,0.6,1.4,1.3,1.8,2.1c0.4,0.8,0.5,1.8,0.2,3c-0.3,1-0.8,1.8-1.5,2.4
		c-0.8,0.6-1.7,1-3,1.2c-1.2,0.2-2.6,0.1-4.2-0.4C-31.8,328.8-33.1,328.2-34.3,327.5z"/>
	<path class="st1" d="M-20,331.3c-0.3-0.5-0.4-1-0.2-1.6c0.2-0.6,0.5-1,1-1.2c0.5-0.3,1-0.3,1.6-0.1c0.6,0.2,1,0.5,1.3,1
		s0.3,1,0.2,1.5c-0.2,0.5-0.5,1-1,1.2c-0.5,0.3-1,0.3-1.6,0.1C-19.3,332.1-19.7,331.7-20,331.3z M-15.6,314c1.3,0.4,2.6,0.7,3.9,1.1
		c-1.4,3.8-2.7,7.7-4,11.5c-0.9-0.2-1.7-0.5-2.6-0.7C-17.4,321.9-16.5,318-15.6,314z"/>
</g>
<g>
	<path class="st2" d="M-291.4,328.4c-1.7-0.4-3.1-1.1-4.3-2.2c-1.2-1.1-2.1-2.5-2.6-4.3c-0.5-1.7-0.5-3.4-0.1-5
		c0.5-1.6,1.3-3,2.6-4.2c1.3-1.2,2.9-2.1,4.8-2.6c1.5-0.4,3-0.5,4.4-0.3c1.4,0.2,2.6,0.6,3.7,1.4c-0.6,0.9-1.1,1.7-1.7,2.6
		c-1.7-1-3.5-1.3-5.5-0.8c-1.3,0.3-2.3,0.9-3.2,1.7c-0.9,0.8-1.4,1.8-1.7,2.8c-0.3,1.1-0.3,2.2,0.1,3.4c0.3,1.2,0.9,2.2,1.7,2.9
		c0.8,0.8,1.8,1.3,2.9,1.6c1.1,0.3,2.3,0.2,3.5-0.1c1.9-0.5,3.3-1.6,4.3-3.4c0.9,0.5,1.8,1,2.7,1.5c-0.6,1.2-1.4,2.2-2.5,3
		c-1.1,0.8-2.4,1.4-3.8,1.8C-288,328.7-289.7,328.8-291.4,328.4z"/>
	<path class="st2" d="M-273,323.6c-1.7-0.4-3.1-1.2-4.3-2.4c-1.2-1.2-2-2.6-2.4-4.3c-0.4-1.7-0.4-3.4,0.1-5s1.4-3,2.8-4.1
		c1.3-1.1,3-1.9,4.9-2.4c1.9-0.4,3.7-0.4,5.4,0c1.7,0.5,3.1,1.3,4.3,2.5c1.2,1.2,1.9,2.7,2.3,4.4c0.4,1.7,0.3,3.4-0.3,5
		c-0.6,1.6-1.5,2.9-2.8,4c-1.3,1.1-2.9,1.9-4.7,2.3C-269.6,324.1-271.4,324.1-273,323.6z M-265.4,319.2c0.9-0.7,1.5-1.7,1.8-2.7
		c0.3-1.1,0.4-2.2,0.1-3.4c-0.3-1.2-0.8-2.2-1.5-3c-0.8-0.8-1.7-1.4-2.8-1.7c-1.1-0.3-2.3-0.3-3.5,0c-1.2,0.3-2.3,0.8-3.2,1.6
		c-0.9,0.8-1.5,1.7-1.8,2.8c-0.3,1.1-0.4,2.2-0.1,3.4c0.3,1.2,0.8,2.2,1.6,3c0.8,0.8,1.7,1.4,2.8,1.7c1.1,0.3,2.2,0.3,3.5,0
		C-267.2,320.5-266.2,320-265.4,319.2z"/>
	<path class="st2" d="M-241.4,299.7c1,6,2,12,3,18c-0.9,0.2-1.9,0.3-2.8,0.5c-4-3.5-8.2-6.9-12.4-10.3c0.8,4,1.6,8.1,2.3,12.1
		c-1.1,0.2-2.2,0.4-3.3,0.7c-1.2-5.9-2.4-11.9-3.6-17.8c1-0.2,1.9-0.4,2.9-0.6c4.2,3.4,8.4,6.8,12.5,10.2c-0.7-4-1.4-8.1-2.1-12.1
		C-243.7,300-242.5,299.8-241.4,299.7z"/>
	<path class="st2" d="M-222.2,305.8c1.1-0.1,2.2-0.3,3.3-0.4c0.3,2.4,0.6,4.8,0.9,7.2c-0.9,0.9-1.9,1.6-3.1,2.1
		c-1.2,0.6-2.5,0.9-3.8,1.1c-1.9,0.3-3.6,0.1-5.2-0.5c-1.6-0.6-3-1.5-4-2.8c-1.1-1.3-1.8-2.8-2-4.5c-0.3-1.8-0.1-3.4,0.6-5
		c0.7-1.5,1.7-2.8,3.1-3.9c1.4-1,3.1-1.7,5.1-1.9c1.6-0.2,3.1-0.2,4.4,0.2c1.4,0.3,2.5,0.9,3.5,1.8c-0.7,0.8-1.3,1.6-1.9,2.3
		c-1.6-1.2-3.4-1.7-5.5-1.4c-1.3,0.2-2.5,0.6-3.4,1.3c-1,0.7-1.6,1.5-2.1,2.6c-0.4,1-0.6,2.2-0.4,3.4c0.2,1.2,0.6,2.2,1.3,3.1
		c0.7,0.9,1.6,1.5,2.7,1.9s2.3,0.5,3.5,0.3c1.4-0.2,2.7-0.7,3.7-1.4C-221.8,309.6-222,307.7-222.2,305.8z"/>
	<path class="st2" d="M-201.4,312.9c-1.4-1.7-2.8-3.3-4.3-5c-0.2,0-0.4,0.1-0.7,0.1c-1.4,0.1-2.8,0.3-4.2,0.4
		c0.2,1.8,0.4,3.5,0.6,5.3c-1.1,0.1-2.3,0.2-3.4,0.4c-0.7-6-1.4-12.1-2.1-18.1c2.6-0.3,5.2-0.6,7.8-0.8c1.6-0.2,3.1,0,4.4,0.4
		s2.3,1.1,3,2s1.1,2,1.3,3.4c0.1,1.4-0.1,2.6-0.7,3.6s-1.5,1.9-2.7,2.5c1.6,1.9,3.2,3.7,4.8,5.6
		C-198.9,312.7-200.2,312.8-201.4,312.9z M-203.9,298.7c-0.8-0.5-2-0.8-3.6-0.6c-1.4,0.1-2.7,0.3-4.1,0.4c0.3,2.4,0.5,4.8,0.8,7.2
		c1.3-0.1,2.7-0.3,4-0.4c1.5-0.1,2.6-0.6,3.3-1.3c0.7-0.7,1-1.6,0.9-2.8C-202.6,300.1-203.1,299.2-203.9,298.7z"/>
	<path class="st2" d="M-182.5,307.4c-3.1,0.2-6.2,0.3-9.3,0.6c-0.5,1.4-1,2.9-1.5,4.3c-1.2,0.1-2.3,0.2-3.5,0.3
		c2.3-6.3,4.6-12.5,7.1-18.8c1.2-0.1,2.3-0.1,3.5-0.2c3.2,5.9,6.3,11.8,9.3,17.8c-1.2,0-2.4,0.1-3.6,0.2
		C-181.1,310.1-181.8,308.7-182.5,307.4z M-183.8,304.8c-1.3-2.6-2.6-5.2-4-7.7c-1,2.7-2,5.4-3,8.2
		C-188.5,305-186.1,304.9-183.8,304.8z"/>
	<path class="st2" d="M-172.2,295.8c-2.1,0.1-4.2,0.1-6.3,0.2c0-1-0.1-1.9-0.1-2.9c5.4-0.2,10.8-0.4,16.2-0.4c0,1,0,1.9,0,2.9
		c-2.1,0-4.2,0.1-6.3,0.1c0.1,5.1,0.2,10.2,0.3,15.3c-1.1,0-2.3,0.1-3.4,0.1C-171.9,306-172.1,300.9-172.2,295.8z"/>
	<path class="st2" d="M-158,309.1c-1.4-1.4-2.2-3.4-2.2-6.1c0-3.4,0-6.8-0.1-10.3c1.2,0,2.4,0,3.5,0c0,3.4,0,6.8,0,10.1
		c0,3.6,1.6,5.4,4.7,5.4s4.7-1.7,4.8-5.3c0.1-3.4,0.1-6.8,0.2-10.1c1.2,0,2.3,0,3.5,0.1c-0.1,3.4-0.2,6.8-0.3,10.3
		c-0.1,2.6-0.8,4.6-2.3,6c-1.4,1.4-3.4,2-6,2C-154.6,311.2-156.6,310.5-158,309.1z"/>
	<path class="st2" d="M-138.6,293.1c1.2,0,2.4,0.1,3.5,0.1c-0.2,5.1-0.4,10.2-0.7,15.3c3.2,0.1,6.4,0.3,9.7,0.5
		c-0.1,1-0.1,1.9-0.2,2.9c-4.3-0.3-8.7-0.5-13-0.6C-139.1,305.2-138.8,299.1-138.6,293.1z"/>
	<path class="st2" d="M-111.1,308.8c-3.1-0.3-6.2-0.5-9.3-0.8c-0.7,1.4-1.4,2.7-2.1,4.1c-1.2-0.1-2.3-0.2-3.5-0.2
		c3.1-5.9,6.4-11.7,9.7-17.6c1.2,0.1,2.3,0.2,3.5,0.3c2.3,6.3,4.6,12.6,6.7,18.9c-1.2-0.1-2.4-0.2-3.6-0.4
		C-110.2,311.7-110.6,310.3-111.1,308.8z M-112,306.1c-0.9-2.7-1.9-5.5-2.8-8.2c-1.4,2.5-2.8,5.1-4.1,7.7
		C-116.7,305.7-114.4,305.9-112,306.1z"/>
	<path class="st2" d="M-99.3,298.9c-2.1-0.2-4.2-0.5-6.3-0.7c0.1-0.9,0.2-1.9,0.3-2.8c5.4,0.5,10.7,1.2,16.1,1.9
		c-0.1,0.9-0.3,1.9-0.4,2.8c-2.1-0.3-4.2-0.5-6.2-0.8c-0.6,5.1-1.2,10.2-1.8,15.2c-1.1-0.1-2.3-0.3-3.4-0.4
		C-100.4,309-99.8,304-99.3,298.9z"/>
	<path class="st2" d="M-86.5,297.6c1.2,0.2,2.3,0.3,3.5,0.5c-0.9,6-1.7,12-2.6,18c-1.1-0.2-2.3-0.3-3.4-0.5
		C-88.2,309.6-87.3,303.6-86.5,297.6z"/>
	<path class="st2" d="M-77,316.5c-1.4-1-2.4-2.3-3-3.9c-0.6-1.5-0.8-3.2-0.6-4.9c0.3-1.7,0.9-3.3,2-4.5c1.1-1.3,2.5-2.2,4.2-2.7
		s3.5-0.7,5.4-0.3c1.9,0.3,3.6,1,5,2.1c1.4,1.1,2.4,2.4,3,4c0.6,1.6,0.7,3.2,0.4,5c-0.3,1.8-1.1,3.2-2.2,4.5
		c-1.1,1.2-2.5,2.1-4.1,2.6s-3.4,0.6-5.2,0.3C-74.1,318.2-75.7,317.5-77,316.5z M-68.3,315.4c1.1-0.4,2-1,2.7-1.8
		c0.7-0.9,1.2-1.9,1.4-3.1c0.2-1.2,0.1-2.3-0.2-3.4c-0.4-1.1-1-2-1.9-2.7c-0.9-0.7-2-1.2-3.2-1.4c-1.3-0.2-2.4-0.1-3.5,0.2
		c-1.1,0.4-2,1-2.7,1.9s-1.2,1.9-1.4,3.1c-0.2,1.2-0.1,2.3,0.3,3.4s1.1,1.9,1.9,2.6c0.9,0.7,1.9,1.2,3.2,1.4
		C-70.5,315.8-69.3,315.7-68.3,315.4z"/>
	<path class="st2" d="M-38.6,306.6c-1.4,5.9-2.8,11.8-4.2,17.7c-0.9-0.2-1.8-0.4-2.8-0.6c-2.4-4.8-4.9-9.5-7.4-14.3
		c-0.8,4-1.7,8-2.5,12.1c-1.1-0.2-2.2-0.5-3.3-0.7c1.2-5.9,2.4-11.9,3.6-17.8c1,0.2,1.9,0.4,2.9,0.6c2.6,4.7,5.1,9.5,7.6,14.3
		c0.9-4,1.8-8,2.8-12C-40.9,306-39.7,306.3-38.6,306.6z"/>
	<path class="st2" d="M-36.3,325.5c-1.2-0.7-2.1-1.5-2.7-2.3c0.6-0.8,1.2-1.5,1.8-2.3c0.6,0.8,1.4,1.4,2.4,2.1c1,0.6,2,1.1,3.1,1.4
		c1.3,0.3,2.4,0.4,3.2,0.2c0.8-0.2,1.3-0.7,1.4-1.4c0.1-0.5,0.1-1-0.2-1.4c-0.3-0.4-0.7-0.8-1.2-1.1c-0.5-0.3-1.2-0.7-2.2-1.2
		c-1.3-0.7-2.4-1.3-3.1-1.8c-0.8-0.5-1.4-1.2-1.9-2.1c-0.5-0.8-0.5-1.8-0.3-3c0.2-1,0.7-1.8,1.5-2.5c0.8-0.7,1.8-1.1,3-1.3
		c1.2-0.2,2.7-0.1,4.3,0.4c1.1,0.3,2.2,0.7,3.2,1.3s1.9,1.2,2.5,1.9c-0.6,0.7-1.2,1.5-1.8,2.2c-0.7-0.7-1.4-1.2-2.3-1.7
		c-0.8-0.5-1.6-0.8-2.5-1c-1.4-0.4-2.4-0.4-3.2-0.1c-0.8,0.3-1.2,0.8-1.4,1.5c-0.1,0.5,0,1,0.3,1.4c0.3,0.4,0.7,0.8,1.2,1.1
		c0.5,0.3,1.3,0.7,2.2,1.2c1.3,0.7,2.3,1.3,3.1,1.8c0.8,0.6,1.4,1.3,1.8,2.1c0.4,0.8,0.5,1.8,0.2,3c-0.3,1-0.8,1.8-1.5,2.4
		c-0.8,0.6-1.7,1-3,1.2c-1.2,0.2-2.6,0.1-4.2-0.4C-33.8,326.8-35.1,326.2-36.3,325.5z"/>
	<path class="st2" d="M-22,329.3c-0.3-0.5-0.4-1-0.2-1.6c0.2-0.6,0.5-1,1-1.2c0.5-0.3,1-0.3,1.6-0.1c0.6,0.2,1,0.5,1.3,1
		s0.3,1,0.2,1.5c-0.2,0.5-0.5,1-1,1.2c-0.5,0.3-1,0.3-1.6,0.1C-21.3,330.1-21.7,329.7-22,329.3z M-17.6,312c1.3,0.4,2.6,0.7,3.9,1.1
		c-1.4,3.8-2.7,7.7-4,11.5c-0.9-0.2-1.7-0.5-2.6-0.7C-19.4,319.9-18.5,316-17.6,312z"/>
</g>
<g>
	<circle class="st3" cx="-157.7" cy="159.6" r="104.7"/>
	<path class="st4" d="M-124.6,124.6c0,24-14.6,43.5-32.5,43.5s-32.5-19.5-32.5-43.5H-124.6L-124.6,124.6z"/>
	<path class="st4" d="M-149.2,192.9h-15.9l0,0c3.3-11.3,3.3-23.3,0-34.6l0,0h15.9l0,0C-152.5,169.6-152.5,181.6-149.2,192.9
		L-149.2,192.9z"/>
	<polygon class="st5" points="-135.7,201.1 -178.2,201.1 -170.2,192.9 -143.7,192.9 	"/>
	<rect x="-182.5" y="201.1" class="st6" width="51.5" height="31.2"/>
	<path class="st7" d="M-186.8,130.1c0,0-6.2-11.7-14.8-6.4c-10,6.2-4.5,19.7,12.2,25.7c1.9,0.7,3.7,1.9,4.9,3.6
		c1.8,2.5,2.5,6.2-4.8,8.7"/>
	<path class="st7" d="M-128.5,130.1c0,0,7-11.7,15.6-6.4c10,6.2,4.5,19.7-12.2,25.7c-1.9,0.7-3.7,1.9-4.9,3.6
		c-1.8,2.5-2.5,6.2,4.8,8.7"/>
	<path class="st5" d="M-127.5,125.2h-59.2c-1.6,0-2.9-1.3-2.9-2.9v-13c0-1.6,1.3-2.9,2.9-2.9h59.2c1.6,0,2.9,1.3,2.9,2.9v13
		C-124.6,123.9-125.9,125.2-127.5,125.2z"/>
	<path class="st8" d="M-156.1,129.4l3.3,6.7c0.2,0.3,0.5,0.6,0.8,0.6l7.4,1.1c0.9,0.1,1.3,1.3,0.6,1.9l-5.3,5.2
		c-0.3,0.3-0.4,0.6-0.3,1l1.3,7.4c0.2,0.9-0.8,1.6-1.6,1.2l-6.6-3.5c-0.3-0.2-0.7-0.2-1,0l-6.6,3.5c-0.8,0.4-1.8-0.3-1.6-1.2
		l1.3-7.4c0.1-0.4-0.1-0.7-0.3-1l-5.3-5.2c-0.7-0.6-0.3-1.8,0.6-1.9l7.4-1.1c0.4-0.1,0.7-0.3,0.8-0.6l3.3-6.7
		C-157.7,128.6-156.5,128.6-156.1,129.4z"/>
</g>
<rect x="-319" y="-101.7" class="st9" width="320" height="640"/>
<rect x="-319" y="-102.4" class="st9" width="320" height="640"/>
<g id="Antarctica_Background">
</g>
<g id="Beaver">
</g>
<g id="Crocdile">
</g>
<g id="Walrus">
</g>
<g id="Polar_Bear">
</g>
<g id="North_Pole_Background">
</g>
<g id="Seal">
</g>
<g id="Orca">
</g>
<g id="Dolphin">
</g>
<g id="Squid">
</g>
<g id="Manatee">
</g>
<g id="Blue_Whale">
</g>
<g id="Coconut_Crab">
</g>
<g id="Penguin">
</g>
<g id="Jellyfish">
</g>
<g id="Narwhal">
</g>
<g id="Beluga">
</g>
<g class="st10">
	<path class="st2" d="M-206.9,359v6.9h-3.6V359l-7.7-12.7h3.9l5.7,9.5l5.8-9.5h3.6L-206.9,359z"/>
	<path class="st2" d="M-200.1,358.4c0-4.5,3.3-7.6,7.9-7.6c4.6,0,7.9,3.1,7.9,7.6c0,4.5-3.3,7.6-7.9,7.6
		C-196.8,366.1-200.1,362.9-200.1,358.4z M-187.8,358.4c0-2.8-1.9-4.7-4.4-4.7c-2.5,0-4.4,1.8-4.4,4.7s1.9,4.7,4.4,4.7
		C-189.7,363.1-187.8,361.3-187.8,358.4z"/>
	<path class="st2" d="M-166.5,351v14.9h-3.3V364c-1.1,1.4-2.9,2.1-4.8,2.1c-3.8,0-6.4-2.1-6.4-6.6V351h3.5v8c0,2.7,1.3,4,3.5,4
		c2.4,0,4.1-1.5,4.1-4.5V351H-166.5z"/>
	<path class="st2" d="M-158.5,347.3c0,0.6-0.1,1.1-0.6,2.4l-1.4,4h-2.3l1.1-4.3c-0.8-0.3-1.3-1-1.3-2.1c0-1.4,1-2.3,2.3-2.3
		C-159.5,345-158.5,345.9-158.5,347.3z"/>
	<path class="st2" d="M-146.5,350.8v3.3c-0.3-0.1-0.6-0.1-0.8-0.1c-2.6,0-4.3,1.6-4.3,4.6v7.2h-3.5V351h3.3v2.2
		C-150.8,351.6-149,350.8-146.5,350.8z"/>
	<path class="st2" d="M-129.7,359.5h-11.7c0.4,2.2,2.2,3.6,4.8,3.6c1.7,0,3-0.5,4-1.6l1.9,2.1c-1.3,1.6-3.4,2.4-6,2.4
		c-5,0-8.2-3.2-8.2-7.6s3.3-7.6,7.7-7.6c4.3,0,7.5,3,7.5,7.7C-129.7,358.8-129.7,359.2-129.7,359.5z M-141.5,357.2h8.4
		c-0.3-2.1-1.9-3.6-4.2-3.6C-139.5,353.6-141.1,355-141.5,357.2z"/>
	<path class="st2" d="M-106.2,357.1v8.7h-3.3v-1.8c-0.8,1.3-2.5,2-4.7,2c-3.4,0-5.5-1.9-5.5-4.5c0-2.5,1.7-4.4,6.2-4.4h3.8v-0.2
		c0-2-1.2-3.2-3.7-3.2c-1.7,0-3.4,0.6-4.5,1.5l-1.4-2.5c1.6-1.2,3.9-1.8,6.3-1.8C-108.7,350.8-106.2,352.8-106.2,357.1z
		 M-109.7,361.2v-1.7h-3.6c-2.4,0-3,0.9-3,2c0,1.3,1.1,2.1,2.8,2.1C-111.7,363.5-110.3,362.7-109.7,361.2z"/>
</g>
<g class="st10">
	<path class="st2" d="M-234.5,390.8v8.5h-3.5v-8.1c0-2.6-1.2-3.9-3.3-3.9c-2.3,0-3.9,1.5-3.9,4.5v7.6h-3.5v-8.1
		c0-2.6-1.2-3.9-3.3-3.9c-2.3,0-3.9,1.5-3.9,4.5v7.6h-3.5v-14.9h3.3v1.9c1.1-1.3,2.8-2.1,4.9-2.1c2.2,0,4,0.8,5,2.5
		c1.2-1.5,3.2-2.5,5.6-2.5C-237,384.3-234.5,386.3-234.5,390.8z"/>
	<path class="st2" d="M-217.5,390.6v8.7h-3.3v-1.8c-0.8,1.3-2.5,2-4.7,2c-3.4,0-5.5-1.9-5.5-4.5c0-2.5,1.7-4.4,6.2-4.4h3.8v-0.2
		c0-2-1.2-3.2-3.7-3.2c-1.7,0-3.4,0.6-4.5,1.5l-1.4-2.5c1.6-1.2,3.9-1.8,6.3-1.8C-220,384.3-217.5,386.3-217.5,390.6z M-221,394.7
		V393h-3.6c-2.4,0-3,0.9-3,2c0,1.3,1.1,2.1,2.8,2.1C-223.1,397-221.6,396.2-221,394.7z"/>
	<path class="st2" d="M-204.5,384.3v3.3c-0.3-0.1-0.6-0.1-0.8-0.1c-2.6,0-4.3,1.6-4.3,4.6v7.2h-3.5v-14.9h3.3v2.2
		C-208.7,385.1-206.9,384.3-204.5,384.3z"/>
	<path class="st2" d="M-202,379.9c0-1.2,0.9-2.1,2.2-2.1c1.3,0,2.2,0.9,2.2,2c0,1.2-0.9,2.2-2.2,2.2C-201,382-202,381.1-202,379.9z
		 M-201.5,384.5h3.5v14.9h-3.5V384.5z"/>
	<path class="st2" d="M-178.8,390.8v8.5h-3.5v-8.1c0-2.6-1.3-3.9-3.5-3.9c-2.5,0-4.2,1.5-4.2,4.5v7.5h-3.5v-14.9h3.3v1.9
		c1.1-1.4,3-2.1,5.1-2.1C-181.4,384.3-178.8,386.3-178.8,390.8z"/>
	<path class="st2" d="M-160.3,393h-11.7c0.4,2.2,2.2,3.6,4.8,3.6c1.7,0,3-0.5,4-1.6l1.9,2.1c-1.3,1.6-3.4,2.4-6,2.4
		c-5,0-8.2-3.2-8.2-7.6s3.3-7.6,7.7-7.6c4.3,0,7.5,3,7.5,7.7C-160.2,392.3-160.2,392.7-160.3,393z M-172,390.7h8.4
		c-0.3-2.1-1.9-3.6-4.2-3.6C-170,387.1-171.6,388.5-172,390.7z"/>
	<path class="st2" d="M-135.2,393h-11.7c0.4,2.2,2.2,3.6,4.8,3.6c1.7,0,3-0.5,4-1.6l1.9,2.1c-1.3,1.6-3.4,2.4-6,2.4
		c-5,0-8.2-3.2-8.2-7.6s3.3-7.6,7.7-7.6c4.3,0,7.5,3,7.5,7.7C-135.2,392.3-135.2,392.7-135.2,393z M-146.9,390.7h8.4
		c-0.3-2.1-1.9-3.6-4.2-3.6C-144.9,387.1-146.6,388.5-146.9,390.7z"/>
	<path class="st2" d="M-122.8,399.4l-3.8-5.2l-3.8,5.2h-3.8l5.8-7.6l-5.5-7.3h3.9l3.7,4.9l3.7-4.9h3.8l-5.6,7.3l5.8,7.6H-122.8z"/>
	<path class="st2" d="M-100.4,391.9c0,4.6-3.2,7.6-7.6,7.6c-1.9,0-3.6-0.6-4.8-2v7.2h-3.5v-20.3h3.3v2c1.2-1.4,2.9-2.1,4.9-2.1
		C-103.7,384.3-100.4,387.3-100.4,391.9z M-104,391.9c0-2.8-1.9-4.7-4.4-4.7s-4.4,1.8-4.4,4.7s1.9,4.7,4.4,4.7S-104,394.8-104,391.9
		z"/>
	<path class="st2" d="M-83.2,393h-11.7c0.4,2.2,2.2,3.6,4.8,3.6c1.7,0,3-0.5,4-1.6l1.9,2.1c-1.3,1.6-3.4,2.4-6,2.4
		c-5,0-8.2-3.2-8.2-7.6s3.3-7.6,7.7-7.6c4.3,0,7.5,3,7.5,7.7C-83.1,392.3-83.2,392.7-83.2,393z M-94.9,390.7h8.4
		c-0.3-2.1-1.9-3.6-4.2-3.6C-92.9,387.1-94.6,388.5-94.9,390.7z"/>
	<path class="st2" d="M-71.2,384.3v3.3c-0.3-0.1-0.6-0.1-0.8-0.1c-2.6,0-4.3,1.6-4.3,4.6v7.2h-3.5v-14.9h3.3v2.2
		C-75.5,385.1-73.7,384.3-71.2,384.3z"/>
	<path class="st2" d="M-58.7,398.6c-0.8,0.7-2.1,1-3.3,1c-3.3,0-5.1-1.7-5.1-5v-7.2h-2.5v-2.8h2.5v-3.4h3.5v3.4h4v2.8h-4v7.1
		c0,1.4,0.7,2.2,2.1,2.2c0.7,0,1.4-0.2,2-0.6L-58.7,398.6z"/>
	<path class="st2" d="M-56.5,397.4c0-1.2,0.9-2.1,2.3-2.1c1.3,0,2.2,0.9,2.2,2.1c0,1.2-0.9,2.2-2.2,2.2
		C-55.5,399.6-56.5,398.6-56.5,397.4z M-56.3,379.8h4.1l-0.7,13h-2.8L-56.3,379.8z"/>
</g>
</svg>
