<?xml version="1.0" encoding="utf-8"?>
<!-- Generator: Adobe Illustrator 22.1.0, SVG Export Plug-In . SVG Version: 6.00 Build 0)  -->
<svg version="1.1" xmlns="http://www.w3.org/2000/svg" xmlns:xlink="http://www.w3.org/1999/xlink" x="0px" y="0px"
	 viewBox="0 0 320 640" style="enable-background:new 0 0 320 640;" xml:space="preserve">
<style type="text/css">
	.st0{fill:url(#SVGID_1_);}
	.st1{opacity:0.54;}
	.st2{fill:url(#SVGID_2_);}
	.st3{fill:url(#SVGID_3_);}
	.st4{fill:url(#SVGID_4_);}
	.st5{fill:url(#SVGID_5_);}
	.st6{fill:none;}
	.st7{clip-path:url(#SVGID_7_);fill:url(#SVGID_8_);}
	.st8{clip-path:url(#SVGID_7_);}
	.st9{fill:#A87C4F;}
	.st10{fill:#3B2314;}
	.st11{fill:#8BC53F;}
	.st12{fill:#754C28;}
	.st13{fill:#C1B49A;}
	.st14{fill:#231F20;}
	.st15{fill:#262261;}
	.st16{fill:#FFDD15;}
	.st17{fill:#FFFFFF;}
	.st18{fill:#9A8479;}
	.st19{clip-path:url(#SVGID_7_);fill:#FFFFFF;stroke:#65C8D0;stroke-width:1.9383;stroke-miterlimit:10;}
	.st20{fill:#FFD45E;}
	.st21{fill:#FFF692;}
	.st22{fill:none;stroke:#231F20;stroke-width:1.3056;stroke-miterlimit:10;}
	.st23{fill:none;stroke:#FFF692;stroke-width:1.1766;stroke-miterlimit:10;}
	.st24{fill:none;stroke:#FFF692;stroke-width:1.3056;stroke-miterlimit:10;}
	.st25{opacity:0.25;fill:#FFF692;}
	.st26{fill:#404041;}
	.st27{fill:#E6E7E8;}
	.st28{fill:#FAAF40;}
	.st29{fill:#FFF100;}
	.st30{fill:#666666;}
	.st31{opacity:0.8;}
	.st32{fill:#2D47B2;}
	.st33{fill:url(#SVGID_9_);}
	.st34{fill:#FFAF2E;}
	.st35{fill:#FFE252;}
	.st36{opacity:0.84;fill:#0085A6;}
	.st37{opacity:0.46;fill:url(#SVGID_10_);}
	.st38{fill:url(#SVGID_11_);}
	.st39{fill:url(#SVGID_12_);}
	.st40{fill:url(#SVGID_13_);}
	.st41{fill:url(#SVGID_14_);}
	.st42{fill:#F7931E;}
	.st43{filter:url(#Adobe_OpacityMaskFilter);}
	.st44{opacity:0.75;mask:url(#SVGID_15_);}
	.st45{fill:#7F7F7F;}
	.st46{fill:#F78330;}
	.st47{fill:#8A77B5;}
	.st48{opacity:0.5;}
	.st49{fill:#727272;}
	.st50{fill:#45ABE1;}
	.st51{fill:#5FD92B;}
	.st52{clip-path:url(#SVGID_17_);fill:#87CCE2;}
	.st53{clip-path:url(#SVGID_17_);}
	.st54{fill:#534741;}
	.st55{clip-path:url(#SVGID_17_);fill:#6B4F6E;}
	.st56{clip-path:url(#SVGID_17_);fill:#99869B;}
	.st57{fill:#6B4F6E;}
	.st58{fill:#99869B;}
	.st59{fill:#543E36;}
	.st60{fill:none;stroke:#231F20;stroke-width:1.644;stroke-miterlimit:10;}
	.st61{fill:#5A4A42;}
	.st62{clip-path:url(#SVGID_17_);fill:#FFFFFF;stroke:#F78330;stroke-width:3;stroke-miterlimit:10;}
	.st63{fill:#E0E9ED;}
	.st64{fill:#B1C0C9;}
	.st65{fill:#49855E;}
	.st66{fill:#6E9E75;}
	.st67{fill:url(#SVGID_18_);}
	.st68{fill:#00AF64;}
	.st69{fill:#007042;}
	.st70{fill:#8DC63F;}
	.st71{fill:none;stroke:#8EA3AE;stroke-width:0.8363;stroke-linecap:round;stroke-miterlimit:10;}
	.st72{opacity:0.36;fill:#E0E9ED;}
	.st73{opacity:0.41;fill:#EF9D9C;}
	.st74{fill:#869ACF;}
	.st75{fill:#FFFFFF;stroke:#65C8D0;stroke-width:3.1118;stroke-miterlimit:10;}
	.st76{fill:#65C8D0;}
	.st77{opacity:0.4;fill:#869ACF;}
	.st78{fill:#FFEC5F;}
	.st79{fill:#FFFFFF;stroke:#65C8D0;stroke-width:2.0135;stroke-miterlimit:10;}
	.st80{opacity:0.4;fill:#FFF197;}
	.st81{opacity:0.38;fill:#82A5C0;}
	.st82{opacity:0.41;}
	.st83{fill:#82A5C0;}
	.st84{fill:none;stroke:#82A5C0;stroke-width:0.4486;stroke-miterlimit:10;}
	.st85{fill:none;stroke:#82A5C0;stroke-width:0.2243;stroke-miterlimit:10;}
	.st86{fill:url(#SVGID_19_);}
	.st87{fill:#998675;}
	.st88{fill:#FFFFFF;stroke:#F78330;stroke-width:4;stroke-miterlimit:10;}
	.st89{fill:url(#SVGID_20_);}
	.st90{clip-path:url(#SVGID_22_);fill:#87CCE2;}
	.st91{clip-path:url(#SVGID_22_);}
	.st92{clip-path:url(#SVGID_22_);fill:#666666;}
	.st93{clip-path:url(#SVGID_22_);fill:#6B4F6E;}
	.st94{clip-path:url(#SVGID_22_);fill:#99869B;}
	.st95{clip-path:url(#SVGID_22_);fill:#FFFFFF;stroke:#F78330;stroke-width:2.1034;stroke-miterlimit:10;}
	.st96{fill:#D0ECF4;}
	.st97{fill:#F9E3B2;}
	.st98{fill:none;stroke:#000000;stroke-width:0.8426;stroke-miterlimit:10;}
	.st99{fill:none;stroke:#000000;stroke-width:0.3883;stroke-miterlimit:10;}
	.st100{opacity:0.44;}
	.st101{fill:#00BBD6;}
	.st102{opacity:0.76;}
	.st103{opacity:0.47;fill:#D0ECF4;}
	.st104{fill:url(#SVGID_23_);}
	.st105{fill:#279686;}
	.st106{fill:#895881;}
	.st107{fill:#FFCF01;}
	.st108{fill:#F4BB3A;}
	.st109{fill:#A17A94;}
	.st110{fill:none;stroke:#FFCF01;stroke-width:5.5505;stroke-miterlimit:10;}
	.st111{fill:#929497;}
	.st112{fill:url(#XMLID_122_);}
	.st113{fill:#C3996B;}
	.st114{fill:none;stroke:#231F20;stroke-width:1.4491;stroke-miterlimit:10;}
	.st115{fill:#A6A8AB;}
	.st116{fill:none;stroke:#25A9E0;stroke-width:0.8387;stroke-miterlimit:10;}
	.st117{fill:#25A9E0;}
	.st118{fill:#075183;}
	.st119{fill:#1B75BB;}
	.st120{clip-path:url(#SVGID_25_);}
	.st121{fill:url(#SVGID_26_);}
	.st122{clip-path:url(#SVGID_25_);fill:#666666;}
	.st123{opacity:0.33;clip-path:url(#SVGID_25_);fill:url(#SVGID_27_);}
	.st124{opacity:0.33;clip-path:url(#SVGID_25_);fill:url(#SVGID_28_);}
	.st125{opacity:0.33;clip-path:url(#SVGID_25_);fill:url(#SVGID_29_);}
	.st126{opacity:0.33;clip-path:url(#SVGID_25_);fill:url(#SVGID_30_);}
	.st127{stroke:#231F20;stroke-width:0.8487;stroke-miterlimit:10;}
	.st128{fill:url(#SVGID_31_);}
	.st129{fill:url(#SVGID_32_);}
	.st130{fill:url(#SVGID_33_);}
	.st131{fill:url(#SVGID_34_);}
	.st132{fill:url(#SVGID_35_);}
	.st133{fill:url(#SVGID_36_);}
	.st134{opacity:0.52;fill:url(#SVGID_37_);}
	.st135{opacity:0.74;fill:url(#SVGID_38_);}
	.st136{opacity:0.74;fill:url(#SVGID_39_);}
	.st137{opacity:0.74;fill:url(#SVGID_40_);}
	.st138{opacity:0.74;fill:url(#SVGID_41_);}
	.st139{fill:url(#SVGID_42_);}
	.st140{fill:url(#SVGID_43_);}
	.st141{fill:url(#SVGID_44_);}
	.st142{fill:url(#SVGID_45_);}
	.st143{clip-path:url(#SVGID_25_);fill:none;}
	.st144{opacity:0.6;}
	.st145{fill:#333333;}
	.st146{fill:#B1EFFF;}
	.st147{opacity:0.44;fill:url(#SVGID_46_);}
	.st148{opacity:0.39;clip-path:url(#SVGID_48_);}
	.st149{fill:url(#SVGID_49_);}
	.st150{fill:url(#SVGID_50_);}
	.st151{fill:url(#SVGID_51_);}
	.st152{fill:url(#SVGID_52_);}
	.st153{fill:#87B9F4;}
	.st154{fill:url(#SVGID_53_);}
	.st155{fill:#F9A01B;}
	.st156{fill:#FFF200;}
	.st157{fill:url(#SVGID_54_);}
	.st158{fill:#F1F1F2;}
	.st159{fill:none;stroke:#A6A8AB;stroke-miterlimit:10;}
	.st160{fill:#2A4D8A;}
	.st161{fill:none;stroke:#021945;stroke-miterlimit:10;}
	.st162{fill:#D0D2D3;}
	.st163{fill:none;stroke:#2A4D8A;stroke-miterlimit:10;}
	.st164{fill:#6D6E70;}
	.st165{fill:#808184;}
	.st166{fill:#808184;stroke:#6D6E70;stroke-miterlimit:10;}
	.st167{fill:#58595B;}
	.st168{fill:none;stroke:#6D6E70;stroke-miterlimit:10;}
	.st169{fill:#999999;}
	.st170{fill:none;stroke:#231F20;stroke-width:1.5206;stroke-miterlimit:10;}
	.st171{fill:#E9C9D7;}
	.st172{fill:none;stroke:#404041;stroke-width:1.5206;stroke-miterlimit:10;}
	.st173{fill:#1A1A1A;}
	.st174{fill:none;stroke:#58595B;stroke-width:1.3968;stroke-miterlimit:10;}
	.st175{fill:#EE4036;}
	.st176{fill:#65383A;}
	.st177{opacity:0.38;fill:#FFFFFF;}
	.st178{fill:none;stroke:#231F20;stroke-miterlimit:10;}
	.st179{fill:none;stroke:#231F20;stroke-width:1.2755;stroke-miterlimit:10;}
	.st180{fill:none;stroke:#231F20;stroke-width:1.3447;stroke-miterlimit:10;}
	.st181{fill:none;stroke:#D0D2D3;stroke-width:1.3447;stroke-miterlimit:10;}
	.st182{fill:#8A5D3B;}
	.st183{fill:none;stroke:#754C28;stroke-width:0.8264;stroke-miterlimit:10;}
	.st184{fill:#603813;}
	.st185{fill:#F8AB8F;}
	.st186{fill:#285624;}
	.st187{fill:#447A39;}
	.st188{fill:none;stroke:#231F20;stroke-width:0.9563;stroke-miterlimit:10;}
	.st189{fill:#EFE5A1;}
	.st190{fill:#1D130C;}
	.st191{clip-path:url(#XMLID_243_);fill:#3B2314;}
	.st192{clip-path:url(#XMLID_243_);fill:none;stroke:#1D130C;stroke-width:1.2722;stroke-miterlimit:10;}
	.st193{fill:none;stroke:#1D130C;stroke-miterlimit:10;}
	.st194{fill:none;stroke:#A87C4F;stroke-miterlimit:10;}
	.st195{fill:#39B54A;}
	.st196{fill:#736357;}
	.st197{fill:#5E8272;}
	.st198{fill:#95866C;}
	.st199{fill:#41594E;}
	.st200{fill:none;stroke:#1E8744;stroke-width:6;stroke-miterlimit:10;}
	.st201{fill:none;stroke:#B52645;stroke-width:6;stroke-miterlimit:10;}
	.st202{fill:#87CCE2;}
	.st203{fill:#3E9172;}
	.st204{opacity:0.65;fill:#5E8272;}
	.st205{fill:#98C2CD;}
	.st206{fill:#E1FFFF;}
	.st207{fill:url(#SVGID_55_);}
	.st208{fill:url(#SVGID_56_);}
	.st209{fill:url(#SVGID_57_);}
	.st210{fill:url(#SVGID_58_);}
	.st211{opacity:0.67;fill:url(#SVGID_59_);}
	.st212{opacity:0.85;fill:url(#SVGID_60_);}
	.st213{fill:#ACDEE0;}
	.st214{fill:url(#SVGID_61_);}
	.st215{opacity:0.38;fill:#F2F2F2;}
	.st216{fill:#F2F2F2;}
	.st217{fill:url(#SVGID_62_);}
	.st218{opacity:0.21;}
	.st219{opacity:0.37;fill:#171442;}
	.st220{fill:url(#SVGID_63_);}
	.st221{opacity:0.25;}
	.st222{fill:url(#SVGID_64_);}
	.st223{fill:url(#SVGID_65_);}
	.st224{fill:url(#SVGID_66_);}
	.st225{fill:url(#SVGID_67_);}
	.st226{fill:url(#SVGID_68_);}
	.st227{fill:url(#SVGID_69_);}
	.st228{fill:url(#SVGID_70_);}
	.st229{fill:url(#SVGID_71_);}
	.st230{fill:url(#SVGID_72_);}
	.st231{fill:url(#SVGID_73_);}
	.st232{opacity:0.26;fill:url(#SVGID_74_);}
	.st233{opacity:0.26;fill:url(#SVGID_75_);}
	.st234{opacity:0.26;fill:url(#SVGID_76_);}
	.st235{opacity:0.26;fill:url(#SVGID_77_);}
	.st236{fill:#FFF8A1;}
	.st237{fill:url(#SVGID_78_);}
	.st238{opacity:0.26;fill:url(#SVGID_79_);}
	.st239{opacity:0.26;fill:url(#SVGID_80_);}
	.st240{opacity:0.26;fill:url(#SVGID_81_);}
	.st241{opacity:0.26;fill:url(#SVGID_82_);}
	.st242{opacity:0.26;fill:url(#SVGID_83_);}
	.st243{opacity:0.26;fill:url(#SVGID_84_);}
	.st244{opacity:0.26;fill:url(#SVGID_85_);}
	.st245{opacity:0.26;fill:url(#SVGID_86_);}
	.st246{fill:#92D7E7;}
	.st247{fill:#F8DB94;}
	.st248{fill:url(#SVGID_87_);}
	.st249{fill:url(#SVGID_88_);}
	.st250{fill:url(#SVGID_89_);}
	.st251{fill:url(#SVGID_90_);}
	.st252{fill:url(#SVGID_91_);}
	.st253{fill:url(#SVGID_92_);}
	.st254{fill:url(#SVGID_93_);}
	.st255{opacity:0.52;fill:url(#SVGID_94_);}
	.st256{opacity:0.74;fill:url(#SVGID_95_);}
	.st257{opacity:0.74;fill:url(#SVGID_96_);}
	.st258{opacity:0.74;fill:url(#SVGID_97_);}
	.st259{opacity:0.74;fill:url(#SVGID_98_);}
	.st260{fill:url(#SVGID_99_);}
	.st261{fill:url(#SVGID_100_);}
	.st262{fill:url(#SVGID_101_);}
	.st263{fill:url(#SVGID_102_);}
	.st264{fill:url(#SVGID_103_);}
	.st265{opacity:0.33;fill:url(#SVGID_104_);}
	.st266{opacity:0.33;fill:url(#SVGID_105_);}
	.st267{opacity:0.33;fill:url(#SVGID_106_);}
	.st268{opacity:0.33;fill:url(#SVGID_107_);}
	.st269{fill:url(#SVGID_108_);}
	.st270{fill:#0071BC;}
	.st271{opacity:0.45;}
</style>
<g id="Amazon_Environment">
	<g>
		<radialGradient id="SVGID_1_" cx="170" cy="268" r="228.0022" gradientUnits="userSpaceOnUse">
			<stop  offset="0" style="stop-color:#DFF7F9"/>
			<stop  offset="0.1438" style="stop-color:#D0F0F7"/>
			<stop  offset="0.4205" style="stop-color:#A8DCF0"/>
			<stop  offset="0.7987" style="stop-color:#69BDE7"/>
			<stop  offset="1" style="stop-color:#45ABE1"/>
		</radialGradient>
		<rect class="st0" width="320" height="640"/>
		<g>
			<path class="st105" d="M29.6,432.1c-1.7-0.4-3.1-1.1-4.3-2.2c-1.2-1.1-2.1-2.5-2.6-4.3c-0.5-1.7-0.5-3.4-0.1-5
				c0.5-1.6,1.3-3,2.6-4.2c1.3-1.2,2.9-2.1,4.8-2.6c1.5-0.4,3-0.5,4.4-0.3c1.4,0.2,2.6,0.6,3.7,1.4c-0.6,0.9-1.1,1.7-1.7,2.6
				c-1.7-1-3.5-1.3-5.5-0.8c-1.3,0.3-2.3,0.9-3.2,1.7c-0.9,0.8-1.4,1.8-1.7,2.8c-0.3,1.1-0.3,2.2,0.1,3.4c0.3,1.2,0.9,2.2,1.7,2.9
				c0.8,0.8,1.8,1.3,2.9,1.6c1.1,0.3,2.3,0.2,3.5-0.1c1.9-0.5,3.3-1.6,4.3-3.4c0.9,0.5,1.8,1,2.7,1.5c-0.6,1.2-1.4,2.2-2.5,3
				c-1.1,0.8-2.4,1.4-3.8,1.8C33,432.4,31.3,432.5,29.6,432.1z"/>
			<path class="st105" d="M48,427.3c-1.7-0.4-3.1-1.2-4.3-2.4c-1.2-1.2-2-2.6-2.4-4.3c-0.4-1.7-0.4-3.4,0.1-5c0.5-1.6,1.4-3,2.8-4.1
				c1.3-1.1,3-1.9,4.9-2.4c1.9-0.4,3.7-0.4,5.4,0c1.7,0.5,3.1,1.3,4.3,2.5c1.2,1.2,1.9,2.7,2.3,4.4c0.4,1.7,0.3,3.4-0.3,5
				c-0.6,1.6-1.5,2.9-2.8,4c-1.3,1.1-2.9,1.9-4.7,2.3C51.4,427.8,49.6,427.8,48,427.3z M55.6,422.9c0.9-0.7,1.5-1.7,1.8-2.7
				c0.3-1.1,0.4-2.2,0.1-3.4c-0.3-1.2-0.8-2.2-1.5-3c-0.8-0.8-1.7-1.4-2.8-1.7c-1.1-0.3-2.3-0.3-3.5,0c-1.2,0.3-2.3,0.8-3.2,1.6
				c-0.9,0.8-1.5,1.7-1.8,2.8c-0.3,1.1-0.4,2.2-0.1,3.4c0.3,1.2,0.8,2.2,1.6,3c0.8,0.8,1.7,1.4,2.8,1.7c1.1,0.3,2.2,0.3,3.5,0
				C53.8,424.2,54.8,423.7,55.6,422.9z"/>
			<path class="st105" d="M79.6,403.4c1,6,2,12,3,18c-0.9,0.2-1.9,0.3-2.8,0.5c-4-3.5-8.2-6.9-12.4-10.3c0.8,4,1.6,8.1,2.3,12.1
				c-1.1,0.2-2.2,0.4-3.3,0.7c-1.2-5.9-2.4-11.9-3.6-17.8c1-0.2,1.9-0.4,2.9-0.6c4.2,3.4,8.4,6.8,12.5,10.2c-0.7-4-1.4-8.1-2.1-12.1
				C77.3,403.7,78.5,403.5,79.6,403.4z"/>
			<path class="st105" d="M98.8,409.5c1.1-0.1,2.2-0.3,3.3-0.4c0.3,2.4,0.6,4.8,0.9,7.2c-0.9,0.9-1.9,1.6-3.1,2.1
				c-1.2,0.6-2.5,0.9-3.8,1.1c-1.9,0.3-3.6,0.1-5.2-0.5c-1.6-0.6-3-1.5-4-2.8c-1.1-1.3-1.8-2.8-2-4.5c-0.3-1.8-0.1-3.4,0.6-5
				c0.7-1.5,1.7-2.8,3.1-3.9c1.4-1,3.1-1.7,5.1-1.9c1.6-0.2,3.1-0.2,4.4,0.2c1.4,0.3,2.5,0.9,3.5,1.8c-0.7,0.8-1.3,1.6-1.9,2.3
				c-1.6-1.2-3.4-1.7-5.5-1.4c-1.3,0.2-2.5,0.6-3.4,1.3c-1,0.7-1.6,1.5-2.1,2.6c-0.4,1-0.6,2.2-0.4,3.4c0.2,1.2,0.6,2.2,1.3,3.1
				c0.7,0.9,1.6,1.5,2.7,1.9c1.1,0.4,2.3,0.5,3.5,0.3c1.4-0.2,2.7-0.7,3.7-1.4C99.2,413.3,99,411.4,98.8,409.5z"/>
			<path class="st105" d="M119.6,416.6c-1.4-1.7-2.8-3.3-4.3-5c-0.2,0-0.4,0.1-0.7,0.1c-1.4,0.1-2.8,0.3-4.2,0.4
				c0.2,1.8,0.4,3.5,0.6,5.3c-1.1,0.1-2.3,0.2-3.4,0.4c-0.7-6-1.4-12.1-2.1-18.1c2.6-0.3,5.2-0.6,7.8-0.8c1.6-0.2,3.1,0,4.4,0.4
				c1.3,0.4,2.3,1.1,3,2c0.7,0.9,1.1,2,1.3,3.4c0.1,1.4-0.1,2.6-0.7,3.6c-0.6,1-1.5,1.9-2.7,2.5c1.6,1.9,3.2,3.7,4.8,5.6
				C122.1,416.4,120.8,416.5,119.6,416.6z M117.1,402.4c-0.8-0.5-2-0.8-3.6-0.6c-1.4,0.1-2.7,0.3-4.1,0.4c0.3,2.4,0.5,4.8,0.8,7.2
				c1.3-0.1,2.7-0.3,4-0.4c1.5-0.1,2.6-0.6,3.3-1.3c0.7-0.7,1-1.6,0.9-2.8C118.4,403.8,117.9,402.9,117.1,402.4z"/>
			<path class="st105" d="M138.5,411.1c-3.1,0.2-6.2,0.3-9.3,0.6c-0.5,1.4-1,2.9-1.5,4.3c-1.2,0.1-2.3,0.2-3.5,0.3
				c2.3-6.3,4.6-12.5,7.1-18.8c1.2-0.1,2.3-0.1,3.5-0.2c3.2,5.9,6.3,11.8,9.3,17.8c-1.2,0-2.4,0.1-3.6,0.2
				C139.9,413.8,139.2,412.4,138.5,411.1z M137.2,408.5c-1.3-2.6-2.6-5.2-4-7.7c-1,2.7-2,5.4-3,8.2
				C132.5,408.7,134.9,408.6,137.2,408.5z"/>
			<path class="st105" d="M148.8,399.5c-2.1,0.1-4.2,0.1-6.3,0.2c0-1-0.1-1.9-0.1-2.9c5.4-0.2,10.8-0.4,16.2-0.4c0,1,0,1.9,0,2.9
				c-2.1,0-4.2,0.1-6.3,0.1c0.1,5.1,0.2,10.2,0.3,15.3c-1.1,0-2.3,0.1-3.4,0.1C149.1,409.7,148.9,404.6,148.8,399.5z"/>
			<path class="st105" d="M163,412.8c-1.4-1.4-2.2-3.4-2.2-6.1c0-3.4,0-6.8-0.1-10.3c1.2,0,2.4,0,3.5,0c0,3.4,0,6.8,0,10.1
				c0,3.6,1.6,5.4,4.7,5.4c3.1,0,4.7-1.7,4.8-5.3c0.1-3.4,0.1-6.8,0.2-10.1c1.2,0,2.3,0,3.5,0.1c-0.1,3.4-0.2,6.8-0.3,10.3
				c-0.1,2.6-0.8,4.6-2.3,6c-1.4,1.4-3.4,2-6,2C166.4,414.9,164.4,414.2,163,412.8z"/>
			<path class="st105" d="M182.4,396.8c1.2,0,2.4,0.1,3.5,0.1c-0.2,5.1-0.4,10.2-0.7,15.3c3.2,0.1,6.4,0.3,9.7,0.5
				c-0.1,1-0.1,1.9-0.2,2.9c-4.3-0.3-8.7-0.5-13-0.6C181.9,408.9,182.2,402.8,182.4,396.8z"/>
			<path class="st105" d="M209.9,412.5c-3.1-0.3-6.2-0.5-9.3-0.8c-0.7,1.4-1.4,2.7-2.1,4.1c-1.2-0.1-2.3-0.2-3.5-0.2
				c3.1-5.9,6.4-11.7,9.7-17.6c1.2,0.1,2.3,0.2,3.5,0.3c2.3,6.3,4.6,12.6,6.7,18.9c-1.2-0.1-2.4-0.2-3.6-0.4
				C210.8,415.4,210.4,414,209.9,412.5z M209,409.8c-0.9-2.7-1.9-5.5-2.8-8.2c-1.4,2.5-2.8,5.1-4.1,7.7
				C204.3,409.4,206.6,409.6,209,409.8z"/>
			<path class="st105" d="M221.7,402.6c-2.1-0.2-4.2-0.5-6.3-0.7c0.1-0.9,0.2-1.9,0.3-2.8c5.4,0.5,10.7,1.2,16.1,1.9
				c-0.1,0.9-0.3,1.9-0.4,2.8c-2.1-0.3-4.2-0.5-6.2-0.8c-0.6,5.1-1.2,10.2-1.8,15.2c-1.1-0.1-2.3-0.3-3.4-0.4
				C220.6,412.7,221.2,407.7,221.7,402.6z"/>
			<path class="st105" d="M234.5,401.3c1.2,0.2,2.3,0.3,3.5,0.5c-0.9,6-1.7,12-2.6,18c-1.1-0.2-2.3-0.3-3.4-0.5
				C232.8,413.3,233.7,407.3,234.5,401.3z"/>
			<path class="st105" d="M244,420.2c-1.4-1-2.4-2.3-3-3.9c-0.6-1.5-0.8-3.2-0.6-4.9c0.3-1.7,0.9-3.3,2-4.5c1.1-1.3,2.5-2.2,4.2-2.7
				c1.7-0.5,3.5-0.7,5.4-0.3c1.9,0.3,3.6,1,5,2.1c1.4,1.1,2.4,2.4,3,4c0.6,1.6,0.7,3.2,0.4,5c-0.3,1.8-1.1,3.2-2.2,4.5
				c-1.1,1.2-2.5,2.1-4.1,2.6c-1.6,0.5-3.4,0.6-5.2,0.3C246.9,421.9,245.3,421.2,244,420.2z M252.7,419.1c1.1-0.4,2-1,2.7-1.8
				c0.7-0.9,1.2-1.9,1.4-3.1c0.2-1.2,0.1-2.3-0.2-3.4c-0.4-1.1-1-2-1.9-2.7c-0.9-0.7-2-1.2-3.2-1.4c-1.3-0.2-2.4-0.1-3.5,0.2
				c-1.1,0.4-2,1-2.7,1.9c-0.7,0.9-1.2,1.9-1.4,3.1c-0.2,1.2-0.1,2.3,0.3,3.4c0.4,1.1,1.1,1.9,1.9,2.6c0.9,0.7,1.9,1.2,3.2,1.4
				C250.5,419.5,251.7,419.4,252.7,419.1z"/>
			<path class="st105" d="M282.4,410.3c-1.4,5.9-2.8,11.8-4.2,17.7c-0.9-0.2-1.8-0.4-2.8-0.6c-2.4-4.8-4.9-9.5-7.4-14.3
				c-0.8,4-1.7,8-2.5,12.1c-1.1-0.2-2.2-0.5-3.3-0.7c1.2-5.9,2.4-11.9,3.6-17.8c1,0.2,1.9,0.4,2.9,0.6c2.6,4.7,5.1,9.5,7.6,14.3
				c0.9-4,1.8-8,2.8-12C280.1,409.7,281.3,410,282.4,410.3z"/>
			<path class="st105" d="M284.7,429.2c-1.2-0.7-2.1-1.5-2.7-2.3c0.6-0.8,1.2-1.5,1.8-2.3c0.6,0.8,1.4,1.4,2.4,2.1
				c1,0.6,2,1.1,3.1,1.4c1.3,0.3,2.4,0.4,3.2,0.2c0.8-0.2,1.3-0.7,1.4-1.4c0.1-0.5,0.1-1-0.2-1.4c-0.3-0.4-0.7-0.8-1.2-1.1
				c-0.5-0.3-1.2-0.7-2.2-1.2c-1.3-0.7-2.4-1.3-3.1-1.8c-0.8-0.5-1.4-1.2-1.9-2.1c-0.5-0.8-0.5-1.8-0.3-3c0.2-1,0.7-1.8,1.5-2.5
				c0.8-0.7,1.8-1.1,3-1.3c1.2-0.2,2.7-0.1,4.3,0.4c1.1,0.3,2.2,0.7,3.2,1.3c1,0.6,1.9,1.2,2.5,1.9c-0.6,0.7-1.2,1.5-1.8,2.2
				c-0.7-0.7-1.4-1.2-2.3-1.7c-0.8-0.5-1.6-0.8-2.5-1c-1.4-0.4-2.4-0.4-3.2-0.1c-0.8,0.3-1.2,0.8-1.4,1.5c-0.1,0.5,0,1,0.3,1.4
				c0.3,0.4,0.7,0.8,1.2,1.1c0.5,0.3,1.3,0.7,2.2,1.2c1.3,0.7,2.3,1.3,3.1,1.8c0.8,0.6,1.4,1.3,1.8,2.1c0.4,0.8,0.5,1.8,0.2,3
				c-0.3,1-0.8,1.8-1.5,2.4c-0.8,0.6-1.7,1-3,1.2c-1.2,0.2-2.6,0.1-4.2-0.4C287.2,430.5,285.9,429.9,284.7,429.2z"/>
			<path class="st105" d="M299,433c-0.3-0.5-0.4-1-0.2-1.6c0.2-0.6,0.5-1,1-1.2c0.5-0.3,1-0.3,1.6-0.1c0.6,0.2,1,0.5,1.3,1
				c0.3,0.5,0.3,1,0.2,1.5c-0.2,0.5-0.5,1-1,1.2c-0.5,0.3-1,0.3-1.6,0.1C299.7,433.8,299.3,433.4,299,433z M303.4,415.7
				c1.3,0.4,2.6,0.7,3.9,1.1c-1.4,3.8-2.7,7.7-4,11.5c-0.9-0.2-1.7-0.5-2.6-0.7C301.6,423.6,302.5,419.7,303.4,415.7z"/>
		</g>
		<g>
			<path class="st17" d="M27.6,430.1c-1.7-0.4-3.1-1.1-4.3-2.2c-1.2-1.1-2.1-2.5-2.6-4.3c-0.5-1.7-0.5-3.4-0.1-5
				c0.5-1.6,1.3-3,2.6-4.2c1.3-1.2,2.9-2.1,4.8-2.6c1.5-0.4,3-0.5,4.4-0.3c1.4,0.2,2.6,0.6,3.7,1.4c-0.6,0.9-1.1,1.7-1.7,2.6
				c-1.7-1-3.5-1.3-5.5-0.8c-1.3,0.3-2.3,0.9-3.2,1.7c-0.9,0.8-1.4,1.8-1.7,2.8c-0.3,1.1-0.3,2.2,0.1,3.4c0.3,1.2,0.9,2.2,1.7,2.9
				c0.8,0.8,1.8,1.3,2.9,1.6c1.1,0.3,2.3,0.2,3.5-0.1c1.9-0.5,3.3-1.6,4.3-3.4c0.9,0.5,1.8,1,2.7,1.5c-0.6,1.2-1.4,2.2-2.5,3
				c-1.1,0.8-2.4,1.4-3.8,1.8C31,430.4,29.3,430.5,27.6,430.1z"/>
			<path class="st17" d="M46,425.3c-1.7-0.4-3.1-1.2-4.3-2.4c-1.2-1.2-2-2.6-2.4-4.3c-0.4-1.7-0.4-3.4,0.1-5c0.5-1.6,1.4-3,2.8-4.1
				c1.3-1.1,3-1.9,4.9-2.4c1.9-0.4,3.7-0.4,5.4,0c1.7,0.5,3.1,1.3,4.3,2.5c1.2,1.2,1.9,2.7,2.3,4.4c0.4,1.7,0.3,3.4-0.3,5
				c-0.6,1.6-1.5,2.9-2.8,4c-1.3,1.1-2.9,1.9-4.7,2.3C49.4,425.8,47.6,425.8,46,425.3z M53.6,420.9c0.9-0.7,1.5-1.7,1.8-2.7
				c0.3-1.1,0.4-2.2,0.1-3.4c-0.3-1.2-0.8-2.2-1.5-3c-0.8-0.8-1.7-1.4-2.8-1.7c-1.1-0.3-2.3-0.3-3.5,0c-1.2,0.3-2.3,0.8-3.2,1.6
				c-0.9,0.8-1.5,1.7-1.8,2.8c-0.3,1.1-0.4,2.2-0.1,3.4c0.3,1.2,0.8,2.2,1.6,3c0.8,0.8,1.7,1.4,2.8,1.7c1.1,0.3,2.2,0.3,3.5,0
				C51.8,422.2,52.8,421.7,53.6,420.9z"/>
			<path class="st17" d="M77.6,401.4c1,6,2,12,3,18c-0.9,0.2-1.9,0.3-2.8,0.5c-4-3.5-8.2-6.9-12.4-10.3c0.8,4,1.6,8.1,2.3,12.1
				c-1.1,0.2-2.2,0.4-3.3,0.7c-1.2-5.9-2.4-11.9-3.6-17.8c1-0.2,1.9-0.4,2.9-0.6c4.2,3.4,8.4,6.8,12.5,10.2c-0.7-4-1.4-8.1-2.1-12.1
				C75.3,401.7,76.5,401.5,77.6,401.4z"/>
			<path class="st17" d="M96.8,407.5c1.1-0.1,2.2-0.3,3.3-0.4c0.3,2.4,0.6,4.8,0.9,7.2c-0.9,0.9-1.9,1.6-3.1,2.1
				c-1.2,0.6-2.5,0.9-3.8,1.1c-1.9,0.3-3.6,0.1-5.2-0.5c-1.6-0.6-3-1.5-4-2.8c-1.1-1.3-1.8-2.8-2-4.5c-0.3-1.8-0.1-3.4,0.6-5
				c0.7-1.5,1.7-2.8,3.1-3.9c1.4-1,3.1-1.7,5.1-1.9c1.6-0.2,3.1-0.2,4.4,0.2c1.4,0.3,2.5,0.9,3.5,1.8c-0.7,0.8-1.3,1.6-1.9,2.3
				c-1.6-1.2-3.4-1.7-5.5-1.4c-1.3,0.2-2.5,0.6-3.4,1.3c-1,0.7-1.6,1.5-2.1,2.6c-0.4,1-0.6,2.2-0.4,3.4c0.2,1.2,0.6,2.2,1.3,3.1
				c0.7,0.9,1.6,1.5,2.7,1.9c1.1,0.4,2.3,0.5,3.5,0.3c1.4-0.2,2.7-0.7,3.7-1.4C97.2,411.3,97,409.4,96.8,407.5z"/>
			<path class="st17" d="M117.6,414.6c-1.4-1.7-2.8-3.3-4.3-5c-0.2,0-0.4,0.1-0.7,0.1c-1.4,0.1-2.8,0.3-4.2,0.4
				c0.2,1.8,0.4,3.5,0.6,5.3c-1.1,0.1-2.3,0.2-3.4,0.4c-0.7-6-1.4-12.1-2.1-18.1c2.6-0.3,5.2-0.6,7.8-0.8c1.6-0.2,3.1,0,4.4,0.4
				c1.3,0.4,2.3,1.1,3,2c0.7,0.9,1.1,2,1.3,3.4c0.1,1.4-0.1,2.6-0.7,3.6c-0.6,1-1.5,1.9-2.7,2.5c1.6,1.9,3.2,3.7,4.8,5.6
				C120.1,414.4,118.8,414.5,117.6,414.6z M115.1,400.4c-0.8-0.5-2-0.8-3.6-0.6c-1.4,0.1-2.7,0.3-4.1,0.4c0.3,2.4,0.5,4.8,0.8,7.2
				c1.3-0.1,2.7-0.3,4-0.4c1.5-0.1,2.6-0.6,3.3-1.3c0.7-0.7,1-1.6,0.9-2.8C116.4,401.8,115.9,400.9,115.1,400.4z"/>
			<path class="st17" d="M136.5,409.1c-3.1,0.2-6.2,0.3-9.3,0.6c-0.5,1.4-1,2.9-1.5,4.3c-1.2,0.1-2.3,0.2-3.5,0.3
				c2.3-6.3,4.6-12.5,7.1-18.8c1.2-0.1,2.3-0.1,3.5-0.2c3.2,5.9,6.3,11.8,9.3,17.8c-1.2,0-2.4,0.1-3.6,0.2
				C137.9,411.8,137.2,410.4,136.5,409.1z M135.2,406.5c-1.3-2.6-2.6-5.2-4-7.7c-1,2.7-2,5.4-3,8.2
				C130.5,406.7,132.9,406.6,135.2,406.5z"/>
			<path class="st17" d="M146.8,397.5c-2.1,0.1-4.2,0.1-6.3,0.2c0-1-0.1-1.9-0.1-2.9c5.4-0.2,10.8-0.4,16.2-0.4c0,1,0,1.9,0,2.9
				c-2.1,0-4.2,0.1-6.3,0.1c0.1,5.1,0.2,10.2,0.3,15.3c-1.1,0-2.3,0.1-3.4,0.1C147.1,407.7,146.9,402.6,146.8,397.5z"/>
			<path class="st17" d="M161,410.8c-1.4-1.4-2.2-3.4-2.2-6.1c0-3.4,0-6.8-0.1-10.3c1.2,0,2.4,0,3.5,0c0,3.4,0,6.8,0,10.1
				c0,3.6,1.6,5.4,4.7,5.4c3.1,0,4.7-1.7,4.8-5.3c0.1-3.4,0.1-6.8,0.2-10.1c1.2,0,2.3,0,3.5,0.1c-0.1,3.4-0.2,6.8-0.3,10.3
				c-0.1,2.6-0.8,4.6-2.3,6c-1.4,1.4-3.4,2-6,2C164.4,412.9,162.4,412.2,161,410.8z"/>
			<path class="st17" d="M180.4,394.8c1.2,0,2.4,0.1,3.5,0.1c-0.2,5.1-0.4,10.2-0.7,15.3c3.2,0.1,6.4,0.3,9.7,0.5
				c-0.1,1-0.1,1.9-0.2,2.9c-4.3-0.3-8.7-0.5-13-0.6C179.9,406.9,180.2,400.8,180.4,394.8z"/>
			<path class="st17" d="M207.9,410.5c-3.1-0.3-6.2-0.5-9.3-0.8c-0.7,1.4-1.4,2.7-2.1,4.1c-1.2-0.1-2.3-0.2-3.5-0.2
				c3.1-5.9,6.4-11.7,9.7-17.6c1.2,0.1,2.3,0.2,3.5,0.3c2.3,6.3,4.6,12.6,6.7,18.9c-1.2-0.1-2.4-0.2-3.6-0.4
				C208.8,413.4,208.4,412,207.9,410.5z M207,407.8c-0.9-2.7-1.9-5.5-2.8-8.2c-1.4,2.5-2.8,5.1-4.1,7.7
				C202.3,407.4,204.6,407.6,207,407.8z"/>
			<path class="st17" d="M219.7,400.6c-2.1-0.2-4.2-0.5-6.3-0.7c0.1-0.9,0.2-1.9,0.3-2.8c5.4,0.5,10.7,1.2,16.1,1.9
				c-0.1,0.9-0.3,1.9-0.4,2.8c-2.1-0.3-4.2-0.5-6.2-0.8c-0.6,5.1-1.2,10.2-1.8,15.2c-1.1-0.1-2.3-0.3-3.4-0.4
				C218.6,410.7,219.2,405.7,219.7,400.6z"/>
			<path class="st17" d="M232.5,399.3c1.2,0.2,2.3,0.3,3.5,0.5c-0.9,6-1.7,12-2.6,18c-1.1-0.2-2.3-0.3-3.4-0.5
				C230.8,411.3,231.7,405.3,232.5,399.3z"/>
			<path class="st17" d="M242,418.2c-1.4-1-2.4-2.3-3-3.9c-0.6-1.5-0.8-3.2-0.6-4.9c0.3-1.7,0.9-3.3,2-4.5c1.1-1.3,2.5-2.2,4.2-2.7
				c1.7-0.5,3.5-0.7,5.4-0.3c1.9,0.3,3.6,1,5,2.1c1.4,1.1,2.4,2.4,3,4c0.6,1.6,0.7,3.2,0.4,5c-0.3,1.8-1.1,3.2-2.2,4.5
				c-1.1,1.2-2.5,2.1-4.1,2.6c-1.6,0.5-3.4,0.6-5.2,0.3C244.9,419.9,243.3,419.2,242,418.2z M250.7,417.1c1.1-0.4,2-1,2.7-1.8
				c0.7-0.9,1.2-1.9,1.4-3.1c0.2-1.2,0.1-2.3-0.2-3.4c-0.4-1.1-1-2-1.9-2.7c-0.9-0.7-2-1.2-3.2-1.4c-1.3-0.2-2.4-0.1-3.5,0.2
				c-1.1,0.4-2,1-2.7,1.9c-0.7,0.9-1.2,1.9-1.4,3.1c-0.2,1.2-0.1,2.3,0.3,3.4c0.4,1.1,1.1,1.9,1.9,2.6c0.9,0.7,1.9,1.2,3.2,1.4
				C248.5,417.5,249.7,417.4,250.7,417.1z"/>
			<path class="st17" d="M280.4,408.3c-1.4,5.9-2.8,11.8-4.2,17.7c-0.9-0.2-1.8-0.4-2.8-0.6c-2.4-4.8-4.9-9.5-7.4-14.3
				c-0.8,4-1.7,8-2.5,12.1c-1.1-0.2-2.2-0.5-3.3-0.7c1.2-5.9,2.4-11.9,3.6-17.8c1,0.2,1.9,0.4,2.9,0.6c2.6,4.7,5.1,9.5,7.6,14.3
				c0.9-4,1.8-8,2.8-12C278.1,407.7,279.3,408,280.4,408.3z"/>
			<path class="st17" d="M282.7,427.2c-1.2-0.7-2.1-1.5-2.7-2.3c0.6-0.8,1.2-1.5,1.8-2.3c0.6,0.8,1.4,1.4,2.4,2.1
				c1,0.6,2,1.1,3.1,1.4c1.3,0.3,2.4,0.4,3.2,0.2c0.8-0.2,1.3-0.7,1.4-1.4c0.1-0.5,0.1-1-0.2-1.4c-0.3-0.4-0.7-0.8-1.2-1.1
				c-0.5-0.3-1.2-0.7-2.2-1.2c-1.3-0.7-2.4-1.3-3.1-1.8c-0.8-0.5-1.4-1.2-1.9-2.1c-0.5-0.8-0.5-1.8-0.3-3c0.2-1,0.7-1.8,1.5-2.5
				c0.8-0.7,1.8-1.1,3-1.3c1.2-0.2,2.7-0.1,4.3,0.4c1.1,0.3,2.2,0.7,3.2,1.3c1,0.6,1.9,1.2,2.5,1.9c-0.6,0.7-1.2,1.5-1.8,2.2
				c-0.7-0.7-1.4-1.2-2.3-1.7c-0.8-0.5-1.6-0.8-2.5-1c-1.4-0.4-2.4-0.4-3.2-0.1c-0.8,0.3-1.2,0.8-1.4,1.5c-0.1,0.5,0,1,0.3,1.4
				c0.3,0.4,0.7,0.8,1.2,1.1c0.5,0.3,1.3,0.7,2.2,1.2c1.3,0.7,2.3,1.3,3.1,1.8c0.8,0.6,1.4,1.3,1.8,2.1c0.4,0.8,0.5,1.8,0.2,3
				c-0.3,1-0.8,1.8-1.5,2.4c-0.8,0.6-1.7,1-3,1.2c-1.2,0.2-2.6,0.1-4.2-0.4C285.2,428.5,283.9,427.9,282.7,427.2z"/>
			<path class="st17" d="M297,431c-0.3-0.5-0.4-1-0.2-1.6c0.2-0.6,0.5-1,1-1.2c0.5-0.3,1-0.3,1.6-0.1c0.6,0.2,1,0.5,1.3,1
				c0.3,0.5,0.3,1,0.2,1.5c-0.2,0.5-0.5,1-1,1.2c-0.5,0.3-1,0.3-1.6,0.1C297.7,431.8,297.3,431.4,297,431z M301.4,413.7
				c1.3,0.4,2.6,0.7,3.9,1.1c-1.4,3.8-2.7,7.7-4,11.5c-0.9-0.2-1.7-0.5-2.6-0.7C299.6,421.6,300.5,417.7,301.4,413.7z"/>
		</g>
		<g>
			<circle class="st106" cx="161.3" cy="261.3" r="104.7"/>
			<path class="st107" d="M194.4,226.3c0,24-14.6,43.5-32.5,43.5s-32.5-19.5-32.5-43.5H194.4z"/>
			<path class="st107" d="M169.8,294.6h-15.9v0c3.3-11.3,3.3-23.3,0-34.6l0,0h15.9l0,0C166.5,271.3,166.5,283.3,169.8,294.6
				L169.8,294.6z"/>
			<polygon class="st108" points="183.3,302.8 140.8,302.8 148.8,294.6 175.3,294.6 			"/>
			<rect x="136.5" y="302.8" class="st109" width="51.5" height="31.2"/>
			<path class="st110" d="M132.2,231.8c0,0-6.2-11.7-14.8-6.4c-10,6.2-4.5,19.7,12.2,25.7c1.9,0.7,3.7,1.9,4.9,3.6
				c1.8,2.5,2.5,6.2-4.8,8.7"/>
			<path class="st110" d="M190.5,231.8c0,0,7-11.7,15.6-6.4c10,6.2,4.5,19.7-12.2,25.7c-1.9,0.7-3.7,1.9-4.9,3.6
				c-1.8,2.5-2.5,6.2,4.8,8.7"/>
			<path class="st108" d="M191.5,226.9h-59.2c-1.6,0-2.9-1.3-2.9-2.9v-13c0-1.6,1.3-2.9,2.9-2.9h59.2c1.6,0,2.9,1.3,2.9,2.9v13
				C194.4,225.6,193.1,226.9,191.5,226.9z"/>
			<path class="st46" d="M162.9,231.1l3.3,6.7c0.2,0.3,0.5,0.6,0.8,0.6l7.4,1.1c0.9,0.1,1.3,1.3,0.6,1.9l-5.3,5.2
				c-0.3,0.3-0.4,0.6-0.3,1l1.3,7.4c0.2,0.9-0.8,1.6-1.6,1.2l-6.6-3.5c-0.3-0.2-0.7-0.2-1,0l-6.6,3.5c-0.8,0.4-1.8-0.3-1.6-1.2
				l1.3-7.4c0.1-0.4-0.1-0.7-0.3-1l-5.3-5.2c-0.7-0.6-0.3-1.8,0.6-1.9l7.4-1.1c0.4-0.1,0.7-0.3,0.8-0.6l3.3-6.7
				C161.3,230.3,162.5,230.3,162.9,231.1z"/>
		</g>
		<g>
			<path class="st17" d="M98.8,466.5v9.4H95v-9.5l-10.8-17.8h4.2L97,463l8.8-14.4h3.9L98.8,466.5z"/>
			<path class="st17" d="M114,474.8c-1.6-0.9-2.9-2.2-3.8-3.8s-1.4-3.4-1.4-5.4s0.5-3.8,1.4-5.4s2.2-2.8,3.8-3.7
				c1.6-0.9,3.5-1.3,5.5-1.3c2.1,0,3.9,0.4,5.5,1.3c1.6,0.9,2.9,2.1,3.8,3.7s1.4,3.4,1.4,5.4s-0.5,3.8-1.4,5.4s-2.2,2.9-3.8,3.8
				c-1.6,0.9-3.5,1.4-5.5,1.4C117.5,476.2,115.7,475.7,114,474.8z M123.1,472c1.1-0.6,1.9-1.5,2.5-2.6c0.6-1.1,0.9-2.4,0.9-3.8
				s-0.3-2.7-0.9-3.8c-0.6-1.1-1.4-2-2.5-2.6c-1.1-0.6-2.2-0.9-3.6-0.9c-1.3,0-2.5,0.3-3.6,0.9c-1.1,0.6-1.9,1.5-2.5,2.6
				c-0.6,1.1-0.9,2.4-0.9,3.8s0.3,2.7,0.9,3.8c0.6,1.1,1.4,2,2.5,2.6c1.1,0.6,2.2,0.9,3.6,0.9C120.9,472.9,122.1,472.6,123.1,472z"
				/>
			<path class="st17" d="M154.7,455.3v20.7h-3.5v-3.1c-0.8,1.1-1.7,1.9-3,2.5s-2.6,0.9-4,0.9c-2.8,0-4.9-0.8-6.5-2.3
				c-1.6-1.5-2.4-3.8-2.4-6.7v-11.9h3.7v11.5c0,2,0.5,3.5,1.4,4.5s2.3,1.5,4.1,1.5c2,0,3.5-0.6,4.7-1.8c1.1-1.2,1.7-2.9,1.7-5.1
				v-10.7H154.7z"/>
			<path class="st17" d="M164.6,447.5c0.5,0.5,0.7,1.1,0.7,1.9c0,0.4,0,0.8-0.1,1.2s-0.2,0.9-0.5,1.6l-1.9,5.5h-2.5l1.4-5.8
				c-0.5-0.2-0.9-0.5-1.2-0.9s-0.4-0.9-0.4-1.5c0-0.8,0.2-1.4,0.7-1.9c0.5-0.5,1.1-0.7,1.9-0.7C163.5,446.8,164.2,447,164.6,447.5z"
				/>
			<path class="st17" d="M177.2,456c1.3-0.6,2.8-0.9,4.6-0.9v3.6c-0.2,0-0.5,0-0.9,0c-2,0-3.6,0.6-4.8,1.8s-1.7,2.9-1.7,5.2v10.3
				h-3.7v-20.7h3.6v3.5C175,457.5,175.9,456.6,177.2,456z"/>
			<path class="st17" d="M204.9,466.9h-16.8c0.2,1.8,1,3.3,2.4,4.4s3.1,1.7,5.1,1.7c2.5,0,4.5-0.8,6-2.5l2.1,2.4
				c-0.9,1.1-2.1,1.9-3.5,2.5c-1.4,0.6-2.9,0.9-4.7,0.9c-2.2,0-4.1-0.4-5.8-1.3c-1.7-0.9-3-2.2-3.9-3.8c-0.9-1.6-1.4-3.4-1.4-5.5
				c0-2,0.4-3.8,1.3-5.4c0.9-1.6,2.1-2.9,3.7-3.8c1.6-0.9,3.3-1.3,5.3-1.3s3.7,0.4,5.3,1.3c1.5,0.9,2.8,2.2,3.6,3.8
				c0.9,1.6,1.3,3.5,1.3,5.5C204.9,466,204.9,466.4,204.9,466.9z M190.2,459.9c-1.2,1.1-1.9,2.5-2.1,4.3h13.3
				c-0.2-1.7-0.9-3.2-2.1-4.3c-1.2-1.1-2.7-1.7-4.5-1.7S191.4,458.8,190.2,459.9z"/>
			<path class="st17" d="M234.7,457.2c1.5,1.4,2.3,3.5,2.3,6.3v12.5h-3.5v-2.7c-0.6,1-1.5,1.7-2.7,2.2c-1.2,0.5-2.5,0.8-4.1,0.8
				c-2.3,0-4.2-0.6-5.6-1.7c-1.4-1.1-2.1-2.6-2.1-4.4c0-1.8,0.7-3.3,2-4.4c1.3-1.1,3.4-1.7,6.3-1.7h5.9v-0.7c0-1.6-0.5-2.8-1.4-3.7
				c-0.9-0.9-2.3-1.3-4.1-1.3c-1.2,0-2.4,0.2-3.6,0.6s-2.2,0.9-3,1.6l-1.6-2.8c1.1-0.9,2.3-1.5,3.8-2c1.5-0.5,3.1-0.7,4.7-0.7
				C231,455.1,233.2,455.8,234.7,457.2z M231,472.3c1-0.6,1.8-1.5,2.3-2.7v-2.9h-5.8c-3.2,0-4.8,1.1-4.8,3.2c0,1,0.4,1.9,1.2,2.5
				c0.8,0.6,1.9,0.9,3.4,0.9S230,473,231,472.3z"/>
			<path class="st17" d="M127.1,504.1c1.5,1.5,2.3,3.7,2.3,6.7v11.9h-3.7v-11.5c0-2-0.5-3.5-1.4-4.5c-0.9-1-2.2-1.5-4-1.5
				c-1.9,0-3.4,0.6-4.5,1.8c-1.1,1.2-1.7,2.9-1.7,5.1v10.6h-3.7v-11.5c0-2-0.5-3.5-1.4-4.5c-0.9-1-2.2-1.5-4-1.5
				c-1.9,0-3.4,0.6-4.5,1.8c-1.1,1.2-1.7,2.9-1.7,5.1v10.6H95v-20.7h3.6v3.1c0.8-1.1,1.7-1.9,3-2.4c1.2-0.6,2.6-0.8,4.2-0.8
				c1.6,0,3,0.3,4.3,1c1.2,0.6,2.2,1.6,2.9,2.8c0.8-1.2,1.9-2.1,3.3-2.8s3-1,4.7-1C123.5,501.9,125.6,502.6,127.1,504.1z"/>
			<path class="st17" d="M150.4,504c1.5,1.4,2.3,3.5,2.3,6.3v12.5h-3.5V520c-0.6,1-1.5,1.7-2.7,2.2c-1.2,0.5-2.5,0.8-4.1,0.8
				c-2.3,0-4.2-0.6-5.6-1.7c-1.4-1.1-2.1-2.6-2.1-4.4c0-1.8,0.7-3.3,2-4.4c1.3-1.1,3.4-1.7,6.3-1.7h5.9v-0.7c0-1.6-0.5-2.8-1.4-3.7
				c-0.9-0.9-2.3-1.3-4.1-1.3c-1.2,0-2.4,0.2-3.6,0.6s-2.2,0.9-3,1.6l-1.6-2.8c1.1-0.9,2.3-1.5,3.8-2c1.5-0.5,3.1-0.7,4.7-0.7
				C146.6,501.9,148.8,502.6,150.4,504z M146.6,519.1c1-0.6,1.8-1.5,2.3-2.7v-2.9h-5.8c-3.2,0-4.8,1.1-4.8,3.2c0,1,0.4,1.9,1.2,2.5
				c0.8,0.6,1.9,0.9,3.4,0.9S145.6,519.8,146.6,519.1z"/>
			<path class="st17" d="M166.1,502.8c1.3-0.6,2.8-0.9,4.6-0.9v3.6c-0.2,0-0.5,0-0.9,0c-2,0-3.6,0.6-4.8,1.8s-1.7,2.9-1.7,5.2v10.3
				h-3.7v-20.7h3.6v3.5C163.8,504.3,164.8,503.4,166.1,502.8z"/>
			<path class="st17" d="M175.4,497.4c-0.5-0.5-0.7-1-0.7-1.7c0-0.7,0.2-1.3,0.7-1.7c0.5-0.5,1.1-0.7,1.8-0.7c0.7,0,1.3,0.2,1.8,0.7
				c0.5,0.5,0.7,1,0.7,1.7c0,0.7-0.2,1.3-0.7,1.8c-0.5,0.5-1.1,0.7-1.8,0.7C176.4,498.1,175.8,497.9,175.4,497.4z M175.3,502.1h3.7
				v20.7h-3.7V502.1z"/>
			<path class="st17" d="M203.5,504.2c1.5,1.5,2.3,3.8,2.3,6.7v11.9h-3.7v-11.5c0-2-0.5-3.5-1.4-4.5c-1-1-2.3-1.5-4.1-1.5
				c-2,0-3.6,0.6-4.8,1.8c-1.2,1.2-1.8,2.9-1.8,5.1v10.6h-3.7v-20.7h3.6v3.1c0.8-1.1,1.8-1.9,3.1-2.5c1.3-0.6,2.8-0.9,4.4-0.9
				C199.8,501.9,201.9,502.6,203.5,504.2z"/>
			<path class="st17" d="M231.5,513.7h-16.8c0.2,1.8,1,3.3,2.4,4.4s3.1,1.7,5.1,1.7c2.5,0,4.5-0.8,6-2.5l2.1,2.4
				c-0.9,1.1-2.1,1.9-3.5,2.5c-1.4,0.6-2.9,0.9-4.7,0.9c-2.2,0-4.1-0.4-5.8-1.3c-1.7-0.9-3-2.2-3.9-3.8c-0.9-1.6-1.4-3.4-1.4-5.5
				c0-2,0.4-3.8,1.3-5.4c0.9-1.6,2.1-2.9,3.7-3.8c1.6-0.9,3.3-1.3,5.3-1.3s3.7,0.4,5.3,1.3c1.5,0.9,2.8,2.2,3.6,3.8
				c0.9,1.6,1.3,3.5,1.3,5.5C231.5,512.8,231.5,513.2,231.5,513.7z M216.8,506.7c-1.2,1.1-1.9,2.5-2.1,4.3h13.3
				c-0.2-1.7-0.9-3.2-2.1-4.3c-1.2-1.1-2.7-1.7-4.5-1.7S218,505.6,216.8,506.7z"/>
			<path class="st17" d="M115.3,560.5H98.5c0.2,1.8,1,3.3,2.4,4.4s3.1,1.7,5.1,1.7c2.5,0,4.5-0.8,6-2.5l2.1,2.4
				c-0.9,1.1-2.1,1.9-3.5,2.5c-1.4,0.6-2.9,0.9-4.7,0.9c-2.2,0-4.1-0.4-5.8-1.3c-1.7-0.9-3-2.2-3.9-3.8c-0.9-1.6-1.4-3.4-1.4-5.5
				c0-2,0.4-3.8,1.3-5.4c0.9-1.6,2.1-2.9,3.7-3.8c1.6-0.9,3.3-1.3,5.3-1.3s3.7,0.4,5.3,1.3c1.5,0.9,2.8,2.2,3.6,3.8
				c0.9,1.6,1.3,3.5,1.3,5.5C115.3,559.6,115.3,560,115.3,560.5z M100.6,553.5c-1.2,1.1-1.9,2.5-2.1,4.3h13.3
				c-0.2-1.7-0.9-3.2-2.1-4.3c-1.2-1.1-2.7-1.7-4.5-1.7S101.8,552.4,100.6,553.5z"/>
			<path class="st17" d="M133.1,569.5l-6-7.9l-6,7.9h-4.2l8.2-10.6l-7.8-10.1h4.2l5.7,7.4l5.7-7.4h4.1l-7.8,10.1l8.2,10.6H133.1z"/>
			<path class="st17" d="M157.8,550c1.6,0.9,2.8,2.1,3.7,3.7c0.9,1.6,1.3,3.4,1.3,5.5s-0.4,3.9-1.3,5.5c-0.9,1.6-2.1,2.8-3.7,3.7
				s-3.4,1.3-5.4,1.3c-1.5,0-2.8-0.3-4.1-0.9c-1.2-0.6-2.3-1.4-3.1-2.5v10.7h-3.7v-28.2h3.6v3.3c0.8-1.1,1.9-2,3.2-2.6
				c1.3-0.6,2.7-0.9,4.2-0.9C154.4,548.7,156.2,549.1,157.8,550z M155.7,565.6c1.1-0.6,1.9-1.5,2.5-2.6c0.6-1.1,0.9-2.4,0.9-3.8
				s-0.3-2.7-0.9-3.8c-0.6-1.1-1.4-2-2.5-2.6c-1.1-0.6-2.2-0.9-3.6-0.9c-1.3,0-2.5,0.3-3.5,0.9c-1.1,0.6-1.9,1.5-2.5,2.6
				c-0.6,1.1-0.9,2.4-0.9,3.8s0.3,2.7,0.9,3.8c0.6,1.1,1.4,2,2.5,2.6c1.1,0.6,2.2,0.9,3.5,0.9C153.4,566.5,154.6,566.2,155.7,565.6z
				"/>
			<path class="st17" d="M186.7,560.5h-16.8c0.2,1.8,1,3.3,2.4,4.4s3.1,1.7,5.1,1.7c2.5,0,4.5-0.8,6-2.5l2.1,2.4
				c-0.9,1.1-2.1,1.9-3.5,2.5c-1.4,0.6-2.9,0.9-4.7,0.9c-2.2,0-4.1-0.4-5.8-1.3c-1.7-0.9-3-2.2-3.9-3.8c-0.9-1.6-1.4-3.4-1.4-5.5
				c0-2,0.4-3.8,1.3-5.4c0.9-1.6,2.1-2.9,3.7-3.8c1.6-0.9,3.3-1.3,5.3-1.3s3.7,0.4,5.3,1.3c1.5,0.9,2.8,2.2,3.6,3.8
				c0.9,1.6,1.3,3.5,1.3,5.5C186.7,559.6,186.7,560,186.7,560.5z M172,553.5c-1.2,1.1-1.9,2.5-2.1,4.3h13.3
				c-0.2-1.7-0.9-3.2-2.1-4.3c-1.2-1.1-2.7-1.7-4.5-1.7S173.2,552.4,172,553.5z"/>
			<path class="st17" d="M198.4,549.6c1.3-0.6,2.8-0.9,4.6-0.9v3.6c-0.2,0-0.5,0-0.9,0c-2,0-3.6,0.6-4.8,1.8s-1.7,2.9-1.7,5.2v10.3
				h-3.7v-20.7h3.6v3.5C196.2,551.1,197.1,550.2,198.4,549.6z"/>
			<path class="st17" d="M220.1,568.3c-0.5,0.5-1.2,0.8-2,1.1c-0.8,0.2-1.6,0.4-2.5,0.4c-2.1,0-3.7-0.6-4.8-1.7
				c-1.1-1.1-1.7-2.7-1.7-4.8v-11.3h-3.5v-3.1h3.5v-4.5h3.7v4.5h5.9v3.1h-5.9v11.2c0,1.1,0.3,2,0.8,2.6c0.6,0.6,1.4,0.9,2.4,0.9
				c1.1,0,2.1-0.3,2.9-1L220.1,568.3z"/>
			<path class="st17" d="M224.5,569c-0.5-0.5-0.7-1.1-0.7-1.8s0.2-1.3,0.7-1.8s1.1-0.7,1.8-0.7s1.3,0.2,1.8,0.7
				c0.5,0.5,0.7,1.1,0.7,1.8s-0.2,1.3-0.7,1.8s-1.1,0.7-1.8,0.7C225.6,569.8,225,569.5,224.5,569z M224.1,542.2h4.4l-0.7,18.7h-3
				L224.1,542.2z"/>
		</g>
		<rect class="st6" width="320" height="640"/>
		<rect x="0" y="-0.7" class="st6" width="320" height="640"/>
	</g>
</g>
<g id="Antarctica_Background">
</g>
<g id="Beaver">
</g>
<g id="Crocdile">
</g>
<g id="Walrus">
</g>
<g id="Polar_Bear">
</g>
<g id="North_Pole_Background">
</g>
<g id="Seal">
</g>
<g id="Orca">
</g>
<g id="Dolphin">
</g>
<g id="Squid">
</g>
<g id="Manatee">
</g>
<g id="Blue_Whale">
</g>
<g id="Coconut_Crab">
</g>
<g id="Penguin">
</g>
<g id="Jellyfish">
</g>
<g id="Narwhal">
</g>
<g id="Beluga">
</g>
</svg>
