<?xml version="1.0" encoding="utf-8"?>
<!-- Generator: Adobe Illustrator 19.0.0, SVG Export Plug-In . SVG Version: 6.00 Build 0)  -->
<svg version="1.1" id="Layer_1" xmlns="http://www.w3.org/2000/svg" xmlns:xlink="http://www.w3.org/1999/xlink" x="0px" y="0px"
	 viewBox="-319 -101.7 320 763.7" style="enable-background:new -319 -101.7 320 763.7;" xml:space="preserve">
<style type="text/css">
	.st0{fill:url(#SVGID_1_);}
	.st1{fill:#279686;}
	.st2{fill:#FFFFFF;}
	.st3{fill:#895881;}
	.st4{fill:#FFCF01;}
	.st5{fill:#F4BB3A;}
	.st6{fill:#A17A94;}
	.st7{fill:none;stroke:#FFCF01;stroke-width:5.5505;stroke-miterlimit:10;}
	.st8{fill:#F78330;}
	.st9{fill:none;}
	.st10{enable-background:new    ;}
	.st11{fill:#DBDADA;}
</style>
<radialGradient id="SVGID_1_" cx="-150" cy="1034.1163" r="228.0022" gradientTransform="matrix(1 0 0 -1.1933 0 1387.8025)" gradientUnits="userSpaceOnUse">
	<stop  offset="0" style="stop-color:#DFF7F9"/>
	<stop  offset="0.1438" style="stop-color:#D0F0F7"/>
	<stop  offset="0.4205" style="stop-color:#A8DCF0"/>
	<stop  offset="0.7987" style="stop-color:#69BDE7"/>
	<stop  offset="1" style="stop-color:#45ABE1"/>
</radialGradient>
<rect x="-319" y="-101" class="st0" width="320" height="763.7"/>
<g>
	<path class="st1" d="M-289.4,331.1c-1.7-0.4-3.1-1.1-4.3-2.2c-1.2-1.1-2.1-2.5-2.6-4.3c-0.5-1.7-0.5-3.4-0.1-5
		c0.5-1.6,1.3-3,2.6-4.2c1.3-1.2,2.9-2.1,4.8-2.6c1.5-0.4,3-0.5,4.4-0.3s2.6,0.6,3.7,1.4c-0.6,0.9-1.1,1.7-1.7,2.6
		c-1.7-1-3.5-1.3-5.5-0.8c-1.3,0.3-2.3,0.9-3.2,1.7c-0.9,0.8-1.4,1.8-1.7,2.8c-0.3,1.1-0.3,2.2,0.1,3.4c0.3,1.2,0.9,2.2,1.7,2.9
		c0.8,0.8,1.8,1.3,2.9,1.6c1.1,0.3,2.3,0.2,3.5-0.1c1.9-0.5,3.3-1.6,4.3-3.4c0.9,0.5,1.8,1,2.7,1.5c-0.6,1.2-1.4,2.2-2.5,3
		s-2.4,1.4-3.8,1.8C-286,331.4-287.7,331.5-289.4,331.1z"/>
	<path class="st1" d="M-271,326.3c-1.7-0.4-3.1-1.2-4.3-2.4c-1.2-1.2-2-2.6-2.4-4.3c-0.4-1.7-0.4-3.4,0.1-5s1.4-3,2.8-4.1
		c1.3-1.1,3-1.9,4.9-2.4c1.9-0.4,3.7-0.4,5.4,0c1.7,0.5,3.1,1.3,4.3,2.5c1.2,1.2,1.9,2.7,2.3,4.4c0.4,1.7,0.3,3.4-0.3,5
		c-0.6,1.6-1.5,2.9-2.8,4s-2.9,1.9-4.7,2.3C-267.6,326.8-269.4,326.8-271,326.3z M-263.4,321.9c0.9-0.7,1.5-1.7,1.8-2.7
		c0.3-1.1,0.4-2.2,0.1-3.4c-0.3-1.2-0.8-2.2-1.5-3c-0.8-0.8-1.7-1.4-2.8-1.7c-1.1-0.3-2.3-0.3-3.5,0s-2.3,0.8-3.2,1.6
		c-0.9,0.8-1.5,1.7-1.8,2.8c-0.3,1.1-0.4,2.2-0.1,3.4c0.3,1.2,0.8,2.2,1.6,3c0.8,0.8,1.7,1.4,2.8,1.7c1.1,0.3,2.2,0.3,3.5,0
		C-265.2,323.2-264.2,322.7-263.4,321.9z"/>
	<path class="st1" d="M-239.4,302.4c1,6,2,12,3,18c-0.9,0.2-1.9,0.3-2.8,0.5c-4-3.5-8.2-6.9-12.4-10.3c0.8,4,1.6,8.1,2.3,12.1
		c-1.1,0.2-2.2,0.4-3.3,0.7c-1.2-5.9-2.4-11.9-3.6-17.8c1-0.2,1.9-0.4,2.9-0.6c4.2,3.4,8.4,6.8,12.5,10.2c-0.7-4-1.4-8.1-2.1-12.1
		C-241.7,302.7-240.5,302.5-239.4,302.4z"/>
	<path class="st1" d="M-220.2,308.5c1.1-0.1,2.2-0.3,3.3-0.4c0.3,2.4,0.6,4.8,0.9,7.2c-0.9,0.9-1.9,1.6-3.1,2.1
		c-1.2,0.6-2.5,0.9-3.8,1.1c-1.9,0.3-3.6,0.1-5.2-0.5c-1.6-0.6-3-1.5-4-2.8c-1.1-1.3-1.8-2.8-2-4.5c-0.3-1.8-0.1-3.4,0.6-5
		c0.7-1.5,1.7-2.8,3.1-3.9c1.4-1,3.1-1.7,5.1-1.9c1.6-0.2,3.1-0.2,4.4,0.2c1.4,0.3,2.5,0.9,3.5,1.8c-0.7,0.8-1.3,1.6-1.9,2.3
		c-1.6-1.2-3.4-1.7-5.5-1.4c-1.3,0.2-2.5,0.6-3.4,1.3c-1,0.7-1.6,1.5-2.1,2.6c-0.4,1-0.6,2.2-0.4,3.4c0.2,1.2,0.6,2.2,1.3,3.1
		s1.6,1.5,2.7,1.9s2.3,0.5,3.5,0.3c1.4-0.2,2.7-0.7,3.7-1.4C-219.8,312.3-220,310.4-220.2,308.5z"/>
	<path class="st1" d="M-199.4,315.6c-1.4-1.7-2.8-3.3-4.3-5c-0.2,0-0.4,0.1-0.7,0.1c-1.4,0.1-2.8,0.3-4.2,0.4
		c0.2,1.8,0.4,3.5,0.6,5.3c-1.1,0.1-2.3,0.2-3.4,0.4c-0.7-6-1.4-12.1-2.1-18.1c2.6-0.3,5.2-0.6,7.8-0.8c1.6-0.2,3.1,0,4.4,0.4
		s2.3,1.1,3,2s1.1,2,1.3,3.4c0.1,1.4-0.1,2.6-0.7,3.6s-1.5,1.9-2.7,2.5c1.6,1.9,3.2,3.7,4.8,5.6
		C-196.9,315.4-198.2,315.5-199.4,315.6z M-201.9,301.4c-0.8-0.5-2-0.8-3.6-0.6c-1.4,0.1-2.7,0.3-4.1,0.4c0.3,2.4,0.5,4.8,0.8,7.2
		c1.3-0.1,2.7-0.3,4-0.4c1.5-0.1,2.6-0.6,3.3-1.3s1-1.6,0.9-2.8C-200.6,302.8-201.1,301.9-201.9,301.4z"/>
	<path class="st1" d="M-180.5,310.1c-3.1,0.2-6.2,0.3-9.3,0.6c-0.5,1.4-1,2.9-1.5,4.3c-1.2,0.1-2.3,0.2-3.5,0.3
		c2.3-6.3,4.6-12.5,7.1-18.8c1.2-0.1,2.3-0.1,3.5-0.2c3.2,5.9,6.3,11.8,9.3,17.8c-1.2,0-2.4,0.1-3.6,0.2
		C-179.1,312.8-179.8,311.4-180.5,310.1z M-181.8,307.5c-1.3-2.6-2.6-5.2-4-7.7c-1,2.7-2,5.4-3,8.2
		C-186.5,307.7-184.1,307.6-181.8,307.5z"/>
	<path class="st1" d="M-170.2,298.5c-2.1,0.1-4.2,0.1-6.3,0.2c0-1-0.1-1.9-0.1-2.9c5.4-0.2,10.8-0.4,16.2-0.4c0,1,0,1.9,0,2.9
		c-2.1,0-4.2,0.1-6.3,0.1c0.1,5.1,0.2,10.2,0.3,15.3c-1.1,0-2.3,0.1-3.4,0.1C-169.9,308.7-170.1,303.6-170.2,298.5z"/>
	<path class="st1" d="M-156,311.8c-1.4-1.4-2.2-3.4-2.2-6.1c0-3.4,0-6.8-0.1-10.3c1.2,0,2.4,0,3.5,0c0,3.4,0,6.8,0,10.1
		c0,3.6,1.6,5.4,4.7,5.4s4.7-1.7,4.8-5.3c0.1-3.4,0.1-6.8,0.2-10.1c1.2,0,2.3,0,3.5,0.1c-0.1,3.4-0.2,6.8-0.3,10.3
		c-0.1,2.6-0.8,4.6-2.3,6c-1.4,1.4-3.4,2-6,2C-152.6,313.9-154.6,313.2-156,311.8z"/>
	<path class="st1" d="M-136.6,295.8c1.2,0,2.4,0.1,3.5,0.1c-0.2,5.1-0.4,10.2-0.7,15.3c3.2,0.1,6.4,0.3,9.7,0.5
		c-0.1,1-0.1,1.9-0.2,2.9c-4.3-0.3-8.7-0.5-13-0.6C-137.1,307.9-136.8,301.8-136.6,295.8z"/>
	<path class="st1" d="M-109.1,311.5c-3.1-0.3-6.2-0.5-9.3-0.8c-0.7,1.4-1.4,2.7-2.1,4.1c-1.2-0.1-2.3-0.2-3.5-0.2
		c3.1-5.9,6.4-11.7,9.7-17.6c1.2,0.1,2.3,0.2,3.5,0.3c2.3,6.3,4.6,12.6,6.7,18.9c-1.2-0.1-2.4-0.2-3.6-0.4
		C-108.2,314.4-108.6,313-109.1,311.5z M-110,308.8c-0.9-2.7-1.9-5.5-2.8-8.2c-1.4,2.5-2.8,5.1-4.1,7.7
		C-114.7,308.4-112.4,308.6-110,308.8z"/>
	<path class="st1" d="M-97.3,301.6c-2.1-0.2-4.2-0.5-6.3-0.7c0.1-0.9,0.2-1.9,0.3-2.8c5.4,0.5,10.7,1.2,16.1,1.9
		c-0.1,0.9-0.3,1.9-0.4,2.8c-2.1-0.3-4.2-0.5-6.2-0.8c-0.6,5.1-1.2,10.2-1.8,15.2c-1.1-0.1-2.3-0.3-3.4-0.4
		C-98.4,311.7-97.8,306.7-97.3,301.6z"/>
	<path class="st1" d="M-84.5,300.3c1.2,0.2,2.3,0.3,3.5,0.5c-0.9,6-1.7,12-2.6,18c-1.1-0.2-2.3-0.3-3.4-0.5
		C-86.2,312.3-85.3,306.3-84.5,300.3z"/>
	<path class="st1" d="M-75,319.2c-1.4-1-2.4-2.3-3-3.9c-0.6-1.5-0.8-3.2-0.6-4.9c0.3-1.7,0.9-3.3,2-4.5c1.1-1.3,2.5-2.2,4.2-2.7
		s3.5-0.7,5.4-0.3c1.9,0.3,3.6,1,5,2.1s2.4,2.4,3,4s0.7,3.2,0.4,5s-1.1,3.2-2.2,4.5c-1.1,1.2-2.5,2.1-4.1,2.6
		c-1.6,0.5-3.4,0.6-5.2,0.3C-72.1,320.9-73.7,320.2-75,319.2z M-66.3,318.1c1.1-0.4,2-1,2.7-1.8c0.7-0.9,1.2-1.9,1.4-3.1
		s0.1-2.3-0.2-3.4c-0.4-1.1-1-2-1.9-2.7s-2-1.2-3.2-1.4c-1.3-0.2-2.4-0.1-3.5,0.2c-1.1,0.4-2,1-2.7,1.9s-1.2,1.9-1.4,3.1
		c-0.2,1.2-0.1,2.3,0.3,3.4s1.1,1.9,1.9,2.6c0.9,0.7,1.9,1.2,3.2,1.4C-68.5,318.5-67.3,318.4-66.3,318.1z"/>
	<path class="st1" d="M-36.6,309.3c-1.4,5.9-2.8,11.8-4.2,17.7c-0.9-0.2-1.8-0.4-2.8-0.6c-2.4-4.8-4.9-9.5-7.4-14.3
		c-0.8,4-1.7,8-2.5,12.1c-1.1-0.2-2.2-0.5-3.3-0.7c1.2-5.9,2.4-11.9,3.6-17.8c1,0.2,1.9,0.4,2.9,0.6c2.6,4.7,5.1,9.5,7.6,14.3
		c0.9-4,1.8-8,2.8-12C-38.9,308.7-37.7,309-36.6,309.3z"/>
	<path class="st1" d="M-34.3,328.2c-1.2-0.7-2.1-1.5-2.7-2.3c0.6-0.8,1.2-1.5,1.8-2.3c0.6,0.8,1.4,1.4,2.4,2.1c1,0.6,2,1.1,3.1,1.4
		c1.3,0.3,2.4,0.4,3.2,0.2c0.8-0.2,1.3-0.7,1.4-1.4c0.1-0.5,0.1-1-0.2-1.4c-0.3-0.4-0.7-0.8-1.2-1.1c-0.5-0.3-1.2-0.7-2.2-1.2
		c-1.3-0.7-2.4-1.3-3.1-1.8c-0.8-0.5-1.4-1.2-1.9-2.1c-0.5-0.8-0.5-1.8-0.3-3c0.2-1,0.7-1.8,1.5-2.5s1.8-1.1,3-1.3
		c1.2-0.2,2.7-0.1,4.3,0.4c1.1,0.3,2.2,0.7,3.2,1.3s1.9,1.2,2.5,1.9c-0.6,0.7-1.2,1.5-1.8,2.2c-0.7-0.7-1.4-1.2-2.3-1.7
		c-0.8-0.5-1.6-0.8-2.5-1c-1.4-0.4-2.4-0.4-3.2-0.1c-0.8,0.3-1.2,0.8-1.4,1.5c-0.1,0.5,0,1,0.3,1.4s0.7,0.8,1.2,1.1
		c0.5,0.3,1.3,0.7,2.2,1.2c1.3,0.7,2.3,1.3,3.1,1.8c0.8,0.6,1.4,1.3,1.8,2.1c0.4,0.8,0.5,1.8,0.2,3c-0.3,1-0.8,1.8-1.5,2.4
		c-0.8,0.6-1.7,1-3,1.2c-1.2,0.2-2.6,0.1-4.2-0.4C-31.8,329.5-33.1,328.9-34.3,328.2z"/>
	<path class="st1" d="M-20,332c-0.3-0.5-0.4-1-0.2-1.6c0.2-0.6,0.5-1,1-1.2c0.5-0.3,1-0.3,1.6-0.1c0.6,0.2,1,0.5,1.3,1
		s0.3,1,0.2,1.5c-0.2,0.5-0.5,1-1,1.2c-0.5,0.3-1,0.3-1.6,0.1C-19.3,332.8-19.7,332.4-20,332z M-15.6,314.7c1.3,0.4,2.6,0.7,3.9,1.1
		c-1.4,3.8-2.7,7.7-4,11.5c-0.9-0.2-1.7-0.5-2.6-0.7C-17.4,322.6-16.5,318.7-15.6,314.7z"/>
</g>
<g>
	<path class="st2" d="M-291.4,329.1c-1.7-0.4-3.1-1.1-4.3-2.2c-1.2-1.1-2.1-2.5-2.6-4.3c-0.5-1.7-0.5-3.4-0.1-5
		c0.5-1.6,1.3-3,2.6-4.2c1.3-1.2,2.9-2.1,4.8-2.6c1.5-0.4,3-0.5,4.4-0.3s2.6,0.6,3.7,1.4c-0.6,0.9-1.1,1.7-1.7,2.6
		c-1.7-1-3.5-1.3-5.5-0.8c-1.3,0.3-2.3,0.9-3.2,1.7c-0.9,0.8-1.4,1.8-1.7,2.8c-0.3,1.1-0.3,2.2,0.1,3.4c0.3,1.2,0.9,2.2,1.7,2.9
		c0.8,0.8,1.8,1.3,2.9,1.6c1.1,0.3,2.3,0.2,3.5-0.1c1.9-0.5,3.3-1.6,4.3-3.4c0.9,0.5,1.8,1,2.7,1.5c-0.6,1.2-1.4,2.2-2.5,3
		s-2.4,1.4-3.8,1.8C-288,329.4-289.7,329.5-291.4,329.1z"/>
	<path class="st2" d="M-273,324.3c-1.7-0.4-3.1-1.2-4.3-2.4c-1.2-1.2-2-2.6-2.4-4.3c-0.4-1.7-0.4-3.4,0.1-5s1.4-3,2.8-4.1
		c1.3-1.1,3-1.9,4.9-2.4c1.9-0.4,3.7-0.4,5.4,0c1.7,0.5,3.1,1.3,4.3,2.5c1.2,1.2,1.9,2.7,2.3,4.4c0.4,1.7,0.3,3.4-0.3,5
		c-0.6,1.6-1.5,2.9-2.8,4s-2.9,1.9-4.7,2.3C-269.6,324.8-271.4,324.8-273,324.3z M-265.4,319.9c0.9-0.7,1.5-1.7,1.8-2.7
		c0.3-1.1,0.4-2.2,0.1-3.4c-0.3-1.2-0.8-2.2-1.5-3c-0.8-0.8-1.7-1.4-2.8-1.7c-1.1-0.3-2.3-0.3-3.5,0s-2.3,0.8-3.2,1.6
		c-0.9,0.8-1.5,1.7-1.8,2.8c-0.3,1.1-0.4,2.2-0.1,3.4c0.3,1.2,0.8,2.2,1.6,3c0.8,0.8,1.7,1.4,2.8,1.7c1.1,0.3,2.2,0.3,3.5,0
		C-267.2,321.2-266.2,320.7-265.4,319.9z"/>
	<path class="st2" d="M-241.4,300.4c1,6,2,12,3,18c-0.9,0.2-1.9,0.3-2.8,0.5c-4-3.5-8.2-6.9-12.4-10.3c0.8,4,1.6,8.1,2.3,12.1
		c-1.1,0.2-2.2,0.4-3.3,0.7c-1.2-5.9-2.4-11.9-3.6-17.8c1-0.2,1.9-0.4,2.9-0.6c4.2,3.4,8.4,6.8,12.5,10.2c-0.7-4-1.4-8.1-2.1-12.1
		C-243.7,300.7-242.5,300.5-241.4,300.4z"/>
	<path class="st2" d="M-222.2,306.5c1.1-0.1,2.2-0.3,3.3-0.4c0.3,2.4,0.6,4.8,0.9,7.2c-0.9,0.9-1.9,1.6-3.1,2.1
		c-1.2,0.6-2.5,0.9-3.8,1.1c-1.9,0.3-3.6,0.1-5.2-0.5c-1.6-0.6-3-1.5-4-2.8c-1.1-1.3-1.8-2.8-2-4.5c-0.3-1.8-0.1-3.4,0.6-5
		c0.7-1.5,1.7-2.8,3.1-3.9c1.4-1,3.1-1.7,5.1-1.9c1.6-0.2,3.1-0.2,4.4,0.2c1.4,0.3,2.5,0.9,3.5,1.8c-0.7,0.8-1.3,1.6-1.9,2.3
		c-1.6-1.2-3.4-1.7-5.5-1.4c-1.3,0.2-2.5,0.6-3.4,1.3c-1,0.7-1.6,1.5-2.1,2.6c-0.4,1-0.6,2.2-0.4,3.4c0.2,1.2,0.6,2.2,1.3,3.1
		s1.6,1.5,2.7,1.9s2.3,0.5,3.5,0.3c1.4-0.2,2.7-0.7,3.7-1.4C-221.8,310.3-222,308.4-222.2,306.5z"/>
	<path class="st2" d="M-201.4,313.6c-1.4-1.7-2.8-3.3-4.3-5c-0.2,0-0.4,0.1-0.7,0.1c-1.4,0.1-2.8,0.3-4.2,0.4
		c0.2,1.8,0.4,3.5,0.6,5.3c-1.1,0.1-2.3,0.2-3.4,0.4c-0.7-6-1.4-12.1-2.1-18.1c2.6-0.3,5.2-0.6,7.8-0.8c1.6-0.2,3.1,0,4.4,0.4
		s2.3,1.1,3,2s1.1,2,1.3,3.4c0.1,1.4-0.1,2.6-0.7,3.6s-1.5,1.9-2.7,2.5c1.6,1.9,3.2,3.7,4.8,5.6
		C-198.9,313.4-200.2,313.5-201.4,313.6z M-203.9,299.4c-0.8-0.5-2-0.8-3.6-0.6c-1.4,0.1-2.7,0.3-4.1,0.4c0.3,2.4,0.5,4.8,0.8,7.2
		c1.3-0.1,2.7-0.3,4-0.4c1.5-0.1,2.6-0.6,3.3-1.3c0.7-0.7,1-1.6,0.9-2.8C-202.6,300.8-203.1,299.9-203.9,299.4z"/>
	<path class="st2" d="M-182.5,308.1c-3.1,0.2-6.2,0.3-9.3,0.6c-0.5,1.4-1,2.9-1.5,4.3c-1.2,0.1-2.3,0.2-3.5,0.3
		c2.3-6.3,4.6-12.5,7.1-18.8c1.2-0.1,2.3-0.1,3.5-0.2c3.2,5.9,6.3,11.8,9.3,17.8c-1.2,0-2.4,0.1-3.6,0.2
		C-181.1,310.8-181.8,309.4-182.5,308.1z M-183.8,305.5c-1.3-2.6-2.6-5.2-4-7.7c-1,2.7-2,5.4-3,8.2
		C-188.5,305.7-186.1,305.6-183.8,305.5z"/>
	<path class="st2" d="M-172.2,296.5c-2.1,0.1-4.2,0.1-6.3,0.2c0-1-0.1-1.9-0.1-2.9c5.4-0.2,10.8-0.4,16.2-0.4c0,1,0,1.9,0,2.9
		c-2.1,0-4.2,0.1-6.3,0.1c0.1,5.1,0.2,10.2,0.3,15.3c-1.1,0-2.3,0.1-3.4,0.1C-171.9,306.7-172.1,301.6-172.2,296.5z"/>
	<path class="st2" d="M-158,309.8c-1.4-1.4-2.2-3.4-2.2-6.1c0-3.4,0-6.8-0.1-10.3c1.2,0,2.4,0,3.5,0c0,3.4,0,6.8,0,10.1
		c0,3.6,1.6,5.4,4.7,5.4s4.7-1.7,4.8-5.3c0.1-3.4,0.1-6.8,0.2-10.1c1.2,0,2.3,0,3.5,0.1c-0.1,3.4-0.2,6.8-0.3,10.3
		c-0.1,2.6-0.8,4.6-2.3,6c-1.4,1.4-3.4,2-6,2C-154.6,311.9-156.6,311.2-158,309.8z"/>
	<path class="st2" d="M-138.6,293.8c1.2,0,2.4,0.1,3.5,0.1c-0.2,5.1-0.4,10.2-0.7,15.3c3.2,0.1,6.4,0.3,9.7,0.5
		c-0.1,1-0.1,1.9-0.2,2.9c-4.3-0.3-8.7-0.5-13-0.6C-139.1,305.9-138.8,299.8-138.6,293.8z"/>
	<path class="st2" d="M-111.1,309.5c-3.1-0.3-6.2-0.5-9.3-0.8c-0.7,1.4-1.4,2.7-2.1,4.1c-1.2-0.1-2.3-0.2-3.5-0.2
		c3.1-5.9,6.4-11.7,9.7-17.6c1.2,0.1,2.3,0.2,3.5,0.3c2.3,6.3,4.6,12.6,6.7,18.9c-1.2-0.1-2.4-0.2-3.6-0.4
		C-110.2,312.4-110.6,311-111.1,309.5z M-112,306.8c-0.9-2.7-1.9-5.5-2.8-8.2c-1.4,2.5-2.8,5.1-4.1,7.7
		C-116.7,306.4-114.4,306.6-112,306.8z"/>
	<path class="st2" d="M-99.3,299.6c-2.1-0.2-4.2-0.5-6.3-0.7c0.1-0.9,0.2-1.9,0.3-2.8c5.4,0.5,10.7,1.2,16.1,1.9
		c-0.1,0.9-0.3,1.9-0.4,2.8c-2.1-0.3-4.2-0.5-6.2-0.8c-0.6,5.1-1.2,10.2-1.8,15.2c-1.1-0.1-2.3-0.3-3.4-0.4
		C-100.4,309.7-99.8,304.7-99.3,299.6z"/>
	<path class="st2" d="M-86.5,298.3c1.2,0.2,2.3,0.3,3.5,0.5c-0.9,6-1.7,12-2.6,18c-1.1-0.2-2.3-0.3-3.4-0.5
		C-88.2,310.3-87.3,304.3-86.5,298.3z"/>
	<path class="st2" d="M-77,317.2c-1.4-1-2.4-2.3-3-3.9c-0.6-1.5-0.8-3.2-0.6-4.9c0.3-1.7,0.9-3.3,2-4.5c1.1-1.3,2.5-2.2,4.2-2.7
		s3.5-0.7,5.4-0.3c1.9,0.3,3.6,1,5,2.1s2.4,2.4,3,4s0.7,3.2,0.4,5s-1.1,3.2-2.2,4.5c-1.1,1.2-2.5,2.1-4.1,2.6s-3.4,0.6-5.2,0.3
		C-74.1,318.9-75.7,318.2-77,317.2z M-68.3,316.1c1.1-0.4,2-1,2.7-1.8c0.7-0.9,1.2-1.9,1.4-3.1c0.2-1.2,0.1-2.3-0.2-3.4
		c-0.4-1.1-1-2-1.9-2.7s-2-1.2-3.2-1.4c-1.3-0.2-2.4-0.1-3.5,0.2c-1.1,0.4-2,1-2.7,1.9s-1.2,1.9-1.4,3.1c-0.2,1.2-0.1,2.3,0.3,3.4
		s1.1,1.9,1.9,2.6c0.9,0.7,1.9,1.2,3.2,1.4C-70.5,316.5-69.3,316.4-68.3,316.1z"/>
	<path class="st2" d="M-38.6,307.3c-1.4,5.9-2.8,11.8-4.2,17.7c-0.9-0.2-1.8-0.4-2.8-0.6c-2.4-4.8-4.9-9.5-7.4-14.3
		c-0.8,4-1.7,8-2.5,12.1c-1.1-0.2-2.2-0.5-3.3-0.7c1.2-5.9,2.4-11.9,3.6-17.8c1,0.2,1.9,0.4,2.9,0.6c2.6,4.7,5.1,9.5,7.6,14.3
		c0.9-4,1.8-8,2.8-12C-40.9,306.7-39.7,307-38.6,307.3z"/>
	<path class="st2" d="M-36.3,326.2c-1.2-0.7-2.1-1.5-2.7-2.3c0.6-0.8,1.2-1.5,1.8-2.3c0.6,0.8,1.4,1.4,2.4,2.1c1,0.6,2,1.1,3.1,1.4
		c1.3,0.3,2.4,0.4,3.2,0.2c0.8-0.2,1.3-0.7,1.4-1.4c0.1-0.5,0.1-1-0.2-1.4c-0.3-0.4-0.7-0.8-1.2-1.1c-0.5-0.3-1.2-0.7-2.2-1.2
		c-1.3-0.7-2.4-1.3-3.1-1.8c-0.8-0.5-1.4-1.2-1.9-2.1c-0.5-0.8-0.5-1.8-0.3-3c0.2-1,0.7-1.8,1.5-2.5s1.8-1.1,3-1.3
		c1.2-0.2,2.7-0.1,4.3,0.4c1.1,0.3,2.2,0.7,3.2,1.3s1.9,1.2,2.5,1.9c-0.6,0.7-1.2,1.5-1.8,2.2c-0.7-0.7-1.4-1.2-2.3-1.7
		c-0.8-0.5-1.6-0.8-2.5-1c-1.4-0.4-2.4-0.4-3.2-0.1c-0.8,0.3-1.2,0.8-1.4,1.5c-0.1,0.5,0,1,0.3,1.4s0.7,0.8,1.2,1.1
		c0.5,0.3,1.3,0.7,2.2,1.2c1.3,0.7,2.3,1.3,3.1,1.8c0.8,0.6,1.4,1.3,1.8,2.1c0.4,0.8,0.5,1.8,0.2,3c-0.3,1-0.8,1.8-1.5,2.4
		c-0.8,0.6-1.7,1-3,1.2c-1.2,0.2-2.6,0.1-4.2-0.4C-33.8,327.5-35.1,326.9-36.3,326.2z"/>
	<path class="st2" d="M-22,330c-0.3-0.5-0.4-1-0.2-1.6c0.2-0.6,0.5-1,1-1.2c0.5-0.3,1-0.3,1.6-0.1c0.6,0.2,1,0.5,1.3,1
		s0.3,1,0.2,1.5c-0.2,0.5-0.5,1-1,1.2c-0.5,0.3-1,0.3-1.6,0.1C-21.3,330.8-21.7,330.4-22,330z M-17.6,312.7c1.3,0.4,2.6,0.7,3.9,1.1
		c-1.4,3.8-2.7,7.7-4,11.5c-0.9-0.2-1.7-0.5-2.6-0.7C-19.4,320.6-18.5,316.7-17.6,312.7z"/>
</g>
<g>
	<circle class="st3" cx="-157.7" cy="160.3" r="104.7"/>
	<path class="st4" d="M-124.6,125.3c0,24-14.6,43.5-32.5,43.5s-32.5-19.5-32.5-43.5L-124.6,125.3L-124.6,125.3z"/>
	<path class="st4" d="M-149.2,193.6h-15.9l0,0c3.3-11.3,3.3-23.3,0-34.6l0,0h15.9l0,0C-152.5,170.3-152.5,182.3-149.2,193.6
		L-149.2,193.6z"/>
	<polygon class="st5" points="-135.7,201.8 -178.2,201.8 -170.2,193.6 -143.7,193.6 	"/>
	<rect x="-182.5" y="201.8" class="st6" width="51.5" height="31.2"/>
	<path class="st7" d="M-186.8,130.8c0,0-6.2-11.7-14.8-6.4c-10,6.2-4.5,19.7,12.2,25.7c1.9,0.7,3.7,1.9,4.9,3.6
		c1.8,2.5,2.5,6.2-4.8,8.7"/>
	<path class="st7" d="M-128.5,130.8c0,0,7-11.7,15.6-6.4c10,6.2,4.5,19.7-12.2,25.7c-1.9,0.7-3.7,1.9-4.9,3.6
		c-1.8,2.5-2.5,6.2,4.8,8.7"/>
	<path class="st5" d="M-127.5,125.9h-59.2c-1.6,0-2.9-1.3-2.9-2.9v-13c0-1.6,1.3-2.9,2.9-2.9h59.2c1.6,0,2.9,1.3,2.9,2.9v13
		C-124.6,124.6-125.9,125.9-127.5,125.9z"/>
	<path class="st8" d="M-156.1,130.1l3.3,6.7c0.2,0.3,0.5,0.6,0.8,0.6l7.4,1.1c0.9,0.1,1.3,1.3,0.6,1.9l-5.3,5.2
		c-0.3,0.3-0.4,0.6-0.3,1l1.3,7.4c0.2,0.9-0.8,1.6-1.6,1.2l-6.6-3.5c-0.3-0.2-0.7-0.2-1,0l-6.6,3.5c-0.8,0.4-1.8-0.3-1.6-1.2
		l1.3-7.4c0.1-0.4-0.1-0.7-0.3-1l-5.3-5.2c-0.7-0.6-0.3-1.8,0.6-1.9l7.4-1.1c0.4-0.1,0.7-0.3,0.8-0.6l3.3-6.7
		C-157.7,129.3-156.5,129.3-156.1,130.1z"/>
</g>
<rect x="-319" y="-101" class="st9" width="320" height="640"/>
<rect x="-319" y="-101.7" class="st9" width="320" height="640"/>
<g id="Antarctica_Background">
</g>
<g id="Beaver">
</g>
<g id="Crocdile">
</g>
<g id="Walrus">
</g>
<g id="Polar_Bear">
</g>
<g id="North_Pole_Background">
</g>
<g id="Seal">
</g>
<g id="Orca">
</g>
<g id="Dolphin">
</g>
<g id="Squid">
</g>
<g id="Manatee">
</g>
<g id="Blue_Whale">
</g>
<g id="Coconut_Crab">
</g>
<g id="Penguin">
</g>
<g id="Jellyfish">
</g>
<g id="Narwhal">
</g>
<g id="Beluga">
</g>
<g class="st10">
	<path class="st2" d="M-199.7,351.9v5.9h-3.1v-5.9l-6.6-10.9h3.4l4.9,8.2l5-8.2h3.1L-199.7,351.9z"/>
	<path class="st2" d="M-193.9,351.4c0-3.9,2.8-6.5,6.8-6.5s6.8,2.7,6.8,6.5s-2.8,6.5-6.8,6.5C-191.1,358-193.9,355.3-193.9,351.4z
		 M-183.3,351.4c0-2.4-1.6-4-3.8-4s-3.8,1.5-3.8,4s1.6,4,3.8,4S-183.3,353.9-183.3,351.4z"/>
	<path class="st2" d="M-165,345v12.8h-2.8v-1.6c-0.9,1.2-2.5,1.8-4.1,1.8c-3.3,0-5.5-1.8-5.5-5.7V345h3v6.9c0,2.3,1.1,3.4,3,3.4
		c2.1,0,3.5-1.3,3.5-3.9v-6.5h2.9V345z"/>
	<path class="st2" d="M-158.1,341.9c0,0.5-0.1,0.9-0.5,2.1l-1.2,3.4h-2l0.9-3.7c-0.7-0.3-1.1-0.9-1.1-1.8c0-1.2,0.9-2,2-2
		C-159,339.9-158.1,340.6-158.1,341.9z"/>
	<path class="st2" d="M-147.8,344.9v2.8c-0.3-0.1-0.5-0.1-0.7-0.1c-2.2,0-3.7,1.4-3.7,4v6.2h-3v-12.7h2.8v1.9
		C-151.5,345.6-149.9,344.9-147.8,344.9z"/>
	<path class="st2" d="M-133.3,352.3h-10.1c0.3,1.9,1.9,3.1,4.1,3.1c1.5,0,2.6-0.4,3.4-1.4l1.6,1.8c-1.1,1.4-2.9,2.1-5.2,2.1
		c-4.3,0-7.1-2.8-7.1-6.5s2.8-6.5,6.6-6.5c3.7,0,6.5,2.6,6.5,6.6C-133.3,351.7-133.3,352.1-133.3,352.3z M-143.5,350.4h7.2
		c-0.3-1.8-1.6-3.1-3.6-3.1C-141.8,347.3-143.1,348.5-143.5,350.4z"/>
	<path class="st2" d="M-113.1,350.3v7.5h-2.8v-1.5c-0.7,1.1-2.2,1.7-4,1.7c-2.9,0-4.7-1.6-4.7-3.9c0-2.2,1.5-3.8,5.3-3.8h3.3v-0.2
		c0-1.7-1-2.8-3.2-2.8c-1.5,0-2.9,0.5-3.9,1.3l-1.2-2.2c1.4-1,3.4-1.5,5.4-1.5C-115.3,344.9-113.1,346.6-113.1,350.3z M-116.1,353.8
		v-1.5h-3.1c-2.1,0-2.6,0.8-2.6,1.7c0,1.1,0.9,1.8,2.4,1.8C-117.9,355.8-116.6,355.1-116.1,353.8z"/>
</g>
<g class="st10">
	<path class="st2" d="M-223.5,379.3v7.3h-3v-7c0-2.2-1-3.4-2.8-3.4c-2,0-3.4,1.3-3.4,3.9v6.5h-3v-7c0-2.2-1-3.4-2.8-3.4
		c-2,0-3.4,1.3-3.4,3.9v6.5h-3v-12.8h2.8v1.6c0.9-1.1,2.4-1.8,4.2-1.8c1.9,0,3.4,0.7,4.3,2.2c1-1.3,2.8-2.2,4.8-2.2
		C-225.6,373.7-223.5,375.4-223.5,379.3z"/>
	<path class="st2" d="M-208.9,379.1v7.5h-2.8v-1.5c-0.7,1.1-2.2,1.7-4,1.7c-2.9,0-4.7-1.6-4.7-3.9c0-2.2,1.5-3.8,5.3-3.8h3.3v-0.2
		c0-1.7-1-2.8-3.2-2.8c-1.5,0-2.9,0.5-3.9,1.3l-1.2-2.2c1.4-1,3.4-1.5,5.4-1.5C-211,373.7-208.9,375.4-208.9,379.1z M-211.9,382.6
		v-1.5h-3.1c-2.1,0-2.6,0.8-2.6,1.7c0,1.1,0.9,1.8,2.4,1.8C-213.7,384.6-212.4,383.9-211.9,382.6z"/>
	<path class="st2" d="M-197.7,373.7v2.8c-0.3-0.1-0.5-0.1-0.7-0.1c-2.2,0-3.7,1.4-3.7,4v6.2h-3v-12.8h2.8v1.9
		C-201.3,374.4-199.7,373.7-197.7,373.7z"/>
	<path class="st2" d="M-195.5,369.9c0-1,0.8-1.8,1.9-1.8c1.1,0,1.9,0.8,1.9,1.7c0,1-0.8,1.9-1.9,1.9
		C-194.7,371.7-195.5,370.9-195.5,369.9z M-195.1,373.9h3v12.8h-3V373.9z"/>
	<path class="st2" d="M-175.6,379.3v7.3h-3v-7c0-2.2-1.1-3.4-3-3.4c-2.2,0-3.6,1.3-3.6,3.9v6.5h-3v-12.8h2.8v1.6
		c0.9-1.2,2.6-1.8,4.4-1.8C-177.8,373.7-175.6,375.4-175.6,379.3z"/>
	<path class="st2" d="M-159.7,381.2h-10.1c0.3,1.9,1.9,3.1,4.1,3.1c1.5,0,2.6-0.4,3.4-1.4l1.6,1.8c-1.1,1.4-2.9,2.1-5.2,2.1
		c-4.3,0-7.1-2.8-7.1-6.5s2.8-6.5,6.6-6.5c3.7,0,6.5,2.6,6.5,6.6C-159.6,380.6-159.6,380.9-159.7,381.2z M-169.7,379.2h7.2
		c-0.3-1.8-1.6-3.1-3.6-3.1C-168,376.1-169.4,377.3-169.7,379.2z"/>
	<path class="st2" d="M-138.1,381.2h-10.1c0.3,1.9,1.9,3.1,4.1,3.1c1.5,0,2.6-0.4,3.4-1.4l1.6,1.8c-1.1,1.4-2.9,2.1-5.2,2.1
		c-4.3,0-7.1-2.8-7.1-6.5s2.8-6.5,6.6-6.5c3.7,0,6.5,2.6,6.5,6.6C-138.1,380.6-138.1,380.9-138.1,381.2z M-148.1,379.2h7.2
		c-0.3-1.8-1.6-3.1-3.6-3.1C-146.4,376.1-147.9,377.3-148.1,379.2z"/>
	<path class="st2" d="M-127.4,386.7l-3.3-4.5l-3.3,4.5h-3.3l5-6.5l-4.7-6.3h3.4l3.2,4.2l3.2-4.2h3.3l-4.8,6.3l5,6.5H-127.4z"/>
	<path class="st2" d="M-108.1,380.2c0,4-2.8,6.5-6.5,6.5c-1.6,0-3.1-0.5-4.1-1.7v6.2h-3v-17.5h2.8v1.7c1-1.2,2.5-1.8,4.2-1.8
		C-111,373.7-108.1,376.3-108.1,380.2z M-111.2,380.2c0-2.4-1.6-4-3.8-4c-2.2,0-3.8,1.5-3.8,4s1.6,4,3.8,4
		C-112.9,384.3-111.2,382.7-111.2,380.2z"/>
	<path class="st2" d="M-93.3,381.2h-10.1c0.3,1.9,1.9,3.1,4.1,3.1c1.5,0,2.6-0.4,3.4-1.4l1.6,1.8c-1.1,1.4-2.9,2.1-5.2,2.1
		c-4.3,0-7.1-2.8-7.1-6.5s2.8-6.5,6.6-6.5c3.7,0,6.5,2.6,6.5,6.6C-93.3,380.6-93.3,380.9-93.3,381.2z M-103.4,379.2h7.2
		c-0.3-1.8-1.6-3.1-3.6-3.1C-101.7,376.1-103.1,377.3-103.4,379.2z"/>
	<path class="st2" d="M-83,373.7v2.8c-0.3-0.1-0.5-0.1-0.7-0.1c-2.2,0-3.7,1.4-3.7,4v6.2h-3v-12.8h2.8v1.9
		C-86.7,374.4-85.2,373.7-83,373.7z"/>
	<path class="st2" d="M-72.3,386c-0.7,0.6-1.8,0.9-2.8,0.9c-2.8,0-4.4-1.5-4.4-4.3v-6.2h-2.2V374h2.2v-2.9h3v2.9h3.4v2.4h-3.4v6.1
		c0,1.2,0.6,1.9,1.8,1.9c0.6,0,1.2-0.2,1.7-0.5L-72.3,386z"/>
	<path class="st2" d="M-70.4,384.9c0-1,0.8-1.8,2-1.8c1.1,0,1.9,0.8,1.9,1.8s-0.8,1.9-1.9,1.9S-70.4,386-70.4,384.9z M-70.2,369.8
		h3.5l-0.6,11.2h-2.4L-70.2,369.8z"/>
</g>
<g class="st10">
	<path class="st11" d="M-270,417.8h9.1v1.9h-3.5v9.3h-2.2v-9.3h-3.5V417.8z"/>
	<path class="st11" d="M-252.7,421.2c0.6,0.6,0.8,1.4,0.8,2.4v5.3h-2.1v-4.7c0-0.6-0.2-1.1-0.5-1.4c-0.3-0.3-0.8-0.5-1.4-0.5
		c-0.7,0-1.2,0.2-1.6,0.7s-0.6,1-0.6,1.8v4.2h-2.1v-11.9h2.1v4.9c0.6-1.1,1.6-1.7,3.1-1.7C-254,420.4-253.3,420.7-252.7,421.2z"/>
	<path class="st11" d="M-247.6,417.1c0.2,0.2,0.3,0.5,0.3,0.9c0,0.4-0.1,0.6-0.3,0.9c-0.2,0.2-0.5,0.4-0.8,0.4s-0.6-0.1-0.8-0.4
		c-0.2-0.2-0.3-0.5-0.3-0.9c0-0.4,0.1-0.7,0.3-0.9c0.2-0.2,0.5-0.4,0.8-0.4S-247.9,416.9-247.6,417.1z M-249.5,420.4h2.1v8.6h-2.1
		V420.4z"/>
	<path class="st11" d="M-241.1,422.2c-0.4-0.1-0.9-0.2-1.2-0.2c-0.4,0-0.6,0.1-0.8,0.2s-0.3,0.3-0.3,0.6c0,0.3,0.1,0.5,0.4,0.6
		c0.3,0.1,0.7,0.3,1.2,0.5c0.6,0.2,1.1,0.4,1.5,0.5c0.4,0.2,0.7,0.4,1,0.8c0.3,0.3,0.4,0.8,0.4,1.4c0,0.8-0.3,1.5-1,1.9
		s-1.4,0.7-2.4,0.7c-0.7,0-1.3-0.1-1.9-0.3s-1.2-0.5-1.6-0.9l0.7-1.5c0.4,0.3,0.8,0.6,1.4,0.8c0.5,0.2,1,0.3,1.5,0.3
		c0.4,0,0.7-0.1,0.9-0.2c0.2-0.1,0.3-0.3,0.3-0.6c0-0.3-0.1-0.5-0.4-0.7s-0.7-0.3-1.3-0.5c-0.6-0.2-1-0.3-1.4-0.5
		c-0.4-0.2-0.7-0.4-0.9-0.8s-0.4-0.8-0.4-1.3c0-0.8,0.3-1.5,0.9-1.9c0.6-0.4,1.4-0.7,2.3-0.7c0.6,0,1.1,0.1,1.7,0.2s1,0.4,1.5,0.7
		l-0.8,1.5C-240.2,422.5-240.6,422.3-241.1,422.2z"/>
	<path class="st11" d="M-231.4,417.1c0.2,0.2,0.3,0.5,0.3,0.9c0,0.4-0.1,0.6-0.3,0.9c-0.2,0.2-0.5,0.4-0.8,0.4s-0.6-0.1-0.8-0.4
		c-0.2-0.2-0.3-0.5-0.3-0.9c0-0.4,0.1-0.7,0.3-0.9c0.2-0.2,0.5-0.4,0.8-0.4S-231.6,416.9-231.4,417.1z M-233.2,420.4h2.1v8.6h-2.1
		V420.4z"/>
	<path class="st11" d="M-224.8,422.2c-0.4-0.1-0.9-0.2-1.2-0.2c-0.4,0-0.6,0.1-0.8,0.2s-0.3,0.3-0.3,0.6c0,0.3,0.1,0.5,0.4,0.6
		c0.3,0.1,0.7,0.3,1.2,0.5c0.6,0.2,1.1,0.4,1.5,0.5c0.4,0.2,0.7,0.4,1,0.8c0.3,0.3,0.4,0.8,0.4,1.4c0,0.8-0.3,1.5-1,1.9
		s-1.4,0.7-2.4,0.7c-0.7,0-1.3-0.1-1.9-0.3s-1.2-0.5-1.6-0.9l0.7-1.5c0.4,0.3,0.8,0.6,1.4,0.8c0.5,0.2,1,0.3,1.5,0.3
		c0.4,0,0.7-0.1,0.9-0.2c0.2-0.1,0.3-0.3,0.3-0.6c0-0.3-0.1-0.5-0.4-0.7s-0.7-0.3-1.3-0.5c-0.6-0.2-1-0.3-1.4-0.5
		c-0.4-0.2-0.7-0.4-0.9-0.8s-0.4-0.8-0.4-1.3c0-0.8,0.3-1.5,0.9-1.9c0.6-0.4,1.4-0.7,2.3-0.7c0.6,0,1.1,0.1,1.7,0.2s1,0.4,1.5,0.7
		l-0.8,1.5C-223.9,422.5-224.3,422.3-224.8,422.2z"/>
	<path class="st11" d="M-211.9,428.5c-0.7,0.4-1.4,0.6-2.1,0.6c-0.7,0-1.3-0.2-1.8-0.6c-0.5-0.4-0.7-1.1-0.7-1.9v-4.2h-1.2l0-1.5
		h1.2v-2.4h2.1v2.4h2.4v1.5h-2.4v3.9c0,0.4,0.1,0.7,0.2,0.8c0.1,0.2,0.4,0.2,0.7,0.2c0.3,0,0.7-0.1,1.2-0.4L-211.9,428.5z"/>
	<path class="st11" d="M-202.7,421.2c0.6,0.6,0.8,1.4,0.8,2.4v5.3h-2.1v-4.7c0-0.6-0.2-1.1-0.5-1.4c-0.3-0.3-0.8-0.5-1.4-0.5
		c-0.7,0-1.2,0.2-1.6,0.7s-0.6,1-0.6,1.8v4.2h-2.1v-11.9h2.1v4.9c0.6-1.1,1.6-1.7,3.1-1.7C-204.1,420.4-203.3,420.7-202.7,421.2z"/>
	<path class="st11" d="M-192.9,421.5c0.7,0.8,1,1.9,1,3.3c0,0.3,0,0.5,0,0.6h-6.3c0.1,0.6,0.4,1.1,0.9,1.4s1,0.5,1.6,0.5
		c0.4,0,0.9-0.1,1.3-0.2c0.4-0.2,0.7-0.4,1-0.7l1.1,1.2c-0.4,0.5-0.9,0.8-1.6,1.1c-0.6,0.3-1.3,0.4-2,0.4c-0.9,0-1.6-0.2-2.3-0.5
		c-0.7-0.4-1.2-0.9-1.5-1.5c-0.4-0.7-0.5-1.4-0.5-2.3s0.2-1.6,0.6-2.3c0.4-0.7,0.9-1.2,1.5-1.5c0.7-0.4,1.4-0.6,2.3-0.6
		C-194.6,420.4-193.6,420.8-192.9,421.5z M-193.8,424.1c0-0.6-0.2-1.1-0.6-1.5c-0.4-0.4-0.9-0.6-1.6-0.6c-0.6,0-1.1,0.2-1.5,0.6
		s-0.7,0.9-0.8,1.5H-193.8z"/>
	<path class="st11" d="M-179.5,421.5c0.7,0.8,1,1.9,1,3.3c0,0.3,0,0.5,0,0.6h-6.3c0.1,0.6,0.4,1.1,0.9,1.4s1,0.5,1.6,0.5
		c0.4,0,0.9-0.1,1.3-0.2c0.4-0.2,0.7-0.4,1-0.7l1.1,1.2c-0.4,0.5-0.9,0.8-1.6,1.1c-0.6,0.3-1.3,0.4-2,0.4c-0.9,0-1.6-0.2-2.3-0.5
		c-0.7-0.4-1.2-0.9-1.5-1.5c-0.4-0.7-0.5-1.4-0.5-2.3s0.2-1.6,0.6-2.3c0.4-0.7,0.9-1.2,1.5-1.5c0.7-0.4,1.4-0.6,2.3-0.6
		C-181.2,420.4-180.2,420.8-179.5,421.5z M-180.4,424.1c0-0.6-0.2-1.1-0.6-1.5c-0.4-0.4-0.9-0.6-1.6-0.6c-0.6,0-1.1,0.2-1.5,0.6
		s-0.7,0.9-0.8,1.5H-180.4z"/>
	<path class="st11" d="M-169.2,421.2c0.6,0.6,0.8,1.4,0.8,2.4v5.3h-2.1v-4.7c0-0.6-0.2-1.1-0.5-1.4c-0.3-0.3-0.8-0.5-1.4-0.5
		c-0.7,0-1.2,0.2-1.6,0.7s-0.6,1-0.6,1.8v4.2h-2.1v-8.6h2.1v1.6c0.6-1.1,1.6-1.7,3.1-1.7C-170.5,420.4-169.8,420.7-169.2,421.2z"/>
	<path class="st11" d="M-157.8,417.1V429h-2.1v-1.4c-0.3,0.5-0.7,0.8-1.2,1.1c-0.5,0.3-1,0.4-1.7,0.4c-0.8,0-1.5-0.2-2.1-0.6
		c-0.6-0.4-1.1-0.9-1.4-1.6s-0.5-1.4-0.5-2.3c0-0.9,0.2-1.6,0.5-2.3c0.3-0.7,0.8-1.2,1.4-1.5c0.6-0.4,1.3-0.5,2.1-0.5
		c0.7,0,1.2,0.1,1.7,0.4s0.9,0.6,1.2,1.1v-4.7H-157.8z M-160.5,426.6c0.5-0.5,0.7-1.1,0.7-1.9c0-0.8-0.2-1.4-0.7-1.9
		c-0.5-0.5-1-0.7-1.8-0.7c-0.7,0-1.3,0.2-1.7,0.7c-0.4,0.5-0.7,1.1-0.7,1.9c0,0.8,0.2,1.4,0.7,1.9c0.4,0.5,1,0.7,1.7,0.7
		C-161.6,427.4-161,427.1-160.5,426.6z"/>
	<path class="st11" d="M-145.1,420.9c0.7,0.4,1.2,0.9,1.6,1.5c0.4,0.7,0.6,1.4,0.6,2.3c0,0.9-0.2,1.6-0.6,2.3s-0.9,1.2-1.6,1.5
		c-0.7,0.4-1.5,0.5-2.3,0.5c-0.9,0-1.7-0.2-2.4-0.5s-1.2-0.9-1.6-1.5c-0.4-0.7-0.6-1.4-0.6-2.3c0-0.9,0.2-1.6,0.6-2.3
		c0.4-0.7,0.9-1.2,1.6-1.5c0.7-0.4,1.5-0.5,2.4-0.5C-146.5,420.4-145.8,420.6-145.1,420.9z M-149.2,422.9c-0.4,0.5-0.7,1.1-0.7,1.9
		c0,0.8,0.2,1.4,0.7,1.9c0.4,0.5,1,0.7,1.8,0.7c0.7,0,1.3-0.2,1.7-0.7c0.4-0.5,0.7-1.1,0.7-1.9c0-0.8-0.2-1.4-0.7-1.9
		c-0.4-0.5-1-0.7-1.7-0.7C-148.2,422.2-148.7,422.4-149.2,422.9z"/>
	<path class="st11" d="M-138.4,419.1c-0.2,0.2-0.3,0.5-0.3,0.8v0.9h2.1v1.5h-2.1v6.7h-2.1v-6.7h-1.1v-1.5h1.1V420
		c0-0.6,0.1-1.2,0.4-1.6s0.6-0.8,1.1-1c0.5-0.2,1-0.3,1.5-0.3c0.5,0,1.1,0.1,1.6,0.4l-0.4,1.7c-0.4-0.2-0.8-0.3-1.1-0.3
		C-138,418.8-138.2,418.9-138.4,419.1z"/>
	<path class="st11" d="M-126.5,428.5c-0.7,0.4-1.4,0.6-2.1,0.6c-0.7,0-1.3-0.2-1.8-0.6c-0.5-0.4-0.7-1.1-0.7-1.9v-4.2h-1.2l0-1.5
		h1.2v-2.4h2.1v2.4h2.4v1.5h-2.4v3.9c0,0.4,0.1,0.7,0.2,0.8c0.1,0.2,0.4,0.2,0.7,0.2c0.3,0,0.7-0.1,1.2-0.4L-126.5,428.5z"/>
	<path class="st11" d="M-117.3,421.2c0.6,0.6,0.8,1.4,0.8,2.4v5.3h-2.1v-4.7c0-0.6-0.2-1.1-0.5-1.4c-0.3-0.3-0.8-0.5-1.4-0.5
		c-0.7,0-1.2,0.2-1.6,0.7s-0.6,1-0.6,1.8v4.2h-2.1v-11.9h2.1v4.9c0.6-1.1,1.6-1.7,3.1-1.7C-118.6,420.4-117.8,420.7-117.3,421.2z"/>
	<path class="st11" d="M-107.4,421.5c0.7,0.8,1,1.9,1,3.3c0,0.3,0,0.5,0,0.6h-6.3c0.1,0.6,0.4,1.1,0.9,1.4c0.4,0.3,1,0.5,1.6,0.5
		c0.4,0,0.9-0.1,1.3-0.2c0.4-0.2,0.7-0.4,1-0.7l1.1,1.2c-0.4,0.5-0.9,0.8-1.6,1.1c-0.6,0.3-1.3,0.4-2,0.4c-0.9,0-1.6-0.2-2.3-0.5
		s-1.2-0.9-1.5-1.5s-0.5-1.4-0.5-2.3s0.2-1.6,0.6-2.3c0.4-0.7,0.9-1.2,1.5-1.5s1.4-0.6,2.3-0.6
		C-109.1,420.4-108.1,420.8-107.4,421.5z M-108.3,424.1c0-0.6-0.2-1.1-0.6-1.5c-0.4-0.4-0.9-0.6-1.6-0.6c-0.6,0-1.1,0.2-1.5,0.6
		c-0.4,0.4-0.7,0.9-0.8,1.5H-108.3z"/>
	<path class="st11" d="M-95.7,428.5c-0.7,0.4-1.4,0.6-2.1,0.6c-0.7,0-1.3-0.2-1.8-0.6c-0.5-0.4-0.7-1.1-0.7-1.9v-4.2h-1.2l0-1.5h1.2
		v-2.4h2.1v2.4h2.4v1.5h-2.4v3.9c0,0.4,0.1,0.7,0.2,0.8c0.1,0.2,0.4,0.2,0.7,0.2c0.3,0,0.7-0.1,1.2-0.4L-95.7,428.5z"/>
	<path class="st11" d="M-86.1,420.4v8.6h-2.1v-1.6c-0.6,1.1-1.6,1.7-3,1.7c-1,0-1.7-0.3-2.3-0.9s-0.8-1.4-0.8-2.4v-5.4h2.1v4.8
		c0,0.6,0.2,1.1,0.5,1.4c0.3,0.3,0.8,0.5,1.4,0.5c0.7,0,1.2-0.2,1.6-0.7c0.4-0.5,0.6-1,0.6-1.7v-4.2H-86.1z"/>
	<path class="st11" d="M-78.5,428.5c-0.7,0.4-1.4,0.6-2.1,0.6c-0.7,0-1.3-0.2-1.8-0.6c-0.5-0.4-0.7-1.1-0.7-1.9v-4.2h-1.2l0-1.5h1.2
		v-2.4h2.1v2.4h2.4v1.5h-2.4v3.9c0,0.4,0.1,0.7,0.2,0.8c0.1,0.2,0.4,0.2,0.7,0.2c0.3,0,0.7-0.1,1.2-0.4L-78.5,428.5z"/>
	<path class="st11" d="M-70.9,420.9c0.7,0.4,1.2,0.9,1.6,1.5c0.4,0.7,0.6,1.4,0.6,2.3c0,0.9-0.2,1.6-0.6,2.3s-0.9,1.2-1.6,1.5
		c-0.7,0.4-1.5,0.5-2.3,0.5c-0.9,0-1.7-0.2-2.4-0.5s-1.2-0.9-1.6-1.5c-0.4-0.7-0.6-1.4-0.6-2.3c0-0.9,0.2-1.6,0.6-2.3
		c0.4-0.7,0.9-1.2,1.6-1.5c0.7-0.4,1.5-0.5,2.4-0.5C-72.4,420.4-71.6,420.6-70.9,420.9z M-75,422.9c-0.4,0.5-0.7,1.1-0.7,1.9
		c0,0.8,0.2,1.4,0.7,1.9c0.4,0.5,1,0.7,1.8,0.7c0.7,0,1.3-0.2,1.7-0.7c0.4-0.5,0.7-1.1,0.7-1.9c0-0.8-0.2-1.4-0.7-1.9
		c-0.4-0.5-1-0.7-1.7-0.7C-74,422.2-74.6,422.4-75,422.9z"/>
	<path class="st11" d="M-63.7,420.8c0.5-0.3,1.1-0.4,1.7-0.5v2c-0.9-0.1-1.6,0.2-2.1,0.6c-0.5,0.5-0.8,1.1-0.8,1.9v4.1h-2.1v-8.6
		h2.1v1.6C-64.6,421.5-64.2,421.1-63.7,420.8z"/>
	<path class="st11" d="M-58.6,417.1c0.2,0.2,0.3,0.5,0.3,0.9c0,0.4-0.1,0.6-0.3,0.9c-0.2,0.2-0.5,0.4-0.8,0.4
		c-0.3,0-0.6-0.1-0.8-0.4c-0.2-0.2-0.3-0.5-0.3-0.9c0-0.4,0.1-0.7,0.3-0.9s0.5-0.4,0.8-0.4C-59.1,416.8-58.8,416.9-58.6,417.1z
		 M-60.5,420.4h2.1v8.6h-2.1V420.4z"/>
	<path class="st11" d="M-50.8,429v-1c-0.3,0.4-0.7,0.7-1.2,0.8c-0.5,0.2-1,0.3-1.6,0.3c-0.6,0-1.1-0.1-1.6-0.3s-0.8-0.5-1-1
		c-0.2-0.4-0.4-0.9-0.4-1.4c0-0.8,0.3-1.4,0.8-1.9c0.6-0.5,1.4-0.7,2.4-0.7h2.5v-0.2c0-0.5-0.2-0.9-0.5-1.2
		c-0.3-0.3-0.8-0.4-1.4-0.4c-0.8,0-1.7,0.3-2.5,0.8l-0.8-1.4c0.7-0.4,1.3-0.6,1.8-0.8c0.5-0.2,1.2-0.2,1.9-0.2c1.1,0,2,0.3,2.6,0.8
		c0.6,0.5,0.9,1.3,0.9,2.2l0,5.6H-50.8z M-51.5,427.1c0.4-0.3,0.7-0.6,0.7-1v-0.8H-53c-0.6,0-1,0.1-1.2,0.2
		c-0.3,0.2-0.4,0.4-0.4,0.8c0,0.4,0.1,0.7,0.4,0.9c0.3,0.2,0.6,0.3,1.1,0.3C-52.5,427.5-51.9,427.4-51.5,427.1z"/>
	<path class="st11" d="M-46.3,417.1h2.1V429h-2.1V417.1z"/>
	<path class="st11" d="M-40.3,427.2c0.2,0.2,0.3,0.5,0.3,0.8c0,0.3-0.1,0.6-0.3,0.8c-0.2,0.2-0.5,0.3-0.8,0.3
		c-0.3,0-0.6-0.1-0.8-0.3c-0.2-0.2-0.3-0.5-0.3-0.8c0-0.3,0.1-0.6,0.3-0.8c0.2-0.2,0.5-0.3,0.8-0.3
		C-40.7,426.8-40.5,426.9-40.3,427.2z"/>
</g>
</svg>
