<?xml version="1.0" encoding="utf-8"?>
<!-- Generator: Adobe Illustrator 19.0.0, SVG Export Plug-In . SVG Version: 6.00 Build 0)  -->
<svg version="1.1" id="Layer_1" xmlns="http://www.w3.org/2000/svg" xmlns:xlink="http://www.w3.org/1999/xlink" x="0px" y="0px"
	 viewBox="-319 -101.7 320 763.7" style="enable-background:new -319 -101.7 320 763.7;" xml:space="preserve">
<style type="text/css">
	.st0{fill:url(#SVGID_1_);}
	.st1{fill:#279686;}
	.st2{fill:#FFFFFF;}
	.st3{fill:#895881;}
	.st4{fill:#FFCF01;}
	.st5{fill:#F4BB3A;}
	.st6{fill:#A17A94;}
	.st7{fill:none;stroke:#FFCF01;stroke-width:4.1722;stroke-miterlimit:10;}
	.st8{fill:#F78330;}
	.st9{fill:none;}
	.st10{enable-background:new    ;}
</style>
<radialGradient id="SVGID_1_" cx="-151.6362" cy="-475.2215" r="216.3526" gradientTransform="matrix(0.9893 0 0 1 1.071975e-002 627.6362)" gradientUnits="userSpaceOnUse">
	<stop  offset="0" style="stop-color:#DFF7F9"/>
	<stop  offset="0.1438" style="stop-color:#D0F0F7"/>
	<stop  offset="0.2973" style="stop-color:#A8DCF0"/>
	<stop  offset="0.5622" style="stop-color:#69BDE7"/>
	<stop  offset="0.7488" style="stop-color:#45ABE1"/>
</radialGradient>
<rect x="-319" y="-105.1" class="st0" width="320" height="772"/>
<g>
	<path class="st1" d="M-289.4,311.1c-1.7-0.4-3.1-1.1-4.3-2.2c-1.2-1.1-2.1-2.5-2.6-4.3c-0.5-1.7-0.5-3.4-0.1-5
		c0.5-1.6,1.3-3,2.6-4.2c1.3-1.2,2.9-2.1,4.8-2.6c1.5-0.4,3-0.5,4.4-0.3s2.6,0.6,3.7,1.4c-0.6,0.9-1.1,1.7-1.7,2.6
		c-1.7-1-3.5-1.3-5.5-0.8c-1.3,0.3-2.3,0.9-3.2,1.7c-0.9,0.8-1.4,1.8-1.7,2.8c-0.3,1.1-0.3,2.2,0.1,3.4c0.3,1.2,0.9,2.2,1.7,2.9
		c0.8,0.8,1.8,1.3,2.9,1.6s2.3,0.2,3.5-0.1c1.9-0.5,3.3-1.6,4.3-3.4c0.9,0.5,1.8,1,2.7,1.5c-0.6,1.2-1.4,2.2-2.5,3s-2.4,1.4-3.8,1.8
		C-286,311.4-287.7,311.5-289.4,311.1z"/>
	<path class="st1" d="M-271,306.3c-1.7-0.4-3.1-1.2-4.3-2.4c-1.2-1.2-2-2.6-2.4-4.3s-0.4-3.4,0.1-5c0.5-1.6,1.4-3,2.8-4.1
		c1.3-1.1,3-1.9,4.9-2.4c1.9-0.4,3.7-0.4,5.4,0c1.7,0.5,3.1,1.3,4.3,2.5c1.2,1.2,1.9,2.7,2.3,4.4s0.3,3.4-0.3,5
		c-0.6,1.6-1.5,2.9-2.8,4c-1.3,1.1-2.9,1.9-4.7,2.3C-267.6,306.8-269.4,306.8-271,306.3z M-263.4,301.9c0.9-0.7,1.5-1.7,1.8-2.7
		c0.3-1.1,0.4-2.2,0.1-3.4c-0.3-1.2-0.8-2.2-1.5-3c-0.8-0.8-1.7-1.4-2.8-1.7c-1.1-0.3-2.3-0.3-3.5,0s-2.3,0.8-3.2,1.6
		c-0.9,0.8-1.5,1.7-1.8,2.8c-0.3,1.1-0.4,2.2-0.1,3.4s0.8,2.2,1.6,3c0.8,0.8,1.7,1.4,2.8,1.7c1.1,0.3,2.2,0.3,3.5,0
		C-265.2,303.2-264.2,302.7-263.4,301.9z"/>
	<path class="st1" d="M-239.4,282.4c1,6,2,12,3,18c-0.9,0.2-1.9,0.3-2.8,0.5c-4-3.5-8.2-6.9-12.4-10.3c0.8,4,1.6,8.1,2.3,12.1
		c-1.1,0.2-2.2,0.4-3.3,0.7c-1.2-5.9-2.4-11.9-3.6-17.8c1-0.2,1.9-0.4,2.9-0.6c4.2,3.4,8.4,6.8,12.5,10.2c-0.7-4-1.4-8.1-2.1-12.1
		C-241.7,282.7-240.5,282.5-239.4,282.4z"/>
	<path class="st1" d="M-220.2,288.5c1.1-0.1,2.2-0.3,3.3-0.4c0.3,2.4,0.6,4.8,0.9,7.2c-0.9,0.9-1.9,1.6-3.1,2.1
		c-1.2,0.6-2.5,0.9-3.8,1.1c-1.9,0.3-3.6,0.1-5.2-0.5c-1.6-0.6-3-1.5-4-2.8c-1.1-1.3-1.8-2.8-2-4.5c-0.3-1.8-0.1-3.4,0.6-5
		c0.7-1.5,1.7-2.8,3.1-3.9c1.4-1,3.1-1.7,5.1-1.9c1.6-0.2,3.1-0.2,4.4,0.2c1.4,0.3,2.5,0.9,3.5,1.8c-0.7,0.8-1.3,1.6-1.9,2.3
		c-1.6-1.2-3.4-1.7-5.5-1.4c-1.3,0.2-2.5,0.6-3.4,1.3c-1,0.7-1.6,1.5-2.1,2.6c-0.4,1-0.6,2.2-0.4,3.4c0.2,1.2,0.6,2.2,1.3,3.1
		c0.7,0.9,1.6,1.5,2.7,1.9c1.1,0.4,2.3,0.5,3.5,0.3c1.4-0.2,2.7-0.7,3.7-1.4C-219.8,292.3-220,290.4-220.2,288.5z"/>
	<path class="st1" d="M-199.4,295.6c-1.4-1.7-2.8-3.3-4.3-5c-0.2,0-0.4,0.1-0.7,0.1c-1.4,0.1-2.8,0.3-4.2,0.4
		c0.2,1.8,0.4,3.5,0.6,5.3c-1.1,0.1-2.3,0.2-3.4,0.4c-0.7-6-1.4-12.1-2.1-18.1c2.6-0.3,5.2-0.6,7.8-0.8c1.6-0.2,3.1,0,4.4,0.4
		c1.3,0.4,2.3,1.1,3,2c0.7,0.9,1.1,2,1.3,3.4c0.1,1.4-0.1,2.6-0.7,3.6s-1.5,1.9-2.7,2.5c1.6,1.9,3.2,3.7,4.8,5.6
		C-196.9,295.4-198.2,295.5-199.4,295.6z M-201.9,281.4c-0.8-0.5-2-0.8-3.6-0.6c-1.4,0.1-2.7,0.3-4.1,0.4c0.3,2.4,0.5,4.8,0.8,7.2
		c1.3-0.1,2.7-0.3,4-0.4c1.5-0.1,2.6-0.6,3.3-1.3c0.7-0.7,1-1.6,0.9-2.8C-200.6,282.8-201.1,281.9-201.9,281.4z"/>
	<path class="st1" d="M-180.5,290.1c-3.1,0.2-6.2,0.3-9.3,0.6c-0.5,1.4-1,2.9-1.5,4.3c-1.2,0.1-2.3,0.2-3.5,0.3
		c2.3-6.3,4.6-12.5,7.1-18.8c1.2-0.1,2.3-0.1,3.5-0.2c3.2,5.9,6.3,11.8,9.3,17.8c-1.2,0-2.4,0.1-3.6,0.2
		C-179.1,292.8-179.8,291.4-180.5,290.1z M-181.8,287.5c-1.3-2.6-2.6-5.2-4-7.7c-1,2.7-2,5.4-3,8.2
		C-186.5,287.7-184.1,287.6-181.8,287.5z"/>
	<path class="st1" d="M-170.2,278.5c-2.1,0.1-4.2,0.1-6.3,0.2c0-1-0.1-1.9-0.1-2.9c5.4-0.2,10.8-0.4,16.2-0.4c0,1,0,1.9,0,2.9
		c-2.1,0-4.2,0.1-6.3,0.1c0.1,5.1,0.2,10.2,0.3,15.3c-1.1,0-2.3,0.1-3.4,0.1C-169.9,288.7-170.1,283.6-170.2,278.5z"/>
	<path class="st1" d="M-156,291.8c-1.4-1.4-2.2-3.4-2.2-6.1c0-3.4,0-6.8-0.1-10.3c1.2,0,2.4,0,3.5,0c0,3.4,0,6.8,0,10.1
		c0,3.6,1.6,5.4,4.7,5.4s4.7-1.7,4.8-5.3c0.1-3.4,0.1-6.8,0.2-10.1c1.2,0,2.3,0,3.5,0.1c-0.1,3.4-0.2,6.8-0.3,10.3
		c-0.1,2.6-0.8,4.6-2.3,6c-1.4,1.4-3.4,2-6,2C-152.6,293.9-154.6,293.2-156,291.8z"/>
	<path class="st1" d="M-136.6,275.8c1.2,0,2.4,0.1,3.5,0.1c-0.2,5.1-0.4,10.2-0.7,15.3c3.2,0.1,6.4,0.3,9.7,0.5
		c-0.1,1-0.1,1.9-0.2,2.9c-4.3-0.3-8.7-0.5-13-0.6C-137.1,287.9-136.8,281.8-136.6,275.8z"/>
	<path class="st1" d="M-109.1,291.5c-3.1-0.3-6.2-0.5-9.3-0.8c-0.7,1.4-1.4,2.7-2.1,4.1c-1.2-0.1-2.3-0.2-3.5-0.2
		c3.1-5.9,6.4-11.7,9.7-17.6c1.2,0.1,2.3,0.2,3.5,0.3c2.3,6.3,4.6,12.6,6.7,18.9c-1.2-0.1-2.4-0.2-3.6-0.4
		C-108.2,294.4-108.6,293-109.1,291.5z M-110,288.8c-0.9-2.7-1.9-5.5-2.8-8.2c-1.4,2.5-2.8,5.1-4.1,7.7
		C-114.7,288.4-112.4,288.6-110,288.8z"/>
	<path class="st1" d="M-97.3,281.6c-2.1-0.2-4.2-0.5-6.3-0.7c0.1-0.9,0.2-1.9,0.3-2.8c5.4,0.5,10.7,1.2,16.1,1.9
		c-0.1,0.9-0.3,1.9-0.4,2.8c-2.1-0.3-4.2-0.5-6.2-0.8c-0.6,5.1-1.2,10.2-1.8,15.2c-1.1-0.1-2.3-0.3-3.4-0.4
		C-98.4,291.7-97.8,286.7-97.3,281.6z"/>
	<path class="st1" d="M-84.5,280.3c1.2,0.2,2.3,0.3,3.5,0.5c-0.9,6-1.7,12-2.6,18c-1.1-0.2-2.3-0.3-3.4-0.5
		C-86.2,292.3-85.3,286.3-84.5,280.3z"/>
	<path class="st1" d="M-75,299.2c-1.4-1-2.4-2.3-3-3.9c-0.6-1.5-0.8-3.2-0.6-4.9c0.3-1.7,0.9-3.3,2-4.5c1.1-1.3,2.5-2.2,4.2-2.7
		s3.5-0.7,5.4-0.3c1.9,0.3,3.6,1,5,2.1c1.4,1.1,2.4,2.4,3,4c0.6,1.6,0.7,3.2,0.4,5s-1.1,3.2-2.2,4.5c-1.1,1.2-2.5,2.1-4.1,2.6
		c-1.6,0.5-3.4,0.6-5.2,0.3C-72.1,300.9-73.7,300.2-75,299.2z M-66.3,298.1c1.1-0.4,2-1,2.7-1.8c0.7-0.9,1.2-1.9,1.4-3.1
		s0.1-2.3-0.2-3.4c-0.4-1.1-1-2-1.9-2.7s-2-1.2-3.2-1.4c-1.3-0.2-2.4-0.1-3.5,0.2c-1.1,0.4-2,1-2.7,1.9c-0.7,0.9-1.2,1.9-1.4,3.1
		c-0.2,1.2-0.1,2.3,0.3,3.4c0.4,1.1,1.1,1.9,1.9,2.6c0.9,0.7,1.9,1.2,3.2,1.4C-68.5,298.5-67.3,298.4-66.3,298.1z"/>
	<path class="st1" d="M-36.6,289.3c-1.4,5.9-2.8,11.8-4.2,17.7c-0.9-0.2-1.8-0.4-2.8-0.6c-2.4-4.8-4.9-9.5-7.4-14.3
		c-0.8,4-1.7,8-2.5,12.1c-1.1-0.2-2.2-0.5-3.3-0.7c1.2-5.9,2.4-11.9,3.6-17.8c1,0.2,1.9,0.4,2.9,0.6c2.6,4.7,5.1,9.5,7.6,14.3
		c0.9-4,1.8-8,2.8-12C-38.9,288.7-37.7,289-36.6,289.3z"/>
	<path class="st1" d="M-34.3,308.2c-1.2-0.7-2.1-1.5-2.7-2.3c0.6-0.8,1.2-1.5,1.8-2.3c0.6,0.8,1.4,1.4,2.4,2.1c1,0.6,2,1.1,3.1,1.4
		c1.3,0.3,2.4,0.4,3.2,0.2c0.8-0.2,1.3-0.7,1.4-1.4c0.1-0.5,0.1-1-0.2-1.4c-0.3-0.4-0.7-0.8-1.2-1.1c-0.5-0.3-1.2-0.7-2.2-1.2
		c-1.3-0.7-2.4-1.3-3.1-1.8c-0.8-0.5-1.4-1.2-1.9-2.1c-0.5-0.8-0.5-1.8-0.3-3c0.2-1,0.7-1.8,1.5-2.5s1.8-1.1,3-1.3
		c1.2-0.2,2.7-0.1,4.3,0.4c1.1,0.3,2.2,0.7,3.2,1.3s1.9,1.2,2.5,1.9c-0.6,0.7-1.2,1.5-1.8,2.2c-0.7-0.7-1.4-1.2-2.3-1.7
		c-0.8-0.5-1.6-0.8-2.5-1c-1.4-0.4-2.4-0.4-3.2-0.1c-0.8,0.3-1.2,0.8-1.4,1.5c-0.1,0.5,0,1,0.3,1.4c0.3,0.4,0.7,0.8,1.2,1.1
		s1.3,0.7,2.2,1.2c1.3,0.7,2.3,1.3,3.1,1.8c0.8,0.6,1.4,1.3,1.8,2.1c0.4,0.8,0.5,1.8,0.2,3c-0.3,1-0.8,1.8-1.5,2.4
		c-0.8,0.6-1.7,1-3,1.2c-1.2,0.2-2.6,0.1-4.2-0.4C-31.8,309.5-33.1,308.9-34.3,308.2z"/>
	<path class="st1" d="M-20,312c-0.3-0.5-0.4-1-0.2-1.6c0.2-0.6,0.5-1,1-1.2c0.5-0.3,1-0.3,1.6-0.1s1,0.5,1.3,1s0.3,1,0.2,1.5
		c-0.2,0.5-0.5,1-1,1.2c-0.5,0.3-1,0.3-1.6,0.1C-19.3,312.8-19.7,312.4-20,312z M-15.6,294.7c1.3,0.4,2.6,0.7,3.9,1.1
		c-1.4,3.8-2.7,7.7-4,11.5c-0.9-0.2-1.7-0.5-2.6-0.7C-17.4,302.6-16.5,298.7-15.6,294.7z"/>
</g>
<g>
	<path class="st2" d="M-291.4,309.1c-1.7-0.4-3.1-1.1-4.3-2.2c-1.2-1.1-2.1-2.5-2.6-4.3c-0.5-1.7-0.5-3.4-0.1-5
		c0.5-1.6,1.3-3,2.6-4.2c1.3-1.2,2.9-2.1,4.8-2.6c1.5-0.4,3-0.5,4.4-0.3s2.6,0.6,3.7,1.4c-0.6,0.9-1.1,1.7-1.7,2.6
		c-1.7-1-3.5-1.3-5.5-0.8c-1.3,0.3-2.3,0.9-3.2,1.7c-0.9,0.8-1.4,1.8-1.7,2.8c-0.3,1.1-0.3,2.2,0.1,3.4c0.3,1.2,0.9,2.2,1.7,2.9
		c0.8,0.8,1.8,1.3,2.9,1.6s2.3,0.2,3.5-0.1c1.9-0.5,3.3-1.6,4.3-3.4c0.9,0.5,1.8,1,2.7,1.5c-0.6,1.2-1.4,2.2-2.5,3s-2.4,1.4-3.8,1.8
		C-288,309.4-289.7,309.5-291.4,309.1z"/>
	<path class="st2" d="M-273,304.3c-1.7-0.4-3.1-1.2-4.3-2.4c-1.2-1.2-2-2.6-2.4-4.3s-0.4-3.4,0.1-5c0.5-1.6,1.4-3,2.8-4.1
		c1.3-1.1,3-1.9,4.9-2.4c1.9-0.4,3.7-0.4,5.4,0c1.7,0.5,3.1,1.3,4.3,2.5c1.2,1.2,1.9,2.7,2.3,4.4s0.3,3.4-0.3,5
		c-0.6,1.6-1.5,2.9-2.8,4c-1.3,1.1-2.9,1.9-4.7,2.3C-269.6,304.8-271.4,304.8-273,304.3z M-265.4,299.9c0.9-0.7,1.5-1.7,1.8-2.7
		c0.3-1.1,0.4-2.2,0.1-3.4c-0.3-1.2-0.8-2.2-1.5-3c-0.8-0.8-1.7-1.4-2.8-1.7c-1.1-0.3-2.3-0.3-3.5,0s-2.3,0.8-3.2,1.6
		c-0.9,0.8-1.5,1.7-1.8,2.8c-0.3,1.1-0.4,2.2-0.1,3.4s0.8,2.2,1.6,3c0.8,0.8,1.7,1.4,2.8,1.7c1.1,0.3,2.2,0.3,3.5,0
		C-267.2,301.2-266.2,300.7-265.4,299.9z"/>
	<path class="st2" d="M-241.4,280.4c1,6,2,12,3,18c-0.9,0.2-1.9,0.3-2.8,0.5c-4-3.5-8.2-6.9-12.4-10.3c0.8,4,1.6,8.1,2.3,12.1
		c-1.1,0.2-2.2,0.4-3.3,0.7c-1.2-5.9-2.4-11.9-3.6-17.8c1-0.2,1.9-0.4,2.9-0.6c4.2,3.4,8.4,6.8,12.5,10.2c-0.7-4-1.4-8.1-2.1-12.1
		C-243.7,280.7-242.5,280.5-241.4,280.4z"/>
	<path class="st2" d="M-222.2,286.5c1.1-0.1,2.2-0.3,3.3-0.4c0.3,2.4,0.6,4.8,0.9,7.2c-0.9,0.9-1.9,1.6-3.1,2.1
		c-1.2,0.6-2.5,0.9-3.8,1.1c-1.9,0.3-3.6,0.1-5.2-0.5c-1.6-0.6-3-1.5-4-2.8c-1.1-1.3-1.8-2.8-2-4.5c-0.3-1.8-0.1-3.4,0.6-5
		c0.7-1.5,1.7-2.8,3.1-3.9c1.4-1,3.1-1.7,5.1-1.9c1.6-0.2,3.1-0.2,4.4,0.2c1.4,0.3,2.5,0.9,3.5,1.8c-0.7,0.8-1.3,1.6-1.9,2.3
		c-1.6-1.2-3.4-1.7-5.5-1.4c-1.3,0.2-2.5,0.6-3.4,1.3c-1,0.7-1.6,1.5-2.1,2.6c-0.4,1-0.6,2.2-0.4,3.4c0.2,1.2,0.6,2.2,1.3,3.1
		c0.7,0.9,1.6,1.5,2.7,1.9c1.1,0.4,2.3,0.5,3.5,0.3c1.4-0.2,2.7-0.7,3.7-1.4C-221.8,290.3-222,288.4-222.2,286.5z"/>
	<path class="st2" d="M-201.4,293.6c-1.4-1.7-2.8-3.3-4.3-5c-0.2,0-0.4,0.1-0.7,0.1c-1.4,0.1-2.8,0.3-4.2,0.4
		c0.2,1.8,0.4,3.5,0.6,5.3c-1.1,0.1-2.3,0.2-3.4,0.4c-0.7-6-1.4-12.1-2.1-18.1c2.6-0.3,5.2-0.6,7.8-0.8c1.6-0.2,3.1,0,4.4,0.4
		c1.3,0.4,2.3,1.1,3,2c0.7,0.9,1.1,2,1.3,3.4c0.1,1.4-0.1,2.6-0.7,3.6s-1.5,1.9-2.7,2.5c1.6,1.9,3.2,3.7,4.8,5.6
		C-198.9,293.4-200.2,293.5-201.4,293.6z M-203.9,279.4c-0.8-0.5-2-0.8-3.6-0.6c-1.4,0.1-2.7,0.3-4.1,0.4c0.3,2.4,0.5,4.8,0.8,7.2
		c1.3-0.1,2.7-0.3,4-0.4c1.5-0.1,2.6-0.6,3.3-1.3c0.7-0.7,1-1.6,0.9-2.8C-202.6,280.8-203.1,279.9-203.9,279.4z"/>
	<path class="st2" d="M-182.5,288.1c-3.1,0.2-6.2,0.3-9.3,0.6c-0.5,1.4-1,2.9-1.5,4.3c-1.2,0.1-2.3,0.2-3.5,0.3
		c2.3-6.3,4.6-12.5,7.1-18.8c1.2-0.1,2.3-0.1,3.5-0.2c3.2,5.9,6.3,11.8,9.3,17.8c-1.2,0-2.4,0.1-3.6,0.2
		C-181.1,290.8-181.8,289.4-182.5,288.1z M-183.8,285.5c-1.3-2.6-2.6-5.2-4-7.7c-1,2.7-2,5.4-3,8.2
		C-188.5,285.7-186.1,285.6-183.8,285.5z"/>
	<path class="st2" d="M-172.2,276.5c-2.1,0.1-4.2,0.1-6.3,0.2c0-1-0.1-1.9-0.1-2.9c5.4-0.2,10.8-0.4,16.2-0.4c0,1,0,1.9,0,2.9
		c-2.1,0-4.2,0.1-6.3,0.1c0.1,5.1,0.2,10.2,0.3,15.3c-1.1,0-2.3,0.1-3.4,0.1C-171.9,286.7-172.1,281.6-172.2,276.5z"/>
	<path class="st2" d="M-158,289.8c-1.4-1.4-2.2-3.4-2.2-6.1c0-3.4,0-6.8-0.1-10.3c1.2,0,2.4,0,3.5,0c0,3.4,0,6.8,0,10.1
		c0,3.6,1.6,5.4,4.7,5.4s4.7-1.7,4.8-5.3c0.1-3.4,0.1-6.8,0.2-10.1c1.2,0,2.3,0,3.5,0.1c-0.1,3.4-0.2,6.8-0.3,10.3
		c-0.1,2.6-0.8,4.6-2.3,6c-1.4,1.4-3.4,2-6,2C-154.6,291.9-156.6,291.2-158,289.8z"/>
	<path class="st2" d="M-138.6,273.8c1.2,0,2.4,0.1,3.5,0.1c-0.2,5.1-0.4,10.2-0.7,15.3c3.2,0.1,6.4,0.3,9.7,0.5
		c-0.1,1-0.1,1.9-0.2,2.9c-4.3-0.3-8.7-0.5-13-0.6C-139.1,285.9-138.8,279.8-138.6,273.8z"/>
	<path class="st2" d="M-111.1,289.5c-3.1-0.3-6.2-0.5-9.3-0.8c-0.7,1.4-1.4,2.7-2.1,4.1c-1.2-0.1-2.3-0.2-3.5-0.2
		c3.1-5.9,6.4-11.7,9.7-17.6c1.2,0.1,2.3,0.2,3.5,0.3c2.3,6.3,4.6,12.6,6.7,18.9c-1.2-0.1-2.4-0.2-3.6-0.4
		C-110.2,292.4-110.6,291-111.1,289.5z M-112,286.8c-0.9-2.7-1.9-5.5-2.8-8.2c-1.4,2.5-2.8,5.1-4.1,7.7
		C-116.7,286.4-114.4,286.6-112,286.8z"/>
	<path class="st2" d="M-99.3,279.6c-2.1-0.2-4.2-0.5-6.3-0.7c0.1-0.9,0.2-1.9,0.3-2.8c5.4,0.5,10.7,1.2,16.1,1.9
		c-0.1,0.9-0.3,1.9-0.4,2.8c-2.1-0.3-4.2-0.5-6.2-0.8c-0.6,5.1-1.2,10.2-1.8,15.2c-1.1-0.1-2.3-0.3-3.4-0.4
		C-100.4,289.7-99.8,284.7-99.3,279.6z"/>
	<path class="st2" d="M-86.5,278.3c1.2,0.2,2.3,0.3,3.5,0.5c-0.9,6-1.7,12-2.6,18c-1.1-0.2-2.3-0.3-3.4-0.5
		C-88.2,290.3-87.3,284.3-86.5,278.3z"/>
	<path class="st2" d="M-77,297.2c-1.4-1-2.4-2.3-3-3.9c-0.6-1.5-0.8-3.2-0.6-4.9c0.3-1.7,0.9-3.3,2-4.5c1.1-1.3,2.5-2.2,4.2-2.7
		s3.5-0.7,5.4-0.3c1.9,0.3,3.6,1,5,2.1c1.4,1.1,2.4,2.4,3,4c0.6,1.6,0.7,3.2,0.4,5s-1.1,3.2-2.2,4.5c-1.1,1.2-2.5,2.1-4.1,2.6
		s-3.4,0.6-5.2,0.3C-74.1,298.9-75.7,298.2-77,297.2z M-68.3,296.1c1.1-0.4,2-1,2.7-1.8c0.7-0.9,1.2-1.9,1.4-3.1
		c0.2-1.2,0.1-2.3-0.2-3.4c-0.4-1.1-1-2-1.9-2.7s-2-1.2-3.2-1.4c-1.3-0.2-2.4-0.1-3.5,0.2c-1.1,0.4-2,1-2.7,1.9
		c-0.7,0.9-1.2,1.9-1.4,3.1c-0.2,1.2-0.1,2.3,0.3,3.4c0.4,1.1,1.1,1.9,1.9,2.6c0.9,0.7,1.9,1.2,3.2,1.4
		C-70.5,296.5-69.3,296.4-68.3,296.1z"/>
	<path class="st2" d="M-38.6,287.3c-1.4,5.9-2.8,11.8-4.2,17.7c-0.9-0.2-1.8-0.4-2.8-0.6c-2.4-4.8-4.9-9.5-7.4-14.3
		c-0.8,4-1.7,8-2.5,12.1c-1.1-0.2-2.2-0.5-3.3-0.7c1.2-5.9,2.4-11.9,3.6-17.8c1,0.2,1.9,0.4,2.9,0.6c2.6,4.7,5.1,9.5,7.6,14.3
		c0.9-4,1.8-8,2.8-12C-40.9,286.7-39.7,287-38.6,287.3z"/>
	<path class="st2" d="M-36.3,306.2c-1.2-0.7-2.1-1.5-2.7-2.3c0.6-0.8,1.2-1.5,1.8-2.3c0.6,0.8,1.4,1.4,2.4,2.1c1,0.6,2,1.1,3.1,1.4
		c1.3,0.3,2.4,0.4,3.2,0.2c0.8-0.2,1.3-0.7,1.4-1.4c0.1-0.5,0.1-1-0.2-1.4c-0.3-0.4-0.7-0.8-1.2-1.1c-0.5-0.3-1.2-0.7-2.2-1.2
		c-1.3-0.7-2.4-1.3-3.1-1.8c-0.8-0.5-1.4-1.2-1.9-2.1c-0.5-0.8-0.5-1.8-0.3-3c0.2-1,0.7-1.8,1.5-2.5s1.8-1.1,3-1.3
		c1.2-0.2,2.7-0.1,4.3,0.4c1.1,0.3,2.2,0.7,3.2,1.3s1.9,1.2,2.5,1.9c-0.6,0.7-1.2,1.5-1.8,2.2c-0.7-0.7-1.4-1.2-2.3-1.7
		c-0.8-0.5-1.6-0.8-2.5-1c-1.4-0.4-2.4-0.4-3.2-0.1c-0.8,0.3-1.2,0.8-1.4,1.5c-0.1,0.5,0,1,0.3,1.4c0.3,0.4,0.7,0.8,1.2,1.1
		s1.3,0.7,2.2,1.2c1.3,0.7,2.3,1.3,3.1,1.8c0.8,0.6,1.4,1.3,1.8,2.1c0.4,0.8,0.5,1.8,0.2,3c-0.3,1-0.8,1.8-1.5,2.4
		c-0.8,0.6-1.7,1-3,1.2c-1.2,0.2-2.6,0.1-4.2-0.4C-33.8,307.5-35.1,306.9-36.3,306.2z"/>
	<path class="st2" d="M-22,310c-0.3-0.5-0.4-1-0.2-1.6c0.2-0.6,0.5-1,1-1.2c0.5-0.3,1-0.3,1.6-0.1s1,0.5,1.3,1s0.3,1,0.2,1.5
		c-0.2,0.5-0.5,1-1,1.2c-0.5,0.3-1,0.3-1.6,0.1C-21.3,310.8-21.7,310.4-22,310z M-17.6,292.7c1.3,0.4,2.6,0.7,3.9,1.1
		c-1.4,3.8-2.7,7.7-4,11.5c-0.9-0.2-1.7-0.5-2.6-0.7C-19.4,300.6-18.5,296.7-17.6,292.7z"/>
</g>
<g>
	<circle class="st3" cx="-157.7" cy="160.3" r="78.7"/>
	<path class="st4" d="M-132.8,134c0,18-11,32.7-24.4,32.7s-24.4-14.7-24.4-32.7H-132.8L-132.8,134z"/>
	<path class="st4" d="M-151.3,185.3h-12l0,0c2.5-8.5,2.5-17.5,0-26l0,0h12l0,0C-153.8,167.8-153.8,176.8-151.3,185.3L-151.3,185.3z"
		/>
	<polygon class="st5" points="-141.2,191.5 -173.1,191.5 -167.1,185.3 -147.2,185.3 	"/>
	<rect x="-176.3" y="191.5" class="st6" width="38.7" height="23.5"/>
	<path class="st7" d="M-179.6,138.1c0,0-4.7-8.8-11.1-4.8c-7.5,4.7-3.4,14.8,9.2,19.3c1.4,0.5,2.8,1.4,3.7,2.7
		c1.4,1.9,1.9,4.7-3.6,6.5"/>
	<path class="st7" d="M-135.8,138.1c0,0,5.3-8.8,11.7-4.8c7.5,4.7,3.4,14.8-9.2,19.3c-1.4,0.5-2.8,1.4-3.7,2.7
		c-1.4,1.9-1.9,4.7,3.6,6.5"/>
	<path class="st5" d="M-135,134.4h-44.5c-1.2,0-2.2-1-2.2-2.2v-9.8c0-1.2,1-2.2,2.2-2.2h44.5c1.2,0,2.2,1,2.2,2.2v9.8
		C-132.8,133.5-133.8,134.4-135,134.4z"/>
	<path class="st8" d="M-156.5,137.6l2.5,5c0.2,0.2,0.4,0.5,0.6,0.5l5.6,0.8c0.7,0.1,1,1,0.5,1.4l-4,3.9c-0.2,0.2-0.3,0.5-0.2,0.8
		l1,5.6c0.2,0.7-0.6,1.2-1.2,0.9l-5-2.6c-0.2-0.2-0.5-0.2-0.8,0l-5,2.6c-0.6,0.3-1.4-0.2-1.2-0.9l1-5.6c0.1-0.3-0.1-0.5-0.2-0.8
		l-4-3.9c-0.5-0.5-0.2-1.4,0.5-1.4l5.6-0.8c0.3-0.1,0.5-0.2,0.6-0.5l2.5-5C-157.7,137-156.8,137-156.5,137.6z"/>
</g>
<rect x="-319" y="-101" class="st9" width="320" height="640"/>
<rect x="-319" y="-101.7" class="st9" width="320" height="640"/>
<g id="Antarctica_Background">
</g>
<g id="Beaver">
</g>
<g id="Crocdile">
</g>
<g id="Walrus">
</g>
<g id="Polar_Bear">
</g>
<g id="North_Pole_Background">
</g>
<g id="Seal">
</g>
<g id="Orca">
</g>
<g id="Dolphin">
</g>
<g id="Squid">
</g>
<g id="Manatee">
</g>
<g id="Blue_Whale">
</g>
<g id="Coconut_Crab">
</g>
<g id="Penguin">
</g>
<g id="Jellyfish">
</g>
<g id="Narwhal">
</g>
<g id="Beluga">
</g>
<g class="st10">
	<path class="st2" d="M-199.7,331.9v5.9h-3.1v-5.9l-6.6-10.9h3.4l4.9,8.2l5-8.2h3.1L-199.7,331.9z"/>
	<path class="st2" d="M-193.9,331.4c0-3.9,2.8-6.5,6.8-6.5s6.8,2.7,6.8,6.5s-2.8,6.5-6.8,6.5C-191.1,338-193.9,335.3-193.9,331.4z
		 M-183.3,331.4c0-2.4-1.6-4-3.8-4s-3.8,1.5-3.8,4s1.6,4,3.8,4S-183.3,333.9-183.3,331.4z"/>
	<path class="st2" d="M-165,325v12.8h-2.8v-1.6c-0.9,1.2-2.5,1.8-4.1,1.8c-3.3,0-5.5-1.8-5.5-5.7V325h3v6.9c0,2.3,1.1,3.4,3,3.4
		c2.1,0,3.5-1.3,3.5-3.9v-6.5h2.9L-165,325L-165,325z"/>
	<path class="st2" d="M-158.1,321.9c0,0.5-0.1,0.9-0.5,2.1l-1.2,3.4h-2l0.9-3.7c-0.7-0.3-1.1-0.9-1.1-1.8c0-1.2,0.9-2,2-2
		C-159,319.9-158.1,320.6-158.1,321.9z"/>
	<path class="st2" d="M-147.8,324.9v2.8c-0.3-0.1-0.5-0.1-0.7-0.1c-2.2,0-3.7,1.4-3.7,4v6.2h-3v-12.7h2.8v1.9
		C-151.5,325.6-149.9,324.9-147.8,324.9z"/>
	<path class="st2" d="M-133.3,332.3h-10.1c0.3,1.9,1.9,3.1,4.1,3.1c1.5,0,2.6-0.4,3.4-1.4l1.6,1.8c-1.1,1.4-2.9,2.1-5.2,2.1
		c-4.3,0-7.1-2.8-7.1-6.5s2.8-6.5,6.6-6.5c3.7,0,6.5,2.6,6.5,6.6C-133.3,331.7-133.3,332.1-133.3,332.3z M-143.5,330.4h7.2
		c-0.3-1.8-1.6-3.1-3.6-3.1C-141.8,327.3-143.1,328.5-143.5,330.4z"/>
	<path class="st2" d="M-113.1,330.3v7.5h-2.8v-1.5c-0.7,1.1-2.2,1.7-4,1.7c-2.9,0-4.7-1.6-4.7-3.9c0-2.2,1.5-3.8,5.3-3.8h3.3v-0.2
		c0-1.7-1-2.8-3.2-2.8c-1.5,0-2.9,0.5-3.9,1.3l-1.2-2.2c1.4-1,3.4-1.5,5.4-1.5C-115.3,324.9-113.1,326.6-113.1,330.3z M-116.1,333.8
		v-1.5h-3.1c-2.1,0-2.6,0.8-2.6,1.7c0,1.1,0.9,1.8,2.4,1.8C-117.9,335.8-116.6,335.1-116.1,333.8z"/>
</g>
<g class="st10">
	<path class="st2" d="M-223.5,359.3v7.3h-3v-7c0-2.2-1-3.4-2.8-3.4c-2,0-3.4,1.3-3.4,3.9v6.5h-3v-7c0-2.2-1-3.4-2.8-3.4
		c-2,0-3.4,1.3-3.4,3.9v6.5h-3v-12.8h2.8v1.6c0.9-1.1,2.4-1.8,4.2-1.8c1.9,0,3.4,0.7,4.3,2.2c1-1.3,2.8-2.2,4.8-2.2
		C-225.6,353.7-223.5,355.4-223.5,359.3z"/>
	<path class="st2" d="M-208.9,359.1v7.5h-2.8v-1.5c-0.7,1.1-2.2,1.7-4,1.7c-2.9,0-4.7-1.6-4.7-3.9c0-2.2,1.5-3.8,5.3-3.8h3.3v-0.2
		c0-1.7-1-2.8-3.2-2.8c-1.5,0-2.9,0.5-3.9,1.3l-1.2-2.2c1.4-1,3.4-1.5,5.4-1.5C-211,353.7-208.9,355.4-208.9,359.1z M-211.9,362.6
		v-1.5h-3.1c-2.1,0-2.6,0.8-2.6,1.7c0,1.1,0.9,1.8,2.4,1.8C-213.7,364.6-212.4,363.9-211.9,362.6z"/>
	<path class="st2" d="M-197.7,353.7v2.8c-0.3-0.1-0.5-0.1-0.7-0.1c-2.2,0-3.7,1.4-3.7,4v6.2h-3v-12.8h2.8v1.9
		C-201.3,354.4-199.7,353.7-197.7,353.7z"/>
	<path class="st2" d="M-195.5,349.9c0-1,0.8-1.8,1.9-1.8c1.1,0,1.9,0.8,1.9,1.7c0,1-0.8,1.9-1.9,1.9S-195.5,350.9-195.5,349.9z
		 M-195.1,353.9h3v12.8h-3V353.9z"/>
	<path class="st2" d="M-175.6,359.3v7.3h-3v-7c0-2.2-1.1-3.4-3-3.4c-2.2,0-3.6,1.3-3.6,3.9v6.5h-3v-12.8h2.8v1.6
		c0.9-1.2,2.6-1.8,4.4-1.8C-177.8,353.7-175.6,355.4-175.6,359.3z"/>
	<path class="st2" d="M-159.7,361.2h-10.1c0.3,1.9,1.9,3.1,4.1,3.1c1.5,0,2.6-0.4,3.4-1.4l1.6,1.8c-1.1,1.4-2.9,2.1-5.2,2.1
		c-4.3,0-7.1-2.8-7.1-6.5s2.8-6.5,6.6-6.5c3.7,0,6.5,2.6,6.5,6.6C-159.6,360.6-159.6,360.9-159.7,361.2z M-169.7,359.2h7.2
		c-0.3-1.8-1.6-3.1-3.6-3.1C-168,356.1-169.4,357.3-169.7,359.2z"/>
	<path class="st2" d="M-138.1,361.2h-10.1c0.3,1.9,1.9,3.1,4.1,3.1c1.5,0,2.6-0.4,3.4-1.4l1.6,1.8c-1.1,1.4-2.9,2.1-5.2,2.1
		c-4.3,0-7.1-2.8-7.1-6.5s2.8-6.5,6.6-6.5c3.7,0,6.5,2.6,6.5,6.6C-138.1,360.6-138.1,360.9-138.1,361.2z M-148.1,359.2h7.2
		c-0.3-1.8-1.6-3.1-3.6-3.1C-146.4,356.1-147.9,357.3-148.1,359.2z"/>
	<path class="st2" d="M-127.4,366.7l-3.3-4.5l-3.3,4.5h-3.3l5-6.5l-4.7-6.3h3.4l3.2,4.2l3.2-4.2h3.3l-4.8,6.3l5,6.5H-127.4z"/>
	<path class="st2" d="M-108.1,360.2c0,4-2.8,6.5-6.5,6.5c-1.6,0-3.1-0.5-4.1-1.7v6.2h-3v-17.5h2.8v1.7c1-1.2,2.5-1.8,4.2-1.8
		C-111,353.7-108.1,356.3-108.1,360.2z M-111.2,360.2c0-2.4-1.6-4-3.8-4c-2.2,0-3.8,1.5-3.8,4s1.6,4,3.8,4
		C-112.9,364.3-111.2,362.7-111.2,360.2z"/>
	<path class="st2" d="M-93.3,361.2h-10.1c0.3,1.9,1.9,3.1,4.1,3.1c1.5,0,2.6-0.4,3.4-1.4l1.6,1.8c-1.1,1.4-2.9,2.1-5.2,2.1
		c-4.3,0-7.1-2.8-7.1-6.5s2.8-6.5,6.6-6.5c3.7,0,6.5,2.6,6.5,6.6C-93.3,360.6-93.3,360.9-93.3,361.2z M-103.4,359.2h7.2
		c-0.3-1.8-1.6-3.1-3.6-3.1C-101.7,356.1-103.1,357.3-103.4,359.2z"/>
	<path class="st2" d="M-83,353.7v2.8c-0.3-0.1-0.5-0.1-0.7-0.1c-2.2,0-3.7,1.4-3.7,4v6.2h-3v-12.8h2.8v1.9
		C-86.7,354.4-85.2,353.7-83,353.7z"/>
	<path class="st2" d="M-72.3,366c-0.7,0.6-1.8,0.9-2.8,0.9c-2.8,0-4.4-1.5-4.4-4.3v-6.2h-2.2V354h2.2v-2.9h3v2.9h3.4v2.4h-3.4v6.1
		c0,1.2,0.6,1.9,1.8,1.9c0.6,0,1.2-0.2,1.7-0.5L-72.3,366z"/>
	<path class="st2" d="M-70.4,364.9c0-1,0.8-1.8,2-1.8c1.1,0,1.9,0.8,1.9,1.8s-0.8,1.9-1.9,1.9S-70.4,366-70.4,364.9z M-70.2,349.8
		h3.5l-0.6,11.2h-2.4L-70.2,349.8z"/>
</g>
</svg>
