<?xml version="1.0" encoding="utf-8"?>
<!-- Generator: Adobe Illustrator 19.0.0, SVG Export Plug-In . SVG Version: 6.00 Build 0)  -->
<svg version="1.1" id="Layer_1" xmlns="http://www.w3.org/2000/svg" xmlns:xlink="http://www.w3.org/1999/xlink" x="0px" y="0px"
	 viewBox="140 -361.7 320 763.7" style="enable-background:new 140 -361.7 320 763.7;" xml:space="preserve">
<style type="text/css">
	.st0{fill:url(#SVGID_1_);}
	.st1{fill:#279686;}
	.st2{fill:#FFFFFF;}
	.st3{fill:#895881;}
	.st4{fill:#FFCF01;}
	.st5{fill:#F4BB3A;}
	.st6{fill:#A17A94;}
	.st7{fill:none;stroke:#FFCF01;stroke-width:5.5505;stroke-miterlimit:10;}
	.st8{fill:#F78330;}
	.st9{fill:none;}
	.st10{font-family:'Montserrat-SemiBold';}
	.st11{font-size:27.8832px;}
</style>
<radialGradient id="SVGID_1_" cx="309" cy="-691.532" r="228.0022" gradientTransform="matrix(1 0 0 1.1933 0 718.2965)" gradientUnits="userSpaceOnUse">
	<stop  offset="0" style="stop-color:#DFF7F9"/>
	<stop  offset="0.1438" style="stop-color:#D0F0F7"/>
	<stop  offset="0.4205" style="stop-color:#A8DCF0"/>
	<stop  offset="0.7987" style="stop-color:#69BDE7"/>
	<stop  offset="1" style="stop-color:#45ABE1"/>
</radialGradient>
<rect x="140" y="-361.7" class="st0" width="320" height="763.7"/>
<g>
	<path class="st1" d="M169.6,70.4c-1.7-0.4-3.1-1.1-4.3-2.2s-2.1-2.5-2.6-4.3c-0.5-1.7-0.5-3.4-0.1-5c0.5-1.6,1.3-3,2.6-4.2
		s2.9-2.1,4.8-2.6c1.5-0.4,3-0.5,4.4-0.3c1.4,0.2,2.6,0.6,3.7,1.4c-0.6,0.9-1.1,1.7-1.7,2.6c-1.7-1-3.5-1.3-5.5-0.8
		c-1.3,0.3-2.3,0.9-3.2,1.7c-0.9,0.8-1.4,1.8-1.7,2.8c-0.3,1.1-0.3,2.2,0.1,3.4c0.3,1.2,0.9,2.2,1.7,2.9c0.8,0.8,1.8,1.3,2.9,1.6
		c1.1,0.3,2.3,0.2,3.5-0.1c1.9-0.5,3.3-1.6,4.3-3.4c0.9,0.5,1.8,1,2.7,1.5c-0.6,1.2-1.4,2.2-2.5,3c-1.1,0.8-2.4,1.4-3.8,1.8
		C173,70.7,171.3,70.8,169.6,70.4z"/>
	<path class="st1" d="M188,65.6c-1.7-0.4-3.1-1.2-4.3-2.4c-1.2-1.2-2-2.6-2.4-4.3c-0.4-1.7-0.4-3.4,0.1-5s1.4-3,2.8-4.1
		c1.3-1.1,3-1.9,4.9-2.4c1.9-0.4,3.7-0.4,5.4,0c1.7,0.5,3.1,1.3,4.3,2.5s1.9,2.7,2.3,4.4c0.4,1.7,0.3,3.4-0.3,5
		c-0.6,1.6-1.5,2.9-2.8,4s-2.9,1.9-4.7,2.3C191.4,66.1,189.6,66.1,188,65.6z M195.6,61.2c0.9-0.7,1.5-1.7,1.8-2.7
		c0.3-1.1,0.4-2.2,0.1-3.4c-0.3-1.2-0.8-2.2-1.5-3c-0.8-0.8-1.7-1.4-2.8-1.7c-1.1-0.3-2.3-0.3-3.5,0s-2.3,0.8-3.2,1.6
		c-0.9,0.8-1.5,1.7-1.8,2.8c-0.3,1.1-0.4,2.2-0.1,3.4c0.3,1.2,0.8,2.2,1.6,3s1.7,1.4,2.8,1.7c1.1,0.3,2.2,0.3,3.5,0
		C193.8,62.5,194.8,62,195.6,61.2z"/>
	<path class="st1" d="M219.6,41.7c1,6,2,12,3,18c-0.9,0.2-1.9,0.3-2.8,0.5c-4-3.5-8.2-6.9-12.4-10.3c0.8,4,1.6,8.1,2.3,12.1
		c-1.1,0.2-2.2,0.4-3.3,0.7c-1.2-5.9-2.4-11.9-3.6-17.8c1-0.2,1.9-0.4,2.9-0.6c4.2,3.4,8.4,6.8,12.5,10.2c-0.7-4-1.4-8.1-2.1-12.1
		C217.3,42,218.5,41.8,219.6,41.7z"/>
	<path class="st1" d="M238.8,47.8c1.1-0.1,2.2-0.3,3.3-0.4c0.3,2.4,0.6,4.8,0.9,7.2c-0.9,0.9-1.9,1.6-3.1,2.1
		c-1.2,0.6-2.5,0.9-3.8,1.1c-1.9,0.3-3.6,0.1-5.2-0.5s-3-1.5-4-2.8c-1.1-1.3-1.8-2.8-2-4.5c-0.3-1.8-0.1-3.4,0.6-5
		c0.7-1.5,1.7-2.8,3.1-3.9c1.4-1,3.1-1.7,5.1-1.9c1.6-0.2,3.1-0.2,4.4,0.2c1.4,0.3,2.5,0.9,3.5,1.8c-0.7,0.8-1.3,1.6-1.9,2.3
		c-1.6-1.2-3.4-1.7-5.5-1.4c-1.3,0.2-2.5,0.6-3.4,1.3c-1,0.7-1.6,1.5-2.1,2.6c-0.4,1-0.6,2.2-0.4,3.4c0.2,1.2,0.6,2.2,1.3,3.1
		c0.7,0.9,1.6,1.5,2.7,1.9s2.3,0.5,3.5,0.3c1.4-0.2,2.7-0.7,3.7-1.4C239.2,51.6,239,49.7,238.8,47.8z"/>
	<path class="st1" d="M259.6,54.9c-1.4-1.7-2.8-3.3-4.3-5c-0.2,0-0.4,0.1-0.7,0.1c-1.4,0.1-2.8,0.3-4.2,0.4c0.2,1.8,0.4,3.5,0.6,5.3
		c-1.1,0.1-2.3,0.2-3.4,0.4c-0.7-6-1.4-12.1-2.1-18.1c2.6-0.3,5.2-0.6,7.8-0.8c1.6-0.2,3.1,0,4.4,0.4c1.3,0.4,2.3,1.1,3,2
		c0.7,0.9,1.1,2,1.3,3.4c0.1,1.4-0.1,2.6-0.7,3.6s-1.5,1.9-2.7,2.5c1.6,1.9,3.2,3.7,4.8,5.6C262.1,54.7,260.8,54.8,259.6,54.9z
		 M257.1,40.7c-0.8-0.5-2-0.8-3.6-0.6c-1.4,0.1-2.7,0.3-4.1,0.4c0.3,2.4,0.5,4.8,0.8,7.2c1.3-0.1,2.7-0.3,4-0.4
		c1.5-0.1,2.6-0.6,3.3-1.3c0.7-0.7,1-1.6,0.9-2.8C258.4,42.1,257.9,41.2,257.1,40.7z"/>
	<path class="st1" d="M278.5,49.4c-3.1,0.2-6.2,0.3-9.3,0.6c-0.5,1.4-1,2.9-1.5,4.3c-1.2,0.1-2.3,0.2-3.5,0.3
		c2.3-6.3,4.6-12.5,7.1-18.8c1.2-0.1,2.3-0.1,3.5-0.2c3.2,5.9,6.3,11.8,9.3,17.8c-1.2,0-2.4,0.1-3.6,0.2
		C279.9,52.1,279.2,50.7,278.5,49.4z M277.2,46.8c-1.3-2.6-2.6-5.2-4-7.7c-1,2.7-2,5.4-3,8.2C272.5,47,274.9,46.9,277.2,46.8z"/>
	<path class="st1" d="M288.8,37.8c-2.1,0.1-4.2,0.1-6.3,0.2c0-1-0.1-1.9-0.1-2.9c5.4-0.2,10.8-0.4,16.2-0.4c0,1,0,1.9,0,2.9
		c-2.1,0-4.2,0.1-6.3,0.1c0.1,5.1,0.2,10.2,0.3,15.3c-1.1,0-2.3,0.1-3.4,0.1C289.1,48,288.9,42.9,288.8,37.8z"/>
	<path class="st1" d="M303,51.1c-1.4-1.4-2.2-3.4-2.2-6.1c0-3.4,0-6.8-0.1-10.3c1.2,0,2.4,0,3.5,0c0,3.4,0,6.8,0,10.1
		c0,3.6,1.6,5.4,4.7,5.4s4.7-1.7,4.8-5.3c0.1-3.4,0.1-6.8,0.2-10.1c1.2,0,2.3,0,3.5,0.1c-0.1,3.4-0.2,6.8-0.3,10.3
		c-0.1,2.6-0.8,4.6-2.3,6c-1.4,1.4-3.4,2-6,2C306.4,53.2,304.4,52.5,303,51.1z"/>
	<path class="st1" d="M322.4,35.1c1.2,0,2.4,0.1,3.5,0.1c-0.2,5.1-0.4,10.2-0.7,15.3c3.2,0.1,6.4,0.3,9.7,0.5
		c-0.1,1-0.1,1.9-0.2,2.9c-4.3-0.3-8.7-0.5-13-0.6C321.9,47.2,322.2,41.1,322.4,35.1z"/>
	<path class="st1" d="M349.9,50.8c-3.1-0.3-6.2-0.5-9.3-0.8c-0.7,1.4-1.4,2.7-2.1,4.1c-1.2-0.1-2.3-0.2-3.5-0.2
		c3.1-5.9,6.4-11.7,9.7-17.6c1.2,0.1,2.3,0.2,3.5,0.3c2.3,6.3,4.6,12.6,6.7,18.9c-1.2-0.1-2.4-0.2-3.6-0.4
		C350.8,53.7,350.4,52.3,349.9,50.8z M349,48.1c-0.9-2.7-1.9-5.5-2.8-8.2c-1.4,2.5-2.8,5.1-4.1,7.7C344.3,47.7,346.6,47.9,349,48.1z
		"/>
	<path class="st1" d="M361.7,40.9c-2.1-0.2-4.2-0.5-6.3-0.7c0.1-0.9,0.2-1.9,0.3-2.8c5.4,0.5,10.7,1.2,16.1,1.9
		c-0.1,0.9-0.3,1.9-0.4,2.8c-2.1-0.3-4.2-0.5-6.2-0.8c-0.6,5.1-1.2,10.2-1.8,15.2c-1.1-0.1-2.3-0.3-3.4-0.4
		C360.6,51,361.2,46,361.7,40.9z"/>
	<path class="st1" d="M374.5,39.6c1.2,0.2,2.3,0.3,3.5,0.5c-0.9,6-1.7,12-2.6,18c-1.1-0.2-2.3-0.3-3.4-0.5
		C372.8,51.6,373.7,45.6,374.5,39.6z"/>
	<path class="st1" d="M384,58.5c-1.4-1-2.4-2.3-3-3.9c-0.6-1.5-0.8-3.2-0.6-4.9c0.3-1.7,0.9-3.3,2-4.5c1.1-1.3,2.5-2.2,4.2-2.7
		c1.7-0.5,3.5-0.7,5.4-0.3c1.9,0.3,3.6,1,5,2.1c1.4,1.1,2.4,2.4,3,4s0.7,3.2,0.4,5c-0.3,1.8-1.1,3.2-2.2,4.5
		c-1.1,1.2-2.5,2.1-4.1,2.6s-3.4,0.6-5.2,0.3C386.9,60.2,385.3,59.5,384,58.5z M392.7,57.4c1.1-0.4,2-1,2.7-1.8
		c0.7-0.9,1.2-1.9,1.4-3.1c0.2-1.2,0.1-2.3-0.2-3.4c-0.4-1.1-1-2-1.9-2.7s-2-1.2-3.2-1.4c-1.3-0.2-2.4-0.1-3.5,0.2
		c-1.1,0.4-2,1-2.7,1.9s-1.2,1.9-1.4,3.1s-0.1,2.3,0.3,3.4c0.4,1.1,1.1,1.9,1.9,2.6c0.9,0.7,1.9,1.2,3.2,1.4
		C390.5,57.8,391.7,57.7,392.7,57.4z"/>
	<path class="st1" d="M422.4,48.6c-1.4,5.9-2.8,11.8-4.2,17.7c-0.9-0.2-1.8-0.4-2.8-0.6c-2.4-4.8-4.9-9.5-7.4-14.3
		c-0.8,4-1.7,8-2.5,12.1c-1.1-0.2-2.2-0.5-3.3-0.7c1.2-5.9,2.4-11.9,3.6-17.8c1,0.2,1.9,0.4,2.9,0.6c2.6,4.7,5.1,9.5,7.6,14.3
		c0.9-4,1.8-8,2.8-12C420.1,48,421.3,48.3,422.4,48.6z"/>
	<path class="st1" d="M424.7,67.5c-1.2-0.7-2.1-1.5-2.7-2.3c0.6-0.8,1.2-1.5,1.8-2.3c0.6,0.8,1.4,1.4,2.4,2.1c1,0.6,2,1.1,3.1,1.4
		c1.3,0.3,2.4,0.4,3.2,0.2c0.8-0.2,1.3-0.7,1.4-1.4c0.1-0.5,0.1-1-0.2-1.4c-0.3-0.4-0.7-0.8-1.2-1.1c-0.5-0.3-1.2-0.7-2.2-1.2
		c-1.3-0.7-2.4-1.3-3.1-1.8c-0.8-0.5-1.4-1.2-1.9-2.1c-0.5-0.8-0.5-1.8-0.3-3c0.2-1,0.7-1.8,1.5-2.5s1.8-1.1,3-1.3
		c1.2-0.2,2.7-0.1,4.3,0.4c1.1,0.3,2.2,0.7,3.2,1.3c1,0.6,1.9,1.2,2.5,1.9c-0.6,0.7-1.2,1.5-1.8,2.2c-0.7-0.7-1.4-1.2-2.3-1.7
		c-0.8-0.5-1.6-0.8-2.5-1c-1.4-0.4-2.4-0.4-3.2-0.1c-0.8,0.3-1.2,0.8-1.4,1.5c-0.1,0.5,0,1,0.3,1.4s0.7,0.8,1.2,1.1
		c0.5,0.3,1.3,0.7,2.2,1.2c1.3,0.7,2.3,1.3,3.1,1.8c0.8,0.6,1.4,1.3,1.8,2.1c0.4,0.8,0.5,1.8,0.2,3c-0.3,1-0.8,1.8-1.5,2.4
		c-0.8,0.6-1.7,1-3,1.2c-1.2,0.2-2.6,0.1-4.2-0.4C427.2,68.8,425.9,68.2,424.7,67.5z"/>
	<path class="st1" d="M439,71.3c-0.3-0.5-0.4-1-0.2-1.6c0.2-0.6,0.5-1,1-1.2c0.5-0.3,1-0.3,1.6-0.1c0.6,0.2,1,0.5,1.3,1
		s0.3,1,0.2,1.5c-0.2,0.5-0.5,1-1,1.2c-0.5,0.3-1,0.3-1.6,0.1C439.7,72.1,439.3,71.7,439,71.3z M443.4,54c1.3,0.4,2.6,0.7,3.9,1.1
		c-1.4,3.8-2.7,7.7-4,11.5c-0.9-0.2-1.7-0.5-2.6-0.7C441.6,61.9,442.5,58,443.4,54z"/>
</g>
<g>
	<path class="st2" d="M167.6,68.4c-1.7-0.4-3.1-1.1-4.3-2.2s-2.1-2.5-2.6-4.3c-0.5-1.7-0.5-3.4-0.1-5c0.5-1.6,1.3-3,2.6-4.2
		s2.9-2.1,4.8-2.6c1.5-0.4,3-0.5,4.4-0.3c1.4,0.2,2.6,0.6,3.7,1.4c-0.6,0.9-1.1,1.7-1.7,2.6c-1.7-1-3.5-1.3-5.5-0.8
		c-1.3,0.3-2.3,0.9-3.2,1.7c-0.9,0.8-1.4,1.8-1.7,2.8c-0.3,1.1-0.3,2.2,0.1,3.4c0.3,1.2,0.9,2.2,1.7,2.9c0.8,0.8,1.8,1.3,2.9,1.6
		c1.1,0.3,2.3,0.2,3.5-0.1c1.9-0.5,3.3-1.6,4.3-3.4c0.9,0.5,1.8,1,2.7,1.5c-0.6,1.2-1.4,2.2-2.5,3c-1.1,0.8-2.4,1.4-3.8,1.8
		C171,68.7,169.3,68.8,167.6,68.4z"/>
	<path class="st2" d="M186,63.6c-1.7-0.4-3.1-1.2-4.3-2.4c-1.2-1.2-2-2.6-2.4-4.3c-0.4-1.7-0.4-3.4,0.1-5s1.4-3,2.8-4.1
		c1.3-1.1,3-1.9,4.9-2.4c1.9-0.4,3.7-0.4,5.4,0c1.7,0.5,3.1,1.3,4.3,2.5s1.9,2.7,2.3,4.4c0.4,1.7,0.3,3.4-0.3,5
		c-0.6,1.6-1.5,2.9-2.8,4s-2.9,1.9-4.7,2.3C189.4,64.1,187.6,64.1,186,63.6z M193.6,59.2c0.9-0.7,1.5-1.7,1.8-2.7
		c0.3-1.1,0.4-2.2,0.1-3.4c-0.3-1.2-0.8-2.2-1.5-3c-0.8-0.8-1.7-1.4-2.8-1.7c-1.1-0.3-2.3-0.3-3.5,0s-2.3,0.8-3.2,1.6
		c-0.9,0.8-1.5,1.7-1.8,2.8c-0.3,1.1-0.4,2.2-0.1,3.4c0.3,1.2,0.8,2.2,1.6,3s1.7,1.4,2.8,1.7c1.1,0.3,2.2,0.3,3.5,0
		C191.8,60.5,192.8,60,193.6,59.2z"/>
	<path class="st2" d="M217.6,39.7c1,6,2,12,3,18c-0.9,0.2-1.9,0.3-2.8,0.5c-4-3.5-8.2-6.9-12.4-10.3c0.8,4,1.6,8.1,2.3,12.1
		c-1.1,0.2-2.2,0.4-3.3,0.7c-1.2-5.9-2.4-11.9-3.6-17.8c1-0.2,1.9-0.4,2.9-0.6c4.2,3.4,8.4,6.8,12.5,10.2c-0.7-4-1.4-8.1-2.1-12.1
		C215.3,40,216.5,39.8,217.6,39.7z"/>
	<path class="st2" d="M236.8,45.8c1.1-0.1,2.2-0.3,3.3-0.4c0.3,2.4,0.6,4.8,0.9,7.2c-0.9,0.9-1.9,1.6-3.1,2.1
		c-1.2,0.6-2.5,0.9-3.8,1.1c-1.9,0.3-3.6,0.1-5.2-0.5s-3-1.5-4-2.8c-1.1-1.3-1.8-2.8-2-4.5c-0.3-1.8-0.1-3.4,0.6-5
		c0.7-1.5,1.7-2.8,3.1-3.9c1.4-1,3.1-1.7,5.1-1.9c1.6-0.2,3.1-0.2,4.4,0.2c1.4,0.3,2.5,0.9,3.5,1.8c-0.7,0.8-1.3,1.6-1.9,2.3
		c-1.6-1.2-3.4-1.7-5.5-1.4c-1.3,0.2-2.5,0.6-3.4,1.3c-1,0.7-1.6,1.5-2.1,2.6c-0.4,1-0.6,2.2-0.4,3.4c0.2,1.2,0.6,2.2,1.3,3.1
		c0.7,0.9,1.6,1.5,2.7,1.9s2.3,0.5,3.5,0.3c1.4-0.2,2.7-0.7,3.7-1.4C237.2,49.6,237,47.7,236.8,45.8z"/>
	<path class="st2" d="M257.6,52.9c-1.4-1.7-2.8-3.3-4.3-5c-0.2,0-0.4,0.1-0.7,0.1c-1.4,0.1-2.8,0.3-4.2,0.4c0.2,1.8,0.4,3.5,0.6,5.3
		c-1.1,0.1-2.3,0.2-3.4,0.4c-0.7-6-1.4-12.1-2.1-18.1c2.6-0.3,5.2-0.6,7.8-0.8c1.6-0.2,3.1,0,4.4,0.4c1.3,0.4,2.3,1.1,3,2
		c0.7,0.9,1.1,2,1.3,3.4c0.1,1.4-0.1,2.6-0.7,3.6s-1.5,1.9-2.7,2.5c1.6,1.9,3.2,3.7,4.8,5.6C260.1,52.7,258.8,52.8,257.6,52.9z
		 M255.1,38.7c-0.8-0.5-2-0.8-3.6-0.6c-1.4,0.1-2.7,0.3-4.1,0.4c0.3,2.4,0.5,4.8,0.8,7.2c1.3-0.1,2.7-0.3,4-0.4
		c1.5-0.1,2.6-0.6,3.3-1.3c0.7-0.7,1-1.6,0.9-2.8C256.4,40.1,255.9,39.2,255.1,38.7z"/>
	<path class="st2" d="M276.5,47.4c-3.1,0.2-6.2,0.3-9.3,0.6c-0.5,1.4-1,2.9-1.5,4.3c-1.2,0.1-2.3,0.2-3.5,0.3
		c2.3-6.3,4.6-12.5,7.1-18.8c1.2-0.1,2.3-0.1,3.5-0.2c3.2,5.9,6.3,11.8,9.3,17.8c-1.2,0-2.4,0.1-3.6,0.2
		C277.9,50.1,277.2,48.7,276.5,47.4z M275.2,44.8c-1.3-2.6-2.6-5.2-4-7.7c-1,2.7-2,5.4-3,8.2C270.5,45,272.9,44.9,275.2,44.8z"/>
	<path class="st2" d="M286.8,35.8c-2.1,0.1-4.2,0.1-6.3,0.2c0-1-0.1-1.9-0.1-2.9c5.4-0.2,10.8-0.4,16.2-0.4c0,1,0,1.9,0,2.9
		c-2.1,0-4.2,0.1-6.3,0.1c0.1,5.1,0.2,10.2,0.3,15.3c-1.1,0-2.3,0.1-3.4,0.1C287.1,46,286.9,40.9,286.8,35.8z"/>
	<path class="st2" d="M301,49.1c-1.4-1.4-2.2-3.4-2.2-6.1c0-3.4,0-6.8-0.1-10.3c1.2,0,2.4,0,3.5,0c0,3.4,0,6.8,0,10.1
		c0,3.6,1.6,5.4,4.7,5.4s4.7-1.7,4.8-5.3c0.1-3.4,0.1-6.8,0.2-10.1c1.2,0,2.3,0,3.5,0.1c-0.1,3.4-0.2,6.8-0.3,10.3
		c-0.1,2.6-0.8,4.6-2.3,6c-1.4,1.4-3.4,2-6,2C304.4,51.2,302.4,50.5,301,49.1z"/>
	<path class="st2" d="M320.4,33.1c1.2,0,2.4,0.1,3.5,0.1c-0.2,5.1-0.4,10.2-0.7,15.3c3.2,0.1,6.4,0.3,9.7,0.5
		c-0.1,1-0.1,1.9-0.2,2.9c-4.3-0.3-8.7-0.5-13-0.6C319.9,45.2,320.2,39.1,320.4,33.1z"/>
	<path class="st2" d="M347.9,48.8c-3.1-0.3-6.2-0.5-9.3-0.8c-0.7,1.4-1.4,2.7-2.1,4.1c-1.2-0.1-2.3-0.2-3.5-0.2
		c3.1-5.9,6.4-11.7,9.7-17.6c1.2,0.1,2.3,0.2,3.5,0.3c2.3,6.3,4.6,12.6,6.7,18.9c-1.2-0.1-2.4-0.2-3.6-0.4
		C348.8,51.7,348.4,50.3,347.9,48.8z M347,46.1c-0.9-2.7-1.9-5.5-2.8-8.2c-1.4,2.5-2.8,5.1-4.1,7.7C342.3,45.7,344.6,45.9,347,46.1z
		"/>
	<path class="st2" d="M359.7,38.9c-2.1-0.2-4.2-0.5-6.3-0.7c0.1-0.9,0.2-1.9,0.3-2.8c5.4,0.5,10.7,1.2,16.1,1.9
		c-0.1,0.9-0.3,1.9-0.4,2.8c-2.1-0.3-4.2-0.5-6.2-0.8c-0.6,5.1-1.2,10.2-1.8,15.2c-1.1-0.1-2.3-0.3-3.4-0.4
		C358.6,49,359.2,44,359.7,38.9z"/>
	<path class="st2" d="M372.5,37.6c1.2,0.2,2.3,0.3,3.5,0.5c-0.9,6-1.7,12-2.6,18c-1.1-0.2-2.3-0.3-3.4-0.5
		C370.8,49.6,371.7,43.6,372.5,37.6z"/>
	<path class="st2" d="M382,56.5c-1.4-1-2.4-2.3-3-3.9c-0.6-1.5-0.8-3.2-0.6-4.9c0.3-1.7,0.9-3.3,2-4.5c1.1-1.3,2.5-2.2,4.2-2.7
		c1.7-0.5,3.5-0.7,5.4-0.3c1.9,0.3,3.6,1,5,2.1c1.4,1.1,2.4,2.4,3,4s0.7,3.2,0.4,5c-0.3,1.8-1.1,3.2-2.2,4.5
		c-1.1,1.2-2.5,2.1-4.1,2.6s-3.4,0.6-5.2,0.3C384.9,58.2,383.3,57.5,382,56.5z M390.7,55.4c1.1-0.4,2-1,2.7-1.8
		c0.7-0.9,1.2-1.9,1.4-3.1s0.1-2.3-0.2-3.4c-0.4-1.1-1-2-1.9-2.7c-0.9-0.7-2-1.2-3.2-1.4c-1.3-0.2-2.4-0.1-3.5,0.2
		c-1.1,0.4-2,1-2.7,1.9c-0.7,0.9-1.2,1.9-1.4,3.1c-0.2,1.2-0.1,2.3,0.3,3.4c0.4,1.1,1.1,1.9,1.9,2.6c0.9,0.7,1.9,1.2,3.2,1.4
		C388.5,55.8,389.7,55.7,390.7,55.4z"/>
	<path class="st2" d="M420.4,46.6c-1.4,5.9-2.8,11.8-4.2,17.7c-0.9-0.2-1.8-0.4-2.8-0.6c-2.4-4.8-4.9-9.5-7.4-14.3
		c-0.8,4-1.7,8-2.5,12.1c-1.1-0.2-2.2-0.5-3.3-0.7c1.2-5.9,2.4-11.9,3.6-17.8c1,0.2,1.9,0.4,2.9,0.6c2.6,4.7,5.1,9.5,7.6,14.3
		c0.9-4,1.8-8,2.8-12C418.1,46,419.3,46.3,420.4,46.6z"/>
	<path class="st2" d="M422.7,65.5c-1.2-0.7-2.1-1.5-2.7-2.3c0.6-0.8,1.2-1.5,1.8-2.3c0.6,0.8,1.4,1.4,2.4,2.1c1,0.6,2,1.1,3.1,1.4
		c1.3,0.3,2.4,0.4,3.2,0.2c0.8-0.2,1.3-0.7,1.4-1.4c0.1-0.5,0.1-1-0.2-1.4c-0.3-0.4-0.7-0.8-1.2-1.1c-0.5-0.3-1.2-0.7-2.2-1.2
		c-1.3-0.7-2.4-1.3-3.1-1.8c-0.8-0.5-1.4-1.2-1.9-2.1c-0.5-0.8-0.5-1.8-0.3-3c0.2-1,0.7-1.8,1.5-2.5s1.8-1.1,3-1.3
		c1.2-0.2,2.7-0.1,4.3,0.4c1.1,0.3,2.2,0.7,3.2,1.3c1,0.6,1.9,1.2,2.5,1.9c-0.6,0.7-1.2,1.5-1.8,2.2c-0.7-0.7-1.4-1.2-2.3-1.7
		c-0.8-0.5-1.6-0.8-2.5-1c-1.4-0.4-2.4-0.4-3.2-0.1c-0.8,0.3-1.2,0.8-1.4,1.5c-0.1,0.5,0,1,0.3,1.4s0.7,0.8,1.2,1.1
		c0.5,0.3,1.3,0.7,2.2,1.2c1.3,0.7,2.3,1.3,3.1,1.8c0.8,0.6,1.4,1.3,1.8,2.1c0.4,0.8,0.5,1.8,0.2,3c-0.3,1-0.8,1.8-1.5,2.4
		c-0.8,0.6-1.7,1-3,1.2c-1.2,0.2-2.6,0.1-4.2-0.4C425.2,66.8,423.9,66.2,422.7,65.5z"/>
	<path class="st2" d="M437,69.3c-0.3-0.5-0.4-1-0.2-1.6c0.2-0.6,0.5-1,1-1.2c0.5-0.3,1-0.3,1.6-0.1c0.6,0.2,1,0.5,1.3,1
		s0.3,1,0.2,1.5c-0.2,0.5-0.5,1-1,1.2c-0.5,0.3-1,0.3-1.6,0.1C437.7,70.1,437.3,69.7,437,69.3z M441.4,52c1.3,0.4,2.6,0.7,3.9,1.1
		c-1.4,3.8-2.7,7.7-4,11.5c-0.9-0.2-1.7-0.5-2.6-0.7C439.6,59.9,440.5,56,441.4,52z"/>
</g>
<g>
	<circle class="st3" cx="301.3" cy="-100.4" r="104.7"/>
	<path class="st4" d="M334.4-135.4c0,24-14.6,43.5-32.5,43.5s-32.5-19.5-32.5-43.5L334.4-135.4L334.4-135.4z"/>
	<path class="st4" d="M309.8-67.1h-15.9l0,0c3.3-11.3,3.3-23.3,0-34.6l0,0h15.9l0,0C306.5-90.4,306.5-78.4,309.8-67.1L309.8-67.1z"
		/>
	<polygon class="st5" points="323.3,-58.9 280.8,-58.9 288.8,-67.1 315.3,-67.1 	"/>
	<rect x="276.5" y="-58.9" class="st6" width="51.5" height="31.2"/>
	<path class="st7" d="M272.2-129.9c0,0-6.2-11.7-14.8-6.4c-10,6.2-4.5,19.7,12.2,25.7c1.9,0.7,3.7,1.9,4.9,3.6
		c1.8,2.5,2.5,6.2-4.8,8.7"/>
	<path class="st7" d="M330.5-129.9c0,0,7-11.7,15.6-6.4c10,6.2,4.5,19.7-12.2,25.7c-1.9,0.7-3.7,1.9-4.9,3.6
		c-1.8,2.5-2.5,6.2,4.8,8.7"/>
	<path class="st5" d="M331.5-134.8h-59.2c-1.6,0-2.9-1.3-2.9-2.9v-13c0-1.6,1.3-2.9,2.9-2.9h59.2c1.6,0,2.9,1.3,2.9,2.9v13
		C334.4-136.1,333.1-134.8,331.5-134.8z"/>
	<path class="st8" d="M302.9-130.6l3.3,6.7c0.2,0.3,0.5,0.6,0.8,0.6l7.4,1.1c0.9,0.1,1.3,1.3,0.6,1.9l-5.3,5.2
		c-0.3,0.3-0.4,0.6-0.3,1l1.3,7.4c0.2,0.9-0.8,1.6-1.6,1.2l-6.6-3.5c-0.3-0.2-0.7-0.2-1,0l-6.6,3.5c-0.8,0.4-1.8-0.3-1.6-1.2
		l1.3-7.4c0.1-0.4-0.1-0.7-0.3-1l-5.3-5.2c-0.7-0.6-0.3-1.8,0.6-1.9l7.4-1.1c0.4-0.1,0.7-0.3,0.8-0.6l3.3-6.7
		C301.3-131.4,302.5-131.4,302.9-130.6z"/>
</g>
<rect x="140" y="-361.7" class="st9" width="320" height="640"/>
<rect x="140" y="-362.4" class="st9" width="320" height="640"/>
<g id="Antarctica_Background">
</g>
<g id="Beaver">
</g>
<g id="Crocdile">
</g>
<g id="Walrus">
</g>
<g id="Polar_Bear">
</g>
<g id="North_Pole_Background">
</g>
<g id="Seal">
</g>
<g id="Orca">
</g>
<g id="Dolphin">
</g>
<g id="Squid">
</g>
<g id="Manatee">
</g>
<g id="Blue_Whale">
</g>
<g id="Coconut_Crab">
</g>
<g id="Penguin">
</g>
<g id="Jellyfish">
</g>
<g id="Narwhal">
</g>
<g id="Beluga">
</g>
<text transform="matrix(1 0 0 1 241.0629 105.8644)"><tspan x="0" y="0" class="st2 st10 st11">You’re a </tspan><tspan x="-43.7" y="33.5" class="st2 st10 st11">marine expert!</tspan></text>
</svg>
