<?xml version="1.0" encoding="utf-8"?>
<!-- Generator: Adobe Illustrator 23.0.2, SVG Export Plug-In . SVG Version: 6.00 Build 0)  -->
<svg version="1.1" id="Layer_1" xmlns="http://www.w3.org/2000/svg" xmlns:xlink="http://www.w3.org/1999/xlink" x="0px" y="0px"
	 viewBox="0 0 100 61.6" style="enable-background:new 0 0 100 61.6;" xml:space="preserve">
<style type="text/css">
	.st0{fill:#FFFFFF;}
</style>
<title>Asset 1</title>
<path class="st0" d="M8.3,0h83.4c4.6,0,8.3,3,8.3,6.6l0,0c0,3.7-3.7,6.6-8.3,6.6H8.3c-4.6,0-8.3-3-8.3-6.6l0,0C0,3,3.7,0,8.3,0z"/>
<path class="st0" d="M8.3,48.4h83.4c4.6,0,8.3,3,8.3,6.6l0,0c0,3.7-3.7,6.6-8.3,6.6H8.3c-4.6,0-8.3-3-8.3-6.6l0,0
	C0,51.3,3.7,48.4,8.3,48.4z"/>
<path class="st0" d="M8.3,24.2h83.4c4.6,0,8.3,3,8.3,6.6l0,0c0,3.7-3.7,6.6-8.3,6.6H8.3c-4.6,0-8.3-3-8.3-6.6l0,0
	C0,27.2,3.7,24.2,8.3,24.2z"/>
</svg>
