<svg xmlns="http://www.w3.org/2000/svg" xmlns:xlink="http://www.w3.org/1999/xlink" viewBox="0 0 323.57 642"><defs><style>.cls-1{fill:url(#linear-gradient);}.cls-2{fill:#ffaf2e;}.cls-3{fill:#ffe252;}.cls-4{fill:#0085a6;opacity:0.84;}.cls-5{opacity:0.46;fill:url(#linear-gradient-2);}.cls-6{fill:url(#linear-gradient-3);}.cls-7{fill:url(#linear-gradient-4);}.cls-8{fill:url(#linear-gradient-5);}.cls-9{fill:url(#linear-gradient-6);}</style><linearGradient id="linear-gradient" x1="164.43" y1="-12.69" x2="158.41" y2="371.09" gradientUnits="userSpaceOnUse"><stop offset="0" stop-color="#27cdd6"/><stop offset="0.13" stop-color="#3acfc9" stop-opacity="0.97"/><stop offset="0.39" stop-color="#6ad2a6" stop-opacity="0.9"/><stop offset="0.73" stop-color="#b8d96e" stop-opacity="0.79"/><stop offset="1" stop-color="#f9de3f" stop-opacity="0.7"/></linearGradient><linearGradient id="linear-gradient-2" x1="224.27" y1="39.76" x2="213.67" y2="182.92" gradientUnits="userSpaceOnUse"><stop offset="0" stop-color="#ffde3b"/><stop offset="0.4" stop-color="#ffe772"/><stop offset="1" stop-color="#fff5c5"/></linearGradient><linearGradient id="linear-gradient-3" x1="29.9" y1="305.46" x2="34.8" y2="669.44" gradientUnits="userSpaceOnUse"><stop offset="0" stop-color="#fff" stop-opacity="0.5"/><stop offset="1" stop-color="#fff" stop-opacity="0"/></linearGradient><linearGradient id="linear-gradient-4" x1="103.34" y1="305.32" x2="108.24" y2="669.81" xlink:href="#linear-gradient-3"/><linearGradient id="linear-gradient-5" x1="250.46" y1="305.41" x2="255.36" y2="669.62" xlink:href="#linear-gradient-3"/><linearGradient id="linear-gradient-6" x1="177.2" y1="305.2" x2="182.12" y2="670.65" xlink:href="#linear-gradient-3"/></defs><title>Asset 3</title><g id="Layer_2" data-name="Layer 2"><g id="Layer_1-2" data-name="Layer 1"><rect class="cls-1" width="323.04" height="345.24"/><path class="cls-2" d="M323,288.7c-28.57-5.8-55.59-12.06-59.87-15.13-8.76-6.28-76.49-21.58-183.25,27.6,0,0-58.83,26.23-37.52,31.15s100,31.15,138.56,39.35c34.52,7.34,95.93,5.47,142.08,1.47Z"/><path class="cls-3" d="M323,316c-2.18-.31,1.93-.56,0-.71-20.94-1.64-151.86-21.31-162.26-27.6-8.75-5.28-67-16.94-160.78,8.74v75.19c23.64,5.84,46.53,11.19,63.14,14.17,45.79,8.2,131.41,4.92,187.15,0,33.48-3,58.76-10.05,72.75-15.24Z"/><rect class="cls-4" y="329.49" width="323.04" height="312.51"/><circle class="cls-5" cx="219.28" cy="107.11" r="58.52"/><polygon class="cls-6" points="32.32 642 0 642 32.25 329.49 64.65 329.49 32.32 642"/><polygon class="cls-7" points="130.35 642 54.3 642 97.95 329.49 157.23 329.49 130.35 642"/><polygon class="cls-8" points="264.97 642 223.23 642 250.14 329.49 282.54 329.49 264.97 642"/><polygon class="cls-9" points="261.3 642 97.95 642 167.42 329.49 261.3 329.49 261.3 642"/></g></g></svg>