<svg xmlns="http://www.w3.org/2000/svg" viewBox="0 0 212.04 117.03"><defs><style>.cls-1{isolation:isolate;}.cls-2{opacity:0.6;mix-blend-mode:multiply;}.cls-3{fill:#333;}.cls-4{fill:#fff;}</style></defs><title>Asset 1</title><g class="cls-1"><g id="Layer_2" data-name="Layer 2"><g id="Layer_1-2" data-name="Layer 1"><g class="cls-2"><path class="cls-3" d="M78.37,23.6a13.34,13.34,0,0,0-4.25-2.85,13,13,0,0,0-5.2-1H60a4.37,4.37,0,0,1-3.15-1.29,4.42,4.42,0,0,1-1-1.43,4.66,4.66,0,0,1-.34-1.75,4.57,4.57,0,0,1,.34-1.74,4.44,4.44,0,0,1,1-1.41A4.37,4.37,0,0,1,60,10.8H80.44V1.89H60A12.7,12.7,0,0,0,54.83,3a13.56,13.56,0,0,0-7.11,7.1,13.26,13.26,0,0,0,0,10.39,13.5,13.5,0,0,0,7.11,7.12A12.87,12.87,0,0,0,60,28.62h8.91a4.39,4.39,0,0,1,1.74.34A4.44,4.44,0,0,1,73,31.32a4.36,4.36,0,0,1,.34,1.74A4.31,4.31,0,0,1,73,34.79a4.43,4.43,0,0,1-1,1.42,4.25,4.25,0,0,1-1.41.94,4.39,4.39,0,0,1-1.74.34H49.15V46.4H68.92a13,13,0,0,0,5.2-1,13.44,13.44,0,0,0,7.11-7.11,13.47,13.47,0,0,0,0-10.38A13.47,13.47,0,0,0,78.37,23.6Z"/><path class="cls-3" d="M108.76,35.65A8.3,8.3,0,0,1,107,37.2a8.79,8.79,0,0,1-2.16,1,8.57,8.57,0,0,1-2.39.34c-.33,0-.66,0-1-.05a5,5,0,0,1-1-.2l15.89-19.15a17.09,17.09,0,0,0-2.73-3,17.32,17.32,0,0,0-3.34-2.28,17.14,17.14,0,0,0-3.77-1.43,16.74,16.74,0,0,0-4.07-.5,17.08,17.08,0,0,0-6.59,1.28,16.31,16.31,0,0,0-9,9.12,18.89,18.89,0,0,0-1.34,7.21,18.23,18.23,0,0,0,1.34,7.06,16.91,16.91,0,0,0,3.65,5.54,16.76,16.76,0,0,0,12,4.93,17,17,0,0,0,4-.48,16.52,16.52,0,0,0,3.76-1.41,17,17,0,0,0,3.32-2.27,16.57,16.57,0,0,0,2.72-3l-6.21-6.24A8,8,0,0,1,108.76,35.65ZM94.9,33.89a4.45,4.45,0,0,1-.4-1c-.11-.37-.19-.76-.27-1.16s-.12-.81-.15-1.2,0-.74,0-1.05a10.22,10.22,0,0,1,.65-3.74,8.64,8.64,0,0,1,1.79-2.85,7.71,7.71,0,0,1,2.67-1.81,8.33,8.33,0,0,1,3.27-.64,11.47,11.47,0,0,1,1.2.06,5.59,5.59,0,0,1,1.16.28Z"/><path class="cls-3" d="M150.47,13.22l-3.3,3.94a23.21,23.21,0,0,0-2.52-2.08,19,19,0,0,0-2.85-1.67,16.13,16.13,0,0,0-3.07-1.12,12.82,12.82,0,0,0-3.2-.41,16.94,16.94,0,0,0-6.59,1.29,16.49,16.49,0,0,0-5.4,3.62C122,18.34,116,26.9,116,29.49c0,2.77,6,11.42,7.51,12.92a15.55,15.55,0,0,0,5.4,3.43A18.26,18.26,0,0,0,135.53,47a12.73,12.73,0,0,0,3.19-.4,17.94,17.94,0,0,0,3.05-1.1,18.27,18.27,0,0,0,2.84-1.65,26.85,26.85,0,0,0,2.56-2l3.3,4.56h6.65L152.5,29.78l4.62-16.56Zm-7.16,19.63a9.7,9.7,0,0,1-1.82,2.89,9,9,0,0,1-2.68,2,7.25,7.25,0,0,1-3.28.76,9.12,9.12,0,0,1-3.27-.59,7.44,7.44,0,0,1-2.67-1.74c-.76-.77-5-5.26-5-6.7s4.2-5.94,5-6.71A7.58,7.58,0,0,1,132.26,21a9.12,9.12,0,0,1,3.27-.59,7.38,7.38,0,0,1,3.28.76,9,9,0,0,1,2.68,2,9.7,9.7,0,0,1,1.82,2.89,8.79,8.79,0,0,1,0,6.73Z"/><path class="cls-3" d="M32.28,65a17.93,17.93,0,0,0-5.67-3.82,17.33,17.33,0,0,0-6.93-1.39,17.35,17.35,0,0,0-6.94,1.39A17.84,17.84,0,0,0,7.09,65a18.16,18.16,0,0,0-3.8,5.67,17.34,17.34,0,0,0-1.4,6.93v26.7h8.88V95.39H28.59v8.91h8.9V77.6a17.33,17.33,0,0,0-1.39-6.93A18,18,0,0,0,32.28,65ZM28.59,86.51H10.77V77.6a8.63,8.63,0,0,1,.7-3.46,8.91,8.91,0,0,1,4.75-4.75,9,9,0,0,1,6.92,0,8.91,8.91,0,0,1,4.75,4.75,8.8,8.8,0,0,1,.7,3.46Z"/><path class="cls-3" d="M82.89,74.17a12.71,12.71,0,0,0-4-2.71,12.3,12.3,0,0,0-5-1,13.19,13.19,0,0,0-2.33.21,10,10,0,0,0-4.38,1.87,8.89,8.89,0,0,0-1.77,1.8,9.27,9.27,0,0,0-3.89-3A12.38,12.38,0,0,0,57,70.46a12.18,12.18,0,0,0-4.43.83,13.62,13.62,0,0,0-3.89,2.31l-2.3-2.55h-2V104.3H52.8V83.19a4.37,4.37,0,0,1,.32-1.65,4.48,4.48,0,0,1,.9-1.36,4.22,4.22,0,0,1,6,0,4.26,4.26,0,0,1,1.24,3V104.3h8.48V83.19A4.18,4.18,0,0,1,70,81.54a4.48,4.48,0,0,1,.9-1.36,4.06,4.06,0,0,1,3-1.24,4.36,4.36,0,0,1,1.64.32,4.4,4.4,0,0,1,1.37.92,4.26,4.26,0,0,1,1.24,3V104.3H86.6V83.19a12.68,12.68,0,0,0-3.71-9Z"/><rect class="cls-3" x="92.78" y="71.05" width="8.54" height="33.25"/><path class="cls-3" d="M101.1,58a6.16,6.16,0,0,0-1.82-1.21,5.7,5.7,0,0,0-4.44,0A5.93,5.93,0,0,0,93,58a5.76,5.76,0,0,0-1.21,1.8,5.6,5.6,0,0,0,0,4.4,5.69,5.69,0,0,0,3,3,5.7,5.7,0,0,0,4.44,0A6,6,0,0,0,101.1,66a5.81,5.81,0,0,0,1.22-1.78,5.6,5.6,0,0,0,0-4.4A5.79,5.79,0,0,0,101.1,58Z"/><path class="cls-3" d="M134.62,75.06A23.12,23.12,0,0,0,132.09,73a19.81,19.81,0,0,0-2.84-1.68,17.12,17.12,0,0,0-3.07-1.12,13.36,13.36,0,0,0-3.2-.4,16.47,16.47,0,0,0-6.6,1.34,17,17,0,0,0-5.4,3.69,17.38,17.38,0,0,0-3.64,5.59,18.08,18.08,0,0,0-1.34,7,19.31,19.31,0,0,0,1.34,7.36,15.72,15.72,0,0,0,9,9,17.87,17.87,0,0,0,6.6,1.21q1,0,2.28-.12a14.92,14.92,0,0,0,2.36-.45,10.42,10.42,0,0,0,2.07-.84,3.78,3.78,0,0,0,1.42-1.32,12.56,12.56,0,0,1-.91,2.42,7.22,7.22,0,0,1-1.54,2,7,7,0,0,1-2.36,1.4,9.9,9.9,0,0,1-3.38.51l-4.19-.06V117L123,117a16.47,16.47,0,0,0,6.6-1.34,17.12,17.12,0,0,0,9-9,16.5,16.5,0,0,0,1.33-6.58v-29h-2.05Zm-3.86,15.69a9.83,9.83,0,0,1-1.82,2.89,9.11,9.11,0,0,1-2.68,2,7.28,7.28,0,0,1-3.28.76,8.5,8.5,0,0,1-3.27-.63A7.73,7.73,0,0,1,117,94a8.49,8.49,0,0,1-1.79-2.84,10.26,10.26,0,0,1-.65-3.74,10.77,10.77,0,0,1,.65-3.86A8.11,8.11,0,0,1,117,80.68a7.27,7.27,0,0,1,2.67-1.74,9.08,9.08,0,0,1,3.27-.59,7.28,7.28,0,0,1,3.28.76,9.15,9.15,0,0,1,2.68,2A9.65,9.65,0,0,1,130.76,84a8.93,8.93,0,0,1,0,6.74Z"/><path class="cls-3" d="M178.52,87.53a18.86,18.86,0,0,0-1.34-7.24,17.2,17.2,0,0,0-2.38-4.12l.18-.1a5.39,5.39,0,0,0,1.61-2c1-1.87.85-3.7-.25-4.26s-2.64.44-3.59,2.32a6,6,0,0,0-.51,1.41,16.72,16.72,0,0,0-4.05-2.38,16.89,16.89,0,0,0-3-.89,5.81,5.81,0,0,0,1.24-3.61c0-3-2.17-5.46-4.84-5.46s-4.85,2.45-4.85,5.46A5.77,5.77,0,0,0,158,70.3a16.59,16.59,0,0,0-3,1,17.06,17.06,0,0,0-4,2.44,6.36,6.36,0,0,0-.54-1.55c-.95-1.88-2.5-2.87-3.59-2.32s-1.21,2.39-.26,4.26a5.59,5.59,0,0,0,1.61,2c.09.06.18.09.27.14a18,18,0,0,0-2.51,4.29,18.41,18.41,0,0,0-1.33,7,18.1,18.1,0,0,0,1.33,6.94,17.8,17.8,0,0,0,2,3.53,5.76,5.76,0,0,0-1.34,1.75c-.95,1.88-.84,3.71.26,4.27a1.44,1.44,0,0,0,.65.15c1,0,2.16-.94,2.94-2.47a5.3,5.3,0,0,0,.28-.65,17.6,17.6,0,0,0,4.28,2.67,16.51,16.51,0,0,0,5.21,1.27l1.1,4.33c.11.43.52.44.64,0l1.16-4.34a16.13,16.13,0,0,0,5.08-1.26,17.32,17.32,0,0,0,4.29-2.68,6.31,6.31,0,0,0,.29.66c.77,1.53,1.94,2.47,2.94,2.47a1.44,1.44,0,0,0,.65-.15c1.1-.56,1.21-2.39.25-4.27A5.58,5.58,0,0,0,175.23,98a17.5,17.5,0,0,0,3.29-10.46Zm-11.18-2.25,2.86-1.91s0,0,0,.07a11.62,11.62,0,0,1,0,8.16s0,0,0,.05l-2.87-2.12Zm.88-5a9.51,9.51,0,0,1,1.06,1.36l-3,2-3.55-2,0-4a9.06,9.06,0,0,1,2.47.63A8.71,8.71,0,0,1,168.22,80.27ZM161.8,91.53l-3.58-2.07V85.32l3.58-2.06,3.58,2.06v4.14Zm-3.88-13.32a9.25,9.25,0,0,1,2.86-.66l0,4-3.66,2.11-3.66-1.4a9.41,9.41,0,0,1,1.43-2A8.89,8.89,0,0,1,157.92,78.21Zm-5,13.26a10.65,10.65,0,0,1-.72-3.94,11.45,11.45,0,0,1,.51-3.45l3.53,1.35v4.11l-3.09,2.39C153.1,91.77,153,91.63,152.94,91.47Zm2,3.17a9.27,9.27,0,0,1-.76-1l3.16-2.45,3.52,2,.14,4.28a8.56,8.56,0,0,1-3.08-.76A9.31,9.31,0,0,1,154.92,94.64Zm10.29,2.18a8.84,8.84,0,0,1-2.28.62l-.13-4.22,3.5-2,3,2.21a8.5,8.5,0,0,1-1.08,1.36A9,9,0,0,1,165.21,96.82Z"/><path class="cls-3" d="M211.2,89.74a9.55,9.55,0,0,0-2.27-3.13,10.43,10.43,0,0,0-3.35-2,11.6,11.6,0,0,0-4.1-.73h-8.81a2,2,0,0,1-1.49-.63,2.11,2.11,0,0,1-.62-1.54,2,2,0,0,1,.62-1.49,2,2,0,0,1,1.49-.62h17.16V71.12H192.67a10.36,10.36,0,0,0-4.13.82,10.61,10.61,0,0,0-3.35,2.25,10.29,10.29,0,0,0-2.25,3.35,10.69,10.69,0,0,0,0,8.26,10.6,10.6,0,0,0,5.6,5.65,10.2,10.2,0,0,0,4.13.84h8.81a3.71,3.71,0,0,1,1.49.27,1.16,1.16,0,0,1,.62,1.19,2.13,2.13,0,0,1-2.11,2.11H182.11v8.44h19.37a10.4,10.4,0,0,0,7.45-3.09,11.08,11.08,0,0,0,2.27-3.35,10.14,10.14,0,0,0,.84-4.11A9.51,9.51,0,0,0,211.2,89.74Z"/><circle class="cls-3" cx="131.82" cy="29.51" r="3.31" transform="translate(46.29 134.07) rotate(-63.33)"/></g><path class="cls-4" d="M76.48,21.71a13.34,13.34,0,0,0-4.25-2.85,13,13,0,0,0-5.2-1H58.12A4.37,4.37,0,0,1,55,16.53,4.42,4.42,0,0,1,54,15.1a4.66,4.66,0,0,1-.34-1.75A4.57,4.57,0,0,1,54,11.61,4.44,4.44,0,0,1,55,10.2a4.37,4.37,0,0,1,3.15-1.29H78.55V0H58.12a12.86,12.86,0,0,0-5.18,1.05,13.62,13.62,0,0,0-7.11,7.11,13.26,13.26,0,0,0,0,10.39,13.5,13.5,0,0,0,7.11,7.12,12.87,12.87,0,0,0,5.18,1.06H67A4.42,4.42,0,0,1,70.18,28a4.6,4.6,0,0,1,.95,1.42,4.36,4.36,0,0,1,.34,1.74,4.31,4.31,0,0,1-.34,1.73,4.6,4.6,0,0,1-.95,1.42A4.42,4.42,0,0,1,67,35.6H47.26v8.91H67a13,13,0,0,0,5.2-1,13.44,13.44,0,0,0,7.11-7.11,13.47,13.47,0,0,0,0-10.38A13.47,13.47,0,0,0,76.48,21.71Z"/><path class="cls-4" d="M106.87,33.76a8.3,8.3,0,0,1-1.8,1.55,8.79,8.79,0,0,1-2.16,1,8.57,8.57,0,0,1-2.39.34c-.33,0-.66,0-1-.05a5,5,0,0,1-1-.2l15.89-19.15a17.09,17.09,0,0,0-2.73-3,17.32,17.32,0,0,0-3.34-2.28,17.14,17.14,0,0,0-3.77-1.43,16.8,16.8,0,0,0-4.07-.5,17.08,17.08,0,0,0-6.59,1.28,16.31,16.31,0,0,0-9.05,9.12,18.89,18.89,0,0,0-1.34,7.21,18.23,18.23,0,0,0,1.34,7.06,16.91,16.91,0,0,0,3.65,5.54,16.76,16.76,0,0,0,12,4.93,17,17,0,0,0,4-.48,16.52,16.52,0,0,0,3.76-1.41A17,17,0,0,0,111.65,41a16.57,16.57,0,0,0,2.72-3l-6.21-6.24A8,8,0,0,1,106.87,33.76ZM93,32a4.45,4.45,0,0,1-.4-1c-.11-.37-.19-.76-.27-1.16s-.12-.81-.15-1.2,0-.74,0-1a10.31,10.31,0,0,1,.65-3.75A8.69,8.69,0,0,1,94.58,21a7.71,7.71,0,0,1,2.67-1.81,8.33,8.33,0,0,1,3.27-.64,11.47,11.47,0,0,1,1.2.06,5.59,5.59,0,0,1,1.16.28Z"/><path class="cls-4" d="M148.57,11.33l-3.29,3.94a22.4,22.4,0,0,0-2.53-2.08,18.38,18.38,0,0,0-2.84-1.67,16.13,16.13,0,0,0-3.07-1.12,12.82,12.82,0,0,0-3.2-.41,16.94,16.94,0,0,0-6.59,1.29,16.49,16.49,0,0,0-5.4,3.62c-1.55,1.55-7.51,10.11-7.51,12.7,0,2.77,6,11.42,7.51,12.92a15.55,15.55,0,0,0,5.4,3.43,18.26,18.26,0,0,0,6.59,1.18,12.73,12.73,0,0,0,3.19-.4,17.94,17.94,0,0,0,3-1.1A19.1,19.1,0,0,0,142.72,42a26.85,26.85,0,0,0,2.56-2l3.29,4.56h6.66l-4.62-16.62,4.62-16.56ZM141.42,31a9.7,9.7,0,0,1-1.82,2.89,9,9,0,0,1-2.68,2,7.41,7.41,0,0,1-3.28.76,9.12,9.12,0,0,1-3.27-.59,7.36,7.36,0,0,1-2.67-1.74c-.76-.77-5-5.26-5-6.7s4.2-5.94,5-6.71a7.36,7.36,0,0,1,2.67-1.74,9.12,9.12,0,0,1,3.27-.59,7.41,7.41,0,0,1,3.28.76,9,9,0,0,1,2.68,2,9.7,9.7,0,0,1,1.82,2.89,8.79,8.79,0,0,1,0,6.73Z"/><path class="cls-4" d="M30.39,63.11a18,18,0,0,0-5.67-3.82,17.33,17.33,0,0,0-6.93-1.39,17.35,17.35,0,0,0-6.94,1.39A17.84,17.84,0,0,0,5.2,63.11a18,18,0,0,0-3.8,5.67A17.34,17.34,0,0,0,0,75.71v26.7H8.88V93.5H26.7v8.91h8.9V75.71a17.33,17.33,0,0,0-1.39-6.93A17.93,17.93,0,0,0,30.39,63.11ZM26.7,84.62H8.88V75.71a8.63,8.63,0,0,1,.7-3.46,8.91,8.91,0,0,1,4.75-4.75,8.9,8.9,0,0,1,6.92,0,9.1,9.1,0,0,1,2.84,1.91A9.28,9.28,0,0,1,26,72.25a8.8,8.8,0,0,1,.7,3.46Z"/><path class="cls-4" d="M81,72.28a12.71,12.71,0,0,0-4-2.71,12.34,12.34,0,0,0-5-1,13.19,13.19,0,0,0-2.33.21,10,10,0,0,0-4.38,1.87,8.89,8.89,0,0,0-1.77,1.8,9.27,9.27,0,0,0-3.89-3,12.38,12.38,0,0,0-4.55-.87,12.18,12.18,0,0,0-4.43.83,13.4,13.4,0,0,0-3.89,2.31l-2.3-2.55h-2v33.25h8.48V81.3a4.37,4.37,0,0,1,.32-1.65,4.48,4.48,0,0,1,.9-1.36,4.22,4.22,0,0,1,6,0,4.26,4.26,0,0,1,1.24,3v21.11h8.48V81.3a4.18,4.18,0,0,1,.32-1.65,4.48,4.48,0,0,1,.9-1.36,4.06,4.06,0,0,1,3-1.24,4.36,4.36,0,0,1,1.64.32,4.4,4.4,0,0,1,1.37.92,4.26,4.26,0,0,1,1.24,3v21.11h8.44V81.3a12.68,12.68,0,0,0-3.71-9Z"/><rect class="cls-4" x="90.89" y="69.16" width="8.54" height="33.25"/><path class="cls-4" d="M99.21,56.14a6,6,0,0,0-1.82-1.21,5.7,5.7,0,0,0-4.44,0,5.64,5.64,0,0,0-3,3,5.5,5.5,0,0,0-.45,2.19,5.38,5.38,0,0,0,.45,2.2,5.66,5.66,0,0,0,3,3,5.7,5.7,0,0,0,4.44,0,6,6,0,0,0,1.82-1.21,5.74,5.74,0,0,0,1.22-1.79,5.38,5.38,0,0,0,.45-2.2,5.5,5.5,0,0,0-.45-2.19A5.79,5.79,0,0,0,99.21,56.14Z"/><path class="cls-4" d="M132.73,73.17a23.12,23.12,0,0,0-2.53-2.08,19.81,19.81,0,0,0-2.84-1.68,17.12,17.12,0,0,0-3.07-1.12,13.36,13.36,0,0,0-3.2-.4,16.47,16.47,0,0,0-6.6,1.34,16.84,16.84,0,0,0-5.4,3.69,17.38,17.38,0,0,0-3.64,5.59,18.08,18.08,0,0,0-1.34,7,19.31,19.31,0,0,0,1.34,7.36,15.72,15.72,0,0,0,9,9,17.87,17.87,0,0,0,6.6,1.21q1.05,0,2.28-.12a13.88,13.88,0,0,0,2.36-.46,9.83,9.83,0,0,0,2.07-.83,3.78,3.78,0,0,0,1.42-1.32,12.56,12.56,0,0,1-.91,2.42,7.22,7.22,0,0,1-1.54,2,7,7,0,0,1-2.36,1.4,9.9,9.9,0,0,1-3.38.51l-4.19-.06v8.47l4.25.06a16.46,16.46,0,0,0,6.6-1.33,17.45,17.45,0,0,0,5.4-3.63,17.26,17.26,0,0,0,3.65-5.37,16.5,16.5,0,0,0,1.33-6.58v-29h-2Zm-3.86,15.69a10,10,0,0,1-1.82,2.89,9.11,9.11,0,0,1-2.68,2,7.28,7.28,0,0,1-3.28.76,8.5,8.5,0,0,1-3.27-.63,7.73,7.73,0,0,1-2.67-1.82,8.59,8.59,0,0,1-1.79-2.84,10.26,10.26,0,0,1-.65-3.74,10.73,10.73,0,0,1,.65-3.86,8.11,8.11,0,0,1,1.79-2.84,7.27,7.27,0,0,1,2.67-1.74,9.08,9.08,0,0,1,3.27-.59,7.28,7.28,0,0,1,3.28.76,9.15,9.15,0,0,1,2.68,2,9.85,9.85,0,0,1,1.82,2.88,8.93,8.93,0,0,1,0,6.74Z"/><path class="cls-4" d="M176.63,85.64a18.86,18.86,0,0,0-1.34-7.24,17.2,17.2,0,0,0-2.38-4.12l.18-.1a5.39,5.39,0,0,0,1.61-2c1-1.87.85-3.7-.25-4.26s-2.64.44-3.59,2.32a5.57,5.57,0,0,0-.51,1.41,16.72,16.72,0,0,0-4-2.38,16.89,16.89,0,0,0-3-.89,5.81,5.81,0,0,0,1.24-3.61c0-3-2.17-5.46-4.84-5.46s-4.85,2.45-4.85,5.46a5.77,5.77,0,0,0,1.25,3.62,16.6,16.6,0,0,0-7,3.4,6.36,6.36,0,0,0-.54-1.55c-.95-1.88-2.5-2.87-3.59-2.32s-1.21,2.39-.26,4.26a5.49,5.49,0,0,0,1.61,2c.09.06.18.09.27.14a18,18,0,0,0-2.51,4.29,18.41,18.41,0,0,0-1.33,7,18.1,18.1,0,0,0,1.33,6.94,17.8,17.8,0,0,0,2,3.53,5.76,5.76,0,0,0-1.34,1.75c-1,1.88-.84,3.71.26,4.27a1.44,1.44,0,0,0,.65.15c1,0,2.16-.94,2.94-2.47a5.3,5.3,0,0,0,.28-.65,17.6,17.6,0,0,0,4.28,2.67,16.51,16.51,0,0,0,5.21,1.27l1.1,4.32c.11.44.52.45.64,0l1.16-4.34a16.13,16.13,0,0,0,5.08-1.26,17.32,17.32,0,0,0,4.29-2.68,6.31,6.31,0,0,0,.29.66c.77,1.53,1.94,2.47,2.94,2.47a1.44,1.44,0,0,0,.65-.15c1.1-.56,1.2-2.39.25-4.27a5.58,5.58,0,0,0-1.36-1.76,19.06,19.06,0,0,0,2-3.52A18.1,18.1,0,0,0,176.63,85.64Zm-11.18-2.25,2.86-1.91s0,0,0,.07a11.62,11.62,0,0,1,0,8.16s0,0,0,.05l-2.87-2.12Zm.88-5a9.51,9.51,0,0,1,1.06,1.36l-3,2-3.55-2,0-4a9.42,9.42,0,0,1,2.47.62A8.88,8.88,0,0,1,166.33,78.38Zm-6.42,11.26-3.58-2.07V83.43l3.58-2.07,3.58,2.07v4.14ZM156,76.32a9.25,9.25,0,0,1,2.86-.66l0,4-3.66,2.11-3.66-1.4a9.41,9.41,0,0,1,1.43-2A8.89,8.89,0,0,1,156,76.32Zm-5,13.26a10.65,10.65,0,0,1-.72-3.94,11.45,11.45,0,0,1,.51-3.45l3.53,1.35v4.11L151.28,90C151.21,89.88,151.11,89.74,151.05,89.58Zm2,3.17a9.27,9.27,0,0,1-.76-1l3.16-2.45,3.52,2,.13,4.28a8.72,8.72,0,0,1-3.07-.76A9.31,9.31,0,0,1,153,92.75Zm10.29,2.18a8.84,8.84,0,0,1-2.28.62l-.13-4.22,3.5-2,3,2.21a8.5,8.5,0,0,1-1.08,1.36A9,9,0,0,1,163.32,94.93Z"/><path class="cls-4" d="M209.31,87.85A9.55,9.55,0,0,0,207,84.72a10.43,10.43,0,0,0-3.35-2,11.6,11.6,0,0,0-4.1-.73h-8.81a2,2,0,0,1-1.49-.63,2.11,2.11,0,0,1-.62-1.54,2.12,2.12,0,0,1,2.11-2.11h17.16V69.23H190.78a10.36,10.36,0,0,0-4.13.82,10.61,10.61,0,0,0-3.35,2.25,10.56,10.56,0,0,0-3.08,7.48,10.4,10.4,0,0,0,.83,4.13,10.6,10.6,0,0,0,5.6,5.65,10.2,10.2,0,0,0,4.13.84h8.81a3.71,3.71,0,0,1,1.49.27,1.15,1.15,0,0,1,.62,1.18A2.13,2.13,0,0,1,199.59,94H180.22v8.44h19.37A10.4,10.4,0,0,0,207,99.32,11.08,11.08,0,0,0,209.31,96a10.15,10.15,0,0,0,.84-4.12A9.49,9.49,0,0,0,209.31,87.85Z"/><circle class="cls-4" cx="129.93" cy="27.62" r="3.31" transform="translate(46.93 131.33) rotate(-63.33)"/></g></g></g></svg>