<svg xmlns="http://www.w3.org/2000/svg" viewBox="0 0 300.67 170.98"><defs><style>.cls-1{fill:#b1efff;}.cls-2{fill:#f78330;}.cls-3{fill:#666;}.cls-4{fill:#45abe1;}.cls-5{fill:#5fd92b;}.cls-6{fill:#8a77b5;}</style></defs><title>Asset 2</title><g id="Layer_2" data-name="Layer 2"><g id="Layer_1-2" data-name="Layer 1"><rect class="cls-1" width="300.67" height="170.41" rx="12.7"/><path class="cls-2" d="M54.75,23.13c-1.79-.6-8-3.29-8.59-3.56l-.1,0L32.94,18.33a.35.35,0,0,0-.2.05L29.9,20a.36.36,0,0,1-.29,0L17.87,15.51l-.07,0-7.68-1.2a.32.32,0,0,0-.27.07L4.64,18.67a.34.34,0,0,0,0,.53l4.13,3.35a.37.37,0,0,1,.12.2l.13.69a.34.34,0,0,1-.34.41l-5.75-.11a.34.34,0,0,0-.33.44L3.13,26a.35.35,0,0,0,.36.25L6.94,26a.35.35,0,0,1,.37.4l-.14.73a.33.33,0,0,1-.19.25l-4.36,2a.35.35,0,0,0-.13.53l3.29,4.27a.32.32,0,0,0,.35.12l4.92-1.17h0l7.67-.47a.34.34,0,0,1,.29.12l5.4,6.36,0,0,7.1,6.48,0,0,4.92,5.52a.32.32,0,0,1,.08.28l-.69,4.25a.36.36,0,0,0,.07.26l3.67,4.85a.35.35,0,0,0,.13.11l2.61,1.18,0,0,4.28,1.31a.3.3,0,0,1,.19.14l5.65,8.53a.33.33,0,0,0,.16.13l8.74,3.28h0l6.21,1.82.1.05L73.24,81a.34.34,0,0,0,.35,0l2.35-1.22a.34.34,0,0,0,0-.6c-1.3-.79-4.59-2.78-4.89-2.88S65,72.21,64.16,71.63a.36.36,0,0,1-.13-.19l-1.81-6.21a.35.35,0,0,1,.33-.44l8.4-.12c.58,0,6.71-3.43,7.33-3.78a.27.27,0,0,0,.08-.07l6.24-7.09L88,50.26a.35.35,0,0,1,.59.16l.26,1.2a.35.35,0,0,0,.46.25l4.17-1.56a.35.35,0,0,0,.18-.49l-.86-1.53a.29.29,0,0,0-.15-.14l-4.75-2.21a.35.35,0,0,1,0-.63l1.44-.64a.47.47,0,0,1,.17,0l4.41.35a.33.33,0,0,1,.26.16l2.22,3.55a.36.36,0,0,0,.42.14l3.15-1.19a.34.34,0,0,0,.11-.57l-3.37-3.17a.35.35,0,0,1,.11-.58h0a.34.34,0,0,0,.14-.55l-4.69-5.37,0-.06-2.87-5a.38.38,0,0,0-.19-.16L82.81,30l-.12,0h-3.9a.35.35,0,0,0-.31.2l-1.64,3.39a.34.34,0,0,0,.07.4l2.24,2.13a.35.35,0,0,1,.09.36l-2.16,6.83a.35.35,0,0,1-.44.22L73.56,42.4a.35.35,0,0,1-.22-.39l.66-3.3a.28.28,0,0,0,0-.2l-1.84-4.26a.34.34,0,0,0-.29-.21L68,33.71a.34.34,0,0,0-.32.16L65.4,37.34a.36.36,0,0,1-.29.16h-.46a.34.34,0,0,1-.34-.34V33.44a.31.31,0,0,1,.07-.21l5.18-6.83a.34.34,0,0,1,.4-.11l3,1.23.13,0H76a.34.34,0,0,0,.29-.52L74.6,24.37a.39.39,0,0,1,0-.3l1.86-5.22a.35.35,0,0,0,0-.3l-1.32-2.14a.34.34,0,0,0-.48-.11L69,19.85a.34.34,0,0,1-.48-.11L66.9,17l0,0-2.77-3.81a.35.35,0,0,0-.62.17l-.28,2.86v.1l.88,4.27a.35.35,0,0,1-.39.41l-8.2-1.22a.34.34,0,0,0-.4.35l.1,2.7A.35.35,0,0,1,54.75,23.13Z"/><path class="cls-3" d="M78.72,78.21l9-1.1a2.79,2.79,0,0,1,2,.55l15.84,12.17a2.92,2.92,0,0,0,.48.29l5.08,2.46a2.78,2.78,0,0,1,1.38,3.5c-1.52,3.94-4.45,11.38-5,11.38-.69,0-7.19,8.17-8,9.23a2,2,0,0,1-.19.22L89,127.54a2.78,2.78,0,0,0-.53.74l-4.07,8.57a2.77,2.77,0,0,0,.12,2.62l3,4.93a2.78,2.78,0,0,1-1,3.82h0a2.77,2.77,0,0,1-4.06-1.54L80,139.2a2.75,2.75,0,0,1,0-1.53c.76-3,3.49-13.84,3.49-14.48s-.18-13.64-.23-17.26a2.8,2.8,0,0,0-.59-1.67l-8-10.34a2.79,2.79,0,0,1-.54-2.18l1.49-8.51a1.89,1.89,0,0,1,.05-.23l.72-2.74A2.78,2.78,0,0,1,78.72,78.21Z"/><path class="cls-4" d="M86.32,11.77l15.4-3.36a2,2,0,0,1,.43,0l27.46.69a1.8,1.8,0,0,1,1.74,1.61v0a1.76,1.76,0,0,1-.53,1.46L120.43,22.33a1.82,1.82,0,0,1-.7.43l-10.21,3.32a1.85,1.85,0,0,0-1,.88c-.74,1.44-2.53,4.76-3.11,4.76A73.76,73.76,0,0,1,98.08,29a1.81,1.81,0,0,1-.88-.78L92.08,19.1a1.79,1.79,0,0,0-.63-.65l-5.12-3.12a2.44,2.44,0,0,0-.28-.14h0A1.79,1.79,0,0,1,86.32,11.77Z"/><path class="cls-3" d="M266.69,122.69c.68-1.77,2.43-5.79,3.13-7.41a1.4,1.4,0,0,0-.11-1.33l-7.19-11.13a.25.25,0,0,1,0-.07l-2-3.45a1.42,1.42,0,0,0-2.46,0l-.94,1.67a1.41,1.41,0,0,1-2.33.19l-.35-.45a1.41,1.41,0,0,1-.31-.88h0a1.41,1.41,0,0,0-1.69-1.38l-5.31,1.06a1.51,1.51,0,0,0-.67.33l-6.39,5.72a1.43,1.43,0,0,1-.46.27l-4,1.46a1.4,1.4,0,0,0-.9,1.6l2.19,10.78a1.41,1.41,0,0,0,1.59,1.11l11.37-1.71a1.28,1.28,0,0,1,.67.06l7.61,2.68a1.41,1.41,0,0,1,.68.53l1,1.36a1.4,1.4,0,0,0,1.38.58l4.44-.71A1.39,1.39,0,0,0,266.69,122.69Z"/><path class="cls-3" d="M135.85,54.65c-2.56,1.83-7.68,9.2-9.16,11.38a1.84,1.84,0,0,0-.3,1.33L128.09,78a1.87,1.87,0,0,0,1,1.36l6.63,3.31a1.84,1.84,0,0,0,.82.2h9.81A1.82,1.82,0,0,1,147,83l2.69,1a1.83,1.83,0,0,1,1.15,1.31c.71,3.11,2.85,12.72,2.24,13.54s.64,13,.93,15.52a1.77,1.77,0,0,0,.32.85l3.88,5.54a1.84,1.84,0,0,0,2.5.5l4.35-2.78a1.94,1.94,0,0,0,.52-.51l6-8.78a2.2,2.2,0,0,0,.26-.56l3-11.21a1.91,1.91,0,0,0,0-1.06l-1-3A1.84,1.84,0,0,1,174,91.7l8.33-11.77A1.84,1.84,0,0,0,180.6,77l-3.48.47a1.83,1.83,0,0,1-2-1.14l-2.41-6L168.93,60a1.86,1.86,0,0,0-1.38-1.17L160,57.34a1.83,1.83,0,0,0-2,1.08h0a1.84,1.84,0,0,1-2.74.78l-3-2.09a1.85,1.85,0,0,1-.78-1.51v-.27a1.84,1.84,0,0,0-2-1.84l-12.6.83A1.78,1.78,0,0,0,135.85,54.65Z"/><path class="cls-5" d="M225.54,76,225,78.5a.56.56,0,0,0,0,.36l5.7,12a.53.53,0,0,1,0,.49l-.6,1.27a.57.57,0,0,1-1,.12l-5.72-6.9a.58.58,0,0,1,.77-.85h0a.58.58,0,0,0,.86-.7l-1.57-3.79a.58.58,0,0,1,0-.18l-.4-5.39a.58.58,0,0,1,.93-.51l1.28,1A.56.56,0,0,1,225.54,76Z"/><path class="cls-5" d="M232.59,85.4l6.74-3.84a.32.32,0,0,1,.44.14l.44,1a.45.45,0,0,1,0,.16l-1,8.86a.31.31,0,0,1-.16.23l-1.74,1a.31.31,0,0,1-.19,0c-.54-.07-3.12-.4-3.34-.73s-2-3.26-2.38-3.92a.31.31,0,0,1,0-.28l1-2.46A.27.27,0,0,1,232.59,85.4Z"/><path class="cls-3" d="M297,25.19a.9.9,0,0,0-.19-1.67l-14.41-3.6-13.52-3.2L255,12.94a.9.9,0,0,0-.93.31l-1.36,1.69a.85.85,0,0,1-.64.33l-15,1h-.19L229.2,15a.71.71,0,0,0-.29,0l-20.26,3.62a.92.92,0,0,1-.49,0L201.65,16a.89.89,0,0,0-1,.29l-3.56,4.61a.93.93,0,0,1-.53.33L180.81,24.5a.89.89,0,0,1-.78-.21l-1.58-1.42a.88.88,0,0,0-1.12-.06c-1.47,1.06-5.22,3.75-5.81,3.75s.26-1.41.86-2.43a.9.9,0,0,0-.56-1.31l-9.22-2.36a.92.92,0,0,0-.37,0l-6.91,1.16a.88.88,0,0,0-.48.24c-1,1-5.78,5.7-6.44,5.7-.49,0-1.53,1.53-2.16,2.55a.9.9,0,0,0,.4,1.3l2.91,1.25a.89.89,0,0,1,.23,1.49L146,37.44a.9.9,0,0,1-1.07.07L140,34.43l-1.76-1.18a.89.89,0,0,0-1.36,1l1.39,5.59,0,.08,1.34,3.79a.94.94,0,0,1,0,.68L138.4,47a.9.9,0,0,1-1.06.48l-2.5-.73a.9.9,0,0,0-1.13.69l-.63,3.31a.9.9,0,0,0,.71,1.05l5.11,1a.88.88,0,0,0,.73-.18l8.9-7.12a.89.89,0,0,1,1.18.06l5.59,5.37a.85.85,0,0,0,.56.25c1.64.09,8.89.5,9.76.72a60.41,60.41,0,0,1,5.64,2.69.88.88,0,0,1,.48.83l-.21,5.09a.87.87,0,0,0,.1.45l7.12,13.79a.89.89,0,0,0,1.16.4l11-5a.89.89,0,0,0,.2-1.5l-8.45-7a.9.9,0,0,1,.51-1.59l1.72-.1a.93.93,0,0,1,.37.06l12.84,5a1,1,0,0,1,.42.34l9.69,14.53a.89.89,0,0,0,1.63-.43l.53-8.09a.9.9,0,0,1,.59-.79l5.72-2a.89.89,0,0,1,1,.3l4.43,5.75a1.1,1.1,0,0,0,.22.21l4,2.58.1.08,3,2.64a.9.9,0,0,0,1.47-.48l1.37-6.29a.58.58,0,0,0,0-.19v-5.1a.91.91,0,0,1,.69-.87l6.1-1.47a.91.91,0,0,0,.54-.38l4.34-6.62a.86.86,0,0,0,.14-.47l.17-5.93a.89.89,0,0,1,1.62-.5L247.41,54a.89.89,0,0,0,1.32.15l1.47-1.32a.93.93,0,0,0,.29-.56l.63-5.06a.91.91,0,0,1,.53-.71l4.89-2.13A.88.88,0,0,0,257,44l1.81-3.62a.9.9,0,0,1,1.37-.3h0a.88.88,0,0,0,1.44-.83l-.25-1.52a.89.89,0,0,0-.65-.72l-4.1-1.1a.9.9,0,0,1-.32-1.57l2.81-2.18a.86.86,0,0,1,.45-.19L277.25,30l11.62-.72a.88.88,0,0,0,.35-.1Z"/><path class="cls-5" d="M241.65,71.61c-.17.8-.35,1.71-.45,2.26a1.18,1.18,0,0,0,.23.94c.42.55,1.11,1.43,1,1.17a19.25,19.25,0,0,1,1.42-3.63,1.2,1.2,0,0,0-.42-1.48h0A1.18,1.18,0,0,0,241.65,71.61Z"/><path class="cls-5" d="M245.08,75.67l.9.58a.32.32,0,0,1,.14.3l-.08.55a.31.31,0,0,1-.11.19l-2,1.65a.31.31,0,0,1-.47-.08l-.64-1.12a.32.32,0,0,1,.13-.43l1.53-.81a.3.3,0,0,0,.12-.42h0A.31.31,0,0,1,245.08,75.67Z"/><path class="cls-5" d="M246.68,79.05l.58,1.23a.33.33,0,0,1-.12.4l-1.57,1a.31.31,0,0,1-.32,0l-1.32-.75a.32.32,0,0,1-.13-.4l.29-.65a.31.31,0,0,1,.31-.18l1.16.09a.32.32,0,0,0,.31-.18l.24-.55A.32.32,0,0,1,246.68,79.05Z"/><path class="cls-6" d="M29.56,171a1.07,1.07,0,0,1-.85-1.73c1.95-2.45,5.32-6.62,5.59-6.7s9.86-3.38,12.68-3.36,12.91-.16,12.42-.41a1.39,1.39,0,0,1-.26-.2,1.07,1.07,0,0,1,1-1.8c3.33.92,7.94,2.18,8.33,2.19.57,0,10.1-1.73,11.52-2a1.2,1.2,0,0,0,.33-.13L88,152.45a1.18,1.18,0,0,0,.33-.3l.16-.22a1.07,1.07,0,0,1,1.91.86h0a1.08,1.08,0,0,0,.25.94c.27.32.61.75.6,1s-.14,2.09-.22,3.07a1.07,1.07,0,0,0,.47,1l2.16,1.46a1.07,1.07,0,0,0,.58.18l9.76.19s10.08.06,10.45-.18,9.56-3.1,11-3.55a.94.94,0,0,1,.41,0l7,.62a1.08,1.08,0,0,0,.5-.08l11.12-4.59a1,1,0,0,1,.72,0l15.18,4.5a.91.91,0,0,0,.32,0l4.93-.07a1,1,0,0,0,1-.64l.92-2.1a1.07,1.07,0,0,1,1.07-.64l4.41.34a.85.85,0,0,1,.22,0l7.11,2.11a1,1,0,0,0,.75-.05l4.36-2a1.08,1.08,0,0,0,.63-.9l.16-2.3a1.06,1.06,0,0,1,1.07-1l3.69,0a1,1,0,0,1,.42.09L200.3,154a1.32,1.32,0,0,1,.29.19l3.67,3.28a1,1,0,0,0,.83.26l.75-.08a1.07,1.07,0,0,0,.95-1l.41-4.28a1,1,0,0,1,.31-.66l.87-.85a1,1,0,0,1,.81-.31l1.74.1a1,1,0,0,1,.24.05l9.18,2.8a.81.81,0,0,0,.31.05l4.23,0a.88.88,0,0,0,.77-1.3h0a.88.88,0,0,1,.75-1.31l7.83-.15a1.19,1.19,0,0,1,.33,0l12.31,3.71.09,0a21.13,21.13,0,0,0,2.29.37,57.44,57.44,0,0,0,5.68-2.43,1.09,1.09,0,0,1,.5-.1l9,.38a1.08,1.08,0,0,1,1,1.08v.75a1.07,1.07,0,0,0,1.44,1l1.78-.64.19-.09,1.76-1.07a1.09,1.09,0,0,1,.79-.12l5.23,1.17,3.88.94a.92.92,0,0,1,.48.31l.07.09a.87.87,0,0,1-.36,1.35L277.52,159a1.08,1.08,0,0,0-.59,1.4l.4,1a1.09,1.09,0,0,0,.54.56l2.09,1a1.07,1.07,0,0,0,.94,0l2.41-1.23a1.1,1.1,0,0,1,.92,0l3.74,1.66a1.06,1.06,0,0,1,.63.88l.25,3a1.06,1.06,0,0,1-.23.76L287,170a1.07,1.07,0,0,1-.84.41Z"/><path class="cls-5" d="M230.36,94.33l1.62-.6a.42.42,0,0,1,.22,0l2.16.22a.48.48,0,0,1,.2.07,21,21,0,0,0,3.18,1.75l1.69,0a.48.48,0,0,1,.13.94h0c-.25.08-3.94-.57-4.35-.57s-3.62-.42-4.57-.54a.48.48,0,0,1-.37-.28l-.17-.35A.49.49,0,0,1,230.36,94.33Z"/><path class="cls-5" d="M241.19,88.6l-.32,1.67a.49.49,0,0,1,0,.11l-.39.72a.36.36,0,0,0,0,.27l.42,1.8a.38.38,0,0,0,.57.24c.54-.35,1.36-.9,1.19-1s-.42-.83-.56-1.29a.37.37,0,0,1,.25-.46l.28-.1a.38.38,0,0,1,.48.24l.5,1.52a.38.38,0,0,0,.72,0v0a.36.36,0,0,0,0-.27l-1-2.18a.38.38,0,0,1,.3-.53h0a.39.39,0,0,1,.36.16l.4.61a.35.35,0,0,0,.35.16h.15a.37.37,0,0,0,.32-.48l-.35-1.24a.37.37,0,0,0-.47-.26l-1.84.55a.4.4,0,0,1-.41-.13l-.23-.3A.38.38,0,0,0,241.19,88.6Z"/><path class="cls-4" d="M62.56,10.23l13.11-1.7h.06L88.14,9a.37.37,0,0,1,.24.63h0a.29.29,0,0,1-.13.08c-.86.31-8.64,3.1-9.1,3.25s-1.37,2.06-1.6,2.52a.42.42,0,0,0,0,.22l.18,1.13a.37.37,0,0,1-.59.35l-3.64-2.73a.37.37,0,0,0-.45,0L71.12,16a.37.37,0,0,1-.55-.11l-1.23-2.13a.37.37,0,0,0-.66,0l-.49,1.08a.38.38,0,0,1-.56.14l-4-3,0,0-1.2-1.09A.37.37,0,0,1,62.56,10.23Z"/><path class="cls-4" d="M122.59,24.27l7.54-.17,1.14,2.62s-4.42,1.32-5.08,1-4.75-2.13-4.75-2.13Z"/><polygon class="cls-4" points="150.94 11.31 153.24 10.82 155.7 12.3 162.91 10.33 163.4 11.48 161.76 13.94 159.47 14.1 157.17 13.61 156.19 16.23 152.59 14.43 149.8 13.12 150.94 11.31"/><path class="cls-4" d="M181.6,10.82l5.9-.49,6.07-.16,2.29.49a38.48,38.48,0,0,1-5.9,1h-6.89Z"/><path class="cls-2" d="M77.67,18.69c.49.17,6.89,1.8,6.89,1.8l1,2,3.6,1.81-.65,1.47s-3.44-.82-3.44-.33a19.28,19.28,0,0,0,2,3.28l-1.64.49-7-2.62-1.81-1.48-.33-3.44Z"/><path class="cls-3" d="M262.38,51.07l2.14.79a.79.79,0,0,1,.09,1.44l-1.17.61a.77.77,0,0,1-.66,0l-.11,0a.79.79,0,0,0-1.05,1l.57,1.6a.73.73,0,0,1,0,.36l-.4,3.18a.79.79,0,0,1-.62.68L254.79,62a.78.78,0,0,0-.46.27l-.62.77a.79.79,0,0,1-1.33-.17h0a.77.77,0,0,1,.11-.83l1.64-2a.77.77,0,0,1,.65-.28l1.91.09a.87.87,0,0,0,.5-.15l3-2.13a.74.74,0,0,0,.31-.46l.48-2a.84.84,0,0,0-.06-.54l-.61-1.22a.78.78,0,0,1,.13-.89l1.11-1.18A.79.79,0,0,1,262.38,51.07Z"/></g></g></svg>