<?xml version="1.0" encoding="utf-8"?>
<!-- Generator: Adobe Illustrator 22.1.0, SVG Export Plug-In . SVG Version: 6.00 Build 0)  -->
<svg version="1.1" id="Layer_1" xmlns="http://www.w3.org/2000/svg" xmlns:xlink="http://www.w3.org/1999/xlink" x="0px" y="0px"
	 viewBox="0 0 300.7 171" style="enable-background:new 0 0 300.7 171;" xml:space="preserve">
<style type="text/css">
	.st0{fill:#B1EFFF;}
	.st1{fill:#666666;}
	.st2{fill:#FFFFFF;}
	.st3{fill:#45ABE1;}
	.st4{fill:#8A77B5;}
	.st5{fill:#F78330;}
	.st6{fill:#5FD92B;}
</style>
<title>Asset 2</title>
<path class="st0" d="M12.7,0H288c7,0,12.7,5.7,12.7,12.7v145c0,7-5.7,12.7-12.7,12.7H12.7c-7,0-12.7-5.7-12.7-12.7v-145
	C0,5.7,5.7,0,12.7,0z"/>
<path class="st1" d="M78.7,78.2l9-1.1c0.7-0.1,1.4,0.1,2,0.6l15.8,12.2c0.2,0.1,0.3,0.2,0.5,0.3l5.1,2.5c1.3,0.6,1.9,2.2,1.4,3.5
	c-1.5,3.9-4.4,11.4-5,11.4c-0.7,0-7.2,8.2-8,9.2c-0.1,0.1-0.1,0.2-0.2,0.2L89,127.5c-0.2,0.2-0.4,0.5-0.5,0.7l-4.1,8.6
	c-0.4,0.8-0.4,1.8,0.1,2.6l3,4.9c0.8,1.3,0.3,3-1,3.8c0,0,0,0,0,0l0,0c-1.3,0.8-3,0.4-3.8-1c-0.1-0.2-0.2-0.4-0.3-0.6l-2.5-7.5
	c-0.1-0.5-0.1-1,0-1.5c0.8-3,3.5-13.8,3.5-14.5s-0.2-13.6-0.2-17.3c0-0.6-0.2-1.2-0.6-1.7l-8-10.3c-0.5-0.6-0.7-1.4-0.5-2.2l1.5-8.5
	c0-0.1,0-0.2,0.1-0.2l0.7-2.7C76.7,79.2,77.6,78.4,78.7,78.2z"/>
<g>
	<path class="st2" d="M87.3,12.8l15.4-3.4c0.1,0,0.3,0,0.4,0l27.5,0.7c0.9,0,1.6,0.7,1.7,1.6l0,0c0.1,0.5-0.1,1.1-0.5,1.5
		l-10.4,10.2c-0.2,0.2-0.4,0.3-0.7,0.4l-10.2,3.3c-0.4,0.2-0.8,0.5-1,0.9c-0.7,1.4-2.5,4.8-3.1,4.8c-2.5-0.8-4.9-1.7-7.3-2.7
		c-0.4-0.2-0.7-0.4-0.9-0.8l-5.1-9.1c-0.2-0.3-0.4-0.5-0.6-0.6l-5.1-3.1c-0.1-0.1-0.2-0.1-0.3-0.1l0,0c-0.9-0.4-1.4-1.4-1-2.3
		C86.2,13.3,86.7,12.9,87.3,12.8z"/>
	<path class="st2" d="M63.6,11.2l13.1-1.7h0.1L89.1,10c0.2,0,0.4,0.2,0.3,0.4c0,0.1,0,0.2-0.1,0.2l0,0c0,0-0.1,0.1-0.1,0.1
		c-0.9,0.3-8.6,3.1-9.1,3.2s-1.4,2.1-1.6,2.5c0,0.1,0,0.1,0,0.2l0.2,1.1c0,0.2-0.1,0.4-0.3,0.4c-0.1,0-0.2,0-0.3-0.1l-3.6-2.7
		c-0.1-0.1-0.3-0.1-0.4,0L72.1,17c-0.2,0.1-0.4,0.1-0.5-0.1c0,0,0,0,0,0l-1.2-2.1c-0.1-0.2-0.3-0.3-0.5-0.2c-0.1,0-0.1,0.1-0.2,0.2
		l-0.5,1.1c-0.1,0.2-0.3,0.3-0.5,0.2c0,0,0,0-0.1,0l-4-3l0,0l-1.2-1.1c-0.2-0.1-0.2-0.4-0.1-0.5C63.4,11.3,63.5,11.3,63.6,11.2z"/>
	<path class="st2" d="M123.6,25.3l7.5-0.2l1.1,2.6c0,0-4.4,1.3-5.1,1s-4.8-2.1-4.8-2.1L123.6,25.3z"/>
	<polygon class="st2" points="151.9,12.3 154.2,11.8 156.7,13.3 163.9,11.3 164.4,12.5 162.8,14.9 160.5,15.1 158.2,14.6 
		157.2,17.2 153.6,15.4 150.8,14.1 	"/>
	<path class="st2" d="M182.6,11.8l5.9-0.5l6.1-0.2l2.3,0.5c-1.9,0.5-3.9,0.8-5.9,1h-6.9L182.6,11.8z"/>
</g>
<path class="st1" d="M266.7,122.7c0.7-1.8,2.4-5.8,3.1-7.4c0.2-0.4,0.1-0.9-0.1-1.3l-7.2-11.1c0,0,0,0,0-0.1l-2-3.4
	c-0.4-0.7-1.3-0.9-1.9-0.5c-0.2,0.1-0.4,0.3-0.5,0.5l-0.9,1.7c-0.4,0.7-1.2,0.9-1.9,0.5c-0.2-0.1-0.3-0.2-0.4-0.3l-0.4-0.4
	c-0.2-0.2-0.3-0.6-0.3-0.9l0,0c0-0.8-0.6-1.4-1.4-1.4c-0.1,0-0.2,0-0.3,0l-5.3,1.1c-0.2,0.1-0.5,0.2-0.7,0.3l-6.4,5.7
	c-0.1,0.1-0.3,0.2-0.5,0.3l-4,1.5c-0.7,0.2-1,0.9-0.9,1.6l2.2,10.8c0.2,0.7,0.8,1.2,1.6,1.1l11.4-1.7c0.2,0,0.5,0,0.7,0.1l7.6,2.7
	c0.3,0.1,0.5,0.3,0.7,0.5l1,1.4c0.3,0.4,0.8,0.7,1.4,0.6l4.4-0.7C266.1,123.5,266.5,123.1,266.7,122.7z"/>
<path class="st1" d="M135.9,54.7c-2.6,1.8-7.7,9.2-9.2,11.4c-0.3,0.4-0.4,0.9-0.3,1.3l1.7,10.6c0.1,0.6,0.5,1.1,1,1.4l6.6,3.3
	c0.3,0.1,0.5,0.2,0.8,0.2h9.8c0.2,0,0.4,0,0.6,0.1l2.7,1c0.6,0.2,1,0.7,1.1,1.3c0.7,3.1,2.9,12.7,2.2,13.5s0.6,13,0.9,15.5
	c0,0.3,0.1,0.6,0.3,0.8l3.9,5.5c0.6,0.8,1.7,1,2.5,0.5l4.4-2.8c0.2-0.1,0.4-0.3,0.5-0.5l6-8.8c0.1-0.2,0.2-0.4,0.3-0.6l3-11.2
	c0.1-0.3,0.1-0.7,0-1.1l-1-3c-0.2-0.5-0.2-1.2,0.2-1.7l8.3-11.8c0.6-0.8,0.5-2-0.4-2.6c-0.4-0.3-0.9-0.4-1.4-0.4l-3.5,0.5
	c-0.9,0.1-1.7-0.3-2-1.1l-2.4-6L168.9,60c-0.2-0.6-0.7-1-1.4-1.2l-7.5-1.5c-0.8-0.1-1.7,0.3-2,1.1l0,0c-0.4,0.9-1.5,1.4-2.4,1
	c-0.1,0-0.2-0.1-0.3-0.2l-3-2.1c-0.5-0.3-0.8-0.9-0.8-1.5v-0.3c0-1-0.8-1.8-1.8-1.8c-0.1,0-0.1,0-0.2,0l-12.6,0.8
	C136.5,54.3,136.2,54.4,135.9,54.7z"/>
<path class="st1" d="M297,25.2c0.4-0.2,0.6-0.8,0.4-1.2c-0.1-0.2-0.3-0.4-0.6-0.5l-14.4-3.6l-13.5-3.2L255,12.9
	c-0.3-0.1-0.7,0-0.9,0.3l-1.4,1.7c-0.2,0.2-0.4,0.3-0.6,0.3l-15,1h-0.2l-7.7-1.3c-0.1,0-0.2,0-0.3,0l-20.3,3.6c-0.2,0-0.3,0-0.5,0
	l-6.5-2.6c-0.4-0.1-0.8,0-1,0.3l-3.6,4.6c-0.1,0.2-0.3,0.3-0.5,0.3l-15.8,3.3c-0.3,0.1-0.6,0-0.8-0.2l-1.6-1.4
	c-0.3-0.3-0.8-0.3-1.1-0.1c-1.5,1.1-5.2,3.8-5.8,3.8s0.3-1.4,0.9-2.4c0.2-0.4,0.1-1-0.3-1.2c-0.1,0-0.1-0.1-0.2-0.1l-9.2-2.4
	c-0.1,0-0.2,0-0.4,0l-6.9,1.2c-0.2,0-0.3,0.1-0.5,0.2c-1,1-5.8,5.7-6.4,5.7c-0.5,0-1.5,1.5-2.2,2.5c-0.3,0.4-0.1,1,0.3,1.2
	c0,0,0.1,0,0.1,0.1l2.9,1.2c0.5,0.2,0.7,0.7,0.5,1.2c-0.1,0.1-0.1,0.2-0.2,0.3l-3.8,3.3c-0.3,0.3-0.7,0.3-1.1,0.1l-4.9-3.1l-1.8-1.2
	c-0.4-0.3-1-0.2-1.2,0.2c-0.2,0.2-0.2,0.5-0.1,0.8l1.4,5.6v0.1l1.3,3.8c0.1,0.2,0.1,0.5,0,0.7l-1.2,2.6c-0.2,0.4-0.6,0.6-1.1,0.5
	l-2.5-0.7c-0.5-0.1-1,0.1-1.1,0.6c0,0,0,0,0,0.1l-0.6,3.3c-0.1,0.5,0.2,1,0.7,1l5.1,1c0.3,0.1,0.5,0,0.7-0.2l8.9-7.1
	c0.4-0.3,0.9-0.3,1.2,0.1l5.6,5.4c0.1,0.2,0.3,0.2,0.6,0.2c1.6,0.1,8.9,0.5,9.8,0.7c1.9,0.8,3.8,1.7,5.6,2.7
	c0.3,0.2,0.5,0.5,0.5,0.8l-0.2,5.1c0,0.2,0,0.3,0.1,0.5l7.1,13.8c0.2,0.4,0.7,0.6,1.2,0.4l11-5c0.4-0.2,0.6-0.7,0.4-1.2
	c-0.1-0.1-0.1-0.2-0.2-0.3l-8.4-7c-0.4-0.3-0.4-0.9-0.1-1.3c0.2-0.2,0.4-0.3,0.6-0.3l1.7-0.1c0.1,0,0.3,0,0.4,0.1l12.8,5
	c0.2,0.1,0.3,0.2,0.4,0.3l9.7,14.5c0.3,0.4,0.8,0.5,1.2,0.3c0.2-0.2,0.4-0.4,0.4-0.7l0.5-8.1c0-0.4,0.3-0.7,0.6-0.8l5.7-2
	c0.4-0.1,0.8,0,1,0.3l4.4,5.8c0.1,0.1,0.1,0.2,0.2,0.2l4,2.6l0.1,0.1l3,2.6c0.4,0.3,0.9,0.3,1.3-0.1c0.1-0.1,0.2-0.2,0.2-0.4
	l1.4-6.3c0-0.1,0-0.1,0-0.2v-5.1c0-0.4,0.3-0.8,0.7-0.9l6.1-1.5c0.2-0.1,0.4-0.2,0.5-0.4l4.3-6.6c0.1-0.1,0.1-0.3,0.1-0.5l0.2-5.9
	c0-0.5,0.4-0.9,0.9-0.9c0.3,0,0.6,0.1,0.7,0.4l1.5,2.2c0.3,0.4,0.8,0.5,1.2,0.2c0,0,0.1,0,0.1-0.1l1.5-1.3c0.2-0.1,0.3-0.3,0.3-0.6
	l0.6-5.1c0-0.3,0.2-0.6,0.5-0.7l4.9-2.1c0.2-0.1,0.4-0.2,0.5-0.4l1.8-3.6c0.2-0.4,0.8-0.6,1.2-0.4c0.1,0,0.1,0.1,0.2,0.1l0,0
	c0.4,0.3,0.9,0.3,1.2-0.1c0.2-0.2,0.2-0.5,0.2-0.7l-0.2-1.5c-0.1-0.3-0.3-0.6-0.6-0.7l-4.1-1.1c-0.5-0.1-0.8-0.6-0.6-1.1
	c0.1-0.2,0.2-0.3,0.3-0.5l2.8-2.2c0.1-0.1,0.3-0.2,0.5-0.2l17.7-2l11.6-0.7c0.1,0,0.2,0,0.4-0.1L297,25.2z"/>
<g>
	<path class="st3" d="M86.3,11.8l15.4-3.4c0.1,0,0.3,0,0.4,0l27.5,0.7c0.9,0,1.6,0.7,1.7,1.6l0,0c0.1,0.5-0.1,1.1-0.5,1.5
		l-10.4,10.2c-0.2,0.2-0.4,0.3-0.7,0.4l-10.2,3.3c-0.4,0.2-0.8,0.5-1,0.9c-0.7,1.4-2.5,4.8-3.1,4.8c-2.5-0.8-4.9-1.7-7.3-2.7
		c-0.4-0.2-0.7-0.4-0.9-0.8l-5.1-9.1c-0.2-0.3-0.4-0.5-0.6-0.6l-5.1-3.1c-0.1-0.1-0.2-0.1-0.3-0.1l0,0c-0.9-0.4-1.4-1.4-1-2.3
		C85.2,12.3,85.7,11.9,86.3,11.8z"/>
	<path class="st3" d="M62.6,10.2l13.1-1.7h0.1L88.1,9c0.2,0,0.4,0.2,0.3,0.4c0,0.1,0,0.2-0.1,0.2l0,0c0,0-0.1,0.1-0.1,0.1
		c-0.9,0.3-8.6,3.1-9.1,3.2s-1.4,2.1-1.6,2.5c0,0.1,0,0.1,0,0.2l0.2,1.1c0,0.2-0.1,0.4-0.3,0.4c-0.1,0-0.2,0-0.3-0.1l-3.6-2.7
		c-0.1-0.1-0.3-0.1-0.4,0L71.1,16c-0.2,0.1-0.4,0.1-0.5-0.1c0,0,0,0,0,0l-1.2-2.1c-0.1-0.2-0.3-0.3-0.5-0.2c-0.1,0-0.1,0.1-0.2,0.2
		l-0.5,1.1c-0.1,0.2-0.3,0.3-0.5,0.2c0,0,0,0-0.1,0l-4-3l0,0l-1.2-1.1c-0.2-0.1-0.2-0.4-0.1-0.5C62.4,10.3,62.5,10.3,62.6,10.2z"/>
	<path class="st3" d="M122.6,24.3l7.5-0.2l1.1,2.6c0,0-4.4,1.3-5.1,1s-4.8-2.1-4.8-2.1L122.6,24.3z"/>
	<polygon class="st3" points="150.9,11.3 153.2,10.8 155.7,12.3 162.9,10.3 163.4,11.5 161.8,13.9 159.5,14.1 157.2,13.6 
		156.2,16.2 152.6,14.4 149.8,13.1 	"/>
	<path class="st3" d="M181.6,10.8l5.9-0.5l6.1-0.2l2.3,0.5c-1.9,0.5-3.9,0.8-5.9,1h-6.9L181.6,10.8z"/>
</g>
<path class="st1" d="M262.4,51.1l2.1,0.8c0.4,0.2,0.6,0.6,0.5,1c-0.1,0.2-0.2,0.3-0.4,0.4l-1.2,0.6c-0.2,0.1-0.5,0.1-0.7,0h-0.1
	c-0.4-0.2-0.9,0-1,0.4c-0.1,0.2-0.1,0.4,0,0.6l0.6,1.6c0,0.1,0,0.2,0,0.4l-0.4,3.2c0,0.3-0.3,0.6-0.6,0.7l-6.4,1.3
	c-0.2,0-0.3,0.1-0.5,0.3l-0.6,0.8c-0.3,0.3-0.8,0.4-1.1,0.1c-0.1-0.1-0.2-0.2-0.2-0.3l0,0c-0.1-0.3-0.1-0.6,0.1-0.8l1.6-2
	c0.2-0.2,0.4-0.3,0.6-0.3l1.9,0.1c0.2,0,0.4,0,0.5-0.2l3-2.1c0.2-0.1,0.3-0.3,0.3-0.5l0.5-2c0-0.2,0-0.4-0.1-0.5l-0.6-1.2
	c-0.1-0.3-0.1-0.7,0.1-0.9l1.1-1.2C261.8,51.1,262.1,51,262.4,51.1z"/>
<path class="st2" d="M28.6,169c-0.6,0-1.1-0.5-1.1-1.1c0-0.2,0.1-0.5,0.2-0.7c2-2.4,5.3-6.6,5.6-6.7s9.9-3.4,12.7-3.4
	s12.9-0.2,12.4-0.4c-0.1-0.1-0.2-0.1-0.3-0.2c-0.4-0.4-0.4-1.1,0-1.5c0.3-0.3,0.6-0.4,1-0.3c3.3,0.9,7.9,2.2,8.3,2.2
	c0.6,0,10.1-1.7,11.5-2c0.1,0,0.2-0.1,0.3-0.1l7.7-4.4c0.1-0.1,0.2-0.2,0.3-0.3l0.2-0.2c0.3-0.5,1-0.6,1.5-0.2
	c0.3,0.3,0.5,0.7,0.4,1.1l0,0c-0.1,0.3,0,0.7,0.2,0.9c0.3,0.3,0.6,0.8,0.6,1s-0.1,2.1-0.2,3.1c0,0.4,0.1,0.8,0.5,1l2.2,1.5
	c0.2,0.1,0.4,0.2,0.6,0.2l9.8,0.2c0,0,10.1,0.1,10.4-0.2s9.6-3.1,11-3.6c0.1,0,0.3,0,0.4,0l7,0.6c0.2,0,0.3,0,0.5-0.1l11.1-4.6
	c0.2-0.1,0.5-0.1,0.7,0l15.2,4.5c0.1,0,0.2,0,0.3,0l4.9-0.1c0.4,0,0.8-0.2,1-0.6l0.9-2.1c0.2-0.4,0.6-0.7,1.1-0.6l4.4,0.3
	c0.1,0,0.1,0,0.2,0l7.1,2.1c0.2,0.1,0.5,0.1,0.8-0.1l4.4-2c0.4-0.2,0.6-0.5,0.6-0.9l0.2-2.3c0-0.6,0.5-1,1.1-1h3.7
	c0.1,0,0.3,0,0.4,0.1l8.9,3.8c0.1,0.1,0.2,0.1,0.3,0.2l3.7,3.3c0.2,0.2,0.5,0.3,0.8,0.3l0.8-0.1c0.5-0.1,0.9-0.5,0.9-1l0.4-4.3
	c0-0.3,0.1-0.5,0.3-0.7l0.9-0.9c0.2-0.2,0.5-0.3,0.8-0.3l1.7,0.1c0.1,0,0.2,0,0.2,0.1l9.2,2.8c0.1,0,0.2,0.1,0.3,0.1h4.2
	c0.5,0,0.9-0.4,0.9-0.9c0-0.1,0-0.3-0.1-0.4l0,0c-0.2-0.4-0.1-1,0.3-1.2c0.1-0.1,0.3-0.1,0.4-0.1l7.8-0.1c0.1,0,0.2,0,0.3,0
	l12.3,3.7h0.1c0.8,0.2,1.5,0.3,2.3,0.4c1.9-0.7,3.8-1.5,5.7-2.4c0.2-0.1,0.3-0.1,0.5-0.1l9,0.4c0.6,0,1,0.5,1,1.1v0.8
	c0,0.6,0.5,1.1,1.1,1.1c0.1,0,0.2,0,0.4-0.1l1.8-0.6l0.2-0.1l1.8-1.1c0.2-0.1,0.5-0.2,0.8-0.1l5.2,1.2l3.9,0.9
	c0.2,0,0.4,0.2,0.5,0.3l0.1,0.1c0.3,0.4,0.2,0.9-0.1,1.2c-0.1,0.1-0.1,0.1-0.2,0.1l-3.2,1.5c-0.5,0.2-0.8,0.9-0.6,1.4l0.4,1
	c0.1,0.2,0.3,0.4,0.5,0.6l2.1,1c0.3,0.1,0.6,0.1,0.9,0l2.4-1.2c0.3-0.1,0.6-0.1,0.9,0l3.7,1.7c0.4,0.2,0.6,0.5,0.6,0.9l0.2,3
	c0,0.3-0.1,0.5-0.2,0.8l-1.6,2c-0.2,0.3-0.5,0.4-0.8,0.4L28.6,169z"/>
<path class="st4" d="M29.6,171c-0.6,0-1.1-0.5-1.1-1.1c0-0.2,0.1-0.5,0.2-0.7c2-2.4,5.3-6.6,5.6-6.7s9.9-3.4,12.7-3.4
	s12.9-0.2,12.4-0.4c-0.1-0.1-0.2-0.1-0.3-0.2c-0.4-0.4-0.4-1.1,0-1.5c0.3-0.3,0.6-0.4,1-0.3c3.3,0.9,7.9,2.2,8.3,2.2
	c0.6,0,10.1-1.7,11.5-2c0.1,0,0.2-0.1,0.3-0.1l7.7-4.4c0.1-0.1,0.2-0.2,0.3-0.3l0.2-0.2c0.3-0.5,1-0.6,1.5-0.2
	c0.3,0.3,0.5,0.7,0.4,1.1l0,0c-0.1,0.3,0,0.7,0.2,0.9c0.3,0.3,0.6,0.8,0.6,1s-0.1,2.1-0.2,3.1c0,0.4,0.1,0.8,0.5,1l2.2,1.5
	c0.2,0.1,0.4,0.2,0.6,0.2l9.8,0.2c0,0,10.1,0.1,10.4-0.2s9.6-3.1,11-3.6c0.1,0,0.3,0,0.4,0l7,0.6c0.2,0,0.3,0,0.5-0.1l11.1-4.6
	c0.2-0.1,0.5-0.1,0.7,0l15.2,4.5c0.1,0,0.2,0,0.3,0l4.9-0.1c0.4,0,0.8-0.2,1-0.6l0.9-2.1c0.2-0.4,0.6-0.7,1.1-0.6l4.4,0.3
	c0.1,0,0.1,0,0.2,0l7.1,2.1c0.2,0.1,0.5,0.1,0.8-0.1l4.4-2c0.4-0.2,0.6-0.5,0.6-0.9l0.2-2.3c0-0.6,0.5-1,1.1-1h3.7
	c0.1,0,0.3,0,0.4,0.1l8.9,3.8c0.1,0.1,0.2,0.1,0.3,0.2l3.7,3.3c0.2,0.2,0.5,0.3,0.8,0.3l0.8-0.1c0.5-0.1,0.9-0.5,0.9-1l0.4-4.3
	c0-0.3,0.1-0.5,0.3-0.7l0.9-0.9c0.2-0.2,0.5-0.3,0.8-0.3l1.7,0.1c0.1,0,0.2,0,0.2,0.1l9.2,2.8c0.1,0,0.2,0.1,0.3,0.1h4.2
	c0.5,0,0.9-0.4,0.9-0.9c0-0.1,0-0.3-0.1-0.4l0,0c-0.2-0.4-0.1-1,0.3-1.2c0.1-0.1,0.3-0.1,0.4-0.1l7.8-0.1c0.1,0,0.2,0,0.3,0
	l12.3,3.7h0.1c0.8,0.2,1.5,0.3,2.3,0.4c1.9-0.7,3.8-1.5,5.7-2.4c0.2-0.1,0.3-0.1,0.5-0.1l9,0.4c0.6,0,1,0.5,1,1.1v0.8
	c0,0.6,0.5,1.1,1.1,1.1c0.1,0,0.2,0,0.4-0.1l1.8-0.6l0.2-0.1l1.8-1.1c0.2-0.1,0.5-0.2,0.8-0.1l5.2,1.2l3.9,0.9
	c0.2,0,0.4,0.2,0.5,0.3l0.1,0.1c0.3,0.4,0.2,0.9-0.1,1.2c-0.1,0.1-0.1,0.1-0.2,0.1l-3.2,1.5c-0.5,0.2-0.8,0.9-0.6,1.4l0.4,1
	c0.1,0.2,0.3,0.4,0.5,0.6l2.1,1c0.3,0.1,0.6,0.1,0.9,0l2.4-1.2c0.3-0.1,0.6-0.1,0.9,0l3.7,1.7c0.4,0.2,0.6,0.5,0.6,0.9l0.2,3
	c0,0.3-0.1,0.5-0.2,0.8l-1.6,2c-0.2,0.3-0.5,0.4-0.8,0.4L29.6,171z"/>
<g>
	<path class="st2" d="M55.8,25.1c-1.8-0.6-8-3.3-8.6-3.6h-0.1l-13.1-1.2c-0.1,0-0.1,0-0.2,0L30.9,22c-0.1,0-0.2,0-0.3,0l-11.7-4.5
		h-0.1l-7.7-1.2c-0.1,0-0.2,0-0.3,0.1l-5.2,4.3c-0.1,0.1-0.2,0.3-0.1,0.5c0,0,0,0,0.1,0.1l4.1,3.4c0.1,0.1,0.1,0.1,0.1,0.2l0.1,0.7
		c0,0.2-0.1,0.4-0.3,0.4c0,0-0.1,0-0.1,0l-5.8-0.1c-0.2,0-0.3,0.1-0.3,0.3c0,0,0,0.1,0,0.1L4.1,28c0,0.2,0.2,0.3,0.4,0.2L7.9,28
		c0.2,0,0.4,0.1,0.4,0.3c0,0,0,0,0,0.1l-0.1,0.7c0,0.1-0.1,0.2-0.2,0.2l-4.4,2c-0.2,0.1-0.3,0.3-0.2,0.5c0,0,0,0,0,0.1l3.3,4.3
		c0.1,0.1,0.2,0.2,0.3,0.1l4.9-1.2l0,0l7.7-0.5c0.1,0,0.2,0,0.3,0.1l5.4,6.4l0,0l7.1,6.5l0,0l4.9,5.5c0.1,0.1,0.1,0.2,0.1,0.3
		l-0.7,4.2c0,0.1,0,0.2,0.1,0.3l3.7,4.8c0,0,0.1,0.1,0.1,0.1l2.6,1.2l0,0l4.3,1.3c0.1,0,0.1,0.1,0.2,0.1l5.7,8.5
		c0,0.1,0.1,0.1,0.2,0.1l8.7,3.3l0,0l6.2,1.8l0.1,0.1l5.6,3.7c0.1,0.1,0.2,0.1,0.3,0l2.3-1.2c0.2-0.1,0.2-0.3,0.1-0.5
		c0-0.1-0.1-0.1-0.1-0.1c-1.3-0.8-4.6-2.8-4.9-2.9s-6-4.1-6.9-4.7c-0.1,0-0.1-0.1-0.1-0.2l-1.8-6.2c0-0.2,0.1-0.4,0.2-0.4
		c0,0,0.1,0,0.1,0l8.4-0.1c0.6,0,6.7-3.4,7.3-3.8c0,0,0.1,0,0.1-0.1l6.2-7.1l3.4-3.5c0.1-0.1,0.4-0.1,0.5,0c0,0,0.1,0.1,0.1,0.2
		l0.3,1.2c0,0.2,0.2,0.3,0.4,0.3c0,0,0,0,0,0l4.2-1.6c0.2-0.1,0.3-0.3,0.2-0.5c0,0,0,0,0,0l-0.9-1.5c0-0.1-0.1-0.1-0.2-0.1l-4.8-2.2
		c-0.2-0.1-0.2-0.3-0.2-0.5c0-0.1,0.1-0.1,0.2-0.2l1.4-0.6c0.1,0,0.1,0,0.2,0l4.4,0.3c0.1,0,0.2,0.1,0.3,0.2l2.2,3.5
		c0.1,0.1,0.3,0.2,0.4,0.1l3.2-1.2c0.2-0.1,0.3-0.3,0.2-0.4c0-0.1,0-0.1-0.1-0.1l-3.4-3.2c-0.1-0.1-0.1-0.4,0-0.5
		c0,0,0.1-0.1,0.1-0.1l0,0c0.2-0.1,0.3-0.3,0.2-0.4c0,0,0-0.1-0.1-0.1l-4.7-5.4v-0.1l-2.9-5c0-0.1-0.1-0.1-0.2-0.2L83.8,32h-0.1
		h-3.9c-0.1,0-0.3,0.1-0.3,0.2l-1.6,3.4c-0.1,0.1,0,0.3,0.1,0.4l2.2,2.1c0.1,0.1,0.1,0.2,0.1,0.4l-2.2,6.8c-0.1,0.2-0.3,0.3-0.4,0.2
		l-3.1-1.1c-0.2-0.1-0.3-0.2-0.2-0.4l0.7-3.3c0-0.1,0-0.1,0-0.2l-1.8-4.3c0-0.1-0.2-0.2-0.3-0.2L69,35.7c-0.1,0-0.3,0.1-0.3,0.2
		l-2.3,3.5c-0.1,0.1-0.2,0.2-0.3,0.2h-0.5c-0.2,0-0.3-0.2-0.3-0.3v-3.7c0-0.1,0-0.2,0.1-0.2l5.2-6.8c0.1-0.1,0.3-0.2,0.4-0.1l3,1.2
		h0.1H77c0.2,0,0.3-0.2,0.3-0.3c0-0.1,0-0.1-0.1-0.2l-1.7-2.6c0-0.1,0-0.2,0-0.3l1.9-5.2c0-0.1,0-0.2,0-0.3l-1.3-2.1
		c-0.1-0.2-0.3-0.2-0.5-0.1c0,0,0,0,0,0L70,21.9c-0.2,0.1-0.4,0.1-0.5-0.1c0,0,0,0,0,0L67.9,19l0,0l-2.8-3.8
		C65,15,64.8,15,64.6,15.1c-0.1,0.1-0.1,0.1-0.1,0.2l-0.3,2.9v0.1l0.9,4.3c0,0.2-0.1,0.4-0.3,0.4c0,0-0.1,0-0.1,0l-8.2-1.2
		c-0.2,0-0.4,0.1-0.4,0.3c0,0,0,0.1,0,0.1l0.1,2.7C56.2,25,56,25.2,55.8,25.1C55.8,25.1,55.8,25.1,55.8,25.1z"/>
	<path class="st2" d="M78.7,20.7c0.5,0.2,6.9,1.8,6.9,1.8l1,2l3.6,1.8l-0.7,1.5c0,0-3.4-0.8-3.4-0.3c0.6,1.2,1.2,2.3,2,3.3l-1.6,0.5
		l-7-2.6l-1.8-1.5l-0.3-3.4L78.7,20.7z"/>
</g>
<g>
	<path class="st5" d="M54.8,23.1c-1.8-0.6-8-3.3-8.6-3.6h-0.1l-13.1-1.2c-0.1,0-0.1,0-0.2,0L29.9,20c-0.1,0-0.2,0-0.3,0l-11.7-4.5
		h-0.1l-7.7-1.2c-0.1,0-0.2,0-0.3,0.1l-5.2,4.3c-0.1,0.1-0.2,0.3-0.1,0.5c0,0,0,0,0.1,0.1l4.1,3.4c0.1,0.1,0.1,0.1,0.1,0.2L9,23.4
		c0,0.2-0.1,0.4-0.3,0.4c0,0-0.1,0-0.1,0l-5.8-0.1c-0.2,0-0.3,0.1-0.3,0.3c0,0,0,0.1,0,0.1L3.1,26c0,0.2,0.2,0.3,0.4,0.2L6.9,26
		c0.2,0,0.4,0.1,0.4,0.3c0,0,0,0,0,0.1l-0.1,0.7c0,0.1-0.1,0.2-0.2,0.2l-4.4,2c-0.2,0.1-0.3,0.3-0.2,0.5c0,0,0,0,0,0.1l3.3,4.3
		c0.1,0.1,0.2,0.2,0.3,0.1l4.9-1.2l0,0l7.7-0.5c0.1,0,0.2,0,0.3,0.1l5.4,6.4l0,0l7.1,6.5l0,0l4.9,5.5c0.1,0.1,0.1,0.2,0.1,0.3
		l-0.7,4.2c0,0.1,0,0.2,0.1,0.3l3.7,4.8c0,0,0.1,0.1,0.1,0.1l2.6,1.2l0,0l4.3,1.3c0.1,0,0.1,0.1,0.2,0.1l5.7,8.5
		c0,0.1,0.1,0.1,0.2,0.1l8.7,3.3l0,0l6.2,1.8l0.1,0.1l5.6,3.7c0.1,0.1,0.2,0.1,0.3,0l2.3-1.2c0.2-0.1,0.2-0.3,0.1-0.5
		c0-0.1-0.1-0.1-0.1-0.1c-1.3-0.8-4.6-2.8-4.9-2.9s-6-4.1-6.9-4.7c-0.1,0-0.1-0.1-0.1-0.2l-1.8-6.2c0-0.2,0.1-0.4,0.2-0.4
		c0,0,0.1,0,0.1,0l8.4-0.1c0.6,0,6.7-3.4,7.3-3.8c0,0,0.1,0,0.1-0.1l6.2-7.1l3.4-3.5c0.1-0.1,0.4-0.1,0.5,0c0,0,0.1,0.1,0.1,0.2
		l0.3,1.2c0,0.2,0.2,0.3,0.4,0.3c0,0,0,0,0,0l4.2-1.6c0.2-0.1,0.3-0.3,0.2-0.5c0,0,0,0,0,0l-0.9-1.5c0-0.1-0.1-0.1-0.2-0.1l-4.8-2.2
		c-0.2-0.1-0.2-0.3-0.2-0.5c0-0.1,0.1-0.1,0.2-0.2l1.4-0.6c0.1,0,0.1,0,0.2,0l4.4,0.3c0.1,0,0.2,0.1,0.3,0.2l2.2,3.5
		c0.1,0.1,0.3,0.2,0.4,0.1l3.2-1.2c0.2-0.1,0.3-0.3,0.2-0.4c0-0.1,0-0.1-0.1-0.1l-3.4-3.2c-0.1-0.1-0.1-0.4,0-0.5
		c0,0,0.1-0.1,0.1-0.1l0,0c0.2-0.1,0.3-0.3,0.2-0.4c0,0,0-0.1-0.1-0.1l-4.7-5.4v-0.1l-2.9-5c0-0.1-0.1-0.1-0.2-0.2L82.8,30h-0.1
		h-3.9c-0.1,0-0.3,0.1-0.3,0.2l-1.6,3.4c-0.1,0.1,0,0.3,0.1,0.4l2.2,2.1c0.1,0.1,0.1,0.2,0.1,0.4l-2.2,6.8c-0.1,0.2-0.3,0.3-0.4,0.2
		l-3.1-1.1c-0.2-0.1-0.3-0.2-0.2-0.4l0.7-3.3c0-0.1,0-0.1,0-0.2l-1.8-4.3c0-0.1-0.2-0.2-0.3-0.2L68,33.7c-0.1,0-0.3,0.1-0.3,0.2
		l-2.3,3.5c-0.1,0.1-0.2,0.2-0.3,0.2h-0.5c-0.2,0-0.3-0.2-0.3-0.3v-3.7c0-0.1,0-0.2,0.1-0.2l5.2-6.8c0.1-0.1,0.3-0.2,0.4-0.1l3,1.2
		h0.1H76c0.2,0,0.3-0.2,0.3-0.3c0-0.1,0-0.1-0.1-0.2l-1.7-2.6c0-0.1,0-0.2,0-0.3l1.9-5.2c0-0.1,0-0.2,0-0.3l-1.3-2.1
		c-0.1-0.2-0.3-0.2-0.5-0.1c0,0,0,0,0,0L69,19.9c-0.2,0.1-0.4,0.1-0.5-0.1c0,0,0,0,0,0L66.9,17l0,0l-2.8-3.8
		C64,13,63.8,13,63.6,13.1c-0.1,0.1-0.1,0.1-0.1,0.2l-0.3,2.9v0.1l0.9,4.3c0,0.2-0.1,0.4-0.3,0.4c0,0-0.1,0-0.1,0l-8.2-1.2
		c-0.2,0-0.4,0.1-0.4,0.3c0,0,0,0.1,0,0.1l0.1,2.7C55.2,23,55,23.2,54.8,23.1C54.8,23.1,54.8,23.1,54.8,23.1z"/>
	<path class="st5" d="M77.7,18.7c0.5,0.2,6.9,1.8,6.9,1.8l1,2l3.6,1.8l-0.7,1.5c0,0-3.4-0.8-3.4-0.3c0.6,1.2,1.2,2.3,2,3.3l-1.6,0.5
		l-7-2.6l-1.8-1.5l-0.3-3.4L77.7,18.7z"/>
</g>
<g>
	<path class="st2" d="M225.5,77l-0.5,2.5c0,0.1,0,0.2,0,0.4l5.7,12c0.1,0.2,0.1,0.3,0,0.5l-0.6,1.3c-0.1,0.3-0.4,0.4-0.7,0.3
		c-0.1,0-0.2-0.1-0.3-0.2l-5.7-6.9c-0.2-0.2-0.2-0.6,0.1-0.8c0.2-0.2,0.5-0.2,0.7,0l0,0c0.3,0.2,0.6,0.1,0.8-0.2
		c0.1-0.2,0.1-0.4,0.1-0.5l-1.6-3.8c0-0.1,0-0.1,0-0.2l-0.4-5.4c0-0.3,0.2-0.6,0.5-0.6c0.1,0,0.3,0,0.4,0.1l1.3,1
		C225.5,76.5,225.6,76.8,225.5,77z"/>
	<path class="st2" d="M232.6,86.4l6.7-3.8c0.2-0.1,0.3,0,0.4,0.1c0,0,0,0,0,0l0.4,1c0,0.1,0,0.1,0,0.2l-1,8.9c0,0.1-0.1,0.2-0.2,0.2
		l-1.7,1c-0.1,0-0.1,0-0.2,0c-0.5-0.1-3.1-0.4-3.3-0.7s-2-3.3-2.4-3.9c0-0.1,0-0.2,0-0.3l1-2.5C232.4,86.5,232.5,86.4,232.6,86.4z"
		/>
	<path class="st2" d="M241.6,72.6c-0.2,0.8-0.4,1.7-0.4,2.3c-0.1,0.3,0,0.7,0.2,0.9c0.4,0.6,1.1,1.4,1,1.2c0.3-1.3,0.8-2.5,1.4-3.6
		c0.2-0.5,0.1-1.2-0.4-1.5l0,0c-0.6-0.3-1.3-0.2-1.6,0.4C241.7,72.4,241.7,72.5,241.6,72.6z"/>
	<path class="st2" d="M245.1,76.7l0.9,0.6c0.1,0.1,0.2,0.2,0.1,0.3l-0.1,0.6c0,0.1-0.1,0.1-0.1,0.2l-2,1.7c-0.1,0.1-0.3,0.1-0.4,0
		c0,0,0,0,0,0l-0.6-1.1c-0.1-0.2,0-0.3,0.1-0.4l1.5-0.8c0.1-0.1,0.2-0.3,0.1-0.4c0,0,0,0,0,0l0,0c-0.1-0.1-0.1-0.3,0-0.4
		C244.8,76.5,245,76.5,245.1,76.7z"/>
	<path class="st2" d="M246.7,80.1l0.6,1.2c0.1,0.1,0,0.3-0.1,0.4l-1.6,1c-0.1,0.1-0.2,0.1-0.3,0l-1.3-0.8c-0.1-0.1-0.2-0.3-0.1-0.4
		l0.3-0.7c0.1-0.1,0.2-0.2,0.3-0.2l1.2,0.1c0.1,0,0.3-0.1,0.3-0.2l0.2-0.6c0.1-0.2,0.3-0.2,0.4-0.1C246.6,79.9,246.6,80,246.7,80.1z
		"/>
	<path class="st2" d="M230.4,95.3l1.6-0.6c0.1,0,0.1,0,0.2,0l2.2,0.2c0.1,0,0.1,0,0.2,0.1c1,0.7,2.1,1.3,3.2,1.8h1.7
		c0.3,0,0.5,0.2,0.5,0.5c0,0.2-0.1,0.4-0.3,0.5l0,0c-0.2,0.1-3.9-0.6-4.4-0.6s-3.6-0.4-4.6-0.5c-0.2,0-0.3-0.1-0.4-0.3l-0.2-0.3
		C230,95.7,230.1,95.4,230.4,95.3z"/>
	<path class="st2" d="M241.2,89.6l-0.3,1.7c0,0,0,0.1,0,0.1l-0.4,0.7c0,0.1,0,0.2,0,0.3l0.4,1.8c0,0.2,0.2,0.3,0.5,0.3
		c0,0,0.1,0,0.1,0c0.5-0.3,1.4-0.9,1.2-1s-0.4-0.8-0.6-1.3c-0.1-0.2,0.1-0.4,0.2-0.5c0,0,0,0,0,0l0.3-0.1c0.2-0.1,0.4,0,0.5,0.2
		l0.5,1.5c0.1,0.2,0.3,0.3,0.5,0.2c0.1,0,0.2-0.1,0.2-0.2l0,0c0-0.1,0-0.2,0-0.3l-1-2.2c-0.1-0.2,0-0.4,0.2-0.5c0,0,0.1,0,0.1,0l0,0
		c0.1,0,0.3,0,0.4,0.2l0.4,0.6c0.1,0.1,0.2,0.2,0.4,0.2h0.1c0.2,0,0.4-0.2,0.3-0.4c0,0,0-0.1,0-0.1l-0.4-1.2
		c-0.1-0.2-0.3-0.3-0.5-0.3c0,0,0,0,0,0l-1.8,0.6c-0.2,0-0.3,0-0.4-0.1l-0.2-0.3c-0.1-0.2-0.3-0.3-0.5-0.2
		C241.3,89.3,241.2,89.4,241.2,89.6z"/>
</g>
<g>
	<path class="st6" d="M225.5,76l-0.5,2.5c0,0.1,0,0.2,0,0.4l5.7,12c0.1,0.2,0.1,0.3,0,0.5l-0.6,1.3c-0.1,0.3-0.4,0.4-0.7,0.3
		c-0.1,0-0.2-0.1-0.3-0.2l-5.7-6.9c-0.2-0.2-0.2-0.6,0.1-0.8c0.2-0.2,0.5-0.2,0.7,0l0,0c0.3,0.2,0.6,0.1,0.8-0.2
		c0.1-0.2,0.1-0.4,0.1-0.5l-1.6-3.8c0-0.1,0-0.1,0-0.2l-0.4-5.4c0-0.3,0.2-0.6,0.5-0.6c0.1,0,0.3,0,0.4,0.1l1.3,1
		C225.5,75.5,225.6,75.8,225.5,76z"/>
	<path class="st6" d="M232.6,85.4l6.7-3.8c0.2-0.1,0.3,0,0.4,0.1c0,0,0,0,0,0l0.4,1c0,0.1,0,0.1,0,0.2l-1,8.9c0,0.1-0.1,0.2-0.2,0.2
		l-1.7,1c-0.1,0-0.1,0-0.2,0c-0.5-0.1-3.1-0.4-3.3-0.7s-2-3.3-2.4-3.9c0-0.1,0-0.2,0-0.3l1-2.5C232.4,85.5,232.5,85.4,232.6,85.4z"
		/>
	<path class="st6" d="M241.6,71.6c-0.2,0.8-0.4,1.7-0.4,2.3c-0.1,0.3,0,0.7,0.2,0.9c0.4,0.6,1.1,1.4,1,1.2c0.3-1.3,0.8-2.5,1.4-3.6
		c0.2-0.5,0.1-1.2-0.4-1.5l0,0c-0.6-0.3-1.3-0.2-1.6,0.4C241.7,71.4,241.7,71.5,241.6,71.6z"/>
	<path class="st6" d="M245.1,75.7l0.9,0.6c0.1,0.1,0.2,0.2,0.1,0.3l-0.1,0.6c0,0.1-0.1,0.1-0.1,0.2l-2,1.7c-0.1,0.1-0.3,0.1-0.4,0
		c0,0,0,0,0,0l-0.6-1.1c-0.1-0.2,0-0.3,0.1-0.4l1.5-0.8c0.1-0.1,0.2-0.3,0.1-0.4c0,0,0,0,0,0l0,0c-0.1-0.1-0.1-0.3,0-0.4
		C244.8,75.5,245,75.5,245.1,75.7z"/>
	<path class="st6" d="M246.7,79.1l0.6,1.2c0.1,0.1,0,0.3-0.1,0.4l-1.6,1c-0.1,0.1-0.2,0.1-0.3,0l-1.3-0.8c-0.1-0.1-0.2-0.3-0.1-0.4
		l0.3-0.7c0.1-0.1,0.2-0.2,0.3-0.2l1.2,0.1c0.1,0,0.3-0.1,0.3-0.2l0.2-0.6c0.1-0.2,0.3-0.2,0.4-0.1C246.6,78.9,246.6,79,246.7,79.1z
		"/>
	<path class="st6" d="M230.4,94.3l1.6-0.6c0.1,0,0.1,0,0.2,0l2.2,0.2c0.1,0,0.1,0,0.2,0.1c1,0.7,2.1,1.3,3.2,1.8h1.7
		c0.3,0,0.5,0.2,0.5,0.5c0,0.2-0.1,0.4-0.3,0.5l0,0c-0.2,0.1-3.9-0.6-4.4-0.6s-3.6-0.4-4.6-0.5c-0.2,0-0.3-0.1-0.4-0.3l-0.2-0.3
		C230,94.7,230.1,94.4,230.4,94.3z"/>
	<path class="st6" d="M241.2,88.6l-0.3,1.7c0,0,0,0.1,0,0.1l-0.4,0.7c0,0.1,0,0.2,0,0.3l0.4,1.8c0,0.2,0.2,0.3,0.5,0.3
		c0,0,0.1,0,0.1,0c0.5-0.3,1.4-0.9,1.2-1s-0.4-0.8-0.6-1.3c-0.1-0.2,0.1-0.4,0.2-0.5c0,0,0,0,0,0l0.3-0.1c0.2-0.1,0.4,0,0.5,0.2
		l0.5,1.5c0.1,0.2,0.3,0.3,0.5,0.2c0.1,0,0.2-0.1,0.2-0.2l0,0c0-0.1,0-0.2,0-0.3l-1-2.2c-0.1-0.2,0-0.4,0.2-0.5c0,0,0.1,0,0.1,0l0,0
		c0.1,0,0.3,0,0.4,0.2l0.4,0.6c0.1,0.1,0.2,0.2,0.4,0.2h0.1c0.2,0,0.4-0.2,0.3-0.4c0,0,0-0.1,0-0.1l-0.4-1.2
		c-0.1-0.2-0.3-0.3-0.5-0.3c0,0,0,0,0,0l-1.8,0.6c-0.2,0-0.3,0-0.4-0.1l-0.2-0.3c-0.1-0.2-0.3-0.3-0.5-0.2
		C241.3,88.3,241.2,88.4,241.2,88.6z"/>
</g>
</svg>
