<?xml version="1.0" encoding="utf-8"?>
<!-- Generator: Adobe Illustrator 19.0.0, SVG Export Plug-In . SVG Version: 6.00 Build 0)  -->
<svg version="1.1" id="Layer_1" xmlns="http://www.w3.org/2000/svg" xmlns:xlink="http://www.w3.org/1999/xlink" x="0px" y="0px"
	 viewBox="130 -65 300.7 171" style="enable-background:new 130 -65 300.7 171;" xml:space="preserve">
<style type="text/css">
	.st0{fill:#B1EFFF;}
	.st1{fill:#666666;}
	.st2{fill:#45ABE1;}
	.st3{fill:#8A77B5;}
	.st4{fill:#F78330;}
	.st5{fill:#5FD92B;}
</style>
<title>Asset 2</title>
<path class="st0" d="M142.7-65H418c7,0,12.7,5.7,12.7,12.7v145c0,7-5.7,12.7-12.7,12.7H142.7c-7,0-12.7-5.7-12.7-12.7v-145
	C130-59.3,135.7-65,142.7-65z"/>
<path class="st1" d="M208.7,13.2l9-1.1c0.7-0.1,1.4,0.1,2,0.6l15.8,12.2c0.2,0.1,0.3,0.2,0.5,0.3l5.1,2.5c1.3,0.6,1.9,2.2,1.4,3.5
	c-1.5,3.9-4.4,11.4-5,11.4c-0.7,0-7.2,8.2-8,9.2c-0.1,0.1-0.1,0.2-0.2,0.2L219,62.5c-0.2,0.2-0.4,0.5-0.5,0.7l-4.1,8.6
	c-0.4,0.8-0.4,1.8,0.1,2.6l3,4.9c0.8,1.3,0.3,3-1,3.8l0,0l0,0c-1.3,0.8-3,0.4-3.8-1c-0.1-0.2-0.2-0.4-0.3-0.6l-2.5-7.5
	c-0.1-0.5-0.1-1,0-1.5c0.8-3,3.5-13.8,3.5-14.5s-0.2-13.6-0.2-17.3c0-0.6-0.2-1.2-0.6-1.7l-8-10.3c-0.5-0.6-0.7-1.4-0.5-2.2l1.5-8.5
	c0-0.1,0-0.2,0.1-0.2l0.7-2.7C206.7,14.2,207.6,13.4,208.7,13.2z"/>
<path class="st1" d="M396.7,57.7c0.7-1.8,2.4-5.8,3.1-7.4c0.2-0.4,0.1-0.9-0.1-1.3l-7.2-11.1c0,0,0,0,0-0.1l-2-3.4
	c-0.4-0.7-1.3-0.9-1.9-0.5c-0.2,0.1-0.4,0.3-0.5,0.5l-0.9,1.7c-0.4,0.7-1.2,0.9-1.9,0.5c-0.2-0.1-0.3-0.2-0.4-0.3l-0.4-0.4
	c-0.2-0.2-0.3-0.6-0.3-0.9l0,0c0-0.8-0.6-1.4-1.4-1.4c-0.1,0-0.2,0-0.3,0l-5.3,1.1c-0.2,0.1-0.5,0.2-0.7,0.3l-6.4,5.7
	c-0.1,0.1-0.3,0.2-0.5,0.3l-4,1.5c-0.7,0.2-1,0.9-0.9,1.6l2.2,10.8c0.2,0.7,0.8,1.2,1.6,1.1l11.4-1.7c0.2,0,0.5,0,0.7,0.1l7.6,2.7
	c0.3,0.1,0.5,0.3,0.7,0.5l1,1.4c0.3,0.4,0.8,0.7,1.4,0.6l4.4-0.7C396.1,58.5,396.5,58.1,396.7,57.7z"/>
<path class="st1" d="M265.9-10.3c-2.6,1.8-7.7,9.2-9.2,11.4c-0.3,0.4-0.4,0.9-0.3,1.3l1.7,10.6c0.1,0.6,0.5,1.1,1,1.4l6.6,3.3
	c0.3,0.1,0.5,0.2,0.8,0.2h9.8c0.2,0,0.4,0,0.6,0.1l2.7,1c0.6,0.2,1,0.7,1.1,1.3c0.7,3.1,2.9,12.7,2.2,13.5c-0.7,0.8,0.6,13,0.9,15.5
	c0,0.3,0.1,0.6,0.3,0.8l3.9,5.5c0.6,0.8,1.7,1,2.5,0.5l4.4-2.8c0.2-0.1,0.4-0.3,0.5-0.5l6-8.8c0.1-0.2,0.2-0.4,0.3-0.6l3-11.2
	c0.1-0.3,0.1-0.7,0-1.1l-1-3c-0.2-0.5-0.2-1.2,0.2-1.7l8.3-11.8c0.6-0.8,0.5-2-0.4-2.6c-0.4-0.3-0.9-0.4-1.4-0.4l-3.5,0.5
	c-0.9,0.1-1.7-0.3-2-1.1l-2.4-6l-3.6-10c-0.2-0.6-0.7-1-1.4-1.2L290-7.7c-0.8-0.1-1.7,0.3-2,1.1l0,0c-0.4,0.9-1.5,1.4-2.4,1
	c-0.1,0-0.2-0.1-0.3-0.2l-3-2.1c-0.5-0.3-0.8-0.9-0.8-1.5v-0.3c0-1-0.8-1.8-1.8-1.8c-0.1,0-0.1,0-0.2,0l-12.6,0.8
	C266.5-10.7,266.2-10.6,265.9-10.3z"/>
<path class="st1" d="M427-39.8c0.4-0.2,0.6-0.8,0.4-1.2c-0.1-0.2-0.3-0.4-0.6-0.5l-14.4-3.6l-13.5-3.2L385-52.1
	c-0.3-0.1-0.7,0-0.9,0.3l-1.4,1.7c-0.2,0.2-0.4,0.3-0.6,0.3l-15,1h-0.2l-7.7-1.3c-0.1,0-0.2,0-0.3,0l-20.3,3.6c-0.2,0-0.3,0-0.5,0
	l-6.5-2.6c-0.4-0.1-0.8,0-1,0.3l-3.6,4.6c-0.1,0.2-0.3,0.3-0.5,0.3l-15.8,3.3c-0.3,0.1-0.6,0-0.8-0.2l-1.6-1.4
	c-0.3-0.3-0.8-0.3-1.1-0.1c-1.5,1.1-5.2,3.8-5.8,3.8c-0.6,0,0.3-1.4,0.9-2.4c0.2-0.4,0.1-1-0.3-1.2c-0.1,0-0.1-0.1-0.2-0.1l-9.2-2.4
	c-0.1,0-0.2,0-0.4,0l-6.9,1.2c-0.2,0-0.3,0.1-0.5,0.2c-1,1-5.8,5.7-6.4,5.7c-0.5,0-1.5,1.5-2.2,2.5c-0.3,0.4-0.1,1,0.3,1.2
	c0,0,0.1,0,0.1,0.1l2.9,1.2c0.5,0.2,0.7,0.7,0.5,1.2c-0.1,0.1-0.1,0.2-0.2,0.3l-3.8,3.3c-0.3,0.3-0.7,0.3-1.1,0.1l-4.9-3.1l-1.8-1.2
	c-0.4-0.3-1-0.2-1.2,0.2c-0.2,0.2-0.2,0.5-0.1,0.8l1.4,5.6v0.1l1.3,3.8c0.1,0.2,0.1,0.5,0,0.7l-1.2,2.6c-0.2,0.4-0.6,0.6-1.1,0.5
	l-2.5-0.7c-0.5-0.1-1,0.1-1.1,0.6c0,0,0,0,0,0.1l-0.6,3.3c-0.1,0.5,0.2,1,0.7,1l5.1,1c0.3,0.1,0.5,0,0.7-0.2l8.9-7.1
	c0.4-0.3,0.9-0.3,1.2,0.1l5.6,5.4c0.1,0.2,0.3,0.2,0.6,0.2c1.6,0.1,8.9,0.5,9.8,0.7c1.9,0.8,3.8,1.7,5.6,2.7
	c0.3,0.2,0.5,0.5,0.5,0.8l-0.2,5.1c0,0.2,0,0.3,0.1,0.5l7.1,13.8c0.2,0.4,0.7,0.6,1.2,0.4l11-5c0.4-0.2,0.6-0.7,0.4-1.2
	c-0.1-0.1-0.1-0.2-0.2-0.3l-8.4-7c-0.4-0.3-0.4-0.9-0.1-1.3c0.2-0.2,0.4-0.3,0.6-0.3l1.7-0.1c0.1,0,0.3,0,0.4,0.1l12.8,5
	c0.2,0.1,0.3,0.2,0.4,0.3l9.7,14.5c0.3,0.4,0.8,0.5,1.2,0.3c0.2-0.2,0.4-0.4,0.4-0.7l0.5-8.1c0-0.4,0.3-0.7,0.6-0.8l5.7-2
	c0.4-0.1,0.8,0,1,0.3l4.4,5.8c0.1,0.1,0.1,0.2,0.2,0.2l4,2.6l0.1,0.1l3,2.6c0.4,0.3,0.9,0.3,1.3-0.1c0.1-0.1,0.2-0.2,0.2-0.4
	l1.4-6.3c0-0.1,0-0.1,0-0.2V3c0-0.4,0.3-0.8,0.7-0.9l6.1-1.5c0.2-0.1,0.4-0.2,0.5-0.4l4.3-6.6c0.1-0.1,0.1-0.3,0.1-0.5l0.2-5.9
	c0-0.5,0.4-0.9,0.9-0.9c0.3,0,0.6,0.1,0.7,0.4l1.5,2.2c0.3,0.4,0.8,0.5,1.2,0.2c0,0,0.1,0,0.1-0.1l1.5-1.3c0.2-0.1,0.3-0.3,0.3-0.6
	L381-18c0-0.3,0.2-0.6,0.5-0.7l4.9-2.1c0.2-0.1,0.4-0.2,0.5-0.4l1.8-3.6c0.2-0.4,0.8-0.6,1.2-0.4c0.1,0,0.1,0.1,0.2,0.1l0,0
	c0.4,0.3,0.9,0.3,1.2-0.1c0.2-0.2,0.2-0.5,0.2-0.7l-0.2-1.5c-0.1-0.3-0.3-0.6-0.6-0.7l-4.1-1.1c-0.5-0.1-0.8-0.6-0.6-1.1
	c0.1-0.2,0.2-0.3,0.3-0.5l2.8-2.2c0.1-0.1,0.3-0.2,0.5-0.2l17.7-2l11.6-0.7c0.1,0,0.2,0,0.4-0.1L427-39.8z"/>
<g>
	<path class="st2" d="M216.3-53.2l15.4-3.4c0.1,0,0.3,0,0.4,0l27.5,0.7c0.9,0,1.6,0.7,1.7,1.6l0,0c0.1,0.5-0.1,1.1-0.5,1.5
		l-10.4,10.2c-0.2,0.2-0.4,0.3-0.7,0.4l-10.2,3.3c-0.4,0.2-0.8,0.5-1,0.9c-0.7,1.4-2.5,4.8-3.1,4.8c-2.5-0.8-4.9-1.7-7.3-2.7
		c-0.4-0.2-0.7-0.4-0.9-0.8l-5.1-9.1c-0.2-0.3-0.4-0.5-0.6-0.6l-5.1-3.1c-0.1-0.1-0.2-0.1-0.3-0.1l0,0c-0.9-0.4-1.4-1.4-1-2.3
		C215.2-52.7,215.7-53.1,216.3-53.2z"/>
	<path class="st2" d="M192.6-54.8l13.1-1.7h0.1l12.3,0.5c0.2,0,0.4,0.2,0.3,0.4c0,0.1,0,0.2-0.1,0.2l0,0l-0.1,0.1
		c-0.9,0.3-8.6,3.1-9.1,3.2c-0.5,0.1-1.4,2.1-1.6,2.5c0,0.1,0,0.1,0,0.2l0.2,1.1c0,0.2-0.1,0.4-0.3,0.4c-0.1,0-0.2,0-0.3-0.1
		l-3.6-2.7c-0.1-0.1-0.3-0.1-0.4,0l-2,1.7c-0.2,0.1-0.4,0.1-0.5-0.1l0,0l-1.2-2.1c-0.1-0.2-0.3-0.3-0.5-0.2c-0.1,0-0.1,0.1-0.2,0.2
		l-0.5,1.1c-0.1,0.2-0.3,0.3-0.5,0.2c0,0,0,0-0.1,0l-4-3l0,0l-1.2-1.1c-0.2-0.1-0.2-0.4-0.1-0.5C192.4-54.7,192.5-54.7,192.6-54.8z"
		/>
	<path class="st2" d="M252.6-40.7l7.5-0.2l1.1,2.6c0,0-4.4,1.3-5.1,1c-0.7-0.3-4.8-2.1-4.8-2.1L252.6-40.7z"/>
	<polygon class="st2" points="280.9,-53.7 283.2,-54.2 285.7,-52.7 292.9,-54.7 293.4,-53.5 291.8,-51.1 289.5,-50.9 287.2,-51.4 
		286.2,-48.8 282.6,-50.6 279.8,-51.9 	"/>
	<path class="st2" d="M311.6-54.2l5.9-0.5l6.1-0.2l2.3,0.5c-1.9,0.5-3.9,0.8-5.9,1h-6.9L311.6-54.2z"/>
</g>
<path class="st1" d="M392.4-13.9l2.1,0.8c0.4,0.2,0.6,0.6,0.5,1c-0.1,0.2-0.2,0.3-0.4,0.4l-1.2,0.6c-0.2,0.1-0.5,0.1-0.7,0h-0.1
	c-0.4-0.2-0.9,0-1,0.4c-0.1,0.2-0.1,0.4,0,0.6l0.6,1.6c0,0.1,0,0.2,0,0.4l-0.4,3.2c0,0.3-0.3,0.6-0.6,0.7l-6.4,1.3
	c-0.2,0-0.3,0.1-0.5,0.3l-0.6,0.8c-0.3,0.3-0.8,0.4-1.1,0.1c-0.1-0.1-0.2-0.2-0.2-0.3l0,0c-0.1-0.3-0.1-0.6,0.1-0.8l1.6-2
	c0.2-0.2,0.4-0.3,0.6-0.3l1.9,0.1c0.2,0,0.4,0,0.5-0.2l3-2.1c0.2-0.1,0.3-0.3,0.3-0.5l0.5-2c0-0.2,0-0.4-0.1-0.5l-0.6-1.2
	c-0.1-0.3-0.1-0.7,0.1-0.9l1.1-1.2C391.8-13.9,392.1-14,392.4-13.9z"/>
<path class="st3" d="M159.6,106c-0.6,0-1.1-0.5-1.1-1.1c0-0.2,0.1-0.5,0.2-0.7c2-2.4,5.3-6.6,5.6-6.7s9.9-3.4,12.7-3.4
	s12.9-0.2,12.4-0.4c-0.1-0.1-0.2-0.1-0.3-0.2c-0.4-0.4-0.4-1.1,0-1.5c0.3-0.3,0.6-0.4,1-0.3c3.3,0.9,7.9,2.2,8.3,2.2
	c0.6,0,10.1-1.7,11.5-2c0.1,0,0.2-0.1,0.3-0.1l7.7-4.4c0.1-0.1,0.2-0.2,0.3-0.3l0.2-0.2c0.3-0.5,1-0.6,1.5-0.2
	c0.3,0.3,0.5,0.7,0.4,1.1l0,0c-0.1,0.3,0,0.7,0.2,0.9c0.3,0.3,0.6,0.8,0.6,1s-0.1,2.1-0.2,3.1c0,0.4,0.1,0.8,0.5,1l2.2,1.5
	c0.2,0.1,0.4,0.2,0.6,0.2l9.8,0.2c0,0,10.1,0.1,10.4-0.2c0.3-0.3,9.6-3.1,11-3.6c0.1,0,0.3,0,0.4,0l7,0.6c0.2,0,0.3,0,0.5-0.1
	l11.1-4.6c0.2-0.1,0.5-0.1,0.7,0l15.2,4.5c0.1,0,0.2,0,0.3,0l4.9-0.1c0.4,0,0.8-0.2,1-0.6l0.9-2.1c0.2-0.4,0.6-0.7,1.1-0.6l4.4,0.3
	c0.1,0,0.1,0,0.2,0l7.1,2.1c0.2,0.1,0.5,0.1,0.8-0.1l4.4-2c0.4-0.2,0.6-0.5,0.6-0.9l0.2-2.3c0-0.6,0.5-1,1.1-1h3.7
	c0.1,0,0.3,0,0.4,0.1l8.9,3.8c0.1,0.1,0.2,0.1,0.3,0.2l3.7,3.3c0.2,0.2,0.5,0.3,0.8,0.3l0.8-0.1c0.5-0.1,0.9-0.5,0.9-1l0.4-4.3
	c0-0.3,0.1-0.5,0.3-0.7l0.9-0.9c0.2-0.2,0.5-0.3,0.8-0.3l1.7,0.1c0.1,0,0.2,0,0.2,0.1l9.2,2.8c0.1,0,0.2,0.1,0.3,0.1h4.2
	c0.5,0,0.9-0.4,0.9-0.9c0-0.1,0-0.3-0.1-0.4l0,0c-0.2-0.4-0.1-1,0.3-1.2c0.1-0.1,0.3-0.1,0.4-0.1l7.8-0.1c0.1,0,0.2,0,0.3,0
	l12.3,3.7h0.1c0.8,0.2,1.5,0.3,2.3,0.4c1.9-0.7,3.8-1.5,5.7-2.4c0.2-0.1,0.3-0.1,0.5-0.1l9,0.4c0.6,0,1,0.5,1,1.1v0.8
	c0,0.6,0.5,1.1,1.1,1.1c0.1,0,0.2,0,0.4-0.1l1.8-0.6l0.2-0.1l1.8-1.1c0.2-0.1,0.5-0.2,0.8-0.1l5.2,1.2l3.9,0.9
	c0.2,0,0.4,0.2,0.5,0.3l0.1,0.1c0.3,0.4,0.2,0.9-0.1,1.2c-0.1,0.1-0.1,0.1-0.2,0.1l-3.2,1.5c-0.5,0.2-0.8,0.9-0.6,1.4l0.4,1
	c0.1,0.2,0.3,0.4,0.5,0.6l2.1,1c0.3,0.1,0.6,0.1,0.9,0l2.4-1.2c0.3-0.1,0.6-0.1,0.9,0l3.7,1.7c0.4,0.2,0.6,0.5,0.6,0.9l0.2,3
	c0,0.3-0.1,0.5-0.2,0.8l-1.6,2c-0.2,0.3-0.5,0.4-0.8,0.4L159.6,106z"/>
<g>
	<path class="st4" d="M184.8-41.9c-1.8-0.6-8-3.3-8.6-3.6h-0.1L163-46.7c-0.1,0-0.1,0-0.2,0l-2.9,1.7c-0.1,0-0.2,0-0.3,0l-11.7-4.5
		h-0.1l-7.7-1.2c-0.1,0-0.2,0-0.3,0.1l-5.2,4.3c-0.1,0.1-0.2,0.3-0.1,0.5c0,0,0,0,0.1,0.1l4.1,3.4c0.1,0.1,0.1,0.1,0.1,0.2l0.2,0.5
		c0,0.2-0.1,0.4-0.3,0.4h-0.1l-5.8-0.1c-0.2,0-0.3,0.1-0.3,0.3v0.1l0.6,1.9c0,0.2,0.2,0.3,0.4,0.2l3.4-0.2c0.2,0,0.4,0.1,0.4,0.3
		c0,0,0,0,0,0.1l-0.1,0.7c0,0.1-0.1,0.2-0.2,0.2l-4.4,2c-0.2,0.1-0.3,0.3-0.2,0.5c0,0,0,0,0,0.1l3.3,4.3c0.1,0.1,0.2,0.2,0.3,0.1
		l4.9-1.2l0,0l7.7-0.5c0.1,0,0.2,0,0.3,0.1l5.4,6.4l0,0l7.1,6.5l0,0l4.9,5.5c0.1,0.1,0.1,0.2,0.1,0.3l-0.7,4.2c0,0.1,0,0.2,0.1,0.3
		l3.7,4.8l0.1,0.1l2.6,1.2l0,0l4.3,1.3c0.1,0,0.1,0.1,0.2,0.1l5.7,8.5c0,0.1,0.1,0.1,0.2,0.1l8.7,3.3l0,0l6.2,1.8l0.1,0.1l5.6,3.7
		c0.1,0.1,0.2,0.1,0.3,0l2.3-1.2c0.2-0.1,0.2-0.3,0.1-0.5c0-0.1-0.1-0.1-0.1-0.1c-1.3-0.8-4.6-2.8-4.9-2.9s-6-4.1-6.9-4.7
		c-0.1,0-0.1-0.1-0.1-0.2l-1.8-6.2c0-0.2,0.1-0.4,0.2-0.4h0.1l8.4-0.1c0.6,0,6.7-3.4,7.3-3.8c0,0,0.1,0,0.1-0.1l6.2-7.1l3.4-3.5
		c0.1-0.1,0.4-0.1,0.5,0c0,0,0.1,0.1,0.1,0.2l0.3,1.2c0,0.2,0.2,0.3,0.4,0.3l0,0l4.2-1.6c0.2-0.1,0.3-0.3,0.2-0.5l0,0l-0.9-1.5
		c0-0.1-0.1-0.1-0.2-0.1l-4.8-2.2c-0.2-0.1-0.2-0.3-0.2-0.5c0-0.1,0.1-0.1,0.2-0.2l1.4-0.6c0.1,0,0.1,0,0.2,0l4.4,0.3
		c0.1,0,0.2,0.1,0.3,0.2l2.2,3.5c0.1,0.1,0.3,0.2,0.4,0.1l3.2-1.2c0.2-0.1,0.3-0.3,0.2-0.4c0-0.1,0-0.1-0.1-0.1l-3.4-3.2
		c-0.1-0.1-0.1-0.4,0-0.5l0.1-0.1l0,0c0.2-0.1,0.3-0.3,0.2-0.4c0,0,0-0.1-0.1-0.1l-4.7-5.4v-0.1l-2.9-5c0-0.1-0.1-0.1-0.2-0.2l-6-2
		h-0.1h-3.9c-0.1,0-0.3,0.1-0.3,0.2l-1.6,3.4c-0.1,0.1,0,0.3,0.1,0.4l2.2,2.1c0.1,0.1,0.1,0.2,0.1,0.4l-2.2,6.8
		c-0.1,0.2-0.3,0.3-0.4,0.2l-3.1-1.1c-0.2-0.1-0.3-0.2-0.2-0.4l0.7-3.3c0-0.1,0-0.1,0-0.2l-1.8-4.3c0-0.1-0.2-0.2-0.3-0.2l-4-0.3
		c-0.1,0-0.3,0.1-0.3,0.2l-2.3,3.5c-0.1,0.1-0.2,0.2-0.3,0.2h-0.5c-0.2,0-0.3-0.2-0.3-0.3v-3.7c0-0.1,0-0.2,0.1-0.2l5.2-6.8
		c0.1-0.1,0.3-0.2,0.4-0.1l3,1.2h0.1h2.9c0.2,0,0.3-0.2,0.3-0.3s0-0.1-0.1-0.2l-1.7-2.6c0-0.1,0-0.2,0-0.3l1.9-5.2
		c0-0.1,0-0.2,0-0.3l-1.3-2.1c-0.1-0.2-0.3-0.2-0.5-0.1l0,0l-5.6,3.3c-0.2,0.1-0.4,0.1-0.5-0.1l0,0l-1.6-2.8l0,0l-2.8-3.8
		c-0.1-0.2-0.3-0.2-0.5-0.1c-0.1,0.1-0.1,0.1-0.1,0.2l-0.3,2.9v0.1l0.9,4.3c0,0.2-0.1,0.4-0.3,0.4h-0.1l-8.2-1.2
		c-0.2,0-0.4,0.1-0.4,0.3v0.1l0.1,2.7C185.2-42,185-41.8,184.8-41.9L184.8-41.9z"/>
	<path class="st4" d="M207.7-46.3c0.5,0.2,6.9,1.8,6.9,1.8l1,2l3.6,1.8l-0.7,1.5c0,0-3.4-0.8-3.4-0.3c0.6,1.2,1.2,2.3,2,3.3
		l-1.6,0.5l-7-2.6l-1.8-1.5l-0.3-3.4L207.7-46.3z"/>
</g>
<g>
	<path class="st5" d="M355.5,11l-0.5,2.5c0,0.1,0,0.2,0,0.4l5.7,12c0.1,0.2,0.1,0.3,0,0.5l-0.6,1.3c-0.1,0.3-0.4,0.4-0.7,0.3
		c-0.1,0-0.2-0.1-0.3-0.2l-5.7-6.9c-0.2-0.2-0.2-0.6,0.1-0.8c0.2-0.2,0.5-0.2,0.7,0l0,0c0.3,0.2,0.6,0.1,0.8-0.2
		c0.1-0.2,0.1-0.4,0.1-0.5l-1.6-3.8c0-0.1,0-0.1,0-0.2l-0.4-5.4c0-0.3,0.2-0.6,0.5-0.6c0.1,0,0.3,0,0.4,0.1l1.3,1
		C355.5,10.5,355.6,10.8,355.5,11z"/>
	<path class="st5" d="M362.6,20.4l6.7-3.8c0.2-0.1,0.3,0,0.4,0.1l0,0l0.4,1c0,0.1,0,0.1,0,0.2l-1,8.9c0,0.1-0.1,0.2-0.2,0.2l-1.7,1
		c-0.1,0-0.1,0-0.2,0c-0.5-0.1-3.1-0.4-3.3-0.7c-0.2-0.3-2-3.3-2.4-3.9c0-0.1,0-0.2,0-0.3l1-2.5C362.4,20.5,362.5,20.4,362.6,20.4z"
		/>
	<path class="st5" d="M371.6,6.6c-0.2,0.8-0.4,1.7-0.4,2.3c-0.1,0.3,0,0.7,0.2,0.9c0.4,0.6,1.1,1.4,1,1.2c0.3-1.3,0.8-2.5,1.4-3.6
		c0.2-0.5,0.1-1.2-0.4-1.5l0,0c-0.6-0.3-1.3-0.2-1.6,0.4C371.7,6.4,371.7,6.5,371.6,6.6z"/>
	<path class="st5" d="M375.1,10.7l0.9,0.6c0.1,0.1,0.2,0.2,0.1,0.3l-0.1,0.6c0,0.1-0.1,0.1-0.1,0.2l-2,1.7c-0.1,0.1-0.3,0.1-0.4,0
		l0,0l-0.6-1.1c-0.1-0.2,0-0.3,0.1-0.4l1.5-0.8c0.1-0.1,0.2-0.3,0.1-0.4l0,0l0,0c-0.1-0.1-0.1-0.3,0-0.4
		C374.8,10.5,375,10.5,375.1,10.7z"/>
	<path class="st5" d="M376.7,14.1l0.6,1.2c0.1,0.1,0,0.3-0.1,0.4l-1.6,1c-0.1,0.1-0.2,0.1-0.3,0l-1.3-0.8c-0.1-0.1-0.2-0.3-0.1-0.4
		l0.3-0.7c0.1-0.1,0.2-0.2,0.3-0.2l1.2,0.1c0.1,0,0.3-0.1,0.3-0.2l0.2-0.6c0.1-0.2,0.3-0.2,0.4-0.1C376.6,13.9,376.6,14,376.7,14.1z
		"/>
	<path class="st5" d="M360.4,29.3l1.6-0.6c0.1,0,0.1,0,0.2,0l2.2,0.2c0.1,0,0.1,0,0.2,0.1c1,0.7,2.1,1.3,3.2,1.8h1.7
		c0.3,0,0.5,0.2,0.5,0.5c0,0.2-0.1,0.4-0.3,0.5l0,0c-0.2,0.1-3.9-0.6-4.4-0.6s-3.6-0.4-4.6-0.5c-0.2,0-0.3-0.1-0.4-0.3l-0.2-0.3
		C360,29.7,360.1,29.4,360.4,29.3z"/>
	<path class="st5" d="M371.2,23.6l-0.3,1.7v0.1l-0.4,0.7c0,0.1,0,0.2,0,0.3l0.4,1.8c0,0.2,0.2,0.3,0.5,0.3h0.1
		c0.5-0.3,1.4-0.9,1.2-1c-0.2-0.1-0.4-0.8-0.6-1.3c-0.1-0.2,0.1-0.4,0.2-0.5l0,0l0.3-0.1c0.2-0.1,0.4,0,0.5,0.2l0.5,1.5
		c0.1,0.2,0.3,0.3,0.5,0.2c0.1,0,0.2-0.1,0.2-0.2l0,0c0-0.1,0-0.2,0-0.3l-1-2.2c-0.1-0.2,0-0.4,0.2-0.5h0.1l0,0c0.1,0,0.3,0,0.4,0.2
		l0.4,0.6c0.1,0.1,0.2,0.2,0.4,0.2h0.1c0.2,0,0.4-0.2,0.3-0.4v-0.1l-0.4-1.2c-0.1-0.2-0.3-0.3-0.5-0.3l0,0l-1.8,0.6
		c-0.2,0-0.3,0-0.4-0.1l-0.2-0.3c-0.1-0.2-0.3-0.3-0.5-0.2C371.3,23.3,371.2,23.4,371.2,23.6z"/>
</g>
</svg>
